<svg width="18" height="18" viewBox="0 0 18 18" fill="none" xmlns="http://www.w3.org/2000/svg">
<g clip-path="url(#clip0_7702_139600)">
<path d="M1.89352 17.6429C2.27313 18.0241 2.83742 18.1065 3.4017 17.8592L6.79767 16.4374C7.05416 16.3344 7.18754 16.2313 7.35169 16.0665L17.2626 6.18579C18.2475 5.19669 18.2475 4.01183 17.2523 3.00212L15.026 0.756037C14.0308 -0.243366 12.8509 -0.25367 11.866 0.735431L1.95508 10.6058C1.78066 10.781 1.68833 10.9046 1.57547 11.1725L0.13911 14.5725C-0.096864 15.1186 -0.0353057 15.6544 0.344304 16.0768C1.02417 16.8333 1.0285 16.8691 1.89352 17.6429ZM13.0048 2.09544C13.2715 1.83787 13.5896 1.82756 13.8358 2.08514L15.9288 4.19728C16.1853 4.45486 16.175 4.76396 15.898 5.03184L15.2312 5.70154L12.3277 2.77545L13.0048 2.09544ZM3.77105 11.3167L11.2196 3.88819L14.1128 6.81428L6.67455 14.2428L3.77105 11.3167ZM3.19651 16.0356C3.00157 16.1077 2.8682 16.1077 2.69378 15.9325L2.04742 15.2938C1.88326 15.1289 1.88326 14.9744 1.95508 14.7992L2.87845 12.6459L5.34079 15.1392L3.19651 16.0356Z" fill="#6D75F4"/>
</g>
<defs>
<clipPath id="clip0_7702_139600">
<rect width="18" height="18" fill="white"/>
</clipPath>
</defs>
</svg>
