<svg width="25" height="24" viewBox="0 0 25 24" fill="none" xmlns="http://www.w3.org/2000/svg">
<path fill-rule="evenodd" clip-rule="evenodd" d="M7.47058 10.1772V16.5463H15.8206V10.1772H7.47058ZM6.22058 10.0284C6.22058 9.41555 6.72001 8.92721 7.32558 8.92721H15.9656C16.5711 8.92721 17.0706 9.41555 17.0706 10.0284V16.6951C17.0706 17.3079 16.5711 17.7963 15.9656 17.7963H7.32558C6.72001 17.7963 6.22058 17.3079 6.22058 16.6951V10.0284Z" fill="#86889D"/>
<path fill-rule="evenodd" clip-rule="evenodd" d="M8.50559 7.17126C8.50559 6.89512 8.72945 6.67126 9.00559 6.67126H18.3656C18.6242 6.67126 18.8731 6.77315 19.0571 6.95578C19.2414 7.13854 19.3456 7.38726 19.3456 7.64746V15.0284C19.3456 15.3046 19.1217 15.5284 18.8456 15.5284C18.5694 15.5284 18.3456 15.3046 18.3456 15.0284V7.67126H9.00559C8.72945 7.67126 8.50559 7.44741 8.50559 7.17126Z" fill="#86889D"/>
<path fill-rule="evenodd" clip-rule="evenodd" d="M12.8456 22.6713C18.6446 22.6713 23.3456 17.9703 23.3456 12.1713C23.3456 6.37227 18.6446 1.67126 12.8456 1.67126C7.04659 1.67126 2.34558 6.37227 2.34558 12.1713C2.34558 17.9703 7.04659 22.6713 12.8456 22.6713ZM12.8456 23.1713C18.9207 23.1713 23.8456 18.2464 23.8456 12.1713C23.8456 6.09613 18.9207 1.17126 12.8456 1.17126C6.77045 1.17126 1.84558 6.09613 1.84558 12.1713C1.84558 18.2464 6.77045 23.1713 12.8456 23.1713Z" fill="#86889D"/>
</svg>
