<svg width="36" height="36" viewBox="0 0 36 36" fill="none" xmlns="http://www.w3.org/2000/svg">
<rect width="36" height="36" rx="18" fill="black" fill-opacity="0.08"/>
<path d="M13 13.467C13 13.467 13.0675 12.0371 14.5722 10.8905C15.4656 10.2098 16.5386 10.0126 17.5 10.0005C18.378 9.99054 19.1627 10.1279 19.6319 10.3394C20.4339 10.7025 22 11.5864 22 13.467C22 15.4459 20.6322 16.3429 19.0773 17.3313C17.5225 18.3197 17.125 19.289 17.125 20.4" stroke="black" stroke-width="3" stroke-miterlimit="10" stroke-linecap="round"/>
<path d="M17.0909 26C17.9946 26 18.7273 25.2837 18.7273 24.4C18.7273 23.5164 17.9946 22.8 17.0909 22.8C16.1872 22.8 15.4545 23.5164 15.4545 24.4C15.4545 25.2837 16.1872 26 17.0909 26Z" fill="black"/>
</svg>
