<svg width="21" height="21" viewBox="0 0 21 21" fill="none" xmlns="http://www.w3.org/2000/svg">
<path fill-rule="evenodd" clip-rule="evenodd" d="M16.3089 13.5787V2.9786C16.3089 1.87403 17.2043 0.978598 18.3089 0.978598C19.4134 0.978598 20.3089 1.87403 20.3089 2.9786V18.3926C20.3092 18.4438 20.3076 18.495 20.3041 18.5461C20.2903 18.7477 20.2466 18.941 20.1774 19.1218C20.08 19.3768 19.9286 19.6159 19.7231 19.8214C19.5307 20.0138 19.3088 20.1588 19.072 20.2564C18.8368 20.3536 18.5791 20.4072 18.3089 20.4072H2.88028C1.77571 20.4072 0.880284 19.5117 0.880283 18.4072C0.880282 17.3026 1.77571 16.4072 2.88028 16.4072L13.4805 16.4072L0.60898 3.53565C-0.172069 2.7546 -0.172069 1.48827 0.60898 0.707222C1.39003 -0.0738258 2.65636 -0.0738258 3.43741 0.707222L16.3089 13.5787Z" fill="#6D75F4"/>
</svg>
