<svg width="33" height="33" viewBox="0 0 33 33" fill="none" xmlns="http://www.w3.org/2000/svg">
<path fill-rule="evenodd" clip-rule="evenodd" d="M21.3667 3.60417C21.8696 3.60417 22.3518 3.80391 22.7073 4.15944L27.2573 8.70944C27.9977 9.44981 27.9977 10.6502 27.2573 11.3906C26.5169 12.1309 25.3166 12.1309 24.5762 11.3906L23.2626 10.0769V20.2875C23.2626 21.3345 22.4138 22.1833 21.3667 22.1833C20.3197 22.1833 19.4709 21.3345 19.4709 20.2875V10.0769L18.1573 11.3906C17.4169 12.1309 16.2166 12.1309 15.4762 11.3906C14.7358 10.6502 14.7358 9.44981 15.4762 8.70944L20.0262 4.15944C20.3817 3.80391 20.8639 3.60417 21.3667 3.60417ZM10.0501 10.4C11.0971 10.4 11.9459 11.2488 11.9459 12.2958V22.5064L13.2595 21.1928C13.9999 20.4524 15.2003 20.4524 15.9406 21.1928C16.681 21.9331 16.681 23.1335 15.9406 23.8739L11.3906 28.4239C10.6503 29.1643 9.44989 29.1643 8.70953 28.4239L4.15952 23.8739C3.41916 23.1335 3.41916 21.9331 4.15952 21.1928C4.89989 20.4524 6.10027 20.4524 6.84064 21.1928L8.15425 22.5064V12.2958C8.15425 11.2488 9.00304 10.4 10.0501 10.4Z" fill="#6D75F4"/>
</svg>
