<svg width="25" height="25" viewBox="0 0 25 25" fill="none" xmlns="http://www.w3.org/2000/svg">
<path fill-rule="evenodd" clip-rule="evenodd" d="M1.85629 21.8538C1.07525 21.0728 1.07525 19.8065 1.85629 19.0254L18.8269 2.05484C19.6079 1.27379 20.8742 1.27379 21.6553 2.05484C22.4363 2.83589 22.4363 4.10222 21.6553 4.88327L4.68472 21.8538C3.90367 22.6349 2.63734 22.6349 1.85629 21.8538Z" fill="#6D75F4"/>
<path fill-rule="evenodd" clip-rule="evenodd" d="M22.052 21.8538C22.833 21.0728 22.833 19.8065 22.052 19.0254L5.08142 2.05484C4.30037 1.27379 3.03404 1.27379 2.25299 2.05484C1.47194 2.83589 1.47194 4.10222 2.25299 4.88327L19.2236 21.8538C20.0046 22.6349 21.2709 22.6349 22.052 21.8538Z" fill="#6D75F4"/>
</svg>
