<svg width="24" height="24" viewBox="0 0 24 24" fill="none" xmlns="http://www.w3.org/2000/svg">
<g clip-path="url(#clip0_7702_145443)">
<path d="M18.1954 8.10642H5.7997C5.56121 8.10642 5.33249 8.01168 5.16386 7.84305C4.99522 7.67441 4.90048 7.44569 4.90048 7.20721C4.90048 6.96872 4.99522 6.74 5.16386 6.57137C5.33249 6.40273 5.56121 6.30799 5.7997 6.30799H18.1954C18.4338 6.30799 18.6626 6.40273 18.8312 6.57137C18.9998 6.74 19.0946 6.96872 19.0946 7.20721C19.0946 7.44569 18.9998 7.67441 18.8312 7.84305C18.6626 8.01168 18.4338 8.10642 18.1954 8.10642Z" fill="#6D75F4"/>
<path d="M18.1954 12.8991H5.7997C5.56121 12.8991 5.33249 12.8044 5.16386 12.6357C4.99522 12.4671 4.90048 12.2384 4.90048 11.9999C4.90048 11.7614 4.99522 11.5327 5.16386 11.3641C5.33249 11.1954 5.56121 11.1007 5.7997 11.1007H18.1954C18.4338 11.1007 18.6626 11.1954 18.8312 11.3641C18.9998 11.5327 19.0946 11.7614 19.0946 11.9999C19.0946 12.2384 18.9998 12.4671 18.8312 12.6357C18.6626 12.8044 18.4338 12.8991 18.1954 12.8991Z" fill="#6D75F4"/>
<path d="M13.6993 17.692H5.7997C5.56121 17.692 5.33249 17.5973 5.16386 17.4286C4.99522 17.26 4.90048 17.0313 4.90048 16.7928C4.90048 16.5543 4.99522 16.3256 5.16386 16.157C5.33249 15.9883 5.56121 15.8936 5.7997 15.8936H13.6993C13.9378 15.8936 14.1665 15.9883 14.3351 16.157C14.5038 16.3256 14.5985 16.5543 14.5985 16.7928C14.5985 17.0313 14.5038 17.26 14.3351 17.4286C14.1665 17.5973 13.9378 17.692 13.6993 17.692Z" fill="#6D75F4"/>
<path d="M6.43836 24H3.89809C2.86856 23.9977 1.88187 23.5876 1.15388 22.8596C0.425891 22.1316 0.0158563 21.145 0.0134814 20.1154V17.5751C0.0134814 17.2174 0.155595 16.8743 0.408547 16.6214C0.6615 16.3684 1.00457 16.2263 1.3623 16.2263C1.72003 16.2263 2.06312 16.3684 2.31607 16.6214C2.56902 16.8743 2.71112 17.2174 2.71112 17.5751V20.1154C2.71231 20.4299 2.83774 20.7311 3.06008 20.9534C3.28243 21.1758 3.58365 21.3012 3.89809 21.3024H6.43836C6.79609 21.3024 7.13916 21.4445 7.39212 21.6974C7.64507 21.9504 7.78718 22.2935 7.78718 22.6512C7.78718 23.0089 7.64507 23.352 7.39212 23.605C7.13916 23.8579 6.79609 24 6.43836 24Z" fill="#6D75F4"/>
<path d="M20.1108 24H17.5705C17.2128 24 16.8697 23.8579 16.6168 23.605C16.3638 23.352 16.2217 23.0089 16.2217 22.6512C16.2217 22.2935 16.3638 21.9504 16.6168 21.6974C16.8697 21.4445 17.2128 21.3024 17.5705 21.3024H20.1108C20.426 21.3024 20.7284 21.1775 20.9517 20.955C21.175 20.7325 21.3011 20.4306 21.3023 20.1154V17.5751C21.3023 17.2174 21.4444 16.8743 21.6973 16.6214C21.9503 16.3684 22.2934 16.2263 22.6511 16.2263C23.0088 16.2263 23.3519 16.3684 23.6049 16.6214C23.8578 16.8743 23.9999 17.2174 23.9999 17.5751V20.1154C23.9975 21.1457 23.5869 22.1331 22.8579 22.8612C22.129 23.5893 21.1411 23.9988 20.1108 24Z" fill="#6D75F4"/>
<path d="M1.3487 7.77819C0.990969 7.77819 0.647897 7.63609 0.394944 7.38313C0.141991 7.13018 -0.00012207 6.7871 -0.00012207 6.42937V3.88909C0.00106492 2.85878 0.410581 1.87095 1.1387 1.14199C1.86682 0.41303 2.85418 0.00237879 3.88449 0H6.43825C6.79598 0 7.13905 0.142113 7.392 0.395066C7.64495 0.648019 7.78707 0.99109 7.78707 1.34882C7.78707 1.70655 7.64495 2.04962 7.392 2.30257C7.13905 2.55553 6.79598 2.69764 6.43825 2.69764H3.89797C3.58276 2.69883 3.28086 2.82488 3.05839 3.04819C2.83592 3.27151 2.711 3.57388 2.71101 3.88909V6.42937C2.71101 6.60764 2.67568 6.78414 2.60706 6.94868C2.53843 7.11321 2.43787 7.2625 2.31119 7.38793C2.18451 7.51336 2.03423 7.61243 1.86902 7.67942C1.70382 7.7464 1.52696 7.77998 1.3487 7.77819Z" fill="#6D75F4"/>
<path d="M22.6511 7.77823C22.2934 7.77823 21.9503 7.63612 21.6973 7.38317C21.4444 7.13021 21.3023 6.78714 21.3023 6.42941V3.88913C21.3023 3.57313 21.1768 3.27008 20.9533 3.04663C20.7299 2.82319 20.4268 2.69767 20.1108 2.69767H17.5705C17.2128 2.69767 16.8697 2.55556 16.6168 2.3026C16.3638 2.04965 16.2217 1.70658 16.2217 1.34885C16.2217 0.991121 16.3638 0.64805 16.6168 0.395097C16.8697 0.142144 17.2128 3.08833e-05 17.5705 3.08833e-05H20.1108C21.1419 0.00122083 22.1304 0.411341 22.8595 1.14043C23.5886 1.86952 23.9987 2.85804 23.9999 3.88913V6.42941C23.9999 6.78714 23.8578 7.13021 23.6049 7.38317C23.3519 7.63612 23.0088 7.77823 22.6511 7.77823Z" fill="#6D75F4"/>
</g>
<defs>
<clipPath id="clip0_7702_145443">
<rect width="24" height="24" fill="white"/>
</clipPath>
</defs>
</svg>
