<svg width="22" height="22" viewBox="0 0 22 22" fill="none" xmlns="http://www.w3.org/2000/svg">
<path fill-rule="evenodd" clip-rule="evenodd" d="M11 0C11.5695 0 12.0312 0.461706 12.0312 1.03125V2.40625C12.0312 2.97579 11.5695 3.4375 11 3.4375C10.4305 3.4375 9.96875 2.97579 9.96875 2.40625V1.03125C9.96875 0.461706 10.4305 0 11 0ZM3.22392 3.22392C3.62665 2.82119 4.2796 2.82119 4.68233 3.22392L5.65342 4.19502C6.05615 4.59774 6.05615 5.25069 5.65342 5.65342C5.25069 6.05615 4.59774 6.05615 4.19502 5.65342L3.22392 4.68233C2.82119 4.2796 2.82119 3.62665 3.22392 3.22392ZM18.7763 3.22392C19.1791 3.62665 19.1791 4.2796 18.7763 4.68233L17.8053 5.65342C17.4025 6.05615 16.7496 6.05615 16.3468 5.65342C15.9441 5.25069 15.9441 4.59774 16.3468 4.19501L17.3179 3.22392C17.7207 2.82119 18.3736 2.82119 18.7763 3.22392ZM11 6.875C8.72183 6.875 6.875 8.72183 6.875 11C6.875 13.2782 8.72183 15.125 11 15.125C13.2782 15.125 15.125 13.2782 15.125 11C15.125 8.72183 13.2782 6.875 11 6.875ZM4.8125 11C4.8125 7.58274 7.58274 4.8125 11 4.8125C14.4173 4.8125 17.1875 7.58274 17.1875 11C17.1875 14.4173 14.4173 17.1875 11 17.1875C7.58274 17.1875 4.8125 14.4173 4.8125 11ZM0 11C0 10.4305 0.461706 9.96875 1.03125 9.96875H2.40625C2.97579 9.96875 3.4375 10.4305 3.4375 11C3.4375 11.5695 2.97579 12.0312 2.40625 12.0312H1.03125C0.461706 12.0312 0 11.5695 0 11ZM18.5625 11C18.5625 10.4305 19.0242 9.96875 19.5938 9.96875H20.9688C21.5383 9.96875 22 10.4305 22 11C22 11.5695 21.5383 12.0312 20.9688 12.0312H19.5938C19.0242 12.0312 18.5625 11.5695 18.5625 11ZM16.3468 16.3465C16.7496 15.9438 17.4025 15.9438 17.8053 16.3465L18.7763 17.3176C19.1791 17.7203 19.1791 18.3733 18.7763 18.776C18.3736 19.1787 17.7207 19.1787 17.3179 18.776L16.3468 17.8049C15.9441 17.4022 15.9441 16.7492 16.3468 16.3465ZM5.65342 16.3466C6.05615 16.7493 6.05615 17.4023 5.65342 17.805L4.68233 18.7761C4.2796 19.1788 3.62665 19.1788 3.22392 18.7761C2.82119 18.3734 2.82119 17.7204 3.22392 17.3177L4.19501 16.3466C4.59774 15.9439 5.25069 15.9439 5.65342 16.3466ZM11 18.5625C11.5695 18.5625 12.0312 19.0242 12.0312 19.5938V20.9688C12.0312 21.5383 11.5695 22 11 22C10.4305 22 9.96875 21.5383 9.96875 20.9688V19.5938C9.96875 19.0242 10.4305 18.5625 11 18.5625Z" fill="#6D75F4"/>
</svg>
