<svg width="20" height="18" viewBox="0 0 20 18" fill="none" xmlns="http://www.w3.org/2000/svg">
<g clip-path="url(#clip0_7702_134601)">
<path fill-rule="evenodd" clip-rule="evenodd" d="M11.6473 0.930224C10.9067 -0.310072 9.09333 -0.310076 8.35275 0.93022L0.269012 15.1432C-0.484675 16.4055 0.434759 18 1.91627 18H18.0837C19.5652 18 20.4847 16.4055 19.731 15.1432L11.6473 0.930224ZM11.0408 10.6066C11.029 11.3326 10.6505 11.7206 10 11.7206C9.33767 11.7206 8.95919 11.3201 8.93554 10.6066L8.76995 6.01772C8.7463 5.2792 9.25488 4.75347 9.98818 4.75347C10.7215 4.75347 11.2419 5.29171 11.2182 6.03024L11.0408 10.6066ZM11.3956 14.4869C11.3956 15.2881 10.7688 15.8764 10 15.8764C9.24305 15.8764 8.60437 15.2755 8.60437 14.4869C8.60437 13.6984 9.23122 13.11 10 13.11C10.7806 13.11 11.3956 13.6984 11.3956 14.4869Z" fill="#5F69F1"/>
</g>
<defs>
<clipPath id="clip0_7702_134601">
<rect width="20" height="18" fill="white"/>
</clipPath>
</defs>
</svg>
