<svg width="24" height="24" viewBox="0 0 24 24" fill="none" xmlns="http://www.w3.org/2000/svg">
<g clip-path="url(#clip0_14206_153635)">
<g clip-path="url(#clip1_14206_153635)">
<path d="M18.975 11.4748C19.0258 11.6111 18.9977 11.768 18.9039 11.8723L12.3431 20.0396C12.215 20.1821 12.0073 20.1821 11.8792 20.0396L5.31833 11.8723C5.22451 11.768 5.19644 11.6111 5.24722 11.4748C5.29799 11.3386 5.41761 11.2497 5.55029 11.2497H9.3759V6.97255C9.3759 6.71461 9.46806 6.46724 9.63212 6.28485C9.79617 6.10246 10.0187 6 10.2507 6H13.9716C14.2036 6 14.4261 6.10246 14.5901 6.28485C14.7542 6.46724 14.8463 6.71461 14.8463 6.97255V11.2497H18.6719C18.8046 11.2497 18.9242 11.3386 18.975 11.4748Z" fill="#6D75F4"/>
<circle cx="12" cy="12" r="11.25" stroke="#6D75F4" stroke-width="1.5"/>
</g>
</g>
<defs>
<clipPath id="clip0_14206_153635">
<rect width="24" height="24" fill="white"/>
</clipPath>
<clipPath id="clip1_14206_153635">
<rect width="24" height="24" fill="white"/>
</clipPath>
</defs>
</svg>
