<svg width="22" height="18" viewBox="0 0 22 18" fill="none" xmlns="http://www.w3.org/2000/svg">
<g clip-path="url(#clip0_7702_142406)">
<path fill-rule="evenodd" clip-rule="evenodd" d="M20 4H3C2.73478 4 2.48043 3.89464 2.29289 3.70711C2.10536 3.51957 2 3.26522 2 3C2 2.73478 2.10536 2.48043 2.29289 2.29289C2.48043 2.10536 2.73478 2 3 2H17C17.2652 2 17.5196 1.89464 17.7071 1.70711C17.8946 1.51957 18 1.26522 18 1C18 0.734784 17.8946 0.48043 17.7071 0.292893C17.5196 0.105357 17.2652 0 17 0H3C2.20536 0.00329041 1.44421 0.320418 0.882315 0.882315C0.320418 1.44421 0.00329046 2.20536 0 3V15C0.00329046 15.7946 0.320418 16.5558 0.882315 17.1177C1.44421 17.6796 2.20536 17.9967 3 18H20C20.5304 18 21.0391 17.7893 21.4142 17.4142C21.7893 17.0391 22 16.5304 22 16V6C22 5.46957 21.7893 4.96086 21.4142 4.58579C21.0391 4.21071 20.5304 4 20 4ZM15.3851 12.6685C15.7151 12.889 16.1031 13.0067 16.5 13.0067C17.0322 13.0067 17.5426 12.7953 17.919 12.419C18.2953 12.0426 18.5067 11.5322 18.5067 11C18.5067 10.6031 18.389 10.2151 18.1685 9.88513C17.948 9.55513 17.6346 9.29792 17.2679 9.14604C16.9013 8.99416 16.4978 8.95442 16.1085 9.03185C15.7192 9.10927 15.3617 9.3004 15.081 9.58104C14.8004 9.86168 14.6093 10.2192 14.5318 10.6085C14.4544 10.9978 14.4942 11.4013 14.646 11.7679C14.7979 12.1346 15.0551 12.448 15.3851 12.6685Z" fill="#6D75F4"/>
</g>
<defs>
<clipPath id="clip0_7702_142406">
<rect width="22" height="18" fill="white"/>
</clipPath>
</defs>
</svg>
