<svg width="25" height="25" viewBox="0 0 25 25" fill="none" xmlns="http://www.w3.org/2000/svg">
<g clip-path="url(#clip0_6892_98998)">
<path fill-rule="evenodd" clip-rule="evenodd" d="M8.48715 2.76554C8.92649 3.20488 8.92649 3.91719 8.48715 4.35653L5.40764 7.43604H16.8583C18.7038 7.43604 20.4737 8.16914 21.7786 9.47408C23.0835 10.779 23.8167 12.5489 23.8167 14.3944C23.8167 16.2398 23.0835 18.0097 21.7786 19.3147C20.4737 20.6196 18.7038 21.3527 16.8583 21.3527H7.69165C7.07033 21.3527 6.56665 20.849 6.56665 20.2277C6.56665 19.6064 7.07033 19.1027 7.69165 19.1027H16.8583C18.107 19.1027 19.3046 18.6066 20.1876 17.7237C21.0706 16.8407 21.5667 15.6431 21.5667 14.3944C21.5667 13.1456 21.0706 11.9481 20.1876 11.0651C19.3046 10.1821 18.107 9.68603 16.8583 9.68603H5.40764L8.48715 12.7655C8.92649 13.2049 8.92649 13.9172 8.48715 14.3565C8.04781 14.7959 7.3355 14.7959 6.89616 14.3565L1.89616 9.35653C1.68518 9.14555 1.56665 8.8594 1.56665 8.56103C1.56665 8.26267 1.68518 7.97652 1.89616 7.76554L6.89616 2.76554C7.3355 2.3262 8.04781 2.3262 8.48715 2.76554Z" fill="#6D75F4"/>
</g>
<defs>
<clipPath id="clip0_6892_98998">
<rect width="24" height="24" fill="white" transform="translate(0.69165 0.644348)"/>
</clipPath>
</defs>
</svg>
