<svg width="36" height="36" viewBox="0 0 36 36" fill="none" xmlns="http://www.w3.org/2000/svg">
<g clip-path="url(#clip0_7706_156678)">
<path fill-rule="evenodd" clip-rule="evenodd" d="M13.8427 8.33096C14.2771 8.77223 14.2771 9.48768 13.8427 9.92896L10.7978 13.022H22.1199C23.9446 13.022 25.6946 13.7584 26.9849 15.0691C28.2751 16.3797 29 18.1574 29 20.011C29 21.8646 28.2751 23.6423 26.9849 24.953C25.6946 26.2637 23.9446 27 22.1199 27H13.0562C12.4418 27 11.9438 26.4941 11.9438 25.87C11.9438 25.246 12.4418 24.7401 13.0562 24.7401H22.1199C23.3545 24.7401 24.5387 24.2418 25.4117 23.355C26.2848 22.4681 26.7753 21.2652 26.7753 20.011C26.7753 18.7568 26.2848 17.5539 25.4117 16.6671C24.5387 15.7802 23.3545 15.2819 22.1199 15.2819H10.7978L13.8427 18.375C14.2771 18.8163 14.2771 19.5317 13.8427 19.973C13.4083 20.4143 12.704 20.4143 12.2696 19.973L7.3258 14.951C7.11719 14.7391 7 14.4517 7 14.152C7 13.8523 7.11719 13.5649 7.3258 13.353L12.2696 8.33096C12.704 7.88968 13.4083 7.88968 13.8427 8.33096Z" fill="#6D75F4"/>
</g>
<path d="M35.25 18C35.25 27.5269 27.5269 35.25 18 35.25C8.47309 35.25 0.75 27.5269 0.75 18C0.75 8.47309 8.47309 0.75 18 0.75C27.5269 0.75 35.25 8.47309 35.25 18Z" stroke="#6D75F4" stroke-width="1.5"/>
<defs>
<clipPath id="clip0_7706_156678">
<rect width="22" height="19" fill="white" transform="translate(7 8)"/>
</clipPath>
</defs>
</svg>
