<svg width="20" height="3" viewBox="0 0 20 3" fill="none" xmlns="http://www.w3.org/2000/svg">
<g clip-path="url(#clip0_7702_146299)">
<path d="M0 1.45602C0 1.84699 0.144926 2.18739 0.434783 2.47725C0.724639 2.76711 1.06505 2.91203 1.45602 2.91203C12.4219 2.91203 8.48897 2.91203 18.544 2.91203C18.9484 2.91203 19.2922 2.76711 19.5753 2.47725C19.8584 2.18739 20 1.84699 20 1.45602C20 1.05156 19.8584 0.707787 19.5753 0.424671C19.2922 0.141556 18.9484 0 18.544 0C8.43888 0 12.4826 0 1.45602 0C1.06505 0 0.724639 0.141556 0.434783 0.424671C0.144926 0.707787 0 1.05156 0 1.45602Z" fill="#6D75F4"/>
</g>
<defs>
<clipPath id="clip0_7702_146299">
<rect width="20" height="3" fill="white"/>
</clipPath>
</defs>
</svg>
