<svg width="25" height="25" viewBox="0 0 25 25" fill="none" xmlns="http://www.w3.org/2000/svg">
<path fill-rule="evenodd" clip-rule="evenodd" d="M12.7456 6.86435C11.6039 6.86342 10.4875 7.20107 9.53773 7.83459C8.58792 8.46812 7.84731 9.36907 7.40954 10.4235C6.97177 11.478 6.85651 12.6385 7.07834 13.7585C7.30016 14.8784 7.84911 15.9075 8.65576 16.7154C9.46242 17.5234 10.4905 18.074 11.6101 18.2976C12.7297 18.5213 13.8905 18.4079 14.9456 17.9719C16.0008 17.5358 16.9029 16.7967 17.538 15.8479C18.1731 14.8991 18.5125 13.7833 18.5135 12.6416C18.5141 11.8835 18.3654 11.1328 18.0758 10.4322C17.7863 9.73158 17.3616 9.09488 16.826 8.55841C16.2904 8.02194 15.6544 7.59622 14.9543 7.30555C14.2542 7.01488 13.5037 6.86496 12.7456 6.86435ZM12.7456 15.2676C12.2262 15.2676 11.7185 15.1136 11.2866 14.8251C10.8548 14.5365 10.5182 14.1264 10.3195 13.6465C10.1207 13.1667 10.0687 12.6387 10.17 12.1293C10.2713 11.6199 10.5215 11.152 10.8887 10.7847C11.256 10.4175 11.7239 10.1674 12.2333 10.066C12.7427 9.96471 13.2707 10.0167 13.7505 10.2155C14.2304 10.4142 14.6405 10.7508 14.929 11.1827C15.2176 11.6145 15.3716 12.1222 15.3716 12.6416C15.3716 13.3381 15.0949 14.006 14.6025 14.4985C14.11 14.991 13.4421 15.2676 12.7456 15.2676Z" fill="#5963FF"/>
<path fill-rule="evenodd" clip-rule="evenodd" d="M19.9421 0.637177H5.54121C4.91083 0.637053 4.2866 0.761125 3.70419 1.0023C3.12177 1.24348 2.59257 1.59704 2.14682 2.04279C1.70108 2.48853 1.34752 3.01773 1.10634 3.60015C0.865159 4.18257 0.741088 4.8068 0.741211 5.43718V19.8372C0.741088 20.4676 0.865159 21.0918 1.10634 21.6742C1.34752 22.2566 1.70108 22.7858 2.14682 23.2316C2.59257 23.6773 3.12177 24.0309 3.70419 24.272C4.2866 24.5132 4.91083 24.6373 5.54121 24.6372H19.9412C20.5716 24.6373 21.1958 24.5132 21.7782 24.272C22.3607 24.0309 22.8899 23.6773 23.3356 23.2316C23.7813 22.7858 24.1349 22.2566 24.3761 21.6742C24.6173 21.0918 24.7413 20.4676 24.7412 19.8372V5.43718C24.7413 4.80688 24.6173 4.18272 24.3762 3.60037C24.1351 3.01801 23.7816 2.48885 23.3359 2.04312C22.8903 1.59739 22.3612 1.24381 21.7789 1.00257C21.1966 0.761339 20.5724 0.637177 19.9421 0.637177ZM20.4824 16.8763C20.6527 17.0009 20.7963 17.1583 20.9048 17.3393C21.0132 17.5202 21.0843 17.7211 21.1139 17.93C21.1434 18.1389 21.1308 18.3517 21.0768 18.5556C21.0227 18.7596 20.9284 18.9506 20.7993 19.1175C20.6702 19.2844 20.509 19.4237 20.3251 19.5273C20.1413 19.6308 19.9386 19.6965 19.7289 19.7204C19.5193 19.7443 19.307 19.7259 19.1046 19.6664C18.9021 19.6069 18.7137 19.5074 18.5504 19.3739C18.5335 19.3607 18.5175 19.3467 18.5016 19.3326C18.4124 19.2522 18.2979 19.2057 18.1779 19.2011C18.058 19.1964 17.9402 19.234 17.8451 19.3073C16.3792 20.4296 14.5845 21.0377 12.7384 21.0377C10.8923 21.0377 9.09756 20.4296 7.63172 19.3073C7.53654 19.2342 7.4188 19.1967 7.29889 19.2013C7.17898 19.206 7.06447 19.2524 6.97521 19.3326L6.92644 19.3739C6.7631 19.5074 6.57465 19.6069 6.37222 19.6664C6.1698 19.7259 5.9575 19.7443 5.74787 19.7204C5.53824 19.6965 5.33552 19.6308 5.15168 19.5273C4.96784 19.4237 4.80661 19.2844 4.67751 19.1175C4.54842 18.9506 4.45407 18.7596 4.40003 18.5556C4.346 18.3517 4.33339 18.1389 4.36293 17.93C4.39247 17.7211 4.46357 17.5202 4.57204 17.3393C4.6805 17.1583 4.82413 17.0009 4.99443 16.8763C5.089 16.8068 5.15638 16.7065 5.18497 16.5927C5.21356 16.4788 5.20156 16.3586 5.15106 16.2527C4.61385 15.1229 4.33511 13.8877 4.33511 12.6367C4.33511 11.3857 4.61385 10.1505 5.15106 9.02076C5.2009 8.91365 5.21188 8.79251 5.1821 8.67818C5.15232 8.56385 5.08364 8.46346 4.98787 8.39427C4.97099 8.38239 4.95411 8.36926 4.93723 8.35488C4.61376 8.10314 4.40083 7.7355 4.34343 7.32965C4.28603 6.9238 4.38867 6.51154 4.62964 6.17997C4.87061 5.8484 5.23105 5.62351 5.6348 5.5528C6.03854 5.4821 6.45395 5.57112 6.79326 5.80107C6.85897 5.84527 6.92164 5.89383 6.98084 5.94644C7.06964 6.02463 7.1829 6.06945 7.30116 6.07322C7.41942 6.07698 7.5353 6.03945 7.6289 5.96707C9.09474 4.8448 10.8895 4.23666 12.7356 4.23666C14.5817 4.23666 16.3764 4.8448 17.8423 5.96707C17.9374 6.04033 18.0551 6.07792 18.1751 6.07329C18.2951 6.06866 18.4096 6.02211 18.4988 5.94175L18.5475 5.90048C18.8609 5.63659 19.2645 5.50477 19.6732 5.53284C20.0818 5.5609 20.4636 5.74667 20.7379 6.05091C21.0123 6.35516 21.1576 6.75409 21.1434 7.16349C21.1291 7.57289 20.9563 7.96073 20.6615 8.24515C20.6047 8.30198 20.5439 8.35464 20.4795 8.40271C20.3851 8.47206 20.3177 8.57221 20.2891 8.68588C20.2605 8.79956 20.2725 8.91965 20.3229 9.02545C20.8601 10.155 21.1388 11.3901 21.1388 12.6409C21.1388 13.8917 20.8601 15.1268 20.3229 16.2564C20.2735 16.3627 20.2623 16.4828 20.2912 16.5964C20.3201 16.7101 20.3873 16.8103 20.4814 16.8801L20.4824 16.8763Z" fill="#5963FF"/>
</svg>
