<svg width="30" height="30" viewBox="0 0 30 30" fill="none" xmlns="http://www.w3.org/2000/svg">
<path d="M29 15C29 7.26719 22.7328 1 15 1C7.26719 1 1 7.26719 1 15C1 21.9891 6.11875 27.7805 12.8125 28.8305V19.0469H9.25781V15H12.8125V11.9156C12.8125 8.40742 14.9016 6.46875 18.1008 6.46875C19.632 6.46875 21.2344 6.74219 21.2344 6.74219V10.1875H19.468C17.7289 10.1875 17.1875 11.2676 17.1875 12.375V15H21.0703L20.4496 19.0469H17.1875V28.8305C23.8813 27.7805 29 21.9891 29 15Z" fill="#1877F2"/>
<path d="M20.4496 19.0469L21.0703 15H17.1875V12.375C17.1875 11.2676 17.7289 10.1875 19.468 10.1875H21.2344V6.74219C21.2344 6.74219 19.632 6.46875 18.1008 6.46875C14.9016 6.46875 12.8125 8.40742 12.8125 11.9156V15H9.25781V19.0469H12.8125V28.8305C13.5262 28.9426 14.2563 29 15 29C15.7438 29 16.4738 28.9426 17.1875 28.8305V19.0469H20.4496Z" fill="#F5F5F5"/>
</svg>
