<svg width="25" height="24" viewBox="0 0 25 24" fill="none" xmlns="http://www.w3.org/2000/svg">
<mask id="path-1-inside-1_5745_37147" fill="white">
<path d="M21.8677 10.1764C21.8609 10.0703 21.8144 9.97066 21.7376 9.8972C21.6608 9.82374 21.5591 9.78183 21.4528 9.77976C21.1246 9.73873 20.7918 9.68403 20.4636 9.63844C19.5518 9.52447 19.5518 9.51991 19.2235 8.68563C19.1798 8.59617 19.1643 8.49556 19.1789 8.39708C19.1936 8.2986 19.2378 8.20687 19.3056 8.13401C19.643 7.71003 19.9575 7.26326 20.2903 6.83016C20.3519 6.7657 20.3863 6.67998 20.3863 6.59082C20.3863 6.50167 20.3519 6.41595 20.2903 6.35148C19.5701 5.31813 18.6717 4.42123 17.6371 3.70277C17.5744 3.6467 17.4932 3.6157 17.4091 3.6157C17.325 3.6157 17.2439 3.6467 17.1812 3.70277C16.9168 3.9216 16.6068 4.09028 16.3651 4.3319C16.1883 4.56361 15.9289 4.71809 15.6409 4.76311C15.353 4.80813 15.0588 4.74021 14.8197 4.57352C14.7259 4.53497 14.6438 4.47265 14.5814 4.39271C14.5191 4.31277 14.4786 4.21796 14.4641 4.11763C14.4094 3.61159 14.3228 3.10556 14.2589 2.59952C14.2596 2.48682 14.2185 2.37786 14.1436 2.29367C14.0687 2.20948 13.9652 2.15603 13.8532 2.14363C12.6542 1.95212 11.4324 1.95212 10.2334 2.14363C10.1329 2.15242 10.039 2.19754 9.9694 2.27055C9.89975 2.34355 9.8591 2.43944 9.85504 2.54026C9.81401 2.88217 9.76842 3.22409 9.71372 3.56145C9.53592 4.66014 9.77754 4.31366 8.77459 4.77867C8.68134 4.82738 8.57504 4.84524 8.47099 4.82967C8.36694 4.8141 8.27052 4.76592 8.19561 4.69205C7.76708 4.35013 7.32486 4.03557 6.89177 3.70277C6.82955 3.64575 6.74822 3.61411 6.66383 3.61411C6.57943 3.61411 6.4981 3.64575 6.43588 3.70277C5.38569 4.42369 4.47318 5.32694 3.74158 6.36972C3.68456 6.43193 3.65292 6.51327 3.65292 6.59766C3.65292 6.68206 3.68456 6.76339 3.74158 6.82561C3.95585 7.09458 4.13364 7.40003 4.37071 7.64621C4.8266 8.13401 4.99983 8.62181 4.59865 9.23726C4.55701 9.32676 4.49335 9.40424 4.41362 9.46244C4.33389 9.52065 4.2407 9.55767 4.14276 9.57005C3.62761 9.63388 3.1079 9.71594 2.59274 9.78432C2.48604 9.78285 2.38278 9.82211 2.30401 9.89411C2.22524 9.9661 2.17688 10.0654 2.16877 10.1718C1.97499 11.3706 1.97499 12.5928 2.16877 13.7916C2.1746 13.8976 2.22087 13.9974 2.29805 14.0703C2.37523 14.1432 2.47743 14.1838 2.58362 14.1836C2.89937 14.2485 3.21927 14.2912 3.54099 14.3113C3.68565 14.29 3.83308 14.2976 3.97479 14.3337C4.1165 14.3697 4.24968 14.4334 4.36665 14.5211C4.48361 14.6088 4.58206 14.7188 4.65631 14.8448C4.73055 14.9708 4.77913 15.1102 4.79924 15.255C4.83897 15.3494 4.85315 15.4526 4.84034 15.5542C4.82754 15.6559 4.78821 15.7523 4.7263 15.834C4.38438 16.2579 4.06982 16.7047 3.73702 17.1378C3.67547 17.1959 3.63802 17.2751 3.63211 17.3595C3.6262 17.444 3.65226 17.5276 3.70511 17.5937C4.42926 18.6537 5.34822 19.5665 6.41309 20.2834C6.47729 20.3135 6.54733 20.3291 6.61824 20.3291C6.68915 20.3291 6.75918 20.3135 6.82339 20.2834C7.13004 20.1007 7.41589 19.8852 7.6759 19.6406C7.85636 19.4087 8.12007 19.2561 8.41112 19.2152C8.70217 19.1744 8.99768 19.2485 9.23504 19.4218C9.3288 19.4604 9.41091 19.5227 9.47326 19.6026C9.53562 19.6826 9.57607 19.7774 9.59063 19.8777C9.64989 20.3883 9.73195 20.8943 9.79578 21.4004C9.79509 21.5131 9.83618 21.622 9.91111 21.7062C9.98604 21.7904 10.0895 21.8439 10.2015 21.8562C11.4005 22.0478 12.6223 22.0478 13.8213 21.8562C13.9226 21.8506 14.0181 21.8072 14.0889 21.7346C14.1598 21.6621 14.201 21.5656 14.2042 21.4642C14.268 20.949 14.341 20.4293 14.4139 19.9142C14.4139 19.7956 14.4504 19.6224 14.5279 19.5814C14.847 19.4036 15.1889 19.2714 15.5354 19.1255C15.6403 19.1939 15.7406 19.2394 15.8272 19.3033C16.2831 19.6315 16.7025 19.9506 17.131 20.288C17.1966 20.3556 17.2855 20.3956 17.3795 20.3998C17.4736 20.4041 17.5657 20.3722 17.6371 20.3108C18.6732 19.5777 19.5715 18.6671 20.2903 17.621C20.3569 17.5536 20.3942 17.4627 20.3942 17.368C20.3942 17.2733 20.3569 17.1824 20.2903 17.115C20.0971 16.8292 19.8871 16.5552 19.6612 16.2944C19.4306 16.1126 19.2798 15.8483 19.2407 15.5573C19.2016 15.2663 19.2772 14.9715 19.4515 14.7353C19.4892 14.6422 19.5515 14.5611 19.6319 14.5009C19.7122 14.4406 19.8075 14.4034 19.9074 14.3934C20.418 14.3341 20.924 14.2475 21.43 14.1882C21.5456 14.1885 21.657 14.1449 21.7416 14.0661C21.8263 13.9874 21.8778 13.8795 21.8859 13.7642C22.0668 12.5746 22.0607 11.3641 21.8677 10.1764ZM11.9704 15.5148C11.4974 15.5148 11.0291 15.4217 10.5921 15.2407C10.1552 15.0597 9.75814 14.7944 9.42371 14.46C9.08928 14.1255 8.82399 13.7285 8.643 13.2916C8.462 12.8546 8.36885 12.3863 8.36885 11.9133C8.36885 11.4404 8.462 10.972 8.643 10.5351C8.82399 10.0981 9.08928 9.70109 9.42371 9.36666C9.75814 9.03223 10.1552 8.76694 10.5921 8.58595C11.0291 8.40496 11.4974 8.3118 11.9704 8.3118C12.4433 8.3118 12.9117 8.40496 13.3486 8.58595C13.7856 8.76694 14.1826 9.03223 14.517 9.36666C14.8515 9.70109 15.1167 10.0981 15.2977 10.5351C15.4787 10.972 15.5719 11.4404 15.5719 11.9133C15.5719 12.3863 15.4787 12.8546 15.2977 13.2916C15.1167 13.7285 14.8515 14.1255 14.517 14.46C14.1826 14.7944 13.7856 15.0597 13.3486 15.2407C12.9117 15.4217 12.4433 15.5148 11.9704 15.5148Z"/>
</mask>
<path d="M21.8677 10.1764C21.8609 10.0703 21.8144 9.97066 21.7376 9.8972C21.6608 9.82374 21.5591 9.78183 21.4528 9.77976C21.1246 9.73873 20.7918 9.68403 20.4636 9.63844C19.5518 9.52447 19.5518 9.51991 19.2235 8.68563C19.1798 8.59617 19.1643 8.49556 19.1789 8.39708C19.1936 8.2986 19.2378 8.20687 19.3056 8.13401C19.643 7.71003 19.9575 7.26326 20.2903 6.83016C20.3519 6.7657 20.3863 6.67998 20.3863 6.59082C20.3863 6.50167 20.3519 6.41595 20.2903 6.35148C19.5701 5.31813 18.6717 4.42123 17.6371 3.70277C17.5744 3.6467 17.4932 3.6157 17.4091 3.6157C17.325 3.6157 17.2439 3.6467 17.1812 3.70277C16.9168 3.9216 16.6068 4.09028 16.3651 4.3319C16.1883 4.56361 15.9289 4.71809 15.6409 4.76311C15.353 4.80813 15.0588 4.74021 14.8197 4.57352C14.7259 4.53497 14.6438 4.47265 14.5814 4.39271C14.5191 4.31277 14.4786 4.21796 14.4641 4.11763C14.4094 3.61159 14.3228 3.10556 14.2589 2.59952C14.2596 2.48682 14.2185 2.37786 14.1436 2.29367C14.0687 2.20948 13.9652 2.15603 13.8532 2.14363C12.6542 1.95212 11.4324 1.95212 10.2334 2.14363C10.1329 2.15242 10.039 2.19754 9.9694 2.27055C9.89975 2.34355 9.8591 2.43944 9.85504 2.54026C9.81401 2.88217 9.76842 3.22409 9.71372 3.56145C9.53592 4.66014 9.77754 4.31366 8.77459 4.77867C8.68134 4.82738 8.57504 4.84524 8.47099 4.82967C8.36694 4.8141 8.27052 4.76592 8.19561 4.69205C7.76708 4.35013 7.32486 4.03557 6.89177 3.70277C6.82955 3.64575 6.74822 3.61411 6.66383 3.61411C6.57943 3.61411 6.4981 3.64575 6.43588 3.70277C5.38569 4.42369 4.47318 5.32694 3.74158 6.36972C3.68456 6.43193 3.65292 6.51327 3.65292 6.59766C3.65292 6.68206 3.68456 6.76339 3.74158 6.82561C3.95585 7.09458 4.13364 7.40003 4.37071 7.64621C4.8266 8.13401 4.99983 8.62181 4.59865 9.23726C4.55701 9.32676 4.49335 9.40424 4.41362 9.46244C4.33389 9.52065 4.2407 9.55767 4.14276 9.57005C3.62761 9.63388 3.1079 9.71594 2.59274 9.78432C2.48604 9.78285 2.38278 9.82211 2.30401 9.89411C2.22524 9.9661 2.17688 10.0654 2.16877 10.1718C1.97499 11.3706 1.97499 12.5928 2.16877 13.7916C2.1746 13.8976 2.22087 13.9974 2.29805 14.0703C2.37523 14.1432 2.47743 14.1838 2.58362 14.1836C2.89937 14.2485 3.21927 14.2912 3.54099 14.3113C3.68565 14.29 3.83308 14.2976 3.97479 14.3337C4.1165 14.3697 4.24968 14.4334 4.36665 14.5211C4.48361 14.6088 4.58206 14.7188 4.65631 14.8448C4.73055 14.9708 4.77913 15.1102 4.79924 15.255C4.83897 15.3494 4.85315 15.4526 4.84034 15.5542C4.82754 15.6559 4.78821 15.7523 4.7263 15.834C4.38438 16.2579 4.06982 16.7047 3.73702 17.1378C3.67547 17.1959 3.63802 17.2751 3.63211 17.3595C3.6262 17.444 3.65226 17.5276 3.70511 17.5937C4.42926 18.6537 5.34822 19.5665 6.41309 20.2834C6.47729 20.3135 6.54733 20.3291 6.61824 20.3291C6.68915 20.3291 6.75918 20.3135 6.82339 20.2834C7.13004 20.1007 7.41589 19.8852 7.6759 19.6406C7.85636 19.4087 8.12007 19.2561 8.41112 19.2152C8.70217 19.1744 8.99768 19.2485 9.23504 19.4218C9.3288 19.4604 9.41091 19.5227 9.47326 19.6026C9.53562 19.6826 9.57607 19.7774 9.59063 19.8777C9.64989 20.3883 9.73195 20.8943 9.79578 21.4004C9.79509 21.5131 9.83618 21.622 9.91111 21.7062C9.98604 21.7904 10.0895 21.8439 10.2015 21.8562C11.4005 22.0478 12.6223 22.0478 13.8213 21.8562C13.9226 21.8506 14.0181 21.8072 14.0889 21.7346C14.1598 21.6621 14.201 21.5656 14.2042 21.4642C14.268 20.949 14.341 20.4293 14.4139 19.9142C14.4139 19.7956 14.4504 19.6224 14.5279 19.5814C14.847 19.4036 15.1889 19.2714 15.5354 19.1255C15.6403 19.1939 15.7406 19.2394 15.8272 19.3033C16.2831 19.6315 16.7025 19.9506 17.131 20.288C17.1966 20.3556 17.2855 20.3956 17.3795 20.3998C17.4736 20.4041 17.5657 20.3722 17.6371 20.3108C18.6732 19.5777 19.5715 18.6671 20.2903 17.621C20.3569 17.5536 20.3942 17.4627 20.3942 17.368C20.3942 17.2733 20.3569 17.1824 20.2903 17.115C20.0971 16.8292 19.8871 16.5552 19.6612 16.2944C19.4306 16.1126 19.2798 15.8483 19.2407 15.5573C19.2016 15.2663 19.2772 14.9715 19.4515 14.7353C19.4892 14.6422 19.5515 14.5611 19.6319 14.5009C19.7122 14.4406 19.8075 14.4034 19.9074 14.3934C20.418 14.3341 20.924 14.2475 21.43 14.1882C21.5456 14.1885 21.657 14.1449 21.7416 14.0661C21.8263 13.9874 21.8778 13.8795 21.8859 13.7642C22.0668 12.5746 22.0607 11.3641 21.8677 10.1764ZM11.9704 15.5148C11.4974 15.5148 11.0291 15.4217 10.5921 15.2407C10.1552 15.0597 9.75814 14.7944 9.42371 14.46C9.08928 14.1255 8.82399 13.7285 8.643 13.2916C8.462 12.8546 8.36885 12.3863 8.36885 11.9133C8.36885 11.4404 8.462 10.972 8.643 10.5351C8.82399 10.0981 9.08928 9.70109 9.42371 9.36666C9.75814 9.03223 10.1552 8.76694 10.5921 8.58595C11.0291 8.40496 11.4974 8.3118 11.9704 8.3118C12.4433 8.3118 12.9117 8.40496 13.3486 8.58595C13.7856 8.76694 14.1826 9.03223 14.517 9.36666C14.8515 9.70109 15.1167 10.0981 15.2977 10.5351C15.4787 10.972 15.5719 11.4404 15.5719 11.9133C15.5719 12.3863 15.4787 12.8546 15.2977 13.2916C15.1167 13.7285 14.8515 14.1255 14.517 14.46C14.1826 14.7944 13.7856 15.0597 13.3486 15.2407C12.9117 15.4217 12.4433 15.5148 11.9704 15.5148Z" stroke="#6D75F4" stroke-width="2" mask="url(#path-1-inside-1_5745_37147)"/>
</svg>
