<svg width="25" height="24" viewBox="0 0 25 24" fill="none" xmlns="http://www.w3.org/2000/svg">
<path fill-rule="evenodd" clip-rule="evenodd" d="M9.55109 7.66338C10.2752 6.76214 11.3871 6.18575 12.6326 6.18575C13.8791 6.18575 14.9898 6.7674 15.7128 7.66327C15.8016 7.65548 15.8932 7.65101 15.9881 7.65101C17.9442 7.65101 19.54 9.20537 19.6068 11.1453C19.6156 11.1861 19.6202 11.2285 19.6202 11.2719C19.6202 12.9698 18.4475 14.3805 16.8742 14.7704V16.3612C16.8742 17.1598 16.2223 17.8009 15.4345 17.8009H9.83624C9.03761 17.8009 8.39649 17.149 8.39649 16.3612V14.7704C6.82322 14.3805 5.65051 12.9698 5.65051 11.2719C5.65051 9.27272 7.27366 7.65101 9.27698 7.65101C9.37 7.65101 9.4616 7.65552 9.55109 7.66338ZM18.4163 11.3759C18.4104 11.3421 18.4073 11.3073 18.4073 11.2719C18.4073 9.93712 17.3229 8.85271 15.9881 8.85271C15.846 8.85271 15.7057 8.8693 15.5508 8.89835C15.3125 8.94302 15.0708 8.84016 14.9378 8.63752C14.4447 7.88636 13.5943 7.38745 12.6326 7.38745C11.6691 7.38745 10.8202 7.8821 10.3283 8.63611C10.1955 8.83963 9.95317 8.94313 9.71432 8.89835C9.56016 8.86944 9.41411 8.85271 9.27698 8.85271C7.9359 8.85271 6.85221 9.93784 6.85221 11.2719C6.85221 12.5255 7.8161 13.5532 9.05174 13.6656C9.36123 13.6937 9.59819 13.9532 9.59819 14.2639V16.3612C9.59819 16.4905 9.70649 16.5992 9.83624 16.5992H15.4345C15.5638 16.5992 15.6725 16.4909 15.6725 16.3612V14.2639C15.6725 13.9532 15.9095 13.6937 16.219 13.6656C17.4203 13.5563 18.3647 12.5819 18.4163 11.3759Z" fill="#86889D"/>
<path fill-rule="evenodd" clip-rule="evenodd" d="M12.8456 22.6713C18.6446 22.6713 23.3456 17.9703 23.3456 12.1713C23.3456 6.37227 18.6446 1.67126 12.8456 1.67126C7.04659 1.67126 2.34558 6.37227 2.34558 12.1713C2.34558 17.9703 7.04659 22.6713 12.8456 22.6713ZM12.8456 23.1713C18.9207 23.1713 23.8456 18.2464 23.8456 12.1713C23.8456 6.09613 18.9207 1.17126 12.8456 1.17126C6.77045 1.17126 1.84558 6.09613 1.84558 12.1713C1.84558 18.2464 6.77045 23.1713 12.8456 23.1713Z" fill="#86889D"/>
</svg>
