<svg width="22" height="22" viewBox="0 0 22 22" fill="none" xmlns="http://www.w3.org/2000/svg">
<g clip-path="url(#clip0_8578_211471)">
<path d="M1.60461 6.44376C2.53359 7.36149 3.56954 8.14548 4.71248 8.79578C5.85541 9.44607 7.06871 9.94011 8.3524 10.2779C9.63609 10.6157 10.9592 10.7818 12.3217 10.7762C13.8813 10.7649 15.3887 10.52 16.8441 10.0415C18.2996 9.56289 19.6381 8.87883 20.8599 7.98925L20.3447 6.9167C19.2018 7.77812 17.9477 8.44107 16.5823 8.90557C15.217 9.37006 13.7968 9.60793 12.3217 9.61919C11.0098 9.63045 9.73884 9.46577 8.50864 9.12514C7.27843 8.78451 6.12285 8.28765 5.04184 7.63455C3.96084 6.98144 2.98682 6.19322 2.11977 5.26987L1.60461 6.44376ZM0.532054 12.5244C1.95087 13.7292 3.49212 14.685 5.15585 15.3916C6.81959 16.0981 8.541 16.5542 10.3202 16.7597C12.0993 16.9652 13.8742 16.9145 15.6449 16.6077C17.4156 16.3008 19.1173 15.7308 20.7501 14.8975V13.5716C19.472 14.2866 18.1405 14.8229 16.7555 15.1804C15.3704 15.5379 13.9699 15.7209 12.5539 15.7294C11.1379 15.7378 9.73743 15.5745 8.3524 15.2395C6.96736 14.9045 5.63583 14.4006 4.35777 13.7278C3.07971 13.055 1.88894 12.2147 0.785413 11.2069L0.532054 12.5244ZM5.84415 19.9985L7.22073 20.3532C6.90544 19.5931 6.66193 18.8147 6.49021 18.018C6.31849 17.2214 6.21855 16.4092 6.1904 15.5816C6.05528 14.1684 6.09328 12.7777 6.30441 11.4096C6.51555 10.0415 6.88573 8.72541 7.41497 7.46142C7.94421 6.19743 8.6142 5.01088 9.42495 3.90173C10.2357 2.79257 11.1731 1.79041 12.2372 0.895202L11.0042 0.447601C9.94574 1.39911 9.01677 2.45195 8.21727 3.60614C7.41778 4.76034 6.76046 5.98912 6.2453 7.29251C5.73013 8.59591 5.36839 9.94855 5.16008 11.3505C4.95176 12.7524 4.91235 14.1768 5.04184 15.6238C5.06436 16.367 5.14319 17.1045 5.27831 17.8365C5.41344 18.5684 5.60205 19.2891 5.84415 19.9985ZM13.0395 21.1217L14.129 20.6656C13.1324 19.2299 12.3667 17.676 11.8319 16.0038C11.297 14.3317 11.0296 12.6032 11.0296 10.8184C11.0296 9.10121 11.2731 7.44031 11.7601 5.8357C12.2471 4.23109 12.9523 2.7391 13.8756 1.35969L12.7608 0.945873C11.8262 2.40973 11.1112 3.97773 10.6157 5.6499C10.1203 7.32208 9.87255 9.0449 9.87255 10.8184C9.87255 12.6877 10.1442 14.4963 10.6875 16.2445C11.2308 17.9927 12.0148 19.6184 13.0395 21.1217ZM19.5002 17.0426L20.2434 16.1474C19.0385 15.4605 17.9913 14.5977 17.1017 13.5589C16.2122 12.5201 15.5182 11.3575 15.02 10.071C14.5217 8.78451 14.2557 7.42905 14.2219 6.00461C14.1994 5.222 14.2557 4.44786 14.3908 3.68215C14.5259 2.91644 14.7314 2.17607 15.0073 1.46104L13.901 1.14012C13.6082 1.91146 13.3914 2.70531 13.2507 3.52169C13.1099 4.33807 13.048 5.17133 13.0649 6.0215C13.093 7.55292 13.3745 9.01394 13.9094 10.4046C14.4443 11.7953 15.1875 13.0592 16.139 14.1965C17.0905 15.3338 18.2109 16.2825 19.5002 17.0426ZM6.21574 10.6664C6.51414 10.6664 6.78579 10.5932 7.03071 10.4468C7.27562 10.3004 7.47127 10.1034 7.61766 9.85566C7.76404 9.60793 7.83724 9.33206 7.83724 9.02802C7.83724 8.73525 7.76404 8.465 7.61766 8.21727C7.47127 7.96954 7.27562 7.77249 7.03071 7.6261C6.78579 7.47972 6.51414 7.40653 6.21574 7.40653C5.91734 7.40653 5.64427 7.47972 5.39654 7.6261C5.14881 7.77249 4.95035 7.96954 4.80115 8.21727C4.65195 8.465 4.57735 8.73525 4.57735 9.02802C4.57735 9.33206 4.65195 9.60793 4.80115 9.85566C4.95035 10.1034 5.14881 10.3004 5.39654 10.4468C5.64427 10.5932 5.91734 10.6664 6.21574 10.6664ZM14.5597 11.6123C14.8468 11.6123 15.1086 11.5405 15.3451 11.3969C15.5816 11.2534 15.7716 11.0619 15.9152 10.8226C16.0587 10.5834 16.1305 10.3173 16.1305 10.0246C16.1305 9.7318 16.0587 9.46718 15.9152 9.23071C15.7716 8.99424 15.5816 8.80422 15.3451 8.66065C15.1086 8.51708 14.8468 8.4453 14.5597 8.4453C14.2669 8.4453 13.9995 8.51708 13.7574 8.66065C13.5153 8.80422 13.3225 8.99424 13.1789 9.23071C13.0353 9.46718 12.9635 9.7318 12.9635 10.0246C12.9635 10.3173 13.0353 10.5834 13.1789 10.8226C13.3225 11.0619 13.5153 11.2534 13.7574 11.3969C13.9995 11.5405 14.2669 11.6123 14.5597 11.6123ZM11.3758 17.8956C11.6742 17.8956 11.9459 17.8224 12.1908 17.676C12.4357 17.5296 12.6313 17.334 12.7777 17.0891C12.9241 16.8441 12.9973 16.5725 12.9973 16.2741C12.9973 15.9701 12.9241 15.697 12.7777 15.4549C12.6313 15.2128 12.4357 15.0186 12.1908 14.8722C11.9459 14.7258 11.6742 14.6526 11.3758 14.6526C11.0774 14.6526 10.8044 14.7258 10.5566 14.8722C10.3089 15.0186 10.1132 15.2128 9.96967 15.4549C9.8261 15.697 9.75432 15.9701 9.75432 16.2741C9.75432 16.5725 9.8261 16.8441 9.96967 17.0891C10.1132 17.334 10.3089 17.5296 10.5566 17.676C10.8044 17.8224 11.0774 17.8956 11.3758 17.8956ZM10.9958 22C12.2006 22 13.3506 21.8128 14.4457 21.4384C15.5408 21.064 16.5471 20.539 17.4649 19.8633C18.3826 19.1877 19.1807 18.391 19.8591 17.4733C20.5376 16.5556 21.064 15.5478 21.4384 14.4499C21.8128 13.352 22 12.2035 22 11.0042C22 9.79935 21.8128 8.6494 21.4384 7.55432C21.064 6.45924 20.5376 5.45285 19.8591 4.53512C19.1807 3.6174 18.3826 2.81932 17.4649 2.14088C16.5471 1.46244 15.5394 0.936022 14.4415 0.561612C13.3436 0.187202 12.1922 0 10.9873 0C9.78246 0 8.63251 0.187202 7.53743 0.561612C6.44235 0.936022 5.43737 1.46244 4.52246 2.14088C3.60755 2.81932 2.81088 3.6174 2.13244 4.53512C1.454 5.45285 0.928984 6.45924 0.55739 7.55432C0.185795 8.6494 0 9.79935 0 11.0042C0 12.2035 0.187202 13.352 0.561612 14.4499C0.936022 15.5478 1.46103 16.5556 2.13666 17.4733C2.81229 18.391 3.60895 19.1877 4.52668 19.8633C5.44441 20.539 6.45079 21.064 7.54587 21.4384C8.64095 21.8128 9.79091 22 10.9958 22ZM10.9958 20.7163C9.93166 20.7163 8.91683 20.5516 7.95125 20.2223C6.98566 19.8929 6.09751 19.4284 5.28676 18.8288C4.476 18.2292 3.77083 17.524 3.17121 16.7132C2.57159 15.9025 2.1071 15.0143 1.77773 14.0488C1.44837 13.0832 1.28369 12.0683 1.28369 11.0042C1.28369 9.94011 1.44837 8.92387 1.77773 7.95547C2.1071 6.98707 2.57018 6.09751 3.16699 5.28676C3.76379 4.476 4.46756 3.77083 5.27831 3.17121C6.08906 2.57159 6.97722 2.1071 7.9428 1.77773C8.90839 1.44837 9.92322 1.28369 10.9873 1.28369C12.0514 1.28369 13.0677 1.44837 14.0361 1.77773C15.0045 2.1071 15.8955 2.57159 16.709 3.17121C17.5226 3.77083 18.2278 4.476 18.8246 5.28676C19.4214 6.09751 19.8859 6.98707 20.218 7.95547C20.5502 8.92387 20.7163 9.94011 20.7163 11.0042C20.7163 12.0683 20.5516 13.0832 20.2223 14.0488C19.8929 15.0143 19.4284 15.9025 18.8288 16.7132C18.2292 17.524 17.524 18.2292 16.7132 18.8288C15.9025 19.4284 15.0129 19.8929 14.0445 20.2223C13.0761 20.5516 12.0599 20.7163 10.9958 20.7163Z" fill="#6D75F4"/>
</g>
<defs>
<clipPath id="clip0_8578_211471">
<rect width="22" height="22" fill="white"/>
</clipPath>
</defs>
</svg>
