<svg width="24" height="20" viewBox="0 0 24 20" fill="none" xmlns="http://www.w3.org/2000/svg">
<g clip-path="url(#clip0_8587_211691)">
<path d="M0.976933 9.47453C2.67029 10.0674 4.43961 10.5053 6.28494 10.7882C8.13027 11.0711 10.0353 11.2126 12 11.2126C13.9647 11.2126 15.8697 11.0711 17.7151 10.7882C19.5604 10.5053 21.3297 10.0674 23.0231 9.47453L22.9986 7.97898C21.3704 8.60415 19.6377 9.06898 17.8005 9.37348C15.9634 9.67799 14.0299 9.83023 12 9.83023C9.97014 9.83023 8.03664 9.67799 6.19946 9.37348C4.36227 9.06898 2.62959 8.59607 1.00136 7.95473L0.976933 9.47453ZM10.3881 13.0558H13.6119C13.9647 13.0558 14.2388 12.9601 14.4342 12.7688C14.6296 12.5775 14.7273 12.3067 14.7273 11.9563V10.4689H9.27273V11.9563C9.27273 12.3067 9.37042 12.5775 9.56581 12.7688C9.7612 12.9601 10.0353 13.0558 10.3881 13.0558ZM3.08548 20H20.9145C21.9457 20 22.7178 19.7494 23.2307 19.2482C23.7436 18.747 24 17.9898 24 16.9766V6.73403C24 5.71544 23.7436 4.95554 23.2307 4.45433C22.7178 3.95311 21.9457 3.70251 20.9145 3.70251H3.08548C2.0597 3.70251 1.28901 3.95311 0.773406 4.45433C0.257799 4.95554 0 5.71544 0 6.73403V16.9766C0 17.9898 0.257799 18.747 0.773406 19.2482C1.28901 19.7494 2.0597 20 3.08548 20ZM3.10176 18.5772C2.55359 18.5772 2.13976 18.4411 1.86024 18.169C1.58073 17.8968 1.44098 17.4778 1.44098 16.9119V6.79871C1.44098 6.23282 1.58073 5.81245 1.86024 5.53759C2.13976 5.26273 2.55359 5.1253 3.10176 5.1253H20.8982C21.4518 5.1253 21.867 5.26273 22.1438 5.53759C22.4206 5.81245 22.559 6.23282 22.559 6.79871V16.9119C22.559 17.4778 22.4206 17.8968 22.1438 18.169C21.867 18.4411 21.4518 18.5772 20.8982 18.5772H3.10176ZM6.77341 4.49475H8.16554V2.57074C8.16554 2.16653 8.28222 1.8553 8.5156 1.63702C8.74898 1.41875 9.07734 1.30962 9.50068 1.30962H14.4912C14.9199 1.30962 15.251 1.41875 15.4844 1.63702C15.7178 1.8553 15.8345 2.16653 15.8345 2.57074V4.47858H17.2266V2.66774C17.2266 1.76771 16.9878 1.09809 16.5102 0.658852C16.0326 0.219615 15.3514 0 14.4668 0H9.53324C8.68656 0 8.01493 0.219615 7.51832 0.658852C7.02171 1.09809 6.77341 1.76771 6.77341 2.66774V4.49475Z" fill="#6D75F4"/>
</g>
<defs>
<clipPath id="clip0_8587_211691">
<rect width="24" height="20" fill="white"/>
</clipPath>
</defs>
</svg>
