<svg width="24" height="24" viewBox="0 0 24 24" fill="none" xmlns="http://www.w3.org/2000/svg">
<path fill-rule="evenodd" clip-rule="evenodd" d="M11.8456 22.6713C17.6446 22.6713 22.3456 17.9703 22.3456 12.1713C22.3456 6.37227 17.6446 1.67126 11.8456 1.67126C6.04659 1.67126 1.34558 6.37227 1.34558 12.1713C1.34558 17.9703 6.04659 22.6713 11.8456 22.6713ZM11.8456 23.1713C17.9207 23.1713 22.8456 18.2464 22.8456 12.1713C22.8456 6.09613 17.9207 1.17126 11.8456 1.17126C5.77045 1.17126 0.845581 6.09613 0.845581 12.1713C0.845581 18.2464 5.77045 23.1713 11.8456 23.1713Z" fill="#86889D"/>
<path d="M11.6912 13.9782C12.7744 13.9782 13.6526 13.1001 13.6526 12.0168C13.6526 10.9336 12.7744 10.0555 11.6912 10.0555C10.6079 10.0555 9.72978 10.9336 9.72978 12.0168C9.72978 13.1001 10.6079 13.9782 11.6912 13.9782Z" fill="#86889D"/>
<path fill-rule="evenodd" clip-rule="evenodd" d="M8.9252 8.54365C9.12035 8.73902 9.12018 9.0556 8.92481 9.25076C8.568 9.60717 8.28393 10.0296 8.08843 10.4945L8.08771 10.4962C7.88336 10.9771 7.77804 11.4943 7.77804 12.0169C7.77804 12.5394 7.88336 13.0566 8.08771 13.5375L8.08843 13.5392C8.28393 14.0041 8.568 14.4265 8.92481 14.783C9.12018 14.9781 9.12035 15.2947 8.9252 15.4901C8.73004 15.6854 8.41346 15.6856 8.21809 15.4904C7.76975 15.0426 7.41277 14.5119 7.167 13.9278C6.91032 13.3234 6.77804 12.6735 6.77804 12.0169C6.77804 11.3602 6.91032 10.7103 7.16699 10.106C7.41276 9.52186 7.76975 8.99111 8.21809 8.54326C8.41346 8.34811 8.73004 8.34828 8.9252 8.54365Z" fill="#86889D"/>
<path fill-rule="evenodd" clip-rule="evenodd" d="M14.4572 8.54365C14.6523 8.34828 14.9689 8.34811 15.1643 8.54326C15.6126 8.99111 15.9696 9.52186 16.2154 10.106C16.4721 10.7103 16.6043 11.3602 16.6043 12.0169C16.6043 12.6735 16.4721 13.3234 16.2154 13.9278C15.9696 14.5119 15.6126 15.0426 15.1643 15.4904C14.9689 15.6856 14.6523 15.6854 14.4572 15.4901C14.262 15.2947 14.2622 14.9781 14.4576 14.783C14.8144 14.4265 15.0984 14.0041 15.2939 13.5392L15.2947 13.5375C15.499 13.0566 15.6043 12.5394 15.6043 12.0169C15.6043 11.4943 15.499 10.9771 15.2947 10.4962L15.2939 10.4945C15.0984 10.0296 14.8144 9.60717 14.4576 9.25076C14.2622 9.0556 14.262 8.73902 14.4572 8.54365Z" fill="#86889D"/>
<path fill-rule="evenodd" clip-rule="evenodd" d="M7.27831 6.72004C7.52261 6.96389 7.52297 7.35962 7.27912 7.60392C6.71045 8.17364 6.25633 8.84713 5.94136 9.5879C5.61791 10.3568 5.45129 11.1826 5.45129 12.0168C5.45129 12.851 5.61791 13.6768 5.94136 14.4458C6.25633 15.1865 6.71045 15.86 7.27912 16.4298C7.52297 16.6741 7.52261 17.0698 7.27831 17.3136C7.034 17.5575 6.63828 17.5571 6.39442 17.3128C5.71253 16.6297 5.16805 15.822 4.79052 14.9337L4.78966 14.9317C4.40133 14.009 4.20129 13.0179 4.20129 12.0168C4.20129 11.0157 4.40133 10.0247 4.78966 9.102L4.79051 9.09998C5.16805 8.21164 5.71253 7.404 6.39442 6.72085C6.63828 6.47655 7.034 6.47618 7.27831 6.72004Z" fill="#86889D"/>
<path fill-rule="evenodd" clip-rule="evenodd" d="M16.1043 6.72004C16.3486 6.47618 16.7443 6.47655 16.9882 6.72085C17.6701 7.404 18.2145 8.21164 18.5921 9.09998L18.5929 9.102C18.9813 10.0247 19.1813 11.0157 19.1813 12.0168C19.1813 13.0179 18.9813 14.009 18.5929 14.9317L18.5921 14.9337C18.2145 15.822 17.6701 16.6297 16.9882 17.3128C16.7443 17.5571 16.3486 17.5575 16.1043 17.3136C15.86 17.0698 15.8596 16.6741 16.1035 16.4298C16.6721 15.86 17.1263 15.1866 17.4412 14.4458C17.7647 13.6769 17.9313 12.851 17.9313 12.0168C17.9313 11.1826 17.7647 10.3568 17.4412 9.58788C17.1263 8.84711 16.6721 8.17363 16.1035 7.60392C15.8596 7.35962 15.86 6.96389 16.1043 6.72004Z" fill="#86889D"/>
</svg>
