<svg width="35" height="35" viewBox="0 0 35 35" fill="none" xmlns="http://www.w3.org/2000/svg">
<path fill-rule="evenodd" clip-rule="evenodd" d="M17.5 35C27.165 35 35 27.165 35 17.5C35 7.83502 27.165 0 17.5 0C7.83502 0 0 7.83502 0 17.5C0 27.165 7.83502 35 17.5 35ZM13.3002 17.4893C13.3002 18.6372 12.3696 19.5678 11.2217 19.5678C10.0737 19.5678 9.14317 18.6372 9.14317 17.4893C9.14317 16.3414 10.0737 15.4108 11.2217 15.4108C12.3696 15.4108 13.3002 16.3414 13.3002 17.4893ZM19.5356 17.4893C19.5356 18.6372 18.605 19.5678 17.4571 19.5678C16.3092 19.5678 15.3786 18.6372 15.3786 17.4893C15.3786 16.3414 16.3092 15.4108 17.4571 15.4108C18.605 15.4108 19.5356 16.3414 19.5356 17.4893ZM23.6927 19.5678C24.8406 19.5678 25.7712 18.6372 25.7712 17.4893C25.7712 16.3414 24.8406 15.4108 23.6927 15.4108C22.5447 15.4108 21.6142 16.3414 21.6142 17.4893C21.6142 18.6372 22.5447 19.5678 23.6927 19.5678Z" fill="#6D75F4"/>
</svg>
