<svg width="31" height="31" viewBox="0 0 31 31" fill="none" xmlns="http://www.w3.org/2000/svg">
<g clip-path="url(#clip0_6241_76030)">
<path d="M25.4423 21.3536C25.3241 19.2612 24.1892 17.3935 22.0614 15.8094C21.3876 15.3129 20.3001 14.6037 18.8106 13.989L24.7685 8.00741V7.1681C24.7685 6.83711 24.4848 6.5534 24.1538 6.5534H13.0655V1.5412L7.99415 2.60511V3.98819H8.64432C8.83346 3.98819 9.27085 4.05912 9.27085 4.61472V6.52976H6.39829C6.11458 6.52976 5.86633 6.778 5.86633 7.06171V8.95311H9.28267V16.566C9.28267 17.9609 9.75552 19.1667 10.6185 19.9587C11.4932 20.7625 12.7345 21.129 14.1767 21.0108C14.7914 20.9635 15.4061 20.7389 16.0089 20.3488C16.3399 20.1242 16.5409 19.7695 16.5409 19.3794V17.819L15.9026 18.2446C15.1224 18.7647 14.4485 18.7529 14.4485 18.7529H14.4249C14.0821 18.7529 13.8102 18.6465 13.5974 18.4337C13.0773 17.9018 13.0773 16.897 13.0773 16.8852V8.95311H19.9454L14.5668 14.3672V14.5327C14.5549 15.1474 14.5431 15.6557 14.5431 15.8567C14.5431 15.9158 14.5431 15.9513 14.5431 15.9631C14.5431 16.1995 14.7086 16.3887 14.945 16.4123C20.3828 17.3344 21.5176 20.8334 21.5176 21.4836V21.5309C21.5176 21.5545 21.7422 23.6114 20.5601 25.0418C19.8745 25.8575 18.846 26.3303 17.5102 26.4131C17.4984 26.4131 16.7064 26.4485 15.8671 26.3185C15.0869 26.2003 14.5195 25.9993 14.2239 25.7274C14.7441 25.361 15.0396 24.8054 15.0396 24.1552C15.0396 22.8312 14.153 21.9801 12.7936 21.9801C11.5642 21.9801 10.5594 22.9494 10.5475 24.1316C10.5357 24.3444 10.4766 25.6447 11.5287 26.8032C12.6399 28.0326 14.5549 28.6473 17.2147 28.6473C17.3093 28.6473 17.4157 28.6473 17.5102 28.6473C20.2291 28.6 22.3097 27.808 23.6927 26.2949C25.6078 24.2143 25.4541 21.5191 25.4423 21.3536Z" fill="black"/>
</g>
<defs>
<clipPath id="clip0_6241_76030">
<rect width="30.0025" height="30.0025" fill="white" transform="translate(0.865112 0.229614)"/>
</clipPath>
</defs>
</svg>
