<svg width="31" height="31" viewBox="0 0 31 31" fill="none" xmlns="http://www.w3.org/2000/svg">
<g clip-path="url(#clip0_6241_76025)">
<path d="M24.5772 21.3536C24.459 19.2613 23.3241 17.3935 21.1963 15.8095C20.5225 15.313 19.4349 14.6037 17.9455 13.989L23.9034 8.00747V7.16817C23.9034 6.83717 23.6197 6.55346 23.2887 6.55346H12.2004V1.54126L7.12904 2.60517V3.98825H7.77921C7.96835 3.98825 8.40574 4.05918 8.40574 4.61478V6.52982H5.53318C5.24947 6.52982 5.00122 6.77807 5.00122 7.06177V8.95317H8.41756V16.566C8.41756 17.9609 8.89041 19.1667 9.75336 19.9587C10.6281 20.7626 11.8694 21.129 13.3115 21.0108C13.9263 20.9635 14.541 20.7389 15.1438 20.3488C15.4748 20.1242 15.6758 19.7696 15.6758 19.3795V17.8191L15.0374 18.2447C14.2572 18.7648 13.5834 18.753 13.5834 18.753H13.5598C13.217 18.753 12.9451 18.6466 12.7323 18.4338C12.2122 17.9018 12.2122 16.897 12.2122 16.8852V8.95317H19.0803L13.7016 14.3673V14.5328C13.6898 15.1475 13.678 15.6558 13.678 15.8568C13.678 15.9159 13.678 15.9513 13.678 15.9632C13.678 16.1996 13.8435 16.3887 14.0799 16.4124C19.5177 17.3344 20.6525 20.8335 20.6525 21.4837V21.531C20.6525 21.5546 20.8771 23.6115 19.695 25.0419C19.0094 25.8575 17.9809 26.3304 16.6451 26.4131C16.6333 26.4131 15.8413 26.4486 15.002 26.3186C14.2218 26.2003 13.6544 25.9994 13.3588 25.7275C13.879 25.361 14.1745 24.8054 14.1745 24.1553C14.1745 22.8313 13.2879 21.9802 11.9285 21.9802C10.6991 21.9802 9.69425 22.9495 9.68243 24.1316C9.67061 24.3444 9.6115 25.6448 10.6636 26.8032C11.7748 28.0326 13.6898 28.6473 16.3496 28.6473C16.4442 28.6473 16.5506 28.6473 16.6451 28.6473C19.364 28.6001 21.4446 27.808 22.8276 26.2949C24.7427 24.2144 24.589 21.5191 24.5772 21.3536Z" fill="white"/>
</g>
<defs>
<clipPath id="clip0_6241_76025">
<rect width="30.0025" height="30.0025" fill="white" transform="translate(0 0.229614)"/>
</clipPath>
</defs>
</svg>
