<svg width="16" height="16" viewBox="0 0 16 16" fill="none" xmlns="http://www.w3.org/2000/svg">
<g clip-path="url(#clip0_7702_151391)">
<path fill-rule="evenodd" clip-rule="evenodd" d="M8.95996 0.96C8.95996 0.429807 9.38977 0 9.91997 0H14.4C14.8243 0 15.2313 0.16857 15.5314 0.468629C15.8314 0.76869 16 1.17566 16 1.6V14.4C16 14.8243 15.8314 15.2313 15.5314 15.5314C15.2313 15.8314 14.8243 16 14.4 16H9.91997C9.38977 16 8.95996 15.5702 8.95996 15.04C8.95996 14.5098 9.38977 14.08 9.91997 14.08H14.08V1.92H9.91997C9.38977 1.92 8.95996 1.49019 8.95996 0.96ZM5.88114 3.96119C6.25605 3.58628 6.86389 3.58628 7.2388 3.96119L10.5988 7.32119C10.9737 7.69609 10.9737 8.30393 10.5988 8.67883L7.2388 12.0388C6.86389 12.4137 6.25605 12.4137 5.88114 12.0388C5.50624 11.6639 5.50624 11.0561 5.88114 10.6812L7.60233 8.96001L0.960005 8.96001C0.429809 8.96001 -6.05176e-08 8.5302 0 8.00001C6.05176e-08 7.46981 0.429809 7.04001 0.960005 7.04001L7.60233 7.04001L5.88114 5.31883C5.50624 4.94393 5.50624 4.33609 5.88114 3.96119Z" fill="#6D75F4"/>
</g>
<defs>
<clipPath id="clip0_7702_151391">
<rect width="16" height="16" fill="white"/>
</clipPath>
</defs>
</svg>
