<svg width="24" height="24" viewBox="0 0 24 24" fill="none" xmlns="http://www.w3.org/2000/svg">
<path d="M21.8699 19.7911C21.7799 19.5912 21.6498 19.4113 21.4898 19.2614L17.2376 15.0335C17.3677 14.8436 17.5078 14.6637 17.6278 14.4638C18.3782 13.2144 18.7584 11.8251 18.7584 10.2959C18.7584 8.76662 18.3782 7.36732 17.6278 6.11794C16.8774 4.86857 15.8669 3.85907 14.6063 3.11944C13.3357 2.36982 11.935 2 10.4042 2C8.87345 2 7.46274 2.36982 6.20211 3.11944C4.93147 3.86907 3.92097 4.86857 3.16059 6.12794C2.40021 7.38731 2.02002 8.77661 2.02002 10.3058C2.02002 11.8351 2.40021 13.2144 3.16059 14.4738C3.92097 15.7231 4.94148 16.7226 6.20211 17.4723C7.47275 18.2119 8.87345 18.5917 10.4042 18.5917C11.935 18.5917 13.3457 18.2219 14.6063 17.4723C14.7364 17.4023 14.8464 17.3123 14.9665 17.2324L19.1486 21.3903C19.5588 21.8001 20.009 22 20.5093 22C20.9395 22 21.2997 21.8501 21.5898 21.5502C21.8799 21.2504 22.02 20.8606 22.02 20.4008C22.02 20.2009 21.97 20.001 21.8799 19.8011L21.8699 19.7911ZM10.3942 15.953C9.34368 15.953 8.3832 15.6932 7.52277 15.1834C6.66234 14.6737 5.972 13.994 5.45174 13.1344C4.93148 12.2849 4.67135 11.3353 4.67135 10.3058C4.67135 9.27636 4.93148 8.32684 5.45174 7.47726C5.972 6.62769 6.66234 5.93803 7.52277 5.41829C8.3832 4.89855 9.34368 4.64868 10.3942 4.64868C11.4447 4.64868 12.3752 4.90855 13.2356 5.41829C14.0961 5.93803 14.7864 6.61769 15.3067 7.47726C15.8169 8.32684 16.077 9.27636 16.077 10.3058C16.077 11.3353 15.8169 12.2849 15.3067 13.1344C14.7964 13.984 14.1061 14.6737 13.2456 15.1834C12.3852 15.6932 11.4447 15.953 10.3942 15.953Z" fill="#6D75F4"/>
</svg>
