<svg width="14" height="18" viewBox="0 0 14 18" fill="none" xmlns="http://www.w3.org/2000/svg">
<g clip-path="url(#clip0_7702_137565)">
<path d="M2.24957 18H11.7504C13.2501 18 14 17.2171 14 15.6512V9.41518C14 8.18149 13.5214 7.43021 12.5641 7.16133V6.16845C12.5641 4.33372 12.0496 2.84698 11.0205 1.70819C9.99145 0.569389 8.65528 0 7.01197 0C5.3527 0 4.00855 0.569389 2.97949 1.70819C1.95042 2.84698 1.4359 4.33372 1.4359 6.16845V7.18505C0.478628 7.43812 0 8.18149 0 9.41518V15.6512C0 17.2171 0.749849 18 2.24957 18ZM3.97265 7.06643V5.97865C3.97265 4.8873 4.24387 4.02531 4.78632 3.39265C5.32878 2.75998 6.07065 2.44365 7.01197 2.44365C7.92137 2.44365 8.65527 2.75998 9.21367 3.39265C9.77208 4.02531 10.0513 4.8873 10.0513 5.97865V7.06643H3.97265Z" fill="#6D75F4"/>
</g>
<defs>
<clipPath id="clip0_7702_137565">
<rect width="14" height="18" fill="white"/>
</clipPath>
</defs>
</svg>
