<svg width="25" height="25" viewBox="0 0 25 25" fill="none" xmlns="http://www.w3.org/2000/svg">
<g clip-path="url(#clip0_6044_20296)">
<path fill-rule="evenodd" clip-rule="evenodd" d="M12.8208 0.810944C13.9254 0.810944 14.8208 1.70637 14.8208 2.81094V21.9471C14.8208 23.0517 13.9254 23.9471 12.8208 23.9471C11.7162 23.9471 10.8208 23.0517 10.8208 21.9471V2.81094C10.8208 1.70637 11.7162 0.810944 12.8208 0.810944Z" fill="#6D75F4"/>
<path fill-rule="evenodd" clip-rule="evenodd" d="M11.4066 1.39673C12.1877 0.615681 13.454 0.615681 14.2351 1.39673L23.2996 10.4612C24.0806 11.2423 24.0806 12.5086 23.2996 13.2897C22.5185 14.0707 21.2522 14.0707 20.4711 13.2897L12.8208 5.63937L5.17056 13.2897C4.38951 14.0707 3.12318 14.0707 2.34213 13.2897C1.56109 12.5086 1.56109 11.2423 2.34213 10.4612L11.4066 1.39673Z" fill="#6D75F4"/>
</g>
<defs>
<clipPath id="clip0_6044_20296">
<rect width="24" height="24" fill="white" transform="translate(0.820923 0.379028)"/>
</clipPath>
</defs>
</svg>
