<svg width="25" height="25" viewBox="0 0 25 25" fill="none" xmlns="http://www.w3.org/2000/svg">
<g clip-path="url(#clip0_6044_20296)">
<path fill-rule="evenodd" clip-rule="evenodd" d="M12.7314 0.521851C13.836 0.521851 14.7314 1.41728 14.7314 2.52185V21.658C14.7314 22.7626 13.836 23.658 12.7314 23.658C11.6269 23.658 10.7314 22.7626 10.7314 21.658V2.52185C10.7314 1.41728 11.6269 0.521851 12.7314 0.521851Z" fill="#6D75F4"/>
<path fill-rule="evenodd" clip-rule="evenodd" d="M11.3173 1.10764C12.0983 0.326588 13.3647 0.326588 14.1457 1.10764L23.2102 10.1721C23.9912 10.9532 23.9912 12.2195 23.2102 13.0006C22.4291 13.7816 21.1628 13.7816 20.3818 13.0006L12.7315 5.35028L5.08121 13.0006C4.30016 13.7816 3.03383 13.7816 2.25278 13.0006C1.47173 12.2195 1.47173 10.9532 2.25278 10.1721L11.3173 1.10764Z" fill="#6D75F4"/>
</g>
<defs>
<clipPath id="clip0_6044_20296">
<rect width="24" height="24" fill="white" transform="translate(0.731689 0.0899353)"/>
</clipPath>
</defs>
</svg>
