<svg width="18" height="18" viewBox="0 0 18 18" fill="none" xmlns="http://www.w3.org/2000/svg">
<path fill-rule="evenodd" clip-rule="evenodd" d="M11.9786 0.369165C12.4708 -0.123055 13.2688 -0.123055 13.761 0.369165L17.6308 4.23896C18.1231 4.73118 18.1231 5.52923 17.6308 6.02145L6.02145 17.6308C5.78508 17.8672 5.46449 18 5.1302 18H1.26041C0.564304 18 0 17.4357 0 16.7396V12.8698C0 12.5355 0.132793 12.2149 0.369165 11.9786L11.9786 0.369165ZM2.52082 13.3919V15.4792H4.60813L14.9571 5.1302L12.8698 3.0429L2.52082 13.3919Z" fill="#6D75F4"/>
<path fill-rule="evenodd" clip-rule="evenodd" d="M8.59254 3.75527C9.08476 3.26305 9.88281 3.26305 10.375 3.75527L14.2448 7.62507C14.737 8.11729 14.737 8.91534 14.2448 9.40756C13.7526 9.89978 12.9546 9.89978 12.4623 9.40756L8.59254 5.53776C8.10032 5.04554 8.10032 4.24749 8.59254 3.75527Z" fill="#6D75F4"/>
</svg>
