<svg width="25" height="24" viewBox="0 0 25 24" fill="none" xmlns="http://www.w3.org/2000/svg">
<g clip-path="url(#clip0_5122_1393)">
<path d="M12.9799 16.3178H4.34405C3.83237 16.347 3.32028 16.2678 2.84137 16.0853C2.36247 15.9027 1.92755 15.621 1.56514 15.2586C1.20274 14.8962 0.921029 14.4613 0.738485 13.9824C0.555942 13.5035 0.476688 12.9914 0.50592 12.4797V3.84389C0.476688 3.3322 0.555942 2.82012 0.738485 2.34121C0.921029 1.8623 1.20274 1.42738 1.56514 1.06498C1.92755 0.702571 2.36247 0.420861 2.84137 0.238317C3.32028 0.0557739 3.83237 -0.0234799 4.34405 0.00575262H12.9799C13.4915 -0.0234799 14.0036 0.0557739 14.4825 0.238317C14.9614 0.420861 15.3964 0.702571 15.7588 1.06498C16.1212 1.42738 16.4029 1.8623 16.5854 2.34121C16.768 2.82012 16.8472 3.3322 16.818 3.84389V12.4797C16.8472 12.9914 16.768 13.5035 16.5854 13.9824C16.4029 14.4613 16.1212 14.8962 15.7588 15.2586C15.3964 15.621 14.9614 15.9027 14.4825 16.0853C14.0036 16.2678 13.4915 16.347 12.9799 16.3178ZM4.34405 2.88435C4.21318 2.86276 4.07904 2.87267 3.95276 2.91326C3.82648 2.95384 3.71169 3.02393 3.61789 3.11773C3.5241 3.21152 3.45401 3.32631 3.41342 3.45259C3.37284 3.57888 3.36293 3.71301 3.38452 3.84389V12.4797C3.36293 12.6106 3.37284 12.7447 3.41342 12.871C3.45401 12.9973 3.5241 13.112 3.61789 13.2058C3.71169 13.2996 3.82648 13.3697 3.95276 13.4103C4.07904 13.4509 4.21318 13.4608 4.34405 13.4392H12.9799C13.1107 13.4608 13.2449 13.4509 13.3711 13.4103C13.4974 13.3697 13.6122 13.2996 13.706 13.2058C13.7998 13.112 13.8699 12.9973 13.9105 12.871C13.9511 12.7447 13.961 12.6106 13.9394 12.4797V3.84389C13.961 3.71301 13.9511 3.57888 13.9105 3.45259C13.8699 3.32631 13.7998 3.21152 13.706 3.11773C13.6122 3.02393 13.4974 2.95384 13.3711 2.91326C13.2449 2.87267 13.1107 2.86276 12.9799 2.88435H4.34405ZM20.6561 23.9941H12.0203C11.5086 24.0233 10.9965 23.9441 10.5176 23.7615C10.0387 23.579 9.60382 23.2973 9.24141 22.9349C8.879 22.5725 8.59729 22.1375 8.41475 21.6586C8.23221 21.1797 8.15295 20.6676 8.18219 20.1559V19.3883C8.18219 17.7955 11.0608 17.594 11.0608 19.1964V20.1559C11.0392 20.2868 11.0491 20.421 11.0897 20.5472C11.1303 20.6735 11.2004 20.7883 11.2942 20.8821C11.388 20.9759 11.5027 21.046 11.629 21.0866C11.7553 21.1272 11.8894 21.1371 12.0203 21.1155H20.6561C20.787 21.1371 20.9211 21.1272 21.0474 21.0866C21.1737 21.046 21.2885 20.9759 21.3823 20.8821C21.4761 20.7883 21.5462 20.6735 21.5867 20.5472C21.6273 20.421 21.6372 20.2868 21.6156 20.1559V11.5202C21.6372 11.3893 21.6273 11.2551 21.5867 11.1289C21.5462 11.0026 21.4761 10.8878 21.3823 10.794C21.2885 10.7002 21.1737 10.6301 21.0474 10.5895C20.9211 10.5489 20.787 10.539 20.6561 10.5606H19.6966C18.0942 10.5606 18.2957 7.68202 19.8885 7.68202H20.6561C21.1678 7.65278 21.6799 7.73204 22.1588 7.91458C22.6377 8.09713 23.0726 8.37884 23.435 8.74124C23.7974 9.10365 24.0791 9.53856 24.2617 10.0175C24.4442 10.4964 24.5235 11.0085 24.4942 11.5202V20.1559C24.5235 20.6676 24.4442 21.1797 24.2617 21.6586C24.0791 22.1375 23.7974 22.5725 23.435 22.9349C23.0726 23.2973 22.6377 23.579 22.1588 23.7615C21.6799 23.9441 21.1678 24.0233 20.6561 23.9941Z" fill="#6D75F4"/>
</g>
<defs>
<clipPath id="clip0_5122_1393">
<rect width="24" height="24" fill="white" transform="translate(0.5)"/>
</clipPath>
</defs>
</svg>
