<svg width="20" height="13" viewBox="0 0 20 13" fill="none" xmlns="http://www.w3.org/2000/svg">
<g clip-path="url(#clip0_8562_215231)">
<path fill-rule="evenodd" clip-rule="evenodd" d="M1.25 1.25V4.75H4.75V1.25H1.25ZM1 0C0.447715 0 0 0.447715 0 1V5C0 5.55228 0.447715 6 1 6H5C5.55228 6 6 5.55228 6 5V1C6 0.447715 5.55228 0 5 0H1Z" fill="#6D75F4"/>
<path fill-rule="evenodd" clip-rule="evenodd" d="M8.25 1.25V4.75H11.75V1.25H8.25ZM8 0C7.44772 0 7 0.447715 7 1V5C7 5.55228 7.44772 6 8 6H12C12.5523 6 13 5.55228 13 5V1C13 0.447715 12.5523 0 12 0H8Z" fill="#6D75F4"/>
<path fill-rule="evenodd" clip-rule="evenodd" d="M1.25 8.25V11.75H4.75V8.25H1.25ZM1 7C0.447715 7 0 7.44772 0 8V12C0 12.5523 0.447715 13 1 13H5C5.55228 13 6 12.5523 6 12V8C6 7.44772 5.55228 7 5 7H1Z" fill="#6D75F4"/>
<path fill-rule="evenodd" clip-rule="evenodd" d="M8.25 8.25V11.75H11.75V8.25H8.25ZM8 7C7.44772 7 7 7.44772 7 8V12C7 12.5523 7.44772 13 8 13H12C12.5523 13 13 12.5523 13 12V8C13 7.44772 12.5523 7 12 7H8Z" fill="#6D75F4"/>
<path fill-rule="evenodd" clip-rule="evenodd" d="M15.25 8.25V11.75H18.75V8.25H15.25ZM15 7C14.4477 7 14 7.44772 14 8V12C14 12.5523 14.4477 13 15 13H19C19.5523 13 20 12.5523 20 12V8C20 7.44772 19.5523 7 19 7H15Z" fill="#6D75F4"/>
<path fill-rule="evenodd" clip-rule="evenodd" d="M15.25 1.25V4.75H18.75V1.25H15.25ZM15 0C14.4477 0 14 0.447715 14 1V5C14 5.55228 14.4477 6 15 6H19C19.5523 6 20 5.55228 20 5V1C20 0.447715 19.5523 0 19 0H15Z" fill="#6D75F4"/>
</g>
<defs>
<clipPath id="clip0_8562_215231">
<rect width="20" height="13" fill="white"/>
</clipPath>
</defs>
</svg>
