<svg width="18" height="18" viewBox="0 0 18 18" fill="none" xmlns="http://www.w3.org/2000/svg">
<path fill-rule="evenodd" clip-rule="evenodd" d="M16.1359 1.60512C16.0862 1.54784 16.0327 1.49399 15.9757 1.44396C15.8428 1.32709 15.6957 1.23497 15.5405 1.1676C15.3422 1.08136 15.1239 1.03256 14.8944 1.03013C14.8875 1.03005 14.8806 1.03002 14.8737 1.03003L3.20904 1.03003C2.28857 1.03003 1.54237 1.77622 1.54237 2.6967C1.54237 3.61717 2.28857 4.36336 3.20904 4.36336L10.8526 4.36336L1.38228 13.8337C0.731409 14.4846 0.731408 15.5399 1.38228 16.1907C2.03316 16.8416 3.08843 16.8416 3.73931 16.1907L13.2097 6.72033L13.2097 14.364C13.2097 15.2845 13.9559 16.0307 14.8764 16.0307C15.7969 16.0307 16.543 15.2845 16.543 14.364V2.6967C16.543 2.44651 16.4879 2.20919 16.3891 1.99624C16.3249 1.85737 16.2404 1.72553 16.1359 1.60512Z" fill="#B9BDFF"/>
</svg>
