<svg width="25" height="24" viewBox="0 0 25 24" fill="none" xmlns="http://www.w3.org/2000/svg">
<g clip-path="url(#clip0_24591_122878)">
<path fill-rule="evenodd" clip-rule="evenodd" d="M5.5 7.40285H22.5C22.6443 7.40285 22.7756 7.45915 22.8667 7.54803C22.9565 7.63569 23 7.74662 23 7.85428V19.5628C23 19.6705 22.9565 19.7814 22.8667 19.8691C22.7756 19.958 22.6443 20.0143 22.5 20.0143H11.2171C10.9012 20.5695 10.5054 21.075 10.0463 21.5143H22.5C23.0304 21.5143 23.5391 21.3087 23.9142 20.9427C24.2893 20.5767 24.5 20.0804 24.5 19.5628V7.85428C24.5 7.33673 24.2893 6.84038 23.9142 6.47441C23.5391 6.10845 23.0304 5.90285 22.5 5.90285H5.5C5.23478 5.90285 4.98043 5.80006 4.79289 5.61707C4.60536 5.43409 4.5 5.18592 4.5 4.92714C4.5 4.66837 4.60536 4.42019 4.79289 4.23721C4.98043 4.05423 5.23478 3.95143 5.5 3.95143H19.5C19.7652 3.95143 20.0196 3.84863 20.2071 3.66565C20.3946 3.48267 20.5 3.23449 20.5 2.97571C20.5 2.71694 20.3946 2.46876 20.2071 2.28578C20.0196 2.1028 19.7652 2 19.5 2H5.5C4.70536 2.00321 3.94421 2.31264 3.38232 2.86089C2.82042 3.40914 2.50329 4.1518 2.5 4.92714V11.2572C2.96789 10.9945 3.4711 10.7886 4 10.6494V6.9078C4.43304 7.22944 4.95982 7.40285 5.5 7.40285Z" fill="#6D75F4"/>
<path d="M19 15.6665C18.6031 15.6665 18.2151 15.5517 17.8851 15.3366C17.5551 15.1214 17.2979 14.8156 17.146 14.4578C16.9942 14.1001 16.9544 13.7064 17.0318 13.3266C17.1093 12.9468 17.3004 12.5979 17.581 12.3241C17.8617 12.0502 18.2192 11.8638 18.6085 11.7882C18.9978 11.7127 19.4013 11.7514 19.7679 11.8996C20.1346 12.0478 20.448 12.2988 20.6685 12.6208C20.889 12.9428 21.0067 13.3213 21.0067 13.7086C21.0067 14.2278 20.7953 14.7259 20.419 15.0931C20.0426 15.4602 19.5322 15.6665 19 15.6665Z" fill="#6D75F4"/>
<path fill-rule="evenodd" clip-rule="evenodd" d="M5.62 21.9906C8.4477 21.9906 10.74 19.6983 10.74 16.8706C10.74 14.0429 8.4477 11.7506 5.62 11.7506C2.7923 11.7506 0.5 14.0429 0.5 16.8706C0.5 19.6983 2.7923 21.9906 5.62 21.9906ZM6.25652 17.0496C6.24929 17.4952 6.01788 17.7333 5.62014 17.7333C5.21517 17.7333 4.98375 17.4875 4.96929 17.0496L4.86805 14.2332C4.85359 13.7799 5.16455 13.4572 5.61291 13.4572C6.06127 13.4572 6.37946 13.7876 6.365 14.2409L6.25652 17.0496ZM6.47347 19.4312C6.47347 19.9228 6.0902 20.2839 5.62014 20.2839C5.15731 20.2839 4.76681 19.9152 4.76681 19.4312C4.76681 18.9472 5.15008 18.5861 5.62014 18.5861C6.09743 18.5861 6.47347 18.9472 6.47347 19.4312Z" fill="#6D75F4"/>
</g>
<defs>
<clipPath id="clip0_24591_122878">
<rect width="24" height="24" fill="white" transform="translate(0.5)"/>
</clipPath>
</defs>
</svg>
