<svg width="24" height="24" viewBox="0 0 24 24" fill="none" xmlns="http://www.w3.org/2000/svg">
<path d="M11.6705 23C13.1575 23 14.5303 22.7393 15.7892 22.2178C17.048 21.6963 18.1379 20.9956 19.0588 20.1156C19.9797 19.2355 20.6598 18.2659 21.0991 17.2067C21.268 16.8156 21.2596 16.4896 21.0737 16.2289C20.8879 15.9681 20.5668 15.903 20.1106 16.0333C19.722 16.1637 19.2404 16.2819 18.6659 16.3878C18.0914 16.4937 17.5 16.5467 16.8917 16.5467C15.0499 16.5467 13.4532 16.2004 12.1014 15.5078C10.7496 14.8152 9.71045 13.8252 8.98387 12.5378C8.25729 11.2504 7.89401 9.71853 7.89401 7.94222C7.89401 7.43704 7.9616 6.83 8.09677 6.12111C8.23195 5.41222 8.37558 4.85408 8.52765 4.44667C8.69662 4.07185 8.66283 3.77445 8.42627 3.55444C8.18971 3.33444 7.83487 3.31407 7.36175 3.49333C6.09446 3.98223 4.98349 4.71555 4.0288 5.69333C3.07411 6.67112 2.33065 7.79148 1.79839 9.05445C1.26613 10.3174 1 11.6415 1 13.0267C1 14.9822 1.46889 16.7096 2.40668 18.2089C3.34447 19.7082 4.62019 20.8815 6.23387 21.7289C7.84755 22.5763 9.65974 23 11.6705 23ZM17.7281 11.1444C18.0323 11.1444 18.2012 10.9815 18.235 10.6556C18.3702 9.51481 18.5392 8.68371 18.7419 8.16222C18.9447 7.64074 19.3207 7.2863 19.8698 7.09889C20.419 6.91148 21.2934 6.72815 22.4931 6.54889C22.831 6.53259 23 6.36963 23 6.06C23 5.76666 22.8479 5.61185 22.5438 5.59556C21.3272 5.36741 20.4401 5.15963 19.8825 4.97222C19.3249 4.78481 18.9489 4.44259 18.7546 3.94555C18.5603 3.44852 18.3871 2.62963 18.235 1.48889C18.2012 1.16296 18.0323 1 17.7281 1C17.4409 1 17.2803 1.16296 17.2465 1.48889C17.0945 2.64593 16.9213 3.48518 16.727 4.00667C16.5326 4.52815 16.1609 4.88259 15.6117 5.07C15.0626 5.25741 14.1713 5.43259 12.9378 5.59556C12.6336 5.61185 12.4816 5.76666 12.4816 6.06C12.4816 6.36963 12.6336 6.53259 12.9378 6.54889C14.1713 6.77704 15.0626 6.98889 15.6117 7.18444C16.1609 7.38 16.5326 7.72629 16.727 8.22333C16.9213 8.72037 17.0945 9.53111 17.2465 10.6556C17.2803 10.9815 17.4409 11.1444 17.7281 11.1444Z" fill="#6D75F4"/>
</svg>
