<svg width="22" height="14" viewBox="0 0 22 14" fill="none" xmlns="http://www.w3.org/2000/svg">
<g clip-path="url(#clip0_7702_142533)">
<path d="M10.229 14H20.1701C20.8555 14 21.3318 13.9094 21.5991 13.7281C21.8664 13.5468 22 13.2848 22 12.9421C22 12.4411 21.8424 11.9138 21.5271 11.3602C21.2118 10.8065 20.7595 10.2874 20.1701 9.80297C19.5807 9.3185 18.8662 8.92467 18.0266 8.62147C17.1871 8.31827 16.243 8.16667 15.1944 8.16667C14.1458 8.16667 13.2034 8.31827 12.3673 8.62147C11.5311 8.92467 10.8184 9.3185 10.229 9.80297C9.63956 10.2874 9.18723 10.8065 8.87196 11.3602C8.5567 11.9138 8.39907 12.4411 8.39907 12.9421C8.39907 13.2848 8.531 13.5468 8.79486 13.7281C9.05873 13.9094 9.53676 14 10.229 14ZM15.1944 6.78249C15.7701 6.78249 16.3047 6.63089 16.7981 6.32768C17.2916 6.02448 17.6891 5.61253 17.9907 5.09181C18.2922 4.57109 18.443 3.98776 18.443 3.34181C18.443 2.69585 18.2922 2.12076 17.9907 1.61653C17.6891 1.11229 17.2916 0.71681 16.7981 0.430084C16.3047 0.14336 15.7701 0 15.1944 0C14.6255 0 14.0944 0.146656 13.6009 0.439972C13.1075 0.733287 12.71 1.13371 12.4084 1.64124C12.1069 2.14878 11.9561 2.72222 11.9561 3.36158C11.9561 4.00095 12.1069 4.57933 12.4084 5.09675C12.71 5.61417 13.1075 6.02448 13.6009 6.32768C14.0944 6.63089 14.6255 6.78249 15.1944 6.78249ZM1.50093 14H7.39159C7.18598 13.6704 7.09346 13.2898 7.11402 12.8581C7.13458 12.4263 7.24595 11.9798 7.44813 11.5184C7.65031 11.057 7.92103 10.6137 8.26028 10.1886C8.59953 9.76342 8.98162 9.39595 9.40654 9.08616C8.96106 8.81591 8.45047 8.59181 7.87477 8.41384C7.29906 8.23588 6.64798 8.14689 5.9215 8.14689C5.00996 8.14689 4.18926 8.2919 3.45935 8.58192C2.72944 8.87194 2.10748 9.25094 1.59346 9.71893C1.07944 10.1869 0.68536 10.6977 0.411215 11.2514C0.13707 11.8051 0 12.3489 0 12.8828C0 13.2321 0.113083 13.5056 0.339252 13.7034C0.565422 13.9011 0.952645 14 1.50093 14ZM5.9215 6.96045C6.42181 6.96045 6.88614 6.82863 7.31449 6.56497C7.74284 6.30132 8.08894 5.94209 8.3528 5.48729C8.61667 5.03248 8.7486 4.52496 8.7486 3.96469C8.7486 3.39783 8.61667 2.89689 8.3528 2.46186C8.08894 2.02683 7.74284 1.68409 7.31449 1.43362C6.88614 1.18314 6.42181 1.05791 5.9215 1.05791C5.42803 1.05791 4.96542 1.18479 4.53365 1.43856C4.10187 1.69233 3.75405 2.04002 3.49019 2.48164C3.22632 2.92326 3.09439 3.4242 3.09439 3.98446C3.09439 4.53814 3.22632 5.04072 3.49019 5.49223C3.75405 5.94374 4.10187 6.30132 4.53365 6.56497C4.96542 6.82863 5.42803 6.96045 5.9215 6.96045Z" fill="#6D75F4"/>
</g>
<defs>
<clipPath id="clip0_7702_142533">
<rect width="22" height="14" fill="white"/>
</clipPath>
</defs>
</svg>
