<svg width="24" height="16" viewBox="0 0 24 16" fill="none" xmlns="http://www.w3.org/2000/svg">
<g clip-path="url(#clip0_7702_140817)">
<path d="M12.0114 16C13.7808 16 15.3975 15.682 16.8618 15.0459C18.326 14.4098 19.592 13.6351 20.6597 12.7217C21.7274 11.8084 22.551 10.9113 23.1306 10.0306C23.7102 9.14984 24 8.47299 24 8C24 7.52701 23.7102 6.85016 23.1306 5.96942C22.551 5.08868 21.7274 4.19165 20.6597 3.27829C19.592 2.36493 18.326 1.59022 16.8618 0.954128C15.3975 0.31804 13.7808 0 12.0114 0C10.2574 0 8.64443 0.31804 7.17255 0.954128C5.70066 1.59022 4.43089 2.36493 3.3632 3.27829C2.29551 4.19165 1.46807 5.08868 0.880838 5.96942C0.29361 6.85016 0 7.52701 0 8C0 8.47299 0.29361 9.14984 0.880838 10.0306C1.46807 10.9113 2.29933 11.8084 3.37464 12.7217C4.44996 13.6351 5.71973 14.4098 7.18398 15.0459C8.64824 15.682 10.2574 16 12.0114 16ZM12.0114 13.2355C11.0963 13.2355 10.2688 12.9949 9.52907 12.5138C8.78932 12.0326 8.19829 11.3965 7.75596 10.6055C7.31363 9.81447 7.09247 8.94598 7.09247 8C7.09247 7.0214 7.31363 6.1366 7.75596 5.34556C8.19829 4.55453 8.78932 3.92661 9.52907 3.46178C10.2688 2.99694 11.0963 2.76453 12.0114 2.76453C12.9113 2.76453 13.7312 2.99694 14.4709 3.46178C15.2107 3.92661 15.8017 4.55453 16.244 5.34556C16.6864 6.1366 16.9075 7.0214 16.9075 8C16.9075 8.94598 16.6864 9.81447 16.244 10.6055C15.8017 11.3965 15.2107 12.0326 14.4709 12.5138C13.7312 12.9949 12.9113 13.2355 12.0114 13.2355ZM12.0343 10.3976C12.6292 10.3976 13.1478 10.157 13.5901 9.67584C14.0324 9.1947 14.2536 8.63609 14.2536 8C14.2536 7.36391 14.0324 6.8053 13.5901 6.32416C13.1478 5.84301 12.6292 5.60245 12.0343 5.60245C11.4242 5.60245 10.8942 5.84301 10.4442 6.32416C9.99428 6.8053 9.7693 7.36391 9.7693 8C9.7693 8.63609 9.99428 9.1947 10.4442 9.67584C10.8942 10.157 11.4242 10.3976 12.0343 10.3976Z" fill="#6D75F4"/>
</g>
<defs>
<clipPath id="clip0_7702_140817">
<rect width="24" height="16" fill="white"/>
</clipPath>
</defs>
</svg>
