<svg width="24" height="24" viewBox="0 0 24 24" fill="none" xmlns="http://www.w3.org/2000/svg">
<path d="M5.62473 24H18.3753C19.5883 24 20.4956 23.7057 21.0974 23.1172C21.6991 22.5286 22 21.6457 22 20.4686V9.69226C22 8.51513 21.6991 7.63229 21.0974 7.04372C20.4956 6.45515 19.5883 6.16087 18.3753 6.16087H15.3191V8.19282H18.3468C18.8586 8.19282 19.2542 8.32595 19.5338 8.59221C19.8133 8.85846 19.9531 9.25784 19.9531 9.79036V20.3705C19.9531 20.903 19.8133 21.3024 19.5338 21.5687C19.2542 21.8349 18.8586 21.968 18.3468 21.968H5.65316C5.14143 21.968 4.7458 21.8349 4.46624 21.5687C4.18668 21.3024 4.04691 20.903 4.04691 20.3705V9.79036C4.04691 9.25784 4.18668 8.85846 4.46624 8.59221C4.7458 8.32595 5.14143 8.19282 5.65316 8.19282H8.68088V6.16087H5.62473C4.42122 6.16087 3.51623 6.45515 2.90974 7.04372C2.30324 7.63229 2 8.51513 2 9.69226V20.4686C2 21.6457 2.30324 22.5286 2.90974 23.1172C3.51623 23.7057 4.42122 24 5.62473 24ZM11.9929 15.3117C12.2677 15.3117 12.507 15.2159 12.7107 15.0244C12.9145 14.8329 13.0163 14.6016 13.0163 14.3307V4.40022L12.9311 2.71861L13.5281 3.36323L15.0917 5.03083C15.2623 5.22702 15.4897 5.32511 15.774 5.32511C16.0393 5.32511 16.262 5.24337 16.4421 5.07988C16.6221 4.91639 16.7122 4.70852 16.7122 4.45628C16.7122 4.21338 16.6079 3.99383 16.3994 3.79765L12.7321 0.336323C12.6089 0.20553 12.488 0.116779 12.3696 0.0700673C12.2511 0.0233552 12.1256 0 11.9929 0C11.8697 0 11.7489 0.0233552 11.6304 0.0700673C11.512 0.116779 11.3864 0.20553 11.2537 0.336323L7.58635 3.79765C7.38735 3.99383 7.28785 4.21338 7.28785 4.45628C7.28785 4.70852 7.37313 4.91639 7.54371 5.07988C7.71429 5.24337 7.93698 5.32511 8.2118 5.32511C8.49609 5.32511 8.72826 5.22702 8.90832 5.03083L10.4719 3.36323L11.0689 2.71861L10.9837 4.40022V14.3307C10.9837 14.6016 11.0855 14.8329 11.2893 15.0244C11.493 15.2159 11.7276 15.3117 11.9929 15.3117Z" fill="#6D75F4"/>
</svg>
