<svg width="31" height="31" viewBox="0 0 31 31" fill="none" xmlns="http://www.w3.org/2000/svg">
<g clip-path="url(#clip0_6248_36334)">
<circle cx="15.5969" cy="15.2308" r="15" fill="#0D61FF"/>
<path d="M22.037 19.5727C21.9567 18.1512 21.1857 16.8822 19.74 15.806C19.2822 15.4687 18.5434 14.9868 17.5314 14.5692L21.5792 10.5053V9.93511C21.5792 9.71023 21.3865 9.51748 21.1616 9.51748H13.6282V6.11218L10.1827 6.83501V7.77467H10.6244C10.7529 7.77467 11.0501 7.82286 11.0501 8.20034V9.50142H9.09847C8.90572 9.50142 8.73706 9.67008 8.73706 9.86283V11.1478H11.0581V16.32C11.0581 17.2677 11.3794 18.0869 11.9657 18.625C12.56 19.1712 13.4033 19.4201 14.3831 19.3398C14.8007 19.3077 15.2184 19.1551 15.628 18.8901C15.8528 18.7375 15.9894 18.4965 15.9894 18.2315V17.1714L15.5557 17.4605C15.0256 17.8139 14.5678 17.8058 14.5678 17.8058H14.5518C14.3189 17.8058 14.1341 17.7336 13.9896 17.589C13.6362 17.2276 13.6362 16.5449 13.6362 16.5369V11.1478H18.3024L14.6481 14.8262V14.9386C14.6401 15.3563 14.6321 15.7016 14.6321 15.8382C14.6321 15.8783 14.6321 15.9024 14.6321 15.9104C14.6321 16.0711 14.7445 16.1996 14.9051 16.2156C18.5996 16.8421 19.3706 19.2194 19.3706 19.6611V19.6932C19.3706 19.7093 19.5232 21.1067 18.72 22.0785C18.2542 22.6327 17.5555 22.9539 16.6479 23.0102C16.6399 23.0102 16.1018 23.0343 15.5316 22.9459C15.0015 22.8656 14.616 22.7291 14.4152 22.5443C14.7686 22.2954 14.9694 21.9179 14.9694 21.4762C14.9694 20.5767 14.367 19.9984 13.4434 19.9984C12.6082 19.9984 11.9255 20.657 11.9175 21.4601C11.9094 21.6047 11.8693 22.4881 12.5841 23.2752C13.339 24.1105 14.6401 24.5281 16.4472 24.5281C16.5114 24.5281 16.5837 24.5281 16.6479 24.5281C18.4952 24.496 19.9087 23.9579 20.8484 22.9299C22.1494 21.5163 22.045 19.6852 22.037 19.5727Z" fill="#F5F5F5"/>
</g>
<defs>
<clipPath id="clip0_6248_36334">
<rect width="30.0025" height="30.0025" fill="white" transform="translate(0.595581 0.229614)"/>
</clipPath>
</defs>
</svg>
