<svg width="36" height="36" viewBox="0 0 36 36" fill="none" xmlns="http://www.w3.org/2000/svg">
<path fill-rule="evenodd" clip-rule="evenodd" d="M18 34.4571C27.089 34.4571 34.4571 27.089 34.4571 18C34.4571 8.91097 27.089 1.54286 18 1.54286C8.91097 1.54286 1.54286 8.91097 1.54286 18C1.54286 27.089 8.91097 34.4571 18 34.4571ZM18 36C27.9411 36 36 27.9411 36 18C36 8.05888 27.9411 0 18 0C8.05888 0 0 8.05888 0 18C0 27.9411 8.05888 36 18 36Z" fill="#6D75F4"/>
<path fill-rule="evenodd" clip-rule="evenodd" d="M25.6577 8C26.0022 8 26.3225 8.17739 26.5053 8.46947L28.8477 12.212C29.0406 12.5203 29.051 12.909 28.8748 13.2271C28.6986 13.5452 28.3636 13.7426 28 13.7426H26.6577V21.4752C26.6577 22.8592 26.1768 24.2086 25.2881 25.222C24.3957 26.2397 23.1551 26.8416 21.8288 26.8416C20.5026 26.8416 19.2619 26.2397 18.3696 25.222C17.4809 24.2086 17 22.8592 17 21.4752V14.5248C17 13.5926 16.6741 12.7209 16.1267 12.0966C15.583 11.4765 14.8759 11.1584 14.1712 11.1584C13.4665 11.1584 12.7594 11.4765 12.2157 12.0966C11.6682 12.7209 11.3423 13.5926 11.3423 14.5248V22.2574H12.6847C13.0483 22.2574 13.3833 22.4548 13.5595 22.7729C13.7357 23.091 13.7253 23.4797 13.5324 23.788L11.19 27.5305C11.0072 27.8226 10.6869 28 10.3423 28C9.99777 28 9.67748 27.8226 9.49467 27.5305L7.15233 23.788C6.95941 23.4797 6.94903 23.091 7.12521 22.7729C7.30139 22.4548 7.63636 22.2574 8 22.2574H9.34234V14.5248C9.34234 13.1408 9.82324 11.7914 10.7119 10.778C11.6043 9.76035 12.8449 9.15842 14.1712 9.15842C15.4974 9.15842 16.7381 9.76035 17.6304 10.778C18.5191 11.7914 19 13.1408 19 14.5248V21.4752C19 22.4074 19.3259 23.2791 19.8733 23.9034C20.417 24.5235 21.1241 24.8416 21.8288 24.8416C22.5335 24.8416 23.2406 24.5235 23.7843 23.9034C24.3318 23.2791 24.6577 22.4074 24.6577 21.4752V13.7426H23.3153C22.9517 13.7426 22.6167 13.5452 22.4405 13.2271C22.2643 12.909 22.2747 12.5203 22.4676 12.212L24.81 8.46947C24.9928 8.17739 25.3131 8 25.6577 8Z" fill="#6D75F4"/>
</svg>
