<svg width="21" height="6" viewBox="0 0 21 6" fill="none" xmlns="http://www.w3.org/2000/svg">
<path d="M5.38109 2.85043C5.38109 4.25102 4.24568 5.38643 2.84509 5.38643C1.44449 5.38643 0.309082 4.25102 0.309082 2.85043C0.309082 1.44983 1.44449 0.314423 2.84509 0.314423C4.24568 0.314423 5.38109 1.44983 5.38109 2.85043Z" fill="#6D75F4"/>
<path d="M12.989 2.85043C12.989 4.25102 11.8536 5.38643 10.453 5.38643C9.05243 5.38643 7.91702 4.25102 7.91702 2.85043C7.91702 1.44983 9.05243 0.314423 10.453 0.314423C11.8536 0.314423 12.989 1.44983 12.989 2.85043Z" fill="#6D75F4"/>
<path d="M20.5971 2.85043C20.5971 4.25102 19.4617 5.38643 18.0611 5.38643C16.6605 5.38643 15.5251 4.25102 15.5251 2.85043C15.5251 1.44983 16.6605 0.314423 18.0611 0.314423C19.4617 0.314423 20.5971 1.44983 20.5971 2.85043Z" fill="#6D75F4"/>
</svg>
