<svg width="33" height="33" viewBox="0 0 33 33" fill="none" xmlns="http://www.w3.org/2000/svg">
<path fill-rule="evenodd" clip-rule="evenodd" d="M17.909 5.5C17.909 4.70923 18.5501 4.06818 19.3409 4.06818H26.4999C27.2907 4.06818 27.9318 4.70923 27.9318 5.5V12.6591C27.9318 13.4499 27.2907 14.0909 26.4999 14.0909C25.7092 14.0909 25.0681 13.4499 25.0681 12.6591V8.95671L16.5881 17.4367C16.029 17.9959 15.1224 17.9959 14.5632 17.4367C14.0041 16.8775 14.0041 15.971 14.5632 15.4118L23.0432 6.93182H19.3409C18.5501 6.93182 17.909 6.29077 17.909 5.5ZM6.93175 7.24999H14.0908C14.8816 7.24999 15.5227 6.60895 15.5227 5.81817C15.5227 5.0274 14.8816 4.38636 14.0908 4.38636H6.45448C5.82157 4.38636 5.21459 4.63778 4.76707 5.08531C4.31954 5.53284 4.06812 6.13982 4.06812 6.77272V25.5454C4.06812 26.1784 4.31954 26.7853 4.76707 27.2329C5.2146 27.6804 5.82158 27.9318 6.45448 27.9318H25.2272C25.8601 27.9318 26.4671 27.6804 26.9146 27.2329C27.3621 26.7853 27.6136 26.1784 27.6136 25.5454V17.9091C27.6136 17.1183 26.9725 16.4773 26.1817 16.4773C25.391 16.4773 24.7499 17.1183 24.7499 17.9091V25.0682H6.93175V7.24999Z" fill="#6D75F4"/>
</svg>
