<svg width="22" height="22" viewBox="0 0 22 22" fill="none" xmlns="http://www.w3.org/2000/svg">
<g clip-path="url(#clip0_8691_216319)">
<path d="M0 8.39929V9.44921C0 9.74644 0.123371 10.0005 0.370117 10.2115C0.616863 10.4224 0.914075 10.5279 1.26176 10.5279C1.62066 10.5279 1.92629 10.4224 2.17864 10.2115C2.431 10.0005 2.55717 9.74644 2.55717 9.44921V8.49997C2.55717 7.5795 2.89644 6.84121 3.57499 6.28509C4.25354 5.72897 5.15359 5.45091 6.27516 5.45091H15.8215V7.824C15.8215 8.10206 15.9168 8.32019 16.1075 8.4784C16.2982 8.6366 16.5449 8.71571 16.8477 8.71571C17.1169 8.71571 17.3917 8.62941 17.6721 8.45682L21.5341 5.07697C21.8145 4.88521 21.9547 4.6503 21.9547 4.37223C21.9547 4.09417 21.8145 3.85447 21.5341 3.65312L17.6721 0.258883C17.3917 0.0862934 17.1169 0 16.8477 0C16.5449 0 16.2982 0.079102 16.1075 0.237309C15.9168 0.395515 15.8215 0.613646 15.8215 0.891706V3.30794H6.4434C4.49186 3.30794 2.9301 3.77057 1.75805 4.69584C0.586012 5.62111 0 6.85558 0 8.39929ZM22 13.5863V12.5364C22 12.2296 21.8794 11.9731 21.6383 11.767C21.3972 11.5608 21.0971 11.4577 20.7382 11.4577C20.3681 11.4577 20.0597 11.5608 19.8129 11.767C19.5662 11.9731 19.4428 12.2296 19.4428 12.5364V13.4856C19.4428 14.4061 19.1036 15.1444 18.425 15.7005C17.7465 16.2566 16.8464 16.5347 15.7248 16.5347H6.17851V14.176C6.17851 13.8979 6.08318 13.6798 5.89251 13.5216C5.70184 13.3634 5.4551 13.2843 5.15228 13.2843C4.8831 13.2843 4.60832 13.3706 4.32793 13.5432L0.465937 16.923C0.185545 17.1148 0.0425464 17.3521 0.036939 17.635C0.0313304 17.9178 0.174329 18.1551 0.465937 18.3469L4.32793 21.7411C4.60832 21.9137 4.8831 22 5.15228 22C5.4551 22 5.70184 21.9209 5.89251 21.7627C6.08318 21.6045 6.17851 21.3864 6.17851 21.1083V18.6777H15.5566C17.5081 18.6777 19.0699 18.2127 20.2419 17.2826C21.414 16.3525 22 15.1204 22 13.5863Z" fill="#6D75F4"/>
</g>
<defs>
<clipPath id="clip0_8691_216319">
<rect width="22" height="22" fill="white"/>
</clipPath>
</defs>
</svg>
