<svg width="20" height="18" viewBox="0 0 20 18" fill="none" xmlns="http://www.w3.org/2000/svg">
<path fill-rule="evenodd" clip-rule="evenodd" d="M0.206233 15.6522L8.67236 0.782846C8.80622 0.545002 8.9995 0.347341 9.23264 0.20987C9.46578 0.0723998 9.7305 0 10 0C10.2695 0 10.5342 0.0723998 10.7674 0.20987C11.0005 0.347341 11.1938 0.545002 11.3276 0.782846L19.7938 15.6522C19.9286 15.8897 19.9998 16.1591 20 16.4334C20.0002 16.7077 19.9296 16.9772 19.7951 17.215C19.6607 17.4528 19.4671 17.6505 19.2339 17.7882C19.0006 17.926 18.7359 17.999 18.4661 18H1.53387C1.26413 17.999 0.999376 17.926 0.766128 17.7882C0.53288 17.6505 0.339331 17.4528 0.204871 17.215C0.0704116 16.9772 -0.000237631 16.7077 6.00503e-07 16.4334C0.000240263 16.1591 0.0713591 15.8897 0.206233 15.6522ZM11.1546 7.04362C11.1546 6.3953 10.6378 5.86972 10.0002 5.86972C9.36256 5.86972 8.84569 6.3953 8.84569 7.04362V10.174C8.84569 10.8223 9.36256 11.3479 10.0002 11.3479C10.6378 11.3479 11.1546 10.8223 11.1546 10.174V7.04362ZM11.5395 14.087C11.5395 14.9514 10.8503 15.6522 10.0002 15.6522C9.15003 15.6522 8.46086 14.9514 8.46086 14.087C8.46086 13.2226 9.15003 12.5218 10.0002 12.5218C10.8503 12.5218 11.5395 13.2226 11.5395 14.087Z" fill="#959595"/>
</svg>
