<svg width="25" height="25" viewBox="0 0 25 25" fill="none" xmlns="http://www.w3.org/2000/svg">
<path fill-rule="evenodd" clip-rule="evenodd" d="M18.9746 1.28391C19.4088 0.84978 20.1126 0.84978 20.5468 1.28391L23.9599 4.69703C24.394 5.13117 24.394 5.83503 23.9599 6.26917L13.7205 16.5085C13.512 16.717 13.2293 16.8341 12.9345 16.8341H9.52133C8.90737 16.8341 8.40966 16.3364 8.40966 15.7225V12.3093C8.40966 12.0145 8.52679 11.7317 8.73526 11.5233L18.9746 1.28391ZM10.633 12.7698V14.6108H12.474L21.6017 5.4831L19.7607 3.64212L10.633 12.7698Z" fill="#6D75F4"/>
<path fill-rule="evenodd" clip-rule="evenodd" d="M15.9882 4.27042C16.4223 3.83629 17.1262 3.83629 17.5603 4.27042L20.9734 7.68354C21.4076 8.11768 21.4076 8.82155 20.9734 9.25568C20.5393 9.68981 19.8354 9.68981 19.4013 9.25568L15.9882 5.84256C15.5541 5.40843 15.5541 4.70456 15.9882 4.27042Z" fill="#6D75F4"/>
<path fill-rule="evenodd" clip-rule="evenodd" d="M3.79846 5.17331H11.8705C12.5609 5.17331 13.1205 4.61367 13.1205 3.92331C13.1205 3.23296 12.5609 2.67331 11.8705 2.67331H3.40174C2.84392 2.67331 2.30894 2.89491 1.9145 3.28935C1.52006 3.68379 1.29846 4.21877 1.29846 4.77659V21.8422C1.29846 22.4 1.52006 22.935 1.9145 23.3294C2.30894 23.7239 2.84392 23.9455 3.40174 23.9455H20.4673C21.0252 23.9455 21.5601 23.7239 21.9546 23.3294C22.349 22.935 22.5706 22.4 22.5706 21.8422V13.3734C22.5706 12.683 22.011 12.1234 21.3206 12.1234C20.6303 12.1234 20.0706 12.683 20.0706 13.3734V21.4455H3.79846V5.17331Z" fill="#6D75F4"/>
</svg>
