<svg width="24" height="24" viewBox="0 0 24 24" fill="none" xmlns="http://www.w3.org/2000/svg">
<path d="M15.0408 21.3885V16.1889C15.0408 15.959 14.9495 15.7386 14.787 15.5761C14.6244 15.4136 14.404 15.3222 14.1742 15.3222H10.7077C10.4779 15.3222 10.2575 15.4136 10.0949 15.5761C9.93241 15.7386 9.84111 15.959 9.84111 16.1889V21.3885C9.84111 21.6184 9.7498 21.8388 9.58728 22.0013C9.42476 22.1638 9.20433 22.2551 8.97449 22.2551H3.77482C3.54498 22.2551 3.32455 22.1638 3.16203 22.0013C2.99951 21.8388 2.9082 21.6184 2.9082 21.3885V11.3683C2.91014 11.2484 2.93606 11.1301 2.98443 11.0203C3.0328 10.9105 3.10265 10.8116 3.18985 10.7292L11.856 2.85386C12.0157 2.7077 12.2244 2.62665 12.4409 2.62665C12.6575 2.62665 12.8662 2.7077 13.0259 2.85386L21.692 10.7292C21.7792 10.8116 21.8491 10.9105 21.8975 11.0203C21.9458 11.1301 21.9717 11.2484 21.9737 11.3683V21.3885C21.9737 21.6184 21.8824 21.8388 21.7199 22.0013C21.5573 22.1638 21.3369 22.2551 21.1071 22.2551H15.9074C15.6776 22.2551 15.4571 22.1638 15.2946 22.0013C15.1321 21.8388 15.0408 21.6184 15.0408 21.3885Z" stroke="#9298FF" stroke-width="2.59984" stroke-linecap="round" stroke-linejoin="round"/>
</svg>
