<svg width="18" height="17" viewBox="0 0 18 17" fill="none" xmlns="http://www.w3.org/2000/svg">
<path d="M1.1092 16.3828C1.34867 16.6327 1.648 16.755 2.0072 16.7498C2.36641 16.7446 2.66574 16.6223 2.90521 16.3828L8.99602 10.2764L15.1024 16.3828C15.3419 16.6223 15.6386 16.7446 15.9926 16.7498C16.3466 16.755 16.6434 16.6327 16.8828 16.3828C17.1327 16.1434 17.255 15.8466 17.2498 15.4926C17.2446 15.1386 17.1223 14.8419 16.8828 14.6024L10.7764 8.49602L16.8828 2.40521C17.1223 2.15533 17.2446 1.85339 17.2498 1.4994C17.255 1.1454 17.1327 0.848671 16.8828 0.609201C16.6434 0.369732 16.3466 0.25 15.9926 0.25C15.6386 0.25 15.3419 0.369732 15.1024 0.609201L8.99602 6.71563L2.90521 0.609201C2.66574 0.369732 2.36641 0.25 2.0072 0.25C1.648 0.25 1.34867 0.369732 1.1092 0.609201C0.869732 0.848671 0.75 1.1454 0.75 1.4994C0.75 1.85339 0.869732 2.15533 1.1092 2.40521L7.21563 8.49602L1.1092 14.6024C0.869732 14.8419 0.75 15.1386 0.75 15.4926C0.75 15.8466 0.869732 16.1434 1.1092 16.3828Z" fill="#D34C74"/>
</svg>
