<svg width="16" height="16" viewBox="0 0 16 16" fill="none" xmlns="http://www.w3.org/2000/svg">
<g clip-path="url(#clip0_7702_151392)">
<path fill-rule="evenodd" clip-rule="evenodd" d="M7.04004 15.04C7.04004 15.5702 6.61023 16 6.08003 16H1.60001C1.17566 16 0.768694 15.8314 0.468635 15.5314C0.168572 15.2313 3.8147e-06 14.8243 3.8147e-06 14.4L3.8147e-06 1.6C3.8147e-06 1.17566 0.168572 0.76869 0.468635 0.46863C0.768695 0.16857 1.17567 0 1.60001 0H6.08003C6.61023 0 7.04004 0.429807 7.04004 0.96C7.04004 1.49019 6.61023 1.92 6.08003 1.92H1.92001L1.92001 14.08H6.08003C6.61023 14.08 7.04004 14.5098 7.04004 15.04Z" fill="#6D75F4"/>
<path fill-rule="evenodd" clip-rule="evenodd" d="M11.0012 12.0388C11.3761 12.4137 11.9839 12.4137 12.3588 12.0388L15.7188 8.67883C16.0937 8.30393 16.0937 7.69609 15.7188 7.32119L12.3588 3.96119C11.9839 3.58628 11.3761 3.58628 11.0012 3.96119C10.6262 4.33609 10.6262 4.94393 11.0012 5.31883L12.7223 7.04001L6.08001 7.04001C5.54982 7.04001 5.12001 7.46982 5.12001 8.00001C5.12001 8.5302 5.54982 8.96001 6.08001 8.96001L12.7223 8.96001L11.0012 10.6812C10.6262 11.0561 10.6262 11.6639 11.0012 12.0388Z" fill="#6D75F4"/>
</g>
<defs>
<clipPath id="clip0_7702_151392">
<rect width="16" height="16" fill="white" transform="matrix(1 0 0 -1 0 16)"/>
</clipPath>
</defs>
</svg>
