<svg width="24" height="24" viewBox="0 0 24 24" fill="none" xmlns="http://www.w3.org/2000/svg">
<g clip-path="url(#clip0_7707_149038)">
<path d="M12.4533 20.7584C12.7505 20.7584 13.1319 20.5725 13.5975 20.2007C14.0632 19.829 14.5511 19.3457 15.0613 18.7509C15.5715 18.1561 16.0495 17.5242 16.4954 16.855C16.9412 16.1859 17.3077 15.544 17.595 14.9294C17.8824 14.3147 18.026 13.8092 18.026 13.4126C18.026 13.1252 17.8898 12.7931 17.6173 12.4164C17.3449 12.0397 17.0056 11.6729 16.5994 11.316C16.1932 10.9591 15.7721 10.6642 15.3362 10.4312C14.9003 10.1983 14.5189 10.0818 14.192 10.0818C13.9938 10.0818 13.7709 10.1487 13.5232 10.2825C13.2755 10.4164 13.0229 10.5527 12.7653 10.6915C12.5077 10.8302 12.265 10.8996 12.0372 10.8996C11.8192 10.8996 11.5443 10.7831 11.2124 10.5502C10.8805 10.3172 10.5858 10.0545 10.3282 9.76208C10.0706 9.46964 9.9418 9.22429 9.9418 9.02602C9.9418 8.87732 9.99628 8.76332 10.1053 8.68401C10.2142 8.60471 10.343 8.56506 10.4916 8.56506C10.6898 8.56506 10.9152 8.64188 11.1678 8.79554C11.4204 8.9492 11.6954 9.10285 11.9926 9.25651C12.2898 9.41016 12.5969 9.48699 12.9139 9.48699C13.2805 9.48699 13.5579 9.36803 13.7461 9.13011C13.9344 8.89219 14.0285 8.58984 14.0285 8.22305C14.0285 8.02478 13.9789 7.81908 13.8799 7.60595C13.7808 7.39281 13.652 7.15737 13.4935 6.89963C13.8898 6.71128 14.3728 6.45601 14.9424 6.13383C15.5121 5.81165 16.0619 5.43495 16.592 5.00372C17.122 4.57249 17.7486 4.31406 18.026 3.80848C17.6793 3.11455 16.7505 2.34697 15.6854 1.92565C14.6204 1.50434 13.3796 1.29368 11.9628 1.29368C10.9523 1.29368 9.95666 1.43246 8.97585 1.71004C7.99504 1.98761 7.10836 2.35935 6.31579 2.82528C5.52322 3.2912 4.88917 3.80917 4.41362 4.37918C3.93808 4.9492 3.19101 6.31474 3.1811 6.89963C3.16129 7.4746 3.88359 7.28376 4.33932 7.90335C4.79505 8.52293 5.40928 9.1648 6.18204 9.829L7.8613 11.2862C8.1387 11.5242 8.3517 11.715 8.50031 11.8587C8.64892 12.0025 8.72322 12.1487 8.72322 12.2974C8.72322 12.5651 8.62167 12.798 8.41858 12.9963C8.21548 13.1945 8.11393 13.4572 8.11393 13.7844C8.11393 14.3693 8.41114 14.8798 9.00557 15.316C9.64954 15.7918 10.1375 16.1512 10.4693 16.3941C10.8012 16.6369 11.0291 16.8228 11.1529 16.9517C11.2768 17.0805 11.3387 17.2144 11.3387 17.3532C11.3387 17.7299 11.2644 18.0768 11.1158 18.3941C10.9672 18.7113 10.8929 19.0483 10.8929 19.4052C10.8929 19.7224 11.0613 20.0273 11.3981 20.3197C11.735 20.6121 12.0867 20.7584 12.4533 20.7584ZM11.9926 24C13.6372 24 15.1827 23.6877 16.6291 23.0632C18.0756 22.4387 19.3511 21.5713 20.4557 20.461C21.5604 19.3507 22.4272 18.0719 23.0563 16.6245C23.6855 15.1772 24 13.6357 24 12C24 10.3643 23.6855 8.82281 23.0563 7.37546C22.4272 5.92812 21.5579 4.64932 20.4483 3.53903C19.3387 2.42874 18.0607 1.56134 16.6142 0.936803C15.1678 0.312265 13.6223 0 11.9777 0C10.343 0 8.80248 0.312265 7.35604 0.936803C5.90959 1.56134 4.63654 2.42874 3.53684 3.53903C2.43715 4.64932 1.57276 5.92812 0.943654 7.37546C0.314548 8.82281 0 10.3643 0 12C0 13.6357 0.314548 15.1772 0.943654 16.6245C1.57276 18.0719 2.43962 19.3507 3.54427 20.461C4.64892 21.5713 5.92445 22.4387 7.3709 23.0632C8.81734 23.6877 10.3579 24 11.9926 24ZM11.9926 22.2156C10.6056 22.2156 9.29784 21.948 8.06935 21.4126C6.84086 20.8773 5.75604 20.1388 4.81486 19.197C3.87368 18.2553 3.13561 17.1673 2.60062 15.9331C2.06563 14.6989 1.79814 13.3879 1.79814 12C1.79814 10.6121 2.06316 9.30112 2.59319 8.06691C3.12322 6.83271 3.85882 5.74474 4.8 4.80297C5.74118 3.86121 6.826 3.12268 8.05449 2.58736C9.28298 2.05204 10.5907 1.78439 11.9777 1.78439C13.3746 1.78439 14.6873 2.05204 15.9158 2.58736C17.1443 3.12268 18.2316 3.86121 19.1777 4.80297C20.1238 5.74474 20.8644 6.83271 21.3994 8.06691C21.9344 9.30112 22.2019 10.6121 22.2019 12C22.2019 13.3879 21.9344 14.6989 21.3994 15.9331C20.8644 17.1673 20.1263 18.2553 19.1851 19.197C18.244 20.1388 17.1591 20.8773 15.9307 21.4126C14.7022 21.948 13.3895 22.2156 11.9926 22.2156Z" fill="#BCBED5"/>
</g>
<defs>
<clipPath id="clip0_7707_149038">
<rect width="24" height="24" fill="white"/>
</clipPath>
</defs>
</svg>
