<svg width="15" height="20" viewBox="0 0 15 20" fill="none" xmlns="http://www.w3.org/2000/svg">
<path d="M7.72266 4.88461C8.55469 4.88461 9.59766 4.30483 10.2188 3.53179C10.7812 2.83121 11.1914 1.85283 11.1914 0.874443C11.1914 0.741576 11.1797 0.608709 11.1562 0.5C10.2305 0.536236 9.11719 1.14018 8.44922 1.94946C7.92188 2.56548 7.44141 3.53179 7.44141 4.52225C7.44141 4.6672 7.46484 4.81214 7.47656 4.86046C7.53516 4.87254 7.62891 4.88461 7.72266 4.88461ZM4.79297 19.5C5.92969 19.5 6.43359 18.7149 7.85156 18.7149C9.29297 18.7149 9.60938 19.4758 10.875 19.4758C12.1172 19.4758 12.9492 18.2921 13.7344 17.1325C14.6133 15.8039 14.9766 14.4994 15 14.439C14.918 14.4148 12.5391 13.4123 12.5391 10.5979C12.5391 8.15798 14.4141 7.0588 14.5195 6.97425C13.2773 5.13827 11.3906 5.08996 10.875 5.08996C9.48047 5.08996 8.34375 5.95963 7.62891 5.95963C6.85547 5.95963 5.83594 5.13827 4.62891 5.13827C2.33203 5.13827 0 7.09504 0 10.7912C0 13.0861 0.867188 15.514 1.93359 17.0842C2.84766 18.4129 3.64453 19.5 4.79297 19.5Z" fill="black"/>
</svg>
