<svg width="36" height="36" viewBox="0 0 36 36" fill="none" xmlns="http://www.w3.org/2000/svg">
<circle cx="18" cy="18" r="18" fill="#20235E"/>
<path fill-rule="evenodd" clip-rule="evenodd" d="M9.51536 26.0616C8.86449 25.4107 8.86449 24.3555 9.51536 23.7046L23.6575 9.56247C24.3084 8.91159 25.3636 8.91159 26.0145 9.56247C26.6654 10.2133 26.6654 11.2686 26.0145 11.9195L11.8724 26.0616C11.2215 26.7125 10.1662 26.7125 9.51536 26.0616Z" fill="#6D75F4"/>
<path fill-rule="evenodd" clip-rule="evenodd" d="M26.3451 26.0616C26.996 25.4107 26.996 24.3555 26.3451 23.7046L12.203 9.56247C11.5521 8.91159 10.4968 8.91159 9.84594 9.56247C9.19507 10.2133 9.19507 11.2686 9.84594 11.9195L23.9881 26.0616C24.639 26.7125 25.6942 26.7125 26.3451 26.0616Z" fill="#6D75F4"/>
</svg>
