<svg width="36" height="36" viewBox="0 0 36 36" fill="none" xmlns="http://www.w3.org/2000/svg">
<path fill-rule="evenodd" clip-rule="evenodd" d="M18 36C27.9411 36 36 27.9411 36 18C36 8.05887 27.9411 0 18 0C8.05887 0 0 8.05887 0 18C0 27.9411 8.05887 36 18 36ZM9.48816 24.6303C8.83728 25.2812 8.83728 26.3364 9.48816 26.9873C10.139 27.6382 11.1943 27.6382 11.8452 26.9873L17.903 20.9295L23.9609 26.9873C24.6117 27.6382 25.667 27.6382 26.3179 26.9873C26.9688 26.3364 26.9688 25.2812 26.3179 24.6303L20.26 18.5724L25.9873 12.8452C26.6382 12.1943 26.6382 11.139 25.9873 10.4882C25.3364 9.83728 24.2812 9.83728 23.6303 10.4882L17.903 16.2154L12.1758 10.4882C11.5249 9.83728 10.4696 9.83728 9.81874 10.4882C9.16786 11.139 9.16786 12.1943 9.81874 12.8452L15.546 18.5724L9.48816 24.6303Z" fill="#6D75F4"/>
</svg>
