<svg width="20" height="20" viewBox="0 0 20 20" fill="none" xmlns="http://www.w3.org/2000/svg">
<path fill-rule="evenodd" clip-rule="evenodd" d="M19.1427 1.54088C19.267 1.80144 19.3366 2.09312 19.3366 2.40106V16.4019C19.3366 17.5064 18.4411 18.4019 17.3366 18.4019C16.232 18.4019 15.3366 17.5064 15.3366 16.4019V7.22941L3.97207 18.5939C3.19103 19.375 1.9247 19.375 1.14365 18.5939C0.362599 17.8129 0.3626 16.5465 1.14365 15.7655L12.5081 4.40106L3.33577 4.40106C2.2312 4.40106 1.33577 3.50563 1.33577 2.40106C1.33577 1.29649 2.2312 0.401062 3.33577 0.401062H17.3366C17.625 0.401062 17.8992 0.462123 18.1469 0.572023C18.3215 0.649358 18.4874 0.752932 18.6384 0.882742C18.8491 1.06357 19.0218 1.28751 19.1427 1.54088Z" fill="#6D75F4"/>
</svg>
