<svg width="33" height="33" viewBox="0 0 33 33" fill="none" xmlns="http://www.w3.org/2000/svg">
<path fill-rule="evenodd" clip-rule="evenodd" d="M16.025 6.5C14.7779 6.5 13.5431 6.74586 12.3911 7.22352C11.2391 7.70117 10.1926 8.40126 9.31143 9.28372C8.72607 9.86993 7.77633 9.87063 7.19011 9.28527C6.6039 8.69991 6.60321 7.75016 7.18857 7.16395C8.34837 6.00245 9.72579 5.08099 11.242 4.4523C12.7583 3.8236 14.3836 3.5 16.025 3.5C17.6664 3.5 19.2917 3.8236 20.808 4.4523C22.3236 5.08074 23.7005 6.0017 24.86 7.16255C24.8605 7.16301 24.861 7.16348 24.8614 7.16395L26.5508 8.848V6.4613C26.5508 5.63288 27.2224 4.9613 28.0508 4.9613C28.8792 4.9613 29.5508 5.63288 29.5508 6.4613V12.4613C29.5508 13.2897 28.8792 13.9613 28.0508 13.9613H22.0508C21.2224 13.9613 20.5508 13.2897 20.5508 12.4613C20.5508 11.6329 21.2224 10.9613 22.0508 10.9613H24.4214L22.741 9.28616L22.7386 9.28372C21.8574 8.40126 20.8109 7.70117 19.6589 7.22352C18.5069 6.74586 17.2721 6.5 16.025 6.5ZM2.5 19.5363C2.5 18.7078 3.17157 18.0363 4 18.0363H10C10.8284 18.0363 11.5 18.7078 11.5 19.5363C11.5 20.3647 10.8284 21.0363 10 21.0363H7.62888L9.31144 22.7139C10.1926 23.5963 11.2391 24.2964 12.3911 24.7741C13.5431 25.2517 14.7779 25.4976 16.025 25.4976C17.2721 25.4976 18.5069 25.2517 19.6589 24.7741C20.8109 24.2964 21.8574 23.5963 22.7386 22.7139C23.3239 22.1277 24.2737 22.127 24.8599 22.7123C25.4461 23.2977 25.4468 24.2474 24.8614 24.8336C23.7016 25.9951 22.3242 26.9166 20.808 27.5453C19.2917 28.174 17.6664 28.4976 16.025 28.4976C14.3836 28.4976 12.7583 28.174 11.242 27.5453C9.72627 26.9168 8.34925 25.9957 7.18967 24.8347C7.1893 24.8344 7.18894 24.834 7.18857 24.8336L5.5 23.15V25.5363C5.5 26.3647 4.82843 27.0363 4 27.0363C3.17157 27.0363 2.5 26.3647 2.5 25.5363V19.5363Z" fill="#6D75F4"/>
</svg>
