<svg width="25" height="24" viewBox="0 0 25 24" fill="none" xmlns="http://www.w3.org/2000/svg">
<g clip-path="url(#clip0_5119_974)">
<path d="M20.6667 16.3333H17.2593C17.1463 16.3333 17.038 16.3782 16.9581 16.4581C16.8782 16.538 16.8334 16.6463 16.8334 16.7593V20.1667C16.8334 20.2796 16.8782 20.388 16.9581 20.4678C17.038 20.5477 17.1463 20.5926 17.2593 20.5926H20.6667C20.7797 20.5926 20.888 20.5477 20.9679 20.4678C21.0478 20.388 21.0926 20.2796 21.0926 20.1667V16.7593C21.0926 16.6463 21.0478 16.538 20.9679 16.4581C20.888 16.3782 20.7797 16.3333 20.6667 16.3333Z" fill="#6D75F4"/>
<path d="M16.4075 12.9259H13.852C13.739 12.9259 13.6307 12.9708 13.5508 13.0507C13.4709 13.1306 13.426 13.2389 13.426 13.3519V15.9074C13.426 16.0204 13.4709 16.1287 13.5508 16.2086C13.6307 16.2885 13.739 16.3333 13.852 16.3333H16.4075C16.5205 16.3333 16.6288 16.2885 16.7087 16.2086C16.7886 16.1287 16.8334 16.0204 16.8334 15.9074V13.3519C16.8334 13.2389 16.7886 13.1306 16.7087 13.0507C16.6288 12.9708 16.5205 12.9259 16.4075 12.9259Z" fill="#6D75F4"/>
<path d="M24.0741 20.5926H21.5186C21.4056 20.5926 21.2973 20.6375 21.2174 20.7173C21.1375 20.7972 21.0927 20.9056 21.0927 21.0185V23.5741C21.0927 23.687 21.1375 23.7954 21.2174 23.8752C21.2973 23.9551 21.4056 24 21.5186 24H24.0741C24.1871 24 24.2954 23.9551 24.3753 23.8752C24.4552 23.7954 24.5001 23.687 24.5001 23.5741V21.0185C24.5001 20.9056 24.4552 20.7972 24.3753 20.7173C24.2954 20.6375 24.1871 20.5926 24.0741 20.5926Z" fill="#6D75F4"/>
<path d="M24.0741 12.9259H22.3704C22.2574 12.9259 22.1491 12.9708 22.0692 13.0507C21.9893 13.1306 21.9445 13.2389 21.9445 13.3519V15.0556C21.9445 15.1685 21.9893 15.2769 22.0692 15.3567C22.1491 15.4366 22.2574 15.4815 22.3704 15.4815H24.0741C24.1871 15.4815 24.2954 15.4366 24.3753 15.3567C24.4551 15.2769 24.5 15.1685 24.5 15.0556V13.3519C24.5 13.2389 24.4551 13.1306 24.3753 13.0507C24.2954 12.9708 24.1871 12.9259 24.0741 12.9259Z" fill="#6D75F4"/>
<path d="M15.5557 21.4444H13.852C13.739 21.4444 13.6307 21.4893 13.5508 21.5692C13.4709 21.6491 13.426 21.7574 13.426 21.8704V23.5741C13.426 23.687 13.4709 23.7954 13.5508 23.8752C13.6307 23.9551 13.739 24 13.852 24H15.5557C15.6686 24 15.777 23.9551 15.8568 23.8752C15.9367 23.7954 15.9816 23.687 15.9816 23.5741V21.8704C15.9816 21.7574 15.9367 21.6491 15.8568 21.5692C15.777 21.4893 15.6686 21.4444 15.5557 21.4444Z" fill="#6D75F4"/>
<path d="M20.6667 3.55556H17.2593C17.1463 3.55556 17.038 3.60043 16.9581 3.68031C16.8782 3.76018 16.8334 3.86852 16.8334 3.98148V7.38889C16.8334 7.50185 16.8782 7.61019 16.9581 7.69007C17.038 7.76994 17.1463 7.81482 17.2593 7.81482H20.6667C20.7797 7.81482 20.888 7.76994 20.9679 7.69007C21.0478 7.61019 21.0926 7.50185 21.0926 7.38889V3.98148C21.0926 3.86852 21.0478 3.76018 20.9679 3.68031C20.888 3.60043 20.7797 3.55556 20.6667 3.55556Z" fill="#6D75F4"/>
<path d="M22.7964 1H15.1297C14.9038 1 14.6871 1.08975 14.5273 1.2495C14.3676 1.40925 14.2778 1.62593 14.2778 1.85185V9.51852C14.2778 9.74444 14.3676 9.96112 14.5273 10.1209C14.6871 10.2806 14.9038 10.3704 15.1297 10.3704H22.7964C23.0223 10.3704 23.2389 10.2806 23.3987 10.1209C23.5585 9.96112 23.6482 9.74444 23.6482 9.51852V1.85185C23.6482 1.62593 23.5585 1.40925 23.3987 1.2495C23.2389 1.08975 23.0223 1 22.7964 1V1Z" stroke="#6D75F4" stroke-width="1.67708" stroke-linecap="round" stroke-linejoin="round"/>
<path d="M7.88888 3.55556H4.48147C4.36851 3.55556 4.26017 3.60043 4.18029 3.68031C4.10042 3.76018 4.05554 3.86852 4.05554 3.98148V7.38889C4.05554 7.50185 4.10042 7.61019 4.18029 7.69007C4.26017 7.76994 4.36851 7.81482 4.48147 7.81482H7.88888C8.00184 7.81482 8.11017 7.76994 8.19005 7.69007C8.26993 7.61019 8.3148 7.50185 8.3148 7.38889V3.98148C8.3148 3.86852 8.26993 3.76018 8.19005 3.68031C8.11017 3.60043 8.00184 3.55556 7.88888 3.55556Z" fill="#6D75F4"/>
<path d="M10.0185 1H2.35185C2.12593 1 1.90925 1.08975 1.7495 1.2495C1.58975 1.40925 1.5 1.62593 1.5 1.85185V9.51852C1.5 9.74444 1.58975 9.96112 1.7495 10.1209C1.90925 10.2806 2.12593 10.3704 2.35185 10.3704H10.0185C10.2444 10.3704 10.4611 10.2806 10.6209 10.1209C10.7806 9.96112 10.8704 9.74444 10.8704 9.51852V1.85185C10.8704 1.62593 10.7806 1.40925 10.6209 1.2495C10.4611 1.08975 10.2444 1 10.0185 1V1Z" stroke="#6D75F4" stroke-width="1.67708" stroke-linecap="round" stroke-linejoin="round"/>
<path d="M7.88888 16.3333H4.48147C4.36851 16.3333 4.26017 16.3782 4.18029 16.4581C4.10042 16.538 4.05554 16.6463 4.05554 16.7593V20.1667C4.05554 20.2796 4.10042 20.388 4.18029 20.4678C4.26017 20.5477 4.36851 20.5926 4.48147 20.5926H7.88888C8.00184 20.5926 8.11017 20.5477 8.19005 20.4678C8.26993 20.388 8.3148 20.2796 8.3148 20.1667V16.7593C8.3148 16.6463 8.26993 16.538 8.19005 16.4581C8.11017 16.3782 8.00184 16.3333 7.88888 16.3333Z" fill="#6D75F4"/>
<path d="M10.0185 13.7778H2.35185C2.12593 13.7778 1.90925 13.8675 1.7495 14.0273C1.58975 14.187 1.5 14.4037 1.5 14.6296V22.2963C1.5 22.5222 1.58975 22.7389 1.7495 22.8986C1.90925 23.0584 2.12593 23.1481 2.35185 23.1481H10.0185C10.2444 23.1481 10.4611 23.0584 10.6209 22.8986C10.7806 22.7389 10.8704 22.5222 10.8704 22.2963V14.6296C10.8704 14.4037 10.7806 14.187 10.6209 14.0273C10.4611 13.8675 10.2444 13.7778 10.0185 13.7778Z" stroke="#6D75F4" stroke-width="1.67708" stroke-linecap="round" stroke-linejoin="round"/>
</g>
<defs>
<clipPath id="clip0_5119_974">
<rect width="24" height="24" fill="white" transform="translate(0.5)"/>
</clipPath>
</defs>
</svg>
