<svg width="33" height="33" viewBox="0 0 33 33" fill="none" xmlns="http://www.w3.org/2000/svg">
<path fill-rule="evenodd" clip-rule="evenodd" d="M23.1646 3.43831C23.6349 2.968 24.3974 2.968 24.8677 3.43831L28.5652 7.13586C29.0356 7.60617 29.0356 8.3687 28.5652 8.83901L17.4726 19.9316C17.2468 20.1575 16.9404 20.2844 16.621 20.2844H12.9235C12.2584 20.2844 11.7192 19.7452 11.7192 19.0801V15.3825C11.7192 15.0631 11.8461 14.7568 12.0719 14.531L23.1646 3.43831ZM14.1278 15.8814V17.8758H16.1222L26.0105 7.98743L24.0161 5.99303L14.1278 15.8814Z" fill="#6D75F4"/>
<path fill-rule="evenodd" clip-rule="evenodd" d="M19.9293 6.6737C20.3996 6.20339 21.1621 6.20339 21.6324 6.6737L25.33 10.3712C25.8003 10.8416 25.8003 11.6041 25.33 12.0744C24.8596 12.5447 24.0971 12.5447 23.6268 12.0744L19.9293 8.37685C19.459 7.90654 19.459 7.14401 19.9293 6.6737Z" fill="#6D75F4"/>
<path fill-rule="evenodd" clip-rule="evenodd" d="M6.72371 7.65183H15.4685C16.2164 7.65183 16.8226 7.04555 16.8226 6.29766C16.8226 5.54978 16.2164 4.9435 15.4685 4.9435H6.29393C5.68962 4.9435 5.11006 5.18356 4.68275 5.61087C4.25544 6.03818 4.01538 6.61774 4.01538 7.22205V25.7098C4.01538 26.3141 4.25544 26.8936 4.68275 27.321C5.11006 27.7483 5.68962 27.9883 6.29393 27.9883H24.7817C25.386 27.9883 25.9655 27.7483 26.3928 27.321C26.8202 26.8936 27.0602 26.3141 27.0602 25.7098V16.5352C27.0602 15.7874 26.4539 15.1811 25.706 15.1811C24.9582 15.1811 24.3519 15.7874 24.3519 16.5352V25.28H6.72371V7.65183Z" fill="#6D75F4"/>
</svg>
