<svg width="25" height="25" viewBox="0 0 25 25" fill="none" xmlns="http://www.w3.org/2000/svg">
<g clip-path="url(#clip0_6866_82633)">
<path fill-rule="evenodd" clip-rule="evenodd" d="M17.1325 2.37274C17.5634 2.37274 17.9768 2.54395 18.2815 2.84869L22.1815 6.74869C22.8161 7.3833 22.8161 8.41219 22.1815 9.04679C21.5469 9.68139 20.518 9.68139 19.8834 9.04679L18.7575 7.92084V16.6727C18.7575 17.5702 18.0299 18.2977 17.1325 18.2977C16.235 18.2977 15.5075 17.5702 15.5075 16.6727V7.92084L14.3815 9.04679C13.7469 9.68139 12.718 9.68139 12.0834 9.04679C11.4488 8.41219 11.4488 7.3833 12.0834 6.74869L15.9834 2.84869C16.2882 2.54395 16.7015 2.37274 17.1325 2.37274ZM7.43247 8.19774C8.32993 8.19774 9.05747 8.92528 9.05747 9.82274V18.5746L10.1834 17.4487C10.818 16.8141 11.8469 16.8141 12.4815 17.4487C13.1161 18.0833 13.1161 19.1122 12.4815 19.7468L8.58152 23.6468C7.94692 24.2814 6.91802 24.2814 6.28342 23.6468L2.38342 19.7468C1.74882 19.1122 1.74882 18.0833 2.38342 17.4487C3.01802 16.8141 4.04692 16.8141 4.68152 17.4487L5.80747 18.5746V9.82274C5.80747 8.92528 6.53501 8.19774 7.43247 8.19774Z" fill="#6D75F4"/>
</g>
<defs>
<clipPath id="clip0_6866_82633">
<rect width="24" height="24" fill="white" transform="translate(0.532471 0.997742)"/>
</clipPath>
</defs>
</svg>
