<svg width="24" height="24" viewBox="0 0 24 24" fill="none" xmlns="http://www.w3.org/2000/svg">
<path fill-rule="evenodd" clip-rule="evenodd" d="M3.55759 18.9065L3.56562 18.8929L3.57337 18.8792L11.5657 4.68494C11.7196 4.43836 12.0804 4.43835 12.2343 4.68494L20.2266 18.8792L20.2344 18.8929L20.2424 18.9065C20.397 19.168 20.209 19.5 19.9029 19.5H3.8971C3.59098 19.5 3.40303 19.168 3.55759 18.9065ZM13.5308 3.93022C12.7976 2.68993 11.0024 2.68992 10.2692 3.93022L2.26632 18.1432C1.52017 19.4055 2.43041 21 3.8971 21H19.9029C21.3696 21 22.2798 19.4055 21.5337 18.1432L13.5308 3.93022ZM12.9242 13.1325C12.9124 13.8622 12.5359 14.2522 11.8886 14.2522C11.2296 14.2522 10.853 13.8496 10.8295 13.1325L10.6648 8.5206C10.6412 7.77837 11.1472 7.25 11.8769 7.25C12.6065 7.25 13.1243 7.79095 13.1007 8.53318L12.9242 13.1325ZM13.2772 17.0324C13.2772 17.8375 12.6535 18.4288 11.8886 18.4288C11.1355 18.4288 10.5 17.8249 10.5 17.0324C10.5 16.2398 11.1237 15.6486 11.8886 15.6486C12.6653 15.6486 13.2772 16.2398 13.2772 17.0324Z" fill="#6D75F4"/>
</svg>
