<svg width="26" height="20" viewBox="0 0 26 20" fill="none" xmlns="http://www.w3.org/2000/svg">
<g clip-path="url(#clip0_7943_169168)">
<path fill-rule="evenodd" clip-rule="evenodd" d="M6.23929 1.99977C6.23929 1.17144 6.93765 0.499943 7.79911 0.499943H24.4372C25.2987 0.499943 25.997 1.17144 25.997 1.99977C25.997 2.82811 25.2987 3.4996 24.4372 3.4996H7.79911C6.93765 3.4996 6.23929 2.82811 6.23929 1.99977Z" fill="#6D75F4"/>
<path fill-rule="evenodd" clip-rule="evenodd" d="M6.23929 9.99887C6.23929 9.17053 6.93765 8.49903 7.79911 8.49903H24.4372C25.2987 8.49903 25.997 9.17053 25.997 9.99887C25.997 10.8272 25.2987 11.4987 24.4372 11.4987H7.79911C6.93765 11.4987 6.23929 10.8272 6.23929 9.99887Z" fill="#6D75F4"/>
<path fill-rule="evenodd" clip-rule="evenodd" d="M6.23929 17.998C6.23929 17.1696 6.93765 16.4981 7.79911 16.4981H24.4372C25.2987 16.4981 25.997 17.1696 25.997 17.998C25.997 18.8263 25.2987 19.4978 24.4372 19.4978H7.79911C6.93765 19.4978 6.23929 18.8263 6.23929 17.998Z" fill="#6D75F4"/>
<path d="M2.07976 11.9986C3.22839 11.9986 4.15953 11.1033 4.15953 9.99887C4.15953 8.89442 3.22839 7.99909 2.07976 7.99909C0.931142 7.99909 0 8.89442 0 9.99887C0 11.1033 0.931142 11.9986 2.07976 11.9986Z" fill="#6D75F4"/>
<path d="M2.07976 3.99955C3.22839 3.99955 4.15953 3.10422 4.15953 1.99977C4.15953 0.895329 3.22839 0 2.07976 0C0.931142 0 0 0.895329 0 1.99977C0 3.10422 0.931142 3.99955 2.07976 3.99955Z" fill="#6D75F4"/>
<path d="M2.07976 19.9977C3.22839 19.9977 4.15953 19.1024 4.15953 17.998C4.15953 16.8935 3.22839 15.9982 2.07976 15.9982C0.931142 15.9982 0 16.8935 0 17.998C0 19.1024 0.931142 19.9977 2.07976 19.9977Z" fill="#6D75F4"/>
</g>
<defs>
<clipPath id="clip0_7943_169168">
<rect width="25.997" height="19.9977" fill="white"/>
</clipPath>
</defs>
</svg>
