<svg width="24" height="24" viewBox="0 0 24 24" fill="none" xmlns="http://www.w3.org/2000/svg">
<path d="M11.9947 23C18.0237 23 23 18.0213 23 12C23 5.97872 18.0131 1 11.9841 1C5.96568 1 1 5.97872 1 12C1 18.0213 5.97632 23 11.9947 23ZM11.9947 20.8085C7.11407 20.8085 3.2117 16.883 3.2117 12C3.2117 7.11702 7.11407 3.20213 11.9841 3.20213C16.8647 3.20213 20.7883 7.11702 20.7989 12C20.8096 16.883 16.8753 20.8085 11.9947 20.8085ZM11.9841 7.07447C12.5795 7.07447 13.0793 6.57447 13.0793 5.97872C13.0793 5.37234 12.5795 4.88298 11.9841 4.88298C11.378 4.88298 10.8995 5.37234 10.8995 5.97872C10.8995 6.57447 11.3886 7.07447 11.9841 7.07447ZM7.78395 8.92553C8.39004 8.92553 8.87917 8.42553 8.87917 7.82979C8.87917 7.23404 8.39004 6.73404 7.78395 6.73404C7.1885 6.73404 6.68874 7.23404 6.68874 7.82979C6.68874 8.42553 7.1885 8.92553 7.78395 8.92553ZM10.3146 13.6702C11.2185 14.5532 12.4625 14.3511 13.1856 13.3085L17.088 7.76596C17.5239 7.12766 16.8859 6.5 16.2586 6.92553L10.6655 10.7872C9.62349 11.5 9.43209 12.7553 10.3146 13.6702ZM6.01885 13.0957C6.62494 13.0957 7.11407 12.5957 7.11407 12C7.11407 11.3936 6.62494 10.9043 6.01885 10.9043C5.42339 10.9043 4.92363 11.3936 4.92363 12C4.92363 12.5957 5.42339 13.0957 6.01885 13.0957ZM17.9599 13.0957C18.5553 13.0957 19.0551 12.5957 19.0551 12C19.0551 11.3936 18.5553 10.9043 17.9599 10.9043C17.3538 10.9043 16.8647 11.3936 16.8647 12C16.8647 12.5957 17.3538 13.0957 17.9599 13.0957ZM7.80522 17.266C8.41131 17.266 8.90044 16.766 8.90044 16.1702C8.90044 15.5638 8.41131 15.0745 7.80522 15.0745C7.20976 15.0745 6.71001 15.5638 6.71001 16.1702C6.71001 16.766 7.20976 17.266 7.80522 17.266ZM16.1735 17.266C16.769 17.266 17.2687 16.766 17.2687 16.1702C17.2687 15.5638 16.769 15.0745 16.1735 15.0745C15.5674 15.0745 15.0783 15.5638 15.0783 16.1702C15.0783 16.766 15.5674 17.266 16.1735 17.266Z" fill="#6D75F4"/>
</svg>
