<svg width="36" height="36" viewBox="0 0 36 36" fill="none" xmlns="http://www.w3.org/2000/svg">
<path d="M35.25 18C35.25 27.5269 27.5269 35.25 18 35.25C8.47309 35.25 0.75 27.5269 0.75 18C0.75 8.47309 8.47309 0.75 18 0.75C27.5269 0.75 35.25 8.47309 35.25 18Z" stroke="#6D75F4" stroke-width="1.5"/>
<g clip-path="url(#clip0_7706_156731)">
<path d="M11.6072 27.9999H20.3461C21.8834 27.9999 22.9083 26.9176 22.9083 25.3135V14.963C22.9083 13.3589 21.8834 12.2863 20.3461 12.2863H11.6072C10.0429 12.2863 9 13.3589 9 14.963V25.3135C9 26.9176 10.0429 27.9999 11.6072 27.9999ZM11.9129 26.0093C11.2027 26.0093 10.7981 25.5938 10.7981 24.8594V15.4171C10.7981 14.6827 11.2027 14.2672 11.9129 14.2672H19.9954C20.7057 14.2672 21.1102 14.6924 21.1102 15.4268V24.8594C21.1102 25.5938 20.7057 26.0093 19.9954 26.0093H11.9129Z" fill="#6D75F4"/>
<path d="M13.0917 11.2983H20.3461C21.3391 11.2983 22.2494 11.6487 22.9168 12.3463C23.5868 13.0466 23.9313 14.0127 23.9313 15.0744V23.7136H24.4377C25.9751 23.7136 27 22.6313 27 21.0272V10.6767C27 9.0726 25.9751 8 24.4377 8H15.6989C14.1346 8 13.0917 9.0726 13.0917 10.6767V11.2983Z" fill="#6D75F4"/>
</g>
<defs>
<clipPath id="clip0_7706_156731">
<rect width="18" height="19.9999" fill="white" transform="translate(9 8)"/>
</clipPath>
</defs>
</svg>
