<svg width="36" height="36" viewBox="0 0 36 36" fill="none" xmlns="http://www.w3.org/2000/svg">
<path fill-rule="evenodd" clip-rule="evenodd" d="M18 34.5C27.1127 34.5 34.5 27.1127 34.5 18C34.5 8.8873 27.1127 1.5 18 1.5C8.8873 1.5 1.5 8.8873 1.5 18C1.5 27.1127 8.8873 34.5 18 34.5ZM36 18C36 27.9411 27.9411 36 18 36C8.05888 36 0 27.9411 0 18C0 8.05888 8.05888 0 18 0C27.9411 0 36 8.05888 36 18Z" fill="#6D75F4"/>
<g clip-path="url(#clip0_7706_156731)">
<g clip-path="url(#clip1_7706_156731)">
<path d="M12.14 27.9999H20.1506C21.5598 27.9999 22.4993 26.9176 22.4993 25.3135V14.1296C22.4993 12.5256 21.5598 11.453 20.1506 11.453H12.14C10.706 11.453 9.75 12.5256 9.75 14.1296V25.3135C9.75 26.9176 10.706 27.9999 12.14 27.9999ZM12.4202 26.0093C11.7691 26.0093 11.3983 25.5938 11.3983 24.8594V14.5838C11.3983 13.8494 11.7691 13.4339 12.4202 13.4339H19.8291C20.4802 13.4339 20.8511 13.8591 20.8511 14.5935V24.8594C20.8511 25.5938 20.4802 26.0093 19.8291 26.0093H12.4202Z" fill="#6D75F4"/>
<path d="M12.7507 10.465H20.9006C21.8109 10.465 22.4993 10.465 22.9574 11.1063C23.437 11.7029 23.437 12.346 23.437 13.4078V23.7136V24.5469C24.8462 24.5469 25.5 23.4646 25.5 21.8606V10.6767C25.5 9.0726 24.5605 8 23.1512 8H15.1406C13.7067 8 12.7507 8.23927 12.7507 9.84333V10.465Z" fill="#6D75F4"/>
</g>
</g>
<defs>
<clipPath id="clip0_7706_156731">
<rect width="18" height="19.9999" fill="white" transform="translate(9 8)"/>
</clipPath>
<clipPath id="clip1_7706_156731">
<rect width="15.75" height="19.9999" fill="white" transform="translate(9.75 8)"/>
</clipPath>
</defs>
</svg>
