<svg width="36" height="36" viewBox="0 0 36 36" fill="none" xmlns="http://www.w3.org/2000/svg">
<circle cx="18" cy="18" r="18" fill="#1F1F2B"/>
<path d="M13.0581 17.529C13.0581 18.9258 11.9258 20.0581 10.529 20.0581C9.13229 20.0581 8 18.9258 8 17.529C8 16.1323 9.13229 15 10.529 15C11.9258 15 13.0581 16.1323 13.0581 17.529Z" fill="#6D75F4"/>
<path d="M20.6452 17.529C20.6452 18.9258 19.5129 20.0581 18.1161 20.0581C16.7194 20.0581 15.5871 18.9258 15.5871 17.529C15.5871 16.1323 16.7194 15 18.1161 15C19.5129 15 20.6452 16.1323 20.6452 17.529Z" fill="#6D75F4"/>
<path d="M28.2323 17.529C28.2323 18.9258 27.1 20.0581 25.7033 20.0581C24.3065 20.0581 23.1742 18.9258 23.1742 17.529C23.1742 16.1323 24.3065 15 25.7033 15C27.1 15 28.2323 16.1323 28.2323 17.529Z" fill="#6D75F4"/>
</svg>
