<svg width="25" height="25" viewBox="0 0 25 25" fill="none" xmlns="http://www.w3.org/2000/svg">
<path fill-rule="evenodd" clip-rule="evenodd" d="M12.7236 9.04811C13.345 9.04811 13.8486 9.55179 13.8486 10.1731V13.1731C13.8486 13.7944 13.345 14.2981 12.7236 14.2981C12.1023 14.2981 11.5986 13.7944 11.5986 13.1731V10.1731C11.5986 9.55179 12.1023 9.04811 12.7236 9.04811Z" fill="#6D75F4"/>
<path fill-rule="evenodd" clip-rule="evenodd" d="M11.4114 2.65081C11.81 2.41963 12.2626 2.29788 12.7235 2.29788C13.1843 2.29788 13.637 2.41963 14.0356 2.65081C14.4333 2.88144 14.7632 3.21283 14.992 3.61154C14.9926 3.61247 14.9931 3.61341 14.9936 3.61434L23.2415 17.8606C23.4715 18.259 23.5928 18.7108 23.5932 19.1708C23.5936 19.6308 23.4731 20.0828 23.2438 20.4816C23.0145 20.8804 22.6845 21.2119 22.2867 21.443C21.8889 21.674 21.4374 21.7965 20.9774 21.7981L20.9735 21.7981H4.47348L4.46952 21.7981C4.00952 21.7965 3.55802 21.674 3.16026 21.443C2.76249 21.2119 2.43243 20.8804 2.20313 20.4816C1.97383 20.0828 1.85335 19.6308 1.85376 19.1708C1.85417 18.7108 1.97545 18.259 2.20545 17.8606L10.4533 3.61434C10.4538 3.61341 10.4544 3.61248 10.4549 3.61155C10.6837 3.21283 11.0136 2.88144 11.4114 2.65081ZM11.4297 4.17312L12.4033 4.73679L4.154 18.9856C4.15407 18.9855 4.15393 18.9858 4.154 18.9856C4.12128 19.0424 4.10382 19.1072 4.10376 19.1728C4.1037 19.2385 4.12091 19.3031 4.15367 19.3601C4.18643 19.417 4.23358 19.4644 4.2904 19.4974C4.3469 19.5302 4.41098 19.5477 4.4763 19.5481H20.9707C21.036 19.5477 21.1001 19.5302 21.1566 19.4974C21.2134 19.4644 21.2605 19.417 21.2933 19.3601C21.326 19.3031 21.3433 19.2385 21.3432 19.1728C21.3431 19.1073 21.3259 19.0429 21.2932 18.9861C21.2933 18.9863 21.2931 18.986 21.2932 18.9861L13.0408 4.73191C13.0088 4.676 12.9626 4.62953 12.9069 4.59722C12.8512 4.5649 12.7879 4.54788 12.7235 4.54788C12.6591 4.54788 12.5958 4.5649 12.5401 4.59722C12.4843 4.62953 12.4381 4.67599 12.4061 4.7319L11.4297 4.17312Z" fill="#6D75F4"/>
<path d="M12.7236 18.4231C13.5521 18.4231 14.2236 17.7515 14.2236 16.9231C14.2236 16.0947 13.5521 15.4231 12.7236 15.4231C11.8952 15.4231 11.2236 16.0947 11.2236 16.9231C11.2236 17.7515 11.8952 18.4231 12.7236 18.4231Z" fill="#6D75F4"/>
</svg>
