<svg width="24" height="24" viewBox="0 0 24 24" fill="none" xmlns="http://www.w3.org/2000/svg">
<g clip-path="url(#clip0_8562_216565)">
<path fill-rule="evenodd" clip-rule="evenodd" d="M12 22.5C17.799 22.5 22.5 17.799 22.5 12C22.5 6.20101 17.799 1.5 12 1.5C6.20101 1.5 1.5 6.20101 1.5 12C1.5 17.799 6.20101 22.5 12 22.5ZM12 24C18.6274 24 24 18.6274 24 12C24 5.37258 18.6274 0 12 0C5.37258 0 0 5.37258 0 12C0 18.6274 5.37258 24 12 24Z" fill="#6D75F4"/>
<path d="M7.29778 17.9822C6.94222 17.9822 6.63704 17.8519 6.38222 17.5911C6.12741 17.3304 6 17.0163 6 16.6489C6 16.2933 6.12444 15.9911 6.37333 15.7422L10.1244 11.9911L6.37333 8.24C6.12444 7.99111 6 7.68889 6 7.33333C6 6.96592 6.12741 6.65778 6.38222 6.40889C6.63704 6.16 6.94222 6.03556 7.29778 6.03556C7.64148 6.03556 7.93778 6.15407 8.18667 6.39111L11.9733 10.16L15.7956 6.37333C16.0444 6.12444 16.3407 6 16.6844 6C17.0519 6 17.363 6.12741 17.6178 6.38222C17.8726 6.63704 18 6.94222 18 7.29778C18 7.47556 17.9704 7.63852 17.9111 7.78667C17.8519 7.93481 17.7511 8.08 17.6089 8.22222L13.84 11.9911L17.5911 15.7244C17.8519 15.9615 17.9822 16.2696 17.9822 16.6489C17.9822 17.0163 17.8519 17.3304 17.5911 17.5911C17.3304 17.8519 17.0163 17.9822 16.6489 17.9822C16.2696 17.9822 15.9615 17.8578 15.7244 17.6089L11.9733 13.84L8.24 17.6089C7.99111 17.8578 7.67704 17.9822 7.29778 17.9822Z" fill="#6D75F4"/>
</g>
<defs>
<clipPath id="clip0_8562_216565">
<rect width="24" height="24" fill="white"/>
</clipPath>
</defs>
</svg>
