<svg width="20" height="20" viewBox="0 0 20 20" fill="none" xmlns="http://www.w3.org/2000/svg">
<path fill-rule="evenodd" clip-rule="evenodd" d="M14.6747 0C15.0901 0 15.4885 0.15743 15.7822 0.437657L19.5413 4.02386C20.1529 4.60741 20.1529 5.55351 19.5413 6.13706C18.9296 6.7206 17.9379 6.7206 17.3262 6.13706L16.241 5.1017V13.1494C16.241 13.9747 15.5397 14.6437 14.6747 14.6437C13.8097 14.6437 13.1084 13.9747 13.1084 13.1494V5.1017L12.0232 6.13706C11.4115 6.7206 10.4198 6.7206 9.80815 6.13706C9.19648 5.55351 9.19648 4.60741 9.80815 4.02386L13.5672 0.437657C13.8609 0.15743 14.2593 0 14.6747 0ZM5.3253 5.35632C6.19033 5.35632 6.89157 6.02532 6.89157 6.85057V14.8983L7.97682 13.8629C8.58849 13.2794 9.58019 13.2794 10.1919 13.8629C10.8035 14.4465 10.8035 15.3926 10.1919 15.9761L6.43282 19.5623C5.82115 20.1459 4.82945 20.1459 4.21778 19.5623L0.458749 15.9761C-0.152916 15.3926 -0.152916 14.4465 0.458748 13.8629C1.07041 13.2794 2.06212 13.2794 2.67378 13.8629L3.75904 14.8983V6.85057C3.75904 6.02532 4.46028 5.35632 5.3253 5.35632Z" fill="#6D75F4"/>
</svg>
