<svg width="24" height="24" viewBox="0 0 24 24" fill="none" xmlns="http://www.w3.org/2000/svg">
<path fill-rule="evenodd" clip-rule="evenodd" d="M21 7H4C3.73478 7 3.48043 6.89464 3.29289 6.70711C3.10536 6.51957 3 6.26522 3 6C3 5.73478 3.10536 5.48043 3.29289 5.29289C3.48043 5.10536 3.73478 5 4 5H18C18.2652 5 18.5196 4.89464 18.7071 4.70711C18.8946 4.51957 19 4.26522 19 4C19 3.73478 18.8946 3.48043 18.7071 3.29289C18.5196 3.10536 18.2652 3 18 3H4C3.20536 3.00329 2.44421 3.32042 1.88232 3.88232C1.32042 4.44421 1.00329 5.20536 1 6V18C1.00329 18.7946 1.32042 19.5558 1.88232 20.1177C2.44421 20.6796 3.20536 20.9967 4 21H21C21.5304 21 22.0391 20.7893 22.4142 20.4142C22.7893 20.0391 23 19.5304 23 19V9C23 8.46957 22.7893 7.96086 22.4142 7.58579C22.0391 7.21071 21.5304 7 21 7ZM16.3851 15.6685C16.7151 15.889 17.1031 16.0067 17.5 16.0067C18.0322 16.0067 18.5426 15.7953 18.919 15.419C19.2953 15.0426 19.5067 14.5322 19.5067 14C19.5067 13.6031 19.389 13.2151 19.1685 12.8851C18.948 12.5551 18.6346 12.2979 18.2679 12.146C17.9013 11.9942 17.4978 11.9544 17.1085 12.0318C16.7192 12.1093 16.3617 12.3004 16.081 12.581C15.8004 12.8617 15.6093 13.2192 15.5318 13.6085C15.4544 13.9978 15.4942 14.4013 15.646 14.7679C15.7979 15.1346 16.0551 15.448 16.3851 15.6685Z" fill="#6D75F4"/>
</svg>
