<svg width="24" height="24" viewBox="0 0 24 24" fill="none" xmlns="http://www.w3.org/2000/svg">
<g clip-path="url(#clip0_7939_168729)">
<path d="M6.51832 5.46667H8.74869V2.97778C8.74869 2.6716 8.85078 2.42716 9.05497 2.24444C9.25916 2.06173 9.52879 1.97037 9.86387 1.97037H14.1204C14.445 1.97037 14.7094 2.06173 14.9136 2.24444C15.1178 2.42716 15.2199 2.6716 15.2199 2.97778V5.46667H17.466V2.82963C17.466 1.95061 17.1806 1.25926 16.6099 0.755556C16.0393 0.251849 15.2618 0 14.2775 0H9.6911C8.7068 0 7.93194 0.251849 7.36649 0.755556C6.80104 1.25926 6.51832 1.95061 6.51832 2.82963V5.46667ZM1.03665 6.51852H22.9634C23.2461 6.51852 23.4895 6.41975 23.6937 6.22222C23.8979 6.02469 24 5.79259 24 5.52593C24 5.25926 23.8979 5.02716 23.6937 4.82963C23.4895 4.6321 23.2461 4.53333 22.9634 4.53333H1.03665C0.764396 4.53333 0.523561 4.6321 0.314136 4.82963C0.104711 5.02716 0 5.25926 0 5.52593C0 5.79259 0.104711 6.02469 0.314136 6.22222C0.523561 6.41975 0.764396 6.51852 1.03665 6.51852ZM6.32984 24H17.6859C18.6178 24 19.3665 23.7432 19.9319 23.2296C20.4974 22.716 20.8063 22.0148 20.8586 21.1259L21.6754 6.2963H19.4293L18.644 20.9037C18.6335 21.2296 18.5183 21.4963 18.2984 21.7037C18.0785 21.9111 17.7958 22.0148 17.4503 22.0148H6.53403C6.20942 22.0148 5.93717 21.9111 5.71728 21.7037C5.49738 21.4963 5.37696 21.2296 5.35602 20.9037L4.52356 6.2963H2.32461L3.15707 21.1407C3.19895 22.0296 3.5 22.7284 4.06021 23.237C4.62042 23.7457 5.37696 24 6.32984 24ZM8.37173 20.1778C8.63351 20.1778 8.84555 20.1062 9.00785 19.963C9.17016 19.8198 9.24607 19.6346 9.2356 19.4074L8.87434 9.25926C8.87434 9.02222 8.79319 8.83457 8.63089 8.6963C8.46859 8.55802 8.26178 8.48889 8.01047 8.48889C7.74869 8.48889 7.53927 8.56049 7.3822 8.7037C7.22513 8.84692 7.1466 9.0321 7.1466 9.25926L7.50785 19.4074C7.51832 19.6444 7.60209 19.8321 7.75916 19.9704C7.91623 20.1086 8.12042 20.1778 8.37173 20.1778ZM12 20.1778C12.2723 20.1778 12.4895 20.1062 12.6518 19.963C12.8141 19.8198 12.8953 19.6346 12.8953 19.4074V9.25926C12.8953 9.0321 12.8141 8.84692 12.6518 8.7037C12.4895 8.56049 12.2723 8.48889 12 8.48889C11.7382 8.48889 11.5236 8.56049 11.356 8.7037C11.1885 8.84692 11.1047 9.0321 11.1047 9.25926V19.4074C11.1047 19.6346 11.1885 19.8198 11.356 19.963C11.5236 20.1062 11.7382 20.1778 12 20.1778ZM15.644 20.1778C15.8848 20.1778 16.0864 20.1086 16.2487 19.9704C16.411 19.8321 16.4974 19.6444 16.5079 19.4074L16.8534 9.25926C16.8639 9.0321 16.788 8.84692 16.6257 8.7037C16.4634 8.56049 16.2513 8.48889 15.9895 8.48889C15.7382 8.48889 15.534 8.55802 15.377 8.6963C15.2199 8.83457 15.1361 9.02222 15.1257 9.25926L14.7801 19.4074C14.7696 19.6346 14.8429 19.8198 15 19.963C15.1571 20.1062 15.3717 20.1778 15.644 20.1778Z" fill="#6D75F4"/>
</g>
<defs>
<clipPath id="clip0_7939_168729">
<rect width="24" height="24" fill="white"/>
</clipPath>
</defs>
</svg>
