<svg width="24" height="24" viewBox="0 0 24 24" fill="none" xmlns="http://www.w3.org/2000/svg">
<path d="M6.42574 20.9905C6.41672 20.9716 6.41672 20.9385 6.42574 20.8911L8.49579 14.757C8.56795 14.5204 8.58148 14.3074 8.53638 14.1181C8.49128 13.9287 8.365 13.7631 8.15755 13.6211L3.0433 9.95766C3.00722 9.92927 2.99369 9.90087 3.00271 9.87247C3.01173 9.85354 3.03878 9.84407 3.08388 9.84407L9.28052 9.98606C9.51503 9.99553 9.70896 9.94583 9.8623 9.83697C10.0156 9.72811 10.1284 9.55062 10.2005 9.3045L11.9459 3.071C11.9549 3.02367 11.9729 3 12 3C12.0271 3 12.0451 3.02367 12.0541 3.071L13.7995 9.3045C13.8806 9.55062 13.9956 9.72811 14.1445 9.83697C14.2933 9.94583 14.4895 9.99553 14.733 9.98606L20.9161 9.84407C20.9612 9.84407 20.9883 9.85354 20.9973 9.87247C21.0063 9.90087 20.9928 9.92927 20.9567 9.95766L15.8425 13.6211C15.644 13.7631 15.52 13.9287 15.4704 14.1181C15.4208 14.3074 15.4366 14.5204 15.5177 14.757L17.5743 20.8911C17.5833 20.9385 17.5833 20.9716 17.5743 20.9905C17.5652 21.0095 17.5382 21 17.4931 20.9621L12.5818 17.0005C12.4014 16.8491 12.2097 16.7733 12.0068 16.7733C11.8038 16.7733 11.6076 16.8491 11.4182 17.0005L6.52045 20.9621C6.47535 21 6.44378 21.0095 6.42574 20.9905Z" fill="#6D75F4" fill-opacity="0.75"/>
</svg>
