<svg width="22" height="22" viewBox="0 0 22 22" fill="none" xmlns="http://www.w3.org/2000/svg">
<g clip-path="url(#clip0_7702_142767)">
<path d="M10.6705 22C12.1575 22 13.5303 21.7393 14.7892 21.2178C16.048 20.6963 17.1379 19.9956 18.0588 19.1156C18.9797 18.2355 19.6598 17.2659 20.0991 16.2067C20.268 15.8156 20.2596 15.4896 20.0737 15.2289C19.8879 14.9681 19.5668 14.903 19.1106 15.0333C18.722 15.1637 18.2404 15.2819 17.6659 15.3878C17.0914 15.4937 16.5 15.5467 15.8917 15.5467C14.0499 15.5467 12.4532 15.2004 11.1014 14.5078C9.74961 13.8152 8.71045 12.8252 7.98387 11.5378C7.25729 10.2504 6.89401 8.71853 6.89401 6.94222C6.89401 6.43704 6.9616 5.83 7.09677 5.12111C7.23195 4.41222 7.37558 3.85408 7.52765 3.44667C7.69662 3.07185 7.66283 2.77445 7.42627 2.55444C7.18971 2.33444 6.83487 2.31407 6.36175 2.49333C5.09446 2.98223 3.98349 3.71555 3.0288 4.69333C2.07411 5.67112 1.33065 6.79148 0.798388 8.05445C0.266127 9.31741 0 10.6415 0 12.0267C0 13.9822 0.46889 15.7096 1.40668 17.2089C2.34447 18.7082 3.62019 19.8815 5.23387 20.7289C6.84755 21.5763 8.65974 22 10.6705 22ZM16.7281 10.1444C17.0323 10.1444 17.2012 9.98148 17.235 9.65556C17.3702 8.51481 17.5392 7.68371 17.7419 7.16222C17.9447 6.64074 18.3207 6.2863 18.8698 6.09889C19.419 5.91148 20.2934 5.72815 21.4931 5.54889C21.831 5.53259 22 5.36963 22 5.06C22 4.76666 21.8479 4.61185 21.5438 4.59556C20.3272 4.36741 19.4401 4.15963 18.8825 3.97222C18.3249 3.78481 17.9489 3.44259 17.7546 2.94555C17.5603 2.44852 17.3871 1.62963 17.235 0.488889C17.2012 0.162962 17.0323 0 16.7281 0C16.4409 0 16.2803 0.162962 16.2465 0.488889C16.0945 1.64593 15.9213 2.48518 15.727 3.00667C15.5326 3.52815 15.1609 3.88259 14.6117 4.07C14.0626 4.25741 13.1713 4.43259 11.9378 4.59556C11.6336 4.61185 11.4816 4.76666 11.4816 5.06C11.4816 5.36963 11.6336 5.53259 11.9378 5.54889C13.1713 5.77704 14.0626 5.98889 14.6117 6.18444C15.1609 6.38 15.5326 6.72629 15.727 7.22333C15.9213 7.72037 16.0945 8.53111 16.2465 9.65556C16.2803 9.98148 16.4409 10.1444 16.7281 10.1444Z" fill="#6D75F4"/>
</g>
<defs>
<clipPath id="clip0_7702_142767">
<rect width="22" height="22" fill="white"/>
</clipPath>
</defs>
</svg>
