<svg width="36" height="33" viewBox="0 0 36 33" fill="none" xmlns="http://www.w3.org/2000/svg">
<g filter="url(#filter0_dd_6434_64142)">
<path d="M18.1586 23.9997H24.044C28.6524 23.9997 30.7993 20.8355 30.7993 15.8502C30.7993 11.7526 29.2447 7.74613 24.8399 7.74613H18.1586V23.9997ZM22.2303 11.912H23.5258C26.4685 11.912 26.7276 14.7575 26.7276 15.7819C26.7276 17.3071 26.3575 19.8339 23.8219 19.8339H22.2303V11.912Z" fill="#CDCDCD"/>
<path d="M9.39109 12.9146C9.35224 11.529 10.2069 10.8362 11.2557 10.8362C12.0521 10.8362 13.0232 11.2423 13.0232 12.2935C13.0232 13.5836 11.9938 13.7986 11.178 13.7986C10.6536 13.7986 10.3428 13.7269 10.0515 13.703V16.9521C10.3428 16.9043 10.6147 16.8327 11.178 16.8327C12.0715 16.8327 12.9844 17.0954 12.9844 18.5528C12.9844 19.9145 12.2851 20.4162 11.178 20.4162C10.4982 20.4162 9.93493 20.2251 9.5659 19.6756C9.19686 19.2456 9.02205 18.5766 9.04147 17.6927H5.35108C5.25397 18.935 5.27339 24.1909 11.3528 24.1909C15.7813 24.1909 17.0244 20.9896 17.0244 18.9589C17.0244 15.2559 14.8101 15.2559 14.8101 15.0648V15.017C14.8101 14.9453 16.5971 14.9453 16.5971 11.4573C16.5971 10.0478 15.2957 7.18098 11.3722 7.18098C9.85724 7.18098 8.45878 7.63489 7.42935 8.56661C6.39993 9.52223 5.75897 10.9556 5.73955 12.9146H9.39109Z" fill="#CDCDCD"/>
</g>
<defs>
<filter id="filter0_dd_6434_64142" x="0.780305" y="1.49239" width="34.5699" height="29.5248" filterUnits="userSpaceOnUse" color-interpolation-filters="sRGB">
<feFlood flood-opacity="0" result="BackgroundImageFix"/>
<feColorMatrix in="SourceAlpha" type="matrix" values="0 0 0 0 0 0 0 0 0 0 0 0 0 0 0 0 0 0 127 0" result="hardAlpha"/>
<feOffset dy="2.27544"/>
<feGaussianBlur stdDeviation="2.27544"/>
<feComposite in2="hardAlpha" operator="out"/>
<feColorMatrix type="matrix" values="0 0 0 0 0 0 0 0 0 0 0 0 0 0 0 0 0 0 0.5 0"/>
<feBlend mode="normal" in2="BackgroundImageFix" result="effect1_dropShadow_6434_64142"/>
<feColorMatrix in="SourceAlpha" type="matrix" values="0 0 0 0 0 0 0 0 0 0 0 0 0 0 0 0 0 0 127 0" result="hardAlpha"/>
<feOffset dy="-1.13772"/>
<feGaussianBlur stdDeviation="2.27544"/>
<feComposite in2="hardAlpha" operator="out"/>
<feColorMatrix type="matrix" values="0 0 0 0 0 0 0 0 0 0 0 0 0 0 0 0 0 0 0.5 0"/>
<feBlend mode="normal" in2="effect1_dropShadow_6434_64142" result="effect2_dropShadow_6434_64142"/>
<feBlend mode="normal" in="SourceGraphic" in2="effect2_dropShadow_6434_64142" result="shape"/>
</filter>
</defs>
</svg>
