<svg width="25" height="25" viewBox="0 0 25 25" fill="none" xmlns="http://www.w3.org/2000/svg">
<path fill-rule="evenodd" clip-rule="evenodd" d="M19.3089 15.5787V4.9786C19.3089 3.87403 20.2043 2.9786 21.3089 2.9786C22.4134 2.9786 23.3089 3.87403 23.3089 4.9786V20.3926C23.3092 20.4438 23.3076 20.495 23.3041 20.5461C23.2903 20.7477 23.2466 20.941 23.1774 21.1218C23.08 21.3768 22.9286 21.6159 22.7231 21.8214C22.5307 22.0138 22.3088 22.1588 22.072 22.2564C21.8368 22.3536 21.5791 22.4072 21.3089 22.4072H5.88028C4.77571 22.4072 3.88028 21.5117 3.88028 20.4072C3.88028 19.3026 4.77571 18.4072 5.88028 18.4072L16.4805 18.4072L3.60898 5.53565C2.82793 4.7546 2.82793 3.48827 3.60898 2.70722C4.39003 1.92617 5.65636 1.92617 6.43741 2.70722L19.3089 15.5787Z" fill="#6D75F4"/>
</svg>
