<svg width="25" height="24" viewBox="0 0 25 24" fill="none" xmlns="http://www.w3.org/2000/svg">
<path fill-rule="evenodd" clip-rule="evenodd" d="M12.6802 4.55463C12.0183 4.55463 11.3836 4.81754 10.9156 5.28551C10.4477 5.75349 10.1848 6.3882 10.1848 7.05002V10.5961C10.1848 11.1764 9.71435 11.6468 9.13407 11.6468C8.55379 11.6468 8.08338 11.1764 8.08338 10.5961V7.05002C8.08338 5.83088 8.56768 4.66167 9.42974 3.79961C10.2918 2.93755 11.461 2.45325 12.6802 2.45325C13.8993 2.45325 15.0685 2.93755 15.9306 3.79961C16.7926 4.66167 17.2769 5.83088 17.2769 7.05002V10.5961C17.2769 11.1764 16.8065 11.6468 16.2262 11.6468C15.646 11.6468 15.1755 11.1764 15.1755 10.5961V7.05002C15.1755 6.3882 14.9126 5.75349 14.4447 5.28551C13.9767 4.81754 13.342 4.55463 12.6802 4.55463Z" fill="#6D75F4"/>
<path d="M19.4566 9.29534H5.59203C5.22431 9.29534 4.87166 9.44141 4.61165 9.70142C4.35164 9.96143 4.20557 10.3141 4.20557 10.6818V20.387C4.20557 20.7547 4.35164 21.1074 4.61165 21.3674C4.87166 21.6274 5.22431 21.7735 5.59203 21.7735H19.4566C19.8243 21.7735 20.177 21.6274 20.437 21.3674C20.697 21.1074 20.8431 20.7547 20.8431 20.387V10.6818C20.8431 10.3141 20.697 9.96143 20.437 9.70142C20.177 9.44141 19.8243 9.29534 19.4566 9.29534ZM13.2175 16.8169V18.3073C13.2175 18.4912 13.1445 18.6675 13.0145 18.7975C12.8845 18.9275 12.7082 19.0005 12.5243 19.0005C12.3405 19.0005 12.1641 18.9275 12.0341 18.7975C11.9041 18.6675 11.8311 18.4912 11.8311 18.3073V16.8169C11.2726 16.6504 10.7927 16.2884 10.4791 15.7971C10.1655 15.3058 10.0393 14.7181 10.1234 14.1414C10.2076 13.5647 10.4965 13.0376 10.9373 12.6564C11.3782 12.2752 11.9415 12.0654 12.5243 12.0654C13.1071 12.0654 13.6705 12.2752 14.1113 12.6564C14.5522 13.0376 14.8411 13.5647 14.9252 14.1414C15.0093 14.7181 14.8831 15.3058 14.5695 15.7971C14.256 16.2884 13.7761 16.6504 13.2175 16.8169Z" fill="#6D75F4"/>
</svg>
