<svg width="24" height="24" viewBox="0 0 24 24" fill="none" xmlns="http://www.w3.org/2000/svg">
<g clip-path="url(#clip0_6612_151883)">
<path fill-rule="evenodd" clip-rule="evenodd" d="M11.9999 0.461815C12.5973 0.461815 13.0816 0.946111 13.0816 1.54352V2.98579C13.0816 3.5832 12.5973 4.0675 11.9999 4.0675C11.4024 4.0675 10.9182 3.5832 10.9182 2.98579V1.54352C10.9182 0.946111 11.4024 0.461815 11.9999 0.461815ZM3.84333 3.84347C4.26576 3.42104 4.95065 3.42104 5.37309 3.84347L6.39169 4.86208C6.81412 5.28451 6.81412 5.96941 6.39169 6.39184C5.96926 6.81427 5.28436 6.81427 4.86193 6.39184L3.84333 5.37323C3.42089 4.9508 3.42089 4.2659 3.84333 3.84347ZM20.1567 3.84347C20.5791 4.2659 20.5791 4.9508 20.1567 5.37323L19.1381 6.39184C18.7156 6.81427 18.0307 6.81427 17.6083 6.39184C17.1859 5.96941 17.1859 5.28451 17.6083 4.86207L18.6269 3.84347C19.0493 3.42104 19.7342 3.42104 20.1567 3.84347ZM11.9999 7.67318C9.61022 7.67318 7.67304 9.61036 7.67304 12C7.67304 14.3896 9.61022 16.3268 11.9999 16.3268C14.3895 16.3268 16.3267 14.3896 16.3267 12C16.3267 9.61037 14.3895 7.67318 11.9999 7.67318ZM5.50963 12C5.50963 8.41555 8.4154 5.50977 11.9999 5.50977C15.5843 5.50977 18.4901 8.41555 18.4901 12C18.4901 15.5845 15.5843 18.4902 11.9999 18.4902C8.4154 18.4902 5.50963 15.5845 5.50963 12ZM0.46167 12C0.46167 11.4026 0.945966 10.9183 1.54338 10.9183H2.98565C3.58306 10.9183 4.06735 11.4026 4.06735 12C4.06735 12.5974 3.58306 13.0817 2.98565 13.0817H1.54338C0.945966 13.0817 0.46167 12.5974 0.46167 12ZM19.9324 12C19.9324 11.4026 20.4167 10.9183 21.0141 10.9183H22.4563C23.0537 10.9183 23.538 11.4026 23.538 12C23.538 12.5974 23.0537 13.0817 22.4563 13.0817H21.0141C20.4167 13.0817 19.9324 12.5974 19.9324 12ZM17.6083 17.6081C18.0307 17.1857 18.7156 17.1857 19.1381 17.6081L20.1567 18.6267C20.5791 19.0491 20.5791 19.734 20.1567 20.1565C19.7342 20.5789 19.0493 20.5789 18.6269 20.1565L17.6083 19.1379C17.1859 18.7154 17.1859 18.0305 17.6083 17.6081ZM6.39169 17.6082C6.81412 18.0306 6.81412 18.7155 6.39169 19.1379L5.37309 20.1566C4.95066 20.579 4.26576 20.579 3.84333 20.1566C3.42089 19.7341 3.42089 19.0492 3.84332 18.6268L4.86193 17.6082C5.28436 17.1858 5.96926 17.1858 6.39169 17.6082ZM11.9999 19.9325C12.5973 19.9325 13.0816 20.4168 13.0816 21.0142V22.4565C13.0816 23.0539 12.5973 23.5382 11.9999 23.5382C11.4024 23.5382 10.9182 23.0539 10.9182 22.4565V21.0142C10.9182 20.4168 11.4024 19.9325 11.9999 19.9325Z" fill="#6D75F4"/>
</g>
<defs>
<clipPath id="clip0_6612_151883">
<rect width="24" height="24" fill="white"/>
</clipPath>
</defs>
</svg>
