<svg width="20" height="18" viewBox="0 0 20 18" fill="none" xmlns="http://www.w3.org/2000/svg">
<path fill-rule="evenodd" clip-rule="evenodd" d="M10.0001 6.23091C10.5717 6.23091 11.0351 6.69583 11.0351 7.26935V10.0386C11.0351 10.6121 10.5717 11.077 10.0001 11.077C9.42854 11.077 8.96516 10.6121 8.96516 10.0386V7.26935C8.96516 6.69583 9.42854 6.23091 10.0001 6.23091Z" fill="#6D75F4"/>
<path fill-rule="evenodd" clip-rule="evenodd" d="M8.79286 0.325772C9.15961 0.112383 9.57604 0 10 0C10.424 0 10.8404 0.112383 11.2071 0.325772C11.573 0.538664 11.8765 0.844553 12.087 1.2126C12.0875 1.21346 12.088 1.21431 12.0885 1.21517L19.6764 14.3654C19.888 14.7331 19.9996 15.1502 20 15.5748C20.0004 15.9994 19.8895 16.4167 19.6786 16.7848C19.4676 17.1529 19.164 17.4589 18.798 17.6722C18.4321 17.8855 18.0167 17.9985 17.5935 18L17.5899 18H2.41011L2.40646 18C1.98327 17.9985 1.5679 17.8855 1.20196 17.6722C0.836021 17.4589 0.532367 17.1529 0.321417 16.7848C0.110467 16.4167 -0.000374017 15.9994 9.48205e-07 15.5748C0.000375804 15.1502 0.111952 14.7331 0.323553 14.3654L7.91148 1.21517C7.91197 1.21432 7.91246 1.21346 7.91295 1.2126C8.12347 0.844553 8.42696 0.538664 8.79286 0.325772ZM8.80976 1.73097L9.70547 2.25127L2.11619 15.4039C2.11626 15.4038 2.11613 15.404 2.11619 15.4039C2.08609 15.4563 2.07002 15.5161 2.06997 15.5767C2.06992 15.6373 2.08575 15.6969 2.11589 15.7495C2.14602 15.8021 2.1894 15.8458 2.24168 15.8763C2.29365 15.9066 2.35261 15.9227 2.4127 15.9231H17.5873C17.6474 15.9227 17.7063 15.9066 17.7583 15.8763C17.8106 15.8458 17.854 15.8021 17.8841 15.7495C17.9142 15.6969 17.9301 15.6373 17.93 15.5767C17.93 15.5162 17.9141 15.4568 17.8841 15.4044C17.8842 15.4045 17.884 15.4042 17.8841 15.4044L10.2919 2.24677C10.2625 2.19516 10.22 2.15226 10.1687 2.12244C10.1175 2.09261 10.0593 2.0769 10 2.0769C9.94074 2.0769 9.88253 2.09261 9.83126 2.12244C9.77999 2.15227 9.73749 2.19515 9.70805 2.24676L8.80976 1.73097Z" fill="#6D75F4"/>
<path d="M10.0001 14.8846C10.7623 14.8846 11.3801 14.2647 11.3801 13.5C11.3801 12.7354 10.7623 12.1154 10.0001 12.1154C9.238 12.1154 8.62016 12.7354 8.62016 13.5C8.62016 14.2647 9.238 14.8846 10.0001 14.8846Z" fill="#6D75F4"/>
</svg>
