<svg width="26" height="26" viewBox="0 0 26 26" fill="none" xmlns="http://www.w3.org/2000/svg">
<g clip-path="url(#clip0_7795_142874)">
<path fill-rule="evenodd" clip-rule="evenodd" d="M25.9998 13.2956C25.9998 12.3737 25.9154 11.4874 25.7586 10.6365H13.2652V15.6651H20.4043C20.0968 17.2901 19.1622 18.6669 17.7573 19.5887V22.8506H22.0444C24.5527 20.5874 25.9998 17.2547 25.9998 13.2956Z" fill="#4285F4"/>
<path fill-rule="evenodd" clip-rule="evenodd" d="M13.265 26C16.8466 26 19.8493 24.8359 22.0441 22.8504L17.7571 19.5886C16.5692 20.3686 15.0498 20.8295 13.265 20.8295C9.80999 20.8295 6.88562 18.5427 5.84249 15.47H1.41071V18.8382C3.59344 23.0868 8.07949 26 13.265 26Z" fill="#34A853"/>
<path fill-rule="evenodd" clip-rule="evenodd" d="M5.84254 15.4702C5.57724 14.6902 5.42649 13.857 5.42649 13.0002C5.42649 12.1434 5.57724 11.3102 5.84254 10.5302V7.16199H1.41075C0.512336 8.91699 -0.000183105 10.9024 -0.000183105 13.0002C-0.000183105 15.0979 0.512336 17.0834 1.41075 18.8384L5.84254 15.4702Z" fill="#FBBC05"/>
<path fill-rule="evenodd" clip-rule="evenodd" d="M13.265 5.17058C15.2126 5.17058 16.9612 5.82649 18.3359 7.11467L22.1406 3.38603C19.8433 1.2883 16.8406 0.00012207 13.265 0.00012207C8.07949 0.00012207 3.59344 2.9133 1.41071 7.16194L5.84249 10.5301C6.88562 7.4574 9.81 5.17058 13.265 5.17058Z" fill="#EA4335"/>
</g>
<defs>
<clipPath id="clip0_7795_142874">
<rect width="26" height="26" fill="white"/>
</clipPath>
</defs>
</svg>
