<svg width="30" height="30" viewBox="0 0 30 30" fill="none" xmlns="http://www.w3.org/2000/svg">
<path fill-rule="evenodd" clip-rule="evenodd" d="M27.9998 15.2956C27.9998 14.3737 27.9154 13.4874 27.7586 12.6365H15.2652V17.6651H22.4043C22.0968 19.2901 21.1622 20.6669 19.7573 21.5887V24.8506H24.0444C26.5527 22.5874 27.9998 19.2547 27.9998 15.2956Z" fill="#4285F4"/>
<path fill-rule="evenodd" clip-rule="evenodd" d="M15.265 28C18.8466 28 21.8493 26.8359 24.0441 24.8504L19.7571 21.5886C18.5692 22.3686 17.0498 22.8295 15.265 22.8295C11.81 22.8295 8.88562 20.5427 7.84249 17.47H3.41071V20.8382C5.59344 25.0868 10.0795 28 15.265 28Z" fill="#34A853"/>
<path fill-rule="evenodd" clip-rule="evenodd" d="M7.84254 17.4702C7.57724 16.6902 7.42649 15.857 7.42649 15.0002C7.42649 14.1434 7.57724 13.3102 7.84254 12.5302V9.16199H3.41075C2.51234 10.917 1.99982 12.9024 1.99982 15.0002C1.99982 17.0979 2.51234 19.0834 3.41075 20.8384L7.84254 17.4702Z" fill="#FBBC05"/>
<path fill-rule="evenodd" clip-rule="evenodd" d="M15.265 7.17058C17.2126 7.17058 18.9612 7.82649 20.3359 9.11467L24.1406 5.38603C21.8433 3.2883 18.8406 2.00012 15.265 2.00012C10.0795 2.00012 5.59344 4.9133 3.41071 9.16194L7.84249 12.5301C8.88562 9.4574 11.81 7.17058 15.265 7.17058Z" fill="#EA4335"/>
</svg>
