<svg width="36" height="36" viewBox="0 0 36 36" fill="none" xmlns="http://www.w3.org/2000/svg">
<path fill-rule="evenodd" clip-rule="evenodd" d="M18 34.5C27.1127 34.5 34.5 27.1127 34.5 18C34.5 8.8873 27.1127 1.5 18 1.5C8.8873 1.5 1.5 8.8873 1.5 18C1.5 27.1127 8.8873 34.5 18 34.5ZM36 18C36 27.9411 27.9411 36 18 36C8.05888 36 0 27.9411 0 18C0 8.05888 8.05888 0 18 0C27.9411 0 36 8.05888 36 18Z" fill="#6D75F4"/>
<path d="M18.0112 23.3664C18.981 23.3664 19.8725 23.1215 20.6857 22.6316C21.4988 22.1417 22.1516 21.4922 22.6439 20.6832C23.1363 19.8742 23.3825 18.9798 23.3825 18C23.3825 17.0202 23.1363 16.1258 22.6439 15.3168C22.1516 14.5078 21.4988 13.8583 20.6857 13.3684C19.8725 12.8785 18.981 12.6336 18.0112 12.6336C17.0264 12.6336 16.1275 12.8785 15.3143 13.3684C14.5012 13.8583 13.8522 14.5078 13.3672 15.3168C12.8823 16.1258 12.6399 17.0202 12.6399 18C12.6399 18.9798 12.8823 19.8742 13.3672 20.6832C13.8522 21.4922 14.5012 22.1417 15.3143 22.6316C16.1275 23.1215 17.0264 23.3664 18.0112 23.3664ZM18.0112 7C17.6829 7 17.3995 7.12247 17.1607 7.36741C16.922 7.61235 16.8026 7.89069 16.8026 8.20243V10.2287C16.8026 10.5405 16.922 10.8188 17.1607 11.0638C17.3995 11.3087 17.6829 11.4312 18.0112 11.4312C18.3245 11.4312 18.6043 11.3087 18.8505 11.0638C19.0966 10.8188 19.2197 10.5405 19.2197 10.2287V8.20243C19.2197 7.89069 19.0966 7.61235 18.8505 7.36741C18.6043 7.12247 18.3245 7 18.0112 7ZM25.822 10.2287C25.5683 9.99123 25.2737 9.87247 24.9379 9.87247C24.6022 9.87247 24.3299 9.99123 24.1211 10.2287L22.6663 11.6761C22.4276 11.9285 22.312 12.2179 22.3194 12.5445C22.3269 12.8711 22.4425 13.1457 22.6663 13.3684C22.8901 13.6059 23.1699 13.7247 23.5056 13.7247C23.8413 13.7247 24.1285 13.6059 24.3672 13.3684L25.822 11.9211C26.0458 11.6984 26.1577 11.42 26.1577 11.086C26.1577 10.752 26.0458 10.4663 25.822 10.2287ZM29 18C29 17.6734 28.8844 17.3914 28.6531 17.1538C28.4218 16.9163 28.1421 16.7976 27.8138 16.7976H25.7996C25.4713 16.7976 25.1879 16.9163 24.9491 17.1538C24.7104 17.3914 24.591 17.6734 24.591 18C24.591 18.3266 24.7104 18.6086 24.9491 18.8462C25.1879 19.0837 25.4713 19.2024 25.7996 19.2024H27.8138C28.1421 19.2024 28.4218 19.0837 28.6531 18.8462C28.8844 18.6086 29 18.3266 29 18ZM25.822 25.7713C26.0607 25.5337 26.1763 25.248 26.1689 24.914C26.1614 24.58 26.0458 24.3016 25.822 24.0789L24.3449 22.6316C24.1211 22.4089 23.8413 22.2976 23.5056 22.2976C23.1699 22.2976 22.8901 22.4089 22.6663 22.6316C22.4276 22.8691 22.3082 23.1549 22.3082 23.4889C22.3082 23.8229 22.4276 24.1086 22.6663 24.3462L24.1211 25.7713C24.3449 26.0088 24.6209 26.1275 24.9491 26.1275C25.2774 26.1275 25.5683 26.0088 25.822 25.7713ZM18.0112 29C18.3245 29 18.6043 28.8775 18.8505 28.6326C19.0966 28.3876 19.2197 28.1093 19.2197 27.7976V25.7713C19.2197 25.4595 19.0966 25.1812 18.8505 24.9362C18.6043 24.6913 18.3245 24.5688 18.0112 24.5688C17.6829 24.5688 17.3995 24.6913 17.1607 24.9362C16.922 25.1812 16.8026 25.4595 16.8026 25.7713V27.7976C16.8026 28.1093 16.922 28.3876 17.1607 28.6326C17.3995 28.8775 17.6829 29 18.0112 29ZM10.178 25.749C10.4168 25.9865 10.704 26.109 11.0397 26.1164C11.3754 26.1238 11.6626 26.0088 11.9013 25.7713L13.3337 24.3462C13.5724 24.1086 13.6918 23.8266 13.6918 23.5C13.6918 23.1734 13.5724 22.8839 13.3337 22.6316C13.1099 22.4089 12.8264 22.2976 12.4832 22.2976C12.14 22.2976 11.8566 22.4089 11.6328 22.6316L10.178 24.0789C9.95422 24.3016 9.84232 24.58 9.84232 24.914C9.84232 25.248 9.95422 25.5263 10.178 25.749ZM7 18C7 18.3266 7.11563 18.6086 7.3469 18.8462C7.57816 19.0837 7.85792 19.2024 8.18616 19.2024H10.2004C10.5287 19.2024 10.8121 19.0837 11.0509 18.8462C11.2896 18.6086 11.409 18.3266 11.409 18C11.409 17.6734 11.2896 17.3914 11.0509 17.1538C10.8121 16.9163 10.5287 16.7976 10.2004 16.7976H8.18616C7.85792 16.7976 7.57816 16.9163 7.3469 17.1538C7.11563 17.3914 7 17.6734 7 18ZM10.2004 10.2287C9.9766 10.4663 9.86097 10.752 9.85351 11.086C9.84605 11.42 9.95422 11.6984 10.178 11.9211L11.6328 13.3684C11.8715 13.6059 12.155 13.7247 12.4832 13.7247C12.8115 13.7247 13.0949 13.6059 13.3337 13.3684C13.5724 13.1309 13.6918 12.8489 13.6918 12.5223C13.6918 12.1957 13.5724 11.9136 13.3337 11.6761L11.9013 10.2287C11.6775 10.0061 11.3978 9.89103 11.0621 9.8836C10.7263 9.87618 10.4391 9.99123 10.2004 10.2287Z" fill="#6D75F4"/>
</svg>
