<svg width="24" height="24" viewBox="0 0 24 24" fill="none" xmlns="http://www.w3.org/2000/svg">
<path d="M13.8792 21.8641C13.5767 21.598 13.375 21.2434 13.2742 20.8355L13.1733 20.4187C12.7883 20.4719 12.4033 20.5074 12 20.5074C11.4592 20.5074 10.9275 20.4542 10.4142 20.3655C9.86417 19.7892 9.37833 18.9291 8.98417 17.9094C9.9375 17.8473 10.9367 17.803 12 17.803C12.1833 17.803 12.3575 17.803 12.5408 17.8118L12.3208 16.9251C12.2108 16.9251 12.11 16.9251 12 16.9251C10.8542 16.9251 9.75417 16.9695 8.68167 17.0493C8.26 15.7015 7.985 14.1675 7.9025 12.6335C8.99333 12.7311 10.13 12.7931 11.3125 12.8109L11.1292 12.0483C11.1292 12.0483 11.1292 11.9596 11.1108 11.9153C9.97417 11.8887 8.8925 11.8355 7.875 11.738C7.875 11.7025 7.875 11.6759 7.875 11.6404C7.875 9.99116 8.11333 8.27983 8.52583 6.76357C9.635 6.85224 10.7992 6.89658 12 6.89658C13.2008 6.89658 14.3558 6.84338 15.4742 6.76357C15.85 8.13796 16.07 9.67194 16.1067 11.1793L18.0867 12.3941C19.1867 12.2345 20.2225 12.0306 21.1575 11.7912C21.1483 12.5803 21.02 13.3429 20.8092 14.0611L21.6067 14.5488C21.9458 14.7793 22.1658 15.0187 22.3217 15.2847C22.7525 14.1498 23 12.9173 23 11.6404C23 11.5074 22.9817 11.3744 22.9817 11.2414C22.7617 5.5488 17.94 1.00003 12 1.00003C8.13167 0.991163 4.74 2.92417 2.77833 5.84141C1.72417 7.402 1.10083 9.24633 1.01833 11.2325C1.01833 11.3655 1 11.4985 1 11.6315C1 13.9636 1.78833 16.1182 3.10833 17.8739C5.10667 20.534 8.3425 22.2719 12 22.2719C12.7333 22.2719 13.4575 22.201 14.1542 22.068C14.0533 22.0059 13.9617 21.9439 13.8792 21.8641ZM21.13 10.869C20.0208 11.1616 18.7283 11.4187 17.2708 11.6049C17.2708 9.81382 17.0417 8.12909 16.6567 6.6483C17.5733 6.55077 18.4533 6.42663 19.2875 6.26702C20.3142 7.57047 20.9833 9.14879 21.13 10.869ZM18.6 5.48673C17.9125 5.602 17.1792 5.69953 16.4092 5.77934C16.1158 4.8749 15.7492 4.05914 15.3367 3.37638C16.5833 3.84633 17.6925 4.57343 18.6092 5.48673H18.6ZM10.4142 2.90643C10.9275 2.81776 11.4592 2.76456 12 2.76456C12.5408 2.76456 13.0725 2.81776 13.5858 2.90643C14.2275 3.58032 14.7867 4.6355 15.2083 5.88574C14.2 5.95668 13.1275 6.00101 12 6.00101C10.8725 6.00101 9.8 5.95668 8.79167 5.88574C9.21333 4.6355 9.7725 3.58032 10.4142 2.90643ZM8.68167 3.37638C8.26917 4.05914 7.9025 4.8749 7.60917 5.77934C6.83917 5.69953 6.10583 5.602 5.41833 5.48673C6.335 4.57343 7.44417 3.84633 8.69083 3.37638H8.68167ZM4.72167 6.26702C5.54667 6.41776 6.42667 6.5419 7.3525 6.6483C6.95833 8.12909 6.73833 9.81382 6.73833 11.6049C5.29 11.4187 3.9975 11.1705 2.87917 10.869C3.035 9.14879 3.695 7.57047 4.72167 6.26702ZM2.8425 11.7823C4.01583 12.0838 5.32667 12.3232 6.75667 12.5005C6.82083 14.1941 7.08667 15.7724 7.49917 17.1468C6.67417 17.2355 5.8675 17.3419 5.11583 17.466C3.73167 15.9409 2.87917 13.9547 2.8425 11.7823ZM5.91333 18.2463C6.50917 18.1577 7.1325 18.0779 7.7925 18.0069C8.04917 18.7074 8.35167 19.337 8.68167 19.8867C7.655 19.4966 6.72 18.9379 5.91333 18.2375V18.2463Z" fill="#6D75F4"/>
<path d="M16.8767 18.8581L19.7092 22.7419C19.81 22.8838 19.9475 22.9636 20.1033 22.9902C20.2683 23.0168 20.415 22.9902 20.5433 22.9015L21.57 22.1212C21.6617 22.0503 21.7808 21.9173 21.79 21.7133C21.79 21.5626 21.7442 21.4207 21.6342 21.2966L18.6917 17.4749L20.6808 16.8453C20.8275 16.801 20.9375 16.7389 21.02 16.6591C21.1025 16.5705 21.1667 16.4641 21.185 16.3399C21.2125 16.2069 21.1942 16.0828 21.1392 15.9675C21.0842 15.8611 20.9925 15.7636 20.8733 15.6749L13.375 11.0729C13.2467 10.9931 13.1275 10.9577 13.0083 10.9577C12.8525 10.9399 12.7608 10.9931 12.66 11.0729C12.55 11.1527 12.4858 11.2503 12.4492 11.3655C12.4217 11.4719 12.4217 11.5961 12.4492 11.7291L14.6033 20.5429C14.64 20.6936 14.7042 20.8089 14.7958 20.8887C14.8967 20.9774 15.0158 21.0217 15.1625 21.0306C15.4375 21.0394 15.6667 20.933 15.8133 20.7025V20.6936L16.8583 18.867L16.8767 18.8581Z" fill="#6D75F4"/>
</svg>
