<svg width="26" height="20" viewBox="0 0 26 20" fill="none" xmlns="http://www.w3.org/2000/svg">
<g clip-path="url(#clip0_7009_9721)">
<path fill-rule="evenodd" clip-rule="evenodd" d="M1.10803 2.54659C1.10803 1.64625 1.8379 0.916382 2.73824 0.916382H23.1158C24.0161 0.916382 24.746 1.64625 24.746 2.54659C24.746 3.44693 24.0161 4.17679 23.1158 4.17679H2.73824C1.8379 4.17679 1.10803 3.44693 1.10803 2.54659Z" fill="#A2A4BA"/>
<path fill-rule="evenodd" clip-rule="evenodd" d="M1.10803 9.88253C1.10803 8.98219 1.8379 8.25232 2.73824 8.25232H23.1158C24.0161 8.25232 24.746 8.98219 24.746 9.88253C24.746 10.7829 24.0161 11.5127 23.1158 11.5127H2.73824C1.8379 11.5127 1.10803 10.7829 1.10803 9.88253Z" fill="#A2A4BA"/>
<path fill-rule="evenodd" clip-rule="evenodd" d="M1.10803 17.2183C1.10803 16.318 1.8379 15.5881 2.73824 15.5881H23.1158C24.0161 15.5881 24.746 16.318 24.746 17.2183C24.746 18.1187 24.0161 18.8485 23.1158 18.8485H2.73824C1.8379 18.8485 1.10803 18.1187 1.10803 17.2183Z" fill="#A2A4BA"/>
</g>
<defs>
<clipPath id="clip0_7009_9721">
<rect width="24.9167" height="18.4167" fill="white" transform="translate(0.541687 0.791626)"/>
</clipPath>
</defs>
</svg>
