<svg width="36" height="36" viewBox="0 0 36 36" fill="none" xmlns="http://www.w3.org/2000/svg">
<rect width="36" height="36" rx="18" fill="#1F1F2B"/>
<circle cx="18" cy="18" r="18" fill="#1F1F2B"/>
<g clip-path="url(#clip0_7706_156663)">
<path d="M8 18.0101C8 18.4011 8.14493 18.7415 8.43478 19.0313C8.72464 19.3212 9.06505 19.4661 9.45602 19.4661H16.5541V26.544C16.5541 26.9484 16.6957 27.2922 16.9788 27.5753C17.2619 27.8584 17.6057 28 18.0101 28C18.4011 28 18.7415 27.8584 19.0313 27.5753C19.3212 27.2922 19.4661 26.9484 19.4661 26.544V19.4661H26.544C26.9484 19.4661 27.2922 19.3212 27.5753 19.0313C27.8584 18.7415 28 18.4011 28 18.0101C28 17.6057 27.8584 17.2619 27.5753 16.9788C27.2922 16.6957 26.9484 16.5541 26.544 16.5541H19.4661V9.45602C19.4661 9.06505 19.3212 8.72464 19.0313 8.43478C18.7415 8.14493 18.4011 8 18.0101 8C17.6057 8 17.2619 8.14493 16.9788 8.43478C16.6957 8.72464 16.5541 9.06505 16.5541 9.45602V16.5541H9.45602C9.06505 16.5541 8.72464 16.6957 8.43478 16.9788C8.14493 17.2619 8 17.6057 8 18.0101Z" fill="#6D75F4"/>
</g>
<defs>
<clipPath id="clip0_7706_156663">
<rect width="20" height="20" fill="white" transform="translate(8 8)"/>
</clipPath>
</defs>
</svg>
