<svg width="36" height="36" viewBox="0 0 36 36" fill="none" xmlns="http://www.w3.org/2000/svg">
<path fill-rule="evenodd" clip-rule="evenodd" d="M18 36C27.9411 36 36 27.9411 36 18C36 8.05887 27.9411 0 18 0C8.05887 0 0 8.05887 0 18C0 27.9411 8.05887 36 18 36ZM14.9321 17.1358H10.1963C9.46419 17.1358 8.91512 16.9483 8.54907 16.5734C8.18302 16.1984 8 15.636 8 14.8861V10.2497C8 9.49977 8.18302 8.93736 8.54907 8.56241C8.91512 8.18747 9.46419 8 10.1963 8H14.9321C15.6642 8 16.2132 8.18747 16.5793 8.56241C16.9453 8.93736 17.1283 9.49977 17.1283 10.2497V14.8861C17.1283 15.636 16.9453 16.1984 16.5793 16.5734C16.2132 16.9483 15.6642 17.1358 14.9321 17.1358ZM9.71585 14.8861C9.71585 15.2337 9.88058 15.4074 10.21 15.4074H14.9046C15.2432 15.4074 15.4125 15.2337 15.4125 14.8861V10.2359C15.4125 9.89757 15.2432 9.7284 14.9046 9.7284H10.21C9.88058 9.7284 9.71585 9.89757 9.71585 10.2359V14.8861ZM13.5045 13.7339H11.6102C11.4637 13.7339 11.3905 13.647 11.3905 13.4733V11.6488C11.3905 11.4842 11.4637 11.4019 11.6102 11.4019H13.5045C13.66 11.4019 13.7378 11.4842 13.7378 11.6488V13.4733C13.7378 13.647 13.66 13.7339 13.5045 13.7339ZM25.8037 17.1358H21.0679C20.3358 17.1358 19.7868 16.9483 19.4207 16.5734C19.0547 16.1984 18.8717 15.636 18.8717 14.8861V10.2497C18.8717 9.49977 19.0547 8.93736 19.4207 8.56241C19.7868 8.18747 20.3358 8 21.0679 8H25.8037C26.545 8 27.0963 8.18747 27.4578 8.56241C27.8193 8.93736 28 9.49977 28 10.2497V14.8861C28 15.636 27.8193 16.1984 27.4578 16.5734C27.0963 16.9483 26.545 17.1358 25.8037 17.1358ZM20.5875 14.8861C20.5875 15.2337 20.7568 15.4074 21.0954 15.4074H25.79C26.1194 15.4074 26.2841 15.2337 26.2841 14.8861V10.2359C26.2841 9.89757 26.1194 9.7284 25.79 9.7284H21.0954C20.7568 9.7284 20.5875 9.89757 20.5875 10.2359V14.8861ZM24.4585 13.7339H22.5642C22.4178 13.7339 22.3445 13.647 22.3445 13.4733V11.6488C22.3445 11.4842 22.4178 11.4019 22.5642 11.4019H24.4585C24.614 11.4019 24.6918 11.4842 24.6918 11.6488V13.4733C24.6918 13.647 24.614 13.7339 24.4585 13.7339ZM14.9321 28H10.1963C9.46419 28 8.91512 27.8148 8.54907 27.4444C8.18302 27.0741 8 26.5094 8 25.7503V21.1139C8 20.364 8.18302 19.8038 8.54907 19.4335C8.91512 19.0631 9.46419 18.8779 10.1963 18.8779H14.9321C15.6642 18.8779 16.2132 19.0631 16.5793 19.4335C16.9453 19.8038 17.1283 20.364 17.1283 21.1139V25.7503C17.1283 26.5094 16.9453 27.0741 16.5793 27.4444C16.2132 27.8148 15.6642 28 14.9321 28ZM9.71585 25.7641C9.71585 26.1024 9.88058 26.2716 10.21 26.2716H14.9046C15.2432 26.2716 15.4125 26.1024 15.4125 25.7641V21.1139C15.4125 20.7663 15.2432 20.5926 14.9046 20.5926H10.21C9.88058 20.5926 9.71585 20.7663 9.71585 21.1139V25.7641ZM13.5045 24.5981H11.6102C11.4637 24.5981 11.3905 24.5112 11.3905 24.3374V22.513C11.3905 22.3484 11.4637 22.2661 11.6102 22.2661H13.5045C13.66 22.2661 13.7378 22.3484 13.7378 22.513V24.3374C13.7378 24.5112 13.66 24.5981 13.5045 24.5981ZM21.5209 21.7449H19.6266C19.4802 21.7449 19.407 21.658 19.407 21.4842V19.6598C19.407 19.4952 19.4802 19.4129 19.6266 19.4129H21.5209C21.6765 19.4129 21.7543 19.4952 21.7543 19.6598V21.4842C21.7543 21.658 21.6765 21.7449 21.5209 21.7449ZM27.4647 21.4842C27.4647 21.658 27.3869 21.7449 27.2313 21.7449H25.337C25.1906 21.7449 25.1174 21.658 25.1174 21.4842V19.6598C25.1174 19.4952 25.1906 19.4129 25.337 19.4129H27.2313C27.3869 19.4129 27.4647 19.4952 27.4647 19.6598V21.4842ZM24.4036 24.5981H22.5093C22.3628 24.5981 22.2896 24.5112 22.2896 24.3374V22.513C22.2896 22.3484 22.3628 22.2661 22.5093 22.2661H24.4036C24.5591 22.2661 24.6369 22.3484 24.6369 22.513V24.3374C24.6369 24.5112 24.5591 24.5981 24.4036 24.5981ZM21.5209 27.4513H19.6266C19.4802 27.4513 19.407 27.3644 19.407 27.1907V25.3663C19.407 25.2016 19.4802 25.1193 19.6266 25.1193H21.5209C21.6765 25.1193 21.7543 25.2016 21.7543 25.3663V27.1907C21.7543 27.3644 21.6765 27.4513 21.5209 27.4513ZM27.4647 27.1907C27.4647 27.3644 27.3869 27.4513 27.2313 27.4513H25.337C25.1906 27.4513 25.1174 27.3644 25.1174 27.1907V25.3663C25.1174 25.2016 25.1906 25.1193 25.337 25.1193H27.2313C27.3869 25.1193 27.4647 25.2016 27.4647 25.3663V27.1907Z" fill="#6D75F4"/>
</svg>
