<svg width="24" height="24" viewBox="0 0 24 24" fill="none" xmlns="http://www.w3.org/2000/svg">
<g clip-path="url(#clip0_7702_143321)">
<path d="M5.21558 22.7904C5.44881 22.9734 5.70703 23.0366 5.99023 22.9799C6.27344 22.9233 6.58163 22.7642 6.91481 22.5028L12 18.5944L17.0977 22.5028C17.4309 22.7642 17.7391 22.9233 18.0223 22.9799C18.3055 23.0366 18.5595 22.9734 18.7844 22.7904C19.0093 22.6074 19.1426 22.3699 19.1842 22.078C19.2259 21.786 19.1801 21.4353 19.0468 21.0257L17.0352 14.7644L22.1704 10.9083C22.5036 10.6643 22.7389 10.4094 22.8763 10.1436C23.0137 9.8778 23.0366 9.60112 22.945 9.31355C22.8534 9.03468 22.6806 8.8299 22.4265 8.69918C22.1725 8.56846 21.8372 8.50311 21.4207 8.50311L15.1236 8.55539L13.2119 2.25487C13.087 1.8453 12.9246 1.53376 12.7247 1.32025C12.5248 1.10675 12.2832 1 12 1C11.7168 1 11.4773 1.10675 11.2816 1.32025C11.0858 1.53376 10.9213 1.8453 10.7881 2.25487L8.87642 8.55539L2.57928 8.50311C2.17113 8.50311 1.83795 8.56846 1.57974 8.69918C1.32152 8.8299 1.1466 9.03468 1.05498 9.31355C0.96335 9.60112 0.986256 9.8778 1.12369 10.1436C1.26113 10.4094 1.49644 10.6643 1.82962 10.9083L6.96479 14.7644L4.9532 21.0257C4.81993 21.4353 4.77412 21.786 4.81577 22.078C4.85741 22.3699 4.99069 22.6074 5.21558 22.7904ZM6.85234 20.4506C6.84401 20.4331 6.84401 20.4026 6.85234 20.3591L8.76397 14.7121C8.83061 14.4943 8.8431 14.2982 8.80145 14.1239C8.75981 13.9496 8.64319 13.7971 8.45161 13.6664L3.72876 10.2939C3.69544 10.2678 3.68295 10.2416 3.69128 10.2155C3.69961 10.1981 3.72459 10.1893 3.76624 10.1893L9.48864 10.3201C9.70521 10.3288 9.88429 10.283 10.0259 10.1828C10.1675 10.0826 10.2716 9.9192 10.3383 9.69262L11.95 3.95418C11.9584 3.91061 11.975 3.88883 12 3.88883C12.025 3.88883 12.0416 3.91061 12.05 3.95418L13.6617 9.69262C13.7367 9.9192 13.8429 10.0826 13.9803 10.1828C14.1178 10.283 14.299 10.3288 14.5239 10.3201L20.2338 10.1893C20.2754 10.1893 20.3004 10.1981 20.3087 10.2155C20.3171 10.2416 20.3046 10.2678 20.2712 10.2939L15.5484 13.6664C15.3651 13.7971 15.2506 13.9496 15.2048 14.1239C15.159 14.2982 15.1736 14.4943 15.2485 14.7121L17.1477 20.3591C17.156 20.4026 17.156 20.4331 17.1477 20.4506C17.1393 20.468 17.1143 20.4593 17.0727 20.4244L12.5373 16.7774C12.3707 16.638 12.1937 16.5683 12.0062 16.5683C11.8188 16.5683 11.6377 16.638 11.4627 16.7774L6.9398 20.4244C6.89815 20.4593 6.869 20.468 6.85234 20.4506Z" fill="#6D75F4"/>
<path d="M6.42574 20.9905C6.41672 20.9716 6.41672 20.9385 6.42574 20.8911L8.49579 14.757C8.56795 14.5204 8.58148 14.3074 8.53638 14.1181C8.49128 13.9287 8.365 13.7631 8.15755 13.6211L3.0433 9.95766C3.00722 9.92927 2.99369 9.90087 3.00271 9.87247C3.01173 9.85354 3.03878 9.84407 3.08388 9.84407L9.28052 9.98606C9.51503 9.99553 9.70896 9.94583 9.8623 9.83697C10.0156 9.72811 10.1284 9.55062 10.2005 9.3045L11.9459 3.071C11.9549 3.02367 11.9729 3 12 3C12.0271 3 12.0451 3.02367 12.0541 3.071L13.7995 9.3045C13.8806 9.55062 13.9956 9.72811 14.1445 9.83697C14.2933 9.94583 14.4895 9.99553 14.733 9.98606L20.9161 9.84407C20.9612 9.84407 20.9883 9.85354 20.9973 9.87247C21.0063 9.90087 20.9928 9.92927 20.9567 9.95766L15.8425 13.6211C15.644 13.7631 15.52 13.9287 15.4704 14.1181C15.4208 14.3074 15.4366 14.5204 15.5177 14.757L17.5743 20.8911C17.5833 20.9385 17.5833 20.9716 17.5743 20.9905C17.5652 21.0095 17.5382 21 17.4931 20.9621L12.5818 17.0005C12.4014 16.8491 12.2097 16.7733 12.0068 16.7733C11.8038 16.7733 11.6076 16.8491 11.4182 17.0005L6.52045 20.9621C6.47535 21 6.44378 21.0095 6.42574 20.9905Z" fill="#6D75F4" fill-opacity="0.75"/>
</g>
<defs>
<clipPath id="clip0_7702_143321">
<rect width="24" height="24" fill="white"/>
</clipPath>
</defs>
</svg>
