<svg width="30" height="30" viewBox="0 0 30 30" fill="none" xmlns="http://www.w3.org/2000/svg">
<g clip-path="url(#clip0_6236_47486)">
<path d="M22.8202 28.7919C21.2123 30.3711 19.4383 30.1249 17.7474 29.3803C15.9497 28.6207 14.3062 28.5727 12.4076 29.3803C10.0433 30.4131 8.78848 30.1129 7.36455 28.7919C-0.674741 20.4155 0.51187 7.6558 9.64878 7.17543C11.8648 7.29552 13.4163 8.41537 14.7215 8.50844C16.6616 8.10914 18.5187 6.96527 20.5953 7.11538C23.0901 7.31954 24.959 8.3173 26.202 10.1087C21.0699 13.231 22.2862 20.0762 27 21.9977C26.0566 24.5046 24.8463 26.9815 22.8172 28.8129L22.8202 28.7919ZM14.5435 7.08536C14.3033 3.36253 17.2846 0.300198 20.7139 -3.05176e-05C21.1856 4.29324 16.8574 7.50568 14.5435 7.08536Z" fill="black"/>
</g>
<defs>
<clipPath id="clip0_6236_47486">
<rect width="30" height="30" fill="white"/>
</clipPath>
</defs>
</svg>
