<svg width="31" height="30" viewBox="0 0 31 30" fill="none" xmlns="http://www.w3.org/2000/svg">
<g clip-path="url(#clip0_6236_47488)">
<path d="M23.6665 28.7918C22.0392 30.371 20.2438 30.1249 18.5325 29.3803C16.7132 28.6207 15.0499 28.5727 13.1284 29.3803C10.7356 30.4131 9.46564 30.1129 8.02455 28.7918C-0.111644 20.4155 1.08927 7.65576 10.3363 7.1754C12.579 7.29549 14.1492 8.41534 15.4702 8.50841C17.4337 8.10911 19.3131 6.96524 21.4147 7.11535C23.9397 7.31951 25.8311 8.31727 27.0891 10.1086C21.8951 13.231 23.126 20.0762 27.8967 21.9977C26.9419 24.5046 25.717 26.9815 23.6634 28.8129L23.6665 28.7918ZM15.2901 7.08533C15.0469 3.3625 18.0642 0.300167 21.5348 -6.10352e-05C22.0122 4.29321 17.6319 7.50565 15.2901 7.08533Z" fill="#F5F5F5"/>
</g>
<defs>
<clipPath id="clip0_6236_47488">
<rect width="30" height="30" fill="white" transform="translate(0.595337 -3.05176e-05)"/>
</clipPath>
</defs>
</svg>
