<svg width="31" height="30" viewBox="0 0 31 30" fill="none" xmlns="http://www.w3.org/2000/svg">
<g clip-path="url(#clip0_6236_47488)">
<path d="M23.4155 28.7919C21.8076 30.3711 20.0337 30.1249 18.3427 29.3803C16.545 28.6207 14.9016 28.5727 13.003 29.3803C10.6387 30.4131 9.38382 30.1129 7.95989 28.7919C-0.0794044 20.4155 1.10721 7.6558 10.2441 7.17543C12.4601 7.29552 14.0116 8.41537 15.3169 8.50844C17.257 8.10914 19.114 6.96527 21.1906 7.11538C23.6855 7.31954 25.5544 8.3173 26.7973 10.1087C21.6652 13.231 22.8815 20.0762 27.5953 21.9977C26.652 24.5046 25.4416 26.9815 23.4125 28.8129L23.4155 28.7919ZM15.1389 7.08536C14.8986 3.36253 17.88 0.300198 21.3093 -3.05176e-05C21.7809 4.29324 17.4528 7.50568 15.1389 7.08536Z" fill="white"/>
</g>
<defs>
<clipPath id="clip0_6236_47488">
<rect width="30" height="30" fill="white" transform="translate(0.595337)"/>
</clipPath>
</defs>
</svg>
