<svg width="22" height="22" viewBox="0 0 22 22" fill="none" xmlns="http://www.w3.org/2000/svg">
<path fill-rule="evenodd" clip-rule="evenodd" d="M0 1.32C0 0.590984 0.568254 0 1.26923 0H6.31826C7.01924 0 7.58749 0.590984 7.58749 1.32C7.58749 2.04902 7.01924 2.64 6.31826 2.64H2.53846V6.57099C2.53846 7.3 1.97021 7.89099 1.26923 7.89099C0.568254 7.89099 0 7.3 0 6.57099V1.32ZM15.2308 1.32C15.2308 0.590984 15.799 0 16.5 0H20.7308C21.4317 0 22 0.590984 22 1.32V6.57099C22 7.3 21.4317 7.89099 20.7308 7.89099C20.0298 7.89099 19.4615 7.3 19.4615 6.57099V2.64H16.5C15.799 2.64 15.2308 2.04902 15.2308 1.32ZM1.26923 14.109C1.97021 14.109 2.53846 14.7 2.53846 15.429V19.36H6.31826C7.01924 19.36 7.58749 19.951 7.58749 20.68C7.58749 21.409 7.01924 22 6.31826 22H1.26923C0.568254 22 0 21.409 0 20.68V15.429C0 14.7 0.568254 14.109 1.26923 14.109ZM20.7308 14.109C21.4317 14.109 22 14.7 22 15.429V20.68C22 21.409 21.4317 22 20.7308 22H15.6817C14.9808 22 14.4125 21.409 14.4125 20.68C14.4125 19.951 14.9808 19.36 15.6817 19.36H19.4615V15.429C19.4615 14.7 20.0298 14.109 20.7308 14.109Z" fill="#6D75F4"/>
</svg>
