<svg width="20" height="20" viewBox="0 0 20 20" fill="none" xmlns="http://www.w3.org/2000/svg">
<path fill-rule="evenodd" clip-rule="evenodd" d="M16.0563 6.73232V17.1831C16.0563 18.2721 16.9391 19.1549 18.0281 19.1549C19.1171 19.1549 19.9999 18.2721 19.9999 17.1831V1.98647C20.0003 1.93473 19.9987 1.88297 19.995 1.83133C19.9811 1.63387 19.9381 1.44444 19.8703 1.26728C19.7744 1.01587 19.6251 0.780154 19.4225 0.577555C19.2327 0.387802 19.0139 0.244807 18.7804 0.148571C18.5486 0.052825 18.2945 0 18.0281 0H2.81685C1.72784 0 0.845017 0.882819 0.845016 1.97183C0.845015 3.06084 1.72783 3.94366 2.81685 3.94366L13.2678 3.94366L0.577536 16.6339C-0.192512 17.4039 -0.192512 18.6524 0.577536 19.4225C1.34758 20.1925 2.59608 20.1925 3.36613 19.4225L16.0563 6.73232Z" fill="#6D75F4"/>
</svg>
