<svg width="24" height="24" viewBox="0 0 24 24" fill="none" xmlns="http://www.w3.org/2000/svg">
<g clip-path="url(#clip0_10533_514195)">
<path d="M0 17.8185C0 19.9136 1.09253 21 3.19886 21H8.5V20.9C8.5 20.37 8.7 19.86 9.08 19.48L9.46115 19.0988H3.35634C2.4016 19.0988 1.92916 18.6042 1.92916 17.7021V3.29792C1.92916 2.39584 2.4016 1.90115 3.35634 1.90115H14.6338C15.5886 1.90115 16.0708 2.39584 16.0708 3.29792V9.09037C16.6833 8.81458 17.3358 8.63297 18 8.55071V3.18152C18 1.09607 16.9075 0 14.8011 0H3.19886C1.09253 0 0 1.09607 0 3.18152V17.8185Z" fill="#20A7C5"/>
<path d="M13.4441 11.213C13.3285 11.0822 13.1575 11 12.9606 11H4.719C4.35482 11 4.07922 11.2813 4.07922 11.6305C4.07922 11.97 4.36466 12.261 4.719 12.261H12.8089C12.9794 11.9105 13.1803 11.5749 13.41 11.26C13.4213 11.2443 13.4326 11.2286 13.4441 11.213Z" fill="#20A7C5"/>
<path d="M12.2362 14H4.719C4.35482 14 4.07922 14.2813 4.07922 14.6305C4.07922 14.97 4.36466 15.261 4.719 15.261H12.1302C12.1265 14.889 12.1539 14.5169 12.21 14.15C12.2182 14.0999 12.2269 14.0499 12.2362 14Z" fill="#20A7C5"/>
<path d="M4.719 9.26097H12.9606C13.3149 9.26097 13.6003 8.96998 13.6003 8.63048C13.6003 8.28129 13.3247 8 12.9606 8H4.719C4.35482 8 4.07922 8.28129 4.07922 8.63048C4.07922 8.96998 4.36466 9.26097 4.719 9.26097Z" fill="#20A7C5"/>
<path d="M12.9606 6.19353H4.719C4.36466 6.19353 4.07922 5.90253 4.07922 5.56304C4.07922 5.21385 4.35482 4.93256 4.719 4.93256H12.9606C13.3247 4.93256 13.6003 5.21385 13.6003 5.56304C13.6003 5.90253 13.3149 6.19353 12.9606 6.19353Z" fill="#20A7C5"/>
<path d="M18.8204 10.0006C18.0014 10.0016 17.1942 10.1962 16.4648 10.5685C15.7353 10.9409 15.1043 11.4804 14.623 12.1431C14.1418 12.8058 13.8241 13.5729 13.6958 14.3817C13.5675 15.1906 13.6323 16.0184 13.8849 16.7974L10.1492 20.5266C10.0528 20.6255 9.99923 20.7583 10 20.8963V23.4905C10 23.6281 10.0547 23.7601 10.152 23.8574C10.2493 23.9547 10.3812 24.0094 10.5189 24.0094H13.1131C13.2507 24.0094 13.3826 23.9547 13.48 23.8574C13.5773 23.7601 13.6319 23.6281 13.6319 23.4905V22.4528H14.6696C14.8072 22.4528 14.9392 22.3982 15.0365 22.3009C15.1338 22.2036 15.1884 22.0716 15.1884 21.934V20.8963H16.2261C16.3642 20.8971 16.497 20.8435 16.5958 20.7471L17.2119 20.1245C17.9249 20.3557 18.6795 20.4296 19.4238 20.3413C20.1681 20.2529 20.8844 20.0043 21.5234 19.6127C22.1625 19.221 22.7091 18.6955 23.1256 18.0724C23.5421 17.4493 23.8187 16.7433 23.9363 16.0031C24.0539 15.2629 24.0098 14.5059 23.8068 13.7844C23.6039 13.0629 23.2471 12.3939 22.7609 11.8235C22.2747 11.253 21.6707 10.7947 20.9905 10.48C20.3102 10.1653 19.5699 10.0018 18.8204 10.0006ZM20.1175 14.9296C19.9122 14.9296 19.7116 14.8687 19.541 14.7547C19.3703 14.6407 19.2373 14.4786 19.1588 14.289C19.0802 14.0994 19.0597 13.8908 19.0997 13.6895C19.1398 13.4882 19.2386 13.3033 19.3837 13.1582C19.5288 13.013 19.7137 12.9142 19.915 12.8742C20.1163 12.8341 20.325 12.8547 20.5146 12.9332C20.7042 13.0118 20.8663 13.1448 20.9803 13.3154C21.0943 13.486 21.1552 13.6867 21.1552 13.8919C21.1552 14.1671 21.0458 14.4311 20.8512 14.6257C20.6566 14.8203 20.3927 14.9296 20.1175 14.9296Z" fill="#20A7C5"/>
</g>
<defs>
<clipPath id="clip0_10533_514195">
<rect width="24" height="24" fill="white"/>
</clipPath>
</defs>
</svg>
