<svg width="24" height="24" viewBox="0 0 24 24" fill="none" xmlns="http://www.w3.org/2000/svg">
<path fill-rule="evenodd" clip-rule="evenodd" d="M8.30115 16.2515C8.11365 16.0526 8.0199 15.7429 8.0199 15.3224V10.89C8.0199 10.4865 8.10512 10.1867 8.27558 9.9907C8.44604 9.79465 8.70456 9.68811 9.05115 9.67106V9.2902C9.05115 8.6367 9.17473 8.06277 9.42189 7.56838C9.66905 7.074 10.0142 6.68901 10.4574 6.4134C10.9006 6.1378 11.4176 6 12.0085 6C12.5938 6 13.108 6.1378 13.5512 6.4134C13.9943 6.68901 14.3409 7.074 14.5909 7.56838C14.8409 8.06277 14.9659 8.6367 14.9659 9.2902V9.67106C15.3068 9.68811 15.5625 9.79465 15.733 9.9907C15.9034 10.1867 15.9887 10.4865 15.9887 10.89V15.3224C15.9887 15.7429 15.8949 16.0526 15.7074 16.2515C15.5199 16.4503 15.2301 16.5498 14.8381 16.5498H9.17047C8.77842 16.5498 8.48865 16.4503 8.30115 16.2515ZM10.0654 9.19644V9.66253H13.9432V9.19644C13.9432 8.53726 13.7656 8.00594 13.4105 7.60248C13.0554 7.19902 12.5881 6.99729 12.0085 6.99729C11.4233 6.99729 10.9531 7.19902 10.598 7.60248C10.2429 8.00594 10.0654 8.53726 10.0654 9.19644ZM12 13.7744C12.4502 13.7744 12.8151 13.4094 12.8151 12.9592C12.8151 12.5089 12.4502 12.1439 12 12.1439C11.5498 12.1439 11.1848 12.5089 11.1848 12.9592C11.1848 13.4094 11.5498 13.7744 12 13.7744Z" fill="#6D75F4"/>
<path fill-rule="evenodd" clip-rule="evenodd" d="M11.5028 0.0604414C11.3355 0.100736 11.173 0.14258 11.0152 0.185974C10.6869 0.285162 10.2749 0.421541 9.77936 0.595118C9.28377 0.768695 8.74716 0.959317 8.16951 1.16699C7.59185 1.37466 7.01579 1.58543 6.44129 1.7993C5.86679 2.01317 5.33018 2.21464 4.83144 2.40372C4.3327 2.59279 3.92235 2.74932 3.60038 2.8733C3.23422 3.01589 2.93277 3.17086 2.69602 3.33824C2.45928 3.50562 2.28409 3.71794 2.17045 3.9752C2.05682 4.23247 2 4.57497 2 5.00271V14.1527C2 14.9957 2.09943 15.7458 2.2983 16.4029C2.49716 17.0601 2.81755 17.6691 3.25947 18.2301C3.70139 18.7912 4.27904 19.3475 4.99242 19.8993C5.70581 20.451 6.57386 21.0368 7.59659 21.6567C8.61932 22.2766 9.81565 22.974 11.1856 23.7489C11.3308 23.8295 11.476 23.8915 11.6212 23.9349C11.7664 23.9783 11.8927 24 12 24C12.1073 24 12.2336 23.9783 12.3788 23.9349C12.524 23.8915 12.6692 23.8295 12.8144 23.7489C14.1907 22.9802 15.3917 22.2875 16.4176 21.6707C17.4435 21.0539 18.3131 20.4696 19.0265 19.9179C19.7399 19.3661 20.3144 18.8082 20.75 18.2441C21.1856 17.68 21.5028 17.0678 21.7017 16.4076C21.9006 15.7474 22 14.9957 22 14.1527V5.00271C22 4.57497 21.9432 4.23247 21.8295 3.9752C21.7159 3.71794 21.5407 3.50717 21.304 3.34289C21.0672 3.17861 20.7658 3.02208 20.3996 2.8733C20.0777 2.74312 19.6689 2.58505 19.1733 2.39907C18.6777 2.21309 18.1411 2.01627 17.5634 1.8086L15.8305 1.18559C15.2528 0.977914 14.7162 0.787293 14.2206 0.613716C13.7251 0.440139 13.3163 0.29756 12.9943 0.185974C12.8302 0.130182 12.666 0.0852382 12.5019 0.0511433C12.3378 0.0170478 12.1705 0 12 0C11.8359 0 11.6701 0.0201471 11.5028 0.0604414ZM12.4592 1.7468C12.778 1.8573 13.1832 1.99863 13.6752 2.17096C14.1659 2.34282 14.6982 2.5319 15.2723 2.73829L17.0052 3.36131C17.5768 3.56679 18.1062 3.76097 18.5936 3.94388C19.0812 4.12688 19.4754 4.27939 19.7795 4.40232C20.0395 4.50802 20.2145 4.60137 20.3257 4.67334C20.327 4.67979 20.3283 4.68701 20.3296 4.69505C20.3403 4.75938 20.35 4.85942 20.35 5.00271V14.1527C20.35 14.869 20.2652 15.4557 20.1218 15.9317C19.983 16.3927 19.7608 16.8254 19.444 17.2356C19.1134 17.6638 18.6473 18.1253 18.0171 18.6127C17.3679 19.1147 16.5548 19.6629 15.5674 20.2566C14.561 20.8617 13.3766 21.545 12.0121 22.3071C12.008 22.3094 12.0039 22.3116 12 22.3137C11.9969 22.3121 11.9938 22.3104 11.9907 22.3086C10.634 21.5412 9.45501 20.8537 8.45187 20.2457C7.46644 19.6484 6.653 19.0977 6.00185 18.5941C5.36877 18.1044 4.89548 17.6406 4.55564 17.2091C4.23593 16.8033 4.01438 16.3771 3.87756 15.925C3.73485 15.4535 3.65 14.8692 3.65 14.1527V5.00271C3.65 4.85942 3.6597 4.75938 3.67037 4.69506C3.67215 4.6843 3.67389 4.675 3.6755 4.66708C3.77523 4.60082 3.94059 4.51167 4.19647 4.41187C4.51428 4.2895 4.92065 4.13449 5.41634 3.94657C5.91159 3.75882 6.44509 3.55851 7.01695 3.34563C7.58563 3.13392 8.15589 2.92528 8.72772 2.7197C9.30181 2.51331 9.8341 2.32422 10.3248 2.15236C10.7976 1.98678 11.1784 1.86081 11.4725 1.77147C11.6064 1.73488 11.7453 1.69923 11.8892 1.66457C11.9361 1.65328 11.9721 1.65 12 1.65C12.0596 1.65 12.1144 1.65587 12.1663 1.66666C12.2608 1.68628 12.3583 1.71269 12.4592 1.7468Z" fill="#6D75F4"/>
</svg>
