<svg width="24" height="24" viewBox="0 0 24 24" fill="none" xmlns="http://www.w3.org/2000/svg">
<g clip-path="url(#clip0_7722_158471)">
<path d="M6.36568 10.0115V16.9596H15.4748V10.0115H6.36568Z" fill="url(#paint0_linear_7722_158471)"/>
<path fill-rule="evenodd" clip-rule="evenodd" d="M0 4.36364C0 1.95367 1.95367 0 4.36364 0H19.6364C22.0463 0 24 1.95367 24 4.36364V19.6364C24 22.0463 22.0463 24 19.6364 24H4.36364C1.95367 24 0 22.0463 0 19.6364V4.36364ZM5.00204 9.84917C5.00204 9.1806 5.54687 8.64787 6.2075 8.64787H15.6329C16.2936 8.64787 16.8384 9.1806 16.8384 9.84917V17.1219C16.8384 17.7905 16.2936 18.3232 15.6329 18.3232H6.2075C5.54687 18.3232 5.00204 17.7905 5.00204 17.1219V9.84917ZM8.04026 6.18683C7.73901 6.18683 7.49481 6.43104 7.49481 6.73229C7.49481 7.03354 7.73901 7.27774 8.04026 7.27774H18.2293V15.3037C18.2293 15.605 18.4736 15.8492 18.7748 15.8492C19.076 15.8492 19.3203 15.605 19.3203 15.3037V7.25177C19.3203 6.96792 19.2066 6.69659 19.0056 6.49721C18.8048 6.29799 18.5333 6.18683 18.2512 6.18683H8.04026Z" fill="url(#paint1_linear_7722_158471)"/>
</g>
<defs>
<linearGradient id="paint0_linear_7722_158471" x1="12" y1="0" x2="12" y2="24" gradientUnits="userSpaceOnUse">
<stop offset="0.015625" stop-color="#767CE0" stop-opacity="0.45"/>
<stop offset="1" stop-color="#8280EC" stop-opacity="0.75"/>
</linearGradient>
<linearGradient id="paint1_linear_7722_158471" x1="12" y1="0" x2="12" y2="24" gradientUnits="userSpaceOnUse">
<stop offset="0.015625" stop-color="#767CE0" stop-opacity="0.45"/>
<stop offset="1" stop-color="#8280EC" stop-opacity="0.75"/>
</linearGradient>
<clipPath id="clip0_7722_158471">
<rect width="24" height="24" fill="white"/>
</clipPath>
</defs>
</svg>
