<svg width="22" height="22" viewBox="0 0 22 22" fill="none" xmlns="http://www.w3.org/2000/svg">
<g clip-path="url(#clip0_7722_158471)">
<path fill-rule="evenodd" clip-rule="evenodd" d="M0 4C0 1.79086 1.79086 0 4 0H18C20.2091 0 22 1.79086 22 4V18C22 20.2091 20.2091 22 18 22H4C1.79086 22 0 20.2091 0 18V4ZM5.83521 9.17722V15.5463H14.1852V9.17722H5.83521ZM4.58521 9.02841C4.58521 8.41555 5.08463 7.92722 5.6902 7.92722H14.3302C14.9358 7.92722 15.4352 8.41555 15.4352 9.02841V15.6951C15.4352 16.3079 14.9358 16.7963 14.3302 16.7963H5.6902C5.08463 16.7963 4.58521 16.3079 4.58521 15.6951V9.02841ZM7.37024 5.67126C7.0941 5.67126 6.87024 5.89512 6.87024 6.17126C6.87024 6.44741 7.0941 6.67126 7.37024 6.67126H16.7102V14.0284C16.7102 14.3046 16.9341 14.5284 17.2102 14.5284C17.4864 14.5284 17.7102 14.3046 17.7102 14.0284V6.64746C17.7102 6.38726 17.606 6.13854 17.4218 5.95578C17.2377 5.77315 16.9889 5.67126 16.7302 5.67126H7.37024Z" fill="url(#paint0_linear_7722_158471)"/>
</g>
<defs>
<linearGradient id="paint0_linear_7722_158471" x1="11" y1="0" x2="11" y2="22" gradientUnits="userSpaceOnUse">
<stop offset="0.015625" stop-color="#767CE0" stop-opacity="0.45"/>
<stop offset="1" stop-color="#8280EC" stop-opacity="0.75"/>
</linearGradient>
<clipPath id="clip0_7722_158471">
<rect width="22" height="22" fill="white"/>
</clipPath>
</defs>
</svg>
