<svg width="22" height="22" viewBox="0 0 22 22" fill="none" xmlns="http://www.w3.org/2000/svg">
<g clip-path="url(#clip0_7702_143687)">
<path d="M4.21558 21.7904C4.44881 21.9734 4.70703 22.0366 4.99023 21.9799C5.27344 21.9233 5.58163 21.7642 5.91481 21.5028L11 17.5944L16.0977 21.5028C16.4309 21.7642 16.7391 21.9233 17.0223 21.9799C17.3055 22.0366 17.5595 21.9734 17.7844 21.7904C18.0093 21.6074 18.1426 21.3699 18.1842 21.078C18.2259 20.786 18.1801 20.4353 18.0468 20.0257L16.0352 13.7644L21.1704 9.90828C21.5036 9.66428 21.7389 9.40938 21.8763 9.14359C22.0137 8.8778 22.0366 8.60112 21.945 8.31355C21.8534 8.03468 21.6806 7.8299 21.4265 7.69918C21.1725 7.56846 20.8372 7.50311 20.4207 7.50311L14.1236 7.55539L12.2119 1.25487C12.087 0.845296 11.9246 0.533759 11.7247 0.320255C11.5248 0.106751 11.2832 0 11 0C10.7168 0 10.4773 0.106751 10.2816 0.320255C10.0858 0.533759 9.92132 0.845296 9.78805 1.25487L7.87642 7.55539L1.57928 7.50311C1.17113 7.50311 0.837954 7.56846 0.579737 7.69918C0.32152 7.8299 0.146601 8.03468 0.0549754 8.31355C-0.0366502 8.60112 -0.0137438 8.8778 0.123694 9.14359C0.261132 9.40938 0.49644 9.66428 0.829623 9.90828L5.96479 13.7644L3.9532 20.0257C3.81993 20.4353 3.77412 20.786 3.81577 21.078C3.85741 21.3699 3.99069 21.6074 4.21558 21.7904ZM5.85234 19.4506C5.84401 19.4331 5.84401 19.4026 5.85234 19.3591L7.76397 13.7121C7.83061 13.4943 7.8431 13.2982 7.80145 13.1239C7.75981 12.9496 7.64319 12.7971 7.45161 12.6664L2.72876 9.29392C2.69544 9.26777 2.68295 9.24163 2.69128 9.21549C2.69961 9.19806 2.72459 9.18934 2.76624 9.18934L8.48864 9.32006C8.70521 9.32877 8.88429 9.28302 9.0259 9.18281C9.1675 9.08259 9.27162 8.9192 9.33825 8.69262L10.95 2.95418C10.9584 2.91061 10.975 2.88883 11 2.88883C11.025 2.88883 11.0416 2.91061 11.05 2.95418L12.6617 8.69262C12.7367 8.9192 12.8429 9.08259 12.9803 9.18281C13.1178 9.28302 13.299 9.32877 13.5239 9.32006L19.2338 9.18934C19.2754 9.18934 19.3004 9.19806 19.3087 9.21549C19.3171 9.24163 19.3046 9.26777 19.2712 9.29392L14.5484 12.6664C14.3651 12.7971 14.2506 12.9496 14.2048 13.1239C14.159 13.2982 14.1736 13.4943 14.2485 13.7121L16.1477 19.3591C16.156 19.4026 16.156 19.4331 16.1477 19.4506C16.1393 19.468 16.1143 19.4593 16.0727 19.4244L11.5373 15.7774C11.3707 15.638 11.1937 15.5683 11.0062 15.5683C10.8188 15.5683 10.6377 15.638 10.4627 15.7774L5.9398 19.4244C5.89815 19.4593 5.869 19.468 5.85234 19.4506Z" fill="#6D75F4"/>
</g>
<defs>
<clipPath id="clip0_7702_143687">
<rect width="22" height="21.9967" fill="white"/>
</clipPath>
</defs>
</svg>
