<svg width="25" height="25" viewBox="0 0 25 25" fill="none" xmlns="http://www.w3.org/2000/svg">
<g clip-path="url(#clip0_6329_61051)">
<path d="M9.92676 15.4487H9.06543V11.0729H9.92676V15.4487Z" fill="#6D75F4"/>
<path d="M13.542 13.9911C13.5205 14.49 13.3838 14.8676 13.1318 15.1241C12.8799 15.3806 12.5244 15.5088 12.0654 15.5088C11.583 15.5088 11.2129 15.3465 10.9551 15.0219C10.6992 14.6953 10.5713 14.2305 10.5713 13.6275V12.8911C10.5713 12.2901 10.7041 11.8273 10.9697 11.5027C11.2354 11.1761 11.6045 11.0128 12.0771 11.0128C12.542 11.0128 12.8945 11.1461 13.1348 11.4125C13.377 11.679 13.5146 12.0617 13.5479 12.5606H12.6836C12.6758 12.252 12.6289 12.0396 12.543 11.9234C12.459 11.8052 12.3037 11.7461 12.0771 11.7461C11.8467 11.7461 11.6836 11.8293 11.5879 11.9956C11.4922 12.1599 11.4414 12.4313 11.4355 12.81V13.6365C11.4355 14.0712 11.4824 14.3698 11.5762 14.5321C11.6719 14.6943 11.835 14.7755 12.0654 14.7755C12.292 14.7755 12.4482 14.7194 12.5342 14.6072C12.6201 14.493 12.6689 14.2876 12.6807 13.9911H13.542Z" fill="#6D75F4"/>
<path d="M17.0752 13.6545C17.0752 14.2415 16.9395 14.6973 16.668 15.0219C16.3984 15.3465 16.0234 15.5088 15.543 15.5088C15.0645 15.5088 14.6885 15.3485 14.415 15.0279C14.1416 14.7054 14.0029 14.2546 13.999 13.6755V12.9272C13.999 12.3261 14.1348 11.8573 14.4063 11.5207C14.6777 11.1821 15.0547 11.0128 15.5371 11.0128C16.0117 11.0128 16.3857 11.1791 16.6592 11.5117C16.9326 11.8423 17.0713 12.3071 17.0752 12.9062V13.6545ZM16.2109 12.9212C16.2109 12.5265 16.1562 12.233 16.0469 12.0406C15.9375 11.8483 15.7676 11.7521 15.5371 11.7521C15.3086 11.7521 15.1396 11.8453 15.0303 12.0316C14.9209 12.2159 14.8643 12.4974 14.8604 12.8761V13.6545C14.8604 14.0372 14.916 14.3197 15.0273 14.502C15.1387 14.6823 15.3105 14.7725 15.543 14.7725C15.7676 14.7725 15.9346 14.6843 16.0439 14.508C16.1533 14.3297 16.209 14.0542 16.2109 13.6815V12.9212Z" fill="#6D75F4"/>
<path d="M22.6795 12.7559C22.6795 18.2741 18.3262 22.697 13.0176 22.697C7.70912 22.697 3.35583 18.2741 3.35583 12.7559C3.35583 7.23773 7.70912 2.81487 13.0176 2.81487C18.3262 2.81487 22.6795 7.23773 22.6795 12.7559Z" stroke="#6D75F4" stroke-width="2.30809"/>
</g>
<defs>
<clipPath id="clip0_6329_61051">
<rect width="24" height="24" fill="white" transform="translate(0.703857 0.879028)"/>
</clipPath>
</defs>
</svg>
