<svg width="25" height="25" viewBox="0 0 25 25" fill="none" xmlns="http://www.w3.org/2000/svg">
<g clip-path="url(#clip0_6801_85679)">
<path d="M20.1217 17.19C20.0269 15.512 19.1168 14.0141 17.4103 12.7438C16.87 12.3456 15.9978 11.7768 14.8032 11.2838L19.5813 6.48671V5.8136C19.5813 5.54815 19.3538 5.32062 19.0884 5.32062H10.1958V1.30095L6.12871 2.15418V3.26339H6.65013C6.80181 3.26339 7.15259 3.32027 7.15259 3.76584V5.30166H4.84886C4.62133 5.30166 4.42224 5.50075 4.42224 5.72828V7.24514H7.16207V13.3505C7.16207 14.4692 7.54128 15.4362 8.23335 16.0714C8.9349 16.716 9.93033 17.0099 11.0869 16.9151C11.5799 16.8772 12.0729 16.6971 12.5564 16.3842C12.8218 16.2041 12.983 15.9197 12.983 15.6068V14.3554L12.4711 14.6967C11.8454 15.1138 11.305 15.1044 11.305 15.1044H11.286C11.0111 15.1044 10.793 15.019 10.6224 14.8484C10.2053 14.4218 10.2053 13.6159 10.2053 13.6065V7.24514H15.7134L11.3998 11.5871V11.7199C11.3903 12.2129 11.3808 12.6205 11.3808 12.7817C11.3808 12.8291 11.3808 12.8575 11.3808 12.867C11.3808 13.0566 11.5136 13.2083 11.7032 13.2273C16.0641 13.9667 16.9742 16.7729 16.9742 17.2943V17.3322C16.9742 17.3512 17.1544 19.0008 16.2063 20.1479C15.6565 20.8021 14.8317 21.1813 13.7604 21.2476C13.7509 21.2476 13.1157 21.2761 12.4426 21.1718C11.8169 21.077 11.3619 20.9158 11.1249 20.6978C11.542 20.4039 11.779 19.9583 11.779 19.4369C11.779 18.3751 11.068 17.6925 9.97774 17.6925C8.99178 17.6925 8.18595 18.4699 8.17647 19.4179C8.16699 19.5886 8.11958 20.6314 8.96334 21.5605C9.85449 22.5464 11.3903 23.0394 13.5234 23.0394C13.5992 23.0394 13.6846 23.0394 13.7604 23.0394C15.9409 23.0015 17.6094 22.3663 18.7186 21.1528C20.2545 19.4843 20.1312 17.3228 20.1217 17.19Z" fill="#F5F5F5"/>
</g>
<defs>
<clipPath id="clip0_6801_85679">
<rect width="24" height="24" fill="white" transform="translate(0.411377 0.249023)"/>
</clipPath>
</defs>
</svg>
