<svg width="32" height="33" viewBox="0 0 32 33" fill="none" xmlns="http://www.w3.org/2000/svg">
<path fill-rule="evenodd" clip-rule="evenodd" d="M8.52936 15.5882C8.52936 16.5629 9.31945 17.3529 10.2941 17.3529H21.3235C22.2981 17.3529 23.0882 16.5629 23.0882 15.5882C23.0882 14.6136 22.2981 13.8235 21.3235 13.8235H10.2941C9.31945 13.8235 8.52936 14.6136 8.52936 15.5882Z" fill="#6D75F4"/>
<path fill-rule="evenodd" clip-rule="evenodd" d="M16 29.2857C23.3375 29.2857 29.2857 23.3375 29.2857 16C29.2857 8.6625 23.3375 2.71429 16 2.71429C8.6625 2.71429 2.71429 8.6625 2.71429 16C2.71429 23.3375 8.6625 29.2857 16 29.2857ZM16 31C24.2843 31 31 24.2843 31 16C31 7.71573 24.2843 1 16 1C7.71573 1 1 7.71573 1 16C1 24.2843 7.71573 31 16 31Z" fill="#6D75F4"/>
</svg>
