<svg width="26" height="26" viewBox="0 0 26 26" fill="none" xmlns="http://www.w3.org/2000/svg">
<path fill-rule="evenodd" clip-rule="evenodd" d="M13.4409 5.07873L5.20811 12.5603V21.9552H9.54118V17.1888C9.54118 16.6142 9.76944 16.0632 10.1757 15.6569C10.582 15.2505 11.1331 15.0223 11.7077 15.0223H15.1742C15.7488 15.0223 16.2998 15.2505 16.7061 15.6569C17.1124 16.0632 17.3407 16.6142 17.3407 17.1888V21.9552H21.6738V12.5603L13.4409 5.07873ZM11.9806 2.89283C12.3797 2.52863 12.9006 2.32669 13.4409 2.32669C13.9813 2.32669 14.5022 2.52863 14.9013 2.89283C14.902 2.89346 14.9027 2.89409 14.9033 2.89472L23.5663 10.7671L23.5846 10.7841C23.7979 10.9855 23.9687 11.2276 24.087 11.4961C24.2053 11.7645 24.2687 12.0539 24.2734 12.3473L24.2736 12.3683V22.3885C24.2736 22.9631 24.0453 23.5142 23.639 23.9205C23.2327 24.3268 22.6817 24.555 22.1071 24.555H16.9074C16.3328 24.555 15.7817 24.3268 15.3754 23.9205C14.9691 23.5142 14.7409 22.9631 14.7409 22.3885V17.6221H12.141V22.3885C12.141 22.9631 11.9128 23.5142 11.5065 23.9205C11.1001 24.3268 10.5491 24.555 9.97448 24.555H4.77481C4.20021 24.555 3.64914 24.3268 3.24284 23.9205C2.83654 23.5142 2.60828 22.9631 2.60828 22.3885V12.3683L2.60845 12.3473C2.61319 12.0539 2.67658 11.7645 2.79489 11.4961C2.91319 11.2276 3.08401 10.9855 3.2973 10.7841L3.3156 10.7671L11.9785 2.89472C11.9792 2.89409 11.9799 2.89346 11.9806 2.89283Z" fill="#9298FF"/>
</svg>
