<svg width="24" height="25" viewBox="0 0 24 25" fill="none" xmlns="http://www.w3.org/2000/svg">
<g clip-path="url(#clip0_6248_46496)">
<path fill-rule="evenodd" clip-rule="evenodd" d="M12 2.96952L2.44898 11.4248V22.1143H7.83674V16.6271C7.83674 16.0577 8.06895 15.5115 8.4823 15.1089C8.89564 14.7062 9.45626 14.48 10.0408 14.48H13.9592C14.5437 14.48 15.1044 14.7062 15.5177 15.1089C15.9311 15.5115 16.1633 16.0577 16.1633 16.6271V22.1143H21.551V11.4248L12 2.96952ZM10.5141 1.06125C10.9202 0.700202 11.4502 0.5 12 0.5C12.5499 0.5 13.08 0.70028 13.4861 1.06147C13.4866 1.06196 13.4872 1.06245 13.4878 1.06294L23.2807 9.73234L23.2979 9.7479C23.5152 9.94786 23.6893 10.1882 23.8099 10.4547C23.9304 10.7211 23.995 11.0084 23.9998 11.2996L24 11.3189V22.3529C24 22.9223 23.7678 23.4684 23.3544 23.8711C22.9411 24.2738 22.3805 24.5 21.7959 24.5H15.9184C15.3338 24.5 14.7732 24.2738 14.3598 23.8711C13.9465 23.4684 13.7143 22.9223 13.7143 22.3529V16.8657H10.2857V22.3529C10.2857 22.9223 10.0535 23.4684 9.64015 23.8711C9.22681 24.2738 8.66619 24.5 8.08163 24.5H2.20408C1.61952 24.5 1.05891 24.2738 0.645561 23.8711C0.232215 23.4684 0 22.9223 0 22.3529V11.3189L0.000160218 11.2996C0.00499614 11.0084 0.0695913 10.7211 0.190143 10.4547C0.310694 10.1882 0.484764 9.94786 0.702103 9.7479L0.719345 9.73234L10.5122 1.06294C10.5129 1.06238 10.5135 1.06182 10.5141 1.06125Z" fill="#9298FF"/>
</g>
<defs>
<clipPath id="clip0_6248_46496">
<rect width="24" height="24" fill="white" transform="translate(0 0.5)"/>
</clipPath>
</defs>
</svg>
