<svg width="24" height="24" viewBox="0 0 24 24" fill="none" xmlns="http://www.w3.org/2000/svg">
<path d="M11.9996 15.0332C13.4355 15.0332 14.5995 13.8692 14.5995 12.4333C14.5995 10.9975 13.4355 9.8335 11.9996 9.8335C10.5638 9.8335 9.39978 10.9975 9.39978 12.4333C9.39978 13.8692 10.5638 15.0332 11.9996 15.0332Z" stroke="#9298FF" stroke-width="2.59984" stroke-linecap="round" stroke-linejoin="round"/>
<path d="M8.53331 7.23361C9.96916 7.23361 11.1331 6.06962 11.1331 4.63377C11.1331 3.19792 9.96916 2.03394 8.53331 2.03394C7.09746 2.03394 5.93347 3.19792 5.93347 4.63377C5.93347 6.06962 7.09746 7.23361 8.53331 7.23361Z" stroke="#9298FF" stroke-width="2.59984" stroke-linecap="round" stroke-linejoin="round"/>
<path d="M19.7994 12C21.2353 12 22.3993 10.836 22.3993 9.40013C22.3993 7.96428 21.2353 6.80029 19.7994 6.80029C18.3636 6.80029 17.1996 7.96428 17.1996 9.40013C17.1996 10.836 18.3636 12 19.7994 12Z" stroke="#9298FF" stroke-width="2.59984" stroke-linecap="round" stroke-linejoin="round"/>
<path d="M19.7994 21.5327C21.2353 21.5327 22.3993 20.3687 22.3993 18.9328C22.3993 17.497 21.2353 16.333 19.7994 16.333C18.3636 16.333 17.1996 17.497 17.1996 18.9328C17.1996 20.3687 18.3636 21.5327 19.7994 21.5327Z" stroke="#9298FF" stroke-width="2.59984" stroke-linecap="round" stroke-linejoin="round"/>
<path d="M4.2003 21.966C5.63615 21.966 6.80014 20.802 6.80014 19.3662C6.80014 17.9303 5.63615 16.7664 4.2003 16.7664C2.76445 16.7664 1.60046 17.9303 1.60046 19.3662C1.60046 20.802 2.76445 21.966 4.2003 21.966Z" stroke="#9298FF" stroke-width="2.59984" stroke-linecap="round" stroke-linejoin="round"/>
<path d="M10.9495 10.0609L9.58459 7.0061" stroke="#9298FF" stroke-width="2.59984" stroke-linecap="round" stroke-linejoin="round"/>
<path d="M10.0605 14.1556L6.13904 17.6438" stroke="#9298FF" stroke-width="2.59984" stroke-linecap="round" stroke-linejoin="round"/>
<path d="M17.3726 10.3425L14.4261 11.4908" stroke="#9298FF" stroke-width="2.59984" stroke-linecap="round" stroke-linejoin="round"/>
<path d="M17.8061 17.2647L13.993 14.1016" stroke="#9298FF" stroke-width="2.59984" stroke-linecap="round" stroke-linejoin="round"/>
</svg>
