<svg width="22" height="19" viewBox="0 0 22 19" fill="none" xmlns="http://www.w3.org/2000/svg">
<g clip-path="url(#clip0_7702_151443)">
<path fill-rule="evenodd" clip-rule="evenodd" d="M6.84274 0.330956C7.27714 0.772232 7.27714 1.48768 6.84274 1.92896L3.79783 5.02203H15.1199C16.9446 5.02203 18.6946 5.75836 19.9849 7.06905C21.2751 8.37974 22 10.1574 22 12.011C22 13.8646 21.2751 15.6423 19.9849 16.953C18.6946 18.2637 16.9446 19 15.1199 19H6.05618C5.44184 19 4.94382 18.4941 4.94382 17.87C4.94382 17.246 5.44184 16.7401 6.05618 16.7401H15.1199C16.3545 16.7401 17.5387 16.2418 18.4117 15.355C19.2848 14.4681 19.7753 13.2652 19.7753 12.011C19.7753 10.7568 19.2848 9.55393 18.4117 8.66705C17.5387 7.78018 16.3545 7.28194 15.1199 7.28194H3.79783L6.84274 10.375C7.27714 10.8163 7.27714 11.5317 6.84274 11.973C6.40833 12.4143 5.70403 12.4143 5.26962 11.973L0.325803 6.95098C0.117195 6.73907 0 6.45167 0 6.15198C0 5.8523 0.117195 5.56489 0.325803 5.35298L5.26962 0.330956C5.70403 -0.110319 6.40833 -0.110319 6.84274 0.330956Z" fill="#6D75F4"/>
</g>
<defs>
<clipPath id="clip0_7702_151443">
<rect width="22" height="19" fill="white"/>
</clipPath>
</defs>
</svg>
