<svg width="36" height="36" viewBox="0 0 36 36" fill="none" xmlns="http://www.w3.org/2000/svg">
<path fill-rule="evenodd" clip-rule="evenodd" d="M18 34.5C27.1127 34.5 34.5 27.1127 34.5 18C34.5 8.8873 27.1127 1.5 18 1.5C8.8873 1.5 1.5 8.8873 1.5 18C1.5 27.1127 8.8873 34.5 18 34.5ZM36 18C36 27.9411 27.9411 36 18 36C8.05888 36 0 27.9411 0 18C0 8.05888 8.05888 0 18 0C27.9411 0 36 8.05888 36 18Z" fill="#6D75F4"/>
<path d="M17.6705 29C19.1575 29 20.5303 28.7393 21.7892 28.2178C23.048 27.6963 24.1379 26.9956 25.0588 26.1156C25.9797 25.2355 26.6598 24.2659 27.0991 23.2067C27.268 22.8156 27.2596 22.4896 27.0737 22.2289C26.8879 21.9681 26.5668 21.903 26.1106 22.0333C25.722 22.1637 25.2404 22.2819 24.6659 22.3878C24.0914 22.4937 23.5 22.5467 22.8917 22.5467C21.0499 22.5467 19.4532 22.2004 18.1014 21.5078C16.7496 20.8152 15.7104 19.8252 14.9839 18.5378C14.2573 17.2504 13.894 15.7185 13.894 13.9422C13.894 13.437 13.9616 12.83 14.0968 12.1211C14.232 11.4122 14.3756 10.8541 14.5276 10.4467C14.6966 10.0718 14.6628 9.77445 14.4263 9.55444C14.1897 9.33444 13.8349 9.31407 13.3618 9.49333C12.0945 9.98223 10.9835 10.7156 10.0288 11.6933C9.07411 12.6711 8.33065 13.7915 7.79839 15.0544C7.26613 16.3174 7 17.6415 7 19.0267C7 20.9822 7.46889 22.7096 8.40668 24.2089C9.34447 25.7082 10.6202 26.8815 12.2339 27.7289C13.8475 28.5763 15.6597 29 17.6705 29ZM23.7281 17.1444C24.0323 17.1444 24.2012 16.9815 24.235 16.6556C24.3702 15.5148 24.5392 14.6837 24.7419 14.1622C24.9447 13.6407 25.3207 13.2863 25.8698 13.0989C26.419 12.9115 27.2934 12.7281 28.4931 12.5489C28.831 12.5326 29 12.3696 29 12.06C29 11.7667 28.8479 11.6119 28.5438 11.5956C27.3272 11.3674 26.4401 11.1596 25.8825 10.9722C25.3249 10.7848 24.9489 10.4426 24.7546 9.94555C24.5603 9.44852 24.3871 8.62963 24.235 7.48889C24.2012 7.16296 24.0323 7 23.7281 7C23.4409 7 23.2803 7.16296 23.2465 7.48889C23.0945 8.64593 22.9213 9.48518 22.727 10.0067C22.5326 10.5282 22.1609 10.8826 21.6117 11.07C21.0626 11.2574 20.1713 11.4326 18.9378 11.5956C18.6336 11.6119 18.4816 11.7667 18.4816 12.06C18.4816 12.3696 18.6336 12.5326 18.9378 12.5489C20.1713 12.777 21.0626 12.9889 21.6117 13.1844C22.1609 13.38 22.5326 13.7263 22.727 14.2233C22.9213 14.7204 23.0945 15.5311 23.2465 16.6556C23.2803 16.9815 23.4409 17.1444 23.7281 17.1444Z" fill="#6D75F4"/>
</svg>
