<svg width="28" height="28" viewBox="0 0 28 28" fill="none" xmlns="http://www.w3.org/2000/svg">
<path fill-rule="evenodd" clip-rule="evenodd" d="M19.3667 1.60417C19.8696 1.60417 20.3518 1.80391 20.7073 2.15944L25.2573 6.70944C25.9977 7.44981 25.9977 8.65019 25.2573 9.39056C24.5169 10.1309 23.3166 10.1309 22.5762 9.39056L21.2626 8.07695V18.2875C21.2626 19.3345 20.4138 20.1833 19.3667 20.1833C18.3197 20.1833 17.4709 19.3345 17.4709 18.2875V8.07695L16.1573 9.39056C15.4169 10.1309 14.2166 10.1309 13.4762 9.39056C12.7358 8.65019 12.7358 7.44981 13.4762 6.70944L18.0262 2.15944C18.3817 1.80391 18.8639 1.60417 19.3667 1.60417ZM8.05008 8.4C9.09712 8.4 9.94592 9.24879 9.94592 10.2958V20.5064L11.2595 19.1928C11.9999 18.4524 13.2003 18.4524 13.9406 19.1928C14.681 19.9331 14.681 21.1335 13.9406 21.8739L9.39064 26.4239C8.65027 27.1643 7.44989 27.1643 6.70953 26.4239L2.15952 21.8739C1.41916 21.1335 1.41916 19.9331 2.15952 19.1928C2.89989 18.4524 4.10027 18.4524 4.84064 19.1928L6.15425 20.5064V10.2958C6.15425 9.24879 7.00304 8.4 8.05008 8.4Z" fill="#6D75F4"/>
</svg>
