<svg width="24" height="24" viewBox="0 0 24 24" fill="none" xmlns="http://www.w3.org/2000/svg">
<g clip-path="url(#clip0_7702_142410)">
<path d="M3.05419 2.08691H15.9282C17.589 2.08691 18.9353 3.4386 18.9353 5.106V15.1894C18.9353 15.2311 18.9345 15.2727 18.9328 15.3141V13.3237H16.5743V5.4799C16.5743 4.9241 16.1255 4.47354 15.5719 4.47354H3.41044C2.85683 4.47354 2.40804 4.9241 2.40804 5.4799V14.9588C2.40804 15.5146 2.85683 15.9651 3.41044 15.9651H13.3629V18.2084H3.05419C1.39336 18.2084 0.0469971 16.8567 0.0469971 15.1894V5.106C0.0469971 3.4386 1.39336 2.08691 3.05419 2.08691Z" fill="#6D75F4"/>
<path d="M15.7575 18.2084H15.9282C17.4711 18.2084 18.7426 17.0419 18.9153 15.5393H16.3908C16.2433 15.7486 16.0182 15.8989 15.7575 15.9479V18.2084Z" fill="#6D75F4"/>
<path fill-rule="evenodd" clip-rule="evenodd" d="M8.11878 6.96766H20.1632L21.0015 6.9701C22.6589 6.97493 23.9999 8.3252 23.9999 9.98917V19.044C23.9999 20.7114 22.6536 22.0631 20.9928 22.0631H8.11878C6.45796 22.0631 5.11159 20.7114 5.11159 19.044V9.98674C5.11159 8.31935 6.45796 6.96766 8.11878 6.96766ZM18.9328 15.5393V13.3237H15.7575V9.83693H13.3629V13.3237H10.1789V15.5393H13.3629V19.1938H15.7575V15.5393H18.9328Z" fill="#6D75F4"/>
</g>
<defs>
<clipPath id="clip0_7702_142410">
<rect width="24" height="19.9522" fill="white" transform="translate(0 2.08691)"/>
</clipPath>
</defs>
</svg>
