<svg width="34" height="34" viewBox="0 0 34 34" fill="none" xmlns="http://www.w3.org/2000/svg">
<path fill-rule="evenodd" clip-rule="evenodd" d="M17 32.0571C25.3158 32.0571 32.0571 25.3158 32.0571 17C32.0571 8.68417 25.3158 1.94286 17 1.94286C8.68417 1.94286 1.94286 8.68417 1.94286 17C1.94286 25.3158 8.68417 32.0571 17 32.0571ZM17 34C26.3888 34 34 26.3888 34 17C34 7.61116 26.3888 0 17 0C7.61116 0 0 7.61116 0 17C0 26.3888 7.61116 34 17 34Z" fill="#6D75F4"/>
<g clip-path="url(#clip0_6803_75193)">
<path fill-rule="evenodd" clip-rule="evenodd" d="M8.84184 17.2953C8.84184 18.2158 9.58803 18.962 10.5085 18.962H23.8418C24.7623 18.962 25.5085 18.2158 25.5085 17.2953C25.5085 16.3749 24.7623 15.6287 23.8418 15.6287H10.5085C9.58803 15.6287 8.84184 16.3749 8.84184 17.2953Z" fill="#6D75F4"/>
<path fill-rule="evenodd" clip-rule="evenodd" d="M17.0074 8.82333C16.0869 8.82333 15.3408 9.56953 15.3408 10.49V23.8233C15.3408 24.7438 16.0869 25.49 17.0074 25.49C17.9279 25.49 18.6741 24.7438 18.6741 23.8233V10.49C18.6741 9.56953 17.9279 8.82333 17.0074 8.82333Z" fill="#6D75F4"/>
</g>
<defs>
<clipPath id="clip0_6803_75193">
<rect width="20" height="20" fill="white" transform="translate(7 7)"/>
</clipPath>
</defs>
</svg>
