<svg width="36" height="36" viewBox="0 0 36 36" fill="none" xmlns="http://www.w3.org/2000/svg">
<path fill-rule="evenodd" clip-rule="evenodd" d="M18 36C27.9411 36 36 27.9411 36 18C36 8.05887 27.9411 0 18 0C8.05887 0 0 8.05887 0 18C0 27.9411 8.05887 36 18 36ZM21.7435 10.5354H12.4294V9.89601C12.4294 8.24611 13.5219 8 15.1607 8H24.3157C25.9263 8 27 9.10325 27 10.7532V22.2567C27 23.9066 26.2528 25.0198 24.6423 25.0198V24.1626V13.5623C24.6423 12.4702 24.6423 11.8087 24.0942 11.195C23.5706 10.5354 22.7838 10.5354 21.7435 10.5354ZM20.8863 28.5714H11.7314C10.0926 28.5714 9 27.4582 9 25.8083V14.3048C9 12.6549 10.0926 11.5517 11.7314 11.5517H20.8863C22.4969 11.5517 23.5706 12.6549 23.5706 14.3048V25.8083C23.5706 27.4582 22.4969 28.5714 20.8863 28.5714ZM10.8837 25.3412C10.8837 26.0966 11.3076 26.524 12.0516 26.524H20.519C21.2631 26.524 21.6869 26.0966 21.6869 25.3412V14.7819C21.6869 14.0265 21.2631 13.5892 20.519 13.5892H12.0516C11.3076 13.5892 10.8837 14.0166 10.8837 14.7719V25.3412Z" fill="#6D75F4"/>
</svg>
