<svg width="20" height="23" viewBox="0 0 20 23" fill="none" xmlns="http://www.w3.org/2000/svg">
<g clip-path="url(#clip0_7943_169197)">
<path d="M3.62473 23H16.3753C17.5883 23 18.4956 22.7057 19.0974 22.1172C19.6991 21.5286 20 20.6458 20 19.4686V8.69228C20 7.51514 19.6991 6.6323 19.0974 6.04374C18.4956 5.45517 17.5883 5.16089 16.3753 5.16089H13.3191V7.19284H16.3468C16.8586 7.19284 17.2542 7.32596 17.5338 7.59222C17.8133 7.85848 17.9531 8.25786 17.9531 8.79037V19.3705C17.9531 19.903 17.8133 20.3024 17.5338 20.5687C17.2542 20.8349 16.8586 20.9681 16.3468 20.9681H3.65316C3.14143 20.9681 2.7458 20.8349 2.46624 20.5687C2.18668 20.3024 2.04691 19.903 2.04691 19.3705V8.79037C2.04691 8.25786 2.18668 7.85848 2.46624 7.59222C2.7458 7.32596 3.14143 7.19284 3.65316 7.19284H6.68088V5.16089H3.62473C2.42122 5.16089 1.51623 5.45517 0.909737 6.04374C0.303243 6.6323 0 7.51514 0 8.69228V19.4686C0 20.6458 0.303243 21.5286 0.909737 22.1172C1.51623 22.7057 2.42122 23 3.62473 23Z" fill="#6D75F4"/>
<path d="M9.99289 -1.33514e-05C10.2677 -1.33514e-05 10.507 0.0957451 10.7107 0.287262C10.9145 0.478781 11.0163 0.71 11.0163 0.980928V11.9114L10.9311 13.593L11.5281 12.9484L13.0917 11.2808C13.2623 11.0846 13.4897 10.9865 13.774 10.9865C14.0393 10.9865 14.262 11.0683 14.4421 11.2318C14.6221 11.3953 14.7121 11.6031 14.7121 11.8554C14.7121 12.0983 14.6079 12.3178 14.3994 12.514L10.732 15.9753C10.6089 16.1061 10.488 16.1949 10.3696 16.2416C10.2511 16.2883 10.1256 16.3116 9.99289 16.3116C9.86969 16.3116 9.74887 16.2883 9.63042 16.2416C9.51196 16.1949 9.3864 16.1061 9.25373 15.9753L5.58635 12.514C5.38734 12.3178 5.28784 12.0983 5.28784 11.8554C5.28784 11.6031 5.37313 11.3953 5.54371 11.2318C5.71428 11.0683 5.93698 10.9865 6.21179 10.9865C6.49609 10.9865 6.72826 11.0846 6.90831 11.2808L8.47192 12.9484L9.06894 13.593L8.98365 11.9114V0.980928C8.98365 0.71 9.08552 0.478781 9.28926 0.287262C9.49301 0.0957451 9.72755 -1.33514e-05 9.99289 -1.33514e-05Z" fill="#6D75F4"/>
</g>
<defs>
<clipPath id="clip0_7943_169197">
<rect width="20" height="23" fill="white"/>
</clipPath>
</defs>
</svg>
