<svg width="36" height="36" viewBox="0 0 36 36" fill="none" xmlns="http://www.w3.org/2000/svg">
<path fill-rule="evenodd" clip-rule="evenodd" d="M18 33.9429C26.805 33.9429 33.9429 26.805 33.9429 18C33.9429 9.195 26.805 2.05714 18 2.05714C9.195 2.05714 2.05714 9.195 2.05714 18C2.05714 26.805 9.195 33.9429 18 33.9429ZM18 36C27.9411 36 36 27.9411 36 18C36 8.05887 27.9411 0 18 0C8.05887 0 0 8.05887 0 18C0 27.9411 8.05887 36 18 36Z" fill="#6D75F4"/>
<g clip-path="url(#clip0_7706_156747)">
<path d="M25 18C24.9868 17.7991 24.9407 17.6108 24.8616 17.435C24.7825 17.2593 24.6639 17.096 24.5058 16.9454L15.5107 8.39548C15.2339 8.13183 14.8913 8 14.4827 8C14.061 8 13.7084 8.13496 13.425 8.4049C13.1417 8.67483 13 9.00439 13 9.3936C13 9.77025 13.1516 10.1092 13.4547 10.4105L21.4415 18L13.4547 25.5895C13.1516 25.8782 13 26.2109 13 26.5876C13 26.9893 13.1417 27.3252 13.425 27.5951C13.7084 27.865 14.061 28 14.4827 28C14.8913 28 15.2339 27.8619 15.5107 27.5857L24.5058 19.0358C24.6771 18.8851 24.8023 18.7219 24.8814 18.5461C24.9605 18.3704 25 18.1883 25 18Z" fill="#6D75F4"/>
</g>
<defs>
<clipPath id="clip0_7706_156747">
<rect width="12" height="20" fill="white" transform="translate(13 8)"/>
</clipPath>
</defs>
</svg>
