<svg width="18" height="10" viewBox="0 0 18 10" fill="none" xmlns="http://www.w3.org/2000/svg">
<g clip-path="url(#clip0_7702_134378)">
<path d="M9 10C9.18079 9.98902 9.35028 9.95058 9.50847 9.88468C9.66667 9.81878 9.81356 9.71994 9.94915 9.58814L17.6441 2.09226C17.8814 1.86161 18 1.57606 18 1.23558C18 0.884128 17.8785 0.590336 17.6356 0.354202C17.3927 0.118066 17.096 0 16.7458 0C16.4068 0 16.1017 0.126302 15.8305 0.378913L9 7.0346L2.16949 0.378913C1.9096 0.126302 1.61017 0 1.27119 0C0.909603 0 0.607346 0.118066 0.364407 0.354202C0.121468 0.590336 0 0.884128 0 1.23558C0 1.57606 0.124292 1.86161 0.372881 2.09226L8.0678 9.58814C8.20339 9.73092 8.35028 9.83526 8.50847 9.90115C8.66667 9.96705 8.83051 10 9 10Z" fill="#6D75F4"/>
</g>
<defs>
<clipPath id="clip0_7702_134378">
<rect width="18" height="10" fill="white"/>
</clipPath>
</defs>
</svg>
