<svg width="11" height="10" viewBox="0 0 11 10" fill="none" xmlns="http://www.w3.org/2000/svg">
<path fill-rule="evenodd" clip-rule="evenodd" d="M5.46151 0.294189C5.92174 0.294189 6.29484 0.667286 6.29484 1.12752V9.10092C6.29484 9.56116 5.92174 9.93425 5.46151 9.93425C5.00127 9.93425 4.62817 9.56116 4.62817 9.10092V1.12752C4.62817 0.667286 5.00127 0.294189 5.46151 0.294189Z" fill="#09AE4B"/>
<path fill-rule="evenodd" clip-rule="evenodd" d="M4.87227 0.538267C5.19771 0.21283 5.72534 0.21283 6.05078 0.538267L9.82765 4.31514C10.1531 4.64058 10.1531 5.16821 9.82765 5.49365C9.50222 5.81909 8.97458 5.81909 8.64914 5.49365L5.46152 2.30603L2.27391 5.49365C1.94847 5.81909 1.42083 5.81909 1.0954 5.49365C0.769959 5.16821 0.769959 4.64058 1.0954 4.31514L4.87227 0.538267Z" fill="#09AE4B"/>
</svg>
