<svg width="36" height="36" viewBox="0 0 36 36" fill="none" xmlns="http://www.w3.org/2000/svg">
<path fill-rule="evenodd" clip-rule="evenodd" d="M18 36C27.9411 36 36 27.9411 36 18C36 8.05887 27.9411 0 18 0C8.05887 0 0 8.05887 0 18C0 27.9411 8.05887 36 18 36ZM12.9419 18C12.9419 19.3967 11.8096 20.529 10.4128 20.529C9.01608 20.529 7.88379 19.3967 7.88379 18C7.88379 16.6033 9.01608 15.471 10.4128 15.471C11.8096 15.471 12.9419 16.6033 12.9419 18ZM20.529 18C20.529 19.3967 19.3967 20.529 17.9999 20.529C16.6032 20.529 15.4709 19.3967 15.4709 18C15.4709 16.6033 16.6032 15.471 17.9999 15.471C19.3967 15.471 20.529 16.6033 20.529 18ZM25.587 20.529C26.9838 20.529 28.1161 19.3967 28.1161 18C28.1161 16.6033 26.9838 15.471 25.587 15.471C24.1903 15.471 23.058 16.6033 23.058 18C23.058 19.3967 24.1903 20.529 25.587 20.529Z" fill="#6D75F4"/>
</svg>
