<svg width="36" height="36" viewBox="0 0 36 36" fill="none" xmlns="http://www.w3.org/2000/svg">
<circle cx="18" cy="18" r="16.75" stroke="#656DE6" stroke-width="2.5"/>
<path d="M12.9419 18C12.9419 19.3968 11.8096 20.529 10.4128 20.529C9.01608 20.529 7.88379 19.3968 7.88379 18C7.88379 16.6033 9.01608 15.471 10.4128 15.471C11.8096 15.471 12.9419 16.6033 12.9419 18Z" fill="#6D75F4"/>
<path d="M20.529 18C20.529 19.3968 19.3967 20.529 17.9999 20.529C16.6032 20.529 15.4709 19.3968 15.4709 18C15.4709 16.6033 16.6032 15.471 17.9999 15.471C19.3967 15.471 20.529 16.6033 20.529 18Z" fill="#6D75F4"/>
<path d="M28.1161 18C28.1161 19.3968 26.9838 20.529 25.587 20.529C24.1903 20.529 23.058 19.3968 23.058 18C23.058 16.6033 24.1903 15.471 25.587 15.471C26.9838 15.471 28.1161 16.6033 28.1161 18Z" fill="#6D75F4"/>
</svg>
