<svg width="25" height="25" viewBox="0 0 25 25" fill="none" xmlns="http://www.w3.org/2000/svg">
<g clip-path="url(#clip0_6801_85685)">
<path fill-rule="evenodd" clip-rule="evenodd" d="M12.7997 24.3094C19.4435 24.3094 24.8294 18.9235 24.8294 12.2797C24.8294 5.63593 19.4435 0.250069 12.7997 0.250069C6.15589 0.250069 0.77002 5.63593 0.77002 12.2797C0.77002 18.9235 6.15589 24.3094 12.7997 24.3094ZM16.1224 12.741C17.2817 13.6041 17.9001 14.6217 17.9645 15.7618C17.9709 15.852 18.0546 17.3205 17.0112 18.4541C16.2576 19.2786 15.124 19.7101 13.6426 19.7359H13.4816C12.0323 19.7359 10.9889 19.4009 10.3834 18.7311C9.8102 18.0999 9.8424 17.3914 9.84884 17.2754C9.85528 16.6313 10.4028 16.1032 11.0726 16.1032C11.8133 16.1032 12.2964 16.5669 12.2964 17.2883C12.2964 17.6425 12.1354 17.9453 11.852 18.1449C12.013 18.2931 12.3222 18.4026 12.7473 18.467C13.1825 18.5344 13.5944 18.5202 13.6387 18.5186C13.641 18.5186 13.6426 18.5185 13.6426 18.5185C14.3704 18.4734 14.9308 18.2158 15.3043 17.7714C15.9242 17.0214 15.8342 15.9552 15.8265 15.8645C15.8262 15.8609 15.8261 15.8584 15.8261 15.8584V15.8326C15.8261 15.4784 15.2077 13.5719 12.2449 13.0695C12.1161 13.0566 12.0259 12.9535 12.0259 12.8247V12.7667C12.0259 12.6875 12.0293 12.5208 12.0336 12.3079C12.0352 12.2264 12.037 12.1381 12.0388 12.0453V11.9552L14.9694 9.0052H11.2272V13.3271C11.2272 13.3335 11.2272 13.881 11.5106 14.1709C11.6266 14.2868 11.7747 14.3448 11.9615 14.3448H11.9744C11.9744 14.3448 12.3415 14.3512 12.7666 14.0678L13.1144 13.8359V14.6861C13.1144 14.8987 13.0049 15.0919 12.8246 15.2143C12.4961 15.4269 12.1612 15.5492 11.8262 15.575C11.0404 15.6394 10.3641 15.4397 9.88749 15.0017C9.4173 14.5702 9.15966 13.9132 9.15966 13.1532V9.0052H7.29822V7.97465C7.29822 7.82006 7.43348 7.6848 7.58806 7.6848H9.15322V6.64137C9.15322 6.33864 8.9149 6.29999 8.81185 6.29999H8.45759V5.5464L11.2208 4.96671V7.69769H17.2624C17.4428 7.69769 17.5973 7.85227 17.5973 8.03262V8.48993L14.3511 11.7491C15.1626 12.084 15.7552 12.4704 16.1224 12.741Z" fill="#B1B1B1"/>
</g>
<defs>
<clipPath id="clip0_6801_85685">
<rect width="24" height="24" fill="white" transform="translate(0.769043 0.249023)"/>
</clipPath>
</defs>
</svg>
