<svg width="26" height="26" viewBox="0 0 26 26" fill="none" xmlns="http://www.w3.org/2000/svg">
<path d="M13.4533 21.7584C13.7505 21.7584 14.1319 21.5725 14.5975 21.2007C15.0632 20.829 15.5511 20.3457 16.0613 19.7509C16.5715 19.1561 17.0495 18.5242 17.4954 17.855C17.9412 17.1859 18.3077 16.544 18.595 15.9294C18.8824 15.3147 19.026 14.8092 19.026 14.4126C19.026 14.1252 18.8898 13.7931 18.6173 13.4164C18.3449 13.0397 18.0056 12.6729 17.5994 12.316C17.1932 11.9591 16.7721 11.6642 16.3362 11.4312C15.9003 11.1983 15.5189 11.0818 15.192 11.0818C14.9938 11.0818 14.7709 11.1487 14.5232 11.2825C14.2755 11.4164 14.0229 11.5527 13.7653 11.6915C13.5077 11.8302 13.265 11.8996 13.0372 11.8996C12.8192 11.8996 12.5443 11.7831 12.2124 11.5502C11.8805 11.3172 11.5858 11.0545 11.3282 10.7621C11.0706 10.4696 10.9418 10.2243 10.9418 10.026C10.9418 9.87732 10.9963 9.76332 11.1053 9.68401C11.2142 9.60471 11.343 9.56506 11.4916 9.56506C11.6898 9.56506 11.9152 9.64188 12.1678 9.79554C12.4204 9.9492 12.6954 10.1028 12.9926 10.2565C13.2898 10.4102 13.5969 10.487 13.9139 10.487C14.2805 10.487 14.5579 10.368 14.7461 10.1301C14.9344 9.89219 15.0285 9.58984 15.0285 9.22305C15.0285 9.02478 14.9789 8.81908 14.8799 8.60595C14.7808 8.39281 14.652 8.15737 14.4935 7.89963C14.8898 7.71128 15.3728 7.45601 15.9424 7.13383C16.5121 6.81165 17.0619 6.43495 17.592 6.00372C18.122 5.57249 18.7486 5.31406 19.026 4.80848C18.6793 4.11455 17.7505 3.34697 16.6854 2.92565C15.6204 2.50434 14.3796 2.29368 12.9628 2.29368C11.9523 2.29368 10.9567 2.43246 9.97585 2.71004C8.99504 2.98761 8.10836 3.35935 7.31579 3.82528C6.52322 4.2912 5.88917 4.80917 5.41362 5.37918C4.93808 5.9492 4.19101 7.31474 4.1811 7.89963C4.16129 8.4746 4.88359 8.28376 5.33932 8.90335C5.79505 9.52293 6.40928 10.1648 7.18204 10.829L8.8613 12.2862C9.1387 12.5242 9.3517 12.715 9.50031 12.8587C9.64892 13.0025 9.72322 13.1487 9.72322 13.2974C9.72322 13.5651 9.62167 13.798 9.41858 13.9963C9.21548 14.1945 9.11393 14.4572 9.11393 14.7844C9.11393 15.3693 9.41114 15.8798 10.0056 16.316C10.6495 16.7918 11.1375 17.1512 11.4693 17.3941C11.8012 17.6369 12.0291 17.8228 12.1529 17.9517C12.2768 18.0805 12.3387 18.2144 12.3387 18.3532C12.3387 18.7299 12.2644 19.0768 12.1158 19.3941C11.9672 19.7113 11.8929 20.0483 11.8929 20.4052C11.8929 20.7224 12.0613 21.0273 12.3981 21.3197C12.735 21.6121 13.0867 21.7584 13.4533 21.7584ZM12.9926 25C14.6372 25 16.1827 24.6877 17.6291 24.0632C19.0756 23.4387 20.3511 22.5713 21.4557 21.461C22.5604 20.3507 23.4272 19.0719 24.0563 17.6245C24.6855 16.1772 25 14.6357 25 13C25 11.3643 24.6855 9.82281 24.0563 8.37546C23.4272 6.92812 22.5579 5.64932 21.4483 4.53903C20.3387 3.42874 19.0607 2.56134 17.6142 1.9368C16.1678 1.31226 14.6223 1 12.9777 1C11.343 1 9.80248 1.31226 8.35604 1.9368C6.90959 2.56134 5.63654 3.42874 4.53684 4.53903C3.43715 5.64932 2.57276 6.92812 1.94365 8.37546C1.31455 9.82281 1 11.3643 1 13C1 14.6357 1.31455 16.1772 1.94365 17.6245C2.57276 19.0719 3.43962 20.3507 4.54427 21.461C5.64892 22.5713 6.92445 23.4387 8.3709 24.0632C9.81734 24.6877 11.3579 25 12.9926 25ZM12.9926 23.2156C11.6056 23.2156 10.2978 22.948 9.06935 22.4126C7.84086 21.8773 6.75604 21.1388 5.81486 20.197C4.87368 19.2553 4.13561 18.1673 3.60062 16.9331C3.06563 15.6989 2.79814 14.3879 2.79814 13C2.79814 11.6121 3.06316 10.3011 3.59319 9.06691C4.12322 7.83271 4.85882 6.74474 5.8 5.80297C6.74118 4.86121 7.826 4.12268 9.05449 3.58736C10.283 3.05204 11.5907 2.78439 12.9777 2.78439C14.3746 2.78439 15.6873 3.05204 16.9158 3.58736C18.1443 4.12268 19.2316 4.86121 20.1777 5.80297C21.1238 6.74474 21.8644 7.83271 22.3994 9.06691C22.9344 10.3011 23.2019 11.6121 23.2019 13C23.2019 14.3879 22.9344 15.6989 22.3994 16.9331C21.8644 18.1673 21.1263 19.2553 20.1851 20.197C19.244 21.1388 18.1591 21.8773 16.9307 22.4126C15.7022 22.948 14.3895 23.2156 12.9926 23.2156Z" fill="#86889D"/>
</svg>
