<svg width="35" height="35" viewBox="0 0 35 35" fill="none" xmlns="http://www.w3.org/2000/svg">
<path fill-rule="evenodd" clip-rule="evenodd" d="M17.3621 32.0862C25.6779 32.0862 32.4192 25.3449 32.4192 17.0291C32.4192 8.71322 25.6779 1.97191 17.3621 1.97191C9.04623 1.97191 2.30492 8.71322 2.30492 17.0291C2.30492 25.3449 9.04623 32.0862 17.3621 32.0862ZM17.3621 34.0291C26.7509 34.0291 34.3621 26.4179 34.3621 17.0291C34.3621 7.64021 26.7509 0.0290527 17.3621 0.0290527C7.97322 0.0290527 0.362061 7.64021 0.362061 17.0291C0.362061 26.4179 7.97322 34.0291 17.3621 34.0291Z" fill="#656DE6"/>
<path d="M13.2821 17.0186C13.2821 18.1337 12.3781 19.0377 11.263 19.0377C10.1479 19.0377 9.2439 18.1337 9.2439 17.0186C9.2439 15.9035 10.1479 14.9995 11.263 14.9995C12.3781 14.9995 13.2821 15.9035 13.2821 17.0186Z" fill="#6D75F4"/>
<path d="M19.3394 17.0186C19.3394 18.1337 18.4354 19.0377 17.3203 19.0377C16.2052 19.0377 15.3012 18.1337 15.3012 17.0186C15.3012 15.9035 16.2052 14.9995 17.3203 14.9995C18.4354 14.9995 19.3394 15.9035 19.3394 17.0186Z" fill="#6D75F4"/>
<path d="M25.3968 17.0186C25.3968 18.1337 24.4928 19.0377 23.3777 19.0377C22.2625 19.0377 21.3586 18.1337 21.3586 17.0186C21.3586 15.9035 22.2625 14.9995 23.3777 14.9995C24.4928 14.9995 25.3968 15.9035 25.3968 17.0186Z" fill="#6D75F4"/>
</svg>
