<svg width="36" height="36" viewBox="0 0 36 36" fill="none" xmlns="http://www.w3.org/2000/svg">
<circle cx="18" cy="18" r="18" fill="#6D75F4"/>
<path fill-rule="evenodd" clip-rule="evenodd" d="M16.6598 8.9737C16.9348 9.24923 17.0399 9.6516 16.9348 10.0264C16.5834 11.2795 16.5719 12.6034 16.9014 13.8624C17.2309 15.1214 17.8896 16.2699 18.8099 17.1902C19.7301 18.1104 20.8786 18.7691 22.1376 19.0986C23.3966 19.4281 24.7206 19.4166 25.9736 19.0652C26.3484 18.9601 26.7508 19.0652 27.0263 19.3402C27.3018 19.6152 27.4077 20.0174 27.3033 20.3924C26.8584 21.9909 26.0024 23.445 24.8207 24.6097C23.6389 25.7745 22.1726 26.6093 20.5678 27.031C18.963 27.4527 17.2757 27.4466 15.674 27.0133C14.0723 26.5799 12.6121 25.7345 11.4388 24.5612C10.2655 23.3879 9.42007 21.9277 8.98675 20.326C8.55342 18.7243 8.54731 17.037 8.96901 15.4322C9.39072 13.8274 10.2255 12.3611 11.3903 11.1793C12.555 9.99757 14.0091 9.1416 15.6076 8.69667C15.9826 8.59229 16.3848 8.69818 16.6598 8.9737ZM14.5216 11.4669C13.9384 11.799 13.4011 12.2109 12.926 12.6929C12.0257 13.6064 11.3804 14.7398 11.0545 15.9802C10.7285 17.2207 10.7332 18.5249 11.0682 19.7629C11.4031 21.0009 12.0566 22.1296 12.9635 23.0365C13.8704 23.9434 14.9991 24.5969 16.2371 24.9318C17.4751 25.2668 18.7793 25.2715 20.0198 24.9455C21.2602 24.6196 22.3936 23.9743 23.3071 23.074C23.7891 22.5989 24.201 22.0616 24.5331 21.4784C23.5474 21.5345 22.5548 21.4367 21.5916 21.1846C19.9624 20.7581 18.476 19.9057 17.2852 18.7148C16.0943 17.524 15.2419 16.0376 14.8154 14.4084C14.5633 13.4452 14.4655 12.4526 14.5216 11.4669Z" fill="white"/>
<path fill-rule="evenodd" clip-rule="evenodd" d="M18 33.9429C26.805 33.9429 33.9429 26.805 33.9429 18C33.9429 9.195 26.805 2.05714 18 2.05714C9.195 2.05714 2.05714 9.195 2.05714 18C2.05714 26.805 9.195 33.9429 18 33.9429ZM18 36C27.9411 36 36 27.9411 36 18C36 8.05888 27.9411 0 18 0C8.05888 0 0 8.05888 0 18C0 27.9411 8.05888 36 18 36Z" fill="#6D75F4"/>
</svg>
