<svg width="36" height="36" viewBox="0 0 36 36" fill="none" xmlns="http://www.w3.org/2000/svg">
<path fill-rule="evenodd" clip-rule="evenodd" d="M18 36C27.9411 36 36 27.9411 36 18C36 8.05887 27.9411 0 18 0C8.05887 0 0 8.05887 0 18C0 27.9411 8.05887 36 18 36ZM15.6692 9.48579C15.6692 8.31625 16.6173 7.36814 17.7869 7.36814C18.9564 7.36814 19.9045 8.31625 19.9045 9.48579V16.0149H26.4706C27.6401 16.0149 28.5882 16.963 28.5882 18.1326C28.5882 19.3021 27.6401 20.2502 26.4706 20.2502H19.9045V26.427C19.9045 27.5965 18.9564 28.5446 17.7869 28.5446C16.6173 28.5446 15.6692 27.5965 15.6692 26.427V20.2502H9.52941C8.35987 20.2502 7.41176 19.3021 7.41176 18.1326C7.41176 16.963 8.35987 16.0149 9.52941 16.0149H15.6692V9.48579Z" fill="#6D75F4"/>
</svg>
