<svg width="60" height="60" viewBox="0 0 60 60" fill="none" xmlns="http://www.w3.org/2000/svg">
<g clip-path="url(#clip0_12386_103450)">
<path d="M30 0C46.5703 0 60 13.4297 60 30C60 46.5703 46.5703 60 30 60C13.4297 60 0 46.5703 0 30C0 13.4297 13.4297 0 30 0Z" fill="#0052FF"/>
<path d="M30.0059 40.5469C24.1816 40.5469 19.459 35.8301 19.459 30C19.459 24.1699 24.1816 19.4531 30.0059 19.4531C35.2266 19.4531 39.5625 23.2617 40.3945 28.2422H51.0176C50.1211 17.4141 41.0566 8.90625 30 8.90625C18.3516 8.90625 8.90625 18.3516 8.90625 30C8.90625 41.6484 18.3516 51.0938 30 51.0938C41.6484 51.0938 50.1211 42.5859 51.0176 31.7578H40.3887C39.5508 36.7383 35.2266 40.5469 30.0059 40.5469Z" fill="white"/>
</g>
<defs>
<clipPath id="clip0_12386_103450">
<rect width="60" height="60" fill="white"/>
</clipPath>
</defs>
</svg>
