<svg width="22" height="22" viewBox="0 0 22 22" fill="none" xmlns="http://www.w3.org/2000/svg">
<g clip-path="url(#clip0_7702_144665)">
<path d="M2.41592 10.0494H7.62526C8.43057 10.0494 9.03454 9.84317 9.4372 9.43073C9.83986 9.01829 10.0412 8.39964 10.0412 7.57476V2.47462C10.0412 1.64974 9.83986 1.03109 9.4372 0.618656C9.03454 0.206217 8.43057 0 7.62526 0H2.41592C1.61061 0 1.00664 0.206217 0.603981 0.618656C0.201325 1.03109 0 1.64974 0 2.47462V7.57476C0 8.39964 0.201325 9.01829 0.603981 9.43073C1.00664 9.84317 1.61061 10.0494 2.41592 10.0494ZM2.43102 8.14815C2.06863 8.14815 1.88744 7.95702 1.88744 7.57476V2.45953C1.88744 2.08733 2.06863 1.90123 2.43102 1.90123H7.59506C7.96752 1.90123 8.15374 2.08733 8.15374 2.45953V7.57476C8.15374 7.95702 7.96752 8.14815 7.59506 8.14815H2.43102ZM3.97117 6.30727H6.05491C6.22604 6.30727 6.3116 6.21171 6.3116 6.02058V4.01372C6.3116 3.83265 6.22604 3.74211 6.05491 3.74211H3.97117C3.81011 3.74211 3.72958 3.83265 3.72958 4.01372V6.02058C3.72958 6.21171 3.81011 6.30727 3.97117 6.30727ZM14.3747 10.0494H19.5841C20.3995 10.0494 21.0059 9.84317 21.4036 9.43073C21.8012 9.01829 22 8.39964 22 7.57476V2.47462C22 1.64974 21.8012 1.03109 21.4036 0.618656C21.0059 0.206217 20.3995 0 19.5841 0H14.3747C13.5694 0 12.9655 0.206217 12.5628 0.618656C12.1601 1.03109 11.9588 1.64974 11.9588 2.47462V7.57476C11.9588 8.39964 12.1601 9.01829 12.5628 9.43073C12.9655 9.84317 13.5694 10.0494 14.3747 10.0494ZM14.4049 8.14815C14.0325 8.14815 13.8463 7.95702 13.8463 7.57476V2.45953C13.8463 2.08733 14.0325 1.90123 14.4049 1.90123H19.569C19.9314 1.90123 20.1126 2.08733 20.1126 2.45953V7.57476C20.1126 7.95702 19.9314 8.14815 19.569 8.14815H14.4049ZM16.0206 6.30727H18.1043C18.2755 6.30727 18.361 6.21171 18.361 6.02058V4.01372C18.361 3.83265 18.2755 3.74211 18.1043 3.74211H16.0206C15.8595 3.74211 15.779 3.83265 15.779 4.01372V6.02058C15.779 6.21171 15.8595 6.30727 16.0206 6.30727ZM2.41592 22H7.62526C8.43057 22 9.03454 21.7963 9.4372 21.3889C9.83986 20.9815 10.0412 20.3603 10.0412 19.5254V14.4252C10.0412 13.6004 9.83986 12.9842 9.4372 12.5768C9.03454 12.1694 8.43057 11.9657 7.62526 11.9657H2.41592C1.61061 11.9657 1.00664 12.1694 0.603981 12.5768C0.201325 12.9842 0 13.6004 0 14.4252V19.5254C0 20.3603 0.201325 20.9815 0.603981 21.3889C1.00664 21.7963 1.61061 22 2.41592 22ZM2.43102 20.0988C2.06863 20.0988 1.88744 19.9127 1.88744 19.5405V14.4252C1.88744 14.043 2.06863 13.8519 2.43102 13.8519H7.59506C7.96752 13.8519 8.15374 14.043 8.15374 14.4252V19.5405C8.15374 19.9127 7.96752 20.0988 7.59506 20.0988H2.43102ZM3.97117 18.2579H6.05491C6.22604 18.2579 6.3116 18.1623 6.3116 17.9712V15.9643C6.3116 15.7833 6.22604 15.6927 6.05491 15.6927H3.97117C3.81011 15.6927 3.72958 15.7833 3.72958 15.9643V17.9712C3.72958 18.1623 3.81011 18.2579 3.97117 18.2579ZM12.7893 15.1193H14.873C15.0442 15.1193 15.1297 15.0238 15.1297 14.8326V12.8258C15.1297 12.6447 15.0442 12.5542 14.873 12.5542H12.7893C12.6282 12.5542 12.5477 12.6447 12.5477 12.8258V14.8326C12.5477 15.0238 12.6282 15.1193 12.7893 15.1193ZM19.0707 15.1193H21.1544C21.3256 15.1193 21.4111 15.0238 21.4111 14.8326V12.8258C21.4111 12.6447 21.3256 12.5542 21.1544 12.5542H19.0707C18.9096 12.5542 18.8291 12.6447 18.8291 12.8258V14.8326C18.8291 15.0238 18.9096 15.1193 19.0707 15.1193ZM15.9602 18.2579H18.0439C18.2151 18.2579 18.3006 18.1623 18.3006 17.9712V15.9643C18.3006 15.7833 18.2151 15.6927 18.0439 15.6927H15.9602C15.7991 15.6927 15.7186 15.7833 15.7186 15.9643V17.9712C15.7186 18.1623 15.7991 18.2579 15.9602 18.2579ZM12.7893 21.3964H14.873C15.0442 21.3964 15.1297 21.3009 15.1297 21.1097V19.1029C15.1297 18.9218 15.0442 18.8313 14.873 18.8313H12.7893C12.6282 18.8313 12.5477 18.9218 12.5477 19.1029V21.1097C12.5477 21.3009 12.6282 21.3964 12.7893 21.3964ZM19.0707 21.3964H21.1544C21.3256 21.3964 21.4111 21.3009 21.4111 21.1097V19.1029C21.4111 18.9218 21.3256 18.8313 21.1544 18.8313H19.0707C18.9096 18.8313 18.8291 18.9218 18.8291 19.1029V21.1097C18.8291 21.3009 18.9096 21.3964 19.0707 21.3964Z" fill="#6D75F4"/>
</g>
<defs>
<clipPath id="clip0_7702_144665">
<rect width="22" height="22" fill="white"/>
</clipPath>
</defs>
</svg>
