<svg width="36" height="36" viewBox="0 0 36 36" fill="none" xmlns="http://www.w3.org/2000/svg">
<circle cx="18" cy="18" r="17" stroke="#6D75F4" stroke-width="2"/>
<path fill-rule="evenodd" clip-rule="evenodd" d="M10.4386 25.5531C9.85379 24.9571 9.85379 23.991 10.4386 23.395L23.1464 10.4469C23.7312 9.85102 24.6795 9.85102 25.2643 10.4469C25.8492 11.0429 25.8492 12.009 25.2643 12.605L12.5566 25.5531C11.9717 26.149 11.0235 26.149 10.4386 25.5531Z" fill="#6D75F4"/>
<path fill-rule="evenodd" clip-rule="evenodd" d="M25.5614 25.5531C26.1462 24.9571 26.1462 23.991 25.5614 23.395L12.8536 10.4469C12.2688 9.85102 11.3205 9.85102 10.7357 10.4469C10.1508 11.0429 10.1508 12.009 10.7357 12.605L23.4434 25.5531C24.0283 26.149 24.9765 26.149 25.5614 25.5531Z" fill="#6D75F4"/>
</svg>
