<svg width="26" height="20" viewBox="0 0 26 20" fill="none" xmlns="http://www.w3.org/2000/svg">
<g clip-path="url(#clip0_8562_216725)">
<path d="M0 15.5556C0 15.8646 0.110507 16.1204 0.331525 16.3229C0.552542 16.5254 0.834335 16.6267 1.17691 16.6267H3.7628C4.71318 16.6267 5.51712 16.4722 6.17464 16.1631C6.83217 15.854 7.50903 15.3104 8.20523 14.5324L14.9186 6.93845C15.3938 6.39488 15.8386 6.01386 16.253 5.79536C16.6674 5.57687 17.1895 5.46763 17.8194 5.46763H19.7257V7.68985C19.7257 7.96696 19.8114 8.19078 19.9826 8.36131C20.1539 8.53184 20.3722 8.61711 20.6374 8.61711C20.9468 8.61711 21.1955 8.52651 21.3833 8.34532L25.6269 5.03597C25.87 4.84412 25.9943 4.60432 25.9998 4.31655C26.0053 4.02878 25.8865 3.78897 25.6434 3.59712L21.3668 0.239808C21.1678 0.079935 20.9247 0 20.6374 0C20.3611 0 20.1401 0.0825994 19.9744 0.247801C19.8086 0.413004 19.7257 0.634158 19.7257 0.911271V3.32534H17.7531C16.8028 3.32534 15.9988 3.47988 15.3413 3.78897C14.6838 4.09806 14.0069 4.64162 13.3107 5.41966L6.61392 13.0136C6.12768 13.5678 5.67736 13.9515 5.26295 14.1647C4.84855 14.3778 4.35955 14.4844 3.79596 14.4844H1.17691C0.845386 14.4844 0.566355 14.5883 0.339812 14.7962C0.11327 15.004 0 15.2571 0 15.5556ZM0 4.39648C0 4.69491 0.11327 4.94804 0.339812 5.15588C0.566355 5.36371 0.845386 5.46763 1.17691 5.46763H3.79596C4.35955 5.46763 4.85131 5.57687 5.27124 5.79536C5.69117 6.01386 6.13873 6.39488 6.61392 6.93845L13.3107 14.5324C14.0069 15.3104 14.6838 15.854 15.3413 16.1631C15.9988 16.4722 16.8028 16.6267 17.7531 16.6267H19.7257V19.0887C19.7257 19.3658 19.8086 19.587 19.9744 19.7522C20.1401 19.9174 20.3611 20 20.6374 20C20.9247 20 21.1678 19.9201 21.3668 19.7602L25.6269 16.4189C25.87 16.227 25.9943 15.9899 25.9998 15.7074C26.0053 15.425 25.8865 15.1879 25.6434 14.996L21.3833 11.6707C21.1955 11.4788 20.9468 11.3829 20.6374 11.3829C20.3722 11.3829 20.1539 11.4682 19.9826 11.6387C19.8114 11.8092 19.7257 12.033 19.7257 12.3102V14.4844H17.8194C17.1895 14.4844 16.6674 14.3752 16.253 14.1567C15.8386 13.9382 15.3938 13.5572 14.9186 13.0136L8.20523 5.41966C7.50903 4.64162 6.83217 4.09806 6.17464 3.78897C5.51712 3.47988 4.71318 3.32534 3.7628 3.32534H1.17691C0.834335 3.32534 0.552542 3.42659 0.331525 3.6291C0.110507 3.8316 0 4.0874 0 4.39648Z" fill="#6D75F4"/>
</g>
<defs>
<clipPath id="clip0_8562_216725">
<rect width="26" height="20" fill="white"/>
</clipPath>
</defs>
</svg>
