<svg width="44" height="44" viewBox="0 0 44 44" fill="none" xmlns="http://www.w3.org/2000/svg">
<path d="M9.99997 28.6666C9.99997 29.403 10.597 30 11.3334 30H32.6665C33.403 30 34 29.403 34 28.6666C34 27.9301 33.403 27.3331 32.6666 27.3331H11.3334C10.597 27.3331 9.99997 27.9301 9.99997 28.6666ZM9.99997 22C9.99997 22.7363 10.5968 23.3331 11.3331 23.3331H32.6669C33.4031 23.3331 34 22.7363 34 22C34 21.2637 33.4031 20.6669 32.6669 20.6669H11.3331C10.5968 20.6669 9.99997 21.2637 9.99997 22ZM11.3334 14C10.597 14 9.99997 14.597 9.99997 15.3334C9.99997 16.0699 10.597 16.6669 11.3334 16.6669H32.6666C33.403 16.6669 34 16.0699 34 15.3334C34 14.597 33.403 14 32.6666 14H11.3334Z" fill="black"/>
</svg>
