<svg width="24" height="24" viewBox="0 0 24 24" fill="none" xmlns="http://www.w3.org/2000/svg">
<path d="M4 9.87215V10.7312C4 10.9744 4.10767 11.1823 4.32301 11.3548C4.53835 11.5274 4.79774 11.6137 5.10117 11.6137C5.4144 11.6137 5.68112 11.5274 5.90136 11.3548C6.1216 11.1823 6.23171 10.9744 6.23171 10.7312V9.95452C6.23171 9.20141 6.5278 8.59735 7.11999 8.14234C7.71218 7.68734 8.49768 7.45984 9.4765 7.45984H14.6078V9.40146C14.6078 9.62896 14.691 9.80743 14.8574 9.93687C15.0238 10.0663 15.2392 10.131 15.5035 10.131C15.7384 10.131 15.9782 10.0604 16.2229 9.91922L19.5934 7.15389C19.8381 6.99699 19.9604 6.80479 19.9604 6.57728C19.9604 6.34978 19.8381 6.15366 19.5934 5.98891L16.2229 3.21181C15.9782 3.0706 15.7384 3 15.5035 3C15.2392 3 15.0238 3.06472 14.8574 3.19416C14.691 3.3236 14.6078 3.50207 14.6078 3.72958V5.7065H9.62333C7.92017 5.7065 6.55718 6.08501 5.5343 6.84205C4.51143 7.59909 4 8.60911 4 9.87215ZM20 14.1161V13.2571C20 13.006 19.8948 12.7962 19.6843 12.6275C19.4739 12.4588 19.2121 12.3745 18.8988 12.3745C18.5758 12.3745 18.3066 12.4588 18.0913 12.6275C17.876 12.7962 17.7683 13.006 17.7683 13.2571V14.0337C17.7683 14.7868 17.4722 15.3909 16.88 15.8459C16.2878 16.3009 15.5023 16.5284 14.5235 16.5284H9.39215V14.5985C9.39215 14.371 9.30895 14.1926 9.14255 14.0631C8.97615 13.9337 8.76081 13.869 8.49653 13.869C8.26161 13.869 8.0218 13.9396 7.7771 14.0808L4.40664 16.8461C4.16193 17.003 4.03713 17.1972 4.03224 17.4286C4.02734 17.66 4.15214 17.8542 4.40664 18.0111L7.7771 20.7882C8.0218 20.9294 8.26161 21 8.49653 21C8.76081 21 8.97615 20.9353 9.14255 20.8058C9.30895 20.6764 9.39215 20.4979 9.39215 20.2704V18.2817H14.3767C16.0798 18.2817 17.4428 17.9013 18.4657 17.1403C19.4886 16.3793 20 15.3713 20 14.1161Z" fill="#6D75F4"/>
</svg>
