<svg width="20" height="16" viewBox="0 0 20 16" fill="none" xmlns="http://www.w3.org/2000/svg">
<g clip-path="url(#clip0_7702_142770)">
<path d="M13.8462 5.45455C13.8462 5.74387 13.7246 6.02135 13.5082 6.22593C13.2918 6.43052 12.9983 6.54545 12.6923 6.54545C12.3863 6.54545 12.0928 6.43052 11.8764 6.22593C11.66 6.02135 11.5385 5.74387 11.5385 5.45455C11.5385 5.16522 11.66 4.88774 11.8764 4.68316C12.0928 4.47857 12.3863 4.36364 12.6923 4.36364C12.9983 4.36364 13.2918 4.47857 13.5082 4.68316C13.7246 4.88774 13.8462 5.16522 13.8462 5.45455ZM20 1.45455V13.0909V14.5455C20 14.9312 19.8379 15.3012 19.5494 15.574C19.2609 15.8468 18.8696 16 18.4615 16H1.53846C1.13044 16 0.739122 15.8468 0.450605 15.574C0.162087 15.3012 0 14.9312 0 14.5455V11.6364V1.45455C0 1.06878 0.162087 0.698807 0.450605 0.426026C0.739122 0.153246 1.13044 0 1.53846 0H18.4615C18.8696 0 19.2609 0.153246 19.5494 0.426026C19.8379 0.698807 20 1.06878 20 1.45455ZM18.4615 11.3364V1.45455H1.53846V9.88182L5.06731 6.54545C5.35694 6.27563 5.74723 6.12438 6.15385 6.12438C6.56046 6.12438 6.95075 6.27563 7.24038 6.54545L11.5385 10.6091L13.5288 8.72727C13.8185 8.45745 14.2088 8.3062 14.6154 8.3062C15.022 8.3062 15.4123 8.45745 15.7019 8.72727L18.4615 11.3364Z" fill="#6D75F4"/>
</g>
<defs>
<clipPath id="clip0_7702_142770">
<rect width="20" height="16" fill="white"/>
</clipPath>
</defs>
</svg>
