<svg width="24" height="24" viewBox="0 0 24 24" fill="none" xmlns="http://www.w3.org/2000/svg">
<g clip-path="url(#clip0_10545_515036)">
<circle cx="12" cy="12" r="11.25" stroke="#BDC002" stroke-width="1.5"/>
<path fill-rule="evenodd" clip-rule="evenodd" d="M10.5 14V9.99997C10.5 8.42314 11.1618 7.00235 12.2232 5.99997H6C4.89543 5.99997 4 6.8954 4 7.99997V12C4 13.1045 4.89543 14 6 14H10.5Z" fill="#BDC002"/>
<mask id="path-3-inside-1_10545_515036" fill="white">
<path d="M12 10C12 7.79086 13.7909 6 16 6L-nan -nanL16 6C18.2091 6 20 7.79086 20 10V16C20 17.1046 19.1046 18 18 18H14C12.8954 18 12 17.1046 12 16V10Z"/>
</mask>
<path d="M13.25 10C13.25 8.48122 14.4812 7.25 16 7.25V4.75C13.1005 4.75 10.75 7.10051 10.75 10H13.25ZM13.25 16V10H10.75V16H13.25ZM14 16.75C13.5858 16.75 13.25 16.4142 13.25 16H10.75C10.75 17.7949 12.2051 19.25 14 19.25V16.75ZM18 16.75H14V19.25H18V16.75ZM18.75 16C18.75 16.4142 18.4142 16.75 18 16.75V19.25C19.7949 19.25 21.25 17.7949 21.25 16H18.75ZM18.75 10V16H21.25V10H18.75ZM16 7.25C17.5188 7.25 18.75 8.48122 18.75 10H21.25C21.25 7.10051 18.8995 4.75 16 4.75V7.25Z" fill="#BDC002" mask="url(#path-3-inside-1_10545_515036)"/>
<circle cx="16" cy="10.25" r="1.25" fill="#BDC002"/>
</g>
<defs>
<clipPath id="clip0_10545_515036">
<rect width="24" height="24" fill="white"/>
</clipPath>
</defs>
</svg>
