<svg width="27" height="26" viewBox="0 0 27 26" fill="none" xmlns="http://www.w3.org/2000/svg">
<g clip-path="url(#clip0_7025_2727)">
<path d="M7.14987 23.8053C6.5864 24.0949 5.94838 23.5888 6.06182 22.9421L7.27166 16.046L2.13569 11.1516C1.65571 10.6942 1.90417 9.85791 2.54718 9.76656L9.68973 8.7519L12.8744 2.4433C13.1613 1.87502 13.9384 1.87502 14.2253 2.4433L17.41 8.7519L24.5526 9.76656C25.1956 9.85791 25.444 10.6942 24.9641 11.1516L19.8281 16.046L21.0379 22.9421C21.1514 23.5888 20.5133 24.0949 19.9499 23.8053L13.5499 20.5159L7.14987 23.8053Z" fill="#656DE6" fill-opacity="0.75"/>
<path fill-rule="evenodd" clip-rule="evenodd" d="M13.5499 4.06342L10.5662 9.97378L3.83559 10.9299L8.70806 15.5732L7.5642 22.0933L13.5499 19.0168L19.5355 22.0933L18.3917 15.5732L23.2641 10.9299L16.5335 9.97378L13.5499 4.06342ZM11.6843 1.84241C12.4642 0.297649 14.6356 0.297649 15.4154 1.84241L18.2865 7.52978L24.74 8.44656C26.5714 8.70673 27.1069 10.951 25.8837 12.1166L21.2645 16.5186L22.351 22.7117C22.6299 24.3013 21.0096 25.8488 19.3404 24.9909L13.5499 22.0147L7.75928 24.9909C6.09007 25.8488 4.46985 24.3013 4.74873 22.7117L5.83523 16.5186L1.21599 12.1166C-0.00715834 10.951 0.528276 8.70673 2.35967 8.44656L8.81324 7.52978L11.6843 1.84241Z" fill="#6D75F4"/>
</g>
<defs>
<clipPath id="clip0_7025_2727">
<rect width="26.6626" height="24.9962" fill="white" transform="translate(0.218567 0.454834)"/>
</clipPath>
</defs>
</svg>
