<svg width="45" height="16" viewBox="0 0 45 16" fill="none" xmlns="http://www.w3.org/2000/svg">
<path d="M0.292893 7.29289C-0.097631 7.68341 -0.0976312 8.31658 0.292893 8.7071L6.65685 15.0711C7.04738 15.4616 7.68054 15.4616 8.07107 15.0711C8.46159 14.6805 8.46159 14.0474 8.07107 13.6569L2.41421 8L8.07107 2.34314C8.46159 1.95262 8.46159 1.31945 8.07107 0.92893C7.68055 0.538406 7.04738 0.538405 6.65686 0.92893L0.292893 7.29289ZM1 9L4.42222 9L4.42222 7L1 7L1 9ZM6.37778 9L13.2222 9L13.2222 7L6.37778 7L6.37778 9ZM15.1778 9L22.0222 9L22.0222 7L15.1778 7L15.1778 9ZM23.9778 9L30.8222 9L30.8222 7L23.9778 7L23.9778 9ZM32.7778 9L39.6222 9.00001L39.6222 7.00001L32.7778 7L32.7778 9ZM41.5778 9.00001L45 9.00001L45 7.00001L41.5778 7.00001L41.5778 9.00001Z" fill="#4E5066"/>
</svg>
