<svg width="24" height="24" viewBox="0 0 24 24" fill="none" xmlns="http://www.w3.org/2000/svg">
<g clip-path="url(#clip0_8518_210419)">
<path d="M8.52337 15.0174C7.81557 15.0174 7.21246 14.781 6.71402 14.3082C6.21557 13.8355 5.96636 13.27 5.96636 12.6118C5.96636 11.9722 6.21557 11.4206 6.71402 10.9571C7.21246 10.4936 7.81557 10.2619 8.52337 10.2619C9.23116 10.2619 9.83177 10.4936 10.3252 10.9571C10.8187 11.4206 11.0654 11.9722 11.0654 12.6118C11.0654 13.27 10.8187 13.8355 10.3252 14.3082C9.83177 14.781 9.23116 15.0174 8.52337 15.0174ZM3.75327 21.9977C3.24486 21.9977 2.85109 21.8702 2.57196 21.6153C2.29283 21.3604 2.15327 20.9826 2.15327 20.482V19.2167L4.66542 17.2144C4.90467 17.0382 5.13645 16.9015 5.36075 16.8042C5.58505 16.7068 5.81682 16.6582 6.05608 16.6582C6.3053 16.6582 6.55202 16.7068 6.79626 16.8042C7.0405 16.9015 7.27726 17.0429 7.50654 17.2283L9.46542 18.8413L14.3402 14.8366C14.5794 14.6327 14.8336 14.4867 15.1028 14.3986C15.372 14.3105 15.6511 14.2665 15.9402 14.2665C16.2193 14.2665 16.4984 14.3129 16.7776 14.4056C17.0567 14.4983 17.3109 14.6466 17.5402 14.8505L21.8467 18.6605V20.482C21.8467 20.9826 21.7072 21.3604 21.428 21.6153C21.1489 21.8702 20.7551 21.9977 20.2467 21.9977H3.75327ZM3.6785 24H20.3364C21.5527 24 22.4673 23.7173 23.0804 23.1518C23.6935 22.5863 24 21.7474 24 20.635V9.78911C24 8.66743 23.6935 7.82619 23.0804 7.26535C22.4673 6.70452 21.5527 6.4241 20.3364 6.4241H3.6785C2.44236 6.4241 1.52025 6.70452 0.91215 7.26535C0.304047 7.82619 0 8.66743 0 9.78911V20.635C0 21.7567 0.304047 22.5979 0.91215 23.1587C1.52025 23.7196 2.44236 24 3.6785 24ZM2.16822 4.72769H21.8617C21.752 4.16222 21.5377 3.73117 21.2187 3.43453C20.8997 3.13789 20.4062 2.98957 19.7383 2.98957H4.29159C3.6137 2.98957 3.11527 3.13789 2.79626 3.43453C2.47726 3.73117 2.26791 4.16222 2.16822 4.72769ZM4.62056 1.58517H19.3944C19.3545 1.05678 19.1726 0.660488 18.8486 0.396292C18.5246 0.132096 18.0536 0 17.4355 0H6.57944C5.96137 0 5.49284 0.132096 5.17383 0.396292C4.85483 0.660488 4.67041 1.05678 4.62056 1.58517Z" fill="#8A90FF"/>
</g>
<defs>
<clipPath id="clip0_8518_210419">
<rect width="24" height="24" fill="white"/>
</clipPath>
</defs>
</svg>
