<svg width="25" height="25" viewBox="0 0 25 25" fill="none" xmlns="http://www.w3.org/2000/svg">
<g clip-path="url(#clip0_7378_113207)">
<path d="M16.7763 10.0922C16.7763 10.4089 16.6505 10.7127 16.4265 10.9367C16.2025 11.1607 15.8987 11.2865 15.5819 11.2865C15.2652 11.2865 14.9614 11.1607 14.7374 10.9367C14.5134 10.7127 14.3876 10.4089 14.3876 10.0922C14.3876 9.77538 14.5134 9.47159 14.7374 9.2476C14.9614 9.02361 15.2652 8.89777 15.5819 8.89777C15.8987 8.89777 16.2025 9.02361 16.4265 9.2476C16.6505 9.47159 16.7763 9.77538 16.7763 10.0922ZM23.1464 5.71275V18.4528V20.0453C23.1464 20.4677 22.9786 20.8728 22.6799 21.1714C22.3813 21.4701 21.9762 21.6379 21.5539 21.6379H4.03624C3.61388 21.6379 3.20881 21.4701 2.91016 21.1714C2.61151 20.8728 2.44373 20.4677 2.44373 20.0453V16.8603V5.71275C2.44373 5.29039 2.61151 4.88533 2.91016 4.58667C3.20881 4.28802 3.61388 4.12024 4.03624 4.12024H21.5539C21.9762 4.12024 22.3813 4.28802 22.6799 4.58667C22.9786 4.88533 23.1464 5.29039 23.1464 5.71275ZM21.5539 16.5319V5.71275H4.03624V14.9394L7.68906 11.2865C7.98887 10.9911 8.39287 10.8255 8.81377 10.8255C9.23467 10.8255 9.63867 10.9911 9.93848 11.2865L14.3876 15.7356L16.4479 13.6753C16.7477 13.3799 17.1517 13.2143 17.5726 13.2143C17.9935 13.2143 18.3975 13.3799 18.6973 13.6753L21.5539 16.5319Z" fill="#6D75F4"/>
</g>
<defs>
<clipPath id="clip0_7378_113207">
<rect width="24" height="24" fill="white" transform="translate(0.795044 0.879028)"/>
</clipPath>
</defs>
</svg>
