<svg width="24" height="24" viewBox="0 0 24 24" fill="none" xmlns="http://www.w3.org/2000/svg">
<g clip-path="url(#clip0_8586_211932)">
<path d="M12.219 20.0726C12.5809 20.0726 12.8593 19.808 12.8593 19.432V18.4989C15.1143 18.29 16.8125 16.9948 16.8125 14.878C16.8125 12.984 15.5876 11.8699 13.1656 11.4242L12.8593 11.3546V7.90084C13.7502 8.05403 14.3627 8.58324 14.6271 9.4049C14.8359 9.86448 15.1282 10.1291 15.6294 10.1291C16.1861 10.1291 16.5759 9.75307 16.5759 9.22386C16.5759 9.05674 16.5341 8.90355 16.5063 8.73643C16.1305 7.302 14.7246 6.27144 12.8593 6.07647V5.1434C12.8593 4.76738 12.5809 4.50278 12.219 4.50278C11.8571 4.50278 11.5926 4.76738 11.5926 5.1434V6.07647C9.3933 6.2993 7.83428 7.63624 7.83428 9.57202C7.83428 11.3825 9.0453 12.4409 11.356 12.9701L11.5926 13.0258V16.7024C10.4651 16.5353 9.81089 15.9364 9.58817 15.1148C9.39329 14.6134 9.07314 14.3627 8.59987 14.3627C8.01524 14.3627 7.6394 14.7527 7.6394 15.3097C7.6394 15.4629 7.68116 15.6161 7.72292 15.7972C8.1266 17.2734 9.60209 18.3039 11.5926 18.485V19.432C11.5926 19.8219 11.8571 20.0726 12.219 20.0726ZM11.5926 11.0343L11.4952 11.0065C10.3816 10.6861 9.86657 10.1987 9.86657 9.44668C9.86657 8.68073 10.5208 8.05403 11.5926 7.88692V11.0343ZM12.8593 13.3461L13.1238 13.4018C14.3348 13.736 14.7663 14.2374 14.7663 15.0312C14.7663 15.9086 14.126 16.5492 12.8593 16.7024V13.3461Z" fill="#6D75F4"/>
<path fill-rule="evenodd" clip-rule="evenodd" d="M12 22.5C17.799 22.5 22.5 17.799 22.5 12C22.5 6.20101 17.799 1.5 12 1.5C6.20101 1.5 1.5 6.20101 1.5 12C1.5 17.799 6.20101 22.5 12 22.5ZM12 24C18.6274 24 24 18.6274 24 12C24 5.37258 18.6274 0 12 0C5.37258 0 0 5.37258 0 12C0 18.6274 5.37258 24 12 24Z" fill="#6D75F4"/>
</g>
<defs>
<clipPath id="clip0_8586_211932">
<rect width="24" height="24" fill="white"/>
</clipPath>
</defs>
</svg>
