<svg width="24" height="24" viewBox="0 0 24 24" fill="none" xmlns="http://www.w3.org/2000/svg">
<path fill-rule="evenodd" clip-rule="evenodd" d="M11.04 19.04C11.04 19.5702 10.6102 20 10.08 20H5.60001C5.17566 20 4.76869 19.8314 4.46863 19.5314C4.16857 19.2313 4 18.8243 4 18.4L4 5.6C4 5.17566 4.16857 4.76869 4.46863 4.46863C4.7687 4.16857 5.17567 4 5.60001 4H10.08C10.6102 4 11.04 4.42981 11.04 4.96C11.04 5.49019 10.6102 5.92 10.08 5.92H5.92001L5.92001 18.08H10.08C10.6102 18.08 11.04 18.5098 11.04 19.04Z" fill="#6D75F4"/>
<path fill-rule="evenodd" clip-rule="evenodd" d="M15.0012 16.0388C15.3761 16.4137 15.9839 16.4137 16.3588 16.0388L19.7188 12.6788C20.0937 12.3039 20.0937 11.6961 19.7188 11.3212L16.3588 7.96119C15.9839 7.58628 15.3761 7.58628 15.0012 7.96119C14.6262 8.33609 14.6262 8.94393 15.0012 9.31883L16.7223 11.04L10.08 11.04C9.54982 11.04 9.12001 11.4698 9.12001 12C9.12001 12.5302 9.54982 12.96 10.08 12.96L16.7223 12.96L15.0012 14.6812C14.6262 15.0561 14.6262 15.6639 15.0012 16.0388Z" fill="#6D75F4"/>
</svg>
