<svg width="368" height="368" viewBox="0 0 368 368" fill="none" xmlns="http://www.w3.org/2000/svg">
<g clip-path="url(#clip0_10204_517765)">
<rect width="368" height="368" fill="#E4E8F3" fill-opacity="0.5"/>
<g clip-path="url(#clip1_10204_517765)">
<path d="M107.178 268.047H260.822C270.308 268.047 277.422 265.682 282.165 260.951C286.907 256.22 289.279 249.158 289.279 239.765V129.846C289.279 120.384 286.907 113.27 282.165 108.504C277.422 103.739 270.308 101.356 260.822 101.356H107.178C97.7607 101.356 90.6637 103.756 85.8868 108.556C81.11 113.356 78.7216 120.453 78.7216 129.846V239.765C78.7216 249.158 81.0929 256.22 85.8357 260.951C90.5784 265.682 97.6925 268.047 107.178 268.047ZM107.383 252.3C103.084 252.3 99.808 251.178 97.556 248.933C95.3041 246.688 94.1781 243.322 94.1781 238.832V130.675C94.1781 126.254 95.3041 122.87 97.556 120.522C99.808 118.174 103.084 117 107.383 117H260.72C264.951 117 268.192 118.174 270.444 120.522C272.696 122.87 273.822 126.254 273.822 130.675V238.832C273.822 243.183 272.696 246.516 270.444 248.83C268.192 251.143 264.951 252.3 260.72 252.3H107.383ZM279.554 234.792L226.838 184.546C224.859 182.751 222.71 181.386 220.39 180.454C218.069 179.522 215.715 179.055 213.327 179.055C210.938 179.055 208.652 179.504 206.468 180.402C204.285 181.3 202.135 182.647 200.02 184.443L159.894 220.806L143.516 205.68C141.674 203.954 139.729 202.659 137.682 201.796C135.634 200.932 133.519 200.501 131.335 200.501C129.425 200.501 127.531 200.932 125.654 201.796C123.778 202.659 121.884 203.954 119.973 205.68L86.2963 236.553C86.5693 244.634 88.3606 250.729 91.6703 254.838C94.98 258.948 99.9786 261.002 106.666 261.002H255.5C263.484 261.002 269.489 258.775 273.515 254.32C277.541 249.866 279.554 243.356 279.554 234.792ZM145.359 185.582C151.091 185.582 156.021 183.493 160.15 179.314C164.279 175.136 166.343 170.111 166.343 164.241C166.343 160.373 165.387 156.833 163.477 153.622C161.566 150.41 159.024 147.855 155.851 145.956C152.678 144.056 149.18 143.107 145.359 143.107C141.537 143.107 138.04 144.056 134.867 145.956C131.694 147.855 129.169 150.41 127.292 153.622C125.415 156.833 124.477 160.373 124.477 164.241C124.477 168.178 125.415 171.752 127.292 174.963C129.169 178.175 131.694 180.748 134.867 182.681C138.04 184.615 141.537 185.582 145.359 185.582Z" fill="#DFE0F0"/>
</g>
</g>
<defs>
<clipPath id="clip0_10204_517765">
<rect width="368" height="368" fill="white"/>
</clipPath>
<clipPath id="clip1_10204_517765">
<rect width="210" height="210" fill="white" transform="translate(79 79)"/>
</clipPath>
</defs>
</svg>
