<svg width="368" height="368" viewBox="0 0 368 368" fill="none" xmlns="http://www.w3.org/2000/svg">
<g clip-path="url(#clip0_10204_517764)">
<rect width="368" height="368" fill="#1F1F2B"/>
<path d="M107.381 267.826H260.619C270.08 267.826 277.175 265.466 281.905 260.748C286.636 256.029 289.001 248.986 289.001 239.618V129.99C289.001 120.553 286.636 113.458 281.905 108.705C277.175 103.952 270.08 101.575 260.619 101.575H107.381C97.9888 101.575 90.9106 103.969 86.1463 108.756C81.3821 113.544 79 120.621 79 129.99V239.618C79 248.986 81.3651 256.029 86.0953 260.748C90.8255 265.466 97.9208 267.826 107.381 267.826ZM107.585 252.12C103.298 252.12 100.031 251.001 97.7847 248.762C95.5387 246.523 94.4157 243.165 94.4157 238.688V130.816C94.4157 126.408 95.5387 123.032 97.7847 120.69C100.031 118.348 103.298 117.177 107.585 117.177H260.517C264.737 117.177 267.97 118.348 270.216 120.69C272.462 123.032 273.585 126.408 273.585 130.816V238.688C273.585 243.028 272.462 246.351 270.216 248.659C267.97 250.966 264.737 252.12 260.517 252.12H107.585ZM279.302 234.658L226.725 184.545C224.751 182.754 222.608 181.394 220.294 180.464C217.979 179.534 215.631 179.069 213.249 179.069C210.867 179.069 208.587 179.517 206.409 180.412C204.231 181.308 202.087 182.651 199.977 184.442L159.958 220.709L143.623 205.624C141.786 203.902 139.846 202.61 137.804 201.749C135.762 200.888 133.653 200.458 131.475 200.458C129.569 200.458 127.68 200.888 125.809 201.749C123.937 202.61 122.048 203.902 120.143 205.624L86.5547 236.415C86.827 244.474 88.6135 250.553 91.9145 254.652C95.2154 258.75 100.201 260.8 106.871 260.8H255.311C263.274 260.8 269.263 258.578 273.279 254.135C277.294 249.692 279.302 243.2 279.302 234.658ZM145.461 185.579C151.178 185.579 156.095 183.495 160.213 179.328C164.331 175.16 166.39 170.149 166.39 164.294C166.39 160.436 165.437 156.906 163.531 153.703C161.625 150.5 159.09 147.951 155.925 146.057C152.761 144.162 149.272 143.215 145.461 143.215C141.65 143.215 138.162 144.162 134.997 146.057C131.832 147.951 129.314 150.5 127.442 153.703C125.57 156.906 124.635 160.436 124.635 164.294C124.635 168.22 125.57 171.785 127.442 174.988C129.314 178.191 131.832 180.757 134.997 182.686C138.162 184.614 141.65 185.579 145.461 185.579Z" fill="#2D2E3F"/>
</g>
<defs>
<clipPath id="clip0_10204_517764">
<rect width="368" height="368" fill="white"/>
</clipPath>
</defs>
</svg>
