<svg width="368" height="368" viewBox="0 0 368 368" fill="none" xmlns="http://www.w3.org/2000/svg">
<g clip-path="url(#clip0_10204_517765)">
<rect width="368" height="368" fill="#E9E9F7"/>
<path d="M107.381 267.825H260.619C270.079 267.825 277.174 265.465 281.905 260.747C286.635 256.028 289 248.985 289 239.617V129.989C289 120.552 286.635 113.457 281.905 108.704C277.174 103.951 270.079 101.575 260.619 101.575H107.381C97.9888 101.575 90.9106 103.968 86.1463 108.756C81.3821 113.543 79 120.621 79 129.989V239.617C79 248.985 81.3651 256.028 86.0953 260.747C90.8255 265.465 97.9207 267.825 107.381 267.825ZM107.585 252.119C103.298 252.119 100.031 251 97.7846 248.761C95.5386 246.522 94.4157 243.164 94.4157 238.687V130.816C94.4157 126.407 95.5386 123.032 97.7846 120.69C100.031 118.348 103.298 117.177 107.585 117.177H260.517C264.737 117.177 267.969 118.348 270.215 120.69C272.461 123.032 273.584 126.407 273.584 130.816V238.687C273.584 243.027 272.461 246.35 270.215 248.658C267.969 250.965 264.737 252.119 260.517 252.119H107.585ZM279.301 234.657L226.725 184.545C224.751 182.754 222.607 181.393 220.293 180.463C217.979 179.533 215.631 179.068 213.249 179.068C210.867 179.068 208.587 179.516 206.409 180.412C204.231 181.307 202.087 182.65 199.977 184.441L159.958 220.708L143.623 205.623C141.786 203.901 139.846 202.609 137.804 201.748C135.762 200.887 133.652 200.457 131.474 200.457C129.569 200.457 127.68 200.887 125.808 201.748C123.937 202.609 122.048 203.901 120.142 205.623L86.5547 236.414C86.8269 244.473 88.6135 250.552 91.9144 254.651C95.2154 258.749 100.201 260.798 106.871 260.798H255.31C263.273 260.798 269.262 258.577 273.278 254.134C277.294 249.691 279.301 243.199 279.301 234.657ZM145.461 185.578C151.178 185.578 156.095 183.494 160.213 179.327C164.331 175.159 166.389 170.148 166.389 164.293C166.389 160.435 165.437 156.905 163.531 153.702C161.625 150.499 159.09 147.95 155.925 146.056C152.76 144.162 149.272 143.215 145.461 143.215C141.649 143.215 138.161 144.162 134.997 146.056C131.832 147.95 129.314 150.499 127.442 153.702C125.57 156.905 124.634 160.435 124.634 164.293C124.634 168.219 125.57 171.784 127.442 174.987C129.314 178.19 131.832 180.756 134.997 182.685C138.161 184.613 141.649 185.578 145.461 185.578Z" fill="#BDBED9"/>
</g>
<defs>
<clipPath id="clip0_10204_517765">
<rect width="368" height="368" fill="white"/>
</clipPath>
</defs>
</svg>
