<svg width="24" height="24" viewBox="0 0 24 24" fill="none" xmlns="http://www.w3.org/2000/svg">
<path d="M4.89352 20.6429C5.27313 21.0241 5.83742 21.1065 6.4017 20.8592L9.79767 19.4374C10.0542 19.3344 10.1875 19.2313 10.3517 19.0665L20.2626 9.18579C21.2475 8.19669 21.2475 7.01183 20.2523 6.00212L18.026 3.75604C17.0308 2.75663 15.8509 2.74633 14.866 3.73543L4.95508 13.6058C4.78066 13.781 4.68833 13.9046 4.57547 14.1725L3.13911 17.5725C2.90314 18.1186 2.96469 18.6544 3.3443 19.0768C4.02417 19.8333 4.0285 19.8691 4.89352 20.6429ZM16.0048 5.09544C16.2715 4.83787 16.5896 4.82756 16.8358 5.08514L18.9288 7.19728C19.1853 7.45486 19.175 7.76396 18.898 8.03184L18.2312 8.70154L15.3277 5.77545L16.0048 5.09544ZM6.77105 14.3167L14.2196 6.88819L17.1128 9.81428L9.67455 17.2428L6.77105 14.3167ZM6.19651 19.0356C6.00157 19.1077 5.8682 19.1077 5.69378 18.9325L5.04742 18.2938C4.88326 18.1289 4.88326 17.9744 4.95508 17.7992L5.87845 15.6459L8.34079 18.1392L6.19651 19.0356Z" fill="#6D75F4"/>
</svg>
