<svg width="24" height="19" viewBox="0 0 24 19" fill="none" xmlns="http://www.w3.org/2000/svg">
<g clip-path="url(#clip0_7702_141044)">
<path d="M15.7377 16.5834L13.4645 14.2777C13.2313 14.3516 12.9945 14.407 12.7541 14.444C12.5137 14.4809 12.2696 14.4994 12.0219 14.4994C11.1038 14.4994 10.2732 14.274 9.53006 13.8232C8.78688 13.3724 8.19308 12.7701 7.74863 12.0163C7.30419 11.2625 7.08197 10.4349 7.08197 9.53326C7.08197 9.00116 7.16211 8.50603 7.3224 8.04784L3.95628 4.61144C2.71766 5.51303 1.74864 6.43679 1.04918 7.38273C0.349724 8.32867 0 9.0455 0 9.53326C0 9.99144 0.295079 10.6344 0.885245 11.4621C1.47541 12.2898 2.30601 13.1396 3.37705 14.0117C4.44809 14.8837 5.71584 15.619 7.18033 16.2176C8.64482 16.8162 10.2586 17.1155 12.0219 17.1155C12.6776 17.1155 13.3151 17.0675 13.9344 16.9714C14.5537 16.8753 15.1548 16.746 15.7377 16.5834ZM11.4973 12.3046L9.26776 10.021C9.26776 10.6122 9.48634 11.1369 9.9235 11.5951C10.3607 12.0533 10.8852 12.2898 11.4973 12.3046ZM16.6995 11.0187L20.0656 14.4551C21.3042 13.5683 22.2696 12.6482 22.9617 11.6949C23.6539 10.7415 24 10.021 24 9.53326C24 9.07507 23.7122 8.43213 23.1366 7.60443C22.561 6.77674 21.7414 5.92688 20.6776 5.05484C19.6138 4.1828 18.3497 3.44749 16.8852 2.84889C15.4208 2.25029 13.7996 1.95099 12.0219 1.95099C11.3515 1.95099 10.7067 1.99903 10.0874 2.0951C9.46812 2.19117 8.87432 2.32789 8.30601 2.50525L10.5574 4.7888C10.776 4.7149 11.0091 4.65947 11.2568 4.62252C11.5046 4.58557 11.7596 4.56709 12.0219 4.56709C12.9253 4.56709 13.745 4.7888 14.4809 5.23221C15.2168 5.67562 15.8069 6.27051 16.2514 7.01692C16.6958 7.76333 16.918 8.6021 16.918 9.53326C16.918 10.0358 16.8452 10.5309 16.6995 11.0187ZM12.5027 6.76196L14.7104 9.00117C14.6812 8.40995 14.4554 7.89265 14.0328 7.44924C13.6102 7.00583 13.1002 6.77674 12.5027 6.76196ZM19.9126 18.7561C20.0729 18.9187 20.2732 19 20.5137 19C20.7541 19 20.9545 18.9187 21.1148 18.7561C21.275 18.5788 21.3552 18.3755 21.3552 18.1464C21.3552 17.9173 21.275 17.7141 21.1148 17.5368L4.06557 0.266044C3.90528 0.08868 3.70492 0 3.46448 0C3.22404 0 3.02368 0.08868 2.86339 0.266044C2.7031 0.428628 2.62295 0.631855 2.62295 0.87573C2.62295 1.1196 2.7031 1.32283 2.86339 1.48541L19.9126 18.7561Z" fill="#6D75F4"/>
</g>
<defs>
<clipPath id="clip0_7702_141044">
<rect width="24" height="19" fill="white"/>
</clipPath>
</defs>
</svg>
