<svg width="145" height="144" viewBox="0 0 145 144" fill="none" xmlns="http://www.w3.org/2000/svg">
<path d="M143.563 72C143.563 32.8465 111.716 0.999969 72.563 0.999969C33.4095 0.999969 1.56299 32.8465 1.56299 72C1.56299 111.153 33.4095 143 72.563 143C111.716 143 143.563 111.153 143.563 72Z" stroke="#292929" stroke-opacity="0.5" stroke-width="2"/>
<path d="M72.5627 9.67062C106.934 9.67062 134.892 37.6287 134.892 72C134.892 106.371 106.934 134.329 72.5627 134.329C38.1915 134.329 10.2334 106.371 10.2334 72C10.2334 37.6287 38.1915 9.67062 72.5627 9.67062Z" fill="#242424" fill-opacity="0.5"/>
<path d="M72.563 9.6707C106.996 9.6707 135.005 37.6288 135.005 72C135.005 106.371 106.996 134.329 72.563 134.329C38.1299 134.329 10.1215 106.371 10.1215 72C10.1215 37.6288 38.1299 9.6707 72.563 9.6707ZM72.563 2.12579C33.9055 2.12579 2.56299 33.412 2.56299 72C2.56299 110.588 33.9055 141.874 72.563 141.874C111.22 141.874 142.563 110.588 142.563 72C142.571 33.412 111.229 2.12579 72.563 2.12579Z" fill="#373737" fill-opacity="0.5"/>
<path d="M72.5671 141.966C33.9874 141.966 2.60059 110.58 2.60059 72C2.60059 33.4203 33.9874 2.03351 72.5671 2.03351C74.5455 2.03351 76.1467 3.63471 76.1467 5.61315C76.1467 7.59159 74.5455 9.19279 72.5671 9.19279C37.9359 9.19279 9.76825 37.3605 9.76825 71.9916C9.76825 106.623 37.9359 134.79 72.5671 134.79C107.198 134.79 135.366 106.623 135.366 71.9916C135.366 70.0131 136.967 68.4119 138.946 68.4119C140.924 68.4119 142.525 70.0131 142.525 71.9916C142.534 110.58 111.147 141.966 72.5671 141.966Z" fill="url(#paint0_radial_10409_515579)"/>
<defs>
<radialGradient id="paint0_radial_10409_515579" cx="0" cy="0" r="1" gradientUnits="userSpaceOnUse" gradientTransform="translate(41.5826 31.794) rotate(35.9506) scale(114.949 114.942)">
<stop offset="0.387096" stop-color="#FFFDFD"/>
<stop offset="0.852779" stop-color="#FFFDFD" stop-opacity="0"/>
</radialGradient>
</defs>
</svg>
