<svg width="24" height="24" viewBox="0 0 24 24" fill="none" xmlns="http://www.w3.org/2000/svg">
<g clip-path="url(#clip0_7702_139463)">
<path d="M8.57074 14.9124H7.61511V10.1797H8.57074V14.9124Z" fill="#6D75F4"/>
<path d="M12.5818 13.3359C12.5579 13.8755 12.4063 14.2839 12.1267 14.5613C11.8472 14.8387 11.4528 14.9774 10.9436 14.9774C10.4083 14.9774 9.99768 14.8018 9.71164 14.4508C9.42777 14.0976 9.28584 13.5948 9.28584 12.9426V12.1462C9.28584 11.4962 9.43319 10.9956 9.7279 10.6445C10.0226 10.2913 10.4322 10.1147 10.9566 10.1147C11.4723 10.1147 11.8634 10.2588 12.13 10.547C12.3987 10.8352 12.5514 11.2491 12.5883 11.7887H11.6294C11.6207 11.455 11.5687 11.2253 11.4734 11.0996C11.3802 10.9717 11.2079 10.9078 10.9566 10.9078C10.7009 10.9078 10.5199 10.9978 10.4137 11.1776C10.3076 11.3553 10.2512 11.6489 10.2447 12.0585V12.9523C10.2447 13.4226 10.2967 13.7455 10.4007 13.921C10.5069 14.0965 10.6879 14.1843 10.9436 14.1843C11.1949 14.1843 11.3683 14.1236 11.4636 14.0022C11.559 13.8787 11.6131 13.6566 11.6262 13.3359H12.5818Z" fill="#6D75F4"/>
<path d="M16.5018 12.9718C16.5018 13.6068 16.3512 14.0998 16.05 14.4508C15.751 14.8018 15.3349 14.9774 14.8018 14.9774C14.2709 14.9774 13.8538 14.804 13.5504 14.4573C13.247 14.1084 13.0932 13.6209 13.0888 12.9946V12.1852C13.0888 11.5352 13.2395 11.0281 13.5407 10.664C13.8419 10.2978 14.2601 10.1147 14.7953 10.1147C15.3219 10.1147 15.7369 10.2946 16.0402 10.6543C16.3436 11.0118 16.4975 11.5146 16.5018 12.1625V12.9718ZM15.5429 12.1787C15.5429 11.7519 15.4823 11.4344 15.3609 11.2264C15.2396 11.0183 15.051 10.9143 14.7953 10.9143C14.5418 10.9143 14.3543 11.0151 14.233 11.2166C14.1117 11.416 14.0488 11.7204 14.0445 12.13V12.9718C14.0445 13.3857 14.1062 13.6913 14.2297 13.8885C14.3533 14.0835 14.544 14.181 14.8018 14.181C15.051 14.181 15.2363 14.0857 15.3577 13.895C15.479 13.7021 15.5408 13.4042 15.5429 13.0011V12.1787Z" fill="#6D75F4"/>
<circle cx="12" cy="12" r="10.846" stroke="#6D75F4" stroke-width="2.30809"/>
</g>
<defs>
<clipPath id="clip0_7702_139463">
<rect width="24" height="24" fill="white"/>
</clipPath>
</defs>
</svg>
