<svg width="24" height="24" viewBox="0 0 24 24" fill="none" xmlns="http://www.w3.org/2000/svg">
<g clip-path="url(#clip0_7702_145731)">
<path d="M6.53741 11.3994H9.85244C10.3649 11.3994 10.7493 11.2681 11.0055 11.0055C11.2617 10.7428 11.3898 10.3489 11.3898 9.82361V6.57584C11.3898 6.05056 11.2617 5.6566 11.0055 5.39396C10.7493 5.13132 10.3649 5 9.85244 5H6.53741C6.02493 5 5.64059 5.13132 5.38435 5.39396C5.12812 5.6566 5 6.05056 5 6.57584V9.82361C5 10.3489 5.12812 10.7428 5.38435 11.0055C5.64059 11.2681 6.02493 11.3994 6.53741 11.3994ZM6.54701 10.1887C6.3164 10.1887 6.2011 10.067 6.2011 9.82361V6.56623C6.2011 6.32921 6.3164 6.21071 6.54701 6.21071H9.83322C10.0702 6.21071 10.1887 6.32921 10.1887 6.56623V9.82361C10.1887 10.067 10.0702 10.1887 9.83322 10.1887H6.54701ZM7.52711 9.01647H8.85312C8.96202 9.01647 9.01647 8.95562 9.01647 8.8339V7.55594C9.01647 7.44063 8.96202 7.38298 8.85312 7.38298H7.52711C7.42462 7.38298 7.37337 7.44063 7.37337 7.55594V8.8339C7.37337 8.95562 7.42462 9.01647 7.52711 9.01647ZM14.1476 11.3994H17.4626C17.9815 11.3994 18.3674 11.2681 18.6205 11.0055C18.8735 10.7428 19 10.3489 19 9.82361V6.57584C19 6.05056 18.8735 5.6566 18.6205 5.39396C18.3674 5.13132 17.9815 5 17.4626 5H14.1476C13.6351 5 13.2507 5.13132 12.9945 5.39396C12.7383 5.6566 12.6102 6.05056 12.6102 6.57584V9.82361C12.6102 10.3489 12.7383 10.7428 12.9945 11.0055C13.2507 11.2681 13.6351 11.3994 14.1476 11.3994ZM14.1668 10.1887C13.9298 10.1887 13.8113 10.067 13.8113 9.82361V6.56623C13.8113 6.32921 13.9298 6.21071 14.1668 6.21071H17.453C17.6836 6.21071 17.7989 6.32921 17.7989 6.56623V9.82361C17.7989 10.067 17.6836 10.1887 17.453 10.1887H14.1668ZM15.1949 9.01647H16.5209C16.6298 9.01647 16.6843 8.95562 16.6843 8.8339V7.55594C16.6843 7.44063 16.6298 7.38298 16.5209 7.38298H15.1949C15.0924 7.38298 15.0412 7.44063 15.0412 7.55594V8.8339C15.0412 8.95562 15.0924 9.01647 15.1949 9.01647ZM6.53741 19.0096H9.85244C10.3649 19.0096 10.7493 18.8799 11.0055 18.6205C11.2617 18.361 11.3898 17.9655 11.3898 17.4338V14.186C11.3898 13.6607 11.2617 13.2684 11.0055 13.0089C10.7493 12.7495 10.3649 12.6198 9.85244 12.6198H6.53741C6.02493 12.6198 5.64059 12.7495 5.38435 13.0089C5.12812 13.2684 5 13.6607 5 14.186V17.4338C5 17.9655 5.12812 18.361 5.38435 18.6205C5.64059 18.8799 6.02493 19.0096 6.53741 19.0096ZM6.54701 17.7989C6.3164 17.7989 6.2011 17.6804 6.2011 17.4434V14.186C6.2011 13.9426 6.3164 13.8209 6.54701 13.8209H9.83322C10.0702 13.8209 10.1887 13.9426 10.1887 14.186V17.4434C10.1887 17.6804 10.0702 17.7989 9.83322 17.7989H6.54701ZM7.52711 16.6266H8.85312C8.96202 16.6266 9.01647 16.5658 9.01647 16.4441V15.1661C9.01647 15.0508 8.96202 14.9931 8.85312 14.9931H7.52711C7.42462 14.9931 7.37337 15.0508 7.37337 15.1661V16.4441C7.37337 16.5658 7.42462 16.6266 7.52711 16.6266ZM13.1386 14.628H14.4647C14.5736 14.628 14.628 14.5671 14.628 14.4454V13.1675C14.628 13.0522 14.5736 12.9945 14.4647 12.9945H13.1386C13.0361 12.9945 12.9849 13.0522 12.9849 13.1675V14.4454C12.9849 14.5671 13.0361 14.628 13.1386 14.628ZM17.1359 14.628H18.4619C18.5708 14.628 18.6253 14.5671 18.6253 14.4454V13.1675C18.6253 13.0522 18.5708 12.9945 18.4619 12.9945H17.1359C17.0334 12.9945 16.9822 13.0522 16.9822 13.1675V14.4454C16.9822 14.5671 17.0334 14.628 17.1359 14.628ZM15.1565 16.6266H16.4825C16.5914 16.6266 16.6458 16.5658 16.6458 16.4441V15.1661C16.6458 15.0508 16.5914 14.9931 16.4825 14.9931H15.1565C15.054 14.9931 15.0027 15.0508 15.0027 15.1661V16.4441C15.0027 16.5658 15.054 16.6266 15.1565 16.6266ZM13.1386 18.6253H14.4647C14.5736 18.6253 14.628 18.5644 14.628 18.4427V17.1647C14.628 17.0494 14.5736 16.9918 14.4647 16.9918H13.1386C13.0361 16.9918 12.9849 17.0494 12.9849 17.1647V18.4427C12.9849 18.5644 13.0361 18.6253 13.1386 18.6253ZM17.1359 18.6253H18.4619C18.5708 18.6253 18.6253 18.5644 18.6253 18.4427V17.1647C18.6253 17.0494 18.5708 16.9918 18.4619 16.9918H17.1359C17.0334 16.9918 16.9822 17.0494 16.9822 17.1647V18.4427C16.9822 18.5644 17.0334 18.6253 17.1359 18.6253Z" fill="#6D75F4"/>
<path d="M0.980592 7.79969C1.6425 7.79969 1.97344 7.46449 1.97344 6.79407V3.89985C1.97344 3.26213 2.13687 2.78181 2.46374 2.45886C2.7906 2.13592 3.26047 1.97445 3.87334 1.97445H6.83963C7.50971 1.97445 7.84474 1.64333 7.84474 0.981093C7.84474 0.327028 7.50971 0 6.83963 0H3.84883C2.56588 0 1.60368 0.316808 0.962206 0.950435C0.320732 1.58406 0 2.5304 0 3.78947V6.79407C0 7.46449 0.326861 7.79969 0.980592 7.79969ZM23.0071 7.79969C23.6691 7.79969 24 7.46449 24 6.79407V3.78947C24 2.5304 23.6793 1.58406 23.0378 0.950435C22.3963 0.316808 21.4341 0 20.1512 0H17.1481C16.4862 0 16.1553 0.327028 16.1553 0.981093C16.1553 1.64333 16.4862 1.97445 17.1481 1.97445H20.1144C20.7191 1.97445 21.189 2.13592 21.524 2.45886C21.859 2.78181 22.0266 3.26213 22.0266 3.89985V6.79407C22.0266 7.46449 22.3534 7.79969 23.0071 7.79969ZM3.84883 24H6.83963C7.50971 24 7.84474 23.673 7.84474 23.0189C7.84474 22.3567 7.50971 22.0255 6.83963 22.0255H3.87334C3.26047 22.0255 2.7906 21.8641 2.46374 21.5411C2.13687 21.2182 1.97344 20.7379 1.97344 20.1002V17.2059C1.97344 16.5355 1.6425 16.2003 0.980592 16.2003C0.326861 16.2003 0 16.5355 0 17.2059V20.1983C0 21.4655 0.320732 22.4159 0.962206 23.0496C1.60368 23.6832 2.56588 24 3.84883 24ZM17.1481 24H20.1512C21.4341 24 22.3963 23.6832 23.0378 23.0496C23.6793 22.4159 24 21.4655 24 20.1983V17.2059C24 16.5355 23.6691 16.2003 23.0071 16.2003C22.3534 16.2003 22.0266 16.5355 22.0266 17.2059V20.1002C22.0266 20.7379 21.859 21.2182 21.524 21.5411C21.189 21.8641 20.7191 22.0255 20.1144 22.0255H17.1481C16.4862 22.0255 16.1553 22.3567 16.1553 23.0189C16.1553 23.673 16.4862 24 17.1481 24Z" fill="#6D75F4"/>
</g>
<defs>
<clipPath id="clip0_7702_145731">
<rect width="24" height="24" fill="white"/>
</clipPath>
</defs>
</svg>
