<svg width="22" height="22" viewBox="0 0 22 22" fill="none" xmlns="http://www.w3.org/2000/svg">
<g clip-path="url(#clip0_7702_151205)">
<path d="M12.8792 20.8641C12.5767 20.598 12.375 20.2434 12.2742 19.8355L12.1733 19.4187C11.7883 19.4719 11.4033 19.5074 11 19.5074C10.4592 19.5074 9.9275 19.4542 9.41417 19.3655C8.86417 18.7892 8.37833 17.9291 7.98417 16.9094C8.9375 16.8473 9.93667 16.803 11 16.803C11.1833 16.803 11.3575 16.803 11.5408 16.8118L11.3208 15.9251C11.2108 15.9251 11.11 15.9251 11 15.9251C9.85417 15.9251 8.75417 15.9695 7.68167 16.0493C7.26 14.7015 6.985 13.1675 6.9025 11.6335C7.99333 11.7311 9.13 11.7931 10.3125 11.8109L10.1292 11.0483C10.1292 11.0483 10.1292 10.9596 10.1108 10.9153C8.97417 10.8887 7.8925 10.8355 6.875 10.738C6.875 10.7025 6.875 10.6759 6.875 10.6404C6.875 8.99116 7.11333 7.27983 7.52583 5.76357C8.635 5.85224 9.79917 5.89658 11 5.89658C12.2008 5.89658 13.3558 5.84338 14.4742 5.76357C14.85 7.13796 15.07 8.67194 15.1067 10.1793L17.0867 11.3941C18.1867 11.2345 19.2225 11.0306 20.1575 10.7912C20.1483 11.5803 20.02 12.3429 19.8092 13.0611L20.6067 13.5488C20.9458 13.7793 21.1658 14.0187 21.3217 14.2847C21.7525 13.1498 22 11.9173 22 10.6404C22 10.5074 21.9817 10.3744 21.9817 10.2414C21.7617 4.5488 16.94 3.03778e-05 11 3.03778e-05C7.13167 -0.00883661 3.74 1.92417 1.77833 4.84141C0.724167 6.402 0.100833 8.24633 0.0183333 10.2325C0.0183333 10.3655 0 10.4985 0 10.6315C0 12.9636 0.788333 15.1182 2.10833 16.8739C4.10667 19.534 7.3425 21.2719 11 21.2719C11.7333 21.2719 12.4575 21.201 13.1542 21.068C13.0533 21.0059 12.9617 20.9439 12.8792 20.8641ZM20.13 9.86899C19.0208 10.1616 17.7283 10.4187 16.2708 10.6049C16.2708 8.81382 16.0417 7.12909 15.6567 5.6483C16.5733 5.55077 17.4533 5.42663 18.2875 5.26702C19.3142 6.57047 19.9833 8.14879 20.13 9.86899ZM17.6 4.48673C16.9125 4.602 16.1792 4.69953 15.4092 4.77934C15.1158 3.8749 14.7492 3.05914 14.3367 2.37638C15.5833 2.84633 16.6925 3.57343 17.6092 4.48673H17.6ZM9.41417 1.90643C9.9275 1.81776 10.4592 1.76456 11 1.76456C11.5408 1.76456 12.0725 1.81776 12.5858 1.90643C13.2275 2.58032 13.7867 3.6355 14.2083 4.88574C13.2 4.95668 12.1275 5.00101 11 5.00101C9.8725 5.00101 8.8 4.95668 7.79167 4.88574C8.21333 3.6355 8.7725 2.58032 9.41417 1.90643ZM7.68167 2.37638C7.26917 3.05914 6.9025 3.8749 6.60917 4.77934C5.83917 4.69953 5.10583 4.602 4.41833 4.48673C5.335 3.57343 6.44417 2.84633 7.69083 2.37638H7.68167ZM3.72167 5.26702C4.54667 5.41776 5.42667 5.5419 6.3525 5.6483C5.95833 7.12909 5.73833 8.81382 5.73833 10.6049C4.29 10.4187 2.9975 10.1705 1.87917 9.86899C2.035 8.14879 2.695 6.57047 3.72167 5.26702ZM1.8425 10.7823C3.01583 11.0838 4.32667 11.3232 5.75667 11.5005C5.82083 13.1941 6.08667 14.7724 6.49917 16.1468C5.67417 16.2355 4.8675 16.3419 4.11583 16.466C2.73167 14.9409 1.87917 12.9547 1.8425 10.7823ZM4.91333 17.2463C5.50917 17.1577 6.1325 17.0779 6.7925 17.0069C7.04917 17.7074 7.35167 18.337 7.68167 18.8867C6.655 18.4966 5.72 17.9379 4.91333 17.2375V17.2463Z" fill="#6D75F4"/>
<path d="M15.8767 17.8581L18.7092 21.7419C18.81 21.8838 18.9475 21.9636 19.1033 21.9902C19.2683 22.0168 19.415 21.9902 19.5433 21.9015L20.57 21.1212C20.6617 21.0503 20.7808 20.9173 20.79 20.7133C20.79 20.5626 20.7442 20.4207 20.6342 20.2966L17.6917 16.4749L19.6808 15.8453C19.8275 15.801 19.9375 15.7389 20.02 15.6591C20.1025 15.5705 20.1667 15.4641 20.185 15.3399C20.2125 15.2069 20.1942 15.0828 20.1392 14.9675C20.0842 14.8611 19.9925 14.7636 19.8733 14.6749L12.375 10.0729C12.2467 9.99312 12.1275 9.95766 12.0083 9.95766C11.8525 9.93992 11.7608 9.99312 11.66 10.0729C11.55 10.1527 11.4858 10.2503 11.4492 10.3655C11.4217 10.4719 11.4217 10.5961 11.4492 10.7291L13.6033 19.5429C13.64 19.6936 13.7042 19.8089 13.7958 19.8887C13.8967 19.9774 14.0158 20.0217 14.1625 20.0306C14.4375 20.0394 14.6667 19.933 14.8133 19.7025V19.6936L15.8583 17.867L15.8767 17.8581Z" fill="#6D75F4"/>
</g>
<defs>
<clipPath id="clip0_7702_151205">
<rect width="22" height="22" fill="white"/>
</clipPath>
</defs>
</svg>
