<svg width="24" height="25" viewBox="0 0 24 25" fill="none" xmlns="http://www.w3.org/2000/svg">
<path fill-rule="evenodd" clip-rule="evenodd" d="M22.8456 12.3425C22.8456 18.4177 17.9207 23.3425 11.8456 23.3425C5.77045 23.3425 0.845581 18.4177 0.845581 12.3425C0.845581 6.2674 5.77045 1.34253 11.8456 1.34253C17.9207 1.34253 22.8456 6.2674 22.8456 12.3425ZM7.27831 6.8913C7.52261 7.13515 7.52297 7.53088 7.27912 7.77518C6.71045 8.3449 6.25633 9.01839 5.94136 9.75917C5.61791 10.5281 5.45129 11.3539 5.45129 12.1881C5.45129 13.0223 5.61791 13.8481 5.94136 14.617C6.25633 15.3578 6.71045 16.0313 7.27912 16.601C7.52297 16.8453 7.52261 17.241 7.27831 17.4849C7.034 17.7288 6.63828 17.7284 6.39442 17.4841C5.71253 16.8009 5.16805 15.9933 4.79052 15.105L4.78966 15.1029C4.40133 14.1802 4.20129 13.1892 4.20129 12.1881C4.20129 11.187 4.40133 10.196 4.78966 9.27326L4.79051 9.27124C5.16805 8.38291 5.71253 7.57526 6.39442 6.89211C6.63828 6.64781 7.034 6.64745 7.27831 6.8913ZM8.9252 8.71492C9.12035 8.91029 9.12018 9.22687 8.92481 9.42202C8.568 9.77843 8.28393 10.2008 8.08843 10.6657L8.08771 10.6674C7.88336 11.1484 7.77804 11.6656 7.77804 12.1881C7.77804 12.7107 7.88336 13.2279 8.08771 13.7088L8.08843 13.7105C8.28393 14.1754 8.568 14.5978 8.92481 14.9542C9.12018 15.1494 9.12035 15.466 8.9252 15.6613C8.73004 15.8567 8.41346 15.8569 8.21809 15.6617C7.76975 15.2139 7.41277 14.6831 7.167 14.099C6.91032 13.4947 6.77804 12.8448 6.77804 12.1881C6.77804 11.5315 6.91032 10.8816 7.16699 10.2772C7.41276 9.69312 7.76975 9.16238 8.21809 8.71453C8.41346 8.51937 8.73004 8.51955 8.9252 8.71492ZM11.6912 14.1495C12.7744 14.1495 13.6526 13.2714 13.6526 12.1881C13.6526 11.1049 12.7744 10.2267 11.6912 10.2267C10.6079 10.2267 9.72978 11.1049 9.72978 12.1881C9.72978 13.2714 10.6079 14.1495 11.6912 14.1495ZM15.1643 8.71453C14.9689 8.51937 14.6523 8.51955 14.4572 8.71492C14.262 8.91029 14.2622 9.22687 14.4576 9.42202C14.8144 9.77843 15.0984 10.2009 15.2939 10.6657L15.2947 10.6674C15.499 11.1484 15.6043 11.6656 15.6043 12.1881C15.6043 12.7107 15.499 13.2279 15.2947 13.7088L15.2939 13.7105C15.0984 14.1754 14.8144 14.5978 14.4576 14.9542C14.2622 15.1494 14.262 15.466 14.4572 15.6613C14.6523 15.8567 14.9689 15.8569 15.1643 15.6617C15.6126 15.2139 15.9696 14.6831 16.2154 14.099C16.4721 13.4946 16.6043 12.8447 16.6043 12.1881C16.6043 11.5315 16.4721 10.8816 16.2154 10.2772C15.9696 9.69312 15.6126 9.16238 15.1643 8.71453ZM16.9882 6.89211C16.7443 6.64781 16.3486 6.64745 16.1043 6.8913C15.86 7.13515 15.8596 7.53088 16.1035 7.77518C16.6721 8.34489 17.1263 9.01838 17.4412 9.75914C17.7647 10.5281 17.9313 11.3539 17.9313 12.1881C17.9313 13.0223 17.7647 13.8481 17.4412 14.6171C17.1263 15.3578 16.6721 16.0313 16.1035 16.601C15.8596 16.8453 15.86 17.241 16.1043 17.4849C16.3486 17.7288 16.7443 17.7284 16.9882 17.4841C17.6701 16.8009 18.2145 15.9933 18.5921 15.105L18.5929 15.1029C18.9813 14.1802 19.1813 13.1892 19.1813 12.1881C19.1813 11.187 18.9813 10.196 18.5929 9.27326L18.5921 9.27124C18.2145 8.38291 17.6701 7.57526 16.9882 6.89211Z" fill="#696A80"/>
</svg>
