<svg width="26" height="26" viewBox="0 0 26 26" fill="none" xmlns="http://www.w3.org/2000/svg">
<path fill-rule="evenodd" clip-rule="evenodd" d="M1.92499 2.77865C1.92499 2.04227 2.52194 1.44531 3.25832 1.44531H11.6436C12.38 1.44531 12.9769 2.04227 12.9769 2.77865V11.1639C12.9769 11.9003 12.38 12.4973 11.6436 12.4973H3.25832C2.52194 12.4973 1.92499 11.9003 1.92499 11.1639V2.77865ZM4.59165 4.11198V9.83059H10.3103V4.11198H4.59165Z" fill="#848BFF"/>
<path fill-rule="evenodd" clip-rule="evenodd" d="M13.9827 2.77865C13.9827 2.04227 14.5797 1.44531 15.3161 1.44531H23.7014C24.4377 1.44531 25.0347 2.04227 25.0347 2.77865V11.1639C25.0347 11.9003 24.4377 12.4973 23.7014 12.4973H15.3161C14.5797 12.4973 13.9827 11.9003 13.9827 11.1639V2.77865ZM16.6494 4.11198V9.83059H22.368V4.11198H16.6494Z" fill="#848BFF"/>
<path fill-rule="evenodd" clip-rule="evenodd" d="M1.92502 14.8362C1.92502 14.0998 2.52198 13.5029 3.25836 13.5029H11.6436C12.38 13.5029 12.977 14.0998 12.977 14.8362V23.2215C12.977 23.9579 12.38 24.5548 11.6436 24.5548H3.25836C2.52198 24.5548 1.92502 23.9579 1.92502 23.2215V14.8362ZM4.59169 16.1695V21.8881H10.3103V16.1695H4.59169Z" fill="#848BFF"/>
<path fill-rule="evenodd" clip-rule="evenodd" d="M13.9827 14.8362C13.9827 14.0998 14.5797 13.5029 15.3161 13.5029H23.7014C24.4377 13.5029 25.0347 14.0998 25.0347 14.8362V23.2215C25.0347 23.9579 24.4377 24.5548 23.7014 24.5548H15.3161C14.5797 24.5548 13.9827 23.9579 13.9827 23.2215V14.8362ZM16.6494 16.1695V21.8881H22.368V16.1695H16.6494Z" fill="#848BFF"/>
</svg>
