<svg width="81" height="81" viewBox="0 0 81 81" fill="none" xmlns="http://www.w3.org/2000/svg">
<path fill-rule="evenodd" clip-rule="evenodd" d="M40.2094 21.2581C29.5834 21.2581 20.9675 29.874 20.9675 40.5C20.9675 51.126 29.5834 59.7419 40.2094 59.7419C50.8354 59.7419 59.4513 51.126 59.4513 40.5C59.4545 29.874 50.8386 21.2581 40.2094 21.2581ZM40.2094 49.2597C35.3732 49.2597 31.4529 45.3394 31.4529 40.5031C31.4529 35.6669 35.3732 31.7466 40.2094 31.7466C45.0457 31.7466 48.966 35.6669 48.966 40.5031C48.9691 45.3394 45.0488 49.2597 40.2094 49.2597Z" fill="#5963FF"/>
<path fill-rule="evenodd" clip-rule="evenodd" d="M64.2133 0.5H16.2102C7.37237 0.5 0.210205 7.66217 0.210205 16.5V64.5C0.210205 73.3378 7.37237 80.5 16.2102 80.5H64.2102C73.048 80.5 80.2102 73.3378 80.2102 64.5V16.5C80.2133 7.6653 73.048 0.5 64.2133 0.5V0.5ZM66.014 54.6305C66.2266 54.7868 66.4298 54.9619 66.6205 55.1526C68.4181 56.9533 68.6557 59.8419 67.177 61.9146C65.3982 64.4093 61.9187 64.8564 59.574 62.9556C59.5177 62.9119 59.4646 62.865 59.4115 62.8181C58.7925 62.2741 57.8859 62.2304 57.2325 62.7337C52.515 66.3507 46.6127 68.5016 40.2102 68.5016C33.8077 68.5016 27.9054 66.3507 23.1879 62.7337C22.5345 62.2335 21.628 62.2741 21.0089 62.8181C20.9558 62.865 20.9027 62.9087 20.8464 62.9556C18.5017 64.8533 15.0222 64.4062 13.2434 61.9146C11.7647 59.8419 12.0023 56.9564 13.7999 55.1526C13.9937 54.9588 14.1969 54.7837 14.4064 54.6305C15.0535 54.1522 15.2786 53.28 14.9285 52.5516C13.184 48.9002 12.2086 44.8142 12.2086 40.5C12.2086 36.1858 13.1872 32.0967 14.9285 28.4453C15.2786 27.7106 15.0379 26.8415 14.3845 26.357C14.3282 26.3163 14.2719 26.2726 14.2157 26.2257C11.871 24.3281 11.5834 20.8298 13.653 18.5727C15.3724 16.6938 18.2485 16.3281 20.3837 17.713C20.6119 17.863 20.8245 18.0256 21.0215 18.1975C21.6311 18.7384 22.5345 18.7603 23.1817 18.2663C27.8992 14.6493 33.8015 12.4984 40.204 12.4984C46.6064 12.4984 52.5088 14.6493 57.2262 18.2663C57.8796 18.7696 58.7862 18.7259 59.4052 18.1819C59.4584 18.135 59.5115 18.0912 59.5678 18.0444C61.9124 16.1467 65.3919 16.5938 67.1707 19.0854C68.6494 21.1581 68.4118 24.0436 66.6143 25.8474C66.4204 26.0412 66.2172 26.2163 66.0078 26.3726C65.3606 26.8509 65.1356 27.7231 65.4857 28.4484C67.2301 32.0998 68.2055 36.1858 68.2055 40.5C68.2055 44.8142 67.2301 48.9002 65.4857 52.5516C65.1449 53.28 65.3669 54.1522 66.014 54.6305Z" fill="#5963FF"/>
</svg>
