<svg width="30" height="33" viewBox="0 0 30 33" fill="none" xmlns="http://www.w3.org/2000/svg">
<path d="M24.2651 20.895H20.3816C20.2528 20.895 20.1294 20.9461 20.0383 21.0371C19.9473 21.1282 19.8961 21.2516 19.8961 21.3804V25.2639C19.8961 25.3926 19.9473 25.5161 20.0383 25.6072C20.1294 25.6982 20.2528 25.7493 20.3816 25.7493H24.2651C24.3938 25.7493 24.5173 25.6982 24.6083 25.6072C24.6994 25.5161 24.7505 25.3926 24.7505 25.2639V21.3804C24.7505 21.2516 24.6994 21.1282 24.6083 21.0371C24.5173 20.9461 24.3938 20.895 24.2651 20.895Z" fill="#6D75F4"/>
<path d="M19.4108 17.0114H16.4981C16.3694 17.0114 16.2459 17.0626 16.1549 17.1536C16.0638 17.2447 16.0127 17.3681 16.0127 17.4969V20.4095C16.0127 20.5383 16.0638 20.6617 16.1549 20.7528C16.2459 20.8438 16.3694 20.895 16.4981 20.895H19.4108C19.5395 20.895 19.663 20.8438 19.754 20.7528C19.8451 20.6617 19.8962 20.5383 19.8962 20.4095V17.4969C19.8962 17.3681 19.8451 17.2447 19.754 17.1536C19.663 17.0626 19.5395 17.0114 19.4108 17.0114Z" fill="#6D75F4"/>
<path d="M28.1486 25.7493H25.236C25.1072 25.7493 24.9838 25.8005 24.8927 25.8915C24.8017 25.9826 24.7505 26.106 24.7505 26.2348V29.1474C24.7505 29.2762 24.8017 29.3996 24.8927 29.4907C24.9838 29.5817 25.1072 29.6328 25.236 29.6328H28.1486C28.2773 29.6328 28.4008 29.5817 28.4919 29.4907C28.5829 29.3996 28.634 29.2762 28.634 29.1474V26.2348C28.634 26.106 28.5829 25.9826 28.4919 25.8915C28.4008 25.8005 28.2773 25.7493 28.1486 25.7493Z" fill="#6D75F4"/>
<path d="M28.1486 17.0114H26.2068C26.0781 17.0114 25.9546 17.0626 25.8635 17.1536C25.7725 17.2447 25.7214 17.3681 25.7214 17.4969V19.4386C25.7214 19.5674 25.7725 19.6909 25.8635 19.7819C25.9546 19.8729 26.0781 19.9241 26.2068 19.9241H28.1486C28.2773 19.9241 28.4008 19.8729 28.4918 19.7819C28.5828 19.6909 28.634 19.5674 28.634 19.4386V17.4969C28.634 17.3681 28.5828 17.2447 28.4918 17.1536C28.4008 17.0626 28.2773 17.0114 28.1486 17.0114Z" fill="#6D75F4"/>
<path d="M18.4399 26.7202H16.4981C16.3694 26.7202 16.2459 26.7714 16.1549 26.8624C16.0638 26.9534 16.0127 27.0769 16.0127 27.2056V29.1474C16.0127 29.2761 16.0638 29.3996 16.1549 29.4907C16.2459 29.5817 16.3694 29.6328 16.4981 29.6328H18.4399C18.5686 29.6328 18.6921 29.5817 18.7831 29.4907C18.8742 29.3996 18.9253 29.2761 18.9253 29.1474V27.2056C18.9253 27.0769 18.8742 26.9534 18.7831 26.8624C18.6921 26.7714 18.5686 26.7202 18.4399 26.7202Z" fill="#6D75F4"/>
<path d="M24.2651 6.33181H20.3816C20.2528 6.33181 20.1294 6.38295 20.0383 6.47399C19.9473 6.56502 19.8961 6.6885 19.8961 6.81724V10.7008C19.8961 10.8295 19.9473 10.953 20.0383 11.044C20.1294 11.135 20.2528 11.1862 20.3816 11.1862H24.2651C24.3938 11.1862 24.5173 11.135 24.6083 11.044C24.6994 10.953 24.7505 10.8295 24.7505 10.7008V6.81724C24.7505 6.6885 24.6994 6.56502 24.6083 6.47399C24.5173 6.38295 24.3938 6.33181 24.2651 6.33181Z" fill="#6D75F4"/>
<path fill-rule="evenodd" clip-rule="evenodd" d="M16.5921 3.02775C16.9534 2.66644 17.4434 2.46347 17.9544 2.46347H26.6923C27.2032 2.46347 27.6933 2.66644 28.0546 3.02775C28.4159 3.38906 28.6189 3.87909 28.6189 4.39005V13.1279C28.6189 13.6389 28.4159 14.1289 28.0546 14.4902C27.6933 14.8515 27.2032 15.0545 26.6923 15.0545H17.9544C17.4434 15.0545 16.9534 14.8515 16.5921 14.4902C16.2308 14.1289 16.0278 13.6389 16.0278 13.1279V4.39005C16.0278 3.87909 16.2308 3.38906 16.5921 3.02775ZM17.9544 4.37488C17.9504 4.37488 17.9465 4.37648 17.9437 4.37932C17.9408 4.38217 17.9392 4.38602 17.9392 4.39005V13.1279C17.9392 13.132 17.9408 13.1358 17.9437 13.1387C17.9465 13.1415 17.9504 13.1431 17.9544 13.1431H26.6923C26.6963 13.1431 26.7002 13.1415 26.703 13.1387C26.7059 13.1358 26.7075 13.132 26.7075 13.1279V4.39005C26.7075 4.38602 26.7059 4.38217 26.703 4.37932C26.7002 4.37648 26.6963 4.37488 26.6923 4.37488H17.9544Z" fill="#6D75F4"/>
<path d="M9.70187 6.33181H5.81836C5.68961 6.33181 5.56614 6.38295 5.4751 6.47399C5.38407 6.56502 5.33292 6.6885 5.33292 6.81724V10.7008C5.33292 10.8295 5.38407 10.953 5.4751 11.044C5.56614 11.135 5.68961 11.1862 5.81836 11.1862H9.70187C9.83061 11.1862 9.95408 11.135 10.0451 11.044C10.1362 10.953 10.1873 10.8295 10.1873 10.7008V6.81724C10.1873 6.6885 10.1362 6.56502 10.0451 6.47399C9.95408 6.38295 9.83061 6.33181 9.70187 6.33181Z" fill="#6D75F4"/>
<path fill-rule="evenodd" clip-rule="evenodd" d="M2.02888 3.02775C2.39019 2.66645 2.88022 2.46347 3.39118 2.46347H12.1291C12.64 2.46347 13.1301 2.66645 13.4914 3.02775C13.8527 3.38905 14.0557 3.87909 14.0557 4.39005V13.1279C14.0557 13.6389 13.8527 14.1289 13.4914 14.4902C13.1301 14.8515 12.64 15.0545 12.1291 15.0545H3.39118C2.88022 15.0545 2.39019 14.8515 2.02888 14.4902C1.66758 14.1289 1.4646 13.6389 1.4646 13.1279V4.39005C1.4646 3.87909 1.66758 3.38905 2.02888 3.02775ZM3.39118 4.37488C3.38716 4.37488 3.3833 4.37648 3.38046 4.37932C3.37761 4.38217 3.37601 4.38603 3.37601 4.39005V13.1279C3.37601 13.132 3.37761 13.1358 3.38046 13.1387C3.3833 13.1415 3.38716 13.1431 3.39118 13.1431H12.1291C12.1331 13.1431 12.137 13.1415 12.1398 13.1387C12.1426 13.1358 12.1442 13.132 12.1442 13.1279V4.39005C12.1442 4.38603 12.1426 4.38217 12.1398 4.37932C12.137 4.37648 12.1331 4.37488 12.1291 4.37488H3.39118Z" fill="#6D75F4"/>
<path d="M9.70187 20.895H5.81836C5.68961 20.895 5.56614 20.9461 5.4751 21.0371C5.38407 21.1282 5.33292 21.2516 5.33292 21.3804V25.2639C5.33292 25.3926 5.38407 25.5161 5.4751 25.6072C5.56614 25.6982 5.68961 25.7493 5.81836 25.7493H9.70187C9.83061 25.7493 9.95408 25.6982 10.0451 25.6072C10.1362 25.5161 10.1873 25.3926 10.1873 25.2639V21.3804C10.1873 21.2516 10.1362 21.1282 10.0451 21.0371C9.95408 20.9461 9.83061 20.895 9.70187 20.895Z" fill="#6D75F4"/>
<path fill-rule="evenodd" clip-rule="evenodd" d="M2.02888 17.5909C2.39019 17.2296 2.88022 17.0266 3.39118 17.0266H12.1291C12.64 17.0266 13.1301 17.2296 13.4914 17.5909C13.8527 17.9522 14.0557 18.4422 14.0557 18.9532V27.6911C14.0557 28.202 13.8527 28.6921 13.4914 29.0534C13.1301 29.4147 12.64 29.6177 12.1291 29.6177H3.39118C2.88022 29.6177 2.39019 29.4147 2.02888 29.0534C1.66758 28.6921 1.4646 28.202 1.4646 27.6911V18.9532C1.4646 18.4422 1.66758 17.9522 2.02888 17.5909ZM3.39118 18.938C3.38716 18.938 3.3833 18.9396 3.38046 18.9425C3.37761 18.9453 3.37601 18.9492 3.37601 18.9532V27.6911C3.37601 27.6951 3.37761 27.699 3.38046 27.7018C3.3833 27.7047 3.38716 27.7063 3.39118 27.7063H12.1291C12.1331 27.7063 12.137 27.7047 12.1398 27.7018C12.1426 27.699 12.1442 27.6951 12.1442 27.6911V18.9532C12.1442 18.9492 12.1426 18.9453 12.1398 18.9425C12.137 18.9396 12.1331 18.938 12.1291 18.938H3.39118Z" fill="#6D75F4"/>
</svg>
