<svg width="29" height="28" viewBox="0 0 29 28" fill="none" xmlns="http://www.w3.org/2000/svg">
<g clip-path="url(#clip0_6241_74828)">
<path d="M24.0278 19.0555H20.0525C19.9207 19.0555 19.7943 19.1079 19.7011 19.2011C19.6079 19.2943 19.5556 19.4207 19.5556 19.5525V23.5278C19.5556 23.6596 19.6079 23.7859 19.7011 23.8791C19.7943 23.9723 19.9207 24.0247 20.0525 24.0247H24.0278C24.1596 24.0247 24.286 23.9723 24.3792 23.8791C24.4724 23.7859 24.5247 23.6596 24.5247 23.5278V19.5525C24.5247 19.4207 24.4724 19.2943 24.3792 19.2011C24.286 19.1079 24.1596 19.0555 24.0278 19.0555Z" fill="#6D75F4"/>
<path d="M19.0587 15.0803H16.0772C15.9454 15.0803 15.819 15.1326 15.7258 15.2258C15.6326 15.319 15.5803 15.4454 15.5803 15.5772V18.5587C15.5803 18.6904 15.6326 18.8168 15.7258 18.91C15.819 19.0032 15.9454 19.0556 16.0772 19.0556H19.0587C19.1905 19.0556 19.3169 19.0032 19.4101 18.91C19.5032 18.8168 19.5556 18.6904 19.5556 18.5587V15.5772C19.5556 15.4454 19.5032 15.319 19.4101 15.2258C19.3169 15.1326 19.1905 15.0803 19.0587 15.0803Z" fill="#6D75F4"/>
<path d="M28.0031 24.0247H25.0216C24.8898 24.0247 24.7634 24.077 24.6702 24.1702C24.5771 24.2634 24.5247 24.3898 24.5247 24.5216V27.5031C24.5247 27.6348 24.5771 27.7612 24.6702 27.8544C24.7634 27.9476 24.8898 28 25.0216 28H28.0031C28.1349 28 28.2613 27.9476 28.3545 27.8544C28.4477 27.7612 28.5 27.6348 28.5 27.5031V24.5216C28.5 24.3898 28.4477 24.2634 28.3545 24.1702C28.2613 24.077 28.1349 24.0247 28.0031 24.0247Z" fill="#6D75F4"/>
<path d="M28.0031 15.0803H26.0154C25.8836 15.0803 25.7573 15.1326 25.6641 15.2258C25.5709 15.319 25.5185 15.4454 25.5185 15.5772V17.5648C25.5185 17.6966 25.5709 17.823 25.6641 17.9162C25.7573 18.0094 25.8836 18.0617 26.0154 18.0617H28.0031C28.1349 18.0617 28.2613 18.0094 28.3545 17.9162C28.4477 17.823 28.5 17.6966 28.5 17.5648V15.5772C28.5 15.4454 28.4477 15.319 28.3545 15.2258C28.2613 15.1326 28.1349 15.0803 28.0031 15.0803Z" fill="#6D75F4"/>
<path d="M18.0649 25.0185H16.0772C15.9454 25.0185 15.819 25.0708 15.7258 25.164C15.6326 25.2572 15.5803 25.3836 15.5803 25.5154V27.5031C15.5803 27.6349 15.6326 27.7612 15.7258 27.8544C15.819 27.9476 15.9454 28 16.0772 28H18.0649C18.1966 28 18.323 27.9476 18.4162 27.8544C18.5094 27.7612 18.5618 27.6349 18.5618 27.5031V25.5154C18.5618 25.3836 18.5094 25.2572 18.4162 25.164C18.323 25.0708 18.1966 25.0185 18.0649 25.0185Z" fill="#6D75F4"/>
<path d="M24.0278 4.14819H20.0525C19.9207 4.14819 19.7943 4.20055 19.7011 4.29374C19.6079 4.38693 19.5556 4.51332 19.5556 4.64511V8.62042C19.5556 8.7522 19.6079 8.8786 19.7011 8.97179C19.7943 9.06498 19.9207 9.11733 20.0525 9.11733H24.0278C24.1596 9.11733 24.286 9.06498 24.3792 8.97179C24.4724 8.8786 24.5247 8.7522 24.5247 8.62042V4.64511C24.5247 4.51332 24.4724 4.38693 24.3792 4.29374C24.286 4.20055 24.1596 4.14819 24.0278 4.14819Z" fill="#6D75F4"/>
<path d="M26.5124 1.16669H17.5679C17.3044 1.16669 17.0516 1.27139 16.8652 1.45777C16.6788 1.64415 16.5741 1.89693 16.5741 2.16051V11.105C16.5741 11.3685 16.6788 11.6213 16.8652 11.8077C17.0516 11.9941 17.3044 12.0988 17.5679 12.0988H26.5124C26.776 12.0988 27.0287 11.9941 27.2151 11.8077C27.4015 11.6213 27.5062 11.3685 27.5062 11.105V2.16051C27.5062 1.89693 27.4015 1.64415 27.2151 1.45777C27.0287 1.27139 26.776 1.16669 26.5124 1.16669V1.16669Z" stroke="#6D75F4" stroke-width="1.45601" stroke-linecap="round" stroke-linejoin="round"/>
<path d="M9.12035 4.14819H5.14505C5.01326 4.14819 4.88686 4.20055 4.79368 4.29374C4.70049 4.38693 4.64813 4.51332 4.64813 4.64511V8.62042C4.64813 8.7522 4.70049 8.8786 4.79368 8.97179C4.88686 9.06498 5.01326 9.11733 5.14505 9.11733H9.12035C9.25214 9.11733 9.37854 9.06498 9.47173 8.97179C9.56491 8.8786 9.61727 8.7522 9.61727 8.62042V4.64511C9.61727 4.51332 9.56491 4.38693 9.47173 4.29374C9.37854 4.20055 9.25214 4.14819 9.12035 4.14819Z" fill="#6D75F4"/>
<path d="M11.6049 1.16669H2.6605C2.39692 1.16669 2.14414 1.27139 1.95776 1.45777C1.77138 1.64415 1.66667 1.89693 1.66667 2.16051V11.105C1.66667 11.3685 1.77138 11.6213 1.95776 11.8077C2.14414 11.9941 2.39692 12.0988 2.6605 12.0988H11.6049C11.8685 12.0988 12.1213 11.9941 12.3077 11.8077C12.4941 11.6213 12.5988 11.3685 12.5988 11.105V2.16051C12.5988 1.89693 12.4941 1.64415 12.3077 1.45777C12.1213 1.27139 11.8685 1.16669 11.6049 1.16669V1.16669Z" stroke="#6D75F4" stroke-width="1.45601" stroke-linecap="round" stroke-linejoin="round"/>
<path d="M9.12035 19.0555H5.14505C5.01326 19.0555 4.88686 19.1079 4.79368 19.2011C4.70049 19.2943 4.64813 19.4207 4.64813 19.5525V23.5278C4.64813 23.6596 4.70049 23.7859 4.79368 23.8791C4.88686 23.9723 5.01326 24.0247 5.14505 24.0247H9.12035C9.25214 24.0247 9.37854 23.9723 9.47173 23.8791C9.56491 23.7859 9.61727 23.6596 9.61727 23.5278V19.5525C9.61727 19.4207 9.56491 19.2943 9.47173 19.2011C9.37854 19.1079 9.25214 19.0555 9.12035 19.0555Z" fill="#6D75F4"/>
<path d="M11.6049 16.0741H2.6605C2.39692 16.0741 2.14414 16.1788 1.95776 16.3652C1.77138 16.5516 1.66667 16.8043 1.66667 17.0679V26.0124C1.66667 26.2759 1.77138 26.5287 1.95776 26.7151C2.14414 26.9015 2.39692 27.0062 2.6605 27.0062H11.6049C11.8685 27.0062 12.1213 26.9015 12.3077 26.7151C12.4941 26.5287 12.5988 26.2759 12.5988 26.0124V17.0679C12.5988 16.8043 12.4941 16.5516 12.3077 16.3652C12.1213 16.1788 11.8685 16.0741 11.6049 16.0741Z" stroke="#6D75F4" stroke-width="1.45601" stroke-linecap="round" stroke-linejoin="round"/>
</g>
<defs>
<clipPath id="clip0_6241_74828">
<rect width="28" height="28" fill="white" transform="translate(0.5)"/>
</clipPath>
</defs>
</svg>
