<svg width="10" height="18" viewBox="0 0 10 18" fill="none" xmlns="http://www.w3.org/2000/svg">
<g clip-path="url(#clip0_7698_133789)">
<path d="M10 9C9.98902 8.81921 9.95058 8.64972 9.88468 8.49153C9.81878 8.33333 9.71994 8.18644 9.58814 8.05085L2.09226 0.355932C1.86161 0.118643 1.57606 0 1.23558 0C0.884128 0 0.590336 0.121468 0.354202 0.364407C0.118066 0.607346 0 0.903953 0 1.25424C0 1.59322 0.126302 1.8983 0.378913 2.16949L7.0346 9L0.378913 15.8305C0.126302 16.0904 0 16.3898 0 16.7288C0 17.0904 0.118066 17.3927 0.354202 17.6356C0.590336 17.8785 0.884128 18 1.23558 18C1.57606 18 1.86161 17.8757 2.09226 17.6271L9.58814 9.9322C9.73092 9.79661 9.83526 9.64972 9.90115 9.49153C9.96705 9.33333 10 9.16949 10 9Z" fill="#6D75F4"/>
</g>
<defs>
<clipPath id="clip0_7698_133789">
<rect width="10" height="18" fill="white"/>
</clipPath>
</defs>
</svg>
