<svg width="33" height="33" viewBox="0 0 33 33" fill="none" xmlns="http://www.w3.org/2000/svg">
<path fill-rule="evenodd" clip-rule="evenodd" d="M16.0001 6.53512C15.1143 6.53512 14.2648 6.887 13.6384 7.51334C13.0121 8.13969 12.6602 8.9892 12.6602 9.87499V14.6211C12.6602 15.3978 12.0306 16.0274 11.2539 16.0274C10.4773 16.0274 9.84766 15.3978 9.84766 14.6211V9.87499C9.84766 8.24327 10.4959 6.67839 11.6497 5.52459C12.8035 4.37079 14.3683 3.7226 16.0001 3.7226C17.6318 3.7226 19.1966 4.37079 20.3504 5.52459C21.5042 6.67839 22.1524 8.24327 22.1524 9.87499V14.6211C22.1524 15.3978 21.5228 16.0274 20.7462 16.0274C19.9695 16.0274 19.3399 15.3978 19.3399 14.6211V9.87499C19.3399 8.9892 18.988 8.13969 18.3617 7.51334C17.7353 6.887 16.8858 6.53512 16.0001 6.53512Z" fill="#6D75F4"/>
<path d="M25.0698 12.8801H6.51325C6.0211 12.8801 5.5491 13.0757 5.2011 13.4237C4.8531 13.7717 4.65759 14.2437 4.65759 14.7358V27.7254C4.65759 28.2175 4.8531 28.6895 5.2011 29.0375C5.5491 29.3855 6.0211 29.581 6.51325 29.581H25.0698C25.562 29.581 26.0339 29.3855 26.382 29.0375C26.73 28.6895 26.9255 28.2175 26.9255 27.7254V14.7358C26.9255 14.2437 26.73 13.7717 26.382 13.4237C26.0339 13.0757 25.562 12.8801 25.0698 12.8801ZM16.7194 22.9471V24.9419C16.7194 25.188 16.6216 25.424 16.4476 25.598C16.2736 25.772 16.0376 25.8697 15.7915 25.8697C15.5455 25.8697 15.3095 25.772 15.1355 25.598C14.9615 25.424 14.8637 25.188 14.8637 24.9419V22.9471C14.1162 22.7242 13.4739 22.2397 13.0542 21.5822C12.6345 20.9247 12.4655 20.1381 12.5781 19.3662C12.6908 18.5944 13.0774 17.8888 13.6675 17.3786C14.2575 16.8684 15.0115 16.5877 15.7915 16.5877C16.5716 16.5877 17.3255 16.8684 17.9156 17.3786C18.5056 17.8888 18.8923 18.5944 19.0049 19.3662C19.1175 20.1381 18.9485 20.9247 18.5289 21.5822C18.1092 22.2397 17.4669 22.7242 16.7194 22.9471Z" fill="#6D75F4"/>
</svg>
