<svg width="25" height="25" viewBox="0 0 25 25" fill="none" xmlns="http://www.w3.org/2000/svg">
<g clip-path="url(#clip0_6257_48599)">
<g clip-path="url(#clip1_6257_48599)">
<path d="M6.3656 22.5721C5.85832 22.8328 5.28392 22.3771 5.38605 21.795L6.47524 15.5866L1.85147 11.1803C1.41935 10.7685 1.64304 10.0156 2.22192 9.93339L8.65216 9.01992L11.5193 3.34047C11.7775 2.82885 12.4772 2.82885 12.7354 3.34047L15.6025 9.01992L22.0328 9.93339C22.6116 10.0156 22.8353 10.7685 22.4032 11.1803L17.7794 15.5866L18.8686 21.795C18.9708 22.3771 18.3964 22.8328 17.8891 22.5721L12.1273 19.6107L6.3656 22.5721Z" fill="#656DE6" fill-opacity="0.75"/>
<path fill-rule="evenodd" clip-rule="evenodd" d="M12.1273 4.90966L9.47399 10.1657L3.49066 11.0157L7.82209 15.1434L6.80501 20.9408L12.1273 18.2052L17.4497 20.9408L16.4326 15.1434L20.764 11.0157L14.7807 10.1657L12.1273 4.90966ZM10.4034 2.77715C11.1239 1.34996 13.1308 1.34996 13.8513 2.77715L16.4244 7.87412L22.2086 8.69582C23.9017 8.93635 24.3945 11.0094 23.2656 12.0852L19.1263 16.0298L20.0998 21.579C20.3571 23.0454 18.8617 24.4774 17.3177 23.6838L12.1273 21.0161L6.93702 23.6838C5.39296 24.4774 3.89762 23.0454 4.15487 21.579L5.1284 16.0298L0.989135 12.0852C-0.1398 11.0094 0.352961 8.93635 2.04613 8.69582L7.83034 7.87412L10.4034 2.77715Z" fill="#6D75F4"/>
</g>
</g>
<defs>
<clipPath id="clip0_6257_48599">
<rect width="24.0036" height="24.0036" fill="white" transform="translate(0.125488 0.800171)"/>
</clipPath>
<clipPath id="clip1_6257_48599">
<rect width="24.0036" height="22.5034" fill="white" transform="translate(0.125488 1.55029)"/>
</clipPath>
</defs>
</svg>
