<svg width="27" height="31" viewBox="0 0 27 31" fill="none" xmlns="http://www.w3.org/2000/svg">
<path fill-rule="evenodd" clip-rule="evenodd" d="M12.2129 0.728642C12.8231 0.118448 13.8124 0.118448 14.4226 0.728642L20.3393 6.64527C20.9495 7.25546 20.9495 8.24478 20.3393 8.85498C19.7291 9.46517 18.7397 9.46517 18.1296 8.85498L13.3178 4.0432L8.50601 8.85498C7.89582 9.46517 6.9065 9.46517 6.2963 8.85498C5.68611 8.24478 5.68611 7.25546 6.2963 6.64527L12.2129 0.728642Z" fill="#6D75F4"/>
<path fill-rule="evenodd" clip-rule="evenodd" d="M13.3178 0.270996C14.1807 0.270996 14.8803 0.970551 14.8803 1.8335V20.1178C14.8803 20.9807 14.1807 21.6803 13.3178 21.6803C12.4548 21.6803 11.7553 20.9807 11.7553 20.1178V1.8335C11.7553 0.970551 12.4548 0.270996 13.3178 0.270996Z" fill="#6D75F4"/>
<path fill-rule="evenodd" clip-rule="evenodd" d="M3.61053 13.351H6.55594C7.41889 13.351 8.11844 12.6515 8.11844 11.7885C8.11844 10.9256 7.41889 10.226 6.55594 10.226H3.17501C2.46172 10.226 1.77764 10.5094 1.27326 11.0138C0.76889 11.5181 0.485535 12.2022 0.485535 12.9155V27.0027C0.485535 27.716 0.768889 28.4001 1.27326 28.9045C1.77764 29.4088 2.46172 29.6922 3.17501 29.6922H23.4606C24.1739 29.6922 24.858 29.4088 25.3623 28.9045C25.8667 28.4001 26.1501 27.716 26.1501 27.0027V12.9155C26.1501 12.2022 25.8667 11.5181 25.3623 11.0138C24.858 10.5094 24.1739 10.226 23.4606 10.226H20.0797C19.2167 10.226 18.5172 10.9256 18.5172 11.7885C18.5172 12.6515 19.2167 13.351 20.0797 13.351H23.0251V26.5672H3.61053V13.351Z" fill="#6D75F4"/>
</svg>
