<svg width="22" height="20" viewBox="0 0 22 20" fill="none" xmlns="http://www.w3.org/2000/svg">
<g clip-path="url(#clip0_7722_158486)">
<path d="M5.4917 1.25C5.81247 1.25 6.09175 1.36741 6.32956 1.60223C6.56737 1.83706 6.68627 2.12056 6.68627 2.45275V14.6048L6.58673 16.6667L7.28356 15.8763L9.1086 13.8316C9.30769 13.5911 9.57315 13.4708 9.90498 13.4708C10.2147 13.4708 10.4746 13.571 10.6848 13.7715C10.8949 13.9719 11 14.2268 11 14.5361C11 14.8339 10.8783 15.1031 10.635 15.3436L6.35445 19.5876C6.21066 19.748 6.06963 19.8568 5.93137 19.9141C5.79311 19.9714 5.64656 20 5.4917 20C5.34791 20 5.20689 19.9714 5.06863 19.9141C4.93037 19.8568 4.78381 19.748 4.62896 19.5876L0.348417 15.3436C0.116138 15.1031 0 14.8339 0 14.5361C0 14.2268 0.0995466 13.9719 0.298643 13.7715C0.497739 13.571 0.757665 13.4708 1.07843 13.4708C1.41026 13.4708 1.68125 13.5911 1.8914 13.8316L3.71644 15.8763L4.41327 16.6667L4.31372 14.6048V2.45275C4.31372 2.12056 4.43263 1.83706 4.67044 1.60223C4.90825 1.36741 5.182 1.25 5.4917 1.25Z" fill="#86889D"/>
<path d="M16.4917 18.75C16.8125 18.75 17.0918 18.6326 17.3296 18.3978C17.5674 18.1629 17.6863 17.8794 17.6863 17.5473V5.39519L17.5867 3.33333L18.2836 4.12371L20.1086 6.16838C20.3077 6.40894 20.5732 6.52921 20.905 6.52921C21.2147 6.52921 21.4746 6.42898 21.6848 6.22852C21.8949 6.02806 22 5.7732 22 5.46392C22 5.16609 21.8783 4.89691 21.635 4.65636L17.3545 0.412371C17.2107 0.252004 17.0696 0.143185 16.9314 0.0859106C16.7931 0.0286362 16.6466 0 16.4917 0C16.3479 0 16.2069 0.0286362 16.0686 0.0859106C15.9304 0.143185 15.7838 0.252004 15.629 0.412371L11.3484 4.65636C11.1161 4.89691 11 5.16609 11 5.46392C11 5.7732 11.0995 6.02806 11.2986 6.22852C11.4977 6.42898 11.7577 6.52921 12.0784 6.52921C12.4103 6.52921 12.6812 6.40894 12.8914 6.16838L14.7164 4.12371L15.4133 3.33333L15.3137 5.39519V17.5473C15.3137 17.8794 15.4326 18.1629 15.6704 18.3978C15.9082 18.6326 16.182 18.75 16.4917 18.75Z" fill="#86889D"/>
</g>
<defs>
<clipPath id="clip0_7722_158486">
<rect width="22" height="20" fill="white"/>
</clipPath>
</defs>
</svg>
