<svg width="24" height="24" viewBox="0 0 24 24" fill="none" xmlns="http://www.w3.org/2000/svg">
<path fill-rule="evenodd" clip-rule="evenodd" d="M8.37869 4.50632C9.32769 3.48973 10.5695 3 12.0086 3C13.4394 3 14.6743 3.49186 15.6213 4.50632C16.5641 5.51628 17 6.81042 17 8.29255V10.9835H15V8.29255C15 7.22115 14.6961 6.44608 14.1593 5.8711C13.6268 5.30061 12.9405 5 12.0086 5C11.062 5 10.3712 5.30273 9.84067 5.8711C9.30391 6.44608 9 7.22115 9 8.29255V11H7V8.29255C7 6.81042 7.43587 5.51628 8.37869 4.50632Z" fill="#6D75F4"/>
<path fill-rule="evenodd" clip-rule="evenodd" d="M7.24957 19H16.7504C16.8485 19 16.9219 18.9938 16.9744 18.9864C16.9876 18.9149 17 18.8061 17 18.6512V12.4152C17 12.2962 16.9925 12.2065 16.9832 12.1408L15.0135 12.0664H9.01939L7.0143 12.1602C7.00624 12.2231 7 12.3067 7 12.4152V18.6512C7 18.8061 7.01237 18.9149 7.0256 18.9864C7.07812 18.9938 7.15151 19 7.24957 19ZM6.4359 10.1851C5.47863 10.4381 5 11.1815 5 12.4152V18.6512C5 20.2171 5.74985 21 7.24957 21H16.7504C18.2501 21 19 20.2171 19 18.6512V12.4152C19 11.1815 18.5214 10.4302 17.5641 10.1613L15.0513 10.0664H8.97265L6.4359 10.1851Z" fill="#6D75F4"/>
</svg>
