<svg width="22" height="22" viewBox="0 0 22 22" fill="none" xmlns="http://www.w3.org/2000/svg">
<path fill-rule="evenodd" clip-rule="evenodd" d="M11 0C12.0979 0 12.988 0.851316 12.988 1.90147V20.0985C12.988 21.1487 12.0979 22 11 22C9.90204 22 9.01197 21.1487 9.01197 20.0985V1.90147C9.01197 0.851316 9.90204 0 11 0Z" fill="#6D75F4"/>
<path fill-rule="evenodd" clip-rule="evenodd" d="M9.59426 0.556927C10.3706 -0.185642 11.6294 -0.185642 12.4057 0.556927L21.4177 9.17659C22.1941 9.91916 22.1941 11.1231 21.4177 11.8657C20.6414 12.6082 19.3826 12.6082 18.6062 11.8657L11 4.59055L3.39375 11.8657C2.61739 12.6082 1.35864 12.6082 0.582276 11.8657C-0.194092 11.1231 -0.194092 9.91916 0.582276 9.17659L9.59426 0.556927Z" fill="#6D75F4"/>
</svg>
