<svg width="24" height="24" viewBox="0 0 24 24" fill="none" xmlns="http://www.w3.org/2000/svg">
<g clip-path="url(#clip0_7943_169173)">
<path d="M4.15133 24H18.7178C19.8969 24 20.8221 23.6519 21.4936 22.9556C22.165 22.2593 22.5007 21.2394 22.5007 19.896V7.09232L19.9706 9.64813V19.7731C19.9706 20.3301 19.8478 20.7479 19.6021 21.0264C19.3565 21.3049 19.0535 21.4442 18.6933 21.4442H4.20045C3.66004 21.4442 3.25065 21.3049 2.97225 21.0264C2.69386 20.7479 2.55466 20.3301 2.55466 19.7731V5.69153C2.55466 5.11811 2.69386 4.69215 2.97225 4.41363C3.25065 4.13511 3.66004 3.99585 4.20045 3.99585H14.4682L17.0229 1.44004H4.15133C2.79211 1.44004 1.76043 1.79228 1.05625 2.49677C0.352081 3.20126 0 4.2334 0 5.59323V19.896C0 21.2394 0.352081 22.2593 1.05625 22.9556C1.76043 23.6519 2.79211 24 4.15133 24Z" fill="#6D75F4"/>
<path d="M9.83743 14.8713L12.3184 13.8392L21.5064 4.64614L19.3693 2.55726L10.2059 11.7503L9.10051 14.0849C8.9695 14.3307 9.00225 14.5477 9.19876 14.7362C9.39528 14.9246 9.60817 14.9696 9.83743 14.8713ZM22.5626 3.58941L23.6189 2.43438C23.8645 2.15586 23.9914 1.84868 23.9996 1.51282C24.0078 1.17695 23.8891 0.886151 23.6434 0.640398L23.3241 0.370072C23.0785 0.107937 22.7837 -0.0149383 22.4398 0.00144569C22.0959 0.0178296 21.7847 0.157087 21.5064 0.419222L20.4747 1.45138L22.5626 3.58941Z" fill="#6D75F4"/>
</g>
<defs>
<clipPath id="clip0_7943_169173">
<rect width="24" height="24" fill="white"/>
</clipPath>
</defs>
</svg>
