<svg width="22" height="22" viewBox="0 0 22 22" fill="none" xmlns="http://www.w3.org/2000/svg">
<path fill-rule="evenodd" clip-rule="evenodd" d="M11 2.83388e-08C12.0981 2.83388e-08 12.9883 0.851458 12.9883 1.90179V20.0982C12.9883 21.1485 12.0981 22 11 22C9.90183 22 9.01162 21.1485 9.01162 20.0982V1.90179C9.01162 0.851458 9.90183 2.83388e-08 11 2.83388e-08Z" fill="#6D75F4"/>
<path fill-rule="evenodd" clip-rule="evenodd" d="M9.59403 0.55702C10.3705 -0.185673 11.6295 -0.185673 12.406 0.55702L21.4176 9.17638C22.1941 9.91908 22.1941 11.1232 21.4176 11.8659C20.6411 12.6086 19.3822 12.6086 18.6057 11.8659L11 4.59132L3.39431 11.8659C2.61782 12.6086 1.35887 12.6086 0.582372 11.8659C-0.194124 11.1232 -0.194124 9.91908 0.582372 9.17638L9.59403 0.55702Z" fill="#6D75F4"/>
</svg>
