<svg width="25" height="25" viewBox="0 0 25 25" fill="none" xmlns="http://www.w3.org/2000/svg">
<path d="M9.21837 12.8621C9.21837 14.8049 10.7932 16.3797 12.7359 16.3797C14.68 16.3797 16.2548 14.8049 16.2535 12.8621C16.2535 10.9193 14.6787 9.34453 12.7359 9.34453C10.7932 9.34453 9.21837 10.9193 9.21837 12.8621Z" fill="#5963FF"/>
<path fill-rule="evenodd" clip-rule="evenodd" d="M23.1019 18.5372C23.1873 18.6 23.2689 18.6703 23.3455 18.7469C24.0676 19.4703 24.1631 20.6307 23.569 21.4633C22.8545 22.4655 21.4567 22.645 20.5149 21.8815C20.4923 21.8639 20.4709 21.8451 20.4496 21.8262C20.2009 21.6077 19.8367 21.5901 19.5742 21.7923C17.6792 23.2453 15.3082 24.1093 12.7363 24.1093C10.1643 24.1093 7.79331 23.2453 5.89827 21.7923C5.63579 21.5914 5.27161 21.6077 5.02295 21.8262C5.00476 21.8423 4.98657 21.8574 4.96761 21.8732L4.95765 21.8815C4.01578 22.6438 2.61804 22.4642 1.90347 21.4633C1.30946 20.6307 1.4049 19.4716 2.12701 18.7469C2.20487 18.6691 2.2865 18.5988 2.37064 18.5372C2.6306 18.3451 2.72102 17.9947 2.58037 17.7021C1.87961 16.2353 1.48779 14.5939 1.48779 12.8609C1.48779 11.1278 1.88087 9.4852 2.58037 8.01839C2.72102 7.72327 2.62432 7.37415 2.36185 7.17949C2.33924 7.16317 2.31664 7.14559 2.29403 7.12675C1.35216 6.36446 1.23663 4.95919 2.06798 4.05248C2.75869 3.29773 3.91406 3.1508 4.77178 3.70713C4.86346 3.76741 4.94886 3.83271 5.02798 3.90178C5.27286 4.11904 5.6358 4.12783 5.89575 3.92941C7.7908 2.47641 10.1618 1.6124 12.7337 1.6124C15.3057 1.6124 17.6767 2.47641 19.5717 3.92941C19.8342 4.1316 20.1984 4.11401 20.4471 3.8955C20.4653 3.87937 20.4836 3.86416 20.5027 3.84829L20.5124 3.84024C21.4542 3.07795 22.852 3.25754 23.5665 4.25843C24.1605 5.09105 24.0651 6.25018 23.343 6.97479C23.2651 7.05266 23.1835 7.12298 23.0994 7.18578C22.8394 7.37792 22.749 7.72829 22.8896 8.01964C23.5904 9.48645 23.9822 11.1278 23.9822 12.8609C23.9822 14.5939 23.5904 16.2353 22.8896 17.7021C22.7528 17.9947 22.8419 18.3451 23.1019 18.5372ZM5.00632 12.8609C5.00632 8.59229 8.46738 5.13122 12.7359 5.13122C17.0058 5.13122 20.4668 8.59229 20.4656 12.8609C20.4656 17.1294 17.0045 20.5905 12.7359 20.5905C8.46738 20.5905 5.00632 17.1294 5.00632 12.8609Z" fill="#5963FF"/>
</svg>
