<svg width="36" height="36" viewBox="0 0 36 36" fill="none" xmlns="http://www.w3.org/2000/svg">
<path fill-rule="evenodd" clip-rule="evenodd" d="M18 33.9429C26.805 33.9429 33.9429 26.805 33.9429 18C33.9429 9.195 26.805 2.05714 18 2.05714C9.195 2.05714 2.05714 9.195 2.05714 18C2.05714 26.805 9.195 33.9429 18 33.9429ZM18 36C27.9411 36 36 27.9411 36 18C36 8.05888 27.9411 0 18 0C8.05888 0 0 8.05888 0 18C0 27.9411 8.05888 36 18 36Z" fill="#6D75F4"/>
<path fill-rule="evenodd" clip-rule="evenodd" d="M10 18C10 19.1046 10.8683 20 11.9394 20H24.0606C25.1317 20 26 19.1046 26 18C26 16.8954 25.1317 16 24.0606 16H11.9394C10.8683 16 10 16.8954 10 18Z" fill="#6D75F4"/>
</svg>
