<svg width="24" height="24" viewBox="0 0 24 24" fill="none" xmlns="http://www.w3.org/2000/svg">
<path d="M7.49321 5C7.75566 5 7.98416 5.09393 8.17873 5.28179C8.3733 5.46965 8.47059 5.69645 8.47059 5.9622V15.6838L8.38914 17.3333L8.95928 16.701L10.4525 15.0653C10.6154 14.8729 10.8326 14.7766 11.1041 14.7766C11.3575 14.7766 11.5701 14.8568 11.7421 15.0172C11.914 15.1775 12 15.3814 12 15.6289C12 15.8671 11.9005 16.0825 11.7014 16.2749L8.1991 19.6701C8.08145 19.7984 7.96606 19.8855 7.85294 19.9313C7.73982 19.9771 7.61991 20 7.49321 20C7.37557 20 7.26018 19.9771 7.14706 19.9313C7.03394 19.8855 6.91403 19.7984 6.78733 19.6701L3.28507 16.2749C3.09502 16.0825 3 15.8671 3 15.6289C3 15.3814 3.08145 15.1775 3.24434 15.0172C3.40724 14.8568 3.61991 14.7766 3.88235 14.7766C4.15385 14.7766 4.37556 14.8729 4.54751 15.0653L6.04072 16.701L6.61086 17.3333L6.52941 15.6838V5.9622C6.52941 5.69645 6.6267 5.46965 6.82127 5.28179C7.01584 5.09393 7.23982 5 7.49321 5Z" fill="#6D75F4"/>
<path d="M16.4932 19C16.7557 19 16.9842 18.9061 17.1787 18.7182C17.3733 18.5304 17.4706 18.3036 17.4706 18.0378V8.31615L17.3891 6.66667L17.9593 7.29897L19.4525 8.93471C19.6154 9.12715 19.8326 9.22337 20.1041 9.22337C20.3575 9.22337 20.5701 9.14318 20.7421 8.98282C20.914 8.82245 21 8.61856 21 8.37113C21 8.13287 20.9005 7.91753 20.7014 7.72509L17.1991 4.3299C17.0814 4.2016 16.9661 4.11455 16.8529 4.06873C16.7398 4.02291 16.6199 4 16.4932 4C16.3756 4 16.2602 4.02291 16.1471 4.06873C16.0339 4.11455 15.914 4.2016 15.7873 4.3299L12.2851 7.72509C12.095 7.91753 12 8.13287 12 8.37113C12 8.61856 12.0814 8.82245 12.2443 8.98282C12.4072 9.14318 12.6199 9.22337 12.8824 9.22337C13.1538 9.22337 13.3756 9.12715 13.5475 8.93471L15.0407 7.29897L15.6109 6.66667L15.5294 8.31615V18.0378C15.5294 18.3036 15.6267 18.5304 15.8213 18.7182C16.0158 18.9061 16.2398 19 16.4932 19Z" fill="#6D75F4"/>
</svg>
