<svg width="25" height="25" viewBox="0 0 25 25" fill="none" xmlns="http://www.w3.org/2000/svg">
<path d="M18.825 16.352C18.7475 14.9805 18.0036 13.7562 16.6088 12.7178C16.1671 12.3924 15.4542 11.9275 14.4779 11.5245L18.3833 7.60361V7.05345C18.3833 6.83648 18.1973 6.65051 17.9803 6.65051H10.7119V3.36501L7.38771 4.06241V4.96902H7.81389C7.93787 4.96902 8.22458 5.01551 8.22458 5.3797V6.63501H6.34162C6.15564 6.63501 5.99292 6.79774 5.99292 6.98371V8.22352H8.23233V13.2138C8.23233 14.1281 8.54228 14.9185 9.10794 15.4377C9.68135 15.9646 10.495 16.2048 11.4403 16.1273C11.8433 16.0963 12.2462 15.9491 12.6414 15.6934C12.8584 15.5461 12.9901 15.3137 12.9901 15.058V14.0351L12.5717 14.3141C12.0602 14.655 11.6186 14.6473 11.6186 14.6473H11.6031C11.3783 14.6473 11.2001 14.5775 11.0606 14.4381C10.7197 14.0894 10.7197 13.4307 10.7197 13.423V8.22352H15.2218L11.696 11.7725V11.881C11.6883 12.2839 11.6805 12.6171 11.6805 12.7488C11.6805 12.7876 11.6805 12.8108 11.6805 12.8186C11.6805 12.9735 11.789 13.0975 11.944 13.113C15.5085 13.7174 16.2523 16.0111 16.2523 16.4373V16.4683C16.2523 16.4838 16.3996 17.832 15.6247 18.7697C15.1753 19.3043 14.5011 19.6143 13.6255 19.6685C13.6178 19.6685 13.0986 19.6918 12.5484 19.6065C12.037 19.529 11.6651 19.3973 11.4713 19.2191C11.8123 18.9789 12.006 18.6147 12.006 18.1885C12.006 17.3206 11.4248 16.7627 10.5337 16.7627C9.72785 16.7627 9.0692 17.3981 9.06145 18.173C9.0537 18.3125 9.01496 19.1648 9.7046 19.9242C10.433 20.7301 11.6883 21.133 13.4318 21.133C13.4938 21.133 13.5635 21.133 13.6255 21.133C15.4077 21.102 16.7715 20.5829 17.6781 19.591C18.9334 18.2272 18.8327 16.4605 18.825 16.352Z" fill="#6D75F4"/>
</svg>
