<svg width="30" height="31" viewBox="0 0 30 31" fill="none" xmlns="http://www.w3.org/2000/svg">
<g clip-path="url(#clip0_7306_127082)">
<path d="M18.8137 15.3553C18.8137 15.3553 18.7672 15.3321 18.7556 15.3204L27.6737 6.76279C27.883 6.56513 28.0225 6.37909 28.1388 6.20469C28.2783 6.46048 28.3713 6.75117 28.3713 7.05347V23.3433C28.3713 23.6223 28.3016 23.8897 28.1853 24.1223L18.8137 15.367V15.3553ZM26.6273 5.32101C26.8365 5.32101 27.0342 5.36752 27.2319 5.43729C27.2202 5.50705 27.1505 5.66983 26.8831 5.93726L16.279 16.0878C15.5814 16.7622 14.4303 16.7622 13.721 16.0878L3.12858 5.92563C2.82627 5.63495 2.76813 5.44891 2.75651 5.43729C2.75651 5.43729 2.76813 5.43729 2.77976 5.42566C2.9658 5.3559 3.16346 5.30939 3.38438 5.30939H26.6273V5.32101ZM1.82633 24.1223C1.71005 23.8897 1.62866 23.6223 1.62866 23.3433V7.0651C1.62866 6.75117 1.72168 6.46048 1.86121 6.20469C1.96585 6.37909 2.11701 6.56513 2.3263 6.76279L11.3839 15.4483L1.82633 24.1223ZM3.37275 25.0873C3.11695 25.0873 2.88441 25.0292 2.66349 24.9362L12.2211 16.2623L12.9187 16.925C13.4885 17.4715 14.2442 17.7505 15 17.7505C15.7558 17.7505 16.5115 17.4715 17.0813 16.925L17.9417 16.0995C17.9417 16.0995 17.9882 16.1809 18.0231 16.2041L27.3481 24.9246C27.1272 25.0292 26.8831 25.0873 26.6273 25.0873H3.37275Z" fill="white"/>
</g>
<defs>
<clipPath id="clip0_7306_127082">
<rect width="30" height="30" fill="white" transform="translate(0 0.198364)"/>
</clipPath>
</defs>
</svg>
