<svg width="24" height="24" viewBox="0 0 24 24" fill="none" xmlns="http://www.w3.org/2000/svg">
<path d="M3.72662 19.1639H7.96095C8.03289 21.1553 9.63618 23 12 23C14.3535 23 15.9671 21.1763 16.0493 19.1639H20.2734C21.3422 19.1639 22 18.5665 22 17.6651C22 16.5436 21.0031 15.5898 20.0678 14.6779C19.3381 13.9547 19.1634 12.5083 19.0298 11.0305C18.8859 7.07908 17.7451 4.43783 15.073 3.4526C14.6721 2.0586 13.5313 1 12 1C10.4687 1 9.32785 2.0586 8.93731 3.4526C6.25488 4.43783 5.12436 7.07908 4.9702 11.0305C4.83659 12.5083 4.66187 13.9547 3.93217 14.6779C2.99692 15.5898 2 16.5436 2 17.6651C2 18.5665 2.65776 19.1639 3.72662 19.1639ZM4.50771 17.2144V17.0886C4.77492 16.7847 5.37102 16.2292 5.87461 15.6422C6.58376 14.8142 6.91264 13.2839 7.01542 11.2925C7.13875 7.08957 8.41316 5.67461 10.0576 5.22392C10.3145 5.15055 10.4481 5.02477 10.4687 4.74178C10.52 3.68318 11.1059 2.97046 12 2.97046C12.9044 2.97046 13.48 3.68318 13.5313 4.74178C13.5519 5.02477 13.6958 5.15055 13.9424 5.22392C15.5971 5.67461 16.8613 7.08957 16.9846 11.2925C17.0976 13.2839 17.4265 14.8142 18.1254 15.6422C18.629 16.2292 19.2045 16.7847 19.4717 17.0886V17.2144H4.50771ZM12 21.3125C10.8386 21.3125 10.0062 20.4636 9.93422 19.1639H14.0761C14.0144 20.4531 13.1716 21.3125 12 21.3125Z" fill="#6D75F4"/>
</svg>
