<svg width="22" height="23" viewBox="0 0 22 23" fill="none" xmlns="http://www.w3.org/2000/svg">
<path d="M8.80866 1.53807C8.9955 1.46068 9.21055 1.50346 9.35355 1.64646L19.3536 11.6465C19.5488 11.8417 19.5488 12.1583 19.3536 12.3536L9.35355 22.3536C9.21055 22.4966 8.9955 22.5393 8.80866 22.462C8.62182 22.3846 8.5 22.2022 8.5 22V17.5H3.83333C3.47971 17.5 3.14057 17.3595 2.89052 17.1095C2.64048 16.8594 2.5 16.5203 2.5 16.1667V7.83335C2.5 7.47973 2.64048 7.14059 2.89052 6.89054C3.14057 6.64049 3.47971 6.50001 3.83333 6.50001H8.5V2.00001C8.5 1.79778 8.62182 1.61547 8.80866 1.53807Z" fill="#6D75F4" fill-opacity="0.35"/>
</svg>
