<svg width="14" height="18" viewBox="0 0 14 18" fill="none" xmlns="http://www.w3.org/2000/svg">
<g clip-path="url(#clip0_8479_199141)">
<path fill-rule="evenodd" clip-rule="evenodd" d="M3.37869 1.50632C4.32769 0.489734 5.56949 0 7.0086 0C8.43942 0 9.6743 0.491857 10.6213 1.50632C11.5641 2.51628 12 3.81042 12 5.29255V7.98349H10V5.29255C10 4.22115 9.69609 3.44608 9.15933 2.8711C8.62677 2.30061 7.94052 2 7.0086 2C6.06204 2 5.37125 2.30273 4.84067 2.8711C4.30391 3.44608 4 4.22115 4 5.29255V8H2V5.29255C2 3.81042 2.43587 2.51628 3.37869 1.50632Z" fill="#6D75F4"/>
<path fill-rule="evenodd" clip-rule="evenodd" d="M2.24957 16H11.7504C11.8485 16 11.9219 15.9938 11.9744 15.9864C11.9876 15.9149 12 15.8061 12 15.6512V9.41518C12 9.29624 11.9925 9.20649 11.9832 9.14081L10.0135 9.06643H4.01939L2.0143 9.16019C2.00624 9.22308 2 9.30674 2 9.41518V15.6512C2 15.8061 2.01237 15.9149 2.0256 15.9864C2.07812 15.9938 2.15151 16 2.24957 16ZM1.4359 7.18505C0.478628 7.43812 0 8.18149 0 9.41518V15.6512C0 17.2171 0.749849 18 2.24957 18H11.7504C13.2501 18 14 17.2171 14 15.6512V9.41518C14 8.18149 13.5214 7.43021 12.5641 7.16133L10.0513 7.06643H3.97265L1.4359 7.18505Z" fill="#6D75F4"/>
</g>
<defs>
<clipPath id="clip0_8479_199141">
<rect width="14" height="18" fill="white"/>
</clipPath>
</defs>
</svg>
