<svg width="33" height="32" viewBox="0 0 33 32" fill="none" xmlns="http://www.w3.org/2000/svg">
<path d="M24.4624 4.12915H13.031V19.4208H28.3728V8.10771C28.379 5.95966 26.6175 4.12915 24.4624 4.12915ZM9.52043 4.12915H7.60271C5.44762 4.12915 3.60486 5.87872 3.60486 8.11394V10.0254H9.52043V4.12915ZM3.60486 13.6055H9.52043V19.5017H3.60486V13.6055ZM22.4635 28.8971H24.3812C26.5363 28.8971 28.3791 27.1475 28.3791 24.9123V23.0071H22.4635V28.8971ZM13.031 23.0071H18.9466V28.9033H13.031V23.0071ZM3.60486 23.0071V24.9186C3.60486 27.0666 5.36017 28.9033 7.60271 28.9033H9.52043V23.0071H3.60486Z" fill="#5963FF"/>
</svg>
