<svg width="27" height="22" viewBox="0 0 27 22" fill="none" xmlns="http://www.w3.org/2000/svg">
<g clip-path="url(#clip0_7707_145529)">
<path d="M10.3913 5.33109C10.9699 5.33109 11.4501 4.83975 11.4501 4.25013C11.4501 3.68509 10.9699 3.20602 10.3913 3.20602C9.80029 3.20602 9.32013 3.68509 9.32013 4.25013C9.32013 4.85203 9.80029 5.33109 10.3913 5.33109ZM13.4815 5.33109C14.0602 5.33109 14.5527 4.83975 14.5527 4.25013C14.5527 3.68509 14.0602 3.20602 13.4815 3.20602C12.9029 3.20602 12.4104 3.68509 12.4104 4.25013C12.4104 4.83975 12.9029 5.33109 13.4815 5.33109ZM16.5965 5.33109C17.1874 5.33109 17.6676 4.85203 17.6676 4.25013C17.6676 3.68509 17.1874 3.20602 16.5965 3.20602C16.0178 3.20602 15.5376 3.68509 15.5376 4.25013C15.5376 4.83975 16.0178 5.33109 16.5965 5.33109ZM19.6129 10.8956C20.2038 10.8956 20.684 10.4042 20.684 9.81462C20.684 9.24958 20.2038 8.75823 19.6129 8.75823C19.0342 8.75823 18.5541 9.24958 18.5541 9.81462C18.5541 10.4042 19.0342 10.8956 19.6129 10.8956ZM7.37485 10.8956C7.95351 10.8956 8.43367 10.4042 8.43367 9.81462C8.43367 9.24958 7.95351 8.75823 7.37485 8.75823C6.78388 8.75823 6.30371 9.24958 6.30371 9.81462C6.30371 10.4042 6.78388 10.8956 7.37485 10.8956ZM17.2859 13.4506C17.8769 13.4506 18.3571 12.9592 18.3571 12.3696C18.3571 11.8046 17.8769 11.3255 17.2859 11.3255C16.7073 11.3255 16.2271 11.8046 16.2271 12.3696C16.2271 12.9715 16.7073 13.4506 17.2859 13.4506ZM9.7018 13.4506C10.2805 13.4506 10.7606 12.9592 10.7606 12.3696C10.7606 11.8046 10.2805 11.3255 9.7018 11.3255C9.11082 11.3255 8.63066 11.8046 8.63066 12.3696C8.63066 12.9715 9.11082 13.4506 9.7018 13.4506Z" fill="#6D75F4"/>
<circle cx="4.18091" cy="4.18091" r="3.55591" stroke="#6D75F4" stroke-width="1.25"/>
<circle cx="22.8191" cy="4.18091" r="3.55591" stroke="#6D75F4" stroke-width="1.25"/>
<circle cx="13.5" cy="17.8191" r="3.55591" stroke="#6D75F4" stroke-width="1.25"/>
</g>
<defs>
<clipPath id="clip0_7707_145529">
<rect width="27" height="22" fill="white"/>
</clipPath>
</defs>
</svg>
