<svg width="25" height="25" viewBox="0 0 25 25" fill="none" xmlns="http://www.w3.org/2000/svg">
<path d="M7.47058 16.7175V10.3485H15.8206V16.7175H7.47058Z" fill="#696A80"/>
<path fill-rule="evenodd" clip-rule="evenodd" d="M23.8456 12.3425C23.8456 18.4177 18.9207 23.3425 12.8456 23.3425C6.77045 23.3425 1.84558 18.4177 1.84558 12.3425C1.84558 6.2674 6.77045 1.34253 12.8456 1.34253C18.9207 1.34253 23.8456 6.2674 23.8456 12.3425ZM9.00559 6.84253C8.72945 6.84253 8.50559 7.06639 8.50559 7.34253C8.50559 7.61867 8.72945 7.84253 9.00559 7.84253H18.3456V15.1997C18.3456 15.4758 18.5694 15.6997 18.8456 15.6997C19.1217 15.6997 19.3456 15.4758 19.3456 15.1997V7.81872C19.3456 7.55853 19.2414 7.3098 19.0571 7.12704C18.8731 6.94442 18.6242 6.84253 18.3656 6.84253H9.00559ZM7.32558 9.09848C6.72001 9.09848 6.22058 9.58681 6.22058 10.1997V16.8663C6.22058 17.4792 6.72001 17.9675 7.32558 17.9675H15.9656C16.5711 17.9675 17.0706 17.4792 17.0706 16.8663V10.1997C17.0706 9.58681 16.5711 9.09848 15.9656 9.09848H7.32558Z" fill="#696A80"/>
</svg>
