<svg width="22" height="27" viewBox="0 0 22 27" fill="none" xmlns="http://www.w3.org/2000/svg">
<path d="M4.48828 26.0312H18.0117C19.3086 26.0312 20.293 25.6953 20.9648 25.0234C21.6445 24.3516 21.9844 23.375 21.9844 22.0938V10.6797C21.9844 9.39844 21.6445 8.42188 20.9648 7.75C20.293 7.07812 19.3086 6.74219 18.0117 6.74219H14.9062V9.35547H17.7891C18.2969 9.35547 18.6875 9.48828 18.9609 9.75391C19.2344 10.0117 19.3711 10.4102 19.3711 10.9492V21.8242C19.3711 22.3633 19.2344 22.7656 18.9609 23.0312C18.6875 23.2969 18.2969 23.4297 17.7891 23.4297H4.69922C4.18359 23.4297 3.78906 23.2969 3.51562 23.0312C3.25 22.7656 3.11719 22.3633 3.11719 21.8242V10.9492C3.11719 10.4102 3.25 10.0117 3.51562 9.75391C3.78906 9.48828 4.18359 9.35547 4.69922 9.35547H7.62891V6.74219H4.48828C3.19141 6.74219 2.20312 7.07812 1.52344 7.75C0.851562 8.41406 0.515625 9.39062 0.515625 10.6797V22.0938C0.515625 23.3828 0.851562 24.3594 1.52344 25.0234C2.20312 25.6953 3.19141 26.0312 4.48828 26.0312ZM11.2383 18.5195C11.4023 18.5195 11.5586 18.4922 11.707 18.4375C11.8633 18.375 12.0195 18.2656 12.1758 18.1094L16.0898 14.3359C16.3086 14.1172 16.418 13.8711 16.418 13.5977C16.418 13.293 16.3125 13.0469 16.1016 12.8594C15.8906 12.6719 15.6445 12.5781 15.3633 12.5781C15.0508 12.5781 14.7891 12.6953 14.5781 12.9297L13.0195 14.5703L12.3047 15.4492L12.4453 13.7148V1.71484C12.4453 1.39453 12.3281 1.11719 12.0938 0.882812C11.8672 0.648438 11.582 0.53125 11.2383 0.53125C10.9102 0.53125 10.6289 0.648438 10.3945 0.882812C10.1602 1.11719 10.043 1.39453 10.043 1.71484V13.7148L10.1953 15.4492L9.46875 14.5703L7.92188 12.9297C7.71094 12.6953 7.44531 12.5781 7.125 12.5781C6.83594 12.5781 6.58594 12.6719 6.375 12.8594C6.17188 13.0469 6.07031 13.293 6.07031 13.5977C6.07031 13.8711 6.17969 14.1172 6.39844 14.3359L10.3125 18.1094C10.4766 18.2656 10.6328 18.375 10.7812 18.4375C10.9297 18.4922 11.082 18.5195 11.2383 18.5195Z" fill="#5963FF"/>
</svg>
