<svg width="24" height="24" viewBox="0 0 24 24" fill="none" xmlns="http://www.w3.org/2000/svg">
<path d="M12 1C11.0644 1 10.4124 1.64936 10.4124 2.58105L10.5399 18.271L3.6366 10.9869C3.35309 10.7045 2.95619 10.521 2.50258 10.521C1.63789 10.521 1 11.1704 1 12.0597C1 12.4691 1.15593 12.8502 1.49613 13.189L10.8235 22.5059C11.1353 22.8306 11.5606 23 12 23C12.4253 23 12.8505 22.8306 13.1624 22.5059L22.5039 13.189C22.8441 12.8502 23 12.4691 23 12.0597C23 11.1704 22.3479 10.521 21.4832 10.521C21.0438 10.521 20.6469 10.7045 20.3634 10.9869L13.4601 18.2569L13.5735 2.58105C13.5735 1.64936 12.9214 1 12 1Z" fill="#6D75F4"/>
</svg>
