<svg width="30" height="30" viewBox="0 0 30 30" fill="none" xmlns="http://www.w3.org/2000/svg">
<path fill-rule="evenodd" clip-rule="evenodd" d="M27.48 15.2955C27.48 14.3737 27.3973 13.4874 27.2436 12.6364H15V17.6651H21.9964C21.695 19.2901 20.7791 20.6669 19.4023 21.5887V24.8505H23.6036C26.0618 22.5874 27.48 19.2546 27.48 15.2955Z" fill="#4285F4"/>
<path fill-rule="evenodd" clip-rule="evenodd" d="M14.9998 28C18.5098 28 21.4526 26.8359 23.6035 24.8504L19.4021 21.5886C18.238 22.3686 16.7489 22.8295 14.9998 22.8295C11.6139 22.8295 8.74802 20.5427 7.72575 17.47H3.38257V20.8381C5.52166 25.0868 9.91802 28 14.9998 28Z" fill="#34A853"/>
<path fill-rule="evenodd" clip-rule="evenodd" d="M7.72579 17.4701C7.46579 16.6901 7.31806 15.8569 7.31806 15.0001C7.31806 14.1433 7.46579 13.3101 7.72579 12.5301V9.16194H3.38261C2.50215 10.9169 1.99988 12.9024 1.99988 15.0001C1.99988 17.0979 2.50215 19.0833 3.38261 20.8383L7.72579 17.4701Z" fill="#FBBC05"/>
<path fill-rule="evenodd" clip-rule="evenodd" d="M14.9998 7.17056C16.9085 7.17056 18.6221 7.82647 19.9694 9.11465L23.698 5.38602C21.4467 3.28829 18.5039 2.00011 14.9998 2.00011C9.91802 2.00011 5.52166 4.91329 3.38257 9.16193L7.72575 12.5301C8.74802 9.45738 11.6139 7.17056 14.9998 7.17056Z" fill="#EA4335"/>
</svg>
