<svg width="30" height="31" viewBox="0 0 30 31" fill="none" xmlns="http://www.w3.org/2000/svg">
<g clip-path="url(#clip0_6248_35689)">
<path fill-rule="evenodd" clip-rule="evenodd" d="M29.4026 15.503C29.4026 14.4392 29.3072 13.4164 29.1299 12.4345H15.0013V18.2373H23.0748C22.727 20.1125 21.6701 21.7013 20.0813 22.765V26.529H24.9295C27.7661 23.9174 29.4026 20.0716 29.4026 15.503Z" fill="#4285F4"/>
<path fill-rule="evenodd" clip-rule="evenodd" d="M15.0011 30.1632C19.0515 30.1632 22.4472 28.8199 24.9293 26.5288L20.0811 22.7648C18.7378 23.6649 17.0195 24.1968 15.0011 24.1968C11.0939 24.1968 7.78681 21.5579 6.60715 18.0121H1.59534V21.8989C4.06374 26.8016 9.13693 30.1632 15.0011 30.1632Z" fill="#34A853"/>
<path fill-rule="evenodd" clip-rule="evenodd" d="M6.60717 18.0123C6.30715 17.1123 6.13668 16.1508 6.13668 15.1621C6.13668 14.1734 6.30715 13.2119 6.60717 12.3118V8.42511H1.59536C0.579354 10.4503 -0.000244141 12.7414 -0.000244141 15.1621C-0.000244141 17.5828 0.579354 19.8739 1.59536 21.8991L6.60717 18.0123Z" fill="#FBBC05"/>
<path fill-rule="evenodd" clip-rule="evenodd" d="M15.0011 6.12715C17.2036 6.12715 19.181 6.88404 20.7357 8.37054L25.0384 4.06788C22.4404 1.6472 19.0446 0.160706 15.0011 0.160706C9.13693 0.160706 4.06374 3.52237 1.59534 8.42509L6.60715 12.3118C7.78681 8.76603 11.0939 6.12715 15.0011 6.12715Z" fill="#EA4335"/>
</g>
<defs>
<clipPath id="clip0_6248_35689">
<rect width="30" height="30" fill="white" transform="translate(0 0.160583)"/>
</clipPath>
</defs>
</svg>
