<svg width="25" height="25" viewBox="0 0 25 25" fill="none" xmlns="http://www.w3.org/2000/svg">
<path fill-rule="evenodd" clip-rule="evenodd" d="M12.3608 5.56469C12.3608 5.0425 11.9374 4.61917 11.4152 4.61917H7.00279C6.58485 4.61917 6.18402 4.7852 5.88848 5.08073C5.59295 5.37627 5.42692 5.7771 5.42692 6.19504V18.802C5.42692 19.2199 5.59295 19.6208 5.88848 19.9163C6.18402 20.2118 6.58485 20.3779 7.00279 20.3779H11.4152C11.9374 20.3779 12.3608 19.9546 12.3608 19.4324C12.3608 18.9102 11.9374 18.4868 11.4152 18.4868H7.31797V6.51022H11.4152C11.9374 6.51022 12.3608 6.08689 12.3608 5.56469ZM15.3931 8.52062C15.0239 8.15137 14.4252 8.15137 14.056 8.52062L10.7466 11.8299C10.3774 12.1992 10.3774 12.7979 10.7466 13.1671L14.056 16.4764C14.4252 16.8457 15.0239 16.8457 15.3931 16.4764C15.7624 16.1072 15.7624 15.5085 15.3931 15.1393L13.6979 13.4441L20.24 13.4441C20.7622 13.4441 21.1855 13.0207 21.1855 12.4985C21.1855 11.9763 20.7622 11.553 20.24 11.553L13.6979 11.553L15.3931 9.85779C15.7624 9.48854 15.7624 8.88987 15.3931 8.52062Z" fill="#6D75F4"/>
</svg>
