<svg width="24" height="25" viewBox="0 0 24 25" fill="none" xmlns="http://www.w3.org/2000/svg">
<g clip-path="url(#clip0_6248_61957)">
<path fill-rule="evenodd" clip-rule="evenodd" d="M1.28228 0.5C1.99046 0.5 2.56456 1.09695 2.56456 1.83333V15.6811L7.44948 9.42392C7.68995 9.17387 8.01611 9.0334 8.35619 9.0334C8.69627 9.0334 9.02242 9.17387 9.2629 9.42392L12.4595 12.7478L19.622 5.30006H17.5886C16.8804 5.30006 16.3063 4.70311 16.3063 3.96673C16.3063 3.23035 16.8804 2.6334 17.5886 2.6334H22.7177C23.4259 2.6334 24 3.23035 24 3.96673L24 9.30006C24 10.0364 23.4259 10.6334 22.7177 10.6334C22.0095 10.6334 21.4354 10.0364 21.4354 9.30006L21.4354 7.18568L13.3662 15.5762C13.1257 15.8263 12.7996 15.9667 12.4595 15.9667C12.1194 15.9667 11.7932 15.8263 11.5528 15.5762L8.35619 12.2523L2.56456 19.4524V21.8333H22.504C23.2122 21.8333 23.7863 22.4303 23.7863 23.1667C23.7863 23.903 23.2122 24.5 22.504 24.5H1.28228C0.574096 24.5 0 23.903 0 23.1667V18.9004V1.83333C0 1.09695 0.574096 0.5 1.28228 0.5Z" fill="#9298FF"/>
</g>
<defs>
<clipPath id="clip0_6248_61957">
<rect width="24" height="24" fill="white" transform="translate(0 0.5)"/>
</clipPath>
</defs>
</svg>
