<svg width="30" height="31" viewBox="0 0 30 31" fill="none" xmlns="http://www.w3.org/2000/svg">
<g clip-path="url(#clip0_6248_35706)">
<path d="M25.9964 6.61083C24.0947 5.72339 22.024 5.0895 19.8688 4.70917C19.8266 4.70917 19.7843 4.70917 19.7843 4.75143C19.5308 5.21628 19.2349 5.85016 19.0236 6.31501C16.6994 5.97694 14.4174 5.97694 12.1777 6.31501C11.9664 5.8079 11.6706 5.21628 11.417 4.75143C11.417 4.70917 11.3748 4.70917 11.3325 4.70917C9.17728 5.0895 7.14885 5.72339 5.20493 6.61083C5.20493 6.61083 5.16267 6.61083 5.16267 6.65308C1.27484 12.4426 0.218364 18.1053 0.725473 23.7257C0.725473 23.7539 0.739559 23.7821 0.767732 23.8103C3.34553 25.7119 5.83882 26.8529 8.24759 27.6136C8.28984 27.6136 8.3321 27.6136 8.3321 27.5713C8.92373 26.7684 9.43084 25.9655 9.85343 25.078C9.89569 25.0358 9.85343 24.9513 9.81117 24.9513C9.00825 24.6554 8.20533 24.2751 7.48692 23.8525C7.44466 23.8103 7.4024 23.7257 7.48692 23.6835C7.65596 23.5567 7.78274 23.4299 7.95177 23.3032C7.99403 23.2609 8.03629 23.2609 8.03629 23.3032C12.9383 25.5429 18.263 25.5429 23.1228 23.3032H23.2073C23.3763 23.4299 23.5031 23.5567 23.6721 23.6835C23.7144 23.7257 23.7144 23.8103 23.6721 23.8525C22.9115 24.2751 22.1508 24.6554 21.3479 24.9513C21.3056 24.9513 21.2634 25.0358 21.3056 25.078C21.7705 25.9655 22.2776 26.7684 22.827 27.5713C22.8692 27.6136 22.9115 27.6136 22.9115 27.6136C25.3625 26.8529 27.8558 25.7119 30.4336 23.8103C30.4759 23.8103 30.4759 23.768 30.4759 23.7257C31.1097 17.2601 29.4194 11.6397 25.9964 6.61083C26.0387 6.61083 25.9964 6.61083 25.9964 6.61083ZM10.6141 20.3028C9.13503 20.3028 7.90951 18.9505 7.90951 17.2601C7.90951 15.5697 9.09277 14.2175 10.6141 14.2175C12.1354 14.2175 13.3187 15.5697 13.3187 17.2601C13.3187 18.9505 12.1354 20.3028 10.6141 20.3028ZM20.5872 20.3028C19.1082 20.3028 17.8827 18.9505 17.8827 17.2601C17.8827 15.5697 19.0659 14.2175 20.5872 14.2175C22.1086 14.2175 23.2918 15.5697 23.2918 17.2601C23.2918 18.9505 22.1086 20.3028 20.5872 20.3028Z" fill="#5865F2"/>
</g>
<defs>
<clipPath id="clip0_6248_35706">
<rect width="30" height="30" fill="white" transform="translate(0 0.697998)"/>
</clipPath>
</defs>
</svg>
