<svg width="54" height="54" viewBox="0 0 54 54" fill="none" xmlns="http://www.w3.org/2000/svg">
<rect x="0.5" y="0.5" width="53" height="53" rx="5.5" fill="#1F1F2B" stroke="#14141D"/>
<path d="M33.7499 22.7353C33.7499 23.2967 33.5366 23.8352 33.1568 24.2322C32.7771 24.6293 32.262 24.8523 31.7249 24.8523C31.1879 24.8523 30.6728 24.6293 30.2931 24.2322C29.9133 23.8352 29.6999 23.2967 29.6999 22.7353C29.6999 22.1738 29.9133 21.6353 30.2931 21.2383C30.6728 20.8413 31.1879 20.6182 31.7249 20.6182C32.262 20.6182 32.7771 20.8413 33.1568 21.2383C33.5366 21.6353 33.7499 22.1738 33.7499 22.7353ZM44.5499 14.9728V37.5546V40.3773C44.5499 41.1259 44.2655 41.8439 43.7591 42.3733C43.2528 42.9026 42.566 43.2 41.8499 43.2H12.15C11.4339 43.2 10.7471 42.9026 10.2408 42.3733C9.73441 41.8439 9.44995 41.1259 9.44995 40.3773V34.7318V14.9728C9.44995 14.2241 9.73441 13.5061 10.2408 12.9768C10.7471 12.4474 11.4339 12.15 12.15 12.15H41.8499C42.566 12.15 43.2528 12.4474 43.7591 12.9768C44.2655 13.5061 44.5499 14.2241 44.5499 14.9728ZM41.8499 34.1497V14.9728H12.15V31.3269L18.3431 24.8523C18.8514 24.3287 19.5363 24.0352 20.25 24.0352C20.9636 24.0352 21.6485 24.3287 22.1568 24.8523L29.6999 32.7383L33.1931 29.0864C33.7014 28.5628 34.3863 28.2692 35.0999 28.2692C35.8136 28.2692 36.4985 28.5628 37.0068 29.0864L41.8499 34.1497Z" fill="#2D2E3F"/>
</svg>
