<svg width="26" height="26" viewBox="0 0 26 26" fill="none" xmlns="http://www.w3.org/2000/svg">
<path fill-rule="evenodd" clip-rule="evenodd" d="M2.60084 3.25061C3.19912 3.25061 3.68411 3.73561 3.68411 4.33388V15.5845L8.76776 10.5008C8.97091 10.2977 9.24645 10.1836 9.53375 10.1836C9.82105 10.1836 10.0966 10.2977 10.2997 10.5008L13.0002 13.2013L19.0511 7.15042H17.3333C16.735 7.15042 16.25 6.66542 16.25 6.06715C16.25 5.46888 16.735 4.98389 17.3333 4.98389H21.6663C22.2646 4.98389 22.7496 5.46888 22.7496 6.06715L22.7496 10.4002C22.7496 10.9985 22.2646 11.4835 21.6663 11.4835C21.0681 11.4835 20.5831 10.9985 20.5831 10.4002L20.5831 8.68239L13.7662 15.4993C13.563 15.7024 13.2875 15.8165 13.0002 15.8165C12.7129 15.8165 12.4374 15.7024 12.2342 15.4993L9.53375 12.7988L3.68411 18.6484V20.5829H23.3995C23.9978 20.5829 24.4828 21.0679 24.4828 21.6661C24.4828 22.2644 23.9978 22.7494 23.3995 22.7494H2.60084C2.00257 22.7494 1.51758 22.2644 1.51758 21.6661V18.2C1.51758 18.1998 1.51758 18.1996 1.51758 18.1995V4.33388C1.51758 3.73561 2.00257 3.25061 2.60084 3.25061Z" fill="#BCBED5"/>
</svg>
