<svg width="24" height="24" viewBox="0 0 24 24" fill="none" xmlns="http://www.w3.org/2000/svg">
<path d="M6.4917 3.25C6.81247 3.25 7.09175 3.36741 7.32956 3.60223C7.56737 3.83706 7.68627 4.12056 7.68627 4.45275V16.6048L7.58673 18.6667L8.28356 17.8763L10.1086 15.8316C10.3077 15.5911 10.5732 15.4708 10.905 15.4708C11.2147 15.4708 11.4746 15.571 11.6848 15.7715C11.8949 15.9719 12 16.2268 12 16.5361C12 16.8339 11.8783 17.1031 11.635 17.3436L7.35445 21.5876C7.21066 21.748 7.06963 21.8568 6.93137 21.9141C6.79311 21.9714 6.64656 22 6.4917 22C6.34791 22 6.20689 21.9714 6.06863 21.9141C5.93037 21.8568 5.78381 21.748 5.62896 21.5876L1.34842 17.3436C1.11614 17.1031 1 16.8339 1 16.5361C1 16.2268 1.09955 15.9719 1.29864 15.7715C1.49774 15.571 1.75767 15.4708 2.07843 15.4708C2.41026 15.4708 2.68125 15.5911 2.8914 15.8316L4.71644 17.8763L5.41327 18.6667L5.31372 16.6048V4.45275C5.31372 4.12056 5.43263 3.83706 5.67044 3.60223C5.90825 3.36741 6.182 3.25 6.4917 3.25Z" fill="#86889D"/>
<path d="M17.4917 20.75C17.8125 20.75 18.0918 20.6326 18.3296 20.3978C18.5674 20.1629 18.6863 19.8794 18.6863 19.5473V7.39519L18.5867 5.33333L19.2836 6.12371L21.1086 8.16838C21.3077 8.40894 21.5732 8.52921 21.905 8.52921C22.2147 8.52921 22.4746 8.42898 22.6848 8.22852C22.8949 8.02806 23 7.7732 23 7.46392C23 7.16609 22.8783 6.89691 22.635 6.65636L18.3545 2.41237C18.2107 2.252 18.0696 2.14319 17.9314 2.08591C17.7931 2.02864 17.6466 2 17.4917 2C17.3479 2 17.2069 2.02864 17.0686 2.08591C16.9304 2.14319 16.7838 2.252 16.629 2.41237L12.3484 6.65636C12.1161 6.89691 12 7.16609 12 7.46392C12 7.7732 12.0995 8.02806 12.2986 8.22852C12.4977 8.42898 12.7577 8.52921 13.0784 8.52921C13.4103 8.52921 13.6812 8.40894 13.8914 8.16838L15.7164 6.12371L16.4133 5.33333L16.3137 7.39519V19.5473C16.3137 19.8794 16.4326 20.1629 16.6704 20.3978C16.9082 20.6326 17.182 20.75 17.4917 20.75Z" fill="#86889D"/>
</svg>
