<svg width="24" height="24" viewBox="0 0 24 24" fill="none" xmlns="http://www.w3.org/2000/svg">
<path d="M11.9993 22.3856C17.7427 22.3856 22.3987 17.7297 22.3987 11.9863C22.3987 6.24286 17.7427 1.58691 11.9993 1.58691C6.25592 1.58691 1.59998 6.24286 1.59998 11.9863C1.59998 17.7297 6.25592 22.3856 11.9993 22.3856Z" stroke="#BCBED5" stroke-width="2.16653" stroke-linecap="round" stroke-linejoin="round"/>
<path d="M3.50659 17.9875L4.81734 17.1967C4.93057 17.1239 5.02622 17.0269 5.0974 16.9126C5.16858 16.7983 5.21353 16.6697 5.22898 16.536L5.62979 12.5279C5.63984 12.3924 5.68461 12.2618 5.75979 12.1487L7.89382 8.80144C7.96035 8.69746 8.04834 8.6089 8.15187 8.54169C8.2554 8.47447 8.3721 8.43015 8.49415 8.41169C8.61621 8.39322 8.74079 8.40105 8.85958 8.43464C8.97836 8.46823 9.0886 8.52681 9.18291 8.60645L10.8511 10.0039C10.9427 10.0824 11.05 10.1405 11.1658 10.1741C11.2817 10.2077 11.4034 10.2162 11.5228 10.1988L14.9025 9.74388C15.1096 9.71538 15.2987 9.61117 15.4333 9.4514L17.8382 6.67824C17.9808 6.50919 18.0543 6.29253 18.044 6.07161L17.9249 3.43927" stroke="#BCBED5" stroke-width="2.16653" stroke-linecap="round" stroke-linejoin="round"/>
<path d="M18.4014 20.1866L17.2315 19.0167C17.1232 18.9085 16.9889 18.8302 16.8415 18.7892L14.5125 18.1826C14.3079 18.1266 14.131 17.9975 14.0152 17.8199C13.8994 17.6422 13.8528 17.4282 13.8842 17.2185L14.1333 15.4636C14.1581 15.316 14.2197 15.177 14.3125 15.0596C14.4053 14.9422 14.5262 14.8501 14.6641 14.7919L17.9573 13.4162C18.1102 13.3524 18.2782 13.3338 18.4414 13.3626C18.6046 13.3914 18.7562 13.4664 18.878 13.5787L21.5754 16.0485" stroke="#BCBED5" stroke-width="2.16653" stroke-linecap="round" stroke-linejoin="round"/>
</svg>
