<svg width="18" height="13" viewBox="0 0 18 13" fill="none" xmlns="http://www.w3.org/2000/svg">
<g clip-path="url(#clip0_8332_185044)">
<path d="M9.06602 12.8539H13.2256C16.4827 12.8539 18 10.4356 18 6.62553C18 3.49393 16.9012 0.431926 13.7881 0.431926H9.06602V12.8539ZM11.9437 3.61572H12.8594C14.9392 3.61572 15.1223 5.79044 15.1223 6.57334C15.1223 7.73899 14.8607 9.67014 13.0687 9.67014H11.9437V3.61572Z" fill="#BCBED5"/>
<path d="M2.86941 4.38202C2.84195 3.32303 3.44597 2.79354 4.18726 2.79354C4.75009 2.79354 5.43647 3.10393 5.43647 3.9073C5.43647 4.89326 4.7089 5.05758 4.13235 5.05758C3.7617 5.05758 3.54206 5.00281 3.33615 4.98455V7.4677C3.54206 7.43118 3.73425 7.37641 4.13235 7.37641C4.76381 7.37641 5.40901 7.57725 5.40901 8.69101C5.40901 9.73174 4.91482 10.1152 4.13235 10.1152C3.65188 10.1152 3.25378 9.9691 2.99296 9.54916C2.73213 9.22051 2.60858 8.70927 2.62231 8.03371H0.0140697C-0.0545682 8.98315 -0.040841 13 4.25589 13C7.38578 13 8.26435 10.5534 8.26435 9.0014C8.26435 6.17135 6.6994 6.17135 6.6994 6.02528V5.98876C6.6994 5.93399 7.96234 5.93399 7.96234 3.26826C7.96234 2.19101 7.04259 0 4.26962 0C3.19887 0 2.21048 0.34691 1.48292 1.05899C0.755359 1.78933 0.302349 2.88483 0.288621 4.38202H2.86941Z" fill="#BCBED5"/>
</g>
<defs>
<clipPath id="clip0_8332_185044">
<rect width="18" height="13" fill="white"/>
</clipPath>
</defs>
</svg>
