<svg width="24" height="24" viewBox="0 0 24 24" fill="none" xmlns="http://www.w3.org/2000/svg">
<path d="M11.9991 22.384C17.7425 22.384 22.3984 17.728 22.3984 11.9846C22.3984 6.24121 17.7425 1.58527 11.9991 1.58527C6.25568 1.58527 1.59973 6.24121 1.59973 11.9846C1.59973 17.728 6.25568 22.384 11.9991 22.384Z" stroke="#9298FF" stroke-width="2.59984" stroke-linecap="round" stroke-linejoin="round"/>
<path d="M3.50635 17.9859L4.8171 17.1951C4.93032 17.1223 5.02597 17.0252 5.09716 16.911C5.16834 16.7967 5.21328 16.668 5.22874 16.5343L5.62955 12.5262C5.6396 12.3908 5.68437 12.2602 5.75954 12.1471L7.89357 8.79979C7.96011 8.69582 8.04809 8.60726 8.15163 8.54004C8.25516 8.47282 8.37186 8.4285 8.49391 8.41004C8.61596 8.39158 8.74055 8.3994 8.85933 8.43299C8.97812 8.46658 9.08835 8.52516 9.18266 8.6048L10.8509 10.0022C10.9424 10.0808 11.0497 10.1388 11.1656 10.1725C11.2814 10.2061 11.4031 10.2145 11.5225 10.1972L14.9023 9.74223C15.1093 9.71373 15.2984 9.60952 15.4331 9.44975L17.838 6.67659C17.9806 6.50754 18.0541 6.29088 18.0438 6.06996L17.9246 3.43762" stroke="#9298FF" stroke-width="2.59984" stroke-linecap="round" stroke-linejoin="round"/>
<path d="M18.4012 20.185L17.2312 19.0151C17.123 18.9069 16.9887 18.8286 16.8412 18.7876L14.5122 18.181C14.3077 18.125 14.1307 17.9959 14.015 17.8183C13.8992 17.6406 13.8526 17.4266 13.8839 17.2169L14.1331 15.462C14.1578 15.3144 14.2194 15.1754 14.3122 15.058C14.405 14.9406 14.526 14.8485 14.6639 14.7904L17.957 13.4146C18.11 13.3508 18.278 13.3322 18.4412 13.361C18.6044 13.3898 18.7559 13.4648 18.8778 13.5771L21.5751 16.0469" stroke="#9298FF" stroke-width="2.59984" stroke-linecap="round" stroke-linejoin="round"/>
</svg>
