<svg width="24" height="24" viewBox="0 0 24 24" fill="none" xmlns="http://www.w3.org/2000/svg">
<path d="M1.9369 1H22.0631C22.2449 1.00007 22.4227 1.05996 22.575 1.17238C22.7272 1.2848 22.8473 1.4449 22.9205 1.63317C22.9938 1.82144 23.0171 2.02975 22.9876 2.23274C22.958 2.43572 22.877 2.6246 22.7543 2.77638L14.7657 12.8276C14.6055 13.0216 14.5174 13.2779 14.5196 13.5434V20.1133C12.423 21.6763 12.464 21.7307 10.9956 22.8252C10.855 22.93 10.692 22.99 10.5238 22.9988C10.3556 23.0077 10.1884 22.9652 10.0397 22.8757C9.89111 22.7861 9.76653 22.6529 9.67911 22.4901C9.59168 22.3272 9.54465 22.1407 9.54294 21.9502V13.5434C9.5452 13.2779 9.45711 13.0216 9.29693 12.8276L1.24572 2.77638C1.12301 2.6246 1.04196 2.43572 1.01244 2.23274C0.98292 2.02975 1.00621 1.82144 1.07946 1.63317C1.15272 1.4449 1.27278 1.2848 1.42502 1.17238C1.57726 1.05996 1.75511 1.00007 1.9369 1Z" fill="#86889D"/>
</svg>
