<svg width="30" height="30" viewBox="0 0 30 30" fill="none" xmlns="http://www.w3.org/2000/svg">
<g clip-path="url(#clip0_7046_94390)">
<g clip-path="url(#clip1_7046_94390)">
<path d="M15 30C23.2843 30 30 23.2842 30 15C30 6.7157 23.2843 -3.05176e-05 15 -3.05176e-05C6.71573 -3.05176e-05 0 6.7157 0 15C0 23.2842 6.71573 30 15 30Z" fill="url(#paint0_linear_7046_94390)"/>
<path fill-rule="evenodd" clip-rule="evenodd" d="M6.78989 14.8416C11.1627 12.9363 14.0787 11.6805 15.5376 11.0736C19.7034 9.34108 20.5689 9.03988 21.1329 9.02998C21.2571 9.02788 21.5343 9.05848 21.7143 9.20428C21.8661 9.32728 21.9078 9.49378 21.9279 9.61048C21.948 9.72718 21.9729 9.99328 21.9531 10.2009C21.7275 12.5727 20.7507 18.3285 20.2536 20.985C20.0433 22.1091 19.6293 22.4859 19.2285 22.5228C18.3573 22.6029 17.6961 21.9471 16.8522 21.3942C15.5319 20.5287 14.7861 19.9902 13.5048 19.1457C12.0237 18.1698 12.984 17.6334 13.8279 16.7568C14.0487 16.5273 17.8869 13.0365 17.961 12.7197C17.9703 12.6801 17.979 12.5325 17.8911 12.4545C17.8032 12.3765 17.6739 12.4032 17.5806 12.4245C17.4483 12.4545 15.3393 13.8486 11.2536 16.6065C10.6551 17.0175 10.1127 17.2179 9.62699 17.2074C9.09149 17.1957 8.06129 16.9047 7.29539 16.6557C6.35609 16.3503 5.60939 16.1889 5.67449 15.6702C5.70839 15.4002 6.08039 15.1239 6.79049 14.8416H6.78989Z" fill="white"/>
</g>
</g>
<defs>
<linearGradient id="paint0_linear_7046_94390" x1="15.03" y1="0.0299695" x2="15.03" y2="29.73" gradientUnits="userSpaceOnUse">
<stop stop-color="#2AABEE"/>
<stop offset="1" stop-color="#229ED9"/>
</linearGradient>
<clipPath id="clip0_7046_94390">
<rect width="30" height="30" fill="white"/>
</clipPath>
<clipPath id="clip1_7046_94390">
<rect width="30" height="30" fill="white"/>
</clipPath>
</defs>
</svg>
