<svg width="20" height="20" viewBox="0 0 20 20" fill="none" xmlns="http://www.w3.org/2000/svg">
<g clip-path="url(#clip0_7722_158390)">
<path d="M6.87333 10.0011C6.87333 11.7283 8.27351 13.1283 10.0008 13.1283C11.7293 13.1283 13.1295 11.7283 13.1284 10.0011C13.1284 8.27397 11.7282 6.87394 10.0008 6.87394C8.27351 6.87394 6.87333 8.27397 6.87333 10.0011Z" fill="#5963FF"/>
<path fill-rule="evenodd" clip-rule="evenodd" d="M19.2173 15.0463C19.2932 15.1022 19.3658 15.1647 19.4339 15.2328C20.0759 15.8759 20.1608 16.9074 19.6326 17.6476C18.9973 18.5386 17.7546 18.6982 16.9172 18.0194C16.897 18.0038 16.8781 17.9871 16.8591 17.9703C16.638 17.776 16.3142 17.7604 16.0808 17.9402C14.3959 19.2319 12.2879 20 10.0011 20C7.71438 20 5.60629 19.2319 3.92139 17.9402C3.68803 17.7615 3.36423 17.776 3.14314 17.9703C3.12697 17.9846 3.1108 17.998 3.09394 18.0121L3.08508 18.0194C2.24766 18.6971 1.00491 18.5375 0.369584 17.6476C-0.158558 16.9074 -0.0736973 15.877 0.56833 15.2328C0.637558 15.1636 0.710137 15.101 0.784945 15.0463C1.01608 14.8755 1.09647 14.564 0.971416 14.3039C0.348368 12.9999 0 11.5407 0 10C0 8.45931 0.349486 6.99899 0.971416 5.69498C1.09647 5.43262 1.01049 5.12225 0.777128 4.9492C0.757031 4.93469 0.736933 4.91906 0.716835 4.90231C-0.120592 4.22463 -0.223315 2.97533 0.515854 2.16925C1.12997 1.49827 2.15721 1.36765 2.91983 1.86223C3.00134 1.91582 3.07726 1.97387 3.14761 2.03528C3.36534 2.22842 3.68803 2.23624 3.91916 2.05984C5.60406 0.768115 7.71215 0 9.99888 0C12.2856 0 14.3937 0.768115 16.0786 2.05984C16.312 2.23959 16.6358 2.22396 16.8569 2.0297C16.8731 2.01536 16.8894 2.00183 16.9063 1.98773L16.9149 1.98057C17.7523 1.30289 18.9951 1.46254 19.6304 2.35235C20.1585 3.09255 20.0737 4.12303 19.4317 4.76722C19.3624 4.83644 19.2899 4.89896 19.215 4.95479C18.9839 5.1256 18.9035 5.43709 19.0286 5.6961C19.6516 7.00011 20 8.45931 20 10C20 11.5407 19.6516 12.9999 19.0286 14.3039C18.9069 14.564 18.9862 14.8755 19.2173 15.0463ZM3.12835 9.99999C3.12835 6.20519 6.20562 3.12827 10.0008 3.12827C13.7972 3.12827 16.8745 6.20519 16.8733 9.99999C16.8733 13.7948 13.7961 16.8717 10.0008 16.8717C6.20562 16.8717 3.12835 13.7948 3.12835 9.99999Z" fill="#5963FF"/>
</g>
<defs>
<clipPath id="clip0_7722_158390">
<rect width="20" height="20" fill="white"/>
</clipPath>
</defs>
</svg>
