<svg width="17" height="14" viewBox="0 0 17 14" fill="none" xmlns="http://www.w3.org/2000/svg">
<path d="M2.37342 0.406738H10.8517C11.9454 0.406738 12.8321 1.2934 12.8321 2.38715V9.00148C12.8321 9.02888 12.8315 9.05616 12.8304 9.0833V7.77768H11.2772V2.63242C11.2772 2.26783 10.9817 1.97228 10.6171 1.97228H2.60803C2.24345 1.97228 1.94789 2.26783 1.94789 2.63242V8.85023C1.94789 9.21482 2.24345 9.51037 2.60803 9.51037H9.16233V10.9819H2.37342C1.27967 10.9819 0.393005 10.0952 0.393005 9.00148V2.38715C0.393005 1.2934 1.27967 0.406738 2.37342 0.406738Z" fill="#6D75F4"/>
<path d="M10.7393 10.9819H10.8517C11.8678 10.9819 12.7052 10.2167 12.8189 9.23106H11.1563C11.0592 9.36836 10.911 9.46693 10.7393 9.49907V10.9819Z" fill="#6D75F4"/>
<path fill-rule="evenodd" clip-rule="evenodd" d="M5.70876 3.60834H13.6407L14.1928 3.60994C15.2843 3.61311 16.1674 4.49883 16.1674 5.59034V11.53C16.1674 12.6237 15.2808 13.5104 14.187 13.5104H5.70875C4.615 13.5104 3.72834 12.6237 3.72834 11.53V5.58875C3.72834 4.495 4.615 3.60834 5.70876 3.60834ZM12.8304 9.23106V7.77768H10.7393V5.49048H9.16233V7.77768H7.06545V9.23106H9.16233V11.6283H10.7393V9.23106H12.8304Z" fill="#6D75F4"/>
</svg>
