<svg width="24" height="24" viewBox="0 0 24 24" fill="none" xmlns="http://www.w3.org/2000/svg">
<path d="M12.0053 5.48935C11.7288 5.48935 11.5055 5.60637 11.2822 5.82977L8.35809 8.77658C8.19859 8.9468 8.11353 9.14892 8.11353 9.38297C8.11353 9.86169 8.47505 10.2021 8.95355 10.2021C9.20874 10.2021 9.43204 10.0957 9.5809 9.91488L10.2189 9.25531L11.1971 8.05318L11.1121 10.2021V13.8085L11.1971 15.9574L10.2189 14.7659L9.5809 14.0957C9.43204 13.9149 9.20874 13.8085 8.95355 13.8085C8.47505 13.8085 8.11353 14.1596 8.11353 14.6276C8.11353 14.8617 8.19859 15.0745 8.35809 15.234L11.2822 18.1915C11.5055 18.4149 11.7288 18.5213 12.0053 18.5213C12.2817 18.5213 12.4944 18.4149 12.7177 18.1915L15.6524 15.234C15.8119 15.0745 15.8864 14.8617 15.8864 14.6276C15.8864 14.1596 15.5355 13.8085 15.0676 13.8085C14.8018 13.8085 14.5785 13.9255 14.4296 14.0957L13.781 14.7659L12.8134 15.9468L12.9091 13.8085V10.2021L12.8134 8.06382L13.781 9.25531L14.4296 9.91488C14.5785 10.0851 14.8018 10.2021 15.0676 10.2021C15.5355 10.2021 15.8864 9.86169 15.8864 9.38297C15.8864 9.14892 15.8119 8.9468 15.6524 8.77658L12.7177 5.82977C12.4944 5.60637 12.2817 5.48935 12.0053 5.48935Z" fill="#6D75F4"/>
<path fill-rule="evenodd" clip-rule="evenodd" d="M12 21.7429C17.3808 21.7429 21.7429 17.3808 21.7429 12C21.7429 6.61917 17.3808 2.25714 12 2.25714C6.61917 2.25714 2.25714 6.61917 2.25714 12C2.25714 17.3808 6.61917 21.7429 12 21.7429ZM12 23C18.0751 23 23 18.0751 23 12C23 5.92487 18.0751 1 12 1C5.92487 1 1 5.92487 1 12C1 18.0751 5.92487 23 12 23Z" fill="#6D75F4"/>
</svg>
