<svg width="24" height="24" viewBox="0 0 24 24" fill="none" xmlns="http://www.w3.org/2000/svg">
<path fill-rule="evenodd" clip-rule="evenodd" d="M12.96 4.96C12.96 4.42981 13.3898 4 13.92 4H18.4C18.8243 4 19.2313 4.16857 19.5314 4.46863C19.8314 4.76869 20 5.17566 20 5.6V18.4C20 18.8243 19.8314 19.2313 19.5314 19.5314C19.2313 19.8314 18.8243 20 18.4 20H13.92C13.3898 20 12.96 19.5702 12.96 19.04C12.96 18.5098 13.3898 18.08 13.92 18.08H18.08V5.92H13.92C13.3898 5.92 12.96 5.49019 12.96 4.96ZM9.88114 7.96119C10.256 7.58628 10.8639 7.58628 11.2388 7.96119L14.5988 11.3212C14.9737 11.6961 14.9737 12.3039 14.5988 12.6788L11.2388 16.0388C10.8639 16.4137 10.256 16.4137 9.88114 16.0388C9.50624 15.6639 9.50624 15.0561 9.88114 14.6812L11.6023 12.96L4.96 12.96C4.42981 12.96 4 12.5302 4 12C4 11.4698 4.42981 11.04 4.96 11.04L11.6023 11.04L9.88114 9.31883C9.50624 8.94393 9.50624 8.33609 9.88114 7.96119Z" fill="#6D75F4"/>
</svg>
