<svg width="20" height="20" viewBox="0 0 20 20" fill="none" xmlns="http://www.w3.org/2000/svg">
<path d="M2.47769 1.60014H17.5223C17.6582 1.60019 17.7912 1.63975 17.905 1.71401C18.0188 1.78828 18.1085 1.89404 18.1633 2.0184C18.218 2.14277 18.2354 2.28038 18.2134 2.41447C18.1913 2.54855 18.1307 2.67333 18.039 2.77359L12.2856 9.10495C12.1659 9.23312 12.1 9.40244 12.1017 9.57783V14.5343C12.1028 14.6508 12.0744 14.7656 12.0193 14.8681C11.9642 14.9707 11.8841 15.0577 11.7864 15.1211L8.98419 16.9863C8.87907 17.0555 8.75724 17.0952 8.63151 17.101C8.50578 17.1069 8.38079 17.0788 8.26968 17.0197C8.15857 16.9605 8.06545 16.8725 8.0001 16.765C7.93475 16.6574 7.89959 16.5342 7.89831 16.4083V9.57783C7.9 9.40244 7.83415 9.23312 7.71441 9.10495L1.96102 2.77359C1.86929 2.67333 1.80871 2.54855 1.78664 2.41447C1.76458 2.28038 1.78198 2.14277 1.83674 2.0184C1.8915 1.89404 1.98125 1.78828 2.09505 1.71401C2.20885 1.63975 2.3418 1.60019 2.47769 1.60014Z" fill="#A2A4BA" stroke="#A2A4BA" stroke-width="0.5" stroke-linecap="round" stroke-linejoin="round"/>
</svg>
