<svg width="30" height="31" viewBox="0 0 30 31" fill="none" xmlns="http://www.w3.org/2000/svg">
<path fill-rule="evenodd" clip-rule="evenodd" d="M27.48 15.4561C27.48 14.5343 27.3973 13.6479 27.2436 12.797H15V17.8257H21.9964C21.695 19.4507 20.7791 20.8275 19.4023 21.7493V25.0111H23.6036C26.0618 22.7479 27.48 19.4152 27.48 15.4561Z" fill="#4285F4"/>
<path fill-rule="evenodd" clip-rule="evenodd" d="M14.9998 28.1605C18.5098 28.1605 21.4526 26.9964 23.6035 25.011L19.4021 21.7492C18.238 22.5292 16.7489 22.9901 14.9998 22.9901C11.6139 22.9901 8.74802 20.7033 7.72575 17.6305H3.38257V20.9987C5.52166 25.2474 9.91802 28.1605 14.9998 28.1605Z" fill="#34A853"/>
<path fill-rule="evenodd" clip-rule="evenodd" d="M7.72579 17.6307C7.46579 16.8507 7.31806 16.0175 7.31806 15.1607C7.31806 14.3039 7.46579 13.4707 7.72579 12.6907V9.32253H3.38261C2.50215 11.0775 1.99988 13.063 1.99988 15.1607C1.99988 17.2584 2.50215 19.2439 3.38261 20.9989L7.72579 17.6307Z" fill="#FBBC05"/>
<path fill-rule="evenodd" clip-rule="evenodd" d="M14.9998 7.33115C16.9085 7.33115 18.6221 7.98705 19.9694 9.27524L23.698 5.5466C21.4467 3.44887 18.5039 2.16069 14.9998 2.16069C9.91802 2.16069 5.52166 5.07387 3.38257 9.32251L7.72575 12.6907C8.74802 9.61796 11.6139 7.33115 14.9998 7.33115Z" fill="#EA4335"/>
</svg>
