<svg width="26" height="26" viewBox="0 0 26 26" fill="none" xmlns="http://www.w3.org/2000/svg">
<path d="M12.6598 8.27198C12.7998 7.8033 12.8901 7.31923 12.9306 6.81977H20.0464C20.2707 6.81977 20.4577 6.88817 20.6072 7.02497C20.7568 7.16178 20.8316 7.33541 20.8316 7.54587C20.8316 7.74932 20.7568 7.9212 20.6072 8.06151C20.4577 8.20182 20.2707 8.27198 20.0464 8.27198H12.6598Z" fill="#86889D"/>
<path d="M10.6844 11.4767C10.7534 11.4112 10.8213 11.3442 10.8882 11.2757C11.0146 11.1461 11.1357 11.0126 11.2515 10.875C11.3143 10.8611 11.3811 10.8542 11.4517 10.8542H20.0464C20.2707 10.8542 20.4577 10.9243 20.6072 11.0646C20.7568 11.2049 20.8315 11.3803 20.8315 11.5908C20.8315 11.7942 20.7568 11.9661 20.6072 12.1064C20.4577 12.2467 20.2707 12.3169 20.0464 12.3169H11.4517C11.2274 12.3169 11.0421 12.2467 10.896 12.1064C10.7498 11.9661 10.6767 11.7942 10.6767 11.5908C10.6767 11.5516 10.6793 11.5135 10.6844 11.4767Z" fill="#86889D"/>
<path d="M12.561 3.79684C12.5155 3.66605 12.4661 3.5366 12.4128 3.40848C12.203 2.90398 11.9461 2.43449 11.6421 2L22.0475 2C23.6781 2 25 3.36161 25 5.04123V21.9588C25 23.6384 23.6781 25 22.0475 25H5.95251C4.32188 25 3 23.6384 3 21.9588L3 12.7081C3.09385 12.7546 3.18902 12.7993 3.28552 12.842C3.75477 13.05 4.24107 13.2 4.74442 13.2921V21.9588C4.74442 22.646 5.2853 23.2032 5.95251 23.2032H22.0475C22.7147 23.2032 23.2556 22.646 23.2556 21.9588V5.04123C23.2556 4.35397 22.7147 3.79684 22.0475 3.79684H12.561Z" fill="#86889D"/>
<path d="M9.448 14.9833C9.62135 15.1657 9.70802 15.3867 9.70802 15.6462C9.70802 15.8988 9.62135 16.1145 9.448 16.2934C9.27465 16.4723 9.05882 16.5618 8.8005 16.5618C8.55577 16.5618 8.34673 16.4723 8.17338 16.2934C8.00003 16.1145 7.91336 15.8988 7.91336 15.6462C7.91336 15.3867 8.00003 15.1657 8.17338 14.9833C8.34673 14.8009 8.55577 14.7097 8.8005 14.7097C9.05882 14.7097 9.27465 14.8009 9.448 14.9833Z" fill="#86889D"/>
<path d="M19.0744 15.1201C19.2239 15.2604 19.2987 15.4358 19.2987 15.6462C19.2987 15.8497 19.2239 16.0216 19.0744 16.1619C18.9248 16.3022 18.7379 16.3724 18.5135 16.3724H11.4517C11.2274 16.3724 11.0421 16.3022 10.896 16.1619C10.7498 16.0216 10.6767 15.8497 10.6767 15.6462C10.6767 15.4358 10.7498 15.2604 10.896 15.1201C11.0421 14.9798 11.2274 14.9096 11.4517 14.9096H18.5135C18.7379 14.9096 18.9248 14.9798 19.0744 15.1201Z" fill="#86889D"/>
<path d="M9.70802 19.7017C9.70802 19.4421 9.62135 19.2212 9.448 19.0387C9.27465 18.8563 9.05882 18.7651 8.8005 18.7651C8.55577 18.7651 8.34673 18.8563 8.17338 19.0387C8.00003 19.2212 7.91336 19.4421 7.91336 19.7017C7.91336 19.9543 8.00003 20.17 8.17338 20.3489C8.34673 20.5278 8.55577 20.6172 8.8005 20.6172C9.05882 20.6172 9.27465 20.5278 9.448 20.3489C9.62135 20.17 9.70802 19.9543 9.70802 19.7017Z" fill="#86889D"/>
<path d="M20.8315 19.7017C20.8315 19.4912 20.7568 19.3159 20.6072 19.1756C20.4577 19.0352 20.2707 18.9651 20.0464 18.9651H11.4517C11.2274 18.9651 11.0421 19.0352 10.896 19.1756C10.7498 19.3159 10.6767 19.4912 10.6767 19.7017C10.6767 19.9052 10.7498 20.077 10.896 20.2173C11.0421 20.3577 11.2274 20.4278 11.4517 20.4278H20.0464C20.2707 20.4278 20.4577 20.3577 20.6072 20.2173C20.7568 20.077 20.8315 19.9052 20.8315 19.7017Z" fill="#86889D"/>
<path d="M5.47184 11.9644C6.21147 11.9644 6.9116 11.8205 7.57225 11.5327C8.23289 11.245 8.81633 10.8493 9.32259 10.3456C9.82884 9.84202 10.2256 9.25928 10.5128 8.59738C10.8001 7.93548 10.9437 7.23043 10.9437 6.4822C10.9437 5.72678 10.8019 5.01813 10.5182 4.35623C10.2346 3.69433 9.84141 3.11158 9.33874 2.60797C8.83608 2.10435 8.25443 1.71046 7.59379 1.42627C6.93314 1.14209 6.22583 1 5.47184 1C4.72502 1 4.0213 1.14209 3.36066 1.42627C2.70001 1.71046 2.11836 2.10615 1.6157 2.61336C1.11304 3.12058 0.71809 3.70333 0.430853 4.36162C0.143616 5.01992 0 5.72678 0 6.4822C0 7.23763 0.143616 7.94628 0.430853 8.60817C0.71809 9.27007 1.11304 9.85282 1.6157 10.3564C2.11836 10.86 2.70001 11.2539 3.36066 11.5381C4.0213 11.8223 4.72502 11.9644 5.47184 11.9644ZM4.81479 9.43914C4.72143 9.43914 4.62449 9.41935 4.52396 9.37978C4.42343 9.34021 4.34085 9.28086 4.27622 9.20172L2.44509 7.20525C2.38764 7.1333 2.34456 7.05236 2.31584 6.96243C2.28711 6.8725 2.27275 6.79156 2.27275 6.71962C2.27275 6.52537 2.33738 6.36349 2.46663 6.23399C2.59589 6.10449 2.75387 6.03974 2.94057 6.03974C3.05547 6.03974 3.156 6.06132 3.24217 6.10449C3.32834 6.14766 3.40015 6.20162 3.4576 6.26637L4.78247 7.70167L7.41068 4.05406C7.55429 3.85261 7.74459 3.75189 7.98156 3.75189C8.16108 3.75189 8.31906 3.81484 8.45549 3.94075C8.59193 4.06665 8.66015 4.22673 8.66015 4.42098C8.66015 4.47854 8.64758 4.54329 8.62245 4.61523C8.59732 4.68718 8.55962 4.75912 8.50935 4.83107L5.37489 9.18013C5.25282 9.3528 5.06612 9.43914 4.81479 9.43914Z" fill="#86889D"/>
</svg>
