<svg width="25" height="25" viewBox="0 0 25 25" fill="none" xmlns="http://www.w3.org/2000/svg">
<path fill-rule="evenodd" clip-rule="evenodd" d="M12.1817 5.21128C12.1817 4.68909 12.6051 4.26576 13.1273 4.26576H17.5397C17.9576 4.26576 18.3585 4.43179 18.654 4.72732C18.9495 5.02286 19.1156 5.42369 19.1156 5.84163V18.4486C19.1156 18.8665 18.9495 19.2674 18.654 19.5629C18.3585 19.8584 17.9576 20.0245 17.5397 20.0245H13.1273C12.6051 20.0245 12.1817 19.6011 12.1817 19.0789C12.1817 18.5567 12.6051 18.1334 13.1273 18.1334H17.2245V6.15681H13.1273C12.6051 6.15681 12.1817 5.73348 12.1817 5.21128ZM9.14935 8.16721C9.5186 7.79796 10.1173 7.79796 10.4865 8.16721L13.7959 11.4765C14.1651 11.8458 14.1651 12.4445 13.7959 12.8137L10.4865 16.123C10.1173 16.4923 9.5186 16.4923 9.14935 16.123C8.78011 15.7538 8.78011 15.1551 9.14935 14.7859L10.8446 13.0906L4.30246 13.0906C3.78026 13.0906 3.35693 12.6673 3.35693 12.1451C3.35693 11.6229 3.78026 11.1996 4.30246 11.1996L10.8446 11.1996L9.14935 9.50438C8.78011 9.13513 8.78011 8.53646 9.14935 8.16721Z" fill="#6D75F4"/>
</svg>
