<svg width="25" height="25" viewBox="0 0 25 25" fill="none" xmlns="http://www.w3.org/2000/svg">
<g clip-path="url(#clip0_6373_45292)">
<path fill-rule="evenodd" clip-rule="evenodd" d="M8.62388 7.07876C6.62185 7.07876 4.99888 8.70172 4.99888 10.7038C4.99888 12.7058 6.62185 14.3288 8.62388 14.3288C10.6259 14.3288 12.2489 12.7058 12.2489 10.7038C12.2489 8.70172 10.6259 7.07876 8.62388 7.07876ZM2.49888 10.7038C2.49888 7.32101 5.24114 4.57876 8.62388 4.57876C12.0066 4.57876 14.7489 7.32101 14.7489 10.7038C14.7489 14.0865 12.0066 16.8288 8.62388 16.8288C5.24114 16.8288 2.49888 14.0865 2.49888 10.7038Z" fill="#6D75F4"/>
<path fill-rule="evenodd" clip-rule="evenodd" d="M16.6918 4.57876L16.6956 4.57875C18.3201 4.57876 19.878 5.22407 21.0267 6.37273C22.1753 7.52139 22.8206 9.0793 22.8206 10.7038C22.8206 12.3282 22.1753 13.8861 21.0267 15.0348C19.878 16.1834 18.3201 16.8288 16.6956 16.8288C16.0053 16.8288 15.4456 16.2691 15.4456 15.5788C15.4456 14.8884 16.0053 14.3288 16.6956 14.3288C17.657 14.3288 18.5791 13.9468 19.2589 13.267C19.9387 12.5872 20.3206 11.6652 20.3206 10.7038C20.3206 9.74235 19.9387 8.82031 19.2589 8.14049C18.5795 7.46112 17.6583 7.07926 16.6975 7.07876C16.3609 7.07995 16.0259 7.12518 15.701 7.2133C15.0347 7.39401 14.3481 7.00037 14.1673 6.33408C13.9866 5.6678 14.3803 4.98117 15.0466 4.80047C15.5829 4.65499 16.1361 4.58045 16.6918 4.57876Z" fill="#6D75F4"/>
<path fill-rule="evenodd" clip-rule="evenodd" d="M8.62388 16.8288C7.50056 16.8288 6.39361 17.0987 5.39677 17.6166C4.39993 18.1344 3.54236 18.8846 2.89649 19.8037C2.49956 20.3685 1.7199 20.5046 1.15506 20.1077C0.590226 19.7108 0.454109 18.9311 0.851035 18.3663C1.72757 17.1189 2.89142 16.1009 4.24427 15.3981C5.59713 14.6953 7.09937 14.3288 8.62388 14.3288C10.1484 14.3288 11.6504 14.6953 13.0033 15.3981C14.3561 16.1009 15.52 17.1189 16.3965 18.3663C16.7934 18.9311 16.6573 19.7108 16.0925 20.1077C15.5276 20.5046 14.748 20.3685 14.351 19.8037C13.7052 18.8846 12.8476 18.1344 11.8508 17.6166C10.8539 17.0987 9.74721 16.8288 8.62388 16.8288Z" fill="#6D75F4"/>
<path fill-rule="evenodd" clip-rule="evenodd" d="M19.9233 17.6158C18.9266 17.098 17.8188 16.8281 16.6956 16.8288C16.0053 16.8288 15.4456 16.2691 15.4456 15.5788C15.4456 14.8884 16.0053 14.3288 16.6956 14.3288C18.2205 14.3278 19.7225 14.6943 21.0757 15.3972C22.4289 16.1001 23.5928 17.1187 24.4689 18.3668C24.8655 18.9319 24.729 19.7115 24.1639 20.1081C23.5989 20.5047 22.8193 20.3682 22.4227 19.8031C21.7774 18.8838 20.9201 18.1335 19.9233 17.6158Z" fill="#6D75F4"/>
</g>
<defs>
<clipPath id="clip0_6373_45292">
<rect width="24" height="16.5" fill="white" transform="translate(0.642578 4.32874)"/>
</clipPath>
</defs>
</svg>
