<svg width="36" height="36" viewBox="0 0 36 36" fill="none" xmlns="http://www.w3.org/2000/svg">
<path fill-rule="evenodd" clip-rule="evenodd" d="M18 33.9429C26.805 33.9429 33.9429 26.805 33.9429 18C33.9429 9.195 26.805 2.05714 18 2.05714C9.195 2.05714 2.05714 9.195 2.05714 18C2.05714 26.805 9.195 33.9429 18 33.9429ZM18 36C27.9411 36 36 27.9411 36 18C36 8.05888 27.9411 0 18 0C8.05888 0 0 8.05888 0 18C0 27.9411 8.05888 36 18 36Z" fill="#6D75F4"/>
<path fill-rule="evenodd" clip-rule="evenodd" d="M9.17651 18.1469C9.17651 19.1215 9.9666 19.9116 10.9412 19.9116H25.0589C26.0335 19.9116 26.8236 19.1215 26.8236 18.1469C26.8236 17.1723 26.0335 16.3822 25.0589 16.3822H10.9412C9.9666 16.3822 9.17651 17.1723 9.17651 18.1469Z" fill="#6D75F4"/>
<path fill-rule="evenodd" clip-rule="evenodd" d="M17.8224 9.17651C16.8478 9.17651 16.0577 9.9666 16.0577 10.9412V25.0589C16.0577 26.0335 16.8478 26.8236 17.8224 26.8236C18.797 26.8236 19.5871 26.0335 19.5871 25.0589V10.9412C19.5871 9.9666 18.797 9.17651 17.8224 9.17651Z" fill="#6D75F4"/>
<path fill-rule="evenodd" clip-rule="evenodd" d="M8 18.1664C8 19.271 8.89543 20.1664 10 20.1664H26C27.1046 20.1664 28 19.271 28 18.1664C28 17.0618 27.1046 16.1664 26 16.1664H10C8.89543 16.1664 8 17.0618 8 18.1664Z" fill="#6D75F4"/>
<path fill-rule="evenodd" clip-rule="evenodd" d="M17.7987 8C16.6941 8 15.7987 8.89543 15.7987 10V26C15.7987 27.1046 16.6941 28 17.7987 28C18.9033 28 19.7987 27.1046 19.7987 26V10C19.7987 8.89543 18.9033 8 17.7987 8Z" fill="#6D75F4"/>
</svg>
