<svg width="26" height="20" viewBox="0 0 26 20" fill="none" xmlns="http://www.w3.org/2000/svg">
<g clip-path="url(#clip0_8577_209109)">
<path d="M3.51385 20H22.4861C23.6574 20 24.5359 19.7162 25.1215 19.1485C25.7072 18.5809 26 17.7336 26 16.6066V3.41827C26 2.28299 25.7072 1.42946 25.1215 0.857675C24.5359 0.285889 23.6574 0 22.4861 0H3.51385C2.35099 0 1.47464 0.287961 0.884784 0.863891C0.294925 1.43982 0 2.29127 0 3.41827V16.6066C0 17.7336 0.292819 18.5809 0.878464 19.1485C1.46411 19.7162 2.34256 20 3.51385 20ZM3.53913 18.1106C3.00826 18.1106 2.60379 17.976 2.32572 17.7066C2.04764 17.4373 1.9086 17.0334 1.9086 16.4947V3.51771C1.9086 2.98736 2.04764 2.58131 2.32572 2.29956C2.60379 2.01782 3.00826 1.87694 3.53913 1.87694H22.4735C22.996 1.87694 23.3962 2.01782 23.6743 2.29956C23.9524 2.58131 24.0914 2.98736 24.0914 3.51771V16.4947C24.0914 17.0168 23.9524 17.4166 23.6743 17.6942C23.3962 17.9718 22.996 18.1106 22.4735 18.1106H3.53913ZM24.7992 16.0099L18.2897 9.98135C18.0454 9.7659 17.7799 9.60224 17.4934 9.49037C17.2069 9.3785 16.9162 9.32256 16.6213 9.32256C16.3264 9.32256 16.0441 9.37642 15.7744 9.48415C15.5048 9.59188 15.2393 9.75347 14.9781 9.96892L10.0233 14.3319L8.00097 12.5171C7.77346 12.3099 7.5333 12.1545 7.28051 12.051C7.02771 11.9474 6.76649 11.8956 6.49684 11.8956C6.2609 11.8956 6.02706 11.9474 5.79533 12.051C5.5636 12.1545 5.32977 12.3099 5.09383 12.5171L0.935343 16.2213C0.969049 17.1908 1.19024 17.9221 1.59893 18.4152C2.00762 18.9082 2.62485 19.1548 3.45066 19.1548H21.8289C22.8148 19.1548 23.5563 18.8875 24.0535 18.353C24.5506 17.8185 24.7992 17.0375 24.7992 16.0099ZM8.22849 10.1057C8.93632 10.1057 9.54513 9.85498 10.0549 9.35363C10.5647 8.85229 10.8196 8.24943 10.8196 7.54506C10.8196 7.081 10.7017 6.65631 10.4657 6.27098C10.2298 5.88564 9.9159 5.57904 9.52406 5.35115C9.13223 5.12326 8.70037 5.00932 8.22849 5.00932C7.7566 5.00932 7.32475 5.12326 6.93291 5.35115C6.54108 5.57904 6.2293 5.88564 5.99757 6.27098C5.76584 6.65631 5.64998 7.081 5.64998 7.54506C5.64998 8.0174 5.76584 8.44624 5.99757 8.83157C6.2293 9.21691 6.54108 9.52558 6.93291 9.75761C7.32475 9.98964 7.7566 10.1057 8.22849 10.1057Z" fill="#6D75F4"/>
</g>
<defs>
<clipPath id="clip0_8577_209109">
<rect width="26" height="20" fill="white"/>
</clipPath>
</defs>
</svg>
