<svg width="41" height="41" viewBox="0 0 41 41" fill="none" xmlns="http://www.w3.org/2000/svg">
<g clip-path="url(#clip0_6248_45287)">
<circle cx="20.1277" cy="20.7615" r="19.9175" fill="#0F61FF"/>
<path d="M29.9893 27.4371C29.8674 25.2785 28.6966 23.3516 26.5014 21.7174C25.8063 21.2052 24.6843 20.4735 23.1476 19.8393L29.2942 13.6684V12.8025C29.2942 12.461 29.0015 12.1683 28.66 12.1683H17.2206V6.99744L11.9888 8.09503V9.5219H12.6595C12.8546 9.5219 13.3059 9.59508 13.3059 10.1683V12.1439H10.3424C10.0497 12.1439 9.79358 12.4 9.79358 12.6927V14.644H13.3181V22.4979C13.3181 23.937 13.8059 25.1809 14.6962 25.998C15.5986 26.8273 16.8792 27.2054 18.367 27.0834C19.0012 27.0346 19.6353 26.8029 20.2573 26.4005C20.5988 26.1688 20.8061 25.8029 20.8061 25.4004V23.7906L20.1476 24.2297C19.3426 24.7663 18.6475 24.7541 18.6475 24.7541H18.6231C18.2694 24.7541 17.9889 24.6443 17.7694 24.4248C17.2328 23.876 17.2328 22.8394 17.2328 22.8272V14.644H24.3184L18.7695 20.2295V20.4003C18.7573 21.0344 18.7451 21.5589 18.7451 21.7662C18.7451 21.8272 18.7451 21.8637 18.7451 21.8759C18.7451 22.1198 18.9158 22.315 19.1597 22.3394C24.7696 23.2906 25.9404 26.9005 25.9404 27.5712V27.62C25.9404 27.6444 26.1721 29.7664 24.9526 31.2421C24.2452 32.0836 23.1842 32.5714 21.8061 32.6568C21.7939 32.6568 20.9768 32.6933 20.111 32.5592C19.3061 32.4372 18.7207 32.2299 18.4158 31.9494C18.9524 31.5714 19.2573 30.9982 19.2573 30.3274C19.2573 28.9615 18.3426 28.0834 16.9401 28.0834C15.6718 28.0834 14.6352 29.0835 14.623 30.303C14.6108 30.5225 14.5498 31.864 15.6352 33.0592C16.7816 34.3275 18.7573 34.9617 21.5013 34.9617C21.5988 34.9617 21.7086 34.9617 21.8061 34.9617C24.6111 34.9129 26.7575 34.0958 28.1844 32.5348C30.1601 30.3884 30.0015 27.6078 29.9893 27.4371Z" fill="#F5F5F5"/>
</g>
<defs>
<clipPath id="clip0_6248_45287">
<rect width="40" height="40" fill="white" transform="translate(0.210205 0.843994)"/>
</clipPath>
</defs>
</svg>
