<svg width="18" height="10" viewBox="0 0 18 10" fill="none" xmlns="http://www.w3.org/2000/svg">
<g clip-path="url(#clip0_7702_134383)">
<path d="M9 0C8.81921 0.0109835 8.64972 0.0494232 8.49153 0.115321C8.33333 0.181219 8.18644 0.280065 8.05085 0.411861L0.355932 7.90774C0.118643 8.13839 0 8.42394 0 8.76442C0 9.11587 0.121468 9.40966 0.364407 9.6458C0.607346 9.88193 0.903953 10 1.25424 10C1.59322 10 1.8983 9.8737 2.16949 9.62109L9 2.9654L15.8305 9.62109C16.0904 9.8737 16.3898 10 16.7288 10C17.0904 10 17.3927 9.88193 17.6356 9.6458C17.8785 9.40966 18 9.11587 18 8.76442C18 8.42394 17.8757 8.13839 17.6271 7.90774L9.9322 0.411861C9.79661 0.269082 9.64972 0.164744 9.49153 0.0988464C9.33333 0.0329485 9.16949 0 9 0Z" fill="#6D75F4"/>
</g>
<defs>
<clipPath id="clip0_7702_134383">
<rect width="18" height="10" fill="white"/>
</clipPath>
</defs>
</svg>
