<svg width="27" height="22" viewBox="0 0 27 22" fill="none" xmlns="http://www.w3.org/2000/svg">
<g clip-path="url(#clip0_8446_224108)">
<path d="M4.17373 8.34059C6.48837 8.34059 8.35978 6.47348 8.35978 4.16415C8.35978 1.86711 6.48837 0 4.17373 0C1.87141 0 0 1.86711 0 4.16415C0 6.47348 1.87141 8.34059 4.17373 8.34059ZM22.814 8.34059C25.1286 8.34059 27 6.47348 27 4.16415C27 1.86711 25.1286 0 22.814 0C20.5116 0 18.6402 1.86711 18.6402 4.16415C18.6402 6.47348 20.5116 8.34059 22.814 8.34059ZM10.3912 5.3311C10.9699 5.3311 11.4501 4.83975 11.4501 4.25014C11.4501 3.68509 10.9699 3.20603 10.3912 3.20603C9.80027 3.20603 9.32011 3.68509 9.32011 4.25014C9.32011 4.85204 9.80027 5.3311 10.3912 5.3311ZM13.4815 5.3311C14.0602 5.3311 14.5527 4.83975 14.5527 4.25014C14.5527 3.68509 14.0602 3.20603 13.4815 3.20603C12.9029 3.20603 12.4104 3.68509 12.4104 4.25014C12.4104 4.83975 12.9029 5.3311 13.4815 5.3311ZM16.5964 5.3311C17.1874 5.3311 17.6676 4.85204 17.6676 4.25014C17.6676 3.68509 17.1874 3.20603 16.5964 3.20603C16.0178 3.20603 15.5376 3.68509 15.5376 4.25014C15.5376 4.83975 16.0178 5.3311 16.5964 5.3311ZM19.6129 10.8956C20.2038 10.8956 20.684 10.4042 20.684 9.81463C20.684 9.24958 20.2038 8.75824 19.6129 8.75824C19.0342 8.75824 18.554 9.24958 18.554 9.81463C18.554 10.4042 19.0342 10.8956 19.6129 10.8956ZM7.37483 10.8956C7.95349 10.8956 8.43365 10.4042 8.43365 9.81463C8.43365 9.24958 7.95349 8.75824 7.37483 8.75824C6.78386 8.75824 6.30369 9.24958 6.30369 9.81463C6.30369 10.4042 6.78386 10.8956 7.37483 10.8956ZM17.2859 13.4506C17.8769 13.4506 18.357 12.9592 18.357 12.3696C18.357 11.8046 17.8769 11.3255 17.2859 11.3255C16.7073 11.3255 16.2271 11.8046 16.2271 12.3696C16.2271 12.9715 16.7073 13.4506 17.2859 13.4506ZM9.70178 13.4506C10.2804 13.4506 10.7606 12.9592 10.7606 12.3696C10.7606 11.8046 10.2804 11.3255 9.70178 11.3255C9.11081 11.3255 8.63064 11.8046 8.63064 12.3696C8.63064 12.9715 9.11081 13.4506 9.70178 13.4506ZM13.4938 22C15.8085 22 17.6799 20.1329 17.6799 17.8236C17.6799 15.5265 15.8085 13.6594 13.4938 13.6594C11.1915 13.6594 9.32011 15.5265 9.32011 17.8236C9.32011 20.1329 11.1915 22 13.4938 22Z" fill="#6D75F4"/>
</g>
<defs>
<clipPath id="clip0_8446_224108">
<rect width="27" height="22" fill="white"/>
</clipPath>
</defs>
</svg>
