<svg width="26" height="20" viewBox="0 0 26 20" fill="none" xmlns="http://www.w3.org/2000/svg">
<g clip-path="url(#clip0_7795_142811)">
<path d="M25.08 0.9C24.46 0.3 23.54 0 22.31 0H3.34C2.28 0 1.46 0.3 0.88 0.9C0.3 1.5 0 2.4 0 3.59V16.4C0 17.6 0.31 18.5 0.92 19.1C1.54 19.7 2.46 20 3.69 20H22.65C23.71 20 24.53 19.7 25.12 19.1C25.7 18.5 26 17.6 26 16.4V3.59C26 2.4 25.69 1.5 25.08 0.9ZM24.2 3.6V16.41C24.2 16.41 24.2 16.5 24.2 16.55L17.49 10.01L24.21 3.5C24.21 3.5 24.21 3.56 24.21 3.59L24.2 3.6ZM3.63 1.78H22.38C22.74 1.78 23.05 1.85 23.31 1.97L14.45 10.59C14.19 10.84 13.95 11.02 13.71 11.14C13.48 11.26 13.25 11.31 13.02 11.31C12.79 11.31 12.55 11.25 12.32 11.13C12.09 11.01 11.85 10.83 11.6 10.59L2.72 1.95C2.97 1.84 3.27 1.78 3.62 1.78H3.63ZM1.82 16.6C1.82 16.54 1.81 16.48 1.81 16.41V3.59C1.81 3.59 1.81 3.52 1.81 3.48L8.57 10.02L1.82 16.6ZM22.38 18.23H3.63C3.3 18.23 3.02 18.18 2.77 18.08L9.81 11.22L10.58 11.96C10.99 12.36 11.39 12.65 11.8 12.83C12.2 13.01 12.61 13.1 13.03 13.1C13.45 13.1 13.85 13.01 14.25 12.83C14.65 12.65 15.06 12.36 15.47 11.96L16.24 11.22L23.26 18.06C23.01 18.17 22.72 18.23 22.37 18.23H22.38Z" fill="#353535"/>
<path d="M24.2 3.60003V16.41C24.2 16.41 24.2 16.5 24.2 16.55L17.49 10.01L24.21 3.50003C24.21 3.50003 24.21 3.56003 24.21 3.59003L24.2 3.60003ZM3.63 1.78003H22.38C22.74 1.78003 23.05 1.85003 23.31 1.97003L14.45 10.59C14.19 10.84 13.95 11.02 13.71 11.14C13.48 11.26 13.25 11.31 13.02 11.31C12.79 11.31 12.55 11.25 12.32 11.13C12.09 11.01 11.85 10.83 11.6 10.59L2.72 1.95003C2.97 1.84003 3.27 1.78003 3.62 1.78003H3.63ZM1.82 16.6C1.82 16.54 1.81 16.48 1.81 16.41V3.59003C1.81 3.59003 1.81 3.52003 1.81 3.48003L8.57 10.02L1.82 16.6ZM22.38 18.23H3.63C3.3 18.23 3.02 18.18 2.77 18.08L9.81 11.22L10.58 11.96C10.99 12.36 11.39 12.65 11.8 12.83C12.2 13.01 12.61 13.1 13.03 13.1C13.45 13.1 13.85 13.01 14.25 12.83C14.65 12.65 15.06 12.36 15.47 11.96L16.24 11.22L23.26 18.06C23.01 18.17 22.72 18.23 22.37 18.23H22.38Z" fill="#EFEFEF"/>
</g>
<defs>
<clipPath id="clip0_7795_142811">
<rect width="26" height="20" fill="white"/>
</clipPath>
</defs>
</svg>
