<svg width="30" height="30" viewBox="0 0 30 30" fill="none" xmlns="http://www.w3.org/2000/svg">
<path d="M27.08 5.9C26.46 5.3 25.54 5 24.31 5H5.34C4.28 5 3.46 5.3 2.88 5.9C2.3 6.5 2 7.4 2 8.59V21.4C2 22.6 2.31 23.5 2.92 24.1C3.54 24.7 4.46 25 5.69 25H24.65C25.71 25 26.53 24.7 27.12 24.1C27.7 23.5 28 22.6 28 21.4V8.59C28 7.4 27.69 6.5 27.08 5.9ZM26.2 8.6V21.41C26.2 21.41 26.2 21.5 26.2 21.55L19.49 15.01L26.21 8.5C26.21 8.5 26.21 8.56 26.21 8.59L26.2 8.6ZM5.63 6.78H24.38C24.74 6.78 25.05 6.85 25.31 6.97L16.45 15.59C16.19 15.84 15.95 16.02 15.71 16.14C15.48 16.26 15.25 16.31 15.02 16.31C14.79 16.31 14.55 16.25 14.32 16.13C14.09 16.01 13.85 15.83 13.6 15.59L4.72 6.95C4.97 6.84 5.27 6.78 5.62 6.78H5.63ZM3.82 21.6C3.82 21.54 3.81 21.48 3.81 21.41V8.59C3.81 8.59 3.81 8.52 3.81 8.48L10.57 15.02L3.82 21.6ZM24.38 23.23H5.63C5.3 23.23 5.02 23.18 4.77 23.08L11.81 16.22L12.58 16.96C12.99 17.36 13.39 17.65 13.8 17.83C14.2 18.01 14.61 18.1 15.03 18.1C15.45 18.1 15.85 18.01 16.25 17.83C16.65 17.65 17.06 17.36 17.47 16.96L18.24 16.22L25.26 23.06C25.01 23.17 24.72 23.23 24.37 23.23H24.38Z" fill="#353535"/>
<path d="M26.2 8.60003V21.41C26.2 21.41 26.2 21.5 26.2 21.55L19.49 15.01L26.21 8.50003C26.21 8.50003 26.21 8.56003 26.21 8.59003L26.2 8.60003ZM5.63 6.78003H24.38C24.74 6.78003 25.05 6.85003 25.31 6.97003L16.45 15.59C16.19 15.84 15.95 16.02 15.71 16.14C15.48 16.26 15.25 16.31 15.02 16.31C14.79 16.31 14.55 16.25 14.32 16.13C14.09 16.01 13.85 15.83 13.6 15.59L4.72 6.95003C4.97 6.84003 5.27 6.78003 5.62 6.78003H5.63ZM3.82 21.6C3.82 21.54 3.81 21.48 3.81 21.41V8.59003C3.81 8.59003 3.81 8.52003 3.81 8.48003L10.57 15.02L3.82 21.6ZM24.38 23.23H5.63C5.3 23.23 5.02 23.18 4.77 23.08L11.81 16.22L12.58 16.96C12.99 17.36 13.39 17.65 13.8 17.83C14.2 18.01 14.61 18.1 15.03 18.1C15.45 18.1 15.85 18.01 16.25 17.83C16.65 17.65 17.06 17.36 17.47 16.96L18.24 16.22L25.26 23.06C25.01 23.17 24.72 23.23 24.37 23.23H24.38Z" fill="#EFEFEF"/>
</svg>
