<svg width="24" height="25" viewBox="0 0 24 25" fill="none" xmlns="http://www.w3.org/2000/svg">
<g clip-path="url(#clip0_6248_61785)">
<path fill-rule="evenodd" clip-rule="evenodd" d="M4.96691 4.21749C3.18288 5.11716 2.44898 6.17397 2.44898 7.06604C2.44898 7.9581 3.18288 9.01492 4.96691 9.91459C6.70464 10.7909 9.18893 11.3679 12 11.3679C14.8111 11.3679 17.2954 10.7909 19.0331 9.91459C20.8171 9.01492 21.551 7.9581 21.551 7.06604C21.551 6.17397 20.8171 5.11716 19.0331 4.21749C17.2954 3.34117 14.8111 2.76415 12 2.76415C9.18893 2.76415 6.70464 3.34117 4.96691 4.21749ZM21.551 11.0953C21.134 11.3931 20.681 11.6627 20.2058 11.9023C18.0435 12.9927 15.1401 13.6321 12 13.6321C8.85992 13.6321 5.95646 12.9927 3.79421 11.9023C3.31905 11.6627 2.86595 11.3931 2.44898 11.0953V12.5C2.44898 13.3914 3.1828 14.4483 4.96702 15.3481C6.70481 16.2246 9.1891 16.8019 12 16.8019C14.8109 16.8019 17.2952 16.2246 19.033 15.3481C20.8172 14.4483 21.551 13.3914 21.551 12.5V11.0953ZM21.551 16.5287C21.134 16.8266 20.6809 17.0961 20.2058 17.3358C18.0436 18.4263 15.1401 19.066 12 19.066C8.85988 19.066 5.95642 18.4263 3.7942 17.3358C3.31905 17.0961 2.86596 16.8266 2.44898 16.5287V17.934C2.44898 18.8254 3.1828 19.8822 4.96702 20.7821C6.70481 21.6586 9.1891 22.2358 12 22.2358C14.8109 22.2358 17.2952 21.6586 19.033 20.7821C20.8172 19.8822 21.551 18.8254 21.551 17.934V16.5287ZM0 7.06604C0 4.95701 1.67828 3.29684 3.79421 2.2298C5.95646 1.13941 8.85992 0.5 12 0.5C15.1401 0.5 18.0435 1.13941 20.2058 2.2298C22.3217 3.29684 24 4.95701 24 7.06604V17.934C24 20.0425 22.3216 21.7027 20.2058 22.7698C18.0436 23.8603 15.1401 24.5 12 24.5C8.85988 24.5 5.95642 23.8603 3.7942 22.7698C1.67843 21.7027 0 20.0425 0 17.934V7.06604Z" fill="#9298FF"/>
</g>
<defs>
<clipPath id="clip0_6248_61785">
<rect width="24" height="24" fill="white" transform="translate(0 0.5)"/>
</clipPath>
</defs>
</svg>
