<svg width="26" height="26" viewBox="0 0 26 26" fill="none" xmlns="http://www.w3.org/2000/svg">
<path d="M22.5329 7.80032C22.5329 10.672 18.2649 13 13.0001 13C7.73536 13 3.46741 10.672 3.46741 7.80032M22.5329 7.80032C22.5329 4.92862 18.2649 2.60065 13.0001 2.60065C7.73536 2.60065 3.46741 4.92862 3.46741 7.80032M22.5329 7.80032V13M3.46741 7.80032V13M3.46741 13C3.46741 15.8707 7.73548 18.1997 13.0001 18.1997C18.2648 18.1997 22.5329 15.8707 22.5329 13M3.46741 13V18.1997C3.46741 21.0703 7.73548 23.3994 13.0001 23.3994C18.2648 23.3994 22.5329 21.0703 22.5329 18.1997V13" stroke="#9298FF" stroke-width="2.59984" stroke-linecap="round" stroke-linejoin="round"/>
</svg>
