<svg width="21" height="21" viewBox="0 0 21 21" fill="none" xmlns="http://www.w3.org/2000/svg">
<path fill-rule="evenodd" clip-rule="evenodd" d="M16.9954 14.0355V3.43542C16.9954 2.33085 17.8908 1.43542 18.9954 1.43542C20.1 1.43542 20.9954 2.33085 20.9954 3.43542V18.8494C20.9958 18.9006 20.9942 18.9518 20.9906 19.0029C20.9768 19.2045 20.9331 19.3978 20.8639 19.5786C20.7666 19.8336 20.6151 20.0727 20.4096 20.2782C20.2172 20.4706 19.9953 20.6156 19.7585 20.7132C19.5233 20.8104 19.2656 20.864 18.9954 20.864H3.56681C2.46224 20.864 1.56681 19.9686 1.56681 18.864C1.56681 17.7594 2.46224 16.864 3.56681 16.864L14.167 16.864L1.2955 3.99247C0.514454 3.21142 0.514455 1.94509 1.2955 1.16404C2.07655 0.382992 3.34288 0.382992 4.12393 1.16404L16.9954 14.0355Z" fill="#6D75F4"/>
</svg>
