<svg width="22" height="16" viewBox="0 0 22 16" fill="none" xmlns="http://www.w3.org/2000/svg">
<path fill-rule="evenodd" clip-rule="evenodd" d="M0 1.45455C0 0.651222 0.679292 0 1.51724 0H20.4828C21.3207 0 22 0.651222 22 1.45455C22 2.25787 21.3207 2.90909 20.4828 2.90909H1.51724C0.679292 2.90909 0 2.25787 0 1.45455Z" fill="#A2A4BA"/>
<path fill-rule="evenodd" clip-rule="evenodd" d="M0 8C0 7.19668 0.679292 6.54545 1.51724 6.54545H20.4828C21.3207 6.54545 22 7.19668 22 8C22 8.80332 21.3207 9.45455 20.4828 9.45455H1.51724C0.679292 9.45455 0 8.80332 0 8Z" fill="#A2A4BA"/>
<path fill-rule="evenodd" clip-rule="evenodd" d="M0 14.5455C0 13.7421 0.679292 13.0909 1.51724 13.0909H20.4828C21.3207 13.0909 22 13.7421 22 14.5455C22 15.3488 21.3207 16 20.4828 16H1.51724C0.679292 16 0 15.3488 0 14.5455Z" fill="#A2A4BA"/>
</svg>
