<svg width="26" height="26" viewBox="0 0 26 26" fill="none" xmlns="http://www.w3.org/2000/svg">
<path fill-rule="evenodd" clip-rule="evenodd" d="M4.37166 5.78108H10.508C11.1858 5.78108 11.7353 5.23161 11.7353 4.55381C11.7353 3.87601 11.1858 3.32654 10.508 3.32654H3.96257C3.42008 3.32654 2.89981 3.54204 2.51621 3.92564C2.13262 4.30923 1.91711 4.8295 1.91711 5.37199V21.4629C1.91711 22.0054 2.13262 22.5257 2.51621 22.9093C2.89981 23.2929 3.42008 23.5084 3.96257 23.5084H20.0535C20.596 23.5084 21.1162 23.2929 21.4998 22.9093C21.8834 22.5257 22.0989 22.0054 22.0989 21.4629V14.9174C22.0989 14.2396 21.5495 13.6902 20.8717 13.6902C20.1939 13.6902 19.6444 14.2396 19.6444 14.9174V21.0538H4.37166V5.78108Z" fill="#A2A4BA"/>
<path fill-rule="evenodd" clip-rule="evenodd" d="M18.5787 1.29871C19.2133 0.664103 20.2422 0.664103 20.8768 1.29871L24.4879 4.90982C25.1225 5.54442 25.1225 6.57331 24.4879 7.20791L20.8768 10.819C20.2422 11.4536 19.2133 11.4536 18.5787 10.819C17.9441 10.1844 17.9441 9.15553 18.5787 8.52093L21.0407 6.05887L18.5787 3.5968C17.9441 2.9622 17.9441 1.93331 18.5787 1.29871Z" fill="#A2A4BA"/>
<path fill-rule="evenodd" clip-rule="evenodd" d="M17.1999 7.27771C15.6077 7.27771 14.0807 7.91022 12.9548 9.03609C11.829 10.162 11.1965 11.689 11.1965 13.2812C11.1965 13.9543 10.6508 14.4999 9.97772 14.4999C9.30463 14.4999 8.75897 13.9543 8.75897 13.2812C8.75897 11.0425 9.64829 8.8955 11.2313 7.31251C12.8143 5.72952 14.9613 4.84021 17.1999 4.84021H22.2555C22.9286 4.84021 23.4742 5.38586 23.4742 6.05896C23.4742 6.73206 22.9286 7.27771 22.2555 7.27771H17.1999Z" fill="#A2A4BA"/>
</svg>
