<svg width="33" height="33" viewBox="0 0 33 33" fill="none" xmlns="http://www.w3.org/2000/svg">
<g clip-path="url(#clip0_6910_108585)">
<path d="M8.83547 28.1599C8.2042 28.4843 7.48941 27.9173 7.6165 27.1929L8.9719 19.467L3.218 13.9838C2.68026 13.4714 2.95862 12.5344 3.679 12.4321L11.6809 11.2953L15.2488 4.22772C15.5702 3.59106 16.4408 3.59106 16.7622 4.22772L20.3301 11.2953L28.332 12.4321C29.0523 12.5344 29.3307 13.4714 28.793 13.9838L23.0391 19.467L24.3945 27.1929C24.5216 27.9173 23.8068 28.4843 23.1755 28.1599L16.0055 24.4747L8.83547 28.1599Z" fill="#656DE6" fill-opacity="0.75"/>
<path fill-rule="evenodd" clip-rule="evenodd" d="M16.0055 6.18046L12.7037 12.7212L5.25789 13.7789L10.648 18.9155L9.38234 26.1299L16.0055 22.7257L22.6288 26.1299L21.3631 18.9155L26.7532 13.7789L19.3074 12.7212L16.0055 6.18046ZM13.8602 3.52672C14.7568 1.7507 17.2543 1.7507 18.1509 3.52672L21.3528 9.86948L28.5508 10.892C30.6578 11.1913 31.271 13.7711 29.8662 15.1099L24.7152 20.0186L25.9267 26.9241C26.2468 28.7488 24.3859 30.531 22.4645 29.5434L16.0055 26.2236L9.54661 29.5434C7.62515 30.531 5.76432 28.7488 6.08444 26.9241L7.29593 20.0186L2.14495 15.1099C0.74008 13.7711 1.35328 11.1913 3.46029 10.892L10.6583 9.86948L13.8602 3.52672Z" fill="#6D75F4"/>
</g>
<defs>
<clipPath id="clip0_6910_108585">
<rect width="29.8706" height="28.0037" fill="white" transform="translate(1.07019 2)"/>
</clipPath>
</defs>
</svg>
