<svg width="33" height="33" viewBox="0 0 33 33" fill="none" xmlns="http://www.w3.org/2000/svg">
<path fill-rule="evenodd" clip-rule="evenodd" d="M26.875 3.04526C27.3007 2.92247 27.7516 2.91558 28.1809 3.02541C28.6132 3.136 29.0078 3.36085 29.3234 3.67639C29.6389 3.99193 29.8638 4.38654 29.9744 4.81886C30.0842 5.24817 30.0773 5.69898 29.9545 6.12466L23.3948 29.4147C23.2586 29.9079 22.9742 30.3474 22.5801 30.6739C22.1843 31.0019 21.6969 31.1998 21.1845 31.2408C20.6721 31.2818 20.1595 31.1639 19.7166 30.903C19.2777 30.6446 18.9283 30.2583 18.7151 29.796L13.7332 19.2665L3.20385 14.2848C2.74153 14.0715 2.35523 13.7221 2.09676 13.2832C1.83591 12.8403 1.71795 12.3277 1.75894 11.8153C1.79993 11.3028 1.99789 10.8155 2.32585 10.4197C2.65232 10.0256 3.0918 9.74128 3.58492 9.60498L26.875 3.04526ZM27.2873 4.48752L27.6939 5.93121C27.6987 5.92995 27.7035 5.92861 27.7083 5.92721L27.2873 4.48752ZM26.8232 6.17659L5.67225 12.1338L15.1746 16.6296C15.7011 16.8755 16.1243 17.2987 16.3701 17.8252L20.866 27.3275L26.8232 6.17659ZM4.45784 11.5594C4.46018 11.5605 4.4625 11.5616 4.46482 11.5627L4.45784 11.5594Z" fill="#6D75F4"/>
<path fill-rule="evenodd" clip-rule="evenodd" d="M21.573 11.4268C22.1588 12.0126 22.1588 12.9624 21.573 13.5481L15.923 19.1981C15.3372 19.7839 14.3874 19.7839 13.8016 19.1981C13.2159 18.6124 13.2159 17.6626 13.8016 17.0768L19.4516 11.4268C20.0374 10.841 20.9872 10.841 21.573 11.4268Z" fill="#6D75F4"/>
</svg>
