<svg width="22" height="22" viewBox="0 0 22 22" fill="none" xmlns="http://www.w3.org/2000/svg">
<path fill-rule="evenodd" clip-rule="evenodd" d="M11 22C12.0979 22 12.988 21.1487 12.988 20.0985V1.90147C12.988 0.851318 12.0979 0 11 0C9.90204 0 9.01197 0.851318 9.01197 1.90147V20.0985C9.01197 21.1487 9.90204 22 11 22Z" fill="#6D75F4"/>
<path fill-rule="evenodd" clip-rule="evenodd" d="M9.59426 21.4431C10.3706 22.1856 11.6294 22.1856 12.4057 21.4431L21.4177 12.8234C22.1941 12.0808 22.1941 10.8769 21.4177 10.1343C20.6414 9.39176 19.3826 9.39176 18.6062 10.1343L11 17.4094L3.39375 10.1343C2.61739 9.39176 1.35864 9.39176 0.582276 10.1343C-0.194092 10.8769 -0.194092 12.0808 0.582276 12.8234L9.59426 21.4431Z" fill="#6D75F4"/>
</svg>
