<svg width="22" height="22" viewBox="0 0 22 22" fill="none" xmlns="http://www.w3.org/2000/svg">
<g clip-path="url(#clip0_7698_139887)">
<path d="M11 22C10.0644 22 9.41237 21.3506 9.41237 20.419L9.53995 4.72902L2.6366 12.0131C2.35309 12.2955 1.95619 12.479 1.50258 12.479C0.637887 12.479 0 11.8296 0 10.9403C0 10.5309 0.155928 10.1498 0.496134 9.81097L9.82345 0.494078C10.1353 0.169397 10.5606 -1.90735e-06 11 -1.90735e-06C11.4253 -1.90735e-06 11.8505 0.169397 12.1624 0.494078L21.5039 9.81097C21.8441 10.1498 22 10.5309 22 10.9403C22 11.8296 21.3479 12.479 20.4832 12.479C20.0438 12.479 19.6469 12.2955 19.3634 12.0131L12.4601 4.74314L12.5735 20.419C12.5735 21.3506 11.9214 22 11 22Z" fill="#6D75F4"/>
</g>
<defs>
<clipPath id="clip0_7698_139887">
<rect width="22" height="22" fill="white"/>
</clipPath>
</defs>
</svg>
