<svg width="34" height="34" viewBox="0 0 34 34" fill="none" xmlns="http://www.w3.org/2000/svg">
<path fill-rule="evenodd" clip-rule="evenodd" d="M17 32.0571C25.3158 32.0571 32.0571 25.3158 32.0571 17C32.0571 8.68417 25.3158 1.94286 17 1.94286C8.68417 1.94286 1.94286 8.68417 1.94286 17C1.94286 25.3158 8.68417 32.0571 17 32.0571ZM17 34C26.3888 34 34 26.3888 34 17C34 7.61116 26.3888 0 17 0C7.61116 0 0 7.61116 0 17C0 26.3888 7.61116 34 17 34Z" fill="#6D75F4"/>
<g clip-path="url(#clip0_6805_78543)">
<path fill-rule="evenodd" clip-rule="evenodd" d="M9.21021 17.438C9.21021 18.5426 10.1056 19.438 11.2102 19.438H23.7102C24.8148 19.438 25.7102 18.5426 25.7102 17.438C25.7102 16.3334 24.8148 15.438 23.7102 15.438H11.2102C10.1056 15.438 9.21021 16.3334 9.21021 17.438Z" fill="#6D75F4"/>
</g>
<defs>
<clipPath id="clip0_6805_78543">
<rect width="24" height="24" fill="white" transform="translate(5 5.25)"/>
</clipPath>
</defs>
</svg>
