<svg width="24" height="24" viewBox="0 0 24 24" fill="none" xmlns="http://www.w3.org/2000/svg">
<path fill-rule="evenodd" clip-rule="evenodd" d="M9.61732 2.06923C9.99099 1.92852 10.4211 2.00629 10.7071 2.26629L20.7071 11.3572C21.0976 11.7122 21.0976 12.2878 20.7071 12.6428L10.7071 21.7337C10.4211 21.9937 9.99099 22.0715 9.61732 21.9308C9.24364 21.7901 9 21.4586 9 21.0909V17.4545H4.83333C4.3471 17.4545 3.88079 17.2789 3.53697 16.9664C3.19315 16.6538 3 16.2299 3 15.7879V8.21213C3 7.7701 3.19315 7.34618 3.53697 7.03362C3.88079 6.72106 4.3471 6.54547 4.83333 6.54547H9V2.90912C9 2.54142 9.24364 2.20994 9.61732 2.06923ZM11 5.10385V7.45456C11 7.95663 10.5523 8.36365 10 8.36365H5V15.6364H10C10.5523 15.6364 11 16.0434 11 16.5454V18.8962L18.5858 12L11 5.10385Z" fill="#6D75F4"/>
</svg>
