<svg width="30" height="31" viewBox="0 0 30 31" fill="none" xmlns="http://www.w3.org/2000/svg">
<g clip-path="url(#clip0_6248_35708)">
<g clip-path="url(#clip1_6248_35708)">
<path d="M15 30.1189C23.2843 30.1189 30 23.4031 30 15.1189C30 6.83459 23.2843 0.118866 15 0.118866C6.71573 0.118866 0 6.83459 0 15.1189C0 23.4031 6.71573 30.1189 15 30.1189Z" fill="#FF4500"/>
<path d="M25.006 15.1189C25.006 13.9017 24.0215 12.9351 22.8222 12.9351C22.2315 12.9351 21.6946 13.1678 21.3008 13.5437C19.7972 12.4697 17.7387 11.7716 15.4475 11.6821L16.4499 6.9924L19.7077 7.69049C19.7435 8.51388 20.4237 9.17617 21.265 9.17617C22.1242 9.17617 22.8222 8.47808 22.8222 7.61889C22.8222 6.7597 22.1242 6.06161 21.265 6.06161C20.6564 6.06161 20.1194 6.41961 19.8688 6.9387L16.2351 6.16901C16.1277 6.15111 16.0203 6.16901 15.9487 6.22271C15.8592 6.27641 15.8055 6.36591 15.7876 6.47331L14.6778 11.7C12.3509 11.7716 10.2566 12.4697 8.73512 13.5616C8.34133 13.1857 7.80433 12.953 7.21364 12.953C5.99646 12.953 5.02987 13.9375 5.02987 15.1368C5.02987 16.0318 5.56686 16.7836 6.31865 17.1237C6.28285 17.3385 6.26496 17.5533 6.26496 17.786C6.26496 21.1511 10.185 23.8898 15.0179 23.8898C19.8509 23.8898 23.7709 21.169 23.7709 17.786C23.7709 17.5712 23.753 17.3385 23.7172 17.1237C24.469 16.7836 25.006 16.0139 25.006 15.1189ZM10.006 16.6762C10.006 15.817 10.7041 15.1189 11.5633 15.1189C12.4225 15.1189 13.1206 15.817 13.1206 16.6762C13.1206 17.5354 12.4225 18.2335 11.5633 18.2335C10.7041 18.2514 10.006 17.5354 10.006 16.6762ZM18.7232 20.811C17.6492 21.885 15.6086 21.9566 15.0179 21.9566C14.4094 21.9566 12.3688 21.8671 11.3127 20.811C11.1516 20.6499 11.1516 20.3993 11.3127 20.2382C11.4738 20.0771 11.7244 20.0771 11.8855 20.2382C12.5657 20.9184 13.9977 21.1511 15.0179 21.1511C16.0382 21.1511 17.4881 20.9184 18.1504 20.2382C18.3115 20.0771 18.5621 20.0771 18.7232 20.2382C18.8664 20.3993 18.8664 20.6499 18.7232 20.811ZM18.4368 18.2514C17.5776 18.2514 16.8795 17.5533 16.8795 16.6941C16.8795 15.8349 17.5776 15.1368 18.4368 15.1368C19.296 15.1368 19.9941 15.8349 19.9941 16.6941C19.9941 17.5354 19.296 18.2514 18.4368 18.2514Z" fill="#F5F5F5"/>
</g>
</g>
<defs>
<clipPath id="clip0_6248_35708">
<rect width="30" height="30" fill="white" transform="translate(0 0.118866)"/>
</clipPath>
<clipPath id="clip1_6248_35708">
<rect width="30" height="30" fill="white" transform="translate(0 0.118866)"/>
</clipPath>
</defs>
</svg>
