<svg width="215" height="235" viewBox="0 0 215 235" fill="none" xmlns="http://www.w3.org/2000/svg">
<g clip-path="url(#clip0_10685_460204)">
<path d="M52.5205 66.4182C50.7748 65.0204 49.9069 63.0234 49.5977 60.9666C49.2286 58.4405 49.2086 55.8345 49.3184 53.2784C49.4381 50.5326 51.094 48.4757 52.7499 46.349C55.144 43.2837 58.4359 42.2153 61.9173 41.4465C63.3238 41.137 63.7428 40.488 63.7129 39.0901C63.6231 35.6454 63.6231 32.1907 63.7129 28.736C63.7528 27.3181 64.0221 25.8903 64.3712 24.5124C64.7503 23.0247 65.1892 21.6568 63.254 20.8381C63.7029 20.908 64.1618 20.9779 64.7004 21.0577C64.2815 17.9625 66.7055 16.5646 68.5609 14.1982C68.92 16.4947 69.4487 18.3918 69.4487 20.2889C69.4487 23.3143 69.6981 24.0931 72.4513 25.2413C80.681 28.686 89.0404 31.7613 97.9086 33.0693C100.343 33.4288 102.866 33.1991 105.35 33.2091C105.669 33.2091 106.039 33.0993 106.298 32.9196C106.647 32.66 106.787 31.7414 107.365 32.7099C107.535 32.4503 107.704 32.1907 107.884 31.9211C109.261 33.279 109.261 34.8666 109.211 36.6938C109.121 39.839 109.6 42.9941 109.69 46.1493C109.839 51.1317 109.889 56.104 109.949 61.0864C109.989 64.4812 109.949 64.4812 113.54 65.29C113.351 59.369 113.171 53.4881 112.991 47.6071C113.101 47.5971 113.221 47.5871 113.331 47.5771C113.39 48.0564 113.45 48.5356 113.51 49.0149C113.58 49.0149 113.65 49.0149 113.72 49.0049C113.311 42.8444 112.892 36.6738 112.483 30.5132C112.602 30.4933 112.722 30.4733 112.842 30.4533C113.021 31.9011 113.311 33.3589 113.38 34.8167C113.71 42.3252 114.009 49.8336 114.278 57.3421C114.338 59.1294 114.448 60.8568 115.545 62.3944C115.844 62.8138 115.775 63.4827 115.874 64.0019C115.964 63.7623 116.084 63.4827 116.114 63.4029C117.101 64.0119 118.079 65.1003 118.957 65.0204C119.904 64.9305 120.692 65.26 121.55 65.26C124.852 65.26 128.154 65.26 131.456 65.1901C132.104 65.1801 132.753 64.8307 133.391 64.611C134.658 64.1817 135.516 64.4912 136.623 64.4113C138.409 64.2815 140.164 63.6824 141.9 63.1632C142.15 63.0833 142.209 62.3445 142.319 62.025C142.758 62.2546 143.187 62.4843 143.616 62.7039C143.785 62.3345 143.935 61.9451 144.155 61.6156C144.274 61.4359 144.643 61.2062 144.693 61.2462C146.279 62.5841 147.227 60.8168 148.404 60.4174C149.292 60.1179 149.741 58.8898 151.048 59.1394C151.307 59.1893 151.756 58.2607 152.165 57.7116C152.275 57.9113 152.404 58.111 152.574 58.4005C152.813 57.7715 153.033 57.2223 153.392 56.2838C153.541 57.0126 153.611 57.3421 153.741 57.9912C153.92 57.1724 154.05 56.6232 154.26 55.6747C154.519 56.4835 154.649 56.8928 154.778 57.3122C155.447 56.0541 156.105 54.816 156.853 53.3882C157.013 53.8675 157.113 54.177 157.113 54.157C157.412 53.3583 157.99 52.3498 158.15 51.2714C158.719 47.3475 159.327 43.4235 159.577 39.4795C159.886 34.5171 159.856 29.5248 159.916 24.5424C159.916 23.7736 159.557 23.0048 159.497 22.216C159.467 21.8465 159.746 21.4571 159.896 21.0777C160.055 21.1276 160.215 21.1775 160.375 21.2175C160.424 21.6668 160.514 22.1261 160.524 22.5754C160.724 31.2022 160.335 39.809 159.537 48.3959C159.307 50.8721 159.417 53.3682 159.257 55.8544C159.088 58.5603 159.038 58.6002 156.664 58.9697C154.439 59.3091 152.584 60.3376 150.649 61.4359C148.504 62.654 146.04 63.283 143.716 64.1817C142.199 64.7708 140.673 65.3399 139.197 65.9989C135.975 67.4367 132.773 68.9244 129.162 70.5719C129.92 70.8914 130.319 71.0811 130.728 71.2109C138.698 73.9168 146.678 76.6226 154.649 79.3285C157.182 80.1871 157.332 80.287 157.083 82.883C156.973 84.1111 157.422 84.5604 158.499 84.9099C164.814 86.9767 171.108 89.1135 177.413 91.2103C180.545 92.2487 182.55 95.304 182.231 98.5191C182.061 100.187 181.961 101.864 181.902 103.531C181.852 105.199 181.892 106.866 181.892 108.703C182.261 108.733 182.859 108.783 183.448 108.833C183.468 108.903 183.478 108.983 183.498 109.053C182.909 109.173 182.32 109.303 181.732 109.422C181.732 109.552 181.732 109.672 181.722 109.802C182.46 109.842 183.218 109.962 183.946 109.892C186.839 109.602 189.732 109.243 192.615 108.923C196.316 108.504 200.007 108.084 203.708 107.675C204.935 107.535 205.294 108.154 205.234 109.313C204.985 113.656 204.795 117.999 204.576 122.373C205.374 122.303 206.281 122.223 207.189 122.143C207.209 122.233 207.229 122.333 207.239 122.422C206.87 122.502 206.511 122.592 206.112 122.682C207.449 123.161 208.775 123.471 209.952 124.08C214.212 126.247 216.536 133.705 213.833 138.727C211.389 143.261 207.05 143.939 202.91 145.267C202.162 145.507 201.493 146.016 200.795 146.396C200.865 146.535 200.935 146.665 201.004 146.805C201.244 146.765 201.483 146.725 201.713 146.685C197.274 152.486 191.428 156.7 185.722 161.243C186.011 161.463 186.171 161.702 186.351 161.712C189.204 161.952 192.096 161.922 194.88 162.461C197.204 162.91 200.286 162.281 201.403 165.307C202.361 167.883 202.99 170.559 202.122 173.394C201.423 175.671 201.054 178.037 200.406 180.334C199.927 181.991 199.189 183.499 197.643 184.567C194.5 186.744 191.189 186.724 188.136 184.407C187.498 183.918 186.7 183.649 185.991 183.259C178.859 179.375 171.727 175.481 164.594 171.597C164.225 171.397 163.846 171.228 163.228 170.928C163.068 173.115 162.868 175.092 162.809 177.079C162.799 177.428 163.267 177.897 163.627 178.137C174.659 185.496 185.702 192.845 196.755 200.173C197.343 200.563 198.012 200.912 198.7 201.072C200.875 201.571 200.845 203.269 200.117 204.886C198.6 208.241 195.628 210.218 192.914 212.435C192.515 212.764 192.007 212.974 191.578 213.273C187.388 216.159 185.163 216.129 180.954 212.934C181.542 213.123 182.131 213.303 182.999 213.583C182.65 213.104 182.48 212.804 182.251 212.554C174.46 204.047 166.659 195.54 158.858 187.033C158.15 186.265 155.457 186.504 155.008 187.443C154.868 187.722 155.028 188.252 155.227 188.561C155.417 188.861 155.806 189.05 156.145 189.23C158.439 190.438 160.175 192.036 160.484 194.832C160.544 195.361 161.193 195.95 161.711 196.269C162.928 197.008 164.225 197.597 165.751 198.376C165.203 198.835 164.873 199.215 164.465 199.434C161.143 201.242 157.821 203.029 154.479 204.786C154.15 204.956 153.512 205.016 153.292 204.826C150.569 202.38 147.247 203.249 144.125 203.089C142.788 203.019 141.431 203.109 140.115 202.919C139.516 202.839 138.987 202.26 138.429 201.911C138.838 201.272 139.117 200.303 139.696 200.063C141.252 199.405 142.938 199.055 144.883 198.486C144.115 197.657 143.227 196.898 142.598 195.96C140.863 193.394 138.728 193.723 136.284 194.732C129.032 197.727 121.75 200.663 114.448 203.548C113.191 204.047 112.612 204.756 112.562 206.064C112.473 208.231 112.293 210.388 112.143 212.704C112.283 212.704 112.064 212.704 111.734 212.724C112.503 213.543 112.712 214.192 112.163 215.36C111.705 216.349 112.213 217.786 112.323 219.454C111.625 219.044 111.186 218.775 110.627 218.445C110.857 219.054 111.086 219.663 111.485 220.692C110.867 220.133 110.557 219.863 110.029 219.384C110.158 220.103 110.238 220.532 110.328 221.081C110.029 220.912 109.799 220.782 109.4 220.562C109.65 221.111 109.839 221.511 110.138 222.16C109.63 221.95 109.36 221.84 109.241 221.79C109.241 222.439 109.191 223.148 109.251 223.837C109.4 225.415 108.872 225.574 107.724 224.636C107.625 224.556 107.455 224.566 107.325 224.536C105.42 227.501 102.078 228.57 99.5146 230.637C98.6867 231.296 97.9784 232.104 97.0806 232.973C96.9709 232.993 96.532 233.083 96.0831 233.133C95.7738 233.163 95.4646 233.093 95.1554 233.103C93.8586 233.163 92.5518 233.203 91.265 233.362C91.1253 233.382 91.0754 234.101 90.8759 234.95C89.1302 234.631 87.2848 234.211 85.4194 233.952C81.7285 233.442 78.9154 231.445 76.1722 229.059C72.4813 225.844 71.2942 221.511 69.8677 217.137C68.8303 213.932 69.8278 211.147 70.9251 208.341C71.6034 206.613 72.6109 205.016 73.4788 203.358C73.6983 202.939 73.9177 202.53 74.217 201.981C72.8603 201.381 71.6134 200.812 70.3565 200.273C58.6553 195.251 47.034 190.059 35.2131 185.336C31.9611 184.038 30.6643 181.612 29.2877 179.016C28.8089 178.117 29.0783 176.789 29.1281 175.651C29.168 174.563 29.4174 173.494 29.4972 172.406C30.1356 163.35 30.7641 154.304 31.3427 145.237C31.3925 144.519 31.0833 143.77 30.9536 143.111C31.1631 142.761 31.602 142.372 31.5921 141.992C31.5422 139.796 32.2903 137.489 31.0434 135.213C32.4898 133.765 31.602 131.638 31.6818 129.671C31.6818 129.442 31.213 129.062 30.8938 128.962C23.6217 126.716 16.3796 124.369 9.04763 122.363C6.53383 121.674 4.26941 120.965 2.47384 119.008C0.388975 116.741 -0.419034 113.666 0.149565 111.13C0.827893 108.104 1.84538 104.849 4.35919 102.433C6.55378 100.326 8.8581 98.569 11.8407 97.8601C15.9307 96.8816 19.7014 98.3194 22.1852 101.714C25.2377 105.888 28.3401 110.021 31.4225 114.175C31.5322 114.315 31.6619 114.445 31.7816 114.574C31.9412 114.564 32.1008 114.554 32.2704 114.545C32.2704 112.048 32.2704 109.552 32.2704 107.056C32.2704 106.147 32.2804 105.239 32.3402 104.33C32.5297 101.245 34.3852 99.4776 37.1384 98.539C40.8492 97.271 44.59 96.0828 48.3208 94.8647C51.503 93.8263 54.6951 92.7978 57.8773 91.7494C58.3162 91.5997 58.7351 91.37 59.4633 91.0405C57.159 88.754 56.5106 86.138 57.5181 83.1227C57.6079 83.7217 57.6977 84.3108 57.7775 84.9099C57.8972 84.9099 58.0169 84.9099 58.1366 84.9199C58.1366 82.7133 58.0867 80.4967 58.1466 78.2901C58.1965 76.4728 58.1965 74.6257 58.5356 72.8484C58.9746 70.6018 60.0718 68.2754 62.0969 67.4566C63.3338 66.9574 64.9299 66.6579 66.3663 66.2685C68.2417 65.7493 70.0772 65.1202 72.3217 64.4113C69.2392 62.4943 66.4661 60.7669 63.6929 59.0395C63.7528 58.9297 63.8126 58.8299 63.8825 58.72C66.925 60.5472 69.9675 62.3744 73.0598 64.2316C73.3192 62.9935 72.0822 61.0864 70.9949 60.4574C69.4188 59.5488 67.9325 58.4904 66.3863 57.4919C66.3564 57.6117 66.2267 58.081 66.0272 58.8399C65.1793 57.2024 64.4511 55.7845 63.7228 54.3667C63.8625 54.3667 64.0022 54.3667 64.1318 54.3667C63.8924 50.7922 63.663 47.2177 63.4236 43.6531C63.3238 43.6731 63.2341 43.6931 63.1343 43.713C63.254 43.2138 63.3637 42.7046 63.4834 42.2053C62.9647 42.1454 62.3562 41.8758 61.9273 42.0456C60.4409 42.6347 59.0743 43.7629 57.558 43.9626C55.8024 44.2023 54.8048 45.2806 53.5679 46.1892C50.9443 48.1362 48.6201 55.4351 50.0964 57.9812C49.867 54.9658 50.5154 52.2999 52.5105 49.9335C54.4457 47.637 56.75 46.1193 59.603 45.2906C55.0742 47.7868 50.9643 50.4227 50.5054 56.4136C50.0366 62.4543 53.6676 65.3798 58.2663 67.8261C57.7077 68.0591 55.972 67.1671 53.0591 65.1502C53.7873 66.1686 54.336 66.9574 55.0043 67.886C53.528 68.0757 52.8696 67.3967 52.4506 66.3384C52.7399 66.5181 53.0292 66.6978 53.4182 66.9374C52.2611 64.8806 51.1937 62.9735 50.1264 61.0664C50.0166 61.1263 49.8969 61.1863 49.7872 61.2462C50.675 62.9436 51.5628 64.6509 52.4606 66.3483L52.5205 66.4182ZM108.243 205.605C108.742 204.127 107.665 202.44 105.649 201.521C106.517 202.869 107.385 204.237 108.253 205.595C108.911 207.272 109.57 208.95 110.228 210.627C110.408 209.858 110.348 209.16 110.208 208.481C109.949 207.262 109.919 205.865 108.243 205.605ZM71.763 98.0498C71.5336 99.4277 71.1446 100.816 71.9625 102.173C72.3217 101.035 72.4813 99.877 72.5212 98.7188C72.5212 98.4991 72.0324 98.2694 71.763 98.0498C70.5161 97.5406 69.2692 97.0214 67.9624 96.4822C67.5534 100.077 67.6432 101.175 69.728 101.025V97.9699C69.8078 97.9699 69.8976 97.9699 69.9774 97.9599C70.0473 99.1581 70.1271 100.356 70.1969 101.554C70.2966 101.524 70.3864 101.504 70.4862 101.475C70.9151 100.326 71.3441 99.188 71.763 98.0398V98.0498ZM176.046 137.439C176.595 136.651 177.522 135.922 177.642 135.073C178.021 132.237 178.061 129.372 178.32 126.516C178.45 125.078 177.742 124.33 176.355 123.611C176.255 128.343 176.156 132.896 176.056 137.449C175.946 137.04 175.747 136.631 175.747 136.231C175.747 132.178 175.777 128.134 175.787 124.08C175.787 123.74 175.727 123.401 175.697 123.071L175.308 123.091V138.048C175.388 138.128 175.467 138.208 175.547 138.288C175.717 138.009 175.876 137.729 176.046 137.449V137.439ZM88.1526 106.946C88.402 105.279 88.6614 103.611 88.9108 101.954C88.7811 101.924 88.6514 101.894 88.5217 101.874C88.2225 103.252 87.9332 104.64 87.6339 106.018C87.5341 105.998 87.4244 105.988 87.3247 105.968C87.5142 104.56 87.7037 103.152 87.8933 101.754L87.4743 101.704C87.2149 102.992 86.9656 104.28 86.7062 105.568C86.5865 105.548 86.4768 105.528 86.3571 105.508L86.8558 101.604C86.7062 101.584 86.5665 101.564 86.4169 101.544C86.1775 103.042 85.9381 104.54 85.7086 106.038L85.3296 105.998C85.4892 104.48 85.6488 102.962 85.8084 101.445C85.6687 101.425 85.5291 101.405 85.3894 101.395L84.4916 105.428C84.3719 105.409 84.2622 105.389 84.1425 105.359L84.761 101.245L84.2822 101.175C84.0328 102.703 83.7235 104.23 83.5639 105.768C83.534 106.018 84.0926 106.537 84.4318 106.597C85.6488 106.806 86.8957 106.866 88.1227 106.986C89.0604 107.146 90.0081 107.256 90.9258 107.485C92.2326 107.805 92.6116 107.156 92.6914 106.008C92.7712 104.919 92.9608 103.841 93.1004 102.753C93.2301 102.773 93.3498 102.793 93.4795 102.803C93.3398 104.021 93.1802 105.239 93.0605 106.457C92.9807 107.236 93.2501 107.725 94.1578 107.755C95.0855 107.785 95.305 107.316 95.295 106.517C95.2751 105.379 95.295 104.23 95.295 103.092C95.5045 103.092 95.704 103.092 95.9135 103.092V107.445C96.0631 107.445 96.2128 107.445 96.3524 107.445V102.533C95.5444 102.413 94.7464 102.303 93.9483 102.183C92.8111 102.014 92.1328 102.283 92.1129 103.641C92.0929 104.68 91.8036 105.718 91.634 106.756C91.4345 105.628 91.644 104.56 91.7138 103.481C91.7438 102.992 91.4844 102.493 91.3547 101.994C91.0954 102.443 90.7163 102.852 90.5966 103.332C90.3572 104.29 90.2574 105.279 90.0978 106.247C89.9881 106.227 89.8784 106.207 89.7786 106.187C89.9183 104.789 90.0579 103.392 90.1876 102.004C90.028 101.984 89.8784 101.954 89.7188 101.934C89.5492 102.453 89.3796 102.962 89.22 103.481C88.8609 104.65 88.5117 105.818 88.1526 106.976V106.946ZM184.675 126.516C185.173 126.386 185.672 126.247 186.121 126.127C185.283 129.655 185.197 131.928 185.862 132.946V130.071C185.952 130.071 186.041 130.071 186.131 130.071C186.231 130.71 186.341 131.349 186.46 132.088C186.67 131.788 186.819 131.598 186.989 131.359C187.129 131.688 187.228 131.918 187.368 132.237C188.159 130.52 188.818 129.715 189.343 129.821C189.383 130.57 189.433 131.309 189.503 132.477C189.024 131.738 188.745 131.309 188.505 130.939C188.425 131.139 188.246 131.439 188.206 131.758C188.106 132.607 187.847 133.446 189.194 133.745C191.019 134.154 192.805 134.784 194.58 135.373C195.269 135.602 195.917 135.972 196.934 136.441C194.989 137.15 195.348 138.138 195.917 139.007C197.333 141.194 199.089 142.791 201.842 143.34C205.882 144.139 209.733 142.602 211.967 139.406C214.022 136.471 213.833 133.426 213.005 130.34C212.067 126.796 208.945 124.539 205.204 124.619C203.089 124.669 200.945 124.859 199.149 126.386C198.6 126.856 197.064 127.105 196.785 126.776C195.428 125.178 194.361 126.247 193.184 126.876C193.303 125.967 193.054 125.558 192.086 125.957C191.548 126.177 190.979 126.336 190.321 126.556C190.46 126.097 190.54 125.827 190.76 125.128C190.151 125.817 189.862 126.147 189.433 126.636V125.448C189.114 125.877 188.894 126.157 188.465 126.736C188.525 125.987 188.555 125.598 188.595 125.178C186.949 124.819 185.712 125.348 184.685 126.506C182.929 127.704 182.68 129.532 182.69 131.429C182.69 132.866 183.089 133.166 184.715 133.046C183.577 131.648 183.498 130.161 184.106 128.573C184.355 127.904 184.505 127.205 184.695 126.516H184.675ZM146.459 164.758C141.571 166.555 136.673 168.322 131.805 170.159C127.156 171.917 122.538 173.764 117.899 175.581C117.73 175.651 117.6 175.831 117.271 176.13H118.677C116.852 176.709 116.672 178.057 116.792 179.725C117.57 179.425 118.219 179.185 118.877 178.936C119.795 182.031 120.672 185.007 121.55 187.982L122.029 187.922C122.259 185.176 122.558 182.431 122.697 179.675C122.827 177.268 123.954 175.99 126.558 175.661C126.588 176.04 126.678 176.42 126.628 176.779C125.88 182.57 125.121 188.361 124.343 194.143C124.313 194.402 124.164 194.702 123.964 194.871C121.83 196.629 120.253 196.159 119.436 193.563C119.406 193.474 119.396 193.374 119.356 193.284C118.308 190.179 117.251 187.083 116.203 183.978L115.944 183.998C115.126 189.34 114.308 194.682 113.46 200.243C121.53 196.998 129.301 193.863 137.152 190.708C135.955 188.951 135.875 187.882 136.154 185.196C136.533 181.502 136.793 177.788 137.112 173.973C136.424 174.233 135.865 174.453 135.276 174.672C135.027 172.216 135.306 171.737 137.331 170.818C138.469 170.309 139.566 169.72 140.723 169.261C141.032 169.141 141.471 169.351 141.86 169.41C140.244 170.119 138.648 170.848 137.022 171.527C135.975 171.957 135.586 172.636 135.915 173.764C136.563 173.564 137.142 173.394 137.73 173.215C137.361 178.177 137.002 183.05 136.643 187.922C138.409 187.992 138.987 187.363 138.977 185.805C138.957 182.411 139.087 179.016 139.277 175.631C139.336 174.573 139.646 173.474 140.065 172.496C140.514 171.457 141.252 170.549 141.86 169.58C142.04 170.848 142.09 171.987 140.693 172.755C140.244 173.005 139.915 173.844 139.885 174.423C139.696 178.467 139.626 182.52 139.466 186.574C139.406 188.082 140.414 188.911 141.79 188.282C142.918 187.772 143.975 187.113 145.062 186.534C146.848 185.586 147.277 184.707 147.018 182.56V182.58C147.197 179.535 147.377 176.5 147.566 173.454C147.716 171.078 147.955 168.702 147.985 166.325C147.985 165.696 147.377 165.067 147.047 164.428C147.227 164.338 147.417 164.248 147.596 164.159C148.574 164.488 148.843 165.217 148.783 166.175C148.424 172.606 148.085 179.046 147.706 185.476C147.686 185.765 147.506 186.145 147.277 186.295C146.389 186.844 145.461 187.323 144.544 187.792C143.646 188.252 142.738 188.671 141.83 189.11C141.87 189.28 141.9 189.45 141.94 189.629C142.399 189.659 142.888 189.799 143.297 189.689C145.87 188.99 148.394 188.132 150.988 187.523C153.901 186.844 154.02 186.824 154.22 183.798C154.22 183.689 154.29 183.579 154.369 183.359C154.459 183.758 154.519 184.028 154.599 184.397C154.778 183.908 154.928 183.519 155.068 183.129V185.985C155.955 185.686 156.494 185.506 157.332 185.226C156.414 184.397 155.736 183.768 155.048 183.149C154.549 182.51 154.08 181.861 153.551 181.242C152.175 179.645 151.895 177.518 153.242 175.98C154.3 174.762 154.449 173.484 154.499 172.016C154.539 170.509 154.778 169.001 154.918 167.493C155.038 167.503 155.157 167.523 155.277 167.533C155.128 169.55 154.978 171.567 154.818 173.584C155.297 171.797 155.407 169.99 155.656 168.202C155.796 167.234 155.527 166.774 154.629 166.335C152.494 165.317 151.886 163.679 152.753 161.453C153.063 160.674 153.661 160.005 154.08 159.256C154.339 158.777 154.639 158.258 154.689 157.728C154.848 156.021 154.878 154.294 155.008 152.576C155.147 150.729 154.329 150.06 152.584 150.719C149.631 151.827 146.698 152.996 143.746 154.104C143.287 154.274 142.778 154.314 142.289 154.423C142.249 154.264 142.209 154.104 142.169 153.944C145.471 152.666 148.763 151.378 152.384 149.97C150.708 149.351 149.561 148.552 147.975 149.301C147.087 149.721 145.88 149.711 144.873 149.531C144.264 149.421 143.416 148.712 143.307 148.143C143.087 147.045 143.267 145.857 143.347 144.718C143.676 139.996 144.035 135.283 144.364 130.56C144.763 124.829 145.122 119.098 145.521 113.376C145.601 112.208 148.374 110.591 149.442 111.06C149.561 111.11 149.721 111.24 149.731 111.339C149.791 112.498 150.619 111.968 151.107 111.909C154.758 111.459 158.409 110.95 162.06 110.471C162.559 110.411 163.068 110.471 163.567 110.471C163.567 110.601 163.567 110.73 163.567 110.86C161.362 111.14 159.158 111.409 156.953 111.689C156.973 111.829 156.993 111.978 157.013 112.118C160.405 111.609 163.796 111.09 167.178 110.591C167.387 110.561 167.617 110.64 167.836 110.66C168.963 110.79 170.081 110.98 171.208 111.01C171.547 111.02 171.896 110.611 172.235 110.381C172.166 110.261 172.086 110.141 172.016 110.021C171.088 110.091 170.15 110.161 169.223 110.231C169.213 110.091 169.193 109.952 169.183 109.822C169.821 109.732 170.46 109.532 171.088 109.562C172.235 109.612 172.834 109.113 173.193 108.054C173.632 106.736 174.37 105.498 174.659 104.16C175.218 101.544 177.273 101.095 179.557 100.376C179.557 101.135 179.557 101.734 179.557 102.333C179.527 104.061 179.448 105.788 179.507 107.505C179.517 107.955 179.956 108.394 180.196 108.843C180.435 108.444 180.834 108.054 180.884 107.635C181.103 105.688 181.243 103.731 181.373 101.764C181.473 100.256 181.512 98.7387 181.592 96.9315C179.747 97.5905 178.111 98.1896 176.455 98.7487C166.041 102.263 155.636 105.798 145.202 109.243C143.805 109.702 143.207 110.291 143.297 111.809C143.376 113.127 143.087 114.455 142.968 115.783C142.768 115.763 142.568 115.743 142.379 115.723C142.419 114.764 142.419 113.806 142.509 112.847C142.748 110.391 142.369 109.892 140.025 109.582C139.167 109.472 138.309 109.382 137.481 109.163C136.264 108.843 135.855 109.233 135.835 110.481C135.775 113.816 135.675 117.151 135.456 120.485C135.097 126.027 134.628 131.558 134.219 137.1C134.01 139.916 133.81 142.731 133.65 145.557C133.611 146.316 133.85 147.085 133.77 147.834C133.611 149.481 132.912 151.198 133.212 152.736C133.621 154.853 135.955 153.914 137.371 154.513C137.661 154.633 138.03 154.563 138.369 154.583C139.466 154.653 140.334 154.503 140.015 153.036C139.975 152.826 140.234 152.566 140.394 152.247C140.653 153.215 140.873 154.004 141.142 154.993C140.982 155.032 140.444 155.342 139.925 155.302C137.89 155.112 135.855 154.843 133.84 154.533C132.633 154.354 132.194 153.575 132.334 152.357C132.483 151.108 132.513 149.86 132.613 148.403C129.012 149.801 125.73 151.089 122.428 152.337C121.351 152.746 120.802 153.285 121.071 154.583C121.221 155.322 120.902 156.181 120.712 156.97C120.273 158.717 119.675 160.434 119.346 162.202C118.837 164.907 118.498 167.643 118.049 170.599C118.717 170.399 119.126 170.299 119.505 170.149C126.089 167.553 132.733 165.097 139.227 162.291C142.549 160.854 145.132 162.221 147.855 163.579C147.865 163.579 147.696 163.949 147.616 164.149C146.14 163.599 144.693 162.9 143.177 162.551C142.169 162.321 140.992 162.381 139.975 162.651C138.459 163.05 137.022 163.739 135.556 164.328C130.408 166.395 125.281 168.502 120.124 170.539C117.77 171.467 117.211 172.346 117.66 175.072C118.159 174.882 118.637 174.702 119.106 174.513C120.822 173.794 122.518 173.015 124.264 172.356C128.992 170.549 133.72 168.722 138.499 167.034C141.102 166.116 143.815 165.476 146.469 164.718L146.459 164.758ZM129.76 114.115C129.76 113.965 129.76 113.806 129.76 113.656C129.301 113.426 128.852 113.167 128.373 112.967C124.623 111.389 120.912 109.732 117.101 108.314C115.775 107.825 114.218 107.735 112.782 107.815C107.734 108.084 102.677 109.013 97.6692 108.753C91.7837 108.454 85.9381 107.186 80.0825 106.297C79.1648 106.157 78.277 105.798 77.3792 105.548C78.9154 105.538 80.3519 105.858 81.7983 106.087C82.1474 106.147 82.8258 105.978 82.8756 105.798C83.2547 104.23 83.524 102.633 83.8233 101.035C83.6437 101.005 83.4542 100.975 83.2747 100.935C82.9554 102.423 82.6362 103.911 82.317 105.399C82.1973 105.379 82.0876 105.359 81.9679 105.339C82.2173 103.771 82.4567 102.203 82.7559 100.306C81.9579 100.426 80.7708 100.376 80.691 100.646C80.312 101.994 80.2222 103.422 80.0326 104.819C80.2322 104.849 80.4416 104.869 80.6411 104.899C80.9005 103.611 81.1599 102.323 81.4192 101.025C81.5489 101.045 81.6686 101.075 81.7983 101.095C81.6586 102.074 81.509 103.042 81.3893 104.021C81.2197 105.339 80.5514 105.708 79.2945 105.289C76.641 104.41 73.9975 103.501 71.2942 102.783C67.3439 101.734 64.072 99.4976 60.8499 97.1512C59.7925 96.3823 59.0444 95.304 59.6629 93.7863C59.8324 93.3769 59.623 92.8078 59.5731 92.0889C51.8322 94.6849 44.3107 97.2111 36.7793 99.7272C36.4002 99.857 36.0112 99.9069 35.6221 99.9968C35.9713 100.196 36.3304 100.406 36.6795 100.606C37.2082 102.443 35.9613 104.24 36.2406 106.147C35.1333 106.397 34.1358 106.627 33.1382 106.856C33.1183 107.136 33.0983 107.366 33.0983 107.605C32.8988 119.767 32.849 131.928 32.4599 144.089C32.2504 150.779 31.4524 157.449 30.9636 164.129C30.6643 168.272 30.4648 172.436 30.1855 176.579C30.0558 178.467 30.3352 180.094 32.2006 181.083C32.5796 181.282 32.7991 181.791 33.1781 182.261C32.7991 182.331 32.5497 182.371 32.3103 182.411C32.1806 182.56 32.0409 182.71 31.9113 182.86C32.3003 183.05 32.6893 183.259 33.0884 183.429C34.5647 184.088 36.0511 184.747 37.5374 185.376C49.1887 190.368 60.8499 195.361 72.5012 200.353C74.9651 201.411 75.6534 201.302 77.1996 199.095C83.4243 190.189 89.619 181.252 95.7838 172.296C96.1828 171.717 96.3225 170.888 96.3923 170.149C96.5918 168.292 96.6816 166.415 96.8213 164.558C96.9809 164.558 97.1504 164.558 97.3101 164.568V169.61C99.1555 167.503 100.662 165.357 102.138 163.18C104.742 159.336 107.266 155.442 109.929 151.648C110.807 150.4 112.064 149.421 113.091 148.273C113.52 147.794 114.069 147.214 114.099 146.645C114.318 142.731 114.398 138.797 114.568 134.883C114.677 132.307 114.847 129.721 115.036 127.145C115.136 125.777 114.807 125.508 113.48 126.037C113.071 126.197 112.642 126.336 112.223 126.476C113.4 125.168 115.725 125.458 116.024 123.651C116.682 123.681 117.231 123.86 117.68 123.71C120.672 122.722 123.655 121.684 126.628 120.635C129.042 119.786 131.446 118.898 134.059 117.949C133.162 116.801 132.483 115.823 131.685 114.954C131.416 114.664 130.807 114.395 130.478 114.505C128.024 115.283 125.62 116.202 123.166 116.991C120.962 117.7 118.717 118.309 116.493 118.958C116.443 118.808 116.393 118.658 116.343 118.508C120.812 117.041 125.281 115.563 129.75 114.095L129.76 114.115ZM122.937 91.6496C122.897 91.4699 122.867 91.3001 122.827 91.1204C126.478 90.2517 130.099 89.1734 133.79 88.5443C141.222 87.2763 147.975 84.3108 154.489 80.6964C154.579 80.6464 154.619 80.4867 154.689 80.3669C154.529 80.267 154.419 80.1572 154.29 80.1073C145.771 77.2117 137.262 74.2862 128.713 71.5104C127.945 71.2608 126.807 71.8998 125.92 72.3092C124.673 72.8783 123.525 74.0965 122.288 74.1564C119.126 74.3161 117.241 76.8123 114.577 77.8008C115.146 77.7209 115.715 77.651 116.283 77.5712C116.313 77.701 116.353 77.8308 116.383 77.9606C115.665 78.2202 114.937 78.4897 113.799 78.8991H115.266C113.72 79.638 112.143 80.1772 110.517 80.4268C109.191 80.6265 107.804 80.4867 106.448 80.4967C103.455 80.5166 100.363 81.9145 97.5096 79.7678C96.6417 79.1088 95.6142 78.6894 94.6566 78.1503C94.3673 77.9905 94.0481 77.6111 93.8087 77.661C92.7413 77.8907 92.3822 77.2616 92.0131 76.4629C91.8735 76.1533 91.4744 75.9237 91.1552 75.724C85.5889 72.3492 80.0127 68.9843 74.4364 65.6295C74.1172 65.4397 73.6883 65.1402 73.389 65.2201C71.2742 65.7992 69.0397 66.1886 67.1145 67.1671C65.289 68.0957 63.7428 69.6034 62.1866 70.9812C60.401 72.5688 58.7252 75.6142 60.5307 78.4398C60.8799 78.979 61.1492 79.5781 61.4485 80.1472C61.3088 80.2271 61.1791 80.307 61.0395 80.3769C60.3113 79.1188 59.5831 77.8507 59.1042 77.032C58.9347 79.5481 58.8449 82.6034 58.4858 85.6288C58.2463 87.6457 58.8349 89.403 60.2614 90.5313C62.7552 92.5083 65.3688 94.4952 68.2218 95.8332C74.7157 98.8685 81.7285 99.897 88.8409 100.346C93.9483 100.666 99.0358 101.145 104.133 101.544C106.787 101.754 109.44 102.104 112.104 102.134C114.777 102.163 117.45 101.874 120.124 101.744C120.343 101.734 120.573 101.824 120.852 101.874C120.712 102.144 120.613 102.343 120.403 102.743C126.658 104.29 132.304 107.495 138.828 108.114C142.13 108.424 145.322 109.193 148.504 107.725C149.202 107.405 149.93 107.186 150.639 106.876C155.177 104.909 160.105 104.091 164.484 101.544C167.667 99.6873 171.377 98.7387 174.869 97.4008C176.844 96.6419 178.839 95.933 180.824 95.1942C180.854 94.9745 180.884 94.7448 180.924 94.5252C179.517 93.6166 178.211 92.4184 176.674 91.8493C172.325 90.2517 167.866 88.9537 163.467 87.476C161.312 86.7471 159.217 85.8884 157.003 85.0497C156.863 86.5274 156.584 87.8254 156.674 89.0935C156.823 91.4199 155.337 92.3086 153.561 92.9576C149.252 94.5252 144.963 96.1727 140.583 97.5206C135.656 99.0383 130.648 100.306 125.66 101.604C124.842 101.814 123.924 101.634 122.687 101.634C125.65 100.935 128.254 100.516 130.738 99.7072C138.379 97.231 145.98 94.645 153.561 91.9791C154.449 91.6696 155.507 90.6411 155.686 89.7725C156.145 87.6058 156.145 85.3393 156.345 82.9429C144.603 89.2433 132.174 92.4084 119.196 93.5966C119.595 93.327 120.034 93.2072 120.483 93.1273C123.775 92.5382 127.077 91.9891 130.369 91.38C139.037 89.7725 147.257 86.8769 155.018 82.6733C155.537 82.3938 155.936 81.8845 156.394 81.4752C150.808 83.522 145.561 86.128 140.045 87.8454C134.488 89.5728 128.653 90.4315 122.947 91.6596L122.937 91.6496ZM83.7435 43.3037C83.6936 43.3835 83.6537 43.4634 83.6038 43.5433C84.6213 44.6216 85.6588 45.68 86.6463 46.7783C87.2648 47.4773 87.7736 47.5072 88.5915 46.968C91.9034 44.7714 95.2651 42.6646 98.6168 40.5379C100.273 39.4895 100.801 39.5194 101.34 41.3966C102.637 45.9895 103.704 50.6524 104.832 55.3053C104.931 55.7146 104.792 56.1839 104.772 56.6232C104.423 56.4236 104.363 56.2139 104.313 55.9942C103.225 51.2914 102.148 46.5786 101.021 41.8758C100.821 41.0471 100.582 40.0586 99.3151 40.8774C96.2227 42.8743 93.1104 44.8313 90.0081 46.8183C89.0604 47.4273 87.8833 47.9465 88.6913 49.624C87.7835 48.4857 87.0454 48.8452 86.2473 49.4642C85.2997 50.1931 84.3021 50.8621 83.3046 51.5111C81.7983 52.4896 80.272 53.4381 78.7558 54.3967C78.676 54.2768 78.5962 54.167 78.5164 54.0472C78.9054 53.7377 79.2845 53.4082 79.6935 53.1186C81.8482 51.6109 83.9929 50.0833 86.1675 48.6155C86.8359 48.1662 86.8458 47.7868 86.3471 47.2476C85.18 45.9796 84.0527 44.6716 82.8258 43.4634C82.5464 43.1838 81.8182 43.0341 81.4791 43.2038C79.893 43.9826 78.3668 44.8912 76.8206 45.7499C75.9926 46.2092 76.0026 46.7584 76.2919 47.657C77.0101 49.8736 77.6984 52.1301 78.0675 54.4266C78.4166 56.5733 78.3468 58.7799 77.0001 60.7469C76.8704 59.9681 76.9103 59.2093 77.0201 58.4604C77.1298 57.7116 77.5488 56.9228 77.4291 56.2338C76.9303 53.518 76.3218 50.8121 75.6335 48.1362C75.3642 47.0879 74.596 46.9481 73.6185 47.5372C71.6533 48.7154 69.6582 49.8336 67.6332 50.892C66.7155 51.3713 66.6855 52.0303 66.7354 52.9189C66.7953 53.8775 66.6257 54.846 66.5459 55.9643C68.142 56.783 68.6008 56.5134 68.6108 54.4066C68.6108 53.6278 68.6108 52.859 68.6108 52.0802C69.748 54.6463 68.1719 58.1809 71.7231 59.7485C71.4239 59.4489 71.1246 59.1494 70.8253 58.8498C71.6234 58.6102 72.4114 58.3806 72.99 58.2008C74.2768 59.5987 75.3342 61.0265 76.6709 62.0949C77.3991 62.684 78.7259 63.1133 79.5738 62.8737C83.1549 61.8852 86.6763 60.677 90.1776 59.4489C92.7114 58.5603 95.1853 57.8114 97.739 59.3491C98.7565 59.9581 99.8239 60.5273 100.921 60.9766C102.846 61.7754 104.822 62.4643 106.727 63.1832C108.363 60.3975 108.532 42.5848 106.477 33.7782C103.634 33.7782 100.742 34.0778 97.9285 33.7183C90.8161 32.8097 84.0926 30.3435 77.4091 27.8473C74.9751 26.9387 72.581 25.9003 70.167 24.9218C72.4513 27.5378 75.7432 28.4963 78.5164 30.3036C73.6983 28.726 69.339 26.3696 65.5882 22.7551C65.6481 23.6438 65.8277 24.4525 66.1369 25.1914C67.4237 28.2268 67.7729 31.3819 67.3938 34.617C67.304 35.3958 67.1045 36.4941 66.5758 36.8236C65.269 37.6423 65.8875 38.7207 65.7578 39.7391C65.5284 41.5364 66.9449 41.3566 67.9524 41.6961C68.0422 41.7261 68.142 41.746 68.2218 41.786C69.9176 42.5448 71.8029 42.7944 73.01 44.6216C73.798 45.8298 75.1646 46.2691 76.7208 45.1608C78.2271 44.0924 79.9628 43.3236 81.6387 42.4849C82.8856 41.8559 84.4817 42.6147 85.0004 44.0924C84.5316 43.7929 84.1525 43.5433 83.7634 43.2937L83.7435 43.3037ZM78.7358 202.53C77.6385 203.818 76.5413 205.116 75.434 206.404C72.8504 209.419 70.8553 212.754 71.8827 216.858C73.2394 222.259 75.5537 227.162 80.9404 229.838C82.3569 230.537 83.7634 231.246 85.16 231.995C86.3271 232.624 87.3945 232.054 88.5417 231.905C90.6664 231.635 92.861 231.835 94.9858 231.555C96.2227 231.396 97.5295 230.896 98.557 230.187C100.502 228.859 102.378 227.382 104.063 225.744C105.33 224.516 106.338 222.988 107.345 221.501C108.133 220.342 108.802 219.084 109.37 217.796C109.759 216.918 110.198 215.879 110.099 214.971C109.58 210.168 108.014 205.745 104.951 201.931C103.136 199.664 101.071 197.927 97.9485 197.717C94.9958 197.517 92.063 196.828 89.1202 197.827C92.3622 195.91 95.8337 197.038 99.2752 196.888C97.4796 196.01 95.6342 194.772 93.7987 194.802C90.6465 194.842 87.3446 195.221 84.4019 196.269C80.3519 197.697 77.2096 200.633 74.7357 204.207C73.0399 206.653 71.7431 209.239 71.3241 212.225C72.8803 208.261 75.2843 204.996 78.7358 202.53ZM171.707 111.649C171.078 111.649 170.709 111.619 170.34 111.649C167.068 111.919 163.796 112.198 160.524 112.468C157.621 112.707 154.709 112.947 151.806 113.157C150.748 113.237 150.18 113.616 150.13 114.794C150.04 117.18 149.791 119.567 149.661 121.953C149.392 126.916 149.152 131.878 148.923 136.84C148.773 140.085 148.614 143.33 148.514 146.575C148.474 147.983 149.082 148.463 150.619 148.353C150.16 148.113 149.731 147.893 149.312 147.674C150.619 147.893 151.806 148.393 153.023 148.772C153.631 148.962 154.399 149.161 154.948 148.962C158.719 147.594 162.459 146.136 166.19 144.638C166.589 144.479 167.038 143.949 167.098 143.53C167.278 142.402 167.288 141.254 167.337 140.105C167.567 135.143 167.766 130.181 168.016 125.218C168.056 124.389 168.584 123.511 168.415 122.762C168.076 121.334 168.924 120.675 169.841 120.186C171.098 119.517 172.465 119.038 173.831 118.608C174.829 118.289 175.158 117.68 175.188 116.701C175.238 115.084 175.388 113.466 175.487 111.849C175.567 111.849 175.637 111.859 175.717 111.869V117.49C175.807 117.49 175.896 117.49 175.986 117.49C176.126 114.974 176.255 112.468 176.395 110.001C175.916 109.972 175.547 109.982 175.208 109.912C174.031 109.652 173.243 109.892 172.774 111.19C172.056 113.167 171.128 115.064 170.27 116.991C170.141 117.28 169.941 117.54 169.771 117.81C169.662 117.75 169.562 117.7 169.452 117.64C170.18 115.713 170.919 113.776 171.737 111.629L171.707 111.649ZM108.572 154.883C104.782 160.354 101.111 165.606 97.4996 170.898C97.2103 171.328 97.1903 171.987 97.1504 172.546C96.9509 175.411 96.8113 178.277 96.6217 181.142C96.3724 184.867 96.0731 188.581 95.8337 192.305C95.8038 192.735 95.9035 193.484 96.1429 193.573C97.4796 194.103 98.8762 194.482 100.193 194.891C100.652 189.949 101.111 185.066 101.57 180.184C101.709 180.194 101.849 180.214 101.989 180.224C101.989 180.414 101.989 180.593 101.989 180.783C101.719 185.276 101.43 189.759 101.2 194.252C101.171 194.812 101.29 195.63 101.649 195.92C102.597 196.679 103.724 197.208 104.961 197.927C105.29 193.683 105.59 189.689 105.919 185.696C106.158 182.88 106.408 180.074 106.717 177.268C106.866 175.93 107.714 175.122 109.041 174.772C107.455 175.701 107.176 177.169 107.096 178.826C106.787 184.607 106.388 190.388 106.029 196.159C105.859 198.935 107.615 200.802 110.388 200.932C110.807 197.487 111.226 194.063 111.645 190.628C111.695 193.364 111.385 196.06 111.206 198.756C111.176 199.265 111.595 200.153 111.984 200.263C112.981 200.543 113.031 199.644 113.141 198.905C114.178 192.126 115.226 185.336 116.273 178.556C116.333 178.197 116.343 177.828 116.373 177.418H114.996C115.605 176.999 116.034 176.709 116.463 176.42C116.423 176.34 116.383 176.26 116.343 176.18L114.727 176.599C117.201 175.861 117.121 173.894 117.171 171.807C115.106 172.476 113.161 173.095 111.216 173.724C112.373 172.955 113.58 172.346 114.867 172.056C116.982 171.587 117.76 170.329 117.939 168.252C118.189 165.407 118.717 162.591 119.136 159.695C113.37 161.772 109.749 160.155 108.562 154.843L108.572 154.883ZM177.363 141.353C175.697 141.593 174.649 142.212 174.021 143.58C172.744 146.366 171.407 149.122 170.021 151.847C169.213 153.455 169.293 154.194 170.809 155.032C172.245 155.821 173.712 156.6 175.238 157.189C177.772 158.168 180.415 158.867 182.919 159.935C183.946 160.374 184.715 160.394 185.563 159.855C186.121 159.496 186.64 159.066 187.139 158.627C190.5 155.652 193.852 152.676 197.194 149.691C198.6 148.433 200.107 147.244 200.865 145.208C197.683 144.229 195.698 142.222 194.86 139.087C194.63 138.218 194.251 137.35 193.742 136.611C193.453 136.191 192.785 135.962 192.246 135.862C192.086 135.832 191.727 136.501 191.568 136.89C191.428 137.24 191.418 137.639 191.398 138.019C191.258 141.034 191.189 144.049 190.979 147.055C190.919 147.863 190.68 149.132 190.161 149.361C187.787 150.38 185.293 151.099 182.61 152.007C182.61 151.278 182.6 150.999 182.61 150.729C182.809 146.526 183.059 142.312 183.168 138.108C183.188 137.29 182.789 136.411 182.4 135.642C181.652 134.194 180.365 133.006 180.954 131.059C181.812 128.174 183.528 125.877 185.822 124.13C187.518 122.842 189.563 122.253 191.757 123.401C192.795 123.94 193.982 124.18 195.109 124.539C195.618 124.699 196.146 124.819 196.665 124.949C196.645 125.048 196.635 125.148 196.615 125.238H195.618C195.658 125.408 195.688 125.568 195.727 125.737C196.585 125.508 197.493 125.378 198.291 125.018C199.867 124.32 201.034 122.732 203.019 122.882C203.179 122.892 203.518 122.442 203.538 122.183C203.857 118.319 204.147 114.455 204.436 110.591C204.516 109.512 204.117 109.233 203.079 109.592C196.107 111.958 189.124 114.285 182.161 116.691C181.682 116.851 181.103 117.55 181.074 118.039C180.704 123.91 180.465 129.781 180.086 135.642C179.966 137.509 179.966 139.506 178.241 140.874C178.021 141.054 177.991 141.553 177.981 141.913C177.822 144.998 177.692 148.093 177.552 151.178H177.353V141.343L177.363 141.353ZM196.815 200.912C185.293 193.274 174.121 185.865 162.679 178.277C162.4 181.552 162.659 184.787 158.779 185.775C159.138 186.295 159.277 186.544 159.457 186.744C167.437 195.471 175.418 204.197 183.438 212.884C183.857 213.333 184.565 213.513 185.154 213.822C187.129 209.709 187.727 208.92 189.044 208.63C187.847 210.318 185.971 211.656 186.161 214.132C186.66 214.132 186.999 214.162 187.318 214.132C189.852 213.842 191.957 212.594 193.712 210.877C195.548 209.09 197.234 207.133 198.88 205.156C199.219 204.746 199.319 203.698 199.029 203.348C198.73 202.979 197.832 202.999 197.204 203.019C196.635 203.039 196.077 203.289 195.518 203.448C195.488 203.338 195.458 203.229 195.428 203.119C196.535 202.779 197.653 202.44 198.76 202.09C198.62 201.891 198.491 201.691 198.351 201.491C191.807 202.41 187.458 206.364 184.455 212.205C186.5 206.434 190.59 202.829 196.805 200.932L196.815 200.912ZM134.907 118.728C133.222 119.277 131.835 119.737 130.448 120.186C126.987 121.284 123.545 122.462 120.044 123.431C117.49 124.13 116.363 125.418 116.403 128.244C116.493 134.174 116.164 140.105 116.124 146.036C116.124 146.715 116.812 147.484 117.331 148.063C118.199 149.032 119.316 149.791 120.104 150.819C120.613 151.478 120.952 151.698 121.72 151.378C125.121 149.98 128.553 148.642 131.945 147.204C132.364 147.025 132.783 146.416 132.842 145.956C133.052 144.399 133.082 142.811 133.202 141.234C133.631 135.512 134.069 129.781 134.508 124.06C134.638 122.373 134.758 120.685 134.897 118.738L134.907 118.728ZM164.455 159.855C164.315 160.414 164.115 160.953 164.056 161.503C163.806 164.029 163.647 166.565 163.357 169.081C163.248 170 163.517 170.459 164.315 170.888C169.243 173.544 174.141 176.26 179.059 178.946C181.562 180.314 184.076 181.652 186.48 182.96C186.301 182.111 186.151 181.312 185.962 180.523C185.642 179.195 185.353 177.848 184.934 176.54C184.575 175.401 187.049 174.483 185.144 173.285C185.144 173.285 185.183 173.215 185.223 173.125H185.962C187.657 169.4 189.044 165.646 192.485 163.02C183.109 162.651 174.011 160.374 164.445 159.845L164.455 159.855ZM2.39403 112.707C2.65339 114.395 2.813 116.102 3.19206 117.76C3.53123 119.257 4.5986 120.096 6.05501 120.685C8.01019 121.474 9.98532 121.264 11.8208 120.805C13.5266 120.376 15.1426 119.347 16.599 118.299C17.5467 117.62 18.0155 116.332 18.8734 115.493C22.275 112.158 23.093 108.244 21.6565 103.781C20.5892 100.476 19.053 98.9983 15.3521 99.6274C11.3619 100.306 7.58124 101.794 5.41658 105.688C5.26695 105.958 5.14724 106.247 5.01756 106.527L4.38911 105.958L8.21967 101.395C8.17977 101.265 8.13987 101.125 8.08999 100.995C7.42164 101.215 6.60365 101.255 6.11486 101.674C3.5013 103.941 1.86534 106.836 1.20696 110.211C1.07728 110.89 1.58602 111.709 1.85536 112.448C1.91521 112.597 2.2444 112.637 2.38406 112.707H2.39403ZM137.232 189.62C140.244 192.755 143.147 195.78 146.359 199.115C145.142 199.335 144.394 199.414 143.676 199.604C142.389 199.944 141.112 200.313 139.875 200.782C139.586 200.892 139.466 201.461 139.267 201.811C139.616 201.991 139.955 202.32 140.314 202.34C142.559 202.47 144.833 202.789 147.037 202.56C149.322 202.32 151.267 202.679 153.083 204.057C153.392 204.297 154.09 204.307 154.469 204.117C156.913 202.919 159.337 201.671 161.741 200.383C162.639 199.904 163.467 199.315 164.445 198.706C163.377 198.047 162.569 197.428 161.671 197.008C160.006 196.219 159.357 194.871 159.188 193.134C159.138 192.645 159.008 191.946 158.669 191.726C156.793 190.508 154.878 189.34 152.893 188.321C152.304 188.022 151.447 188.272 150.708 188.272C150.678 188.431 150.659 188.591 150.629 188.761C151.447 189.44 152.265 190.129 153.083 190.808C152.983 190.937 152.893 191.057 152.793 191.187C151.886 190.568 150.988 189.909 150.05 189.34C149.023 188.711 147.955 188.252 146.828 189.43C148.085 190.558 149.232 191.596 150.389 192.635C147.915 192.425 146.878 188.621 143.885 190.219C143.666 190.498 143.456 190.778 143.237 191.067C144.244 191.656 145.262 192.245 146.269 192.835C146.09 193.034 145.91 193.234 145.731 193.434C145.382 193.204 145.002 193.014 144.683 192.755C143.357 191.656 142 190.588 140.763 189.4C139.606 188.292 138.598 188.571 137.242 189.629L137.232 189.62ZM23.5718 104.71C25.0083 114.205 19.3522 118.848 11.8008 122.422C18.5342 124.529 25.1579 126.596 32.0509 128.753C32.0509 126.247 31.8414 124.07 32.1008 121.953C32.5796 117.949 31.5522 114.614 28.8189 111.609C26.8837 109.482 25.3175 107.016 23.5818 104.7L23.5718 104.71ZM107.884 69.1541C107.305 68.7047 106.627 68.1456 105.919 67.6364C105.709 67.4866 105.39 67.4367 105.131 67.4467C103.944 67.4866 102.757 67.6064 101.58 67.5964C98.0782 67.5665 94.5967 67.4866 91.1652 66.6379C87.4144 65.7093 83.6338 64.9006 79.8431 64.0918C79.1349 63.942 78.3667 64.0718 77.6286 64.0718C77.6086 64.2316 77.5887 64.3814 77.5687 64.5411C80.0027 66.2285 82.4168 67.9459 84.8807 69.5834C87.0753 71.0412 89.2998 72.449 91.5742 73.747C91.9732 73.9767 92.9009 73.777 93.28 73.4375C97.6891 69.4137 105.879 67.7362 112.143 71.4705C114.168 72.6787 114.727 73.6571 114.418 76.0535C118.029 74.1364 121.55 72.2693 125.341 70.2624C120.303 68.555 115.565 66.9374 110.807 65.3698C110.557 65.29 110.178 65.5596 109.859 65.6694C110.039 65.899 110.188 66.1487 110.388 66.3583C110.557 66.5381 110.767 66.6679 110.787 66.6878C109.839 67.4966 108.961 68.2454 107.894 69.1541H107.884ZM201.314 170.649C201.413 167.264 201.304 166.625 200.286 165.007C199.368 163.529 198.361 163.35 196.954 164.378C194.6 166.116 193.174 168.542 192.136 171.178C190.7 174.802 190.031 178.546 191.328 182.371C191.817 183.808 192.376 185.506 194.181 185.606C196.007 185.696 197.164 184.298 198.191 182.94C198.251 182.86 198.301 182.78 198.331 182.69C199.767 178.786 201.384 174.922 201.324 170.649H201.314ZM96.2028 173.324C96.0831 173.285 95.9634 173.245 95.8437 173.215C90.437 181.023 85.0203 188.831 79.6137 196.649C79.7035 196.759 79.7932 196.868 79.883 196.978C81.2297 196.379 82.5664 195.75 83.933 195.181C84.9206 194.772 85.9082 194.232 86.9456 194.093C89.0604 193.813 91.2051 193.683 93.3398 193.673C94.7663 193.673 95.2451 193.144 95.285 191.736C95.3848 188.252 95.6242 184.767 95.8038 181.272C95.9434 178.626 96.0731 175.97 96.2028 173.324ZM174.24 128.064C174.011 128.044 173.772 128.034 173.542 128.014C173.931 125.198 174.33 122.383 174.799 119.058C172.954 119.996 171.447 120.675 170.061 121.544C169.632 121.813 169.303 122.562 169.263 123.111C168.914 128.932 168.574 134.754 168.345 140.585C168.225 143.73 168.325 143.73 171.318 142.731C171.497 142.671 171.677 142.612 171.866 142.572C173.492 142.222 174.51 141.304 174.47 139.616C174.101 138.847 173.772 138.029 173.841 137.24C173.931 136.211 174.52 135.223 174.56 134.194C174.669 131.479 174.6 128.743 174.6 126.027C174.55 126.027 174.49 126.027 174.44 126.027C174.38 126.716 174.31 127.395 174.25 128.084L174.24 128.064ZM81.0402 63.4029C81.0402 63.5426 81.0402 63.6924 81.0402 63.8322C83.2647 64.3614 85.4692 64.9605 87.7037 65.4098C89.4794 65.7692 91.2849 66.0388 93.1004 66.1686C94.5967 66.2785 96.123 65.7592 97.5794 66.568C97.7091 66.6379 98.1679 66.1487 98.4572 65.909C98.557 65.8291 98.6268 65.7093 98.7266 65.5895C98.8961 65.8092 99.0358 65.9889 99.1755 66.1686C99.375 65.899 99.5745 65.6394 99.8338 65.3C100.223 65.7293 100.522 66.0588 100.841 66.4083C101.719 64.0319 103.305 67.247 104.253 65.8691C104.532 66.1287 104.812 66.3983 105.131 66.6978C106.138 64.641 105.809 63.7423 104.004 63.0234C102.986 62.6241 102.028 62.0949 101.031 61.6356C99.2952 60.8268 97.5894 59.9681 95.8237 59.2392C95.2451 58.9996 94.4671 58.9097 93.8885 59.0995C90.2076 60.2377 86.5566 61.4658 82.8956 62.684C82.2671 62.8936 81.6686 63.1632 81.0601 63.4128L81.0402 63.4029ZM117.031 103.731C117.161 103.671 117.281 103.611 117.41 103.551C117.41 104.27 117.53 105.009 117.381 105.698C117.071 107.116 117.69 107.755 118.937 108.264C122.298 109.632 125.62 111.12 128.962 112.548C129.68 112.857 130.428 113.107 131.346 113.456V112.038C131.296 114.055 133.012 114.485 134.329 115.613C134.429 113.506 134.588 111.649 134.578 109.792C134.578 109.283 134.179 108.474 133.77 108.334C128.383 106.417 122.977 104.59 117.56 102.773C117.291 102.683 116.942 102.822 116.433 102.872C116.702 103.262 116.852 103.501 117.011 103.731H117.031ZM96.4123 78.1003C96.6716 78.2601 96.7814 78.35 96.9011 78.4099C97.2502 78.5497 97.6193 78.6595 97.9684 78.8093C101.19 80.1772 104.482 79.4982 107.704 78.999C109.161 78.7693 110.547 77.9805 111.894 77.2816C112.902 76.7624 113.001 75.9337 112.393 74.8653C111.545 73.3776 110.268 72.7785 108.702 72.479C104.333 71.6502 100.293 72.7585 96.4422 74.7055C95.9634 74.9452 95.5344 75.724 95.5045 76.2731C95.4846 76.5927 96.2926 76.9821 96.7614 77.2916C96.9709 77.4314 97.2502 77.4713 97.7589 77.6411C97.1903 77.8308 96.9011 77.9206 96.4123 78.0904V78.1003ZM184.046 136.431C183.887 140.764 183.707 145.008 183.607 149.241C183.607 149.471 184.365 149.97 184.685 149.91C185.991 149.661 187.318 149.361 188.535 148.832C189.084 148.592 189.682 147.774 189.722 147.185C189.952 143.65 190.012 140.115 190.161 136.571C190.191 135.762 189.982 135.383 189.124 135.213C187.657 134.913 186.221 134.434 184.774 134.035C184.256 133.895 183.737 133.775 183.079 133.615C183.927 135.942 185.872 136.231 187.887 136.411C187.807 136.591 187.737 136.78 187.657 136.96C186.6 136.81 185.553 136.651 184.056 136.441L184.046 136.431ZM122.059 189.49C121.83 189.48 121.59 189.47 121.361 189.45C120.563 186.654 119.795 183.858 118.957 181.083C118.817 180.633 118.358 180.274 118.039 179.884C117.49 180.334 116.782 180.703 116.433 181.282C116.194 181.692 116.313 182.431 116.493 182.95C117.8 186.844 119.136 190.738 120.533 194.602C120.643 194.891 121.321 195.191 121.69 195.141C123.057 194.951 123.805 194.212 123.964 192.695C124.343 189.08 124.902 185.486 125.381 181.891C125.61 180.154 125.84 178.427 126.079 176.629C123.605 177.039 123.266 177.518 123.206 179.685C123.156 181.732 122.957 183.788 122.737 185.825C122.598 187.053 122.298 188.272 122.059 189.49ZM146.339 148.792C146.668 141.543 146.948 134.384 147.327 127.225C147.596 122.173 147.227 117.051 148.903 111.699C147.845 112.588 146.309 112.308 146.19 113.856C145.581 121.963 145.002 130.071 144.464 138.188C144.274 141.004 144.334 143.84 144.075 146.645C143.875 148.782 144.035 149.082 146.349 148.802L146.339 148.792ZM115.455 150.08C114.877 150.11 114.438 150.1 114.019 150.16C111.455 150.519 110.059 152.357 110.288 155.042C110.478 157.149 112.313 158.897 114.558 158.567C115.984 158.357 117.391 157.509 118.618 156.66C120.154 155.592 120.154 153.914 119.745 152.227C119.376 150.719 118.059 150.539 116.882 150.21C116.383 150.07 115.834 150.11 115.465 150.08H115.455ZM113.241 203.119C121.84 199.644 130.349 196.199 138.937 192.725C138.179 191.137 137.371 190.967 136.035 191.557C132.104 193.304 128.124 194.921 124.144 196.549C121.091 197.797 118.009 198.975 114.967 200.233C113.819 200.712 112.832 201.401 113.241 203.129V203.119ZM194.6 165.856C192.236 165.407 192.086 165.486 191.099 166.505C189.603 168.053 188.455 169.74 187.767 171.837C186.819 174.682 186.67 177.508 187.348 180.374C187.747 182.091 188.386 182.421 190.201 182.201C189.732 176.3 190.899 170.828 194.61 165.856H194.6ZM115.705 65.8491C115.675 65.9989 115.645 66.1586 115.615 66.3084C119.984 66.6379 123.515 70.5519 128.344 68.9743C130.768 69.7132 132.483 67.9359 134.488 67.1971C134.788 67.0872 134.927 66.558 135.087 66.3184C134.508 66.4083 134.139 66.558 133.8 66.4981C132.832 66.3284 131.895 65.8891 130.937 65.8791C125.86 65.8192 120.782 65.8491 115.705 65.8491ZM181.223 115.114C181.363 115.273 181.503 115.443 181.642 115.603C187.139 113.696 192.625 111.789 198.122 109.872C198.082 109.722 198.042 109.572 198.002 109.412C192.825 109.842 187.657 110.271 182.49 110.75C182.151 110.78 181.622 111.25 181.572 111.579C181.373 112.737 181.333 113.925 181.233 115.104L181.223 115.114ZM155.955 156.61C155.995 157.329 155.676 158.317 157.043 158.407C158.808 158.537 160.564 158.767 162.32 158.847C162.649 158.867 163.248 158.457 163.297 158.178C163.507 156.999 163.577 155.801 163.637 154.613C163.686 153.675 163.218 153.345 162.27 153.505C161.861 153.575 161.382 153.445 160.983 153.285C159.786 152.816 158.609 152.297 157.422 151.797C156.594 151.458 156.285 151.817 156.235 152.626C156.165 153.914 156.055 155.202 155.955 156.6V156.61ZM161.831 176.989C162.031 174.802 162.21 172.915 162.34 171.028C162.36 170.758 162.13 170.349 161.901 170.219C160.145 169.201 158.35 168.222 156.205 167.034C156.015 169.291 155.826 171.208 155.736 173.135C155.736 173.324 156.295 173.674 156.624 173.724C157.681 173.874 158.559 174.073 159.267 175.112C159.776 175.871 160.814 176.28 161.831 176.989ZM159.916 161.922C159.916 160.135 158.749 159.056 156.863 159.096C155.307 159.136 153.013 161.523 153.003 163.13C152.993 164.837 154.569 166.345 156.384 166.345C158.12 166.345 159.906 164.109 159.916 161.922ZM74.3965 46.4289C72.0024 44.5218 69.5784 43.5832 66.8452 43.4934C66.5958 43.4934 66.1169 44.2023 66.107 44.5817C66.097 45.8697 66.2267 47.1577 66.3464 48.4458C66.4162 49.1647 66.5658 49.8736 66.7055 50.7622C69.359 49.2645 71.7231 47.9366 74.3965 46.4189V46.4289ZM155.257 175.771C155.078 175.721 154.699 175.461 154.459 175.551C153.551 175.93 152.803 178.167 153.182 179.415C153.571 180.703 154.479 181.452 155.846 181.332C157.033 181.232 158.26 181.033 158.818 179.715C159.417 178.297 159.776 176.799 158.729 175.511C158.25 174.922 157.332 174.553 156.554 174.433C156.215 174.383 155.746 175.232 155.257 175.761V175.771ZM159.207 159.016C160.494 160.554 160.833 162.082 160.125 163.529C159.497 164.837 158.449 165.936 157.542 167.184C158.908 167.913 160.564 168.801 162.42 169.8C162.709 166.485 162.988 163.44 163.198 160.394C163.218 160.095 162.848 159.546 162.569 159.486C161.572 159.256 160.544 159.186 159.188 159.006L159.207 159.016ZM163.846 152.946C163.976 150.959 164.145 149.301 164.155 147.634C164.155 147.264 163.437 146.526 163.267 146.585C161.193 147.314 159.138 148.113 157.133 149.012C156.404 149.331 156.315 150.04 157.163 150.39C159.277 151.248 161.422 152.027 163.856 152.956L163.846 152.946ZM176.884 160.614C176.934 160.524 176.994 160.424 177.043 160.334C175.916 159.735 174.789 159.136 173.662 158.547C173.113 158.258 172.195 158.098 172.066 157.688C171.537 156.011 169.911 156.241 168.814 155.612C168.614 155.502 168.056 155.612 167.966 155.781C167.397 156.9 166.918 158.058 166.34 159.366C170.061 159.815 173.472 160.215 176.874 160.624L176.884 160.614ZM160.285 176.809C159.567 178.586 158.888 180.284 158.31 181.712C157.153 181.841 156.354 181.941 155.427 182.051C157.033 184.607 157.601 185.056 159.337 184.437C160.125 184.158 160.963 183.289 161.262 182.49C161.661 181.412 161.462 180.134 161.681 178.966C161.931 177.588 161.213 177.089 160.285 176.809ZM147.077 147.714C147.237 147.714 147.407 147.714 147.566 147.724C147.776 141.913 147.915 136.101 148.205 130.3C148.484 124.829 148.913 119.357 149.282 113.886C148.973 113.876 148.663 113.856 148.354 113.846C147.556 125.118 147.536 136.431 147.077 147.714ZM108.602 34.2475C108.602 34.2475 108.502 34.2475 108.453 34.2475C108.453 37.822 108.413 41.3866 108.463 44.9611C108.512 48.5556 108.712 52.1401 108.722 55.7246C108.722 58.3206 107.754 60.9666 109.69 63.4328C109.33 53.6977 108.971 43.9726 108.602 34.2375V34.2475ZM173.313 142.731C171.707 143.38 170.47 143.83 169.283 144.389C168.973 144.539 168.644 145.028 168.634 145.367C168.574 147.554 168.604 149.751 168.604 151.937C168.754 151.967 168.904 152.007 169.053 152.037C170.41 149.082 171.757 146.126 173.313 142.721V142.731ZM167.158 145.407C165.682 145.407 165.183 145.926 165.143 147.065C165.073 148.632 164.973 150.22 164.724 151.767C164.534 152.936 164.963 153.685 166.031 153.575C166.559 153.515 167.387 152.586 167.407 152.027C167.477 149.85 167.268 147.674 167.168 145.417L167.158 145.407ZM77.9378 104.19C79.5538 100.336 79.3144 99.857 75.5637 98.9085C75.0549 98.7787 74.5462 98.6189 74.0274 98.559C73.7382 98.529 73.1795 98.6588 73.1696 98.7687C73.0399 99.887 72.99 101.015 72.9202 102.144H73.4588C73.4588 101.524 73.399 100.905 73.4788 100.306C73.5287 99.9169 73.808 99.5575 73.9776 99.188C74.2868 99.5575 74.7856 99.8969 74.8454 100.296C74.9552 101.035 74.7557 101.814 74.7856 102.573C74.8055 102.932 75.0649 103.282 75.2145 103.641C75.5138 103.362 75.9926 103.132 76.0924 102.793C76.3916 101.814 76.5412 100.796 76.7607 99.7971C76.8405 99.8171 76.9303 99.8271 77.0101 99.847C76.8605 101.225 76.7108 102.603 76.5612 103.981C76.7108 104.001 76.8505 104.011 77.0001 104.031C77.2096 102.822 77.4091 101.624 77.6186 100.416C77.7183 100.436 77.8181 100.446 77.9179 100.466V104.19H77.9378ZM176.704 105.908C176.774 105.918 176.844 105.928 176.914 105.938C176.914 106.697 176.844 107.465 176.944 108.214C176.984 108.544 177.403 109.093 177.602 109.063C178.001 109.013 178.679 108.664 178.689 108.414C178.769 106.068 178.739 103.721 178.739 101.385C178.241 101.934 177.702 102.533 177.063 103.232C176.934 102.733 176.854 102.453 176.784 102.183C176.664 102.183 176.555 102.183 176.435 102.183C176.275 104.42 176.116 106.657 175.956 108.903C176.136 108.913 176.325 108.933 176.505 108.943C176.575 107.925 176.644 106.906 176.714 105.888L176.704 105.908ZM179.088 125.428C178.669 130.33 178.28 134.863 177.871 139.746C179.328 138.148 180.216 127.365 179.088 125.428ZM176.644 117.111C176.824 117.24 177.004 117.37 177.193 117.49C177.652 116.971 178.4 116.502 178.5 115.922C178.709 114.624 178.65 113.266 178.57 111.939C178.55 111.629 178.011 111.09 177.752 111.12C177.363 111.16 176.714 111.579 176.704 111.869C176.605 113.606 176.654 115.363 176.654 117.111H176.644ZM74.7058 64.7109C74.6758 64.8506 74.6459 64.9904 74.626 65.1302C78.2171 67.217 81.7983 69.3038 85.3894 71.3806C82.5664 68.9544 79.5937 66.7477 76.5413 64.6509C76.1323 64.3714 75.3342 64.6709 74.7058 64.7009V64.7109ZM119.136 158.108C117.351 159.546 115.376 159.436 113.351 159.026C111.006 158.557 110.228 156.69 109.5 154.573C109.241 157.748 110.238 159.086 113.36 159.955C116.124 160.724 118.298 160.075 119.136 158.098V158.108ZM112.892 201.511C111.156 201.431 109.809 201.371 107.974 201.282C108.612 202.41 108.951 203.498 109.69 204.107C110.049 204.407 111.296 204.017 111.874 203.578C112.393 203.189 112.533 202.3 112.892 201.511ZM178.4 118.209C176.335 118.109 176.635 119.607 176.445 120.835C176.206 122.353 176.844 123.231 178.4 123.86V118.219V118.209ZM65.4985 36.4941L66.1469 36.544C67.4038 34.4971 66.8651 32.2007 66.5758 29.9441V31.8612C66.506 31.8612 66.4262 31.8712 66.3564 31.8812C66.1469 30.3635 65.9274 28.8458 65.7179 27.3281C65.6481 27.3281 65.5683 27.3481 65.4985 27.3581V36.4941ZM94.916 74.2962C97.4996 72.9482 100.213 72.1095 103.096 71.8399C106.108 71.5604 109.101 71.3407 111.874 73.0281C109.57 70.0726 98.2677 70.8515 94.916 74.2962ZM35.5623 100.586C33.5373 101.674 32.849 103.272 33.2779 106.028C33.9163 105.768 34.9737 105.618 35.0535 105.259C35.3827 103.761 35.4126 102.193 35.5623 100.596V100.586ZM83.8931 232.104C80.4815 230.247 77.03 228.46 74.5861 225.285C77.1298 228.31 79.3144 231.795 83.8931 232.104ZM180.315 117.21C178.949 118.429 178.779 124.18 179.877 124.859C180.016 122.383 180.156 119.996 180.315 117.21ZM179.298 116.262C180.435 115.503 181.074 111.968 180.395 111.299C180.256 111.16 179.906 111.06 179.767 111.13C179.557 111.25 179.328 111.539 179.318 111.769C179.278 113.187 179.298 114.604 179.298 116.262ZM66.6456 19.9594C67.2442 21.1975 67.7529 22.2759 68.2716 23.3542C68.4512 23.2843 68.6407 23.2044 68.8203 23.1346C68.7804 21.8266 69.3689 20.4187 68.0322 19.2305C67.6033 19.4602 67.1943 19.6699 66.6456 19.9594ZM8.99775 100.187C9.04763 100.376 9.09751 100.576 9.15736 100.766C10.504 100.366 11.8407 99.9569 13.347 99.5076C12.1101 98.2195 10.0851 98.6788 9.00773 100.187H8.99775ZM114.807 147.135C114.897 147.135 114.986 147.115 115.076 147.105V134.314H114.807V147.125V147.135ZM97.4397 103.402C97.6193 103.402 97.8088 103.402 97.9884 103.412V107.385C98.128 107.385 98.2677 107.385 98.4173 107.385C98.4173 105.998 98.4472 104.6 98.3874 103.212C98.3874 102.982 97.9884 102.653 97.739 102.613C97.5694 102.583 97.1405 102.962 97.1305 103.162C97.0806 104.63 97.1006 106.107 97.1006 107.575C97.2103 107.575 97.33 107.575 97.4397 107.575V103.402ZM175.388 104.869C174.819 106.337 174.24 107.795 173.642 109.342C174.739 109.323 175.321 107.831 175.388 104.869ZM164.275 158.168C164.415 158.188 164.554 158.208 164.694 158.218C165.193 157.049 165.691 155.891 166.23 154.623C165.652 154.413 165.233 154.264 164.644 154.064C164.504 155.562 164.395 156.87 164.275 158.178V158.168ZM71.6333 43.8728C71.6633 43.8029 71.7032 43.733 71.7331 43.6531C69.8976 42.9841 68.0721 42.3152 66.2367 41.6562C66.1169 41.8359 65.9972 42.0256 65.8775 42.2053C66.2167 42.4949 66.516 42.9642 66.905 43.054C68.4711 43.3935 70.0572 43.6132 71.6333 43.8728ZM64.7603 25.9203C64.6905 25.9203 64.6107 25.9203 64.5408 25.9203V35.7153C64.6107 35.7153 64.6905 35.7153 64.7603 35.7153V25.9103V25.9203ZM102.996 102.912C102.747 102.892 102.497 102.872 102.248 102.852C102.138 104.36 102.028 105.878 101.919 107.385C102.148 107.405 102.388 107.415 102.617 107.435C102.747 105.928 102.866 104.42 102.996 102.902V102.912ZM167.427 155.362L166.709 155.032C166.11 156.34 165.522 157.658 164.923 158.966C165.153 159.076 165.392 159.186 165.622 159.296C166.22 157.988 166.819 156.68 167.427 155.372V155.362ZM115.106 149.451C116.642 149.771 117.77 150.01 118.897 150.24L119.086 149.84C118.069 149.381 117.061 148.882 116.014 148.493C115.884 148.443 115.535 148.992 115.106 149.451ZM111.465 208.171C111.555 208.181 111.635 208.191 111.725 208.201C111.894 207.073 112.054 205.954 112.253 204.627C110.907 205.056 109.67 205.186 111.026 206.693C111.335 207.043 111.326 207.672 111.465 208.171ZM65.5084 95.4637C64.8999 97.0014 65.0197 98.4292 65.7977 99.0682C66.2965 97.1811 66.1967 95.933 65.5084 95.4637ZM175.358 141.084C177.652 140.285 177.852 139.856 176.954 138.029C176.445 139.007 175.966 139.916 175.358 141.084ZM155.955 151.827C155.806 151.817 155.656 151.797 155.507 151.787L155.018 158.058C155.157 158.068 155.307 158.078 155.447 158.098C155.616 156.011 155.786 153.924 155.955 151.837V151.827ZM19.2225 116.012L19.6216 116.362C20.5792 115.004 21.5368 113.646 22.4945 112.288C22.3648 112.198 22.2451 112.108 22.1154 112.018C21.1478 113.346 20.1802 114.674 19.2126 116.012H19.2225ZM100.203 106.916C100.372 105.878 100.622 104.37 100.871 102.852L100.203 102.763V106.916ZM92.9807 101.105C92.9807 101.235 92.9608 101.355 92.9508 101.485C95.4247 101.594 97.8886 101.704 100.363 101.814C100.363 101.734 100.363 101.644 100.373 101.564C97.9086 101.415 95.4446 101.255 92.9807 101.105ZM80.0027 100.216L79.4541 100.147C79.2745 101.584 79.095 103.022 78.9154 104.47C79.095 104.49 79.2745 104.52 79.4541 104.54C79.6336 103.102 79.8232 101.664 80.0027 100.216ZM64.6805 52.7791C64.8102 52.7791 64.9498 52.7592 65.0795 52.7492C64.89 50.4227 64.6905 48.0863 64.5009 45.7599C64.4112 45.7599 64.3214 45.7699 64.2416 45.7799C64.3912 48.1163 64.5309 50.4427 64.6805 52.7791ZM67.1943 96.2625C67.1045 96.2625 67.0147 96.2625 66.915 96.2625V99.9169C67.0048 99.9169 67.0945 99.9169 67.1943 99.9169V96.2625ZM64.491 40.468C64.7104 40.458 64.9299 40.448 65.1493 40.4281C65.0496 39.3198 64.9498 38.2115 64.8501 37.1131C64.7304 37.1231 64.6107 37.1331 64.5009 37.1431V40.468H64.491ZM104.093 103.022C103.914 103.012 103.724 103.002 103.545 102.992C103.475 104.41 103.395 105.828 103.325 107.246L103.794 107.276C103.894 105.858 103.994 104.45 104.093 103.032V103.022ZM99.2253 103.022C99.1356 103.022 99.0458 103.012 98.956 103.002V107.346C99.0458 107.346 99.1356 107.346 99.2253 107.346V103.022ZM63.7428 69.0143C61.3886 69.4935 60.8799 69.9329 60.5706 71.6502C61.5083 70.8714 62.6256 69.9428 63.7428 69.0143ZM136.394 65.8591C136.474 65.9889 136.543 66.1087 136.623 66.2385C137.82 65.6993 139.017 65.1702 140.214 64.631C139.017 65.2301 137.291 64.5311 136.394 65.8591ZM105.989 106.976C106.637 105.189 106.338 103.531 105.42 102.902C105.63 103.641 105.879 104.25 105.969 104.879C106.058 105.568 105.989 106.277 105.989 106.976ZM101.649 103.272C101.53 103.252 101.42 103.242 101.3 103.222C101.111 104.65 100.931 106.077 100.742 107.505C100.901 107.525 101.061 107.535 101.21 107.555C101.35 106.127 101.5 104.7 101.639 103.262L101.649 103.272ZM107.355 103.152C107.206 103.152 107.056 103.142 106.896 103.132C106.996 104.35 107.096 105.568 107.206 106.796C107.335 106.786 107.475 106.776 107.605 106.766C107.525 105.558 107.435 104.36 107.355 103.152ZM180.196 161.153C180.256 161.003 180.325 160.854 180.385 160.704L177.163 159.576C177.113 159.705 177.063 159.845 177.024 159.975C178.081 160.364 179.138 160.764 180.196 161.153ZM208.267 123.98C208.277 123.89 208.286 123.8 208.296 123.72C207.069 123.581 205.843 123.441 204.616 123.301C204.606 123.431 204.586 123.561 204.576 123.69C205.803 123.79 207.04 123.89 208.267 123.98ZM199.279 143.999C199.358 143.9 199.438 143.8 199.518 143.7C198.501 142.881 197.483 142.062 196.466 141.244C196.396 141.323 196.326 141.413 196.256 141.493L199.269 143.989L199.279 143.999Z" fill="#555555"/>
<path d="M113.51 24.3327C113.47 23.8934 113.41 23.464 113.4 23.0247C113.311 18.9609 113.361 14.8772 113.081 10.8234C112.922 8.42706 112.353 6.04072 111.774 3.69431C111.346 1.95697 109.69 1.66741 108.213 1.51764C107.296 1.42778 106.308 1.65743 105.4 1.92702C105.041 2.03685 104.822 2.62595 104.552 2.9854C103.804 1.937 102.627 1.83715 101.51 2.09676C97.7491 2.9854 93.9085 3.70429 90.2874 5.01229C85.7985 6.62981 81.4792 8.74657 77.1199 10.7036C73.5986 12.2812 73.6784 12.401 71.8828 16.0054V11.2727C72.3118 11.8718 72.4414 12.0515 72.4714 12.0914C73.4689 11.6621 74.4265 11.2527 75.3742 10.8434C81.0003 8.43704 86.5367 5.76114 92.2925 3.72426C96.3126 2.30644 100.602 1.38784 104.842 0.988455C106.607 0.818715 108.532 -0.0898929 110.418 0.728853C110.548 0.788761 110.837 0.449281 111.066 0.299511C112.433 -0.589128 113.371 0.678929 114.418 0.968486C112.812 6.61983 114.228 12.3211 114.089 17.9824C114.049 19.7996 114.069 21.6268 114.039 23.4441C114.039 23.7336 113.919 24.0332 113.849 24.3227C113.74 24.3227 113.63 24.3227 113.52 24.3227L113.51 24.3327Z" fill="#555555"/>
<path d="M137.581 55.8444C138.02 55.1355 138.359 54.3467 138.908 53.7376C140.773 51.6808 142.688 49.6739 144.633 47.6969C145.352 46.968 145.501 46.4288 144.633 45.7199C143.756 45.001 142.948 44.1823 141.86 43.1938C135.137 48.905 128.284 54.7361 121.441 60.5572C121.401 60.5572 121.351 60.5372 121.311 60.5272C121.939 59.7484 122.458 58.8598 123.206 58.2208C127.984 54.0971 132.793 50.0033 137.631 45.9396C139.187 44.6316 140.863 43.4734 142.339 42.3451C143.606 43.733 144.653 44.8812 145.801 46.1393C149.312 42.7545 151.427 38.1815 155.746 35.4357C156.714 37.4825 157.641 39.4295 158.569 41.3866C158.429 41.4564 158.29 41.5263 158.16 41.5962C157.332 39.8789 156.494 38.1615 155.457 36.0248C153.871 37.7222 152.464 39.1799 151.127 40.6876C147.167 45.1608 143.227 49.6639 139.297 54.167C138.808 54.7261 138.409 55.3751 137.97 55.9742C137.84 55.9243 137.71 55.8843 137.581 55.8344V55.8444Z" fill="#555555"/>
<path d="M157.861 21.8066C153.781 27.2383 120.154 35.6454 113.869 32.8996C129.381 32.4903 144.005 29.2652 157.861 21.8066Z" fill="#555555"/>
<path d="M127.825 47.7268C125.65 47.8067 124.174 47.3474 123.097 45.8996C121.161 43.2836 121.87 40.2882 124.762 38.7107C127.007 37.4825 129.271 37.0432 131.536 38.471C133.172 39.4994 133.87 41.5862 133.431 43.5233C132.932 45.7299 131.117 47.3175 128.663 47.6669C128.244 47.7268 127.805 47.7268 127.835 47.7268H127.825ZM128.523 37.9418C127.286 38.3712 125.88 38.5609 124.832 39.2798C122.528 40.8673 121.421 43.1439 123.665 45.66C125.381 47.5871 128.413 47.8467 130.947 46.1792C132.723 45.021 133.401 43.1738 132.803 41.1968C132.184 39.1899 130.837 38.2214 128.523 37.9418Z" fill="#555555"/>
<path d="M48.4805 125.638C49.7274 126.147 51.0242 126.556 52.2212 127.175C53.6477 127.904 54.7749 129.222 56.7102 128.024C57.5581 127.495 58.9247 127.824 60.0519 127.704C64.082 127.275 68.0123 127.525 71.5536 129.721C73.3691 130.85 75.2644 132.028 76.661 133.595C78.4266 135.582 80.3718 135.712 82.5864 135.093C84.791 134.464 86.5965 135.103 88.3322 136.441C91.0356 138.528 91.8535 142.452 89.4096 144.748C86.9057 147.095 87.4444 149.411 88.0928 152.087C88.4819 153.705 88.821 155.392 88.7711 157.029C88.6415 161.503 88.6016 166.046 86.2474 170.079C85.4593 171.427 84.5316 172.715 83.534 173.924C82.4966 175.172 82.0178 176.22 83.0353 177.838C84.6513 180.404 83.963 183.219 82.5565 185.496C80.5215 188.781 75.3642 188.871 72.7905 185.975C72.0025 185.086 71.384 184.038 70.556 183.189C70.187 182.81 69.4388 182.51 68.93 182.6C62.2465 183.739 56.0219 182.75 50.4556 178.696C49.3084 177.858 48.4805 177.808 47.0739 178.467C44.9292 179.475 41.767 177.947 40.3705 175.771C40.0113 175.212 39.6023 174.682 39.2632 174.103C39.0836 173.784 38.8442 173.354 38.924 173.055C39.1934 172.006 39.3929 170.858 39.9914 170C41.2383 168.192 40.9989 166.495 40.2907 164.598C38.4153 159.566 37.7768 154.344 38.3155 148.992C38.7544 144.678 40.141 140.674 42.0663 136.81C42.3955 136.161 42.4453 135.163 42.2059 134.464C41.5077 132.417 40.969 130.5 42.1062 128.393C43.1536 126.446 46.7148 124.819 48.5004 125.667C47.0141 126.297 45.428 126.756 44.0913 127.605C43.3731 128.064 42.6847 129.202 42.6947 130.021C42.7247 131.708 43.2932 133.386 43.5127 135.083C43.6025 135.762 43.4928 136.551 43.2234 137.18C42.565 138.717 41.6573 140.145 41.0288 141.693C37.9963 149.191 38.5549 156.72 41.3081 164.119C42.0762 166.185 42.1261 167.833 40.8493 169.6C39.8916 170.928 39.9515 172.366 40.7794 173.794C40.9889 174.163 41.1585 174.573 41.2782 174.982C41.7969 176.879 43.4329 177.987 45.3681 177.628C46.1562 177.478 46.9143 177.119 47.7024 176.929C48.1213 176.829 48.66 176.769 49.0191 176.949C50.4855 177.648 51.922 178.407 53.3385 179.205C58.6454 182.211 64.2217 181.971 69.8877 180.783C70.8852 182.091 71.9227 183.459 72.9701 184.827C74.5063 186.834 77.7383 187.253 79.7534 185.715C81.938 184.038 82.9056 180.214 81.7684 177.668C81.6786 177.468 81.4791 177.179 81.3095 177.169C79.893 177.099 80.302 176.35 80.7609 175.671C81.9879 173.854 83.4343 172.166 84.4817 170.259C86.4967 166.605 87.2349 162.581 87.604 158.427C87.9232 154.863 86.7162 151.558 86.3272 148.123C86.1775 146.775 85.3196 145.178 87.604 144.758C87.6838 144.748 87.7636 144.638 87.7936 144.559C88.4619 142.991 89.2699 141.473 88.9806 139.656C88.7113 137.949 86.5666 135.582 85.2299 135.842C83.1749 136.241 80.8507 135.932 79.3643 137.959C78.8057 137.34 78.3867 136.9 77.9777 136.431C74.1173 131.968 69.4587 129.242 63.3837 128.982C60.5607 128.863 57.8374 128.843 55.1241 129.651C54.7151 129.771 54.0966 129.601 53.7176 129.342C51.9419 128.154 50.2162 126.886 48.4705 125.647L48.4805 125.638Z" fill="#555555"/>
<path d="M104.522 129.661C102.757 130.55 100.981 131.429 99.2154 132.317C99.1157 132.138 99.0159 131.958 98.9162 131.778C100.243 131.079 101.57 130.37 102.886 129.671C102.856 129.611 102.836 129.552 102.807 129.492C101.54 130.061 100.273 130.63 99.0059 131.209C98.9261 131.039 98.8364 130.869 98.7566 130.7C100.343 129.871 101.919 129.032 103.724 128.084C103.106 126.965 102.497 125.757 101.759 124.629C101.659 124.479 100.821 124.629 100.482 124.859C99.2453 125.747 98.0982 126.776 96.8612 127.674C96.542 127.904 95.9535 128.054 95.6143 127.934C85.5292 124.19 75.454 120.406 65.3788 116.621C56.6503 113.346 47.9219 110.061 39.1934 106.776C38.8243 106.637 38.4851 106.417 38.136 106.237L38.3554 105.718C57.588 112.867 76.8306 120.026 95.8637 127.105C97.3799 125.767 98.7565 124.559 100.203 123.271C87.7936 118.588 75.5338 113.955 63.264 109.322C63.3139 109.183 63.3638 109.043 63.4137 108.903C64.8801 109.412 66.3065 110.131 67.8029 110.401C71.6334 111.08 74.7956 113.386 78.4466 114.515C82.2373 115.683 85.9381 117.121 89.669 118.468C92.8611 119.627 96.2028 120.505 99.1655 122.093C101.36 123.271 103.146 122.772 105.171 122.253C106.607 121.883 108.074 121.644 109.53 121.364C109.69 121.334 109.869 121.404 110.388 121.484C107.655 122.552 104.802 122.392 102.657 124.3C104.004 125.957 105.221 127.505 104.492 129.671L104.512 129.651L104.522 129.661Z" fill="#555555"/>
<path d="M104.502 129.681C104.782 130.061 105.33 130.45 105.31 130.81C104.742 139.676 104.113 148.552 103.495 157.419C103.425 158.487 103.355 159.556 103.285 160.634C103.056 160.624 102.826 160.604 102.597 160.594C103.235 150.29 103.874 139.986 104.522 129.671L104.502 129.691V129.681Z" fill="#555555"/>
<path d="M96.8213 162.841C97.3999 152.786 97.9685 142.741 98.547 132.687C98.8363 132.707 99.1156 132.727 99.4049 132.747C98.7066 142.801 98.0183 152.856 97.3201 162.91C97.1505 162.891 96.9909 162.871 96.8213 162.841Z" fill="#555555"/>
<path d="M48.4605 104.45C45.009 103.052 41.5675 101.654 38.116 100.256L38.3355 99.6973C41.777 101.135 45.2185 102.563 48.66 104.001C48.5902 104.15 48.5304 104.3 48.4605 104.45Z" fill="#555555"/>
<path d="M103.505 91.9292C102.398 92.029 101.29 92.1289 100.183 92.2287C100.183 92.3086 100.183 92.3984 100.183 92.4783C101.28 92.4184 102.378 92.3585 103.844 92.2686C97.779 95.6734 63.4536 87.2364 60.86 81.9944C67.0148 86.5674 74.3767 87.9852 81.539 89.9123C83.6438 90.4814 85.8085 90.7909 87.9632 91.1404C80.7011 88.1649 72.4714 88.2149 65.6681 83.7217C65.8577 83.7317 66.0771 83.6818 66.2268 83.7617C70.6159 86.168 75.4341 87.1964 80.2522 88.2448C82.756 88.784 85.2 89.6726 87.7038 90.1719C90.3672 90.711 93.0706 91.1204 95.7839 91.3201C98.3276 91.5098 100.901 91.36 103.465 91.36C103.475 91.5398 103.485 91.7295 103.505 91.9092V91.9292Z" fill="#555555"/>
<path d="M174.4 96.9115C173.752 96.3923 172.694 95.963 172.575 95.3439C172.455 94.7049 173.203 93.8562 173.682 93.1872C173.861 92.9376 174.36 92.8877 174.729 92.8178C176.186 92.5482 177.742 93.2671 177.852 94.3555C178.001 95.9131 176.694 96.1028 175.637 96.4622C175.328 96.5721 174.989 96.5721 174.659 96.632C174.58 96.7218 174.49 96.8217 174.41 96.9115H174.4ZM176.984 95.5436C176.974 95.334 176.964 95.1243 176.944 94.9146C175.946 94.0759 174.849 94.1158 173.752 94.7748C173.532 94.9046 173.383 95.324 173.393 95.6035C173.393 95.7533 173.831 96.0229 174.041 96.0029C175.029 95.9031 175.996 95.7134 176.974 95.5536L176.984 95.5436Z" fill="#555555"/>
<path d="M143.825 107.575C143.396 107.535 142.918 107.615 142.559 107.445C142.13 107.236 141.581 106.886 141.471 106.487C141.361 106.088 141.601 105.448 141.9 105.109C142.778 104.101 145.102 103.751 146.319 104.33C147.397 104.849 147.656 105.888 146.708 106.597C145.92 107.186 144.883 107.445 143.955 107.855C143.915 107.765 143.865 107.675 143.825 107.585V107.575ZM146.11 106.307C144.803 105.419 143.736 105.518 142.708 106.617C144.135 107.535 145.092 107.445 146.11 106.307ZM146.549 105.229C145.611 104.17 143.267 104.36 142.409 105.498C143.686 105.419 145.182 105.319 146.549 105.229Z" fill="#555555"/>
<path d="M106.458 91.8194C109.301 91.5598 112.134 91.3101 114.977 91.0505C114.986 91.2103 115.006 91.3601 115.016 91.5198C112.163 91.7994 109.32 92.079 106.467 92.3485V91.8094L106.458 91.8194Z" fill="#555555"/>
<path d="M140.703 142.532C141.122 135.103 141.541 127.684 141.96 120.256C142.14 120.256 142.309 120.276 142.489 120.286C142.11 127.724 141.731 135.163 141.352 142.602C141.132 142.582 140.923 142.552 140.703 142.532Z" fill="#555555"/>
<path d="M92.093 215.29C91.3448 215.859 90.5867 216.419 89.8485 216.988C88.6714 217.906 87.5641 217.746 86.9756 216.359C86.4269 215.041 86.1077 213.623 85.7586 212.235C85.6987 211.995 85.8883 211.516 86.0977 211.406C88.1627 210.338 90.2475 209.329 92.6715 208.461C92.1229 209.779 91.5842 211.107 90.9358 212.674C91.684 212.345 92.2526 211.945 92.8511 211.885C93.5893 211.816 94.6866 211.736 95.0457 212.155C97.5395 215.071 98.3276 219.903 95.0457 222.449C93.8287 223.398 92.1428 223.737 90.6665 224.356C91.6042 226.573 95.1355 227.721 98.1081 226.453C102.088 224.756 104.183 221.201 103.874 216.199C103.764 214.412 103.305 212.604 102.737 210.897C101.989 208.66 100.363 208.001 98.0483 208.66C97.6792 208.76 97.2602 208.7 96.8612 208.71C96.8612 208.301 96.7615 207.872 96.8612 207.482C97.2303 205.945 97.6792 204.427 98.0583 202.899C98.3276 201.831 97.8687 201.461 96.8213 201.751C96.0532 201.961 95.2851 202.14 94.3374 202.001C94.5768 201.801 94.7963 201.541 95.0756 201.431C95.325 201.332 95.6542 201.451 95.9235 201.382C99.5247 200.423 98.8364 201.771 98.3775 204.157C98.1181 205.495 97.6094 206.783 97.1505 208.291C97.7291 208.151 98.0882 208.061 98.4373 207.981C100.502 207.532 102.348 208.391 103.126 210.328C104.433 213.583 105.071 216.968 104.103 220.432C102.946 224.576 99.4648 227.422 95.5345 227.551C92.9708 227.631 91.2151 226.243 89.8186 224.276C89.659 224.047 89.6989 223.667 89.629 223.278C89.9782 223.248 90.2076 223.188 90.4271 223.208C94.497 223.608 97.3001 220.512 96.4223 216.498C96.1929 215.44 95.6243 214.462 95.2053 213.443C94.6866 212.165 93.7788 212.025 92.6416 212.584C91.8037 212.994 90.9857 213.423 89.8485 213.583C90.5468 212.115 91.255 210.647 91.9433 209.19C90.2375 209.968 88.5916 210.697 86.9656 211.486C86.6763 211.626 86.2574 212.055 86.3072 212.255C86.6165 213.553 86.9257 214.871 87.4544 216.089C87.9033 217.117 88.7512 217.267 89.6689 216.478C90.2874 215.949 90.9159 215.44 91.5842 214.971C91.8336 214.801 92.3823 214.661 92.4621 214.761C92.6616 215.021 92.8312 215.49 92.7214 215.76C92.3124 216.828 91.9533 217.966 91.275 218.855C90.068 220.442 88.7412 221.98 87.2848 223.338C85.7885 224.736 84.5615 224.436 83.7037 222.539C82.9755 220.932 82.4767 219.224 81.9081 217.547C81.0302 214.931 79.3577 214.252 76.8905 215.51C76.5613 215.68 76.2221 215.829 75.7233 216.059C75.444 215.101 75.0749 214.262 74.9851 213.393C74.9353 212.954 75.3044 212.365 75.6435 212.005C75.9927 211.646 76.5613 211.506 77.0201 211.256C79.5738 209.899 79.5639 209.898 79.2945 206.973C79.115 204.956 80.9704 205.216 82.0178 204.627C82.9655 204.097 83.2248 205.036 83.5341 205.645C84.4219 207.372 84.372 207.312 86.0578 206.354C88.5018 204.966 90.9957 203.668 93.4696 202.33L93.9085 202.749C93.5294 202.959 93.1504 203.179 92.7813 203.388C90.1478 204.856 87.5342 206.354 84.8807 207.782C83.7037 208.421 83.574 207.223 83.3745 206.643C82.8557 205.146 81.928 204.926 80.7709 205.715C80.2921 206.044 79.903 206.813 79.8731 207.392C79.8332 208.261 80.1325 209.16 80.2821 209.978C78.7758 210.807 77.2296 211.426 76.0026 212.435C75.5138 212.834 75.7134 214.082 75.6036 214.941C75.7932 215.021 75.9727 215.111 76.1622 215.19C77.7384 214.382 79.3145 213.573 80.7809 212.824C81.938 216.089 82.9555 219.234 84.1725 222.3C84.8309 223.947 85.7287 224.047 87.0055 222.869C89.2699 220.782 91.3049 218.525 92.0431 215.24L92.093 215.29Z" fill="#555555"/>
<path d="M109.311 199.305C109.809 195.461 110.318 191.617 110.817 187.772C110.937 187.782 111.056 187.802 111.176 187.812C110.717 191.657 110.248 195.501 109.789 199.335L109.311 199.295V199.305Z" fill="#555555"/>
<path d="M185.563 122.572C185.503 121.344 185.433 120.116 185.383 118.888C185.333 117.55 185.892 116.571 187.159 116.072C188.505 115.543 189.852 115.034 191.209 114.515C191.278 114.684 191.338 114.854 191.408 115.024C190.65 115.293 189.912 115.603 189.144 115.823C186.151 116.661 185.862 117.071 186.071 120.066C186.131 120.895 186.071 121.734 186.071 122.562C185.902 122.562 185.732 122.562 185.563 122.562V122.572Z" fill="#555555"/>
<path d="M198.371 118.868C198.561 116.941 198.76 115.004 198.95 113.077C199.189 113.097 199.428 113.127 199.668 113.147C199.478 115.074 199.289 117.011 199.109 118.938C198.86 118.918 198.62 118.888 198.371 118.868Z" fill="#555555"/>
<path d="M203.089 110.98C200.905 111.769 198.73 112.568 196.545 113.356L196.346 112.827C198.511 111.999 200.675 111.17 202.84 110.331C202.92 110.541 203.01 110.76 203.089 110.97V110.98Z" fill="#555555"/>
<path d="M186.77 119.197C188.036 118.628 189.293 118.069 190.56 117.5C190.64 117.7 190.72 117.909 190.8 118.109C189.503 118.598 188.216 119.098 186.919 119.587C186.869 119.457 186.819 119.327 186.77 119.197Z" fill="#555555"/>
<path d="M147.038 182.57C146.788 185.127 144.434 185.466 142.788 186.524C142.678 186.594 141.9 186.035 141.89 185.766C141.87 184.477 142.02 183.189 142.09 181.911C142.289 178.147 142.479 174.373 142.678 170.609C142.698 170.299 142.738 169.98 142.768 169.67C142.918 169.67 143.077 169.69 143.227 169.7C143.007 175.092 142.778 180.484 142.539 186.205C144.005 185.226 145.242 184.398 146.479 183.569C146.379 183.409 146.289 183.249 146.19 183.08C145.461 183.439 144.733 183.799 144.015 184.158C142.908 182.221 143.895 178.646 145.94 178.187C143.965 179.565 144.215 181.322 144.244 183.01C145.262 182.86 146.15 182.73 147.028 182.6V182.58L147.038 182.57Z" fill="#555555"/>
<path d="M133.95 190.398C132.723 190.917 131.286 191.527 129.86 192.136C129.8 192.026 129.74 191.926 129.68 191.816C130.089 191.566 130.468 191.227 130.917 191.077C132.563 190.548 132.892 189.4 132.962 187.772C133.142 183.569 133.571 179.375 133.89 175.182C133.94 174.572 133.97 173.963 134.269 173.304C134.309 174.043 134.419 174.782 134.369 175.511C134.099 179.904 133.77 184.288 133.511 188.681C133.481 189.12 133.73 189.57 133.96 190.398H133.95Z" fill="#555555"/>
<path d="M127.945 193.114C127.665 192.585 127.276 192.206 127.296 191.846C127.476 187.693 127.715 183.549 127.935 179.395C127.994 178.167 128.054 176.939 128.114 175.711C128.244 175.711 128.373 175.711 128.503 175.711C128.324 181.402 128.144 187.103 127.955 193.104L127.945 193.114Z" fill="#555555"/>
<path d="M146.738 169.64C143.676 170.818 144.633 173.384 144.484 175.751C145.332 175.611 145.96 175.501 146.838 175.361C146.758 176.27 146.688 177.019 146.619 177.768C146.509 177.768 146.409 177.768 146.299 177.758V176.08C145.521 176.35 144.883 176.58 144.095 176.849C143.576 174.712 143.895 172.626 144.464 170.659C144.613 170.139 145.96 169.98 146.758 169.65H146.748L146.738 169.64Z" fill="#555555"/>
<path d="M130.768 189.38C130.808 188.691 130.867 188.002 130.867 187.313C130.887 183.918 130.917 180.533 130.887 177.139C130.887 176.629 130.558 176.12 130.219 175.162C130.708 175.561 131.296 175.811 131.336 176.13C131.466 177.059 131.376 178.027 131.376 178.976C131.346 182.121 131.326 185.266 131.286 188.421C131.286 188.741 131.217 189.05 131.177 189.37C131.037 189.37 130.897 189.37 130.758 189.37L130.768 189.38Z" fill="#555555"/>
<path d="M129.401 190.199C129.202 189.789 128.902 189.48 128.922 189.19C129.122 185.047 129.361 180.903 129.601 176.769C129.75 176.769 129.91 176.779 130.059 176.789C129.85 181.193 129.63 185.596 129.411 190.209L129.401 190.199Z" fill="#555555"/>
<path d="M146.758 169.65C146.708 168.911 146.659 168.172 146.609 167.274C145.521 167.673 144.574 168.023 143.636 168.362L143.486 168.003C144.663 167.443 145.851 166.874 147.028 166.315L147.496 166.535C147.247 167.573 146.998 168.612 146.758 169.64H146.768L146.758 169.65Z" fill="#555555"/>
<path d="M133.251 172.945C131.905 173.454 130.568 173.963 129.221 174.463C129.172 174.343 129.122 174.233 129.072 174.113C130.389 173.544 131.705 172.975 133.022 172.406C133.092 172.585 133.172 172.765 133.242 172.945H133.251Z" fill="#555555"/>
<path d="M204.037 140.285C201.074 140.035 199.408 138.298 198.401 136.072C197.593 134.304 198.7 130.81 200.197 129.661C200.725 129.262 201.284 128.883 201.852 128.543C203.778 127.365 206.341 127.874 207.748 129.691C210.052 132.677 209.853 136.151 207.06 138.678C206.242 139.416 205.055 139.766 204.047 140.295L204.037 140.285ZM203.269 134.544C203.269 134.544 203.359 134.544 203.409 134.554C203.349 135.552 203.219 136.561 203.279 137.559C203.299 137.909 203.748 138.498 204.047 138.528C206.262 138.727 208.127 137.15 208.466 134.903C208.845 132.357 207.249 129.392 205.264 128.952C204.376 128.753 203.738 128.923 203.648 129.981C203.528 131.499 203.399 133.026 203.279 134.544H203.269ZM201.433 138.218C199.398 135.303 200.346 132.637 201.364 130.001C201.503 129.651 201.862 129.392 202.411 128.753C200.157 129.851 199.009 131.369 198.83 133.356C198.66 135.293 198.989 137.2 201.433 138.228V138.218ZM202.77 130.141C200.705 132.437 200.326 135.393 201.783 136.731C202.102 134.604 202.421 132.517 202.77 130.141Z" fill="#555555"/>
<path d="M94.2477 107.156V103.212C94.3477 103.212 94.4477 103.212 94.5377 103.212V107.106C94.4377 107.116 94.3377 107.136 94.2477 107.146V107.156Z" fill="#555555"/>
<path d="M45.8569 155.122C45.9866 148.423 47.9717 143.261 52.0118 138.847C54.5555 136.082 57.8075 135.552 61.249 135.343C66.7155 135.013 71.3441 137 74.9752 140.914C77.858 144.019 79.2746 147.993 79.7633 152.217C80.0626 154.773 80.1324 157.359 80.302 159.925C80.312 160.115 80.302 160.314 80.2521 160.494C78.8556 165.836 75.5936 169.73 70.7755 172.236C64.7803 175.361 59.1641 173.944 53.7475 170.509C47.7622 166.715 46.3856 160.764 45.8669 155.122H45.8569ZM46.7747 154.114C46.645 154.154 46.5053 154.184 46.3757 154.224C47.034 157.049 47.3333 160.015 48.4206 162.661C50.6751 168.152 55.0443 171.338 60.7801 172.725C65.8975 173.964 70.3765 172.446 74.0175 169.021C78.4566 164.837 80.2521 159.605 79.075 153.385C78.4865 150.28 78.0376 147.354 76.0625 144.628C71.8628 138.857 66.7055 135.413 59.3337 136.411C57.6279 136.641 55.7226 137.08 54.4059 138.078C49.1388 142.052 46.7148 147.534 46.7647 154.124L46.7747 154.114Z" fill="#555555"/>
<path d="M63.6231 144.589C66.6756 144.099 68.4113 146.146 69.8877 148.023C73.3192 152.357 72.3217 159.116 69.1296 162.441C64.4711 167.304 56.3211 165.796 53.7674 158.078C52.6801 154.793 53.129 151.538 54.9745 148.782C56.9596 145.827 59.9821 144.269 63.6132 144.589H63.6231ZM62.4261 145.727C60.441 145.587 58.6554 146.915 57.2289 148.373C53.6777 152.007 53.4582 155.801 56.2413 160.085C57.5681 162.112 59.3936 163.789 61.8076 163.969C63.5932 164.099 65.718 163.739 67.2143 162.831C69.7979 161.263 71.0548 158.607 70.7556 155.472C70.6159 154.054 70.3166 152.626 69.9077 151.258C68.8702 147.754 66.0571 145.627 62.4061 145.727H62.4261Z" fill="#555555"/>
</g>
<defs>
<clipPath id="clip0_10685_460204">
<rect width="215" height="235" fill="white"/>
</clipPath>
</defs>
</svg>
