<svg width="22" height="22" viewBox="0 0 22 22" fill="none" xmlns="http://www.w3.org/2000/svg">
<g clip-path="url(#clip0_7722_158475)">
<path d="M0.936895 0H21.0631C21.2449 6.5351e-05 21.4227 0.059957 21.575 0.172378C21.7272 0.2848 21.8473 0.444898 21.9205 0.633169C21.9938 0.82144 22.0171 1.02975 21.9876 1.23274C21.958 1.43572 21.877 1.6246 21.7543 1.77638L13.7657 11.8276C13.6055 12.0216 13.5174 12.2779 13.5196 12.5434V19.1133C11.423 20.6763 11.464 20.7307 9.99559 21.8252C9.85497 21.93 9.69199 21.99 9.52379 21.9988C9.35559 22.0077 9.18839 21.9652 9.03975 21.8757C8.89111 21.7861 8.76653 21.6529 8.67911 21.4901C8.59168 21.3272 8.54465 21.1407 8.54294 20.9502V12.5434C8.5452 12.2779 8.45711 12.0216 8.29693 11.8276L0.245716 1.77638C0.123009 1.6246 0.0419581 1.43572 0.0124389 1.23274C-0.0170802 1.02975 0.00620607 0.82144 0.079461 0.633169C0.152716 0.444898 0.272777 0.2848 0.425018 0.172378C0.577258 0.059957 0.755106 6.5351e-05 0.936895 0Z" fill="#86889D"/>
</g>
<defs>
<clipPath id="clip0_7722_158475">
<rect width="22" height="22" fill="white"/>
</clipPath>
</defs>
</svg>
