<svg width="36" height="36" viewBox="0 0 36 36" fill="none" xmlns="http://www.w3.org/2000/svg">
<path fill-rule="evenodd" clip-rule="evenodd" d="M18 36C27.9411 36 36 27.9411 36 18C36 8.05887 27.9411 0 18 0C8.05887 0 0 8.05887 0 18C0 27.9411 8.05887 36 18 36ZM15.9265 9.43934C15.257 8.85355 14.1716 8.85355 13.5021 9.43934C12.8326 10.0251 12.8326 10.9749 13.5021 11.5607L20.8613 18L13.5021 24.4393C12.8326 25.0251 12.8326 25.9749 13.5021 26.5607C14.1716 27.1464 15.257 27.1464 15.9265 26.5607L24.4979 19.0607C25.1674 18.4749 25.1674 17.5251 24.4979 16.9393L15.9265 9.43934Z" fill="#6D75F4"/>
</svg>
