<svg width="26" height="26" viewBox="0 0 26 26" fill="none" xmlns="http://www.w3.org/2000/svg">
<g clip-path="url(#clip0_8444_190263)">
<path fill-rule="evenodd" clip-rule="evenodd" d="M13.0044 7.22717C11.8627 7.22624 10.7463 7.56389 9.79652 8.19742C8.84671 8.83094 8.1061 9.73189 7.66833 10.7863C7.23056 11.8408 7.1153 13.0014 7.33713 14.1213C7.55895 15.2413 8.1079 16.2703 8.91455 17.0782C9.7212 17.8862 10.7493 18.4368 11.8689 18.6605C12.9885 18.8841 14.1493 18.7707 15.2044 18.3347C16.2596 17.8986 17.1617 17.1595 17.7968 16.2107C18.4319 15.2619 18.7713 14.1461 18.7723 13.0044C18.7729 12.2464 18.6242 11.4956 18.3346 10.795C18.0451 10.0944 17.6204 9.4577 17.0848 8.92123C16.5492 8.38476 15.9132 7.95904 15.2131 7.66837C14.513 7.37771 13.7624 7.22778 13.0044 7.22717ZM13.0044 15.6305C12.485 15.6305 11.9773 15.4764 11.5454 15.1879C11.1136 14.8993 10.777 14.4892 10.5782 14.0094C10.3795 13.5295 10.3275 13.0015 10.4288 12.4921C10.5301 11.9827 10.7802 11.5148 11.1475 11.1475C11.5148 10.7803 11.9827 10.5302 12.4921 10.4289C13.0015 10.3275 13.5295 10.3795 14.0093 10.5783C14.4892 10.7771 14.8993 11.1136 15.1878 11.5455C15.4764 11.9773 15.6304 12.485 15.6304 13.0044C15.6304 13.7009 15.3537 14.3688 14.8613 14.8613C14.3688 15.3538 13.7008 15.6305 13.0044 15.6305Z" fill="#8A90FF"/>
<path fill-rule="evenodd" clip-rule="evenodd" d="M20.2009 1H5.8C5.16962 0.999877 4.54539 1.12395 3.96297 1.36513C3.38056 1.60631 2.85136 1.95987 2.40561 2.40561C1.95987 2.85136 1.60631 3.38056 1.36513 3.96297C1.12395 4.54539 0.999877 5.16962 1 5.8V20.2C0.999877 20.8304 1.12395 21.4546 1.36513 22.037C1.60631 22.6194 1.95987 23.1486 2.40561 23.5944C2.85136 24.0401 3.38056 24.3937 3.96297 24.6349C4.54539 24.8761 5.16962 25.0001 5.8 25H20.2C20.8304 25.0001 21.4546 24.8761 22.037 24.6349C22.6194 24.3937 23.1486 24.0401 23.5944 23.5944C24.0401 23.1486 24.3937 22.6194 24.6349 22.037C24.8761 21.4546 25.0001 20.8304 25 20.2V5.8C25.0001 5.1697 24.8761 4.54555 24.635 3.96319C24.3938 3.38083 24.0404 2.85168 23.5947 2.40594C23.1491 1.96021 22.62 1.60663 22.0377 1.3654C21.4554 1.12416 20.8312 1 20.2009 1ZM20.7411 17.2392C20.9115 17.3637 21.0551 17.5211 21.1635 17.7021C21.272 17.8831 21.3431 18.0839 21.3727 18.2929C21.4022 18.5018 21.3896 18.7145 21.3355 18.9184C21.2815 19.1224 21.1872 19.3135 21.0581 19.4803C20.929 19.6472 20.7677 19.7866 20.5839 19.8901C20.4001 19.9936 20.1973 20.0593 19.9877 20.0832C19.7781 20.1071 19.5658 20.0887 19.3634 20.0292C19.1609 19.9697 18.9725 19.8702 18.8091 19.7367C18.7923 19.7236 18.7763 19.7095 18.7604 19.6954C18.6712 19.6151 18.5567 19.5685 18.4367 19.5639C18.3167 19.5593 18.199 19.5968 18.1039 19.6701C16.638 20.7924 14.8433 21.4005 12.9972 21.4005C11.1511 21.4005 9.35635 20.7924 7.8905 19.6701C7.79533 19.597 7.67758 19.5595 7.55768 19.5642C7.43777 19.5688 7.32326 19.6152 7.234 19.6954L7.18523 19.7367C7.02188 19.8702 6.83344 19.9697 6.63101 20.0292C6.42859 20.0887 6.21629 20.1071 6.00666 20.0832C5.79703 20.0593 5.5943 19.9936 5.41047 19.8901C5.22663 19.7866 5.0654 19.6472 4.9363 19.4803C4.80721 19.3135 4.71286 19.1224 4.65882 18.9184C4.60479 18.7145 4.59218 18.5018 4.62172 18.2929C4.65126 18.0839 4.72236 17.8831 4.83082 17.7021C4.93929 17.5211 5.08292 17.3637 5.25322 17.2392C5.34779 17.1696 5.41517 17.0693 5.44376 16.9555C5.47235 16.8417 5.46035 16.7214 5.40985 16.6155C4.87264 15.4857 4.5939 14.2505 4.5939 12.9995C4.5939 11.7486 4.87264 10.5133 5.40985 9.38359C5.45969 9.27647 5.47067 9.15533 5.44089 9.041C5.4111 8.92667 5.34243 8.82628 5.24666 8.75709C5.22978 8.74521 5.2129 8.73208 5.19601 8.7177C4.87255 8.46596 4.65962 8.09832 4.60222 7.69248C4.54482 7.28663 4.64745 6.87436 4.88843 6.5428C5.1294 6.21123 5.48984 5.98633 5.89358 5.91562C6.29733 5.84492 6.71274 5.93395 7.05205 6.16389C7.11776 6.20809 7.18043 6.25666 7.23962 6.30926C7.32843 6.38745 7.44169 6.43228 7.55995 6.43604C7.67821 6.43981 7.79409 6.40228 7.88769 6.32989C9.35353 5.20763 11.1482 4.59948 12.9944 4.59948C14.8405 4.59948 16.6352 5.20763 18.1011 6.32989C18.1962 6.40315 18.3139 6.44074 18.4339 6.43611C18.5539 6.43149 18.6684 6.38494 18.7576 6.30457L18.8063 6.26331C19.1197 5.99942 19.5233 5.86759 19.9319 5.89566C20.3406 5.92373 20.7224 6.10949 20.9967 6.41374C21.271 6.71798 21.4164 7.11691 21.4021 7.52631C21.3879 7.93571 21.2151 8.32355 20.9203 8.60797C20.8635 8.6648 20.8027 8.71746 20.7383 8.76553C20.6438 8.83489 20.5765 8.93503 20.5479 9.04871C20.5193 9.16238 20.5313 9.28247 20.5817 9.38828C21.1189 10.5179 21.3976 11.7529 21.3976 13.0038C21.3976 14.2546 21.1189 15.4896 20.5817 16.6192C20.5323 16.7255 20.5211 16.8456 20.55 16.9593C20.5788 17.0729 20.646 17.1731 20.7402 17.2429L20.7411 17.2392Z" fill="#8A90FF"/>
</g>
<defs>
<clipPath id="clip0_8444_190263">
<rect width="24" height="24" fill="white" transform="translate(1 1)"/>
</clipPath>
</defs>
</svg>
