<svg width="20" height="20" viewBox="0 0 20 20" fill="none" xmlns="http://www.w3.org/2000/svg">
<g clip-path="url(#clip0_8677_262463)">
<path fill-rule="evenodd" clip-rule="evenodd" d="M7.48382 1.37298C7.67034 0.536847 8.34892 0 9.20441 0H10.8043C11.6542 0 12.3297 0.539729 12.5159 1.37167L12.8743 2.87581C12.9373 2.90071 12.9996 2.92611 13.0611 2.95204L14.4048 2.12296L14.4203 2.11443C15.1302 1.7247 15.9158 1.82813 16.5006 2.35728L16.5125 2.36807L17.6566 3.50335L17.6587 3.50542C18.2885 4.12239 18.3275 4.9845 17.8946 5.6792L17.0962 7.00042C17.1194 7.05552 17.1429 7.11289 17.1662 7.17229L18.6383 7.5281C19.4815 7.71738 20 8.41115 20 9.23938V10.8131C20 11.2135 19.8816 11.6004 19.6319 11.916C19.3825 12.2311 19.0325 12.4364 18.6358 12.5249L17.1476 12.8743C17.126 12.9299 17.1038 12.9853 17.081 13.0403L17.8714 14.3203C18.3304 15.0251 18.2499 15.9209 17.6537 16.5171L16.5259 17.6449C15.9255 18.2453 15.0493 18.3081 14.3608 17.8748L13.0586 17.0724C12.9951 17.0989 12.931 17.1249 12.8661 17.1504L12.516 18.6279C12.33 19.4601 11.6544 20 10.8043 20H9.20441C8.34919 20 7.67077 19.4635 7.484 18.6278L7.13391 17.1504C7.06936 17.125 7.00554 17.0991 6.94245 17.0728L5.64653 17.8757C4.95432 18.3048 4.07801 18.2488 3.47415 17.6449L3.47223 17.643L2.35658 16.5186C1.7494 15.9219 1.66991 15.0247 2.12854 14.3204L2.91898 13.0403C2.89624 12.9853 2.874 12.9299 2.85241 12.8743L1.36419 12.5249C0.96751 12.4364 0.61748 12.2311 0.368075 11.916C0.118365 11.6004 0 11.2135 0 10.8131V9.23938C0 8.41115 0.518505 7.71738 1.36171 7.5281L2.83799 7.17128C2.8605 7.11365 2.88302 7.05759 2.90539 7.00312L2.10537 5.6792C1.67254 4.98453 1.71153 4.12246 2.34122 3.5055L3.48717 2.36837L3.49877 2.35785C3.77944 2.10329 4.1189 1.93179 4.49897 1.88764C4.87879 1.84352 5.24827 1.93248 5.57969 2.11443L5.59475 2.12271L6.92748 2.9423C6.99603 2.91355 7.06525 2.88589 7.13492 2.8593L7.48382 1.37298ZM6.25109 9.99126C6.25109 7.93477 7.93737 6.25109 10 6.25109C12.0701 6.25109 13.7577 7.93347 13.7577 9.99126C13.7577 12.0613 12.0753 13.7577 10 13.7577C7.93219 13.7577 6.25109 12.06 6.25109 9.99126Z" fill="#6D75F4"/>
</g>
<defs>
<clipPath id="clip0_8677_262463">
<rect width="20" height="19.9999" fill="white"/>
</clipPath>
</defs>
</svg>
