<svg width="40" height="40" viewBox="0 0 40 40" fill="none" xmlns="http://www.w3.org/2000/svg">
<g clip-path="url(#clip0_6248_45287)">
<rect width="40" height="40" rx="20" fill="white"/>
<circle cx="20" cy="20" r="20" fill="#0F61FF"/>
<path d="M29.7791 26.5931C29.6572 24.4345 28.4864 22.5076 26.2912 20.8734C25.5961 20.3612 24.4741 19.6295 22.9374 18.9953L29.084 12.8244V11.9585C29.084 11.617 28.7913 11.3243 28.4498 11.3243H17.0104V6.15344L11.7786 7.25104V8.67791H12.4493C12.6444 8.67791 13.0957 8.75108 13.0957 9.32427V11.2999H10.1322C9.83948 11.2999 9.58337 11.556 9.58337 11.8487V13.8H13.1079V21.6539C13.1079 23.093 13.5957 24.3369 14.486 25.154C15.3884 25.9833 16.669 26.3614 18.1568 26.2394C18.791 26.1906 19.4251 25.9589 20.0471 25.5565C20.3886 25.3248 20.5959 24.9589 20.5959 24.5564V22.9466L19.9373 23.3857C19.1324 23.9223 18.4373 23.9101 18.4373 23.9101H18.4129C18.0592 23.9101 17.7787 23.8003 17.5592 23.5808C17.0226 23.032 17.0226 21.9954 17.0226 21.9832V13.8H24.1082L18.5593 19.3856V19.5563C18.5471 20.1905 18.5349 20.7149 18.5349 20.9222C18.5349 20.9832 18.5349 21.0197 18.5349 21.0319C18.5349 21.2759 18.7056 21.471 18.9495 21.4954C24.5594 22.4466 25.7302 26.0565 25.7302 26.7272V26.776C25.7302 26.8004 25.9619 28.9224 24.7424 30.3981C24.035 31.2396 22.974 31.7274 21.5959 31.8128C21.5837 31.8128 20.7666 31.8493 19.9008 31.7152C19.0959 31.5932 18.5105 31.3859 18.2056 31.1054C18.7422 30.7274 19.0471 30.1542 19.0471 29.4834C19.0471 28.1175 18.1324 27.2394 16.7299 27.2394C15.4616 27.2394 14.425 28.2395 14.4128 29.459C14.4006 29.6785 14.3396 31.0201 15.425 32.2152C16.5714 33.4835 18.5471 34.1177 21.291 34.1177C21.3886 34.1177 21.4984 34.1177 21.5959 34.1177C24.4009 34.0689 26.5473 33.2518 27.9742 31.6908C29.9498 29.5444 29.7913 26.7638 29.7791 26.5931Z" fill="#F5F5F5"/>
</g>
<defs>
<clipPath id="clip0_6248_45287">
<rect width="40" height="40" rx="20" fill="white"/>
</clipPath>
</defs>
</svg>
