<svg width="22" height="22" viewBox="0 0 22 22" fill="none" xmlns="http://www.w3.org/2000/svg">
<path fill-rule="evenodd" clip-rule="evenodd" d="M11 2.40879C6.2552 2.40879 2.40879 6.2552 2.40879 11C2.40879 15.7448 6.2552 19.5912 11 19.5912C15.7448 19.5912 19.5912 15.7448 19.5912 11C19.5912 6.2552 15.7448 2.40879 11 2.40879ZM0 11C0 4.92487 4.92487 0 11 0C17.0751 0 22 4.92487 22 11C22 17.0751 17.0751 22 11 22C4.92487 22 0 17.0751 0 11Z" fill="#6D75F4"/>
<path fill-rule="evenodd" clip-rule="evenodd" d="M11.0001 4.08148C11.6652 4.08148 12.2045 4.62071 12.2045 5.28588V9.79559H16.7142C17.3793 9.79559 17.9186 10.3348 17.9186 11C17.9186 11.6651 17.3793 12.2044 16.7142 12.2044H11.0001C10.3349 12.2044 9.79568 11.6651 9.79568 11V5.28588C9.79568 4.62071 10.3349 4.08148 11.0001 4.08148Z" fill="#6D75F4"/>
</svg>
