<svg width="35" height="35" viewBox="0 0 35 35" fill="none" xmlns="http://www.w3.org/2000/svg">
<path fill-rule="evenodd" clip-rule="evenodd" d="M17.5 35C27.165 35 35 27.165 35 17.5C35 7.83502 27.165 0 17.5 0C7.83502 0 0 7.83502 0 17.5C0 27.165 7.83502 35 17.5 35ZM15.3107 9.43934C14.7249 8.85355 13.7751 8.85355 13.1893 9.43934C12.6036 10.0251 12.6036 10.9749 13.1893 11.5607L19.6287 18L13.1893 24.4393C12.6036 25.0251 12.6036 25.9749 13.1893 26.5607C13.7751 27.1464 14.7249 27.1464 15.3107 26.5607L22.8107 19.0607C23.3964 18.4749 23.3964 17.5251 22.8107 16.9393L15.3107 9.43934Z" fill="#6D75F4"/>
</svg>
