<svg width="24" height="24" viewBox="0 0 24 24" fill="none" xmlns="http://www.w3.org/2000/svg">
<path d="M12.1834 22.6599C12.5764 23.0875 13.2726 23.1423 13.7442 22.6489C16.4616 19.8531 18 16.0923 18 12.0027C18 7.913 16.4841 4.13034 13.7442 1.35639C13.2726 0.862996 12.5764 0.906853 12.1834 1.33446C11.7904 1.76206 11.8578 2.35413 12.3069 2.81463C14.6538 5.20484 15.9339 8.43929 15.9339 12.0027C15.9339 15.5551 14.6313 18.7786 12.3069 21.1907C11.8578 21.6512 11.7904 22.2433 12.1834 22.6599ZM8.82595 19.6009C9.23019 20.0724 9.93762 20.0943 10.4541 19.5461C12.3294 17.5835 13.3624 14.8972 13.3624 12.0027C13.3624 9.10811 12.3182 6.37801 10.4541 4.45927C9.93762 3.91106 9.23019 3.93298 8.82595 4.40445C8.43294 4.84302 8.55646 5.40219 8.99438 5.88462C10.4878 7.47443 11.2963 9.64536 11.2963 12.0027C11.2963 14.36 10.4766 16.509 8.99438 18.1098C8.55646 18.5922 8.43294 19.1514 8.82595 19.6009ZM5.56956 16.4103C5.9738 16.8818 6.72614 16.8927 7.19775 16.3445C8.17467 15.1933 8.73612 13.6473 8.73612 12.0027C8.73612 10.3471 8.17467 8.80111 7.19775 7.66083C6.72614 7.10165 5.9738 7.12358 5.56956 7.59504C5.18777 8.03361 5.33375 8.55989 5.7043 9.06425C6.32189 9.84271 6.66999 10.9062 6.66999 12.0027C6.66999 13.0881 6.32189 14.1626 5.7043 14.9301C5.33375 15.4345 5.18777 15.9717 5.56956 16.4103Z" fill="#6D75F4"/>
</svg>
