<svg width="30" height="30" viewBox="0 0 30 30" fill="none" xmlns="http://www.w3.org/2000/svg">
<g clip-path="url(#clip0_9121_273504)">
<g clip-path="url(#clip1_9121_273504)">
<g clip-path="url(#clip2_9121_273504)">
<path d="M23.2369 0H6.76312C3.02795 0 0 3.02795 0 6.76312V23.2369C0 26.972 3.02795 30 6.76312 30H23.2369C26.972 30 30 26.972 30 23.2369V6.76312C30 3.02795 26.972 0 23.2369 0Z" fill="#06C755"/>
<path d="M24.9995 13.5863C24.9995 9.11063 20.5126 5.46938 14.9973 5.46938C9.48199 5.46938 4.99512 9.11063 4.99512 13.5863C4.99512 17.5988 8.55387 20.9588 13.3604 21.5944C13.6857 21.6647 14.1292 21.8091 14.2417 22.0875C14.3429 22.3406 14.3073 22.7363 14.2745 22.9922C14.2745 22.9922 14.1573 23.6981 14.132 23.8481C14.0879 24.1013 13.9314 24.8372 14.9982 24.3872C16.0661 23.9372 20.7582 20.9953 22.8564 18.5803C24.3057 16.9903 25.0004 15.3778 25.0004 13.5863H24.9995Z" fill="white"/>
<path d="M21.6713 16.1709H18.8617C18.7557 16.1709 18.6704 16.0856 18.6704 15.9797V15.9769V11.6194V11.6147C18.6704 11.5088 18.7557 11.4234 18.8617 11.4234H21.6713C21.7763 11.4234 21.8626 11.5097 21.8626 11.6147V12.3244C21.8626 12.4303 21.7773 12.5156 21.6713 12.5156H19.7617V13.2525H21.6713C21.7763 13.2525 21.8626 13.3388 21.8626 13.4438V14.1534C21.8626 14.2594 21.7773 14.3447 21.6713 14.3447H19.7617V15.0816H21.6713C21.7763 15.0816 21.8626 15.1678 21.8626 15.2728V15.9825C21.8626 16.0884 21.7773 16.1738 21.6713 16.1738V16.1709Z" fill="#06C755"/>
<path d="M11.2773 16.1709C11.3823 16.1709 11.4685 16.0856 11.4685 15.9797V15.27C11.4685 15.165 11.3823 15.0788 11.2773 15.0788H9.36758V11.6138C9.36758 11.5088 9.28133 11.4225 9.17633 11.4225H8.46664C8.3607 11.4225 8.27539 11.5078 8.27539 11.6138V15.9759V15.9797C8.27539 16.0856 8.3607 16.1709 8.46664 16.1709H11.2763H11.2773Z" fill="#06C755"/>
<path d="M12.9684 11.4234H12.2596C12.154 11.4234 12.0684 11.5091 12.0684 11.6147V15.9797C12.0684 16.0853 12.154 16.1709 12.2596 16.1709H12.9684C13.074 16.1709 13.1596 16.0853 13.1596 15.9797V11.6147C13.1596 11.5091 13.074 11.4234 12.9684 11.4234Z" fill="#06C755"/>
<path d="M17.7976 11.4234H17.0879C16.982 11.4234 16.8967 11.5088 16.8967 11.6147V14.2069L14.8998 11.5097C14.8951 11.5031 14.8895 11.4966 14.8848 11.49C14.8848 11.49 14.8848 11.49 14.8838 11.4891C14.8801 11.4853 14.8763 11.4806 14.8726 11.4769C14.8717 11.4759 14.8698 11.475 14.8688 11.4741C14.8651 11.4713 14.8623 11.4684 14.8585 11.4656C14.8567 11.4647 14.8548 11.4628 14.8529 11.4619C14.8501 11.4591 14.8463 11.4572 14.8426 11.4553C14.8407 11.4544 14.8388 11.4525 14.837 11.4516C14.8332 11.4497 14.8304 11.4478 14.8267 11.4459C14.8248 11.445 14.8229 11.4441 14.821 11.4431C14.8173 11.4413 14.8135 11.4394 14.8098 11.4384C14.8079 11.4384 14.806 11.4366 14.8032 11.4366C14.7995 11.4356 14.7957 11.4338 14.792 11.4328C14.7901 11.4328 14.7873 11.4319 14.7854 11.4309C14.7817 11.4309 14.7779 11.4291 14.7742 11.4281C14.7713 11.4281 14.7685 11.4281 14.7657 11.4272C14.762 11.4272 14.7592 11.4263 14.7554 11.4263C14.7517 11.4263 14.7488 11.4263 14.7451 11.4263C14.7432 11.4263 14.7404 11.4263 14.7385 11.4263H14.0335C13.9285 11.4263 13.8423 11.5116 13.8423 11.6175V15.9825C13.8423 16.0875 13.9276 16.1738 14.0335 16.1738H14.7432C14.8492 16.1738 14.9345 16.0884 14.9345 15.9825V13.3903L16.9342 16.0913C16.9482 16.1109 16.9651 16.1269 16.9838 16.1391C16.9838 16.1391 16.9857 16.14 16.9857 16.1409C16.9895 16.1438 16.9932 16.1456 16.9979 16.1484C16.9998 16.1494 17.0017 16.1503 17.0035 16.1513C17.0063 16.1531 17.0101 16.1541 17.0129 16.1559C17.0157 16.1578 17.0195 16.1588 17.0223 16.1597C17.0242 16.1597 17.026 16.1616 17.0279 16.1616C17.0326 16.1634 17.0363 16.1644 17.041 16.1653C17.041 16.1653 17.0429 16.1653 17.0438 16.1653C17.0598 16.1691 17.0767 16.1719 17.0935 16.1719H17.7985C17.9035 16.1719 17.9898 16.0866 17.9898 15.9806V11.6156C17.9898 11.5106 17.9045 11.4244 17.7985 11.4244L17.7976 11.4234Z" fill="#06C755"/>
</g>
</g>
</g>
<defs>
<clipPath id="clip0_9121_273504">
<rect width="30" height="30" fill="white"/>
</clipPath>
<clipPath id="clip1_9121_273504">
<rect width="30" height="30" fill="white"/>
</clipPath>
<clipPath id="clip2_9121_273504">
<rect width="30" height="30" fill="white"/>
</clipPath>
</defs>
</svg>
