<svg width="30" height="30" viewBox="0 0 30 30" fill="none" xmlns="http://www.w3.org/2000/svg">
<g clip-path="url(#clip0_9121_273487)">
<g clip-path="url(#clip1_9121_273487)">
<path d="M23.2369 0H6.76312C3.02795 0 0 3.02795 0 6.76312V23.2369C0 26.972 3.02795 30 6.76312 30H23.2369C26.972 30 30 26.972 30 23.2369V6.76312C30 3.02795 26.972 0 23.2369 0Z" fill="#06C755"/>
<path d="M24.9994 13.5862C24.9994 9.11063 20.5125 5.46938 14.9972 5.46938C9.48187 5.46938 4.995 9.11063 4.995 13.5862C4.995 17.5988 8.55374 20.9588 13.3603 21.5944C13.6856 21.6647 14.1291 21.8091 14.2416 22.0875C14.3428 22.3406 14.3072 22.7363 14.2744 22.9922C14.2744 22.9922 14.1572 23.6981 14.1319 23.8481C14.0878 24.1013 13.9312 24.8372 14.9981 24.3872C16.0659 23.9372 20.7581 20.9953 22.8562 18.5803C24.3056 16.9903 25.0003 15.3778 25.0003 13.5862H24.9994Z" fill="white"/>
<path d="M21.6712 16.1709H18.8615C18.7556 16.1709 18.6703 16.0856 18.6703 15.9797V15.9769V11.6194V11.6147C18.6703 11.5087 18.7556 11.4234 18.8615 11.4234H21.6712C21.7762 11.4234 21.8625 11.5097 21.8625 11.6147V12.3244C21.8625 12.4303 21.7772 12.5156 21.6712 12.5156H19.7615V13.2525H21.6712C21.7762 13.2525 21.8625 13.3387 21.8625 13.4437V14.1534C21.8625 14.2594 21.7772 14.3447 21.6712 14.3447H19.7615V15.0816H21.6712C21.7762 15.0816 21.8625 15.1678 21.8625 15.2728V15.9825C21.8625 16.0884 21.7772 16.1737 21.6712 16.1737V16.1709Z" fill="#06C755"/>
<path d="M11.2772 16.1709C11.3822 16.1709 11.4685 16.0856 11.4685 15.9797V15.27C11.4685 15.165 11.3822 15.0787 11.2772 15.0787H9.36752V11.6137C9.36752 11.5087 9.28127 11.4225 9.17627 11.4225H8.46658C8.36064 11.4225 8.27533 11.5078 8.27533 11.6137V15.9759V15.9797C8.27533 16.0856 8.36064 16.1709 8.46658 16.1709H11.2763H11.2772Z" fill="#06C755"/>
<path d="M12.9684 11.4234H12.2597C12.154 11.4234 12.0684 11.5091 12.0684 11.6147V15.9797C12.0684 16.0853 12.154 16.1709 12.2597 16.1709H12.9684C13.074 16.1709 13.1597 16.0853 13.1597 15.9797V11.6147C13.1597 11.5091 13.074 11.4234 12.9684 11.4234Z" fill="#06C755"/>
<path d="M17.7975 11.4234H17.0878C16.9819 11.4234 16.8965 11.5087 16.8965 11.6147V14.2069L14.8997 11.5097C14.895 11.5031 14.8894 11.4966 14.8847 11.49C14.8847 11.49 14.8847 11.49 14.8837 11.4891C14.88 11.4853 14.8762 11.4806 14.8725 11.4769C14.8715 11.4759 14.8697 11.475 14.8687 11.4741C14.865 11.4712 14.8622 11.4684 14.8584 11.4656C14.8565 11.4647 14.8547 11.4628 14.8528 11.4619C14.85 11.4591 14.8462 11.4572 14.8425 11.4553C14.8406 11.4544 14.8387 11.4525 14.8369 11.4516C14.8331 11.4497 14.8303 11.4478 14.8265 11.4459C14.8247 11.445 14.8228 11.4441 14.8209 11.4431C14.8172 11.4412 14.8134 11.4394 14.8097 11.4384C14.8078 11.4384 14.8059 11.4366 14.8031 11.4366C14.7994 11.4356 14.7956 11.4337 14.7919 11.4328C14.79 11.4328 14.7872 11.4319 14.7853 11.4309C14.7815 11.4309 14.7778 11.4291 14.774 11.4281C14.7712 11.4281 14.7684 11.4281 14.7656 11.4272C14.7619 11.4272 14.759 11.4262 14.7553 11.4262C14.7515 11.4262 14.7487 11.4262 14.745 11.4262C14.7431 11.4262 14.7403 11.4262 14.7384 11.4262H14.0334C13.9284 11.4262 13.8422 11.5116 13.8422 11.6175V15.9825C13.8422 16.0875 13.9275 16.1737 14.0334 16.1737H14.7431C14.849 16.1737 14.9344 16.0884 14.9344 15.9825V13.3903L16.934 16.0912C16.9481 16.1109 16.965 16.1269 16.9837 16.1391C16.9837 16.1391 16.9856 16.14 16.9856 16.1409C16.9894 16.1437 16.9931 16.1456 16.9978 16.1484C16.9997 16.1494 17.0015 16.1503 17.0034 16.1512C17.0062 16.1531 17.01 16.1541 17.0128 16.1559C17.0156 16.1578 17.0194 16.1587 17.0222 16.1597C17.024 16.1597 17.0259 16.1616 17.0278 16.1616C17.0325 16.1634 17.0362 16.1644 17.0409 16.1653C17.0409 16.1653 17.0428 16.1653 17.0437 16.1653C17.0597 16.1691 17.0765 16.1719 17.0934 16.1719H17.7984C17.9034 16.1719 17.9897 16.0866 17.9897 15.9806V11.6156C17.9897 11.5106 17.9044 11.4244 17.7984 11.4244L17.7975 11.4234Z" fill="#06C755"/>
</g>
</g>
<defs>
<clipPath id="clip0_9121_273487">
<rect width="30" height="30" fill="white"/>
</clipPath>
<clipPath id="clip1_9121_273487">
<rect width="30" height="30" fill="white"/>
</clipPath>
</defs>
</svg>
