<svg width="24" height="24" viewBox="0 0 24 24" fill="none" xmlns="http://www.w3.org/2000/svg">
<g clip-path="url(#clip0_8580_211291)">
<path fill-rule="evenodd" clip-rule="evenodd" d="M12 22.5C17.799 22.5 22.5 17.799 22.5 12C22.5 6.20101 17.799 1.5 12 1.5C6.20101 1.5 1.5 6.20101 1.5 12C1.5 17.799 6.20101 22.5 12 22.5ZM12 24C18.6274 24 24 18.6274 24 12C24 5.37258 18.6274 0 12 0C5.37258 0 0 5.37258 0 12C0 18.6274 5.37258 24 12 24Z" fill="#6D75F4"/>
<path d="M10.0179 19H14.9978C15.2796 19 15.5171 18.9119 15.7103 18.7357C15.9034 18.5595 16 18.3305 16 18.0485C16 17.7868 15.9034 17.5653 15.7103 17.384C15.5171 17.2028 15.2796 17.1122 14.9978 17.1122H13.6197V11.4639C13.6197 11.1014 13.5257 10.8094 13.3378 10.5879C13.1499 10.3664 12.8837 10.2557 12.5391 10.2557H10.2528C9.97092 10.2557 9.7308 10.3438 9.53244 10.52C9.33408 10.6962 9.2349 10.9151 9.2349 11.1769C9.2349 11.4588 9.33408 11.6879 9.53244 11.8641C9.7308 12.0403 9.97092 12.1284 10.2528 12.1284H11.396V17.1122H10.0179C9.73602 17.1122 9.4959 17.2028 9.29754 17.384C9.09918 17.5653 9 17.7868 9 18.0485C9 18.3305 9.09918 18.5595 9.29754 18.7357C9.4959 18.9119 9.73602 19 10.0179 19ZM12.0067 8.39806C12.4974 8.39806 12.9098 8.23193 13.2438 7.89968C13.5779 7.56742 13.745 7.16973 13.745 6.70658C13.745 6.2233 13.5779 5.81805 13.2438 5.49083C12.9098 5.16361 12.4974 5 12.0067 5C11.516 5 11.101 5.16361 10.7617 5.49083C10.4224 5.81805 10.2528 6.2233 10.2528 6.70658C10.2528 7.16973 10.4224 7.56742 10.7617 7.89968C11.101 8.23193 11.516 8.39806 12.0067 8.39806Z" fill="#6D75F4"/>
</g>
<defs>
<clipPath id="clip0_8580_211291">
<rect width="24" height="24" fill="white"/>
</clipPath>
</defs>
</svg>
