<svg width="30" height="23" viewBox="0 0 30 23" fill="none" xmlns="http://www.w3.org/2000/svg">
<path d="M25.9964 1.91283C24.0947 1.02539 22.024 0.391501 19.8688 0.0111694C19.8266 0.0111694 19.7843 0.0111694 19.7843 0.0534285C19.5308 0.518278 19.2349 1.15216 19.0236 1.61701C16.6994 1.27894 14.4174 1.27894 12.1777 1.61701C11.9664 1.10991 11.6706 0.518278 11.417 0.0534285C11.417 0.0111694 11.3748 0.0111694 11.3325 0.0111694C9.17728 0.391501 7.14885 1.02539 5.20493 1.91283C5.20493 1.91283 5.16267 1.91283 5.16267 1.95509C1.27484 7.74458 0.218364 13.4073 0.725473 19.0277C0.725473 19.0559 0.739559 19.0841 0.767732 19.1123C3.34553 21.0139 5.83882 22.1549 8.24759 22.9156C8.28984 22.9156 8.3321 22.9156 8.3321 22.8733C8.92373 22.0704 9.43084 21.2675 9.85343 20.38C9.89569 20.3378 9.85343 20.2533 9.81117 20.2533C9.00825 19.9574 8.20533 19.5771 7.48692 19.1545C7.44466 19.1123 7.4024 19.0277 7.48692 18.9855C7.65596 18.8587 7.78274 18.7319 7.95177 18.6052C7.99403 18.5629 8.03629 18.5629 8.03629 18.6052C12.9383 20.8449 18.263 20.8449 23.1228 18.6052H23.2073C23.3763 18.7319 23.5031 18.8587 23.6721 18.9855C23.7144 19.0277 23.7144 19.1123 23.6721 19.1545C22.9115 19.5771 22.1508 19.9574 21.3479 20.2533C21.3056 20.2533 21.2634 20.3378 21.3056 20.38C21.7705 21.2675 22.2776 22.0704 22.827 22.8733C22.8692 22.9156 22.9115 22.9156 22.9115 22.9156C25.3625 22.1549 27.8558 21.0139 30.4336 19.1123C30.4759 19.1123 30.4759 19.07 30.4759 19.0277C31.1097 12.5621 29.4194 6.94166 25.9964 1.91283C26.0387 1.91283 25.9964 1.91283 25.9964 1.91283ZM10.6141 15.6048C9.13503 15.6048 7.90951 14.2525 7.90951 12.5621C7.90951 10.8717 9.09277 9.51946 10.6141 9.51946C12.1354 9.51946 13.3187 10.8717 13.3187 12.5621C13.3187 14.2525 12.1354 15.6048 10.6141 15.6048ZM20.5872 15.6048C19.1082 15.6048 17.8827 14.2525 17.8827 12.5621C17.8827 10.8717 19.0659 9.51946 20.5872 9.51946C22.1086 9.51946 23.2918 10.8717 23.2918 12.5621C23.2918 14.2525 22.1086 15.6048 20.5872 15.6048Z" fill="#5865F2"/>
</svg>
