<svg width="30" height="30" viewBox="0 0 30 30" fill="none" xmlns="http://www.w3.org/2000/svg">
<path d="M22.8202 28.7919C21.2123 30.3711 19.4383 30.1249 17.7474 29.3804C15.9497 28.6208 14.3062 28.5727 12.4076 29.3804C10.0433 30.4131 8.78848 30.1129 7.36455 28.7919C-0.674742 20.4155 0.511869 7.65583 9.64878 7.17546C11.8648 7.29555 13.4163 8.4154 14.7215 8.50847C16.6616 8.10917 18.5187 6.9653 20.5953 7.11541C23.0901 7.31957 24.959 8.31733 26.202 10.1087C21.0699 13.2311 22.2862 20.0763 27 21.9977C26.0566 24.5046 24.8463 26.9815 22.8172 28.8129L22.8202 28.7919ZM14.5435 7.08539C14.3033 3.36256 17.2846 0.300228 20.7139 0C21.1856 4.29327 16.8574 7.50571 14.5435 7.08539Z" fill="white"/>
</svg>
