<svg width="25" height="30" viewBox="0 0 25 30" fill="none" xmlns="http://www.w3.org/2000/svg">
<g clip-path="url(#clip0_7795_142798)">
<path d="M20.8202 28.7919C19.2123 30.3711 17.4383 30.1249 15.7474 29.3804C13.9497 28.6208 12.3062 28.5727 10.4076 29.3804C8.04332 30.4131 6.78848 30.1129 5.36455 28.7919C-2.67474 20.4155 -1.48813 7.65583 7.64878 7.17546C9.86477 7.29555 11.4163 8.4154 12.7215 8.50847C14.6616 8.10917 16.5187 6.9653 18.5953 7.11541C21.0901 7.31957 22.959 8.31733 24.202 10.1087C19.0699 13.2311 20.2862 20.0763 25 21.9977C24.0566 24.5046 22.8463 26.9815 20.8172 28.8129L20.8202 28.7919ZM12.5435 7.08539C12.3033 3.36256 15.2846 0.300228 18.7139 0C19.1856 4.29327 14.8574 7.50571 12.5435 7.08539Z" fill="white"/>
</g>
<defs>
<clipPath id="clip0_7795_142798">
<rect width="25" height="30" fill="white"/>
</clipPath>
</defs>
</svg>
