<svg width="25" height="24" viewBox="0 0 25 24" fill="none" xmlns="http://www.w3.org/2000/svg">
<path fill-rule="evenodd" clip-rule="evenodd" d="M10.6475 2.58125C10.9345 2.86875 11.0442 3.28861 10.9345 3.67973C10.5678 4.98725 10.5558 6.3688 10.8997 7.6825C11.2435 8.99621 11.9309 10.1947 12.8911 11.1549C13.8513 12.1152 15.0498 12.8025 16.3635 13.1463C17.6772 13.4902 19.0588 13.4782 20.3663 13.1115C20.7574 13.0019 21.1773 13.1115 21.4648 13.3985C21.7523 13.6854 21.8628 14.1051 21.7538 14.4964C21.2896 16.1644 20.3964 17.6817 19.1632 18.8971C17.9301 20.1125 16.4 20.9836 14.7255 21.4236C13.0509 21.8637 11.2902 21.8573 9.61889 21.4051C7.94755 20.953 6.42384 20.0708 5.19953 18.8465C3.97523 17.6222 3.09306 16.0985 2.64089 14.4271C2.18873 12.7558 2.18235 10.9951 2.62239 9.32057C3.06242 7.64599 3.93353 6.11593 5.14892 4.88278C6.36432 3.64963 7.8816 2.75644 9.54962 2.29217C9.94094 2.18325 10.3606 2.29374 10.6475 2.58125ZM8.41635 5.18289C7.80784 5.52942 7.24714 5.95922 6.7514 6.46219C5.81196 7.41536 5.13864 8.59803 4.79851 9.8924C4.45838 11.1868 4.46331 12.5477 4.81281 13.8395C5.16232 15.1314 5.84419 16.3092 6.79052 17.2555C7.73686 18.2018 8.91461 18.8837 10.2065 19.2332C11.4984 19.5827 12.8593 19.5876 14.1536 19.2475C15.448 18.9074 16.6307 18.2341 17.5838 17.2946C18.0868 16.7989 18.5166 16.2382 18.8631 15.6297C17.8346 15.6882 16.7989 15.5861 15.7938 15.323C14.0937 14.878 12.5427 13.9885 11.3001 12.7459C10.0575 11.5033 9.16799 9.95231 8.72301 8.25224C8.45994 7.24717 8.35783 6.2114 8.41635 5.18289Z" fill="#6D75F4"/>
</svg>
