<svg width="22" height="22" viewBox="0 0 22 22" fill="none" xmlns="http://www.w3.org/2000/svg">
<path fill-rule="evenodd" clip-rule="evenodd" d="M11 3.17304L8.51531 8.38009L2.91234 9.22215L6.96842 13.3113L6.016 19.0547L11 16.3446L15.984 19.0547L15.0316 13.3113L19.0877 9.22215L13.4847 8.38009L11 3.17304ZM9.38563 1.06041C10.0603 -0.353471 11.9397 -0.353471 12.6144 1.06041L15.0238 6.10985L20.4404 6.92389C22.0259 7.16218 22.4873 9.21591 21.4302 10.2817L17.554 14.1895L18.4657 19.687C18.7066 21.1396 17.3063 22.5583 15.8604 21.7721L11 19.1293L6.13962 21.7721C4.69371 22.5583 3.29343 21.1396 3.53432 19.687L4.44597 14.1895L0.569836 10.2817C-0.487333 9.21591 -0.0258962 7.16218 1.55963 6.92389L6.97615 6.10985L9.38563 1.06041Z" fill="#6D75F4"/>
</svg>
