<svg width="32" height="32" viewBox="0 0 32 32" fill="none" xmlns="http://www.w3.org/2000/svg">
<path fill-rule="evenodd" clip-rule="evenodd" d="M15.9999 4.90263C9.87094 4.90263 4.90247 9.8711 4.90247 16C4.90247 22.1289 9.87094 27.0974 15.9999 27.0974C22.1288 27.0974 27.0972 22.1289 27.0972 16C27.0972 9.8711 22.1288 4.90263 15.9999 4.90263ZM1.79102 16C1.79102 8.15268 8.15253 1.79117 15.9999 1.79117C23.8472 1.79117 30.2087 8.15268 30.2087 16C30.2087 23.8473 23.8472 30.2088 15.9999 30.2088C8.15253 30.2088 1.79102 23.8473 1.79102 16Z" fill="#6D75F4"/>
<path fill-rule="evenodd" clip-rule="evenodd" d="M15.9999 7.06328C16.8592 7.06328 17.5557 7.7598 17.5557 8.61901V14.4443H23.3809C24.2401 14.4443 24.9367 15.1408 24.9367 16C24.9367 16.8592 24.2401 17.5557 23.3809 17.5557H15.9999C15.1407 17.5557 14.4442 16.8592 14.4442 16V8.61901C14.4442 7.7598 15.1407 7.06328 15.9999 7.06328Z" fill="#6D75F4"/>
</svg>
