<svg width="24" height="24" viewBox="0 0 24 24" fill="none" xmlns="http://www.w3.org/2000/svg">
<path d="M8.87333 12.0011C8.87333 13.7283 10.2735 15.1283 12.0008 15.1283C13.7293 15.1283 15.1295 13.7283 15.1284 12.0011C15.1284 10.274 13.7282 8.87394 12.0008 8.87394C10.2735 8.87394 8.87333 10.274 8.87333 12.0011Z" fill="#5963FF"/>
<path fill-rule="evenodd" clip-rule="evenodd" d="M21.2173 17.0463C21.2932 17.1022 21.3658 17.1647 21.4339 17.2328C22.0759 17.8759 22.1608 18.9074 21.6326 19.6476C20.9973 20.5386 19.7546 20.6982 18.9172 20.0194C18.897 20.0038 18.8781 19.9871 18.8591 19.9703C18.638 19.776 18.3142 19.7604 18.0808 19.9402C16.3959 21.2319 14.2879 22 12.0011 22C9.71438 22 7.60629 21.2319 5.92139 19.9402C5.68803 19.7615 5.36423 19.776 5.14314 19.9703C5.12697 19.9846 5.1108 19.998 5.09394 20.0121L5.08508 20.0194C4.24766 20.6971 3.00491 20.5375 2.36958 19.6476C1.84144 18.9074 1.9263 17.877 2.56833 17.2328C2.63756 17.1636 2.71014 17.101 2.78495 17.0463C3.01608 16.8755 3.09647 16.564 2.97142 16.3039C2.34837 14.9999 2 13.5407 2 12C2 10.4593 2.34949 8.99899 2.97142 7.69498C3.09647 7.43262 3.01049 7.12225 2.77713 6.9492C2.75703 6.93469 2.73693 6.91906 2.71684 6.90231C1.87941 6.22463 1.77669 4.97533 2.51585 4.16925C3.12997 3.49827 4.15721 3.36765 4.91983 3.86223C5.00134 3.91582 5.07726 3.97387 5.14761 4.03528C5.36534 4.22842 5.68803 4.23624 5.91916 4.05984C7.60406 2.76811 9.71215 2 11.9989 2C14.2856 2 16.3937 2.76811 18.0786 4.05984C18.312 4.23959 18.6358 4.22396 18.8569 4.0297C18.8731 4.01536 18.8894 4.00183 18.9063 3.98773L18.9149 3.98057C19.7523 3.30289 20.9951 3.46254 21.6304 4.35235C22.1585 5.09255 22.0737 6.12303 21.4317 6.76722C21.3624 6.83644 21.2899 6.89896 21.215 6.95479C20.9839 7.1256 20.9035 7.43709 21.0286 7.6961C21.6516 9.00011 22 10.4593 22 12C22 13.5407 21.6516 14.9999 21.0286 16.3039C20.9069 16.564 20.9862 16.8755 21.2173 17.0463ZM5.12835 12C5.12835 8.20519 8.20562 5.12827 12.0008 5.12827C15.7972 5.12827 18.8745 8.20519 18.8733 12C18.8733 15.7948 15.7961 18.8717 12.0008 18.8717C8.20562 18.8717 5.12835 15.7948 5.12835 12Z" fill="#5963FF"/>
</svg>
