<svg width="36" height="36" viewBox="0 0 36 36" fill="none" xmlns="http://www.w3.org/2000/svg">
<path fill-rule="evenodd" clip-rule="evenodd" d="M18 33.9429C26.805 33.9429 33.9429 26.805 33.9429 18C33.9429 9.195 26.805 2.05714 18 2.05714C9.195 2.05714 2.05714 9.195 2.05714 18C2.05714 26.805 9.195 33.9429 18 33.9429ZM18 36C27.9411 36 36 27.9411 36 18C36 8.05888 27.9411 0 18 0C8.05888 0 0 8.05888 0 18C0 27.9411 8.05888 36 18 36Z" fill="#6D75F4"/>
<g clip-path="url(#clip0_7706_156671)">
<path d="M8 18.456C8 18.847 8.14493 19.1874 8.43478 19.4773C8.72464 19.7671 9.06505 19.9121 9.45602 19.9121C20.4219 19.9121 16.489 19.9121 26.544 19.9121C26.9484 19.9121 27.2922 19.7671 27.5753 19.4773C27.8584 19.1874 28 18.847 28 18.456C28 18.0516 27.8584 17.7078 27.5753 17.4247C27.2922 17.1416 26.9484 17 26.544 17C16.4389 17 20.4826 17 9.45602 17C9.06505 17 8.72464 17.1416 8.43478 17.4247C8.14493 17.7078 8 18.0516 8 18.456Z" fill="#6D75F4"/>
</g>
<defs>
<clipPath id="clip0_7706_156671">
<rect width="20" height="3" fill="white" transform="translate(8 17)"/>
</clipPath>
</defs>
</svg>
