<svg width="36" height="36" viewBox="0 0 36 36" fill="none" xmlns="http://www.w3.org/2000/svg">
<path fill-rule="evenodd" clip-rule="evenodd" d="M18 33.9429C26.805 33.9429 33.9429 26.805 33.9429 18C33.9429 9.195 26.805 2.05714 18 2.05714C9.195 2.05714 2.05714 9.195 2.05714 18C2.05714 26.805 9.195 33.9429 18 33.9429ZM18 36C27.9411 36 36 27.9411 36 18C36 8.05888 27.9411 0 18 0C8.05888 0 0 8.05888 0 18C0 27.9411 8.05888 36 18 36Z" fill="#6D75F4"/>
<path d="M8 17.456C8 17.847 8.14493 18.1874 8.43478 18.4773C8.72464 18.7671 9.06505 18.912 9.45602 18.912C20.4219 18.912 16.489 18.912 26.544 18.912C26.9484 18.912 27.2922 18.7671 27.5753 18.4773C27.8584 18.1874 28 17.847 28 17.456C28 17.0516 27.8584 16.7078 27.5753 16.4247C27.2922 16.1416 26.9484 16 26.544 16C16.4389 16 20.4826 16 9.45602 16C9.06505 16 8.72464 16.1416 8.43478 16.4247C8.14493 16.7078 8 17.0516 8 17.456Z" fill="#6D75F4"/>
</svg>
