<svg width="25" height="25" viewBox="0 0 25 25" fill="none" xmlns="http://www.w3.org/2000/svg">
<path fill-rule="evenodd" clip-rule="evenodd" d="M5.52393 5.60668C5.52393 5.1354 5.90597 4.75336 6.37725 4.75336H11.7437C12.215 4.75336 12.5971 5.1354 12.5971 5.60668V10.9732C12.5971 11.4444 12.215 11.8265 11.7437 11.8265H6.37725C5.90597 11.8265 5.52393 11.4444 5.52393 10.9732V5.60668ZM7.23056 6.46V10.1198H10.8904V6.46H7.23056Z" fill="#848BFF"/>
<path fill-rule="evenodd" clip-rule="evenodd" d="M13.2408 5.60668C13.2408 5.1354 13.6228 4.75336 14.0941 4.75336H19.4606C19.9318 4.75336 20.3139 5.1354 20.3139 5.60668V10.9732C20.3139 11.4444 19.9318 11.8265 19.4606 11.8265H14.0941C13.6228 11.8265 13.2408 11.4444 13.2408 10.9732V5.60668ZM14.9474 6.46V10.1198H18.6073V6.46H14.9474Z" fill="#848BFF"/>
<path fill-rule="evenodd" clip-rule="evenodd" d="M5.52395 13.3234C5.52395 12.8521 5.90599 12.4701 6.37727 12.4701H11.7438C12.215 12.4701 12.5971 12.8521 12.5971 13.3234V18.6899C12.5971 19.1612 12.215 19.5432 11.7438 19.5432H6.37727C5.90599 19.5432 5.52395 19.1612 5.52395 18.6899V13.3234ZM7.23059 14.1767V17.8366H10.8904V14.1767H7.23059Z" fill="#848BFF"/>
<path fill-rule="evenodd" clip-rule="evenodd" d="M13.2408 13.3234C13.2408 12.8521 13.6228 12.4701 14.0941 12.4701H19.4606C19.9318 12.4701 20.3139 12.8521 20.3139 13.3234V18.6899C20.3139 19.1612 19.9318 19.5432 19.4606 19.5432H14.0941C13.6228 19.5432 13.2408 19.1612 13.2408 18.6899V13.3234ZM14.9474 14.1767V17.8366H18.6073V14.1767H14.9474Z" fill="#848BFF"/>
</svg>
