<svg width="25" height="25" viewBox="0 0 25 25" fill="none" xmlns="http://www.w3.org/2000/svg">
<path fill-rule="evenodd" clip-rule="evenodd" d="M1.00024 3.14436C1.00024 2.43745 1.57331 1.86438 2.28022 1.86438H10.33C11.0369 1.86438 11.6099 2.43745 11.6099 3.14436V11.1941C11.6099 11.901 11.0369 12.4741 10.33 12.4741H2.28022C1.57331 12.4741 1.00024 11.901 1.00024 11.1941V3.14436ZM3.5602 4.42434V9.91411H9.04998V4.42434H3.5602Z" fill="#848BFF"/>
<path fill-rule="evenodd" clip-rule="evenodd" d="M12.5755 3.14436C12.5755 2.43745 13.1486 1.86438 13.8555 1.86438H21.9052C22.6121 1.86438 23.1852 2.43745 23.1852 3.14436V11.1941C23.1852 11.901 22.6121 12.4741 21.9052 12.4741H13.8555C13.1486 12.4741 12.5755 11.901 12.5755 11.1941V3.14436ZM15.1355 4.42434V9.91412H20.6252V4.42434H15.1355Z" fill="#848BFF"/>
<path fill-rule="evenodd" clip-rule="evenodd" d="M1.00028 14.7194C1.00028 14.0125 1.57334 13.4394 2.28026 13.4394H10.33C11.0369 13.4394 11.61 14.0125 11.61 14.7194V22.7692C11.61 23.4761 11.0369 24.0491 10.33 24.0491H2.28026C1.57334 24.0491 1.00028 23.4761 1.00028 22.7692V14.7194ZM3.56024 15.9994V21.4892H9.05001V15.9994H3.56024Z" fill="#848BFF"/>
<path fill-rule="evenodd" clip-rule="evenodd" d="M12.5755 14.7194C12.5755 14.0125 13.1486 13.4394 13.8555 13.4394H21.9052C22.6121 13.4394 23.1852 14.0125 23.1852 14.7194V22.7692C23.1852 23.4761 22.6121 24.0491 21.9052 24.0491H13.8555C13.1486 24.0491 12.5755 23.4761 12.5755 22.7692V14.7194ZM15.1355 15.9994V21.4892H20.6252V15.9994H15.1355Z" fill="#848BFF"/>
</svg>
