<svg width="36" height="36" viewBox="0 0 36 36" fill="none" xmlns="http://www.w3.org/2000/svg">
<path fill-rule="evenodd" clip-rule="evenodd" d="M36 18C36 27.9411 27.9411 36 18 36C8.05887 36 0 27.9411 0 18C0 8.05887 8.05887 0 18 0C27.9411 0 36 8.05887 36 18ZM8.43478 19.4773C8.14493 19.1874 8 18.847 8 18.456C8 18.0516 8.14493 17.7078 8.43478 17.4247C8.72464 17.1416 9.06505 17 9.45602 17H26.544C26.9484 17 27.2922 17.1416 27.5753 17.4247C27.8584 17.7078 28 18.0516 28 18.456C28 18.847 27.8584 19.1874 27.5753 19.4773C27.2922 19.7671 26.9484 19.912 26.544 19.912H9.45602C9.06505 19.912 8.72464 19.7671 8.43478 19.4773Z" fill="#6D75F4"/>
</svg>
