<svg width="30" height="30" viewBox="0 0 30 30" fill="none" xmlns="http://www.w3.org/2000/svg">
<g clip-path="url(#clip0_7306_127091)">
<path d="M18.28 15.14C18.28 15.14 18.24 15.12 18.23 15.11L25.91 7.74999C26.09 7.57999 26.21 7.41999 26.31 7.26999C26.43 7.48999 26.51 7.73999 26.51 7.99999V22C26.51 22.24 26.45 22.47 26.35 22.67L18.29 15.14H18.28ZM25 6.49999C25.18 6.49999 25.35 6.53999 25.52 6.59999C25.51 6.65999 25.45 6.79999 25.22 7.02999L16.1 15.76C15.5 16.34 14.51 16.34 13.9 15.76L4.79 7.01999C4.53 6.76999 4.48 6.60999 4.47 6.59999C4.47 6.59999 4.48 6.59999 4.49 6.58999C4.65 6.52999 4.82 6.48999 5.01 6.48999H25V6.49999ZM3.67 22.67C3.57 22.47 3.5 22.24 3.5 22V7.99999C3.5 7.72999 3.58 7.47999 3.7 7.25999C3.79 7.40999 3.92 7.56999 4.1 7.73999L11.89 15.21L3.67 22.67ZM5 23.5C4.78 23.5 4.58 23.45 4.39 23.37L12.61 15.91L13.21 16.48C13.7 16.95 14.35 17.19 15 17.19C15.65 17.19 16.3 16.95 16.79 16.48L17.53 15.77C17.53 15.77 17.57 15.84 17.6 15.86L25.62 23.36C25.43 23.45 25.22 23.5 25 23.5H5Z" fill="#F0F0F0"/>
<path d="M25 5.5H5C3.62 5.5 2.5 6.62 2.5 8V22C2.5 23.38 3.62 24.5 5 24.5H25C26.38 24.5 27.5 23.38 27.5 22V8C27.5 6.62 26.38 5.5 25 5.5ZM18.28 15.13C18.28 15.13 18.24 15.11 18.22 15.1L26.33 7.32C26.44 7.53 26.5 7.76 26.5 8V22C26.5 22.24 26.44 22.47 26.34 22.67L18.28 15.14V15.13ZM25 6.5C25.21 6.5 25.42 6.55 25.6 6.63L16.1 15.76C15.5 16.34 14.51 16.34 13.9 15.76L4.4 6.63C4.58 6.55 4.79 6.5 5 6.5H25ZM3.67 22.67C3.57 22.47 3.5 22.24 3.5 22V8C3.5 7.75 3.57 7.52 3.67 7.32L11.89 15.21L3.67 22.67ZM5 23.5C4.78 23.5 4.58 23.45 4.39 23.37L12.61 15.91L13.21 16.48C13.7 16.95 14.35 17.19 15 17.19C15.65 17.19 16.3 16.95 16.79 16.48L17.53 15.77C17.53 15.77 17.57 15.84 17.6 15.87L25.62 23.37C25.43 23.46 25.22 23.51 25 23.51H5V23.5Z" fill="#353535"/>
</g>
<defs>
<clipPath id="clip0_7306_127091">
<rect width="25" height="19" fill="white" transform="translate(2.5 5.5)"/>
</clipPath>
</defs>
</svg>
