<svg width="25" height="25" viewBox="0 0 25 25" fill="none" xmlns="http://www.w3.org/2000/svg">
<g clip-path="url(#clip0_6329_62028)">
<g clip-path="url(#clip1_6329_62028)">
<path fill-rule="evenodd" clip-rule="evenodd" d="M1.6604 5.66812C1.6604 4.83736 2.33387 4.16389 3.16463 4.16389H21.9675C22.7982 4.16389 23.4717 4.83736 23.4717 5.66812C23.4717 6.49888 22.7982 7.17235 21.9675 7.17235H3.16463C2.33387 7.17235 1.6604 6.49888 1.6604 5.66812Z" fill="#A2A4BA"/>
<path fill-rule="evenodd" clip-rule="evenodd" d="M1.6604 12.4371C1.6604 11.6064 2.33387 10.9329 3.16463 10.9329H21.9675C22.7982 10.9329 23.4717 11.6064 23.4717 12.4371C23.4717 13.2679 22.7982 13.9414 21.9675 13.9414H3.16463C2.33387 13.9414 1.6604 13.2679 1.6604 12.4371Z" fill="#A2A4BA"/>
<path fill-rule="evenodd" clip-rule="evenodd" d="M1.6604 19.2062C1.6604 18.3754 2.33387 17.7019 3.16463 17.7019H21.9675C22.7982 17.7019 23.4717 18.3754 23.4717 19.2062C23.4717 20.0369 22.7982 20.7104 21.9675 20.7104H3.16463C2.33387 20.7104 1.6604 20.0369 1.6604 19.2062Z" fill="#A2A4BA"/>
</g>
</g>
<defs>
<clipPath id="clip0_6329_62028">
<rect width="24" height="24" fill="white" transform="translate(0.637817 0.548828)"/>
</clipPath>
<clipPath id="clip1_6329_62028">
<rect width="23" height="17" fill="white" transform="translate(1.13782 4.04883)"/>
</clipPath>
</defs>
</svg>
