<svg width="20" height="24" viewBox="0 0 20 24" fill="none" xmlns="http://www.w3.org/2000/svg">
<g clip-path="url(#clip0_8601_222555)">
<path fill-rule="evenodd" clip-rule="evenodd" d="M6.30115 16.2515C6.11365 16.0526 6.0199 15.7429 6.0199 15.3224V10.89C6.0199 10.4865 6.10512 10.1867 6.27558 9.9907C6.44604 9.79465 6.70456 9.68811 7.05115 9.67106V9.2902C7.05115 8.6367 7.17473 8.06277 7.42189 7.56838C7.66905 7.074 8.01421 6.68901 8.4574 6.4134C8.90058 6.1378 9.41762 6 10.0085 6C10.5938 6 11.108 6.1378 11.5512 6.4134C11.9943 6.68901 12.3409 7.074 12.5909 7.56838C12.8409 8.06277 12.9659 8.6367 12.9659 9.2902V9.67106C13.3068 9.68811 13.5625 9.79465 13.733 9.9907C13.9034 10.1867 13.9887 10.4865 13.9887 10.89V15.3224C13.9887 15.7429 13.8949 16.0526 13.7074 16.2515C13.5199 16.4503 13.2301 16.5498 12.8381 16.5498H7.17047C6.77842 16.5498 6.48865 16.4503 6.30115 16.2515ZM8.06535 9.19644V9.66253H11.9432V9.19644C11.9432 8.53726 11.7656 8.00594 11.4105 7.60248C11.0554 7.19902 10.5881 6.99729 10.0085 6.99729C9.42331 6.99729 8.95314 7.19902 8.59802 7.60248C8.24291 8.00594 8.06535 8.53726 8.06535 9.19644ZM9.99996 13.7744C10.4502 13.7744 10.8151 13.4094 10.8151 12.9592C10.8151 12.5089 10.4502 12.1439 9.99996 12.1439C9.54977 12.1439 9.18482 12.5089 9.18482 12.9592C9.18482 13.4094 9.54977 13.7744 9.99996 13.7744Z" fill="#6D75F4"/>
<path fill-rule="evenodd" clip-rule="evenodd" d="M2.83144 2.40372C2.3327 2.59279 1.92235 2.74932 1.60038 2.8733C1.23422 3.01589 0.932766 3.17086 0.696023 3.33824C0.459279 3.50562 0.284092 3.71794 0.170455 3.9752C0.0568176 4.23247 0 4.57497 0 5.00271V14.1527C0 14.9957 0.0994309 15.7458 0.298296 16.4029C0.49716 17.0601 0.817549 17.6691 1.25947 18.2301C1.70139 18.7912 2.27904 19.3475 2.99242 19.8993C3.70581 20.451 4.57386 21.0368 5.59659 21.6567C6.61932 22.2766 7.81565 22.974 9.18561 23.7489C9.33081 23.8295 9.47601 23.8915 9.62121 23.9349C9.76642 23.9783 9.89268 24 10 24C10.1073 24 10.2336 23.9783 10.3788 23.9349C10.524 23.8915 10.6692 23.8295 10.8144 23.7489C12.1907 22.9802 13.3917 22.2875 14.4176 21.6707C15.4435 21.0539 16.3131 20.4696 17.0265 19.9179C17.7399 19.3661 18.3144 18.8082 18.75 18.2441C19.1856 17.68 19.5028 17.0678 19.7017 16.4076C19.9006 15.7474 20 14.9957 20 14.1527V5.00271C20 4.57497 19.9432 4.23247 19.8295 3.9752C19.7159 3.71794 19.5407 3.50717 19.304 3.34289C19.0672 3.17861 18.7658 3.02208 18.3996 2.8733C18.0777 2.74312 17.6689 2.58505 17.1733 2.39907C16.6777 2.21309 16.1411 2.01627 15.5634 1.8086L13.8305 1.18559C13.2528 0.977914 12.7162 0.787293 12.2206 0.613716C11.7251 0.440139 11.3163 0.29756 10.9943 0.185974C10.8302 0.130182 10.666 0.0852382 10.5019 0.0511433C10.3378 0.0170478 10.1705 0 10 0C9.83586 0 9.67014 0.0201471 9.50284 0.0604414C9.33554 0.100736 9.17298 0.14258 9.01515 0.185974C8.68687 0.285162 8.27494 0.421541 7.77936 0.595118C7.28377 0.768695 6.74716 0.959317 6.16951 1.16699C5.59185 1.37466 5.01579 1.58543 4.44129 1.7993C3.86679 2.01317 3.33018 2.21464 2.83144 2.40372ZM4.87739 2.97076C5.44749 2.75853 6.01915 2.54937 6.5924 2.34328C7.16735 2.13658 7.70069 1.94712 8.19256 1.77485C8.671 1.60728 9.05934 1.4788 9.36164 1.38711C9.50132 1.34888 9.64593 1.31172 9.79554 1.27569C9.87161 1.25737 9.9391 1.25 10 1.25C10.0865 1.25 10.1685 1.25858 10.2477 1.27502C10.359 1.29814 10.4726 1.32902 10.5888 1.36837C10.9084 1.47915 11.3145 1.62079 11.8074 1.79345C12.2993 1.96572 12.8327 2.15518 13.4076 2.36188L15.1406 2.98489C15.7136 3.19091 16.2447 3.38573 16.7341 3.56938C17.2238 3.75313 17.6215 3.90701 17.9299 4.0317C18.2394 4.15752 18.4524 4.27344 18.5914 4.36986C18.6441 4.40648 18.6677 4.43864 18.6861 4.48026C18.7026 4.51756 18.75 4.66703 18.75 5.00271V14.1527C18.75 14.8997 18.6617 15.5264 18.5048 16.0471C18.3514 16.5564 18.1062 17.0326 17.7606 17.4801C17.4046 17.9413 16.9122 18.4261 16.2618 18.9291C15.5971 19.4432 14.7702 20.0001 13.7735 20.5994C12.7623 21.2074 11.5738 21.893 10.2064 22.6568C10.1332 22.6973 10.0715 22.7221 10.0209 22.7372C10.0131 22.7396 10.0062 22.7415 10 22.7432C9.99383 22.7415 9.98687 22.7396 9.97914 22.7372C9.92903 22.7223 9.86812 22.6978 9.79601 22.6581C8.4359 21.8887 7.25254 21.1988 6.24453 20.5878C5.25006 19.985 4.42338 19.4257 3.75714 18.9105C3.10459 18.4058 2.60601 17.9195 2.24142 17.4567C1.89208 17.0132 1.64657 16.5427 1.49471 16.0409C1.33839 15.5243 1.25 14.8999 1.25 14.1527V5.00271C1.25 4.66704 1.2974 4.51756 1.31388 4.48027C1.33322 4.43646 1.35957 4.39997 1.41764 4.35891C1.5475 4.2671 1.75064 4.15636 2.05193 4.0389C2.37075 3.91613 2.7781 3.76075 3.27455 3.57255C3.77064 3.38447 4.3049 3.18389 4.87739 2.97076Z" fill="#6D75F4"/>
</g>
<defs>
<clipPath id="clip0_8601_222555">
<rect width="20" height="24" fill="white"/>
</clipPath>
</defs>
</svg>
