<svg width="26" height="26" viewBox="0 0 26 26" fill="none" xmlns="http://www.w3.org/2000/svg">
<path d="M11.9498 11.0611L10.5848 8.00629M11.0607 15.1558L7.13928 18.6439M18.3729 11.3426L15.4264 12.4909M18.8064 18.2648L14.9933 15.1016M15.5997 13.4334C15.5997 14.8692 14.4357 16.0332 12.9999 16.0332C11.564 16.0332 10.4 14.8692 10.4 13.4334C10.4 11.9975 11.564 10.8336 12.9999 10.8336C14.4357 10.8336 15.5997 11.9975 15.5997 13.4334ZM12.1334 5.63383C12.1334 7.06969 10.9694 8.23367 9.53355 8.23367C8.0977 8.23367 6.93372 7.06969 6.93372 5.63383C6.93372 4.19798 8.0977 3.034 9.53355 3.034C10.9694 3.034 12.1334 4.19798 12.1334 5.63383ZM23.3995 10.4002C23.3995 11.836 22.2355 13 20.7997 13C19.3638 13 18.1998 11.836 18.1998 10.4002C18.1998 8.96434 19.3638 7.80035 20.7997 7.80035C22.2355 7.80035 23.3995 8.96434 23.3995 10.4002ZM23.3995 19.9329C23.3995 21.3688 22.2355 22.5327 20.7997 22.5327C19.3638 22.5327 18.1998 21.3688 18.1998 19.9329C18.1998 18.4971 19.3638 17.3331 20.7997 17.3331C22.2355 17.3331 23.3995 18.4971 23.3995 19.9329ZM7.80038 20.3663C7.80038 21.8021 6.6364 22.9661 5.20055 22.9661C3.7647 22.9661 2.60071 21.8021 2.60071 20.3663C2.60071 18.9304 3.7647 17.7664 5.20055 17.7664C6.6364 17.7664 7.80038 18.9304 7.80038 20.3663Z" stroke="#BCBED5" stroke-width="2.16653" stroke-linecap="round" stroke-linejoin="round"/>
</svg>
