<svg width="24" height="24" viewBox="0 0 24 24" fill="none" xmlns="http://www.w3.org/2000/svg">
<path d="M0 16.7778C0 17.0714 0.102007 17.3144 0.306023 17.5068C0.510038 17.6992 0.770156 17.7954 1.08638 17.7954H3.47336C4.35063 17.7954 5.09272 17.6485 5.69967 17.3549C6.30662 17.0613 6.93141 16.5449 7.57406 15.8058L13.771 8.59153C14.2097 8.07514 14.6202 7.71316 15.0028 7.5056C15.3853 7.29803 15.8673 7.19424 16.4487 7.19424H18.2083V9.30536C18.2083 9.56861 18.2874 9.78124 18.4455 9.94325C18.6036 10.1052 18.8051 10.1863 19.0499 10.1863C19.3355 10.1863 19.5651 10.1002 19.7385 9.92806L23.6556 6.78417C23.88 6.60192 23.9947 6.3741 23.9998 6.10072C24.0049 5.82734 23.8953 5.59952 23.6709 5.41727L19.7232 2.22782C19.5395 2.07594 19.3151 2 19.0499 2C18.7949 2 18.5909 2.07847 18.4379 2.23541C18.2849 2.39235 18.2083 2.60245 18.2083 2.86571V5.15907H16.3875C15.5102 5.15907 14.7681 5.30589 14.1612 5.59952C13.5543 5.89315 12.9295 6.40954 12.2868 7.14868L6.10515 14.3629C5.65632 14.8894 5.24064 15.2539 4.85811 15.4564C4.47558 15.6589 4.0242 15.7602 3.50396 15.7602H1.08638C0.780356 15.7602 0.52279 15.8589 0.313673 16.0564C0.104557 16.2538 0 16.4943 0 16.7778ZM0 6.17666C0 6.46017 0.104557 6.70064 0.313673 6.89808C0.52279 7.09552 0.780356 7.19424 1.08638 7.19424H3.50396C4.0242 7.19424 4.47813 7.29803 4.86576 7.5056C5.25339 7.71316 5.66652 8.07514 6.10515 8.59153L12.2868 15.8058C12.9295 16.5449 13.5543 17.0613 14.1612 17.3549C14.7681 17.6485 15.5102 17.7954 16.3875 17.7954H18.2083V20.1343C18.2083 20.3976 18.2849 20.6076 18.4379 20.7646C18.5909 20.9215 18.7949 21 19.0499 21C19.3151 21 19.5395 20.9241 19.7232 20.7722L23.6556 17.5979C23.88 17.4157 23.9947 17.1904 23.9998 16.9221C24.0049 16.6537 23.8953 16.4285 23.6709 16.2462L19.7385 13.0871C19.5651 12.9049 19.3355 12.8137 19.0499 12.8137C18.8051 12.8137 18.6036 12.8948 18.4455 13.0568C18.2874 13.2188 18.2083 13.4314 18.2083 13.6946V15.7602H16.4487C15.8673 15.7602 15.3853 15.6564 15.0028 15.4488C14.6202 15.2413 14.2097 14.8793 13.771 14.3629L7.57406 7.14868C6.93141 6.40954 6.30662 5.89315 5.69967 5.59952C5.09272 5.30589 4.35063 5.15907 3.47336 5.15907H1.08638C0.770156 5.15907 0.510038 5.25526 0.306023 5.44764C0.102007 5.64002 0 5.88303 0 6.17666Z" fill="#6D75F4"/>
</svg>
