<svg width="25" height="24" viewBox="0 0 25 24" fill="none" xmlns="http://www.w3.org/2000/svg">
<g clip-path="url(#clip0_6434_75540)">
<path fill-rule="evenodd" clip-rule="evenodd" d="M12.7799 3.08351C7.85547 3.08351 3.8634 7.07558 3.8634 12.0001C3.8634 16.9245 7.85547 20.9166 12.7799 20.9166C17.7044 20.9166 21.6965 16.9245 21.6965 12.0001C21.6965 7.07558 17.7044 3.08351 12.7799 3.08351ZM1.3634 12.0001C1.3634 5.69487 6.47476 0.583511 12.7799 0.583511C19.0851 0.583511 24.1965 5.69487 24.1965 12.0001C24.1965 18.3052 19.0851 23.4166 12.7799 23.4166C6.47476 23.4166 1.3634 18.3052 1.3634 12.0001Z" fill="#6D75F4"/>
<path fill-rule="evenodd" clip-rule="evenodd" d="M12.78 4.81955C13.4704 4.81955 14.03 5.3792 14.03 6.06955V10.75H18.7105C19.4009 10.75 19.9605 11.3097 19.9605 12C19.9605 12.6904 19.4009 13.25 18.7105 13.25H12.78C12.0897 13.25 11.53 12.6904 11.53 12V6.06955C11.53 5.3792 12.0897 4.81955 12.78 4.81955Z" fill="#6D75F4"/>
</g>
<defs>
<clipPath id="clip0_6434_75540">
<rect width="24" height="24" fill="white" transform="translate(0.780029)"/>
</clipPath>
</defs>
</svg>
