<svg width="25" height="24" viewBox="0 0 25 24" fill="none" xmlns="http://www.w3.org/2000/svg">
<g clip-path="url(#clip0_5146_23079)">
<g clip-path="url(#clip1_5146_23079)">
<path d="M16.0527 19.2388H8.94729C8.62571 19.2388 8.31731 19.111 8.08992 18.8836C7.86252 18.6563 7.73476 18.3478 7.73476 18.0263C7.73476 17.7047 7.86252 17.3963 8.08992 17.1689C8.31731 16.9415 8.62571 16.8137 8.94729 16.8137H16.0527C16.3743 16.8137 16.6827 16.9415 16.9101 17.1689C17.1375 17.3963 17.2652 17.7047 17.2652 18.0263C17.2652 18.1855 17.2339 18.3432 17.173 18.4903C17.112 18.6374 17.0227 18.7711 16.9101 18.8836C16.7975 18.9962 16.6639 19.0856 16.5167 19.1465C16.3696 19.2074 16.212 19.2388 16.0527 19.2388Z" fill="#6D75F4"/>
<path d="M19.6499 2.42506C20.2931 2.42506 20.9099 2.68055 21.3647 3.13534C21.8194 3.59013 22.0749 4.20695 22.0749 4.85012V19.1499C22.0749 19.7931 21.8194 20.4099 21.3647 20.8647C20.9099 21.3195 20.2931 21.5749 19.6499 21.5749H5.35012C4.70695 21.5749 4.09012 21.3195 3.63533 20.8647C3.18054 20.4099 2.92506 19.7931 2.92506 19.1499V4.85012C2.92506 4.20695 3.18054 3.59013 3.63533 3.13534C4.09012 2.68055 4.70695 2.42506 5.35012 2.42506H19.6499ZM19.6499 0H5.35012C4.06379 0 2.83014 0.510989 1.92056 1.42056C1.01099 2.33014 0.5 3.56379 0.5 4.85012V19.1499C0.5 20.4362 1.01099 21.6699 1.92056 22.5794C2.83014 23.489 4.06379 24 5.35012 24H19.6499C20.9362 24 22.1699 23.489 23.0794 22.5794C23.989 21.6699 24.5 20.4362 24.5 19.1499V4.85012C24.5 3.56379 23.989 2.33014 23.0794 1.42056C22.1699 0.510989 20.9362 0 19.6499 0Z" fill="#6D75F4"/>
<path d="M8.01772 4.49854H6.00088C5.55443 4.49854 5.19252 4.86045 5.19252 5.30689V7.32373C5.19252 7.77017 5.55443 8.13209 6.00088 8.13209H8.01772C8.46416 8.13209 8.82607 7.77017 8.82607 7.32373V5.30689C8.82607 4.86045 8.46416 4.49854 8.01772 4.49854Z" fill="#6D75F4"/>
<path d="M13.5266 4.49854H11.5098C11.0633 4.49854 10.7014 4.86045 10.7014 5.30689V7.32373C10.7014 7.77017 11.0633 8.13209 11.5098 8.13209H13.5266C13.9731 8.13209 14.335 7.77017 14.335 7.32373V5.30689C14.335 4.86045 13.9731 4.49854 13.5266 4.49854Z" fill="#6D75F4"/>
<path d="M19.0315 4.49854H17.0147C16.5682 4.49854 16.2063 4.86045 16.2063 5.30689V7.32373C16.2063 7.77017 16.5682 8.13209 17.0147 8.13209H19.0315C19.478 8.13209 19.8399 7.77017 19.8399 7.32373V5.30689C19.8399 4.86045 19.478 4.49854 19.0315 4.49854Z" fill="#6D75F4"/>
<path d="M8.01772 9.7527H6.00088C5.55443 9.7527 5.19252 10.1146 5.19252 10.5611V12.5779C5.19252 13.0243 5.55443 13.3863 6.00088 13.3863H8.01772C8.46416 13.3863 8.82607 13.0243 8.82607 12.5779V10.5611C8.82607 10.1146 8.46416 9.7527 8.01772 9.7527Z" fill="#6D75F4"/>
<path d="M13.5266 9.7527H11.5098C11.0633 9.7527 10.7014 10.1146 10.7014 10.5611V12.5779C10.7014 13.0243 11.0633 13.3863 11.5098 13.3863H13.5266C13.9731 13.3863 14.335 13.0243 14.335 12.5779V10.5611C14.335 10.1146 13.9731 9.7527 13.5266 9.7527Z" fill="#6D75F4"/>
<path d="M19.0315 9.7527H17.0147C16.5682 9.7527 16.2063 10.1146 16.2063 10.5611V12.5779C16.2063 13.0243 16.5682 13.3863 17.0147 13.3863H19.0315C19.478 13.3863 19.8399 13.0243 19.8399 12.5779V10.5611C19.8399 10.1146 19.478 9.7527 19.0315 9.7527Z" fill="#6D75F4"/>
</g>
</g>
<defs>
<clipPath id="clip0_5146_23079">
<rect width="24" height="24" fill="white" transform="translate(0.5)"/>
</clipPath>
<clipPath id="clip1_5146_23079">
<rect width="24" height="24" fill="white" transform="translate(0.5)"/>
</clipPath>
</defs>
</svg>
