<svg width="41" height="40" viewBox="0 0 41 40" fill="none" xmlns="http://www.w3.org/2000/svg">
<g clip-path="url(#clip0_8670_259477)">
<circle cx="20.5" cy="20" r="20" fill="#6D75F4"/>
<g clip-path="url(#clip1_8670_259477)">
<g clip-path="url(#clip2_8670_259477)">
<path d="M13.0349 31H23.2071C24.9966 31 26.1896 29.7554 26.1896 27.9107V15.0491C26.1896 13.2044 24.9966 11.9709 23.2071 11.9709H13.0349C11.214 11.9709 10 13.2044 10 15.0491V27.9107C10 29.7554 11.214 31 13.0349 31ZM13.3907 28.7108C12.5639 28.7108 12.093 28.233 12.093 27.3884V15.5714C12.093 14.7269 12.5639 14.249 13.3907 14.249H22.7989C23.6257 14.249 24.0966 14.738 24.0966 15.5825V27.3884C24.0966 28.233 23.6257 28.7108 22.7989 28.7108H13.3907Z" fill="black"/>
<path d="M13.8104 10.8348H24.1594C25.3154 10.8348 26.1896 10.8348 26.7713 11.5722C27.3803 12.2584 27.3803 12.998 27.3803 14.219V26.0707V27.0291C29.1698 27.0291 30 25.7844 30 23.9398V11.0782C30 9.23349 28.807 8 27.0175 8H16.8453C15.0243 8 13.8104 8.27516 13.8104 10.1198V10.8348Z" fill="black"/>
</g>
</g>
</g>
<defs>
<clipPath id="clip0_8670_259477">
<rect width="40" height="40" fill="white" transform="translate(0.5)"/>
</clipPath>
<clipPath id="clip1_8670_259477">
<rect width="20" height="23" fill="white" transform="translate(10 8)"/>
</clipPath>
<clipPath id="clip2_8670_259477">
<rect width="20" height="23" fill="white" transform="translate(10 8)"/>
</clipPath>
</defs>
</svg>
