<svg width="30" height="23" viewBox="0 0 30 23" fill="none" xmlns="http://www.w3.org/2000/svg">
<g clip-path="url(#clip0_7795_142891)">
<path d="M25.3893 1.90959C23.4877 1.01845 21.417 0.381919 19.2618 0C19.2195 0 19.1773 0 19.1773 0.0424354C18.9237 0.509225 18.6279 1.14576 18.4166 1.61255C16.0923 1.27306 13.8104 1.27306 11.5706 1.61255C11.3593 1.10332 11.0635 0.509225 10.81 0.0424354C10.81 0 10.7677 0 10.7254 0C8.57023 0.381919 6.54179 1.01845 4.59788 1.90959C4.59788 1.90959 4.55562 1.90959 4.55562 1.95203C0.667785 7.76568 -0.388692 13.452 0.118417 19.0959C0.118417 19.1242 0.132503 19.1525 0.160676 19.1808C2.73848 21.0904 5.23176 22.2362 7.64053 23C7.68279 23 7.72505 23 7.72505 22.9576C8.31668 22.1513 8.82378 21.345 9.24637 20.4539C9.28863 20.4114 9.24638 20.3266 9.20412 20.3266C8.40119 20.0295 7.59827 19.6476 6.87987 19.2232C6.83761 19.1808 6.79535 19.0959 6.87987 19.0535C7.0489 18.9262 7.17568 18.7989 7.34472 18.6716C7.38698 18.6292 7.42923 18.6292 7.42923 18.6716C12.3313 20.9207 17.6559 20.9207 22.5157 18.6716H22.6002C22.7693 18.7989 22.8961 18.9262 23.0651 19.0535C23.1073 19.0959 23.1073 19.1808 23.0651 19.2232C22.3044 19.6476 21.5438 20.0295 20.7408 20.3266C20.6986 20.3266 20.6563 20.4114 20.6986 20.4539C21.1634 21.345 21.6705 22.1513 22.2199 22.9576C22.2622 23 22.3044 23 22.3044 23C24.7555 22.2362 27.2487 21.0904 29.8265 19.1808C29.8688 19.1808 29.8688 19.1384 29.8688 19.0959C30.5027 12.6033 28.8123 6.95941 25.3893 1.90959C25.4316 1.90959 25.3893 1.90959 25.3893 1.90959ZM10.007 15.6587C8.52797 15.6587 7.30246 14.3007 7.30246 12.6033C7.30246 10.9059 8.48571 9.54797 10.007 9.54797C11.5284 9.54797 12.7116 10.9059 12.7116 12.6033C12.7116 14.3007 11.5284 15.6587 10.007 15.6587ZM19.9802 15.6587C18.5011 15.6587 17.2756 14.3007 17.2756 12.6033C17.2756 10.9059 18.4589 9.54797 19.9802 9.54797C21.5015 9.54797 22.6848 10.9059 22.6848 12.6033C22.6848 14.3007 21.5015 15.6587 19.9802 15.6587Z" fill="#5865F2"/>
</g>
<defs>
<clipPath id="clip0_7795_142891">
<rect width="30" height="23" fill="white"/>
</clipPath>
</defs>
</svg>
