<svg width="30" height="30" viewBox="0 0 30 30" fill="none" xmlns="http://www.w3.org/2000/svg">
<path d="M25.3893 4.90959C23.4877 4.01845 21.417 3.38192 19.2618 3C19.2195 3 19.1773 3 19.1773 3.04244C18.9237 3.50923 18.6279 4.14576 18.4166 4.61255C16.0923 4.27306 13.8104 4.27306 11.5706 4.61255C11.3593 4.10332 11.0635 3.50923 10.81 3.04244C10.81 3 10.7677 3 10.7254 3C8.57023 3.38192 6.54179 4.01845 4.59788 4.90959C4.59788 4.90959 4.55562 4.90959 4.55562 4.95203C0.667785 10.7657 -0.388692 16.452 0.118417 22.0959C0.118417 22.1242 0.132503 22.1525 0.160676 22.1808C2.73848 24.0904 5.23176 25.2362 7.64053 26C7.68279 26 7.72505 26 7.72505 25.9576C8.31668 25.1513 8.82378 24.345 9.24637 23.4539C9.28863 23.4114 9.24638 23.3266 9.20412 23.3266C8.40119 23.0295 7.59827 22.6476 6.87987 22.2232C6.83761 22.1808 6.79535 22.0959 6.87987 22.0535C7.0489 21.9262 7.17568 21.7989 7.34472 21.6716C7.38698 21.6292 7.42923 21.6292 7.42923 21.6716C12.3313 23.9207 17.6559 23.9207 22.5157 21.6716H22.6002C22.7693 21.7989 22.8961 21.9262 23.0651 22.0535C23.1073 22.0959 23.1073 22.1808 23.0651 22.2232C22.3044 22.6476 21.5438 23.0295 20.7408 23.3266C20.6986 23.3266 20.6563 23.4114 20.6986 23.4539C21.1634 24.345 21.6705 25.1513 22.2199 25.9576C22.2622 26 22.3044 26 22.3044 26C24.7555 25.2362 27.2487 24.0904 29.8265 22.1808C29.8688 22.1808 29.8688 22.1384 29.8688 22.0959C30.5027 15.6033 28.8123 9.95941 25.3893 4.90959C25.4316 4.90959 25.3893 4.90959 25.3893 4.90959ZM10.007 18.6587C8.52797 18.6587 7.30246 17.3007 7.30246 15.6033C7.30246 13.9059 8.48571 12.548 10.007 12.548C11.5284 12.548 12.7116 13.9059 12.7116 15.6033C12.7116 17.3007 11.5284 18.6587 10.007 18.6587ZM19.9802 18.6587C18.5011 18.6587 17.2756 17.3007 17.2756 15.6033C17.2756 13.9059 18.4589 12.548 19.9802 12.548C21.5015 12.548 22.6848 13.9059 22.6848 15.6033C22.6848 17.3007 21.5015 18.6587 19.9802 18.6587Z" fill="#5865F2"/>
</svg>
