<svg width="20" height="15" viewBox="0 0 20 15" fill="none" xmlns="http://www.w3.org/2000/svg">
<path fill-rule="evenodd" clip-rule="evenodd" d="M0 1.5C0 0.671573 0.59258 0 1.32356 0H18.6764C19.4074 0 20 0.671573 20 1.5C20 2.32843 19.4074 3 18.6764 3H1.32356C0.59258 3 0 2.32843 0 1.5Z" fill="#A2A4BA"/>
<path fill-rule="evenodd" clip-rule="evenodd" d="M1.5 7.49999C1.5 6.67157 2.12348 6 2.89259 6H17.1074C17.8765 6 18.5 6.67157 18.5 7.49999C18.5 8.32842 17.8765 8.99999 17.1074 8.99999H2.89259C2.12348 8.99999 1.5 8.32842 1.5 7.49999Z" fill="#A2A4BA"/>
<path fill-rule="evenodd" clip-rule="evenodd" d="M4 13.5C4 12.6716 4.62798 12 5.40263 12H14.5974C15.372 12 16 12.6716 16 13.5C16 14.3284 15.372 15 14.5974 15H5.40263C4.62798 15 4 14.3284 4 13.5Z" fill="#A2A4BA"/>
</svg>
