<svg width="36" height="36" viewBox="0 0 36 36" fill="none" xmlns="http://www.w3.org/2000/svg">
<rect width="36" height="36" rx="18" fill="#1F1F2B"/>
<circle cx="18" cy="18" r="18" fill="#1F1F2B"/>
<g clip-path="url(#clip0_7706_156665)">
<path d="M8 18.456C8 18.847 8.14493 19.1874 8.43478 19.4773C8.72464 19.7671 9.06505 19.912 9.45602 19.912C20.4219 19.912 16.489 19.912 26.544 19.912C26.9484 19.912 27.2922 19.7671 27.5753 19.4773C27.8584 19.1874 28 18.847 28 18.456C28 18.0516 27.8584 17.7078 27.5753 17.4247C27.2922 17.1416 26.9484 17 26.544 17C16.4389 17 20.4826 17 9.45602 17C9.06505 17 8.72464 17.1416 8.43478 17.4247C8.14493 17.7078 8 18.0516 8 18.456Z" fill="#6D75F4"/>
</g>
<defs>
<clipPath id="clip0_7706_156665">
<rect width="20" height="3" fill="white" transform="translate(8 17)"/>
</clipPath>
</defs>
</svg>
