<svg width="25" height="25" viewBox="0 0 25 25" fill="none" xmlns="http://www.w3.org/2000/svg">
<g clip-path="url(#clip0_6331_46204)">
<path d="M17.6428 16.1563C18.6244 16.1563 19.4202 15.3605 19.4202 14.3789C19.4202 13.3973 18.6244 12.6015 17.6428 12.6015C16.6611 12.6015 15.8654 13.3973 15.8654 14.3789C15.8654 15.3605 16.6611 16.1563 17.6428 16.1563Z" fill="#6D75F4"/>
<path fill-rule="evenodd" clip-rule="evenodd" d="M4.31121 4.96448C4.18069 4.9644 4.05148 4.99061 3.93131 5.04156C3.81114 5.09251 3.70247 5.16715 3.61177 5.26101C3.52108 5.35488 3.45022 5.46606 3.40344 5.58791C3.36536 5.68708 3.34386 5.79167 3.33964 5.89749C3.34003 5.91035 3.34023 5.92326 3.34023 5.93623V5.97708C3.35872 6.22751 3.47036 6.46229 3.65362 6.63483C3.84287 6.813 4.09378 6.91092 4.35369 6.90805L4.36752 6.9079L21.6416 6.90797C22.2088 6.90797 22.7528 7.1333 23.1539 7.53438C23.555 7.93547 23.7803 8.47946 23.7803 9.04667V20.5998C23.7803 21.167 23.555 21.711 23.1539 22.112C22.7528 22.5131 22.2088 22.7385 21.6416 22.7385H3.86763C3.06471 22.7385 2.29468 22.4195 1.72693 21.8518C1.15919 21.284 0.840229 20.514 0.840229 19.7111V6.03344C0.827402 5.57556 0.905311 5.11958 1.06956 4.69181C1.23671 4.25647 1.48984 3.85927 1.81387 3.52391C2.13789 3.18854 2.52615 2.9219 2.95548 2.73988C3.38458 2.55795 3.84591 2.4643 4.31198 2.46448C4.31209 2.46448 4.31187 2.46448 4.31198 2.46448H18.9755C19.6659 2.46448 20.2255 3.02412 20.2255 3.71448C20.2255 4.40483 19.6659 4.96448 18.9755 4.96448H4.31121ZM3.34023 9.26174V19.7111C3.34023 19.8509 3.39579 19.9851 3.4947 20.084C3.59361 20.1829 3.72775 20.2385 3.86763 20.2385H21.2803V9.40797H4.37365C4.02072 9.4111 3.67263 9.36095 3.34023 9.26174Z" fill="#6D75F4"/>
</g>
<defs>
<clipPath id="clip0_6331_46204">
<rect width="23.9949" height="21.3288" fill="white" transform="translate(0.315186 2.11989)"/>
</clipPath>
</defs>
</svg>
