<svg width="29" height="26" viewBox="0 0 29 26" fill="none" xmlns="http://www.w3.org/2000/svg">
<g clip-path="url(#clip0_7795_142846)">
<path d="M29.0008 13.2303C29.0008 11.4646 27.5737 10.0315 25.8154 10.0315C24.9489 10.0315 24.1844 10.3642 23.6238 10.9272C21.4577 9.36614 18.4507 8.34252 15.1379 8.21457L16.5904 1.38189L21.3048 2.37992C21.3558 3.58268 22.3497 4.55512 23.5728 4.55512C24.796 4.55512 25.8409 3.5315 25.8409 2.27756C25.8409 1.02362 24.8215 0 23.5728 0C22.6809 0 21.9164 0.511811 21.5597 1.27953L16.2846 0.153543C16.1317 0.127953 15.9788 0.153543 15.8514 0.230315C15.724 0.307087 15.6475 0.435039 15.5966 0.588583L13.9911 8.21457C10.6018 8.31693 7.56933 9.31496 5.37777 10.9272C4.81714 10.3898 4.02716 10.0315 3.18621 10.0315C1.42786 10.0315 0.000793457 11.4646 0.000793457 13.2303C0.000793457 14.5354 0.765293 15.6358 1.88656 16.1476C1.83559 16.4547 1.81011 16.7874 1.81011 17.1201C1.81011 22.0335 7.49288 26 14.5263 26C21.5597 26 27.2424 22.0335 27.2424 17.1201C27.2424 16.7874 27.217 16.4803 27.166 16.1732C28.2108 15.6614 29.0008 14.5354 29.0008 13.2303Z" fill="white"/>
</g>
<defs>
<clipPath id="clip0_7795_142846">
<rect width="29" height="26" fill="white" transform="translate(0.000793457)"/>
</clipPath>
</defs>
</svg>
