<svg width="30" height="30" viewBox="0 0 30 30" fill="none" xmlns="http://www.w3.org/2000/svg">
<g clip-path="url(#clip0_7795_142846)">
<path d="M29.0008 15.2303C29.0008 13.4646 27.5737 12.0315 25.8154 12.0315C24.9489 12.0315 24.1844 12.3642 23.6238 12.9272C21.4577 11.3661 18.4507 10.3425 15.1379 10.2146L16.5904 3.38189L21.3048 4.37992C21.3558 5.58268 22.3497 6.55512 23.5728 6.55512C24.796 6.55512 25.8409 5.5315 25.8409 4.27756C25.8409 3.02362 24.8215 2 23.5728 2C22.6809 2 21.9164 2.51181 21.5597 3.27953L16.2846 2.15354C16.1317 2.12795 15.9788 2.15354 15.8514 2.23031C15.724 2.30709 15.6475 2.43504 15.5966 2.58858L13.9911 10.2146C10.6018 10.3169 7.56933 11.315 5.37777 12.9272C4.81714 12.3898 4.02716 12.0315 3.18621 12.0315C1.42786 12.0315 0.000793457 13.4646 0.000793457 15.2303C0.000793457 16.5354 0.765293 17.6358 1.88656 18.1476C1.83559 18.4547 1.81011 18.7874 1.81011 19.1201C1.81011 24.0335 7.49288 28 14.5263 28C21.5597 28 27.2424 24.0335 27.2424 19.1201C27.2424 18.7874 27.217 18.4803 27.166 18.1732C28.2108 17.6614 29.0008 16.5354 29.0008 15.2303Z" fill="white"/>
</g>
<defs>
<clipPath id="clip0_7795_142846">
<rect width="30" height="30" fill="white" transform="translate(0.000793457)"/>
</clipPath>
</defs>
</svg>
