<svg width="26" height="26" viewBox="0 0 26 26" fill="none" xmlns="http://www.w3.org/2000/svg">
<path fill-rule="evenodd" clip-rule="evenodd" d="M12.9993 3.67019C7.85421 3.67019 3.68326 7.84115 3.68326 12.9863C3.68326 14.629 4.10841 16.1724 4.8547 17.5124L5.16118 17.3275L5.55083 13.431C5.5767 13.1201 5.67977 12.8206 5.85071 12.5596L7.9814 9.21756C8.13111 8.98361 8.32906 8.78436 8.56201 8.63312C8.79496 8.48188 9.05754 8.38216 9.33216 8.34062C9.60677 8.29908 9.88709 8.31669 10.1544 8.39226C10.4207 8.46759 10.668 8.59876 10.8797 8.77705C10.8804 8.77765 10.8811 8.77824 10.8818 8.77883L12.4739 10.1124L15.6661 9.68268L17.9582 7.03958L17.8678 5.04195C16.4511 4.1719 14.7838 3.67019 12.9993 3.67019ZM20.1244 6.9841L20.1261 7.02119C20.1491 7.51487 19.9849 7.99901 19.6662 8.37674L19.6566 8.38796L17.2558 11.1565C16.9488 11.5172 16.5197 11.7524 16.0503 11.817L16.0471 11.8175L12.6716 12.2719C12.4013 12.3101 12.126 12.2905 11.8638 12.2144C11.6019 12.1384 11.3592 12.0077 11.1516 11.831L9.67381 10.5931L7.70279 13.6847L7.30689 17.6438L7.3051 17.6604C7.27124 17.9533 7.17279 18.2351 7.01687 18.4854C6.86094 18.7357 6.65142 18.9483 6.40341 19.1078C6.39467 19.1134 6.38585 19.1189 6.37695 19.1243L6.12642 19.2754C7.82968 21.1358 10.2783 22.3024 12.9993 22.3024C14.7175 22.3024 16.327 21.8372 17.7089 21.026L17.5034 20.8205L15.2265 20.2275C14.7662 20.1015 14.3682 19.8111 14.1077 19.4113C13.848 19.0129 13.743 18.5334 13.8121 18.063L14.0608 16.3113C14.0621 16.3024 14.0635 16.2935 14.065 16.2846C14.1199 15.957 14.2567 15.6485 14.4626 15.3879C14.6686 15.1273 14.937 14.923 15.2431 14.7939L15.2466 14.7924L18.5397 13.4167C18.8838 13.2731 19.2625 13.231 19.6297 13.2958C19.9962 13.3605 20.3366 13.5288 20.6106 13.7807C20.6111 13.7811 20.6116 13.7816 20.612 13.782L22.0705 15.1175C22.2307 14.433 22.3154 13.7196 22.3154 12.9863C22.3154 10.6996 21.4916 8.60531 20.1244 6.9841ZM23.5756 17.4654C24.1592 16.0891 24.482 14.5754 24.482 12.9863C24.482 6.64461 19.341 1.50366 12.9993 1.50366C6.65767 1.50366 1.51672 6.64461 1.51672 12.9863C1.51672 19.328 6.65767 24.4689 12.9993 24.4689C15.6303 24.4689 18.0546 23.584 19.9909 22.0957C20.0429 22.0619 20.0926 22.0232 20.1394 21.9796C21.6274 20.7967 22.8152 19.2522 23.5698 17.479C23.5717 17.4745 23.5737 17.4699 23.5756 17.4654ZM21.2545 17.3079L19.2466 15.4693L16.1872 16.7475L15.983 18.1857L18.1145 18.7409L18.1316 18.7455C18.4588 18.8365 18.757 19.0104 18.9972 19.2504L19.4523 19.7056C20.1745 19.0118 20.7852 18.2027 21.2545 17.3079Z" fill="#BCBED5"/>
</svg>
