<svg width="24" height="24" viewBox="0 0 24 24" fill="none" xmlns="http://www.w3.org/2000/svg">
<g clip-path="url(#clip0_7702_145443)">
<path d="M5.44229 7.28462C5.44229 7.51354 5.524 7.70771 5.68744 7.86714C5.85087 8.02657 6.04699 8.10628 6.27579 8.10628H17.7242C17.953 8.10628 18.1491 8.02657 18.3126 7.86714C18.476 7.70771 18.5577 7.51354 18.5577 7.28462C18.5577 7.0557 18.476 6.85948 18.3126 6.69596C18.1491 6.53245 17.953 6.45069 17.7242 6.45069H6.27579C6.04699 6.45069 5.85087 6.53245 5.68744 6.69596C5.524 6.85948 5.44229 7.0557 5.44229 7.28462ZM5.44229 11.9939C5.44229 12.2228 5.524 12.417 5.68744 12.5764C5.85087 12.7358 6.04699 12.8155 6.27579 12.8155H17.7242C17.953 12.8155 18.1491 12.7358 18.3126 12.5764C18.476 12.417 18.5577 12.2228 18.5577 11.9939C18.5577 11.7649 18.476 11.5687 18.3126 11.4052C18.1491 11.2417 17.953 11.1599 17.7242 11.1599H6.27579C6.04699 11.1599 5.85087 11.2417 5.68744 11.4052C5.524 11.5687 5.44229 11.7649 5.44229 11.9939ZM5.44229 16.7031C5.44229 16.932 5.524 17.1283 5.68744 17.2918C5.85087 17.4553 6.04699 17.537 6.27579 17.537H13.8018C14.0306 17.537 14.2268 17.4553 14.3902 17.2918C14.5536 17.1283 14.6353 16.932 14.6353 16.7031C14.6353 16.4742 14.5536 16.28 14.3902 16.1206C14.2268 15.9612 14.0306 15.8815 13.8018 15.8815H6.27579C6.04699 15.8815 5.85087 15.9612 5.68744 16.1206C5.524 16.28 5.44229 16.4742 5.44229 16.7031ZM0.980592 7.79969C1.6425 7.79969 1.97344 7.46449 1.97344 6.79407V3.89985C1.97344 3.26213 2.13687 2.78181 2.46374 2.45886C2.7906 2.13592 3.26047 1.97445 3.87334 1.97445H6.83963C7.50971 1.97445 7.84474 1.64333 7.84474 0.981093C7.84474 0.327028 7.50971 0 6.83963 0H3.84883C2.56588 0 1.60368 0.316808 0.962206 0.950435C0.320732 1.58406 0 2.5304 0 3.78947V6.79407C0 7.46449 0.326861 7.79969 0.980592 7.79969ZM23.0071 7.79969C23.6691 7.79969 24 7.46449 24 6.79407V3.78947C24 2.5304 23.6793 1.58406 23.0378 0.950435C22.3963 0.316808 21.4341 0 20.1512 0H17.1481C16.4862 0 16.1553 0.327028 16.1553 0.981093C16.1553 1.64333 16.4862 1.97445 17.1481 1.97445H20.1144C20.7191 1.97445 21.189 2.13592 21.524 2.45886C21.859 2.78181 22.0266 3.26213 22.0266 3.89985V6.79407C22.0266 7.46449 22.3534 7.79969 23.0071 7.79969ZM3.84883 24H6.83963C7.50971 24 7.84474 23.673 7.84474 23.0189C7.84474 22.3567 7.50971 22.0255 6.83963 22.0255H3.87334C3.26047 22.0255 2.7906 21.8641 2.46374 21.5411C2.13687 21.2182 1.97344 20.7379 1.97344 20.1002V17.2059C1.97344 16.5355 1.6425 16.2003 0.980592 16.2003C0.326861 16.2003 0 16.5355 0 17.2059V20.1983C0 21.4655 0.320732 22.4159 0.962206 23.0496C1.60368 23.6832 2.56588 24 3.84883 24ZM17.1481 24H20.1512C21.4341 24 22.3963 23.6832 23.0378 23.0496C23.6793 22.4159 24 21.4655 24 20.1983V17.2059C24 16.5355 23.6691 16.2003 23.0071 16.2003C22.3534 16.2003 22.0266 16.5355 22.0266 17.2059V20.1002C22.0266 20.7379 21.859 21.2182 21.524 21.5411C21.189 21.8641 20.7191 22.0255 20.1144 22.0255H17.1481C16.4862 22.0255 16.1553 22.3567 16.1553 23.0189C16.1553 23.673 16.4862 24 17.1481 24Z" fill="#6D75F4"/>
</g>
<defs>
<clipPath id="clip0_7702_145443">
<rect width="24" height="24" fill="white"/>
</clipPath>
</defs>
</svg>
