<svg width="23" height="24" viewBox="0 0 23 24" fill="none" xmlns="http://www.w3.org/2000/svg">
<g clip-path="url(#clip0_297_592)">
<path d="M23 12.2755C23 11.4598 22.9353 10.6397 22.7973 9.83716L11.7306 9.83716L11.7306 14.4581L18.068 14.4581C17.805 15.9485 16.96 17.2669 15.7227 18.1047L15.7227 21.103L19.5036 21.103C21.7239 19.013 23 15.9264 23 12.2755Z" fill="#4285F4"/>
<path d="M11.7308 24.0001C14.8951 24.0001 17.5637 22.9374 19.5081 21.1032L15.7272 18.1048C14.6753 18.8368 13.3173 19.2512 11.7351 19.2512C8.67415 19.2512 6.07883 17.1392 5.14763 14.2996L1.24603 14.2996L1.24603 17.3905C3.23778 21.4427 7.29458 24.0001 11.7308 24.0001Z" fill="#34A853"/>
<path d="M5.14322 14.2995C4.65175 12.8091 4.65175 11.1953 5.14322 9.70496L5.14323 6.61401L1.24594 6.61401C-0.418163 10.0048 -0.418163 13.9996 1.24594 17.3904L5.14322 14.2995Z" fill="#FBBC04"/>
<path d="M11.7307 4.74893C13.4035 4.72247 15.0202 5.36624 16.2316 6.54794L19.5814 3.12189C17.4603 1.08477 14.6451 -0.0351972 11.7307 7.71607e-05C7.29458 7.67728e-05 3.23778 2.55749 1.24603 6.61408L5.14331 9.70502C6.07021 6.861 8.66983 4.74893 11.7307 4.74893Z" fill="#EA4335"/>
</g>
<defs>
<clipPath id="clip0_297_592">
<rect width="23" height="24" fill="white"/>
</clipPath>
</defs>
</svg>
