<svg width="41" height="41" viewBox="0 0 41 41" fill="none" xmlns="http://www.w3.org/2000/svg">
<g clip-path="url(#clip0_6434_60143)">
<circle cx="20.2102" cy="20.844" r="20" fill="#C4C4C4"/>
<path d="M21.7766 23.1292H18.7883C18.7961 22.426 18.8508 21.8206 18.9524 21.3127C19.0618 20.7971 19.2454 20.3323 19.5032 19.9182C19.7688 19.5042 20.1204 19.094 20.5579 18.6877C20.925 18.3596 21.2454 18.0471 21.5188 17.7502C21.7922 17.4534 22.0071 17.1487 22.1633 16.8362C22.3196 16.5159 22.3977 16.1604 22.3977 15.7698C22.3977 15.3167 22.3274 14.9417 22.1868 14.6448C22.054 14.3401 21.8508 14.1096 21.5774 13.9534C21.3118 13.7971 20.9758 13.719 20.5696 13.719C20.2336 13.719 19.9211 13.7932 19.6321 13.9417C19.343 14.0823 19.1047 14.301 18.9172 14.5979C18.7375 14.8948 18.6438 15.2854 18.636 15.7698H15.2375C15.261 14.6995 15.5071 13.8167 15.9758 13.1213C16.4524 12.4182 17.0891 11.8987 17.886 11.5627C18.6829 11.219 19.5774 11.0471 20.5696 11.0471C21.6633 11.0471 22.6008 11.2268 23.3821 11.5862C24.1633 11.9377 24.761 12.4573 25.175 13.1448C25.5891 13.8245 25.7961 14.6526 25.7961 15.6292C25.7961 16.3088 25.6633 16.9143 25.3977 17.4456C25.1321 17.969 24.7844 18.4573 24.3547 18.9104C23.925 19.3635 23.4524 19.8323 22.9368 20.3167C22.4915 20.7151 22.1868 21.1331 22.0227 21.5706C21.8665 22.0081 21.7844 22.5276 21.7766 23.1292ZM18.4368 26.7502C18.4368 26.2502 18.6086 25.8362 18.9524 25.5081C19.2961 25.1721 19.7571 25.0042 20.3352 25.0042C20.9055 25.0042 21.3625 25.1721 21.7063 25.5081C22.0579 25.8362 22.2336 26.2502 22.2336 26.7502C22.2336 27.2346 22.0579 27.6448 21.7063 27.9807C21.3625 28.3167 20.9055 28.4846 20.3352 28.4846C19.7571 28.4846 19.2961 28.3167 18.9524 27.9807C18.6086 27.6448 18.4368 27.2346 18.4368 26.7502Z" fill="#F5F5F5"/>
</g>
<defs>
<clipPath id="clip0_6434_60143">
<rect width="40" height="40" fill="white" transform="translate(0.210205 0.843994)"/>
</clipPath>
</defs>
</svg>
