<svg width="30" height="30" viewBox="0 0 30 30" fill="none" xmlns="http://www.w3.org/2000/svg">
<g clip-path="url(#clip0_7795_142793)">
<path fill-rule="evenodd" clip-rule="evenodd" d="M27.7642 12.6226H15.2653V17.6521H22.3991C22.0896 19.2707 21.161 20.6582 19.746 21.5831C18.5522 22.3635 17.034 22.826 15.2506 22.826C11.8016 22.826 8.86848 20.5425 7.822 17.4642C7.55669 16.6837 7.4093 15.8455 7.4093 14.9928C7.4093 14.1401 7.55669 13.3019 7.822 12.5214C8.86848 9.44306 11.7868 7.15958 15.2506 7.15958C17.1961 7.15958 18.9501 7.80994 20.3209 9.11066L24.1236 5.38193C21.8243 3.28632 18.8175 2.00005 15.2506 2.00005C10.0771 1.9856 5.59637 4.90499 3.41497 9.15401C2.51587 10.9028 2 12.8972 2 14.9928C2 17.0884 2.51587 19.0828 3.41497 20.8316C5.59637 25.0806 10.0771 28 15.2653 28C18.8469 28 21.8537 26.8294 24.0499 24.8494C26.5556 22.5803 28 19.2563 28 15.2963C28 14.3713 27.9116 13.4897 27.7642 12.6371V12.6226Z" fill="white"/>
</g>
<defs>
<clipPath id="clip0_7795_142793">
<rect width="26" height="26" fill="white" transform="translate(2 2)"/>
</clipPath>
</defs>
</svg>
