<svg width="26" height="26" viewBox="0 0 26 26" fill="none" xmlns="http://www.w3.org/2000/svg">
<g clip-path="url(#clip0_7795_142793)">
<g clip-path="url(#clip1_7795_142793)">
<path fill-rule="evenodd" clip-rule="evenodd" d="M25.7642 10.6226H13.2653V15.6521H20.3991C20.0896 17.2707 19.161 18.6582 17.746 19.5831C16.5522 20.3635 15.034 20.826 13.2506 20.826C9.80159 20.826 6.86848 18.5425 5.822 15.4642C5.55669 14.6837 5.4093 13.8455 5.4093 12.9928C5.4093 12.1401 5.55669 11.3019 5.822 10.5214C6.86848 7.44306 9.78685 5.15958 13.2506 5.15958C15.1961 5.15958 16.9501 5.80994 18.3209 7.11066L22.1236 3.38193C19.8243 1.28632 16.8175 5.34197e-05 13.2506 5.34197e-05C8.0771 -0.014399 3.59637 2.90499 1.41497 7.15401C0.515873 8.90276 0 10.8972 0 12.9928C0 15.0884 0.515873 17.0828 1.41497 18.8316C3.59637 23.0806 8.0771 26 13.2653 26C16.8469 26 19.8537 24.8294 22.0499 22.8494C24.5556 20.5803 26 17.2563 26 13.2963C26 12.3713 25.9116 11.4897 25.7642 10.6371V10.6226Z" fill="white"/>
</g>
</g>
<defs>
<clipPath id="clip0_7795_142793">
<rect width="26" height="26" fill="white"/>
</clipPath>
<clipPath id="clip1_7795_142793">
<rect width="26" height="26" fill="white"/>
</clipPath>
</defs>
</svg>
