<svg width="31" height="30" viewBox="0 0 31 30" fill="none" xmlns="http://www.w3.org/2000/svg">
<g clip-path="url(#clip0_9121_273471)">
<g clip-path="url(#clip1_9121_273471)">
<path d="M31 12.9239C31 6.34907 24.2712 1 16 1C7.72884 1 1 6.34907 1 12.9239C1 18.8183 6.33696 23.7542 13.5452 24.688C14.0331 24.7913 14.6981 25.0033 14.8668 25.4124C15.0187 25.7842 14.9652 26.3654 14.916 26.7414C14.916 26.7414 14.7403 27.7784 14.7023 27.9988C14.6362 28.3706 14.4014 29.4517 16.0014 28.7907C17.6028 28.1296 24.6395 23.8079 27.786 20.2602C29.9596 17.9245 31.0014 15.5557 31.0014 12.9239H31ZM10.708 16.4399C10.708 16.5955 10.5801 16.7208 10.4212 16.7208H6.20761C6.04874 16.7208 5.9208 16.5955 5.9208 16.4399V16.4357V10.0276C5.9208 9.87197 6.04874 9.74664 6.20761 9.74664H7.27191C7.42937 9.74664 7.55872 9.87335 7.55872 10.0276V15.1178H10.4226C10.5801 15.1178 10.7094 15.2445 10.7094 15.3987V16.4412L10.708 16.4399ZM13.2444 16.4399C13.2444 16.5941 13.1164 16.7208 12.9575 16.7208H11.8932C11.7358 16.7208 11.6064 16.5955 11.6064 16.4399V10.0276C11.6064 9.87335 11.7344 9.74664 11.8932 9.74664H12.9575C13.1164 9.74664 13.2444 9.87197 13.2444 10.0276V16.4399ZM20.4864 16.4399C20.4864 16.5941 20.3584 16.7208 20.1995 16.7208H19.1423C19.117 16.7208 19.0917 16.7167 19.0678 16.7112C19.0678 16.7112 19.065 16.7112 19.0635 16.7112C19.0565 16.7098 19.0509 16.707 19.0439 16.7057C19.0411 16.7057 19.0382 16.7029 19.0354 16.7029C19.0312 16.7015 19.0256 16.6988 19.0214 16.6974C19.0172 16.6947 19.0115 16.6933 19.0073 16.6905C19.0045 16.6891 19.0017 16.6878 18.9989 16.6864C18.9933 16.6836 18.9862 16.6795 18.9806 16.6754C18.9806 16.6754 18.9778 16.674 18.9778 16.6726C18.9497 16.6533 18.9244 16.6299 18.9033 16.6024L15.9044 12.6346V16.4426C15.9044 16.5969 15.7765 16.7236 15.6176 16.7236H14.5533C14.3958 16.7236 14.2665 16.5982 14.2665 16.4426V10.0303C14.2665 9.8761 14.3944 9.7494 14.5533 9.7494H15.6106C15.6106 9.7494 15.6176 9.7494 15.6204 9.7494C15.626 9.7494 15.6302 9.7494 15.6359 9.7494C15.6415 9.7494 15.6457 9.7494 15.6513 9.75077C15.6555 9.75077 15.6598 9.75077 15.664 9.75215C15.6696 9.75215 15.6752 9.75491 15.6809 9.75628C15.6837 9.75628 15.6879 9.75766 15.6907 9.75904C15.6963 9.76042 15.7019 9.76317 15.7076 9.76455C15.7104 9.76455 15.7132 9.7673 15.7174 9.7673C15.723 9.77006 15.7287 9.77143 15.7343 9.77419C15.7371 9.77556 15.7399 9.77694 15.7427 9.77832C15.7483 9.78107 15.754 9.78383 15.7582 9.78658C15.761 9.78796 15.7638 9.78934 15.7666 9.79209C15.7722 9.79485 15.7765 9.79898 15.7821 9.80173C15.7849 9.80311 15.7877 9.80586 15.7905 9.80724C15.7961 9.81137 15.8004 9.8155 15.806 9.81964C15.8074 9.82101 15.8102 9.82239 15.8116 9.82377C15.8172 9.82928 15.8229 9.83478 15.8285 9.84167C15.8285 9.84167 15.8285 9.84167 15.8299 9.84305C15.8383 9.85269 15.8453 9.86233 15.8524 9.87197L18.847 13.8342V10.0262C18.847 9.87197 18.975 9.74527 19.1338 9.74527H20.1981C20.3556 9.74527 20.485 9.87059 20.485 10.0262V16.4385L20.4864 16.4399ZM26.2957 11.0688C26.2957 11.2244 26.1678 11.3497 26.0089 11.3497H23.145V12.4322H26.0089C26.1664 12.4322 26.2957 12.5589 26.2957 12.7131V13.7557C26.2957 13.9113 26.1678 14.0366 26.0089 14.0366H23.145V15.1191H26.0089C26.1664 15.1191 26.2957 15.2458 26.2957 15.4001V16.4426C26.2957 16.5982 26.1678 16.7236 26.0089 16.7236H21.7953C21.6364 16.7236 21.5085 16.5982 21.5085 16.4426V16.4385V10.0372V10.0303C21.5085 9.87472 21.6364 9.7494 21.7953 9.7494H26.0089C26.1664 9.7494 26.2957 9.8761 26.2957 10.0303V11.0729V11.0688Z" fill="white"/>
</g>
</g>
<defs>
<clipPath id="clip0_9121_273471">
<rect width="30" height="30" fill="white" transform="translate(0.789795)"/>
</clipPath>
<clipPath id="clip1_9121_273471">
<rect width="30" height="28" fill="white" transform="translate(1 1)"/>
</clipPath>
</defs>
</svg>
