<svg width="30" height="30" viewBox="0 0 30 30" fill="none" xmlns="http://www.w3.org/2000/svg">
<g clip-path="url(#clip0_9121_273488)">
<path d="M30 12.9239C30 6.34907 23.2712 1 15 1C6.72884 1 0 6.34907 0 12.9239C0 18.8183 5.33696 23.7542 12.5452 24.688C13.0331 24.7913 13.6981 25.0033 13.8668 25.4124C14.0187 25.7842 13.9652 26.3654 13.916 26.7414C13.916 26.7414 13.7403 27.7784 13.7023 27.9988C13.6362 28.3706 13.4014 29.4517 15.0014 28.7907C16.6028 28.1296 23.6395 23.8079 26.786 20.2602C28.9596 17.9245 30.0014 15.5557 30.0014 12.9239H30ZM9.70803 16.4399C9.70803 16.5955 9.58009 16.7208 9.42122 16.7208H5.20761C5.04874 16.7208 4.9208 16.5955 4.9208 16.4399V16.4357V10.0276C4.9208 9.87197 5.04874 9.74664 5.20761 9.74664H6.27191C6.42937 9.74664 6.55872 9.87335 6.55872 10.0276V15.1178H9.42263C9.58009 15.1178 9.70944 15.2445 9.70944 15.3987V16.4412L9.70803 16.4399ZM12.2444 16.4399C12.2444 16.5941 12.1164 16.7208 11.9575 16.7208H10.8932C10.7358 16.7208 10.6064 16.5955 10.6064 16.4399V10.0276C10.6064 9.87335 10.7344 9.74664 10.8932 9.74664H11.9575C12.1164 9.74664 12.2444 9.87197 12.2444 10.0276V16.4399ZM19.4864 16.4399C19.4864 16.5941 19.3584 16.7208 19.1995 16.7208H18.1423C18.117 16.7208 18.0917 16.7167 18.0678 16.7112C18.0678 16.7112 18.065 16.7112 18.0635 16.7112C18.0565 16.7098 18.0509 16.707 18.0439 16.7057C18.0411 16.7057 18.0382 16.7029 18.0354 16.7029C18.0312 16.7015 18.0256 16.6988 18.0214 16.6974C18.0172 16.6947 18.0115 16.6933 18.0073 16.6905C18.0045 16.6891 18.0017 16.6878 17.9989 16.6864C17.9933 16.6836 17.9862 16.6795 17.9806 16.6754C17.9806 16.6754 17.9778 16.674 17.9778 16.6726C17.9497 16.6533 17.9244 16.6299 17.9033 16.6024L14.9044 12.6346V16.4426C14.9044 16.5969 14.7765 16.7236 14.6176 16.7236H13.5533C13.3958 16.7236 13.2665 16.5982 13.2665 16.4426V10.0303C13.2665 9.8761 13.3944 9.7494 13.5533 9.7494H14.6106C14.6106 9.7494 14.6176 9.7494 14.6204 9.7494C14.626 9.7494 14.6302 9.7494 14.6359 9.7494C14.6415 9.7494 14.6457 9.7494 14.6513 9.75077C14.6555 9.75077 14.6598 9.75077 14.664 9.75215C14.6696 9.75215 14.6752 9.75491 14.6809 9.75628C14.6837 9.75628 14.6879 9.75766 14.6907 9.75904C14.6963 9.76042 14.7019 9.76317 14.7076 9.76455C14.7104 9.76455 14.7132 9.7673 14.7174 9.7673C14.723 9.77006 14.7287 9.77143 14.7343 9.77419C14.7371 9.77556 14.7399 9.77694 14.7427 9.77832C14.7483 9.78107 14.754 9.78383 14.7582 9.78658C14.761 9.78796 14.7638 9.78934 14.7666 9.79209C14.7722 9.79485 14.7765 9.79898 14.7821 9.80173C14.7849 9.80311 14.7877 9.80586 14.7905 9.80724C14.7961 9.81137 14.8004 9.8155 14.806 9.81964C14.8074 9.82101 14.8102 9.82239 14.8116 9.82377C14.8172 9.82928 14.8229 9.83478 14.8285 9.84167C14.8285 9.84167 14.8285 9.84167 14.8299 9.84305C14.8383 9.85269 14.8453 9.86233 14.8524 9.87197L17.847 13.8342V10.0262C17.847 9.87197 17.975 9.74527 18.1338 9.74527H19.1981C19.3556 9.74527 19.485 9.87059 19.485 10.0262V16.4385L19.4864 16.4399ZM25.2957 11.0688C25.2957 11.2244 25.1678 11.3497 25.0089 11.3497H22.145V12.4322H25.0089C25.1664 12.4322 25.2957 12.5589 25.2957 12.7131V13.7557C25.2957 13.9113 25.1678 14.0366 25.0089 14.0366H22.145V15.1191H25.0089C25.1664 15.1191 25.2957 15.2458 25.2957 15.4001V16.4426C25.2957 16.5982 25.1678 16.7236 25.0089 16.7236H20.7953C20.6364 16.7236 20.5085 16.5982 20.5085 16.4426V16.4385V10.0372V10.0303C20.5085 9.87472 20.6364 9.7494 20.7953 9.7494H25.0089C25.1664 9.7494 25.2957 9.8761 25.2957 10.0303V11.0729V11.0688Z" fill="white"/>
</g>
<defs>
<clipPath id="clip0_9121_273488">
<rect width="30" height="30" fill="white"/>
</clipPath>
</defs>
</svg>
