<svg width="36" height="36" viewBox="0 0 36 36" fill="none" xmlns="http://www.w3.org/2000/svg">
<path d="M35.25 18C35.25 27.5269 27.5269 35.25 18 35.25C8.47309 35.25 0.75 27.5269 0.75 18C0.75 8.47309 8.47309 0.75 18 0.75C27.5269 0.75 35.25 8.47309 35.25 18Z" stroke="#6D75F4" stroke-width="1.5"/>
<path d="M18.3998 21.5982H11.2034C10.777 21.6226 10.3502 21.5565 9.95113 21.4044C9.55204 21.2523 9.18962 21.0175 8.88761 20.7155C8.58561 20.4135 8.35085 20.0511 8.19874 19.652C8.04662 19.2529 7.98057 18.8262 8.00493 18.3998V11.2034C7.98057 10.777 8.04662 10.3502 8.19874 9.95113C8.35085 9.55204 8.58561 9.18962 8.88761 8.88761C9.18962 8.58561 9.55204 8.35085 9.95113 8.19874C10.3502 8.04662 10.777 7.98057 11.2034 8.00493H18.3998C18.8262 7.98057 19.2529 8.04662 19.652 8.19874C20.0511 8.35085 20.4135 8.58561 20.7155 8.88761C21.0175 9.18962 21.2523 9.55204 21.4044 9.95113C21.5565 10.3502 21.6226 10.777 21.5982 11.2034V18.3998C21.6226 18.8262 21.5565 19.2529 21.4044 19.652C21.2523 20.0511 21.0175 20.4135 20.7155 20.7155C20.4135 21.0175 20.0511 21.2523 19.652 21.4044C19.2529 21.5565 18.8262 21.6226 18.3998 21.5982ZM11.2034 10.4037C11.0943 10.3858 10.9825 10.394 10.8773 10.4278C10.772 10.4617 10.6764 10.5201 10.5982 10.5982C10.5201 10.6764 10.4617 10.772 10.4278 10.8773C10.394 10.9825 10.3858 11.0943 10.4037 11.2034V18.3998C10.3858 18.5089 10.394 18.6206 10.4278 18.7259C10.4617 18.8311 10.5201 18.9268 10.5982 19.0049C10.6764 19.0831 10.772 19.1415 10.8773 19.1753C10.9825 19.2091 11.0943 19.2174 11.2034 19.1994H18.3998C18.5089 19.2174 18.6206 19.2091 18.7259 19.1753C18.8311 19.1415 18.9268 19.0831 19.0049 19.0049C19.0831 18.9268 19.1415 18.8311 19.1753 18.7259C19.2091 18.6206 19.2174 18.5089 19.1994 18.3998V11.2034C19.2174 11.0943 19.2091 10.9825 19.1753 10.8773C19.1415 10.772 19.0831 10.6764 19.0049 10.5982C18.9268 10.5201 18.8311 10.4617 18.7259 10.4278C18.6206 10.394 18.5089 10.3858 18.3998 10.4037H11.2034ZM24.7966 27.9951H17.6002C17.1738 28.0194 16.7471 27.9534 16.348 27.8013C15.9489 27.6491 15.5865 27.4144 15.2845 27.1124C14.9825 26.8104 14.7477 26.448 14.5956 26.0489C14.4435 25.6498 14.3774 25.223 14.4018 24.7966V24.157C14.4018 22.8296 16.8006 22.6617 16.8006 23.997V24.7966C16.7826 24.9057 16.7909 25.0175 16.8247 25.1227C16.8585 25.228 16.9169 25.3236 16.9951 25.4018C17.0732 25.4799 17.1689 25.5383 17.2741 25.5722C17.3794 25.606 17.4911 25.6142 17.6002 25.5963H24.7966C24.9057 25.6142 25.0175 25.606 25.1227 25.5722C25.228 25.5383 25.3236 25.4799 25.4018 25.4018C25.4799 25.3236 25.5383 25.228 25.5722 25.1227C25.606 25.0175 25.6142 24.9057 25.5963 24.7966V17.6002C25.6142 17.4911 25.606 17.3794 25.5722 17.2741C25.5383 17.1689 25.4799 17.0732 25.4018 16.9951C25.3236 16.9169 25.228 16.8585 25.1227 16.8247C25.0175 16.7909 24.9057 16.7826 24.7966 16.8006H23.997C22.6617 16.8006 22.8296 14.4018 24.157 14.4018H24.7966C25.223 14.3774 25.6498 14.4435 26.0489 14.5956C26.448 14.7477 26.8104 14.9825 27.1124 15.2845C27.4144 15.5865 27.6491 15.9489 27.8013 16.348C27.9534 16.7471 28.0194 17.1738 27.9951 17.6002V24.7966C28.0194 25.223 27.9534 25.6498 27.8013 26.0489C27.6491 26.448 27.4144 26.8104 27.1124 27.1124C26.8104 27.4144 26.448 27.6491 26.0489 27.8013C25.6498 27.9534 25.223 28.0194 24.7966 27.9951Z" fill="#6D75F4"/>
</svg>
