<svg width="24" height="24" viewBox="0 0 24 24" fill="none" xmlns="http://www.w3.org/2000/svg">
<g clip-path="url(#clip0_9244_271929)">
<path d="M0.980592 7.79969C1.6425 7.79969 1.97344 7.46449 1.97344 6.79407V3.89985C1.97344 3.26213 2.13687 2.78181 2.46374 2.45886C2.7906 2.13592 3.26047 1.97445 3.87334 1.97445H6.83963C7.50971 1.97445 7.84474 1.64333 7.84474 0.981093C7.84474 0.327028 7.50971 0 6.83963 0H3.84883C2.56588 0 1.60368 0.316808 0.962206 0.950435C0.320732 1.58406 0 2.5304 0 3.78947V6.79407C0 7.46449 0.326861 7.79969 0.980592 7.79969ZM23.0071 7.79969C23.6691 7.79969 24 7.46449 24 6.79407V3.78947C24 2.5304 23.6793 1.58406 23.0378 0.950435C22.3963 0.316808 21.4341 0 20.1512 0H17.1481C16.4862 0 16.1553 0.327028 16.1553 0.981093C16.1553 1.64333 16.4862 1.97445 17.1481 1.97445H20.1144C20.7191 1.97445 21.189 2.13592 21.524 2.45886C21.859 2.78181 22.0266 3.26213 22.0266 3.89985V6.79407C22.0266 7.46449 22.3534 7.79969 23.0071 7.79969ZM3.84883 24H6.83963C7.50971 24 7.84474 23.673 7.84474 23.0189C7.84474 22.3567 7.50971 22.0255 6.83963 22.0255H3.87334C3.26047 22.0255 2.7906 21.8641 2.46374 21.5411C2.13687 21.2182 1.97344 20.7379 1.97344 20.1002V17.2059C1.97344 16.5355 1.6425 16.2003 0.980592 16.2003C0.326861 16.2003 0 16.5355 0 17.2059V20.1983C0 21.4655 0.320732 22.4159 0.962206 23.0496C1.60368 23.6832 2.56588 24 3.84883 24ZM17.1481 24H20.1512C21.4341 24 22.3963 23.6832 23.0378 23.0496C23.6793 22.4159 24 21.4655 24 20.1983V17.2059C24 16.5355 23.6691 16.2003 23.0071 16.2003C22.3534 16.2003 22.0266 16.5355 22.0266 17.2059V20.1002C22.0266 20.7379 21.859 21.2182 21.524 21.5411C21.189 21.8641 20.7191 22.0255 20.1144 22.0255H17.1481C16.4862 22.0255 16.1553 22.3567 16.1553 23.0189C16.1553 23.673 16.4862 24 17.1481 24Z" fill="#6D75F4"/>
</g>
<path fill-rule="evenodd" clip-rule="evenodd" d="M6.91562 16.2982C7.34362 15.9491 7.97354 16.0131 8.32259 16.4411L7.54763 17.0731C8.32259 16.4411 8.32259 16.4411 8.32259 16.4411L8.32145 16.4397L8.32044 16.4385L8.31884 16.4365L8.31725 16.4346C8.31725 16.4346 8.31792 16.4356 8.32044 16.4385C8.32551 16.4443 8.33636 16.4564 8.35282 16.4741C8.38579 16.5095 8.44129 16.5665 8.51919 16.6381C8.67536 16.7818 8.91891 16.9817 9.24888 17.184C9.90489 17.5862 10.9049 18 12.2619 18C13.619 18 14.6189 17.5862 15.275 17.184C15.6049 16.9817 15.8485 16.7818 16.0046 16.6381C16.0825 16.5665 16.138 16.5095 16.171 16.4741C16.1875 16.4564 16.1982 16.4443 16.2033 16.4384L16.206 16.4353C16.556 16.0125 17.1821 15.9507 17.6082 16.2982C18.0362 16.6472 18.1002 17.2771 17.7512 17.7051L16.9762 17.0731C17.7512 17.7051 17.7512 17.7051 17.7512 17.7051L17.7499 17.7067L17.7484 17.7085L17.7451 17.7125L17.7366 17.7227C17.7301 17.7304 17.722 17.7399 17.7123 17.7511C17.6928 17.7735 17.6667 17.8027 17.6341 17.8377C17.5688 17.9077 17.477 18.0013 17.3585 18.1103C17.1218 18.3279 16.7761 18.6097 16.3203 18.8891C15.4049 19.4503 14.0477 20 12.2619 20C10.4761 20 9.11895 19.4503 8.20352 18.8891C7.74778 18.6097 7.40204 18.3279 7.16536 18.1103C7.04683 18.0013 6.95501 17.9077 6.88977 17.8377C6.85712 17.8027 6.83106 17.7735 6.81157 17.7511C6.80182 17.7399 6.79371 17.7304 6.78723 17.7227L6.77873 17.7125L6.77539 17.7085L6.77396 17.7067L6.77329 17.7059C6.77329 17.7059 6.77267 17.7051 7.54763 17.0731L6.77329 17.7059C6.42424 17.2779 6.48762 16.6472 6.91562 16.2982Z" fill="#6D75F4"/>
<path fill-rule="evenodd" clip-rule="evenodd" d="M17.5 5C18.0523 5 18.5 5.44772 18.5 6V10C18.5 10.5523 18.0523 11 17.5 11C16.9477 11 16.5 10.5523 16.5 10V6C16.5 5.44772 16.9477 5 17.5 5Z" fill="#6D75F4"/>
<path fill-rule="evenodd" clip-rule="evenodd" d="M6.5 5C7.05228 5 7.5 5.44772 7.5 6V10C7.5 10.5523 7.05228 11 6.5 11C5.94772 11 5.5 10.5523 5.5 10V6C5.5 5.44772 5.94772 5 6.5 5Z" fill="#6D75F4"/>
<path fill-rule="evenodd" clip-rule="evenodd" d="M12.5 8C13.0523 8 13.5 8.44772 13.5 9V14C13.5 14.5523 13.0523 15 12.5 15H9.5C8.94772 15 8.5 14.5523 8.5 14C8.5 13.4477 8.94772 13 9.5 13H11.5V9C11.5 8.44772 11.9477 8 12.5 8Z" fill="#6D75F4"/>
<defs>
<clipPath id="clip0_9244_271929">
<rect width="24" height="24" fill="white"/>
</clipPath>
</defs>
</svg>
