<svg width="24" height="24" viewBox="0 0 24 24" fill="none" xmlns="http://www.w3.org/2000/svg">
<g clip-path="url(#clip0_9411_414794)">
<path fill-rule="evenodd" clip-rule="evenodd" d="M2 11.2572V4.92714C2.00329 4.1518 2.32042 3.40914 2.88232 2.86089C3.44421 2.31264 4.20536 2.00321 5 2H19C19.2652 2 19.5196 2.1028 19.7071 2.28578C19.8946 2.46876 20 2.71694 20 2.97571C20 3.23449 19.8946 3.48267 19.7071 3.66565C19.5196 3.84863 19.2652 3.95143 19 3.95143H5C4.73478 3.95143 4.48043 4.05423 4.29289 4.23721C4.10536 4.42019 4 4.66837 4 4.92714C4 5.18592 4.10536 5.43409 4.29289 5.61707C4.48043 5.80006 4.73478 5.90285 5 5.90285H22C22.5304 5.90285 23.0391 6.10845 23.4142 6.47441C23.7893 6.84038 24 7.33673 24 7.85428V19.5628C24 20.0804 23.7893 20.5767 23.4142 20.9427C23.0391 21.3087 22.5304 21.5143 22 21.5143H9.5463C10.0054 21.075 10.4012 20.5695 10.7171 20.0143H22C22.1443 20.0143 22.2756 19.958 22.3667 19.8691C22.4565 19.7814 22.5 19.6705 22.5 19.5628V7.85428C22.5 7.74662 22.4565 7.63569 22.3667 7.54803C22.2756 7.45915 22.1443 7.40285 22 7.40285H5C4.45982 7.40285 3.93304 7.22944 3.5 6.9078V10.6494C2.9711 10.7886 2.46789 10.9945 2 11.2572Z" fill="#6D75F4"/>
<path d="M18.5 15.6665C18.1031 15.6665 17.7151 15.5517 17.3851 15.3366C17.0551 15.1214 16.7979 14.8156 16.646 14.4578C16.4942 14.1001 16.4544 13.7064 16.5318 13.3266C16.6093 12.9468 16.8004 12.5979 17.081 12.3241C17.3617 12.0502 17.7192 11.8638 18.1085 11.7882C18.4978 11.7127 18.9013 11.7514 19.2679 11.8996C19.6346 12.0478 19.948 12.2988 20.1685 12.6208C20.389 12.9428 20.5067 13.3213 20.5067 13.7086C20.5067 14.2278 20.2953 14.7259 19.919 15.0931C19.5426 15.4602 19.0322 15.6665 18.5 15.6665Z" fill="#6D75F4"/>
<path fill-rule="evenodd" clip-rule="evenodd" d="M102.377 8.25935C98.2184 4.20475 93.2282 2.17749 87.4062 2.17749C81.5842 2.17749 76.594 4.20475 72.4355 8.25935C68.2769 12.314 66.1976 17.1482 66.1976 22.7623V96.3685L68.069 130.677L56.529 118.825L34.6967 96.6804C32.6174 94.6011 30.2782 93.0417 27.6791 92.0021C25.08 90.9624 22.5329 90.4426 20.0378 90.4426C14.2158 90.4426 9.48551 92.21 5.84677 95.7447C2.20802 99.2795 0.388672 103.75 0.388672 109.156C0.388672 111.859 0.908477 114.458 1.94813 116.953C2.98778 119.448 4.54721 121.528 6.62649 123.191L71.8117 181.827C74.7227 184.53 77.3737 186.401 79.7649 187.441C82.1561 188.48 84.7032 189 87.4062 189C90.1093 189 92.6564 188.48 95.0476 187.441C97.4387 186.401 100.09 184.53 103.001 181.827L168.186 123.191C170.265 121.528 171.825 119.448 172.864 116.953C173.904 114.458 174.424 111.859 174.424 109.156C174.424 103.75 172.552 99.2795 168.81 95.7447C165.067 92.21 160.389 90.4426 154.775 90.4426C152.072 90.4426 149.473 90.9624 146.977 92.0021C144.482 93.0417 142.195 94.6011 140.116 96.6804L118.283 118.825L106.743 130.677L108.615 96.3685V22.7623C108.615 17.1482 106.536 12.314 102.377 8.25935ZM10.2372 16.8736C10.2372 19.6807 7.89925 22 5.11362 22C2.30809 22 0 19.6906 0 16.8736C0 14.0765 2.30809 11.7571 5.11362 11.7571C7.92909 11.7571 10.2372 14.0665 10.2372 16.8736ZM5.68831 13.2518C5.51613 13.0839 5.30953 13 5.06849 13C4.82745 13 4.62085 13.0839 4.44868 13.2518C4.27651 13.4197 4.19042 13.6198 4.19042 13.8522V16.8997L4.2679 18.3201L3.79012 17.8294L2.88623 16.9126C2.80014 16.8265 2.7033 16.7619 2.59569 16.7189C2.48808 16.6758 2.38263 16.6543 2.27933 16.6543C2.03829 16.6543 1.84244 16.7275 1.69179 16.8738C1.54114 17.0202 1.46582 17.2053 1.46582 17.4291C1.46582 17.541 1.48734 17.6486 1.53038 17.7519C1.57343 17.8552 1.63799 17.9413 1.72408 18.0102L4.42285 20.4378C4.54337 20.5497 4.65313 20.6272 4.75213 20.6702C4.85113 20.7132 4.95658 20.7348 5.06849 20.7348C5.1804 20.7348 5.28586 20.7132 5.38486 20.6702C5.48385 20.6272 5.59361 20.5497 5.71413 20.4378L8.41291 18.0102C8.49899 17.9413 8.56356 17.8552 8.6066 17.7519C8.64964 17.6486 8.67116 17.541 8.67116 17.4291C8.67116 17.2053 8.59369 17.0202 8.43873 16.8738C8.28378 16.7275 8.09009 16.6543 7.85766 16.6543C7.74575 16.6543 7.63814 16.6758 7.53484 16.7189C7.43153 16.7619 7.33684 16.8265 7.25075 16.9126L6.34686 17.8294L5.86909 18.3201L5.94656 16.8997V13.8522C5.94656 13.6198 5.86048 13.4197 5.68831 13.2518Z" fill="#6D75F4"/>
</g>
<defs>
<clipPath id="clip0_9411_414794">
<rect width="24" height="24" fill="white"/>
</clipPath>
</defs>
</svg>
