<svg width="20" height="5" viewBox="0 0 20 5" fill="none" xmlns="http://www.w3.org/2000/svg">
<path d="M5 2.5C5 3.88071 3.88071 5 2.5 5C1.11929 5 0 3.88071 0 2.5C0 1.11929 1.11929 0 2.5 0C3.88071 0 5 1.11929 5 2.5Z" fill="#6D75F4"/>
<path d="M12.4999 2.5C12.4999 3.88071 11.3806 5 9.99993 5C8.61922 5 7.49993 3.88071 7.49993 2.5C7.49993 1.11929 8.61922 0 9.99993 0C11.3806 0 12.4999 1.11929 12.4999 2.5Z" fill="#6D75F4"/>
<path d="M20 2.5C20 3.88071 18.8807 5 17.5 5C16.1193 5 15 3.88071 15 2.5C15 1.11929 16.1193 0 17.5 0C18.8807 0 20 1.11929 20 2.5Z" fill="#6D75F4"/>
</svg>
