<svg width="36" height="36" viewBox="0 0 36 36" fill="none" xmlns="http://www.w3.org/2000/svg">
<circle cx="18" cy="18" r="17.3089" stroke="#6D75F4" stroke-width="1.38213"/>
<path d="M14.5996 29H22.4251C22.868 29 23.2412 28.8616 23.5447 28.5847C23.8482 28.3078 24 27.9479 24 27.5049C24 27.0935 23.8482 26.7454 23.5447 26.4606C23.2412 26.1758 22.868 26.0334 22.4251 26.0334H20.2595V17.1575C20.2595 16.5879 20.1119 16.1291 19.8166 15.781C19.5213 15.4329 19.1029 15.2589 18.5615 15.2589H14.9687C14.5257 15.2589 14.1484 15.3973 13.8367 15.6742C13.525 15.9511 13.3691 16.2952 13.3691 16.7066C13.3691 17.1496 13.525 17.5095 13.8367 17.7864C14.1484 18.0633 14.5257 18.2017 14.9687 18.2017H16.7651V26.0334H14.5996C14.1566 26.0334 13.7793 26.1758 13.4676 26.4606C13.1559 26.7454 13 27.0935 13 27.5049C13 27.9479 13.1559 28.3078 13.4676 28.5847C13.7793 28.8616 14.1566 29 14.5996 29ZM17.7248 12.3398C18.4959 12.3398 19.1439 12.0788 19.6689 11.5566C20.1939 11.0345 20.4564 10.4096 20.4564 9.68177C20.4564 8.92233 20.1939 8.28551 19.6689 7.77131C19.1439 7.2571 18.4959 7 17.7248 7C16.9538 7 16.3016 7.2571 15.7685 7.77131C15.2353 8.28551 14.9687 8.92233 14.9687 9.68177C14.9687 10.4096 15.2353 11.0345 15.7685 11.5566C16.3016 12.0788 16.9538 12.3398 17.7248 12.3398Z" fill="#6D75F4"/>
</svg>
