<svg width="24" height="25" viewBox="0 0 24 25" fill="none" xmlns="http://www.w3.org/2000/svg">
<g clip-path="url(#clip0_6248_62043)">
<path fill-rule="evenodd" clip-rule="evenodd" d="M12 2.76781C6.62304 2.76781 2.26415 7.1267 2.26415 12.5037C2.26415 14.2204 2.70847 15.8333 3.48837 17.2337L3.80866 17.0405L4.21587 12.9684C4.24291 12.6435 4.35063 12.3305 4.52927 12.0578L6.75596 8.56513C6.91241 8.32064 7.11929 8.11241 7.36274 7.95436C7.60618 7.79631 7.88059 7.69209 8.16758 7.64868C8.45457 7.60527 8.74752 7.62366 9.02682 7.70265C9.3052 7.78137 9.56361 7.91845 9.78488 8.10477C9.78562 8.1054 9.78636 8.10602 9.78709 8.10664L11.4509 9.5003L14.787 9.05121L17.1823 6.28901L17.0878 4.20138C15.6072 3.29213 13.8649 2.76781 12 2.76781ZM19.4461 6.23103L19.4479 6.2698C19.4719 6.78572 19.3003 7.29168 18.9673 7.68643L18.9572 7.69815L16.4482 10.5914C16.1274 10.9684 15.679 11.2142 15.1884 11.2817L15.1851 11.2822L11.6575 11.7571C11.375 11.797 11.0873 11.7766 10.8133 11.697C10.5396 11.6176 10.2859 11.481 10.069 11.2963L8.52463 10.0027L6.4648 13.2336L6.05106 17.371L6.04919 17.3883C6.0138 17.6945 5.91092 17.989 5.74797 18.2505C5.58502 18.5121 5.36606 18.7343 5.10687 18.901C5.09773 18.9069 5.08851 18.9126 5.07921 18.9182L4.8174 19.0762C6.5974 21.0203 9.15633 22.2395 12 22.2395C13.7956 22.2395 15.4776 21.7534 16.9217 20.9057L16.707 20.6909L14.3275 20.0712C13.8465 19.9395 13.4305 19.636 13.1583 19.2182C12.8869 18.8018 12.7771 18.3007 12.8494 17.8091L13.1093 15.9785C13.1106 15.9692 13.1121 15.9599 13.1136 15.9505C13.171 15.6082 13.314 15.2859 13.5292 15.0135C13.7444 14.7412 14.025 14.5276 14.3448 14.3927L14.3485 14.3912L17.79 12.9534C18.1496 12.8034 18.5454 12.7595 18.9291 12.8272C19.3122 12.8948 19.6679 13.0706 19.9542 13.3338C19.9547 13.3343 19.9552 13.3348 19.9557 13.3353L21.4799 14.7309C21.6473 14.0156 21.7358 13.27 21.7358 12.5037C21.7358 10.1139 20.8749 7.92529 19.4461 6.23103ZM23.0528 17.1846C23.6627 15.7462 24 14.1643 24 12.5037C24 5.87625 18.6274 0.503662 12 0.503662C5.37258 0.503662 0 5.87625 0 12.5037C0 19.1311 5.37258 24.5037 12 24.5037C14.7495 24.5037 17.2831 23.5789 19.3066 22.0235C19.3609 21.9882 19.4129 21.9478 19.4618 21.9022C21.0168 20.666 22.2581 19.0519 23.0467 17.1989C23.0487 17.1941 23.0508 17.1893 23.0528 17.1846ZM20.6272 17.02L18.5288 15.0986L15.3315 16.4343L15.1181 17.9374L17.3457 18.5176L17.3635 18.5224C17.7054 18.6174 18.017 18.7992 18.2681 19.0501L18.7437 19.5257C19.4985 18.8007 20.1366 17.9551 20.6272 17.02Z" fill="#9298FF"/>
</g>
<defs>
<clipPath id="clip0_6248_62043">
<rect width="24" height="24" fill="white" transform="translate(0 0.5)"/>
</clipPath>
</defs>
</svg>
