<svg width="26" height="26" viewBox="0 0 26 26" fill="none" xmlns="http://www.w3.org/2000/svg">
<path fill-rule="evenodd" clip-rule="evenodd" d="M12.9992 3.88524C7.97372 3.88524 3.89977 7.95919 3.89977 12.9847C3.89977 14.509 4.27459 15.9458 4.93711 17.208L4.95625 17.1964L5.33494 13.4095C5.36402 13.0638 5.47867 12.7308 5.66859 12.4404L7.79877 9.09917C7.96511 8.83923 8.18506 8.61784 8.4439 8.4498C8.70273 8.28176 8.99448 8.17095 9.29961 8.12479C9.60474 8.07864 9.91621 8.0982 10.2132 8.18217C10.5091 8.26587 10.7839 8.41161 11.0191 8.6097C11.0199 8.61037 11.0207 8.61103 11.0215 8.6117L12.5396 9.88333L15.556 9.47728L17.7377 6.96137L17.6564 5.16577C16.294 4.35251 14.7012 3.88524 12.9992 3.88524ZM20.2996 7.552C20.2267 7.90414 20.0672 8.23566 19.8317 8.51483L19.8202 8.52829L17.4199 11.2961C17.0785 11.6969 16.6015 11.9582 16.0797 12.0301L16.0758 12.0306L12.7013 12.4849C12.4008 12.5273 12.0947 12.5055 11.8033 12.4209C11.5123 12.3364 11.2425 12.1912 11.0117 11.995L9.7237 10.916L7.91309 13.756L7.52232 17.6637L7.52018 17.6836C7.48263 18.0084 7.37349 18.3208 7.20062 18.5983C7.02774 18.8758 6.79545 19.1115 6.52048 19.2884C6.50999 19.2952 6.4994 19.3018 6.48872 19.3082L6.4681 19.3206C8.12183 21.025 10.4368 22.0841 12.9992 22.0841C14.5628 22.0841 16.0342 21.6897 17.3196 20.995L15.1847 20.439L15.1692 20.4348C14.6578 20.2949 14.2155 19.9722 13.926 19.528C13.6376 19.0856 13.5209 18.553 13.5975 18.0306L13.8462 16.2793C13.8477 16.2686 13.8494 16.2579 13.8512 16.2472C13.9121 15.8836 14.0639 15.5413 14.2925 15.252C14.5211 14.9628 14.8191 14.736 15.1587 14.5927L15.1629 14.5909L18.456 13.2152C18.8384 13.0557 19.2592 13.0089 19.6672 13.0809C20.0743 13.1528 20.4523 13.3396 20.7567 13.6193C20.7574 13.6199 20.758 13.6205 20.7587 13.6211L21.9372 14.7002C22.0432 14.1446 22.0986 13.5711 22.0986 12.9847C22.0986 10.9483 21.4297 9.06816 20.2996 7.552ZM23.7766 17.5443C24.3702 16.1431 24.6985 14.6022 24.6985 12.9847C24.6985 6.52334 19.4605 1.2854 12.9992 1.2854C6.53787 1.2854 1.29993 6.52334 1.29993 12.9847C1.29993 19.446 6.53787 24.6839 12.9992 24.6839C15.6765 24.6839 18.1438 23.7846 20.1154 22.2716C20.1732 22.2335 20.2285 22.1904 20.2809 22.1422C21.7926 20.9386 22.9995 19.3685 23.7673 17.5664C23.7705 17.5591 23.7736 17.5517 23.7766 17.5443ZM20.9838 17.3524L19.2023 15.7211L16.3842 16.8983L16.2245 18.0232L18.169 18.5297L18.1895 18.5352C18.5526 18.6362 18.8836 18.8292 19.1502 19.0956L19.4535 19.3989C20.0543 18.7943 20.5708 18.1057 20.9838 17.3524ZM7.84232 13.8666L7.84759 13.8585C7.84586 13.8612 7.84411 13.8639 7.84232 13.8666Z" fill="#9298FF"/>
</svg>
