<svg width="34" height="33" viewBox="0 0 34 33" fill="none" xmlns="http://www.w3.org/2000/svg">
<path d="M16.9414 5.88576C6.0188 5.88576 2.37793 14.9879 2.37793 14.9879C2.37793 14.9879 6.0188 24.0901 16.9414 24.0901C27.864 24.0901 31.5049 14.9879 31.5049 14.9879C31.5049 14.9879 27.864 5.88576 16.9414 5.88576Z" stroke="#6D75F4" stroke-width="2.66667"/>
<path d="M30.7222 23.5986C30.5037 23.5986 30.3035 23.5258 30.1214 23.3801C29.1384 22.5063 27.591 20.431 27.5364 20.3582C27.2451 19.9577 27.318 19.3752 27.7185 19.0839C28.119 18.7744 28.7015 18.8655 28.9928 19.2659C29.4115 19.8303 30.613 21.3959 31.3229 22.0148C31.7052 22.3425 31.7416 22.925 31.4139 23.3073C31.2319 23.5076 30.977 23.6168 30.7222 23.6168V23.5986Z" fill="#6D75F4"/>
<path d="M24.2415 27.3486C23.9684 27.3486 23.6953 27.2212 23.5133 26.9845C22.7123 25.9469 21.62 23.5985 21.5836 23.5075C21.3652 23.0524 21.5836 22.5063 22.0205 22.306C22.4756 22.0876 23.0218 22.306 23.222 22.7429C23.5133 23.3619 24.3871 25.1459 24.9514 25.8923C25.2609 26.2928 25.1699 26.8571 24.7876 27.1666C24.6238 27.294 24.4235 27.3486 24.2415 27.3486Z" fill="#6D75F4"/>
<path d="M4.15292 23.8305C3.89806 23.8305 3.6432 23.7212 3.46115 23.521C3.13347 23.1387 3.16988 22.5744 3.55217 22.2285C4.24394 21.6095 5.46363 20.044 5.88233 19.4796C6.1736 19.0791 6.75614 18.9881 7.15663 19.2976C7.55713 19.5889 7.64815 20.1714 7.33868 20.5719C7.26586 20.6629 5.7367 22.7382 4.75366 23.5938C4.57162 23.7394 4.37137 23.8123 4.15292 23.8123V23.8305Z" fill="#6D75F4"/>
<path d="M10.7884 27.3487C10.5881 27.3487 10.4061 27.2941 10.2422 27.1666C9.84175 26.8571 9.76893 26.2928 10.0784 25.8923C10.6427 25.1459 11.5165 23.3619 11.8078 22.743C12.0263 22.2879 12.5542 22.0876 13.0093 22.3061C13.4644 22.5245 13.6647 23.0524 13.4462 23.5075C13.3916 23.5986 12.2993 25.9469 11.5165 26.9846C11.3345 27.2212 11.0614 27.3487 10.7884 27.3487Z" fill="#6D75F4"/>
<path fill-rule="evenodd" clip-rule="evenodd" d="M4.62089 9.49404C7.09844 7.01649 11.0639 4.55242 16.9414 4.55242C22.8189 4.55242 26.7844 7.01649 29.2619 9.49404C30.4924 10.7245 31.3532 11.954 31.9087 12.8797C32.1869 13.3435 32.3903 13.734 32.5265 14.0143C32.5946 14.1545 32.646 14.2675 32.6818 14.3487C32.6996 14.3893 32.7136 14.422 32.7237 14.4462L32.7361 14.476L32.7402 14.4861L32.7423 14.4914C32.7426 14.4921 32.7429 14.4927 31.5049 14.9879C32.7429 15.4831 32.7426 15.4838 32.7423 15.4845L32.7402 15.4898L32.7361 15.4998L32.7237 15.5297C32.7136 15.5539 32.6996 15.5865 32.6818 15.6271C32.646 15.7083 32.5946 15.8213 32.5265 15.9616C32.3903 16.2419 32.1869 16.6323 31.9087 17.0961C31.3532 18.0219 30.4924 19.2513 29.2619 20.4818C26.7844 22.9594 22.8189 25.4234 16.9414 25.4234C11.0639 25.4234 7.09844 22.9594 4.62089 20.4818C3.39039 19.2513 2.5296 18.0219 1.97417 17.0961C1.69589 16.6323 1.49253 16.2419 1.35637 15.9616C1.28824 15.8213 1.23679 15.7083 1.20107 15.6271C1.18321 15.5865 1.16926 15.5539 1.15912 15.5297L1.14674 15.4998L1.14266 15.4898L1.14114 15.486L1.14051 15.4845C1.14023 15.4838 1.13997 15.4831 2.37794 14.9879C1.13997 14.4927 1.14023 14.4921 1.14051 14.4914L1.14114 14.4898L1.14266 14.4861L1.14674 14.476L1.15912 14.4462C1.16926 14.422 1.18321 14.3893 1.20107 14.3487C1.23679 14.2675 1.28824 14.1545 1.35637 14.0143C1.49253 13.734 1.69589 13.3435 1.97417 12.8797C2.5296 11.954 3.39039 10.7245 4.62089 9.49404ZM2.37794 14.9879L1.13997 14.4927L0.941895 14.9879L1.13997 15.4831L2.37794 14.9879ZM3.85065 14.9879C3.95244 14.7893 4.08829 14.5392 4.26081 14.2517C4.72937 13.4708 5.46146 12.4247 6.50651 11.3797C8.58005 9.30611 11.8963 7.21909 16.9414 7.21909C21.9865 7.21909 25.3028 9.30611 27.3763 11.3797C28.4214 12.4247 29.1535 13.4708 29.622 14.2517C29.7945 14.5392 29.9304 14.7893 30.0322 14.9879C29.9304 15.1866 29.7945 15.4366 29.622 15.7242C29.1535 16.5051 28.4214 17.5512 27.3763 18.5962C25.3028 20.6698 21.9865 22.7568 16.9414 22.7568C11.8963 22.7568 8.58005 20.6698 6.50651 18.5962C5.46146 17.5512 4.72937 16.5051 4.26081 15.7242C4.08829 15.4366 3.95244 15.1866 3.85065 14.9879ZM31.5049 14.9879L32.7429 15.4831L32.9409 14.9879L32.7429 14.4927L31.5049 14.9879Z" fill="#6D75F4"/>
<path d="M30.7222 23.5986C30.5037 23.5986 30.3035 23.5258 30.1214 23.3801C29.1384 22.5063 27.591 20.431 27.5364 20.3582C27.2451 19.9577 27.318 19.3752 27.7185 19.0839C28.119 18.7744 28.7015 18.8655 28.9928 19.2659C29.4115 19.8303 30.613 21.3959 31.3229 22.0148C31.7052 22.3425 31.7416 22.925 31.4139 23.3073C31.2319 23.5076 30.977 23.6168 30.7222 23.6168V23.5986Z" fill="#6D75F4"/>
<path d="M24.2415 27.3486C23.9684 27.3486 23.6953 27.2212 23.5133 26.9845C22.7123 25.9469 21.62 23.5985 21.5836 23.5075C21.3652 23.0524 21.5836 22.5063 22.0205 22.306C22.4756 22.0876 23.0218 22.306 23.222 22.7429C23.5133 23.3619 24.3871 25.1459 24.9514 25.8923C25.2609 26.2928 25.1699 26.8571 24.7876 27.1666C24.6238 27.294 24.4235 27.3486 24.2415 27.3486Z" fill="#6D75F4"/>
<path d="M4.15287 23.8305C3.89801 23.8305 3.64315 23.7212 3.4611 23.521C3.13342 23.1387 3.16983 22.5744 3.55212 22.2285C4.24389 21.6095 5.46358 20.044 5.88228 19.4796C6.17355 19.0791 6.75609 18.9881 7.15658 19.2976C7.55708 19.5889 7.6481 20.1714 7.33863 20.5719C7.26581 20.6629 5.73664 22.7382 4.75361 23.5938C4.57157 23.7394 4.37132 23.8123 4.15287 23.8123V23.8305Z" fill="#6D75F4"/>
<path d="M10.7883 27.3487C10.5881 27.3487 10.406 27.2941 10.2422 27.1666C9.84169 26.8571 9.76887 26.2928 10.0783 25.8923C10.6427 25.1459 11.5165 23.3619 11.8078 22.743C12.0262 22.2879 12.5541 22.0876 13.0092 22.3061C13.4644 22.5245 13.6646 23.0524 13.4461 23.5075C13.3915 23.5986 12.2993 25.9469 11.5165 26.9846C11.3344 27.2212 11.0614 27.3487 10.7883 27.3487Z" fill="#6D75F4"/>
</svg>
