<svg width="26" height="25" viewBox="0 0 26 25" fill="none" xmlns="http://www.w3.org/2000/svg">
<path d="M24.1579 4.03762L18.6877 23.4442C18.5965 23.7728 18.4062 24.0654 18.1429 24.282C17.8795 24.4987 17.5558 24.629 17.2157 24.6552H17.0696C16.755 24.6545 16.447 24.5649 16.181 24.3969C15.9151 24.2288 15.702 23.989 15.5663 23.7052L11.8395 15.834C11.8029 15.755 11.7913 15.6666 11.8062 15.5808C11.8212 15.495 11.8619 15.4158 11.923 15.3538L17.2784 9.99845C17.3622 9.92248 17.4297 9.83028 17.4769 9.72743C17.524 9.62457 17.5497 9.51322 17.5525 9.40012C17.5553 9.28702 17.5351 9.17454 17.4931 9.06949C17.4511 8.96445 17.3882 8.86903 17.3082 8.78903C17.2282 8.70903 17.1327 8.64613 17.0277 8.60412C16.9227 8.56212 16.8102 8.54189 16.6971 8.54468C16.584 8.54746 16.4726 8.5732 16.3698 8.62032C16.2669 8.66744 16.1747 8.73497 16.0987 8.81881L10.7434 14.1846C10.6814 14.2457 10.6021 14.2865 10.5163 14.3014C10.4305 14.3163 10.3422 14.3047 10.2632 14.2681L2.43374 10.5622C2.12731 10.4174 1.87003 10.186 1.69376 9.89656C1.51749 9.60711 1.42997 9.27233 1.44201 8.93364C1.46049 8.58492 1.58848 8.25092 1.80777 7.97915C2.02706 7.70738 2.32647 7.5117 2.66341 7.41995L22.1118 1.93933C22.4519 1.84219 22.8141 1.85555 23.1462 1.9775C23.4783 2.09945 23.7631 2.32368 23.9595 2.61788C24.0913 2.82695 24.1772 3.06165 24.2114 3.30642C24.2456 3.5512 24.2273 3.80044 24.1579 4.03762Z" fill="#A2A4BA"/>
</svg>
