<svg width="24" height="24" viewBox="0 0 24 24" fill="none" xmlns="http://www.w3.org/2000/svg">
<path d="M12.4799 16.318H3.84405C3.33237 16.3472 2.82028 16.268 2.34137 16.0854C1.86247 15.9029 1.42755 15.6212 1.06514 15.2588C0.702739 14.8964 0.421029 14.4614 0.238485 13.9825C0.0559418 13.5036 -0.023312 12.9915 0.00592047 12.4799V3.84405C-0.023312 3.33237 0.0559418 2.82028 0.238485 2.34137C0.421029 1.86247 0.702739 1.42755 1.06514 1.06514C1.42755 0.702739 1.86247 0.421029 2.34137 0.238485C2.82028 0.0559418 3.33237 -0.023312 3.84405 0.00592047H12.4799C12.9915 -0.023312 13.5036 0.0559418 13.9825 0.238485C14.4614 0.421029 14.8964 0.702739 15.2588 1.06514C15.6212 1.42755 15.9029 1.86247 16.0854 2.34137C16.268 2.82028 16.3472 3.33237 16.318 3.84405V12.4799C16.3472 12.9915 16.268 13.5036 16.0854 13.9825C15.9029 14.4614 15.6212 14.8964 15.2588 15.2588C14.8964 15.6212 14.4614 15.9029 13.9825 16.0854C13.5036 16.268 12.9915 16.3472 12.4799 16.318ZM3.84405 2.88452C3.71318 2.86293 3.57904 2.87284 3.45276 2.91342C3.32648 2.95401 3.21169 3.0241 3.11789 3.11789C3.0241 3.21169 2.95401 3.32648 2.91342 3.45276C2.87284 3.57904 2.86293 3.71318 2.88452 3.84405V12.4799C2.86293 12.6107 2.87284 12.7449 2.91342 12.8711C2.95401 12.9974 3.0241 13.1122 3.11789 13.206C3.21169 13.2998 3.32648 13.3699 3.45276 13.4105C3.57904 13.4511 3.71318 13.461 3.84405 13.4394H12.4799C12.6107 13.461 12.7449 13.4511 12.8711 13.4105C12.9974 13.3699 13.1122 13.2998 13.206 13.206C13.2998 13.1122 13.3699 12.9974 13.4105 12.8711C13.4511 12.7449 13.461 12.6107 13.4394 12.4799V3.84405C13.461 3.71318 13.4511 3.57904 13.4105 3.45276C13.3699 3.32648 13.2998 3.21169 13.206 3.11789C13.1122 3.0241 12.9974 2.95401 12.8711 2.91342C12.7449 2.87284 12.6107 2.86293 12.4799 2.88452H3.84405ZM20.1561 23.9942H11.5203C11.0086 24.0235 10.4965 23.9442 10.0176 23.7617C9.53873 23.5791 9.10382 23.2974 8.74141 22.935C8.379 22.5726 8.09729 22.1377 7.91475 21.6588C7.73221 21.1799 7.65295 20.6678 7.68219 20.1561V19.3885C7.68219 17.7957 10.5608 17.5942 10.5608 19.1966V20.1561C10.5392 20.287 10.5491 20.4211 10.5897 20.5474C10.6303 20.6737 10.7004 20.7885 10.7942 20.8823C10.888 20.9761 11.0027 21.0462 11.129 21.0867C11.2553 21.1273 11.3894 21.1372 11.5203 21.1156H20.1561C20.287 21.1372 20.4211 21.1273 20.5474 21.0867C20.6737 21.0462 20.7885 20.9761 20.8823 20.8823C20.9761 20.7885 21.0462 20.6737 21.0867 20.5474C21.1273 20.4211 21.1372 20.287 21.1156 20.1561V11.5203C21.1372 11.3894 21.1273 11.2553 21.0867 11.129C21.0462 11.0027 20.9761 10.888 20.8823 10.7942C20.7885 10.7004 20.6737 10.6303 20.5474 10.5897C20.4211 10.5491 20.287 10.5392 20.1561 10.5608H19.1966C17.5942 10.5608 17.7957 7.68219 19.3885 7.68219H20.1561C20.6678 7.65295 21.1799 7.73221 21.6588 7.91475C22.1377 8.09729 22.5726 8.379 22.935 8.74141C23.2974 9.10382 23.5791 9.53873 23.7617 10.0176C23.9442 10.4965 24.0235 11.0086 23.9942 11.5203V20.1561C24.0235 20.6678 23.9442 21.1799 23.7617 21.6588C23.5791 22.1377 23.2974 22.5726 22.935 22.935C22.5726 23.2974 22.1377 23.5791 21.6588 23.7617C21.1799 23.9442 20.6678 24.0235 20.1561 23.9942Z" fill="#6D75F4"/>
</svg>
