<svg width="33" height="33" viewBox="0 0 33 33" fill="none" xmlns="http://www.w3.org/2000/svg">
<g clip-path="url(#clip0_6919_86028)">
<path fill-rule="evenodd" clip-rule="evenodd" d="M5.45837 6.83333C5.45837 6.07394 6.07398 5.45833 6.83337 5.45833H11.4167C12.1761 5.45833 12.7917 6.07394 12.7917 6.83333C12.7917 7.59273 12.1761 8.20833 11.4167 8.20833H10.1529L14.2223 12.2777C14.7593 12.8147 14.7593 13.6853 14.2223 14.2223C13.6853 14.7592 12.8147 14.7592 12.2778 14.2223L8.20837 10.1529V11.4167C8.20837 12.1761 7.59277 12.7917 6.83337 12.7917C6.07398 12.7917 5.45837 12.1761 5.45837 11.4167V6.83333ZM21.8472 8.20833H20.5834C19.824 8.20833 19.2084 7.59273 19.2084 6.83333C19.2084 6.07394 19.824 5.45833 20.5834 5.45833H25.1667C25.9261 5.45833 26.5417 6.07394 26.5417 6.83333V11.4167C26.5417 12.1761 25.9261 12.7917 25.1667 12.7917C24.4073 12.7917 23.7917 12.1761 23.7917 11.4167V10.1529L19.7223 14.2223C19.1853 14.7592 18.3147 14.7592 17.7778 14.2223C17.2408 13.6853 17.2408 12.8147 17.7778 12.2777L21.8472 8.20833ZM14.2223 17.7777C14.7593 18.3147 14.7593 19.1853 14.2223 19.7223L10.1529 23.7917H11.4167C12.1761 23.7917 12.7917 24.4073 12.7917 25.1667C12.7917 25.9261 12.1761 26.5417 11.4167 26.5417H6.83337C6.07398 26.5417 5.45837 25.9261 5.45837 25.1667V20.5833C5.45837 19.8239 6.07398 19.2083 6.83337 19.2083C7.59277 19.2083 8.20837 19.8239 8.20837 20.5833V21.8471L12.2778 17.7777C12.8147 17.2408 13.6853 17.2408 14.2223 17.7777ZM17.7778 17.7777C18.3147 17.2408 19.1853 17.2408 19.7223 17.7777L23.7917 21.8471V20.5833C23.7917 19.8239 24.4073 19.2083 25.1667 19.2083C25.9261 19.2083 26.5417 19.8239 26.5417 20.5833V25.1667C26.5417 25.9261 25.9261 26.5417 25.1667 26.5417H20.5834C19.824 26.5417 19.2084 25.9261 19.2084 25.1667C19.2084 24.4073 19.824 23.7917 20.5834 23.7917H21.8472L17.7778 19.7223C17.2408 19.1853 17.2408 18.3147 17.7778 17.7777Z" fill="#6D75F4"/>
</g>
<defs>
<clipPath id="clip0_6919_86028">
<rect width="22" height="22" fill="white" transform="translate(5 5)"/>
</clipPath>
</defs>
</svg>
