<svg width="24" height="24" viewBox="0 0 24 24" fill="none" xmlns="http://www.w3.org/2000/svg">
<path d="M3.41592 11.0494H8.62526C9.43057 11.0494 10.0345 10.8432 10.4372 10.4307C10.8399 10.0183 11.0412 9.39964 11.0412 8.57476V3.47462C11.0412 2.64974 10.8399 2.03109 10.4372 1.61866C10.0345 1.20622 9.43057 1 8.62526 1H3.41592C2.61061 1 2.00664 1.20622 1.60398 1.61866C1.20132 2.03109 1 2.64974 1 3.47462V8.57476C1 9.39964 1.20132 10.0183 1.60398 10.4307C2.00664 10.8432 2.61061 11.0494 3.41592 11.0494ZM3.43102 9.14815C3.06863 9.14815 2.88744 8.95702 2.88744 8.57476V3.45953C2.88744 3.08733 3.06863 2.90123 3.43102 2.90123H8.59506C8.96752 2.90123 9.15374 3.08733 9.15374 3.45953V8.57476C9.15374 8.95702 8.96752 9.14815 8.59506 9.14815H3.43102ZM4.97117 7.30727H7.05491C7.22604 7.30727 7.3116 7.21171 7.3116 7.02058V5.01372C7.3116 4.83265 7.22604 4.74211 7.05491 4.74211H4.97117C4.81011 4.74211 4.72958 4.83265 4.72958 5.01372V7.02058C4.72958 7.21171 4.81011 7.30727 4.97117 7.30727ZM15.3747 11.0494H20.5841C21.3995 11.0494 22.0059 10.8432 22.4036 10.4307C22.8012 10.0183 23 9.39964 23 8.57476V3.47462C23 2.64974 22.8012 2.03109 22.4036 1.61866C22.0059 1.20622 21.3995 1 20.5841 1H15.3747C14.5694 1 13.9655 1.20622 13.5628 1.61866C13.1601 2.03109 12.9588 2.64974 12.9588 3.47462V8.57476C12.9588 9.39964 13.1601 10.0183 13.5628 10.4307C13.9655 10.8432 14.5694 11.0494 15.3747 11.0494ZM15.4049 9.14815C15.0325 9.14815 14.8463 8.95702 14.8463 8.57476V3.45953C14.8463 3.08733 15.0325 2.90123 15.4049 2.90123H20.569C20.9314 2.90123 21.1126 3.08733 21.1126 3.45953V8.57476C21.1126 8.95702 20.9314 9.14815 20.569 9.14815H15.4049ZM17.0206 7.30727H19.1043C19.2755 7.30727 19.361 7.21171 19.361 7.02058V5.01372C19.361 4.83265 19.2755 4.74211 19.1043 4.74211H17.0206C16.8595 4.74211 16.779 4.83265 16.779 5.01372V7.02058C16.779 7.21171 16.8595 7.30727 17.0206 7.30727ZM3.41592 23H8.62526C9.43057 23 10.0345 22.7963 10.4372 22.3889C10.8399 21.9815 11.0412 21.3603 11.0412 20.5254V15.4252C11.0412 14.6004 10.8399 13.9842 10.4372 13.5768C10.0345 13.1694 9.43057 12.9657 8.62526 12.9657H3.41592C2.61061 12.9657 2.00664 13.1694 1.60398 13.5768C1.20132 13.9842 1 14.6004 1 15.4252V20.5254C1 21.3603 1.20132 21.9815 1.60398 22.3889C2.00664 22.7963 2.61061 23 3.41592 23ZM3.43102 21.0988C3.06863 21.0988 2.88744 20.9127 2.88744 20.5405V15.4252C2.88744 15.043 3.06863 14.8519 3.43102 14.8519H8.59506C8.96752 14.8519 9.15374 15.043 9.15374 15.4252V20.5405C9.15374 20.9127 8.96752 21.0988 8.59506 21.0988H3.43102ZM4.97117 19.2579H7.05491C7.22604 19.2579 7.3116 19.1623 7.3116 18.9712V16.9643C7.3116 16.7833 7.22604 16.6927 7.05491 16.6927H4.97117C4.81011 16.6927 4.72958 16.7833 4.72958 16.9643V18.9712C4.72958 19.1623 4.81011 19.2579 4.97117 19.2579ZM13.7893 16.1193H15.873C16.0442 16.1193 16.1297 16.0238 16.1297 15.8326V13.8258C16.1297 13.6447 16.0442 13.5542 15.873 13.5542H13.7893C13.6282 13.5542 13.5477 13.6447 13.5477 13.8258V15.8326C13.5477 16.0238 13.6282 16.1193 13.7893 16.1193ZM20.0707 16.1193H22.1544C22.3256 16.1193 22.4111 16.0238 22.4111 15.8326V13.8258C22.4111 13.6447 22.3256 13.5542 22.1544 13.5542H20.0707C19.9096 13.5542 19.8291 13.6447 19.8291 13.8258V15.8326C19.8291 16.0238 19.9096 16.1193 20.0707 16.1193ZM16.9602 19.2579H19.0439C19.2151 19.2579 19.3006 19.1623 19.3006 18.9712V16.9643C19.3006 16.7833 19.2151 16.6927 19.0439 16.6927H16.9602C16.7991 16.6927 16.7186 16.7833 16.7186 16.9643V18.9712C16.7186 19.1623 16.7991 19.2579 16.9602 19.2579ZM13.7893 22.3964H15.873C16.0442 22.3964 16.1297 22.3009 16.1297 22.1097V20.1029C16.1297 19.9218 16.0442 19.8313 15.873 19.8313H13.7893C13.6282 19.8313 13.5477 19.9218 13.5477 20.1029V22.1097C13.5477 22.3009 13.6282 22.3964 13.7893 22.3964ZM20.0707 22.3964H22.1544C22.3256 22.3964 22.4111 22.3009 22.4111 22.1097V20.1029C22.4111 19.9218 22.3256 19.8313 22.1544 19.8313H20.0707C19.9096 19.8313 19.8291 19.9218 19.8291 20.1029V22.1097C19.8291 22.3009 19.9096 22.3964 20.0707 22.3964Z" fill="#6D75F4"/>
</svg>
