<svg width="25" height="25" viewBox="0 0 25 25" fill="none" xmlns="http://www.w3.org/2000/svg">
<g clip-path="url(#clip0_6331_46849)">
<path fill-rule="evenodd" clip-rule="evenodd" d="M14.7615 4.07876C15.2703 3.56998 16.0951 3.56998 16.6039 4.07876L20.6039 8.07876C21.1127 8.58754 21.1127 9.41244 20.6039 9.92122L8.60393 21.9212C8.35961 22.1655 8.02823 22.3028 7.6827 22.3028H3.6827C2.96317 22.3028 2.37988 21.7195 2.37988 21V17C2.37988 16.6545 2.51714 16.3231 2.76147 16.0788L14.7615 4.07876ZM4.98552 17.5396V19.6972H7.14306L17.8402 8.99999L15.6827 6.84245L4.98552 17.5396Z" fill="#6D75F4"/>
<path fill-rule="evenodd" clip-rule="evenodd" d="M11.2616 7.57882C11.7704 7.07004 12.5953 7.07004 13.1041 7.57882L17.1041 11.5788C17.6128 12.0876 17.6128 12.9125 17.1041 13.4213C16.5953 13.9301 15.7704 13.9301 15.2616 13.4213L11.2616 9.42128C10.7528 8.9125 10.7528 8.0876 11.2616 7.57882Z" fill="#6D75F4"/>
</g>
<defs>
<clipPath id="clip0_6331_46849">
<rect width="24" height="24" fill="white" transform="translate(0.0439453 0.882751)"/>
</clipPath>
</defs>
</svg>
