<svg width="24" height="24" viewBox="0 0 24 24" fill="none" xmlns="http://www.w3.org/2000/svg">
<path d="M18.656 6.82039H21.6988C22.0992 6.82039 22.4195 6.69677 22.6497 6.45983C22.8899 6.2126 23 5.89325 23 5.49149V2.3289C23 1.92714 22.8799 1.60779 22.6497 1.36056C22.4095 1.11332 22.0992 1 21.6988 1H18.656C18.2657 1 17.9454 1.12362 17.7052 1.36056C17.465 1.60779 17.3449 1.92714 17.3449 2.3289V5.49149C17.3449 5.89325 17.465 6.2126 17.7052 6.45983C17.9454 6.70707 18.2657 6.82039 18.656 6.82039Z" fill="#6D75F4"/>
<path d="M10.4986 6.82039H13.5314C13.9318 6.82039 14.252 6.69677 14.4823 6.45983C14.7225 6.2126 14.8326 5.89325 14.8326 5.49149V2.3289C14.8326 1.92714 14.7125 1.60779 14.4823 1.36056C14.242 1.11332 13.9318 1 13.5314 1H10.4986C10.0983 1 9.77798 1.12362 9.53776 1.36056C9.29754 1.60779 9.17744 1.92714 9.17744 2.3289V5.49149C9.17744 5.89325 9.29754 6.2126 9.53776 6.45983C9.77798 6.70707 10.0983 6.82039 10.4986 6.82039Z" fill="#6D75F4"/>
<path d="M2.30118 6.82039H5.33394C5.7343 6.82039 6.05459 6.69677 6.29481 6.45983C6.53503 6.2126 6.65514 5.89325 6.65514 5.49149V2.3289C6.65514 1.92714 6.53503 1.60779 6.29481 1.36056C6.05459 1.11332 5.7343 1 5.33394 1H2.30118C1.90082 1 1.58053 1.12362 1.35032 1.36056C1.12011 1.59749 1 1.92714 1 2.3289V5.49149C1 5.89325 1.12011 6.2126 1.35032 6.45983C1.59054 6.70707 1.90082 6.82039 2.30118 6.82039Z" fill="#6D75F4"/>
<path d="M18.656 14.9102H21.6988C22.0992 14.9102 22.4195 14.7866 22.6497 14.5496C22.8899 14.3024 23 13.9831 23 13.5813V10.4187C23 10.017 22.8799 9.69761 22.6497 9.45037C22.4095 9.20313 22.0992 9.08981 21.6988 9.08981H18.656C18.2657 9.08981 17.9454 9.21343 17.7052 9.45037C17.465 9.69761 17.3449 10.017 17.3449 10.4187V13.5813C17.3449 13.9831 17.465 14.3024 17.7052 14.5496C17.9454 14.7969 18.2657 14.9102 18.656 14.9102Z" fill="#6D75F4"/>
<path d="M10.4986 14.9102H13.5314C13.9318 14.9102 14.252 14.7866 14.4823 14.5496C14.7225 14.3024 14.8326 13.9831 14.8326 13.5813V10.4187C14.8326 10.017 14.7125 9.69761 14.4823 9.45037C14.242 9.20313 13.9318 9.08981 13.5314 9.08981H10.4986C10.0983 9.08981 9.77798 9.21343 9.53776 9.45037C9.29754 9.69761 9.17744 10.017 9.17744 10.4187V13.5813C9.17744 13.9831 9.29754 14.3024 9.53776 14.5496C9.77798 14.7969 10.0983 14.9102 10.4986 14.9102Z" fill="#6D75F4"/>
<path d="M2.30118 14.9102H5.33394C5.7343 14.9102 6.05459 14.7866 6.29481 14.5496C6.53503 14.3024 6.65514 13.9831 6.65514 13.5813V10.4187C6.65514 10.017 6.53503 9.69761 6.29481 9.45037C6.05459 9.20313 5.7343 9.08981 5.33394 9.08981H2.30118C1.90082 9.08981 1.58053 9.21343 1.35032 9.45037C1.12011 9.6873 1 10.017 1 10.4187V13.5813C1 13.9831 1.12011 14.3024 1.35032 14.5496C1.59054 14.7969 1.90082 14.9102 2.30118 14.9102Z" fill="#6D75F4"/>
<path d="M18.656 23H21.6988C22.0992 23 22.4195 22.8764 22.6497 22.6395C22.8899 22.3922 23 22.0729 23 21.6711V18.5085C23 18.1068 22.8799 17.7874 22.6497 17.5402C22.4095 17.2929 22.0992 17.1796 21.6988 17.1796H18.656C18.2657 17.1796 17.9454 17.3032 17.7052 17.5402C17.465 17.7874 17.3449 18.1068 17.3449 18.5085V21.6711C17.3449 22.0729 17.465 22.3922 17.7052 22.6395C17.9454 22.8867 18.2657 23 18.656 23Z" fill="#6D75F4"/>
<path d="M10.4986 23H13.5314C13.9318 23 14.252 22.8764 14.4823 22.6395C14.7225 22.3922 14.8326 22.0729 14.8326 21.6711V18.5085C14.8326 18.1068 14.7125 17.7874 14.4823 17.5402C14.242 17.2929 13.9318 17.1796 13.5314 17.1796H10.4986C10.0983 17.1796 9.77798 17.3032 9.53776 17.5402C9.29754 17.7874 9.17744 18.1068 9.17744 18.5085V21.6711C9.17744 22.0729 9.29754 22.3922 9.53776 22.6395C9.77798 22.8867 10.0983 23 10.4986 23Z" fill="#6D75F4"/>
<path d="M2.30118 23H5.33394C5.7343 23 6.05459 22.8764 6.29481 22.6395C6.53503 22.3922 6.65514 22.0729 6.65514 21.6711V18.5085C6.65514 18.1068 6.53503 17.7874 6.29481 17.5402C6.05459 17.2929 5.7343 17.1796 5.33394 17.1796H2.30118C1.90082 17.1796 1.58053 17.3032 1.35032 17.5402C1.12011 17.7771 1 18.1068 1 18.5085V21.6711C1 22.0729 1.12011 22.3922 1.35032 22.6395C1.59054 22.8867 1.90082 23 2.30118 23Z" fill="#6D75F4"/>
</svg>
