<svg width="24" height="24" viewBox="0 0 24 24" fill="none" xmlns="http://www.w3.org/2000/svg">
<path d="M5.51846 23H18.4815C20.9276 23 22.2629 21.7052 22.2629 19.2804V7.88604C23.3737 7.59176 24 6.65008 24 5.3435V3.6367C24 2.03585 23.0665 1 21.4476 1H2.56425C1.00443 1 0 2.03585 0 3.6367V5.3435C0 6.65008 0.626292 7.57999 1.74889 7.88604V19.2804C1.74889 21.7052 3.08419 23 5.51846 23ZM3.01329 5.82611C2.46972 5.82611 2.23338 5.57892 2.23338 5.03745V3.94275C2.23338 3.40128 2.46972 3.15409 3.01329 3.15409H21.0103C21.5421 3.15409 21.7666 3.40128 21.7666 3.94275V5.03745C21.7666 5.57892 21.5421 5.82611 21.0103 5.82611H3.01329ZM5.63663 20.7517C4.64402 20.7517 4.10044 20.222 4.10044 19.2215V7.9802H19.8996V19.2215C19.8996 20.222 19.356 20.7517 18.3752 20.7517H5.63663ZM8.20089 12.7945H15.8109C16.3781 12.7945 16.7799 12.3826 16.7799 11.8058V11.4291C16.7799 10.8523 16.3781 10.4639 15.8109 10.4639H8.20089C7.63368 10.4639 7.2319 10.8523 7.2319 11.4291V11.8058C7.2319 12.3826 7.63368 12.7945 8.20089 12.7945Z" fill="#6D75F4"/>
</svg>
