<svg width="24" height="24" viewBox="0 0 24 24" fill="none" xmlns="http://www.w3.org/2000/svg">
<path d="M15.7377 18.5834L13.4645 16.2777C13.2313 16.3516 12.9945 16.407 12.7541 16.444C12.5137 16.4809 12.2696 16.4994 12.0219 16.4994C11.1038 16.4994 10.2732 16.274 9.53006 15.8232C8.78688 15.3724 8.19308 14.7701 7.74863 14.0163C7.30419 13.2625 7.08197 12.4349 7.08197 11.5333C7.08197 11.0012 7.16211 10.506 7.3224 10.0478L3.95628 6.61144C2.71766 7.51303 1.74864 8.43679 1.04918 9.38273C0.349724 10.3287 0 11.0455 0 11.5333C0 11.9914 0.295079 12.6344 0.885245 13.4621C1.47541 14.2898 2.30601 15.1396 3.37705 16.0117C4.44809 16.8837 5.71584 17.619 7.18033 18.2176C8.64482 18.8162 10.2586 19.1155 12.0219 19.1155C12.6776 19.1155 13.3151 19.0675 13.9344 18.9714C14.5537 18.8753 15.1548 18.746 15.7377 18.5834ZM11.4973 14.3046L9.26776 12.021C9.26776 12.6122 9.48634 13.1369 9.9235 13.5951C10.3607 14.0533 10.8852 14.2898 11.4973 14.3046ZM16.6995 13.0187L20.0656 16.4551C21.3042 15.5683 22.2696 14.6482 22.9617 13.6949C23.6539 12.7415 24 12.021 24 11.5333C24 11.0751 23.7122 10.4321 23.1366 9.60443C22.561 8.77674 21.7414 7.92688 20.6776 7.05484C19.6138 6.1828 18.3497 5.44749 16.8852 4.84889C15.4208 4.25029 13.7996 3.95099 12.0219 3.95099C11.3515 3.95099 10.7067 3.99903 10.0874 4.0951C9.46812 4.19117 8.87432 4.32789 8.30601 4.50525L10.5574 6.7888C10.776 6.7149 11.0091 6.65947 11.2568 6.62252C11.5046 6.58557 11.7596 6.56709 12.0219 6.56709C12.9253 6.56709 13.745 6.7888 14.4809 7.23221C15.2168 7.67562 15.8069 8.27051 16.2514 9.01692C16.6958 9.76333 16.918 10.6021 16.918 11.5333C16.918 12.0358 16.8452 12.5309 16.6995 13.0187ZM12.5027 8.76196L14.7104 11.0012C14.6812 10.41 14.4554 9.89265 14.0328 9.44924C13.6102 9.00583 13.1002 8.77674 12.5027 8.76196ZM19.9126 20.7561C20.0729 20.9187 20.2732 21 20.5137 21C20.7541 21 20.9545 20.9187 21.1148 20.7561C21.275 20.5788 21.3552 20.3755 21.3552 20.1464C21.3552 19.9173 21.275 19.7141 21.1148 19.5368L4.06557 2.26604C3.90528 2.08868 3.70492 2 3.46448 2C3.22404 2 3.02368 2.08868 2.86339 2.26604C2.7031 2.42863 2.62295 2.63185 2.62295 2.87573C2.62295 3.1196 2.7031 3.32283 2.86339 3.48541L19.9126 20.7561Z" fill="#6D75F4"/>
</svg>
