<svg width="22" height="24" viewBox="0 0 22 24" fill="none" xmlns="http://www.w3.org/2000/svg">
<g clip-path="url(#clip0_7702_145264)">
<path d="M3.18662 24H13.8674C15.7464 24 16.9991 22.7013 16.9991 20.7764V8.35561C16.9991 6.43072 15.7464 5.1436 13.8674 5.1436H3.18662C1.27465 5.1436 0 6.43072 0 8.35561V20.7764C0 22.7013 1.27465 24 3.18662 24ZM3.56022 21.6113C2.69214 21.6113 2.19767 21.1127 2.19767 20.2314V8.90061C2.19767 8.01933 2.69214 7.52072 3.56022 7.52072H13.4389C14.3069 7.52072 14.8014 8.03093 14.8014 8.9122V20.2314C14.8014 21.1127 14.3069 21.6113 13.4389 21.6113H3.56022Z" fill="#6D75F4"/>
<path d="M5.00092 3.958H13.8674C15.0811 3.958 16.1937 4.37851 17.0095 5.21565C17.8283 6.05595 18.2493 7.21527 18.2493 8.48935V18.8564H18.8683C20.7473 18.8564 22 17.5577 22 15.6328V3.21201C22 1.28712 20.7473 0 18.8683 0H8.18753C6.27556 0 5.00092 1.28712 5.00092 3.21201V3.958Z" fill="#6D75F4"/>
</g>
<defs>
<clipPath id="clip0_7702_145264">
<rect width="22" height="24" fill="white"/>
</clipPath>
</defs>
</svg>
