<svg width="21" height="24" viewBox="0 0 21 24" fill="none" xmlns="http://www.w3.org/2000/svg">
<g clip-path="url(#clip0_7702_145264)">
<g clip-path="url(#clip1_7702_145264)">
<path d="M3.18662 24H13.8674C15.7464 24 16.9991 22.7013 16.9991 20.7764V7.35561C16.9991 5.43072 15.7464 4.1436 13.8674 4.1436H3.18662C1.27465 4.1436 0 5.43072 0 7.35561V20.7764C0 22.7013 1.27465 24 3.18662 24ZM3.56022 21.6113C2.69214 21.6113 2.19767 21.1127 2.19767 20.2314V7.90061C2.19767 7.01933 2.69214 6.52072 3.56022 6.52072H13.4389C14.3069 6.52072 14.8014 7.03093 14.8014 7.9122V20.2314C14.8014 21.1127 14.3069 21.6113 13.4389 21.6113H3.56022Z" fill="#6D75F4"/>
<path d="M4.00092 2.958H14.8674C16.0811 2.958 16.9991 2.958 17.6099 3.72755C18.2493 4.4435 18.2493 5.21527 18.2493 6.48935V18.8564V19.8564C20.1283 19.8564 21 18.5577 21 16.6328V3.21201C21 1.28712 19.7473 0 17.8683 0H7.18753C5.27556 0 4.00092 0.287124 4.00092 2.21201V2.958Z" fill="#6D75F4"/>
</g>
</g>
<defs>
<clipPath id="clip0_7702_145264">
<rect width="21" height="24" fill="white"/>
</clipPath>
<clipPath id="clip1_7702_145264">
<rect width="21" height="24" fill="white"/>
</clipPath>
</defs>
</svg>
