<svg width="20" height="24" viewBox="0 0 20 24" fill="none" xmlns="http://www.w3.org/2000/svg">
<g clip-path="url(#clip0_7702_144148)">
<path d="M3.62473 24H16.3753C17.5883 24 18.4956 23.7057 19.0974 23.1172C19.6991 22.5286 20 21.6457 20 20.4686V9.69226C20 8.51513 19.6991 7.63229 19.0974 7.04372C18.4956 6.45515 17.5883 6.16087 16.3753 6.16087H13.3191V8.19282H16.3468C16.8586 8.19282 17.2542 8.32595 17.5338 8.59221C17.8133 8.85846 17.9531 9.25784 17.9531 9.79036V20.3705C17.9531 20.903 17.8133 21.3024 17.5338 21.5687C17.2542 21.8349 16.8586 21.968 16.3468 21.968H3.65316C3.14143 21.968 2.7458 21.8349 2.46624 21.5687C2.18668 21.3024 2.04691 20.903 2.04691 20.3705V9.79036C2.04691 9.25784 2.18668 8.85846 2.46624 8.59221C2.7458 8.32595 3.14143 8.19282 3.65316 8.19282H6.68088V6.16087H3.62473C2.42122 6.16087 1.51623 6.45515 0.909737 7.04372C0.303243 7.63229 0 8.51513 0 9.69226V20.4686C0 21.6457 0.303243 22.5286 0.909737 23.1172C1.51623 23.7057 2.42122 24 3.62473 24ZM9.99289 15.3117C10.2677 15.3117 10.507 15.2159 10.7107 15.0244C10.9145 14.8329 11.0163 14.6016 11.0163 14.3307V4.40022L10.9311 2.71861L11.5281 3.36323L13.0917 5.03083C13.2623 5.22702 13.4897 5.32511 13.774 5.32511C14.0393 5.32511 14.262 5.24337 14.4421 5.07988C14.6221 4.91639 14.7122 4.70852 14.7122 4.45628C14.7122 4.21338 14.6079 3.99383 14.3994 3.79765L10.7321 0.336323C10.6089 0.20553 10.488 0.116779 10.3696 0.0700673C10.2511 0.0233552 10.1256 0 9.99289 0C9.8697 0 9.74888 0.0233552 9.63042 0.0700673C9.51196 0.116779 9.3864 0.20553 9.25373 0.336323L5.58635 3.79765C5.38735 3.99383 5.28785 4.21338 5.28785 4.45628C5.28785 4.70852 5.37313 4.91639 5.54371 5.07988C5.71429 5.24337 5.93698 5.32511 6.2118 5.32511C6.49609 5.32511 6.72826 5.22702 6.90832 5.03083L8.47193 3.36323L9.06894 2.71861L8.98365 4.40022V14.3307C8.98365 14.6016 9.08552 14.8329 9.28927 15.0244C9.49301 15.2159 9.72755 15.3117 9.99289 15.3117Z" fill="#6D75F4"/>
</g>
<defs>
<clipPath id="clip0_7702_144148">
<rect width="20" height="24" fill="white"/>
</clipPath>
</defs>
</svg>
