<svg width="25" height="25" viewBox="0 0 25 25" fill="none" xmlns="http://www.w3.org/2000/svg">
<path d="M12.0906 4.94746C3.89862 4.94746 1.16797 11.7741 1.16797 11.7741C1.16797 11.7741 3.89862 18.6007 12.0906 18.6007C20.2825 18.6007 23.0132 11.7741 23.0132 11.7741C23.0132 11.7741 20.2825 4.94746 12.0906 4.94746Z" stroke="#6D75F4" stroke-width="2"/>
<path d="M22.4261 18.2321C22.2623 18.2321 22.1121 18.1775 21.9756 18.0682C21.2383 17.4129 20.0778 15.8564 20.0368 15.8018C19.8184 15.5014 19.873 15.0645 20.1733 14.8461C20.4737 14.614 20.9106 14.6822 21.1291 14.9826C21.4431 15.4059 22.3442 16.58 22.8767 17.0442C23.1634 17.29 23.1907 17.7269 22.9449 18.0136C22.8084 18.1638 22.6173 18.2457 22.4261 18.2457V18.2321Z" fill="#6D75F4"/>
<path d="M17.5656 21.0446C17.3608 21.0446 17.156 20.9491 17.0195 20.7716C16.4187 19.9933 15.5995 18.2321 15.5722 18.1638C15.4084 17.8225 15.5722 17.4129 15.8999 17.2627C16.2412 17.0988 16.6508 17.2627 16.801 17.5903C17.0195 18.0546 17.6748 19.3926 18.0981 19.9524C18.3302 20.2527 18.2619 20.676 17.9752 20.9081C17.8523 21.0037 17.7021 21.0446 17.5656 21.0446Z" fill="#6D75F4"/>
<path d="M2.49921 18.406C2.30806 18.406 2.11692 18.3241 1.98039 18.1739C1.73463 17.8872 1.76193 17.4639 2.04865 17.2045C2.56748 16.7403 3.48224 15.5661 3.79627 15.1429C4.01472 14.8425 4.45163 14.7742 4.752 15.0063C5.05237 15.2248 5.12064 15.6617 4.88853 15.9621C4.83392 16.0303 3.68704 17.5868 2.94977 18.2285C2.81323 18.3377 2.66305 18.3923 2.49921 18.3923V18.406Z" fill="#6D75F4"/>
<path d="M7.4758 21.0446C7.32561 21.0446 7.18908 21.0037 7.0662 20.9081C6.76583 20.676 6.71122 20.2528 6.94332 19.9524C7.36657 19.3926 8.02193 18.0546 8.24038 17.5904C8.40422 17.249 8.80017 17.0989 9.1415 17.2627C9.48283 17.4265 9.63302 17.8225 9.46918 18.1638C9.42822 18.2321 8.60902 19.9933 8.02193 20.7716C7.8854 20.9491 7.6806 21.0446 7.4758 21.0446Z" fill="#6D75F4"/>
<path fill-rule="evenodd" clip-rule="evenodd" d="M2.85019 7.65367C4.70835 5.79551 7.68244 3.94746 12.0906 3.94746C16.4987 3.94746 19.4728 5.79551 21.331 7.65367C22.2539 8.57655 22.8994 9.49865 23.316 10.1929C23.5247 10.5408 23.6772 10.8336 23.7794 11.0439C23.8305 11.1491 23.8691 11.2338 23.8958 11.2947C23.9092 11.3251 23.9197 11.3496 23.9273 11.3678L23.9366 11.3902L23.9397 11.3977L23.9413 11.4017C23.9413 11.4017 23.9417 11.4027 23.0132 11.7741C23.9417 12.1455 23.9413 12.1465 23.9413 12.1465L23.9397 12.1505L23.9366 12.158L23.9273 12.1804C23.9197 12.1985 23.9092 12.223 23.8958 12.2535C23.8691 12.3144 23.8305 12.3991 23.7794 12.5043C23.6772 12.7146 23.5247 13.0074 23.316 13.3553C22.8994 14.0495 22.2539 14.9716 21.331 15.8945C19.4728 17.7527 16.4987 19.6007 12.0906 19.6007C7.68244 19.6007 4.70835 17.7527 2.85019 15.8945C1.92732 14.9716 1.28172 14.0495 0.865146 13.3553C0.65644 13.0074 0.503919 12.7146 0.4018 12.5043C0.350705 12.3991 0.312117 12.3144 0.285327 12.2535C0.271928 12.223 0.26147 12.1985 0.253864 12.1804L0.244579 12.158L0.241518 12.1505L0.240378 12.1477L0.239906 12.1465C0.239906 12.1465 0.239499 12.1455 1.16798 11.7741C0.239499 11.4027 0.239906 11.4017 0.239906 11.4017L0.240378 11.4005L0.241518 11.3977L0.244579 11.3902L0.253864 11.3678C0.26147 11.3496 0.271928 11.3251 0.285327 11.2947C0.312117 11.2338 0.350705 11.1491 0.4018 11.0439C0.503919 10.8336 0.65644 10.5408 0.865146 10.1929C1.28172 9.49865 1.92732 8.57655 2.85019 7.65367ZM1.16798 11.7741L0.239499 11.4027L0.0909424 11.7741L0.239499 12.1455L1.16798 11.7741ZM2.27251 11.7741C2.34885 11.6251 2.45074 11.4376 2.58013 11.2219C2.93155 10.6362 3.48062 9.85167 4.2644 9.06789C5.81956 7.51273 8.30677 5.94746 12.0906 5.94746C15.8744 5.94746 18.3616 7.51273 19.9168 9.06789C20.7006 9.85167 21.2496 10.6362 21.601 11.2219C21.7304 11.4376 21.8323 11.6251 21.9087 11.7741C21.8323 11.9231 21.7304 12.1106 21.601 12.3263C21.2496 12.912 20.7006 13.6965 19.9168 14.4803C18.3616 16.0355 15.8744 17.6007 12.0906 17.6007C8.30677 17.6007 5.81956 16.0355 4.2644 14.4803C3.48062 13.6965 2.93155 12.912 2.58013 12.3263C2.45074 12.1106 2.34885 11.9231 2.27251 11.7741ZM23.0132 11.7741L23.9417 12.1455L24.0902 11.7741L23.9417 11.4027L23.0132 11.7741Z" fill="#6D75F4"/>
<path d="M22.4261 18.2321C22.2623 18.2321 22.1121 18.1775 21.9756 18.0682C21.2383 17.4129 20.0778 15.8564 20.0368 15.8018C19.8184 15.5014 19.873 15.0645 20.1733 14.8461C20.4737 14.614 20.9106 14.6822 21.1291 14.9826C21.4431 15.4059 22.3442 16.58 22.8767 17.0442C23.1634 17.29 23.1907 17.7269 22.945 18.0136C22.8084 18.1638 22.6173 18.2457 22.4261 18.2457V18.2321Z" fill="#6D75F4"/>
<path d="M17.5656 21.0446C17.3608 21.0446 17.156 20.9491 17.0195 20.7716C16.4187 19.9933 15.5995 18.2321 15.5722 18.1638C15.4084 17.8225 15.5722 17.4129 15.8999 17.2627C16.2412 17.0988 16.6508 17.2627 16.801 17.5903C17.0195 18.0546 17.6748 19.3926 18.0981 19.9524C18.3302 20.2527 18.2619 20.676 17.9752 20.9081C17.8523 21.0037 17.7021 21.0446 17.5656 21.0446Z" fill="#6D75F4"/>
<path d="M2.49922 18.406C2.30807 18.406 2.11692 18.3241 1.98039 18.1739C1.73463 17.8872 1.76194 17.4639 2.04866 17.2045C2.56748 16.7403 3.48225 15.5661 3.79628 15.1429C4.01473 14.8425 4.45163 14.7742 4.752 15.0063C5.05238 15.2248 5.12064 15.6617 4.88854 15.9621C4.83392 16.0303 3.68705 17.5868 2.94977 18.2285C2.81324 18.3377 2.66305 18.3923 2.49922 18.3923V18.406Z" fill="#6D75F4"/>
<path d="M7.47581 21.0446C7.32562 21.0446 7.18909 21.0037 7.06621 20.9081C6.76584 20.676 6.71122 20.2528 6.94333 19.9524C7.36658 19.3926 8.02194 18.0546 8.24039 17.5904C8.40423 17.249 8.80017 17.0989 9.14151 17.2627C9.48284 17.4265 9.63302 17.8225 9.46918 18.1638C9.42822 18.2321 8.60903 19.9933 8.02194 20.7716C7.8854 20.9491 7.68061 21.0446 7.47581 21.0446Z" fill="#6D75F4"/>
</svg>
