<svg width="36" height="36" viewBox="0 0 36 36" fill="none" xmlns="http://www.w3.org/2000/svg">
<path fill-rule="evenodd" clip-rule="evenodd" d="M18 36C27.9411 36 36 27.9411 36 18C36 8.05887 27.9411 0 18 0C8.05887 0 0 8.05887 0 18C0 27.9411 8.05887 36 18 36ZM8.43478 19.0313C8.14493 18.7415 8 18.4011 8 18.0101C8 17.6057 8.14493 17.2619 8.43478 16.9788C8.72464 16.6957 9.06505 16.5541 9.45602 16.5541H16.5541V9.45602C16.5541 9.06505 16.6957 8.72464 16.9788 8.43478C17.2619 8.14493 17.6057 8 18.0101 8C18.4011 8 18.7415 8.14493 19.0313 8.43478C19.3212 8.72464 19.4661 9.06505 19.4661 9.45602V16.5541H26.544C26.9484 16.5541 27.2922 16.6957 27.5753 16.9788C27.8584 17.2619 28 17.6057 28 18.0101C28 18.4011 27.8584 18.7415 27.5753 19.0313C27.2922 19.3212 26.9484 19.4661 26.544 19.4661H19.4661V26.544C19.4661 26.9484 19.3212 27.2922 19.0313 27.5753C18.7415 27.8584 18.4011 28 18.0101 28C17.6057 28 17.2619 27.8584 16.9788 27.5753C16.6957 27.2922 16.5541 26.9484 16.5541 26.544V19.4661H9.45602C9.06505 19.4661 8.72464 19.3212 8.43478 19.0313Z" fill="#6D75F4"/>
</svg>
