<svg width="24" height="24" viewBox="0 0 24 24" fill="none" xmlns="http://www.w3.org/2000/svg">
<g clip-path="url(#clip0_8691_216364)">
<path d="M10.0973 5.3021C11.92 2.32404 15.7903 1.40636 18.7418 3.25241C21.6932 5.09846 22.6082 9.00918 20.7855 11.9873C20.3828 12.6452 19.8819 13.2007 19.3145 13.6483C18.8194 14.0388 18.7322 14.7612 19.1196 15.2618C19.5071 15.7625 20.2224 15.8518 20.7174 15.4613C21.4935 14.8491 22.1762 14.0908 22.7222 13.1987C25.2056 9.14129 23.959 3.81326 19.9379 1.29817C15.9168 -1.21692 10.6439 0.0333352 8.16049 4.0907C5.67712 8.14807 6.92371 13.4761 10.9448 15.9912C11.4797 16.3257 12.181 16.1594 12.5113 15.6198C12.8416 15.0801 12.6758 14.3715 12.141 14.0369C9.18949 12.1909 8.2745 8.28017 10.0973 5.3021Z" fill="#6D75F4"/>
<path d="M5.00165 10.1181C5.5199 9.75968 5.65163 9.04426 5.29588 8.5202C4.94014 7.99614 4.23162 7.86189 3.71337 8.22034C2.90092 8.78229 2.1726 9.49594 1.57236 10.3518C-1.15733 14.2442 -0.242539 19.6399 3.61561 22.4035C7.47375 25.1671 12.8142 24.2521 15.5439 20.3598C18.2736 16.4675 17.3588 11.0717 13.5007 8.30811C12.9875 7.94054 12.2772 8.06223 11.9142 8.57994C11.5511 9.09764 11.6728 9.8153 12.1859 10.1829C15.0178 12.2113 15.6892 16.1717 13.6856 19.0287C11.6821 21.8856 7.76221 22.5572 4.93037 20.5288C2.09853 18.5003 1.42708 14.5399 3.43065 11.6829C3.87328 11.0518 4.40761 10.529 5.00165 10.1181Z" fill="#6D75F4"/>
</g>
<defs>
<clipPath id="clip0_8691_216364">
<rect width="24" height="24" fill="white"/>
</clipPath>
</defs>
</svg>
