<svg width="24" height="24" viewBox="0 0 24 24" fill="none" xmlns="http://www.w3.org/2000/svg">
<path d="M9.44213 21.3846H18.6185C19.2512 21.3846 19.6909 21.301 19.9376 21.1336C20.1843 20.9663 20.3077 20.7245 20.3077 20.4081C20.3077 19.9457 20.1622 19.4589 19.8712 18.9479C19.5802 18.4368 19.1626 17.9576 18.6185 17.5104C18.0745 17.0632 17.415 16.6997 16.64 16.4198C15.865 16.1399 14.9935 16 14.0256 16C13.0577 16 12.1878 16.1399 11.416 16.4198C10.6441 16.6997 9.9862 17.0632 9.44213 17.5104C8.89806 17.9576 8.48052 18.4368 8.1895 18.9479C7.89849 19.4589 7.75298 19.9457 7.75298 20.4081C7.75298 20.7245 7.87477 20.9663 8.11833 21.1336C8.3619 21.301 8.80316 21.3846 9.44213 21.3846ZM14.0256 14.7223C14.557 14.7223 15.0505 14.5824 15.506 14.3025C15.9615 14.0226 16.3284 13.6423 16.6068 13.1617C16.8851 12.681 17.0243 12.1426 17.0243 11.5463C17.0243 10.95 16.8851 10.4192 16.6068 9.95372C16.3284 9.48827 15.9615 9.12322 15.506 8.85855C15.0505 8.59388 14.557 8.46155 14.0256 8.46155C13.5005 8.46155 13.0102 8.59692 12.5547 8.86768C12.0992 9.13843 11.7323 9.50805 11.4539 9.97654C11.1756 10.445 11.0364 10.9744 11.0364 11.5645C11.0364 12.1547 11.1756 12.6886 11.4539 13.1662C11.7323 13.6439 12.0992 14.0226 12.5547 14.3025C13.0102 14.5824 13.5005 14.7223 14.0256 14.7223ZM1.38548 21.3846H6.82301C6.63321 21.0804 6.54781 20.729 6.56679 20.3305C6.58576 19.932 6.68857 19.5198 6.8752 19.0939C7.06183 18.668 7.31172 18.2588 7.62487 17.8664C7.93803 17.4739 8.29072 17.1347 8.68296 16.8488C8.27174 16.5993 7.80043 16.3924 7.26901 16.2282C6.7376 16.0639 6.1366 15.9818 5.466 15.9818C4.62458 15.9818 3.86701 16.1156 3.19324 16.3833C2.51948 16.651 1.94537 17.0009 1.47088 17.4329C0.996403 17.8649 0.63264 18.3364 0.379583 18.8475C0.126526 19.3586 0 19.8605 0 20.3533C0 20.6758 0.104384 20.9283 0.313156 21.1108C0.521928 21.2934 0.879365 21.3846 1.38548 21.3846ZM5.466 14.8866C5.92782 14.8866 6.35643 14.7649 6.75183 14.5215C7.14723 14.2781 7.46671 13.9466 7.71028 13.5267C7.95385 13.1069 8.07563 12.6384 8.07563 12.1213C8.07563 11.598 7.95385 11.1356 7.71028 10.734C7.46671 10.3325 7.14723 10.0161 6.75183 9.78489C6.35643 9.55368 5.92782 9.43808 5.466 9.43808C5.01049 9.43808 4.58347 9.5552 4.1849 9.78945C3.78634 10.0237 3.46528 10.3446 3.22171 10.7523C2.97814 11.1599 2.85636 11.6223 2.85636 12.1395C2.85636 12.6506 2.97814 13.1145 3.22171 13.5313C3.46528 13.9481 3.78634 14.2781 4.1849 14.5215C4.58347 14.7649 5.01049 14.8866 5.466 14.8866Z" fill="#6D75F4"/>
<path d="M20.3021 9.38462C19.8371 9.38462 19.5308 9.06748 19.5308 8.61444V6.46248H17.387C16.9219 6.46248 16.6157 6.15668 16.6157 5.69231C16.6043 5.21661 16.9219 4.92213 17.387 4.92213H19.5308V2.77017C19.5308 2.31713 19.8371 2 20.3021 2C20.7785 2 21.0848 2.3058 21.0848 2.77017V4.92213H23.2286C23.6937 4.92213 24 5.21661 24 5.69231C24 6.15668 23.6937 6.46248 23.2286 6.46248H21.0848V8.61444C21.0848 9.06748 20.7785 9.38462 20.3021 9.38462Z" fill="#6D75F4"/>
</svg>
