<svg width="22" height="20" viewBox="0 0 22 20" fill="none" xmlns="http://www.w3.org/2000/svg">
<path d="M16.1144 13.5068C17.0557 13.5068 17.8188 12.7217 17.8188 11.7534C17.8188 10.785 17.0557 10 16.1144 10C15.173 10 14.4099 10.785 14.4099 11.7534C14.4099 12.7217 15.173 13.5068 16.1144 13.5068Z" fill="#6D75F4"/>
<path fill-rule="evenodd" clip-rule="evenodd" d="M3.32985 2.46622C3.20468 2.46614 3.08078 2.492 2.96554 2.54226C2.8503 2.59252 2.74609 2.66614 2.65911 2.75874C2.57214 2.85134 2.50419 2.96102 2.45933 3.08122C2.42281 3.17905 2.4022 3.28223 2.39815 3.38661C2.39852 3.39931 2.39871 3.41205 2.39871 3.42483V3.46514C2.41645 3.71218 2.5235 3.94379 2.69924 4.11399C2.88073 4.28976 3.12135 4.38636 3.37059 4.38352L3.38385 4.38337L19.9491 4.38345C20.493 4.38345 21.0147 4.60573 21.3993 5.00139C21.7839 5.39706 22 5.93369 22 6.49324V17.8902C22 18.4498 21.7839 18.9864 21.3993 19.3821C21.0147 19.7777 20.493 20 19.9491 20H2.90447C2.1345 20 1.39607 19.6854 0.851622 19.1253C0.307174 18.5652 0.00130558 17.8056 0.00130558 17.0135V3.52073C-0.0109946 3.06904 0.0637176 2.61922 0.221222 2.19723C0.381512 1.76778 0.624264 1.37594 0.934988 1.04511C1.24571 0.714282 1.61804 0.451237 2.02976 0.271676C2.44125 0.0922135 2.88365 -0.000179898 3.33058 2.62968e-07C3.33069 2.62968e-07 3.33048 2.62968e-07 3.33058 2.62968e-07H17.3924C18.0544 2.62968e-07 18.5911 0.552081 18.5911 1.23311C18.5911 1.91413 18.0544 2.46622 17.3924 2.46622H3.32985ZM2.39871 6.7054V17.0135C2.39871 17.1515 2.452 17.2838 2.54685 17.3814C2.64169 17.479 2.77034 17.5338 2.90447 17.5338H19.6026V6.84966H3.38972C3.05128 6.85275 2.71748 6.80327 2.39871 6.7054Z" fill="#6D75F4"/>
</svg>
