<svg width="36" height="36" viewBox="0 0 36 36" fill="none" xmlns="http://www.w3.org/2000/svg">
<path d="M8.31963 24.3529H16.5917C17.5533 24.3529 18.1117 23.7635 18.1117 22.895C18.1117 22.0057 17.5533 21.437 16.5917 21.437H11.432V21.3646L14.3996 18.6555C16.7675 16.5151 17.7394 15.4191 17.7394 13.5062C17.7394 10.8694 15.506 9.05994 12.1041 9.05994C9.38466 9.05994 7.39936 10.3731 6.74794 12.0896C6.6342 12.3584 6.59284 12.6273 6.59284 12.9168C6.59284 13.8474 7.18222 14.4161 8.16453 14.4161C8.92969 14.4161 9.37432 14.1162 9.84996 13.3821C10.398 12.3894 11.0701 11.9138 12.0524 11.9138C13.2415 11.9138 14.0687 12.679 14.0687 13.7543C14.0687 14.7263 13.5931 15.4087 11.8456 17.0011L7.58549 20.8683C6.841 21.5094 6.54114 22.016 6.54114 22.7295C6.54114 23.6705 7.0995 24.3529 8.31963 24.3529Z" fill="#6D75F4"/>
<path fill-rule="evenodd" clip-rule="evenodd" d="M20.2937 21.3036C19.8285 20.8384 19.8285 20.0842 20.2937 19.619L26.9009 13.0118C27.3661 12.5466 28.1203 12.5466 28.5855 13.0118C29.0507 13.477 29.0507 14.2312 28.5855 14.6964L21.9783 21.3036C21.5131 21.7688 20.7589 21.7688 20.2937 21.3036Z" fill="#6D75F4"/>
<path fill-rule="evenodd" clip-rule="evenodd" d="M29.2517 21.3036C29.7169 20.8384 29.7169 20.0842 29.2517 19.619L22.6445 13.0118C22.1793 12.5466 21.4251 12.5466 20.9599 13.0118C20.4947 13.477 20.4947 14.2312 20.9599 14.6964L27.5671 21.3036C28.0323 21.7688 28.7865 21.7688 29.2517 21.3036Z" fill="#6D75F4"/>
<path d="M35.25 18C35.25 27.5269 27.5269 35.25 18 35.25C8.47309 35.25 0.75 27.5269 0.75 18C0.75 8.47309 8.47309 0.75 18 0.75C27.5269 0.75 35.25 8.47309 35.25 18Z" stroke="#6D75F4" stroke-width="1.5"/>
</svg>
