<svg width="31" height="32" viewBox="0 0 31 32" fill="none" xmlns="http://www.w3.org/2000/svg">
<path d="M24.9923 22.3558C24.8698 20.1875 23.6937 18.2519 21.4886 16.6104C20.7904 16.0959 19.6633 15.3609 18.1198 14.7238L24.294 8.52512V7.65533C24.294 7.31232 24 7.01831 23.657 7.01831H12.1661V1.82413L6.91064 2.92667V4.35997H7.58442C7.78042 4.35997 8.23369 4.43347 8.23369 5.00924V6.99381H5.25684C4.96283 6.99381 4.70557 7.25107 4.70557 7.54508V9.50515H8.24594V17.3944C8.24594 18.84 8.73596 20.0895 9.63024 20.9103C10.5368 21.7433 11.8231 22.1231 13.3176 22.0006C13.9546 21.9516 14.5917 21.7188 15.2164 21.3146C15.5594 21.0818 15.7677 20.7143 15.7677 20.31V18.693L15.1062 19.134C14.2976 19.673 13.5994 19.6607 13.5994 19.6607H13.5749C13.2196 19.6607 12.9378 19.5505 12.7173 19.33C12.1783 18.7787 12.1783 17.7374 12.1783 17.7252V9.50515H19.2958L13.7219 15.1158V15.2873C13.7096 15.9244 13.6974 16.4511 13.6974 16.6594C13.6974 16.7206 13.6974 16.7574 13.6974 16.7696C13.6974 17.0147 13.8689 17.2107 14.1139 17.2352C19.7491 18.1907 20.9251 21.8168 20.9251 22.4906V22.5396C20.9251 22.5641 21.1579 24.6957 19.9328 26.178C19.2223 27.0233 18.1565 27.5133 16.7722 27.599C16.76 27.599 15.9392 27.6358 15.0694 27.501C14.2609 27.3785 13.6729 27.1703 13.3666 26.8885C13.9056 26.5087 14.2119 25.933 14.2119 25.2592C14.2119 23.8871 13.2931 23.0051 11.8843 23.0051C10.6103 23.0051 9.56898 24.0096 9.55673 25.2347C9.54448 25.4552 9.48323 26.8027 10.5735 28.0033C11.7251 29.2773 13.7096 29.9143 16.466 29.9143C16.564 29.9143 16.6742 29.9143 16.7722 29.9143C19.5898 29.8653 21.7459 29.0446 23.1792 27.4765C25.1638 25.3204 25.0045 22.5273 24.9923 22.3558Z" fill="#6D75F4"/>
</svg>
