<svg width="36" height="36" viewBox="0 0 36 36" fill="none" xmlns="http://www.w3.org/2000/svg">
<path fill-rule="evenodd" clip-rule="evenodd" d="M18 34.4571C27.089 34.4571 34.4571 27.089 34.4571 18C34.4571 8.91097 27.089 1.54286 18 1.54286C8.91097 1.54286 1.54286 8.91097 1.54286 18C1.54286 27.089 8.91097 34.4571 18 34.4571ZM18 36C27.9411 36 36 27.9411 36 18C36 8.05888 27.9411 0 18 0C8.05888 0 0 8.05888 0 18C0 27.9411 8.05888 36 18 36Z" fill="#6D75F4"/>
<path fill-rule="evenodd" clip-rule="evenodd" d="M22.6747 8C23.0901 8 23.4885 8.15743 23.7822 8.43766L27.5413 12.0239C28.1529 12.6074 28.1529 13.5535 27.5413 14.1371C26.9296 14.7206 25.9379 14.7206 25.3262 14.1371L24.241 13.1017V21.1494C24.241 21.9747 23.5397 22.6437 22.6747 22.6437C21.8097 22.6437 21.1084 21.9747 21.1084 21.1494V13.1017L20.0232 14.1371C19.4115 14.7206 18.4198 14.7206 17.8081 14.1371C17.1965 13.5535 17.1965 12.6074 17.8081 12.0239L21.5672 8.43766C21.8609 8.15743 22.2593 8 22.6747 8ZM13.3253 13.3563C14.1903 13.3563 14.8916 14.0253 14.8916 14.8506V22.8983L15.9768 21.8629C16.5885 21.2794 17.5802 21.2794 18.1919 21.8629C18.8035 22.4465 18.8035 23.3926 18.1919 23.9761L14.4328 27.5623C13.8212 28.1459 12.8294 28.1459 12.2178 27.5623L8.45875 23.9761C7.84708 23.3926 7.84708 22.4465 8.45875 21.8629C9.07041 21.2794 10.0621 21.2794 10.6738 21.8629L11.759 22.8983V14.8506C11.759 14.0253 12.4603 13.3563 13.3253 13.3563Z" fill="#6D75F4"/>
</svg>
