<svg width="24" height="24" viewBox="0 0 24 24" fill="none" xmlns="http://www.w3.org/2000/svg">
<path d="M2.62873 7.10078H21.347C21.8332 7.10078 22.2302 6.95607 22.5381 6.66667C22.846 6.37726 23 6.00104 23 5.53799C23 5.07493 22.846 4.70284 22.5381 4.42171C22.2302 4.14057 21.8332 4 21.347 4H2.62873C2.15874 4 1.7698 4.14057 1.46188 4.42171C1.15396 4.70284 1 5.07493 1 5.53799C1 6.00104 1.15396 6.37726 1.46188 6.66667C1.7698 6.95607 2.15874 7.10078 2.62873 7.10078ZM2.62873 13.5504H21.347C21.8332 13.5504 22.2302 13.4057 22.5381 13.1163C22.846 12.8269 23 12.4506 23 11.9876C23 11.5245 22.846 11.1483 22.5381 10.8589C22.2302 10.5695 21.8332 10.4248 21.347 10.4248H2.62873C2.15874 10.4248 1.7698 10.5695 1.46188 10.8589C1.15396 11.1483 1 11.5245 1 11.9876C1 12.4506 1.15396 12.8269 1.46188 13.1163C1.7698 13.4057 2.15874 13.5504 2.62873 13.5504ZM2.62873 20H21.347C21.8332 20 22.2302 19.8553 22.5381 19.5659C22.846 19.2765 23 18.9003 23 18.4372C23 17.9742 22.846 17.5979 22.5381 17.3085C22.2302 17.0191 21.8332 16.8744 21.347 16.8744H2.62873C2.15874 16.8744 1.7698 17.0191 1.46188 17.3085C1.15396 17.5979 1 17.9742 1 18.4372C1 18.9003 1.15396 19.2765 1.46188 19.5659C1.7698 19.8553 2.15874 20 2.62873 20Z" fill="#BCBED5"/>
</svg>
