<svg width="25" height="24" viewBox="0 0 25 24" fill="none" xmlns="http://www.w3.org/2000/svg">
<path d="M12.7912 23.965C19.4225 23.965 24.7983 18.5892 24.7983 11.9579C24.7983 5.32665 19.4225 -0.0490723 12.7912 -0.0490723C6.15995 -0.0490723 0.784225 5.32665 0.784225 11.9579C0.784225 18.5892 6.15995 23.965 12.7912 23.965Z" fill="#FF4500"/>
<path d="M20.796 11.9579C20.796 10.9889 20.0095 10.2025 19.0406 10.2025C18.5631 10.2025 18.1418 10.385 17.8328 10.694C16.6391 9.83736 14.982 9.27563 13.1564 9.20541L13.9569 5.45585L16.5549 6.00354C16.583 6.66357 17.1307 7.19722 17.8047 7.19722C18.4929 7.19722 19.0546 6.63549 19.0546 5.94737C19.0546 5.25924 18.4929 4.69751 17.8047 4.69751C17.3132 4.69751 16.8919 4.97838 16.6953 5.39967L13.7884 4.78177C13.7041 4.76773 13.6198 4.78177 13.5496 4.8239C13.4794 4.86603 13.4373 4.93625 13.4092 5.02051L12.5245 9.20541C10.6567 9.26158 8.98554 9.80927 7.77782 10.694C7.46887 10.3991 7.03352 10.2025 6.5701 10.2025C5.60111 10.2025 4.81468 10.9889 4.81468 11.9579C4.81468 12.6741 5.23598 13.278 5.85389 13.5588C5.8258 13.7274 5.81176 13.9099 5.81176 14.0925C5.81176 16.7888 8.94341 18.9655 12.8194 18.9655C16.6953 18.9655 19.827 16.7888 19.827 14.0925C19.827 13.9099 19.8129 13.7414 19.7848 13.5729C20.3606 13.292 20.796 12.6741 20.796 11.9579ZM8.78894 13.2078C8.78894 12.5196 9.35067 11.9579 10.0388 11.9579C10.7269 11.9579 11.2886 12.5196 11.2886 13.2078C11.2886 13.8959 10.7269 14.4576 10.0388 14.4576C9.35067 14.4576 8.78894 13.8959 8.78894 13.2078ZM15.7685 16.5079C14.9118 17.3646 13.2828 17.4207 12.8053 17.4207C12.3279 17.4207 10.6848 17.3505 9.84218 16.5079C9.7158 16.3815 9.7158 16.1709 9.84218 16.0445C9.96857 15.9181 10.1792 15.9181 10.3056 16.0445C10.8393 16.5781 11.9908 16.7748 12.8194 16.7748C13.6479 16.7748 14.7854 16.5781 15.3331 16.0445C15.4595 15.9181 15.6702 15.9181 15.7965 16.0445C15.8949 16.1849 15.8949 16.3815 15.7685 16.5079ZM15.5438 14.4576C14.8556 14.4576 14.2939 13.8959 14.2939 13.2078C14.2939 12.5196 14.8556 11.9579 15.5438 11.9579C16.2319 11.9579 16.7936 12.5196 16.7936 13.2078C16.7936 13.8959 16.2319 14.4576 15.5438 14.4576Z" fill="white"/>
</svg>
