<svg width="25" height="25" viewBox="0 0 25 25" fill="none" xmlns="http://www.w3.org/2000/svg">
<g clip-path="url(#clip0_6612_152699)">
<path fill-rule="evenodd" clip-rule="evenodd" d="M2.5542 12.8076C2.5542 13.9122 3.44963 14.8076 4.5542 14.8076H20.5542C21.6588 14.8076 22.5542 13.9122 22.5542 12.8076C22.5542 11.7031 21.6588 10.8076 20.5542 10.8076H4.5542C3.44963 10.8076 2.5542 11.7031 2.5542 12.8076Z" fill="#6D75F4"/>
<path fill-rule="evenodd" clip-rule="evenodd" d="M12.3529 2.64124C11.2483 2.64124 10.3529 3.53667 10.3529 4.64124V20.6412C10.3529 21.7458 11.2483 22.6412 12.3529 22.6412C13.4575 22.6412 14.3529 21.7458 14.3529 20.6412V4.64124C14.3529 3.53667 13.4575 2.64124 12.3529 2.64124Z" fill="#6D75F4"/>
</g>
<defs>
<clipPath id="clip0_6612_152699">
<rect width="24" height="24" fill="white" transform="translate(0.343994 0.453247)"/>
</clipPath>
</defs>
</svg>
