<svg width="24" height="24" viewBox="0 0 24 24" fill="none" xmlns="http://www.w3.org/2000/svg">
<path fill-rule="evenodd" clip-rule="evenodd" d="M6.80908 20.8107C7.01753 20.5033 7.22041 20.1826 7.39431 19.867L7.42033 19.8198L7.44289 19.7708C7.5968 19.4368 7.6992 18.9718 7.5482 18.463C7.39906 17.9605 7.06719 17.6329 6.77683 17.4404L6.74194 17.4172L6.70581 17.3961C3.99523 15.8089 2.5 13.308 2.5 10.5961C2.5 6.29136 6.52225 2.5 11.9953 2.5C17.4701 2.5 21.5 6.29292 21.5 10.5961C21.5 15.0579 17.5715 18.6923 11.2743 18.7024C11.2529 18.7024 11.2142 18.7001 11.0876 18.6895L10.9961 18.6819H10.9336C10.3817 18.6819 9.91453 18.8897 9.52964 19.1929C8.77584 19.7665 7.7679 20.3598 6.80908 20.8107ZM10.4502 20.3773C8.72512 21.6938 5.96682 23 4.81043 23C4.05213 23 3.80569 22.3623 4.23223 21.7761C4.32487 21.6479 4.44977 21.4847 4.59365 21.2968C5.03861 20.7154 5.66514 19.8969 6.08057 19.1431C6.16588 18.9579 6.11848 18.8036 5.94787 18.6905C2.83886 16.87 1 13.9079 1 10.5961C1 5.27864 5.891 1 11.9953 1C18.0995 1 23 5.27864 23 10.5961C23 16.1501 18.109 20.1921 11.2749 20.2024C11.1787 20.2024 11.0744 20.1937 10.9621 20.1842L10.9336 20.1819C10.782 20.1819 10.6303 20.2333 10.4502 20.3773Z" fill="#6D75F4"/>
<path d="M9 10.4224C9 11.2868 8.32843 11.9876 7.5 11.9876C6.67157 11.9876 6 11.2868 6 10.4224C6 9.55792 6.67157 8.85715 7.5 8.85715C8.32843 8.85715 9 9.55792 9 10.4224Z" fill="#6D75F4"/>
<path d="M13.5 10.4224C13.5 11.2868 12.8284 11.9876 12 11.9876C11.1716 11.9876 10.5 11.2868 10.5 10.4224C10.5 9.55792 11.1716 8.85715 12 8.85715C12.8284 8.85715 13.5 9.55792 13.5 10.4224Z" fill="#6D75F4"/>
<path d="M18 10.4224C18 11.2868 17.3284 11.9876 16.5 11.9876C15.6716 11.9876 15 11.2868 15 10.4224C15 9.55792 15.6716 8.85715 16.5 8.85715C17.3284 8.85715 18 9.55792 18 10.4224Z" fill="#6D75F4"/>
</svg>
