<svg width="32" height="32" viewBox="0 0 32 32" fill="none" xmlns="http://www.w3.org/2000/svg">
<path fill-rule="evenodd" clip-rule="evenodd" d="M2.50513 4.66739C2.50513 3.81072 3.19959 3.11625 4.05626 3.11625H10.2267C11.0834 3.11625 11.7779 3.81072 11.7779 4.66739C11.7779 5.52406 11.0834 6.21853 10.2267 6.21853H5.6074V10.8378C5.6074 11.6945 4.91293 12.389 4.05626 12.389C3.19959 12.389 2.50513 11.6945 2.50513 10.8378V4.66739ZM21.1188 4.66739C21.1188 3.81072 21.8132 3.11625 22.6699 3.11625H27.8404C28.697 3.11625 29.3915 3.81072 29.3915 4.66739V10.8378C29.3915 11.6945 28.697 12.389 27.8404 12.389C26.9837 12.389 26.2892 11.6945 26.2892 10.8378V6.21853H22.6699C21.8132 6.21853 21.1188 5.52406 21.1188 4.66739ZM4.05626 19.6958C4.91293 19.6958 5.6074 20.3903 5.6074 21.2469V25.8663H10.2267C11.0834 25.8663 11.7779 26.5607 11.7779 27.4174C11.7779 28.2741 11.0834 28.9685 10.2267 28.9685H4.05626C3.19959 28.9685 2.50513 28.2741 2.50513 27.4174V21.2469C2.50513 20.3903 3.19959 19.6958 4.05626 19.6958ZM27.8404 19.6958C28.697 19.6958 29.3915 20.3903 29.3915 21.2469V27.4174C29.3915 28.2741 28.697 28.9685 27.8404 28.9685H21.6699C20.8132 28.9685 20.1188 28.2741 20.1188 27.4174C20.1188 26.5607 20.8132 25.8663 21.6699 25.8663H26.2892V21.2469C26.2892 20.3903 26.9837 19.6958 27.8404 19.6958Z" fill="#6D75F4"/>
</svg>
