<svg width="24" height="24" viewBox="0 0 24 24" fill="none" xmlns="http://www.w3.org/2000/svg">
<g clip-path="url(#clip0_8444_223600)">
<path d="M23.06 7.37C22.43 5.92 21.57 4.65 20.46 3.54C19.35 2.43 18.08 1.57 16.62 0.94C15.17 0.31 13.62 0 11.98 0C10.34 0 8.8 0.31 7.35 0.94C5.9 1.57 4.63 2.43 3.53 3.54C2.43 4.65 1.56 5.92 0.94 7.37C0.31 8.82 0 10.36 0 12C0 13.64 0.31 15.18 0.94 16.63C1.57 18.08 2.43 19.35 3.54 20.46C4.65 21.57 5.92 22.43 7.37 23.06C8.82 23.69 10.36 24 12 24C13.64 24 15.18 23.69 16.63 23.06C18.08 22.43 19.35 21.57 20.46 20.46C21.57 19.35 22.43 18.08 23.06 16.63C23.69 15.18 24 13.64 24 12C24 10.36 23.69 8.82 23.06 7.37ZM4.66 4.67C5.61 3.71 6.72 2.96 7.97 2.42C9.22 1.87 10.56 1.6 11.98 1.6C13.4 1.6 14.74 1.87 15.99 2.42C16.47 2.63 16.93 2.88 17.37 3.15C17.25 3.54 17.22 4.25 16.9 4.55C16.5 4.92 16.05 5.26 15.54 5.58C15.03 5.9 14.53 6.19 14.03 6.45C13.53 6.71 13.09 6.94 12.73 7.14C12.58 7.22 12.49 7.33 12.43 7.47C12.38 7.62 12.42 7.78 12.55 7.96C12.82 8.32 13.01 8.6 13.13 8.79C13.25 8.98 13.31 9.15 13.31 9.3C13.31 9.4 13.28 9.49 13.21 9.56C13.14 9.63 13.05 9.66 12.94 9.66C12.79 9.66 12.57 9.56 12.25 9.36C11.94 9.16 11.61 8.96 11.26 8.76C10.91 8.56 10.62 8.46 10.38 8.46C10.09 8.46 9.8 8.55 9.52 8.72C9.24 8.9 9 9.12 8.81 9.38C8.62 9.65 8.53 9.92 8.53 10.19C8.53 10.48 8.66 10.81 8.92 11.17C9.18 11.53 9.5 11.87 9.88 12.2C10.26 12.53 10.66 12.8 11.06 13.01C11.46 13.22 11.82 13.32 12.12 13.32C12.36 13.32 12.64 13.24 12.97 13.1C13.3 12.95 13.6 12.8 13.9 12.64C14.19 12.49 14.41 12.41 14.54 12.41C14.75 12.41 15.04 12.52 15.4 12.73C15.76 12.94 16.12 13.2 16.49 13.51C16.85 13.82 17.16 14.12 17.42 14.42C17.67 14.72 17.8 14.95 17.8 15.12C17.8 15.42 17.66 15.86 17.38 16.44C17.1 17.02 16.73 17.64 16.29 18.31C15.84 18.98 15.38 19.62 14.89 20.23C14.4 20.84 13.95 21.35 13.53 21.74C13.11 22.13 12.79 22.33 12.57 22.33C12.42 22.33 12.28 22.27 12.13 22.16C11.98 22.04 11.91 21.93 11.91 21.81C11.91 21.74 11.92 21.66 11.94 21.58C11.96 21.49 12.01 21.34 12.09 21.12C12.16 20.91 12.23 20.67 12.3 20.4C12.37 20.13 12.4 19.83 12.4 19.53C12.4 19.11 12.21 18.72 11.86 18.37C11.51 18.01 10.96 17.57 10.2 17.04C10.06 16.95 9.92 16.85 9.78 16.74C9.64 16.64 9.5 16.53 9.36 16.43C8.97 16.14 8.78 15.84 8.78 15.54C8.78 15.39 8.84 15.14 8.95 14.79C9.01 14.58 9.06 14.4 9.09 14.24C9.12 14.08 9.14 13.94 9.14 13.83C9.14 13.54 9.06 13.28 8.92 13.07C8.77 12.85 8.54 12.61 8.23 12.34C8.19 12.31 8.15 12.27 8.11 12.24C8.08 12.21 8.04 12.18 7.99 12.15L5.93 10.31C5.07 9.54 4.48 8.86 4.16 8.28C3.83 7.7 3.71 7.14 3.79 6.62C3.84 6.27 4.09 5.62 4.33 5.07C4.45 4.94 4.56 4.81 4.68 4.68L4.66 4.67Z" fill="#8A90FF"/>
</g>
<defs>
<clipPath id="clip0_8444_223600">
<rect width="24" height="24" fill="white"/>
</clipPath>
</defs>
</svg>
