<svg width="22" height="22" viewBox="0 0 22 22" fill="none" xmlns="http://www.w3.org/2000/svg">
<g clip-path="url(#clip0_8490_199539)">
<path d="M17.656 5.82039H20.6988C21.0992 5.82039 21.4195 5.69677 21.6497 5.45983C21.8899 5.2126 22 4.89325 22 4.49149V1.3289C22 0.927142 21.8799 0.607793 21.6497 0.360555C21.4095 0.113317 21.0992 0 20.6988 0H17.656C17.2657 0 16.9454 0.123619 16.7052 0.360555C16.465 0.607793 16.3449 0.927142 16.3449 1.3289V4.49149C16.3449 4.89325 16.465 5.2126 16.7052 5.45983C16.9454 5.70707 17.2657 5.82039 17.656 5.82039Z" fill="#6D75F4"/>
<path d="M9.49864 5.82039H12.5314C12.9318 5.82039 13.252 5.69677 13.4823 5.45983C13.7225 5.2126 13.8326 4.89325 13.8326 4.49149V1.3289C13.8326 0.927142 13.7125 0.607793 13.4823 0.360555C13.242 0.113317 12.9318 0 12.5314 0H9.49864C9.09827 0 8.77798 0.123619 8.53776 0.360555C8.29754 0.607793 8.17744 0.927142 8.17744 1.3289V4.49149C8.17744 4.89325 8.29754 5.2126 8.53776 5.45983C8.77798 5.70707 9.09827 5.82039 9.49864 5.82039Z" fill="#6D75F4"/>
<path d="M1.30118 5.82039H4.33394C4.7343 5.82039 5.05459 5.69677 5.29481 5.45983C5.53503 5.2126 5.65514 4.89325 5.65514 4.49149V1.3289C5.65514 0.927142 5.53503 0.607793 5.29481 0.360555C5.05459 0.113317 4.7343 0 4.33394 0H1.30118C0.900819 0 0.580528 0.123619 0.350319 0.360555C0.120109 0.597491 0 0.927142 0 1.3289V4.49149C0 4.89325 0.120109 5.2126 0.350319 5.45983C0.590537 5.70707 0.900819 5.82039 1.30118 5.82039Z" fill="#6D75F4"/>
<path d="M17.656 13.9102H20.6988C21.0992 13.9102 21.4195 13.7866 21.6497 13.5496C21.8899 13.3024 22 12.9831 22 12.5813V9.41872C22 9.01695 21.8799 8.69761 21.6497 8.45037C21.4095 8.20313 21.0992 8.08981 20.6988 8.08981H17.656C17.2657 8.08981 16.9454 8.21343 16.7052 8.45037C16.465 8.69761 16.3449 9.01695 16.3449 9.41872V12.5813C16.3449 12.9831 16.465 13.3024 16.7052 13.5496C16.9454 13.7969 17.2657 13.9102 17.656 13.9102Z" fill="#6D75F4"/>
<path d="M9.49864 13.9102H12.5314C12.9318 13.9102 13.252 13.7866 13.4823 13.5496C13.7225 13.3024 13.8326 12.9831 13.8326 12.5813V9.41872C13.8326 9.01695 13.7125 8.69761 13.4823 8.45037C13.242 8.20313 12.9318 8.08981 12.5314 8.08981H9.49864C9.09827 8.08981 8.77798 8.21343 8.53776 8.45037C8.29754 8.69761 8.17744 9.01695 8.17744 9.41872V12.5813C8.17744 12.9831 8.29754 13.3024 8.53776 13.5496C8.77798 13.7969 9.09827 13.9102 9.49864 13.9102Z" fill="#6D75F4"/>
<path d="M1.30118 13.9102H4.33394C4.7343 13.9102 5.05459 13.7866 5.29481 13.5496C5.53503 13.3024 5.65514 12.9831 5.65514 12.5813V9.41872C5.65514 9.01695 5.53503 8.69761 5.29481 8.45037C5.05459 8.20313 4.7343 8.08981 4.33394 8.08981H1.30118C0.900819 8.08981 0.580528 8.21343 0.350319 8.45037C0.120109 8.6873 0 9.01695 0 9.41872V12.5813C0 12.9831 0.120109 13.3024 0.350319 13.5496C0.590537 13.7969 0.900819 13.9102 1.30118 13.9102Z" fill="#6D75F4"/>
<path d="M17.656 22H20.6988C21.0992 22 21.4195 21.8764 21.6497 21.6395C21.8899 21.3922 22 21.0729 22 20.6711V17.5085C22 17.1068 21.8799 16.7874 21.6497 16.5402C21.4095 16.2929 21.0992 16.1796 20.6988 16.1796H17.656C17.2657 16.1796 16.9454 16.3032 16.7052 16.5402C16.465 16.7874 16.3449 17.1068 16.3449 17.5085V20.6711C16.3449 21.0729 16.465 21.3922 16.7052 21.6395C16.9454 21.8867 17.2657 22 17.656 22Z" fill="#6D75F4"/>
<path d="M9.49864 22H12.5314C12.9318 22 13.252 21.8764 13.4823 21.6395C13.7225 21.3922 13.8326 21.0729 13.8326 20.6711V17.5085C13.8326 17.1068 13.7125 16.7874 13.4823 16.5402C13.242 16.2929 12.9318 16.1796 12.5314 16.1796H9.49864C9.09827 16.1796 8.77798 16.3032 8.53776 16.5402C8.29754 16.7874 8.17744 17.1068 8.17744 17.5085V20.6711C8.17744 21.0729 8.29754 21.3922 8.53776 21.6395C8.77798 21.8867 9.09827 22 9.49864 22Z" fill="#6D75F4"/>
<path d="M1.30118 22H4.33394C4.7343 22 5.05459 21.8764 5.29481 21.6395C5.53503 21.3922 5.65514 21.0729 5.65514 20.6711V17.5085C5.65514 17.1068 5.53503 16.7874 5.29481 16.5402C5.05459 16.2929 4.7343 16.1796 4.33394 16.1796H1.30118C0.900819 16.1796 0.580528 16.3032 0.350319 16.5402C0.120109 16.7771 0 17.1068 0 17.5085V20.6711C0 21.0729 0.120109 21.3922 0.350319 21.6395C0.590537 21.8867 0.900819 22 1.30118 22Z" fill="#6D75F4"/>
</g>
<defs>
<clipPath id="clip0_8490_199539">
<rect width="22" height="22" fill="white"/>
</clipPath>
</defs>
</svg>
