<svg width="34" height="35" viewBox="0 0 34 35" fill="none" xmlns="http://www.w3.org/2000/svg">
<path fill-rule="evenodd" clip-rule="evenodd" d="M17 34.0412C26.3888 34.0412 34 26.43 34 17.0412C34 7.65236 26.3888 0.0411987 17 0.0411987C7.61116 0.0411987 0 7.65236 0 17.0412C0 26.43 7.61116 34.0412 17 34.0412ZM14.7987 9C14.7987 7.89543 15.6941 7 16.7987 7C17.9033 7 18.7987 7.89543 18.7987 9V15.1664H25C26.1046 15.1664 27 16.0618 27 17.1664C27 18.271 26.1046 19.1664 25 19.1664H18.7987V25C18.7987 26.1046 17.9033 27 16.7987 27C15.6941 27 14.7987 26.1046 14.7987 25V19.1664H9C7.89543 19.1664 7 18.271 7 17.1664C7 16.0618 7.89543 15.1664 9 15.1664H14.7987V9Z" fill="#6D75F4"/>
</svg>
