<svg width="24" height="24" viewBox="0 0 24 24" fill="none" xmlns="http://www.w3.org/2000/svg">
<path fill-rule="evenodd" clip-rule="evenodd" d="M13.6473 3.93022C12.9067 2.68993 11.0933 2.68992 10.3527 3.93022L2.26901 18.1432C1.51533 19.4055 2.43476 21 3.91627 21H20.0837C21.5652 21 22.4847 19.4055 21.731 18.1432L13.6473 3.93022ZM13.0408 13.6066C13.029 14.3326 12.6505 14.7206 12 14.7206C11.3377 14.7206 10.9592 14.3201 10.9355 13.6066L10.77 9.01772C10.7463 8.2792 11.2549 7.75347 11.9882 7.75347C12.7215 7.75347 13.2419 8.29171 13.2182 9.03024L13.0408 13.6066ZM13.3956 17.4869C13.3956 18.2881 12.7688 18.8764 12 18.8764C11.2431 18.8764 10.6044 18.2755 10.6044 17.4869C10.6044 16.6984 11.2312 16.11 12 16.11C12.7806 16.11 13.3956 16.6984 13.3956 17.4869Z" fill="#6D75F4"/>
</svg>
