<svg width="28" height="28" viewBox="0 0 28 28" fill="none" xmlns="http://www.w3.org/2000/svg">
<g clip-path="url(#clip0_6241_74841)">
<g clip-path="url(#clip1_6241_74841)">
<path d="M20.5882 9.17245H6.5624C6.29255 9.17245 6.03376 9.06526 5.84295 8.87445C5.65213 8.68364 5.54494 8.42484 5.54494 8.15499C5.54494 7.88514 5.65213 7.62635 5.84295 7.43553C6.03376 7.24472 6.29255 7.13753 6.5624 7.13753H20.5882C20.858 7.13753 21.1168 7.24472 21.3076 7.43553C21.4984 7.62635 21.6056 7.88514 21.6056 8.15499C21.6056 8.42484 21.4984 8.68364 21.3076 8.87445C21.1168 9.06526 20.858 9.17245 20.5882 9.17245Z" fill="#6D75F4"/>
<path d="M20.5882 14.5954H6.5624C6.29255 14.5954 6.03376 14.4882 5.84295 14.2974C5.65213 14.1066 5.54494 13.8478 5.54494 13.5779C5.54494 13.3081 5.65213 13.0493 5.84295 12.8585C6.03376 12.6677 6.29255 12.5605 6.5624 12.5605H20.5882C20.858 12.5605 21.1168 12.6677 21.3076 12.8585C21.4984 13.0493 21.6056 13.3081 21.6056 13.5779C21.6056 13.8478 21.4984 14.1066 21.3076 14.2974C21.1168 14.4882 20.858 14.5954 20.5882 14.5954Z" fill="#6D75F4"/>
<path d="M15.5008 20.0186H6.5624C6.29255 20.0186 6.03376 19.9114 5.84295 19.7206C5.65213 19.5298 5.54494 19.271 5.54494 19.0011C5.54494 18.7313 5.65213 18.4725 5.84295 18.2817C6.03376 18.0909 6.29255 17.9837 6.5624 17.9837H15.5008C15.7707 17.9837 16.0295 18.0909 16.2203 18.2817C16.4111 18.4725 16.5183 18.7313 16.5183 19.0011C16.5183 19.271 16.4111 19.5298 16.2203 19.7206C16.0295 19.9114 15.7707 20.0186 15.5008 20.0186Z" fill="#6D75F4"/>
<path d="M7.28506 27.1562H4.41072C3.2458 27.1535 2.12936 26.6895 1.30564 25.8658C0.481914 25.0421 0.0179575 23.9256 0.0152703 22.7607V19.8864C0.0152703 19.4816 0.176072 19.0934 0.462289 18.8072C0.748507 18.521 1.13669 18.3602 1.54147 18.3602C1.94624 18.3602 2.33444 18.521 2.62066 18.8072C2.90688 19.0934 3.06766 19.4816 3.06766 19.8864V22.7607C3.069 23.1165 3.21094 23.4573 3.46252 23.7089C3.7141 23.9605 4.05494 24.1024 4.41072 24.1038H7.28506C7.68983 24.1038 8.07802 24.2646 8.36423 24.5508C8.65045 24.837 8.81125 25.2252 8.81125 25.63C8.81125 26.0347 8.65045 26.4229 8.36423 26.7091C8.07802 26.9954 7.68983 27.1562 7.28506 27.1562Z" fill="#6D75F4"/>
<path d="M22.7555 27.1562H19.8812C19.4764 27.1562 19.0882 26.9954 18.802 26.7091C18.5158 26.4229 18.355 26.0347 18.355 25.63C18.355 25.2252 18.5158 24.837 18.802 24.5508C19.0882 24.2646 19.4764 24.1038 19.8812 24.1038H22.7555C23.1122 24.1038 23.4543 23.9624 23.707 23.7107C23.9597 23.459 24.1023 23.1174 24.1036 22.7607V19.8864C24.1036 19.4816 24.2644 19.0934 24.5507 18.8072C24.8369 18.521 25.2251 18.3602 25.6298 18.3602C26.0346 18.3602 26.4228 18.521 26.709 18.8072C26.9952 19.0934 27.156 19.4816 27.156 19.8864V22.7607C27.1533 23.9265 26.6887 25.0437 25.8639 25.8676C25.039 26.6914 23.9213 27.1548 22.7555 27.1562Z" fill="#6D75F4"/>
<path d="M1.52607 8.80106C1.1213 8.80106 0.733114 8.64027 0.446897 8.35405C0.16068 8.06784 -0.00012207 7.67964 -0.00012207 7.27487V4.40053C0.00122101 3.23473 0.464591 2.11699 1.28846 1.29217C2.11233 0.467345 3.22953 0.00269161 4.39533 0H7.28493C7.6897 0 8.07789 0.160802 8.3641 0.447019C8.65032 0.733236 8.81112 1.12142 8.81112 1.5262C8.81112 1.93097 8.65032 2.31916 8.3641 2.60537C8.07789 2.89159 7.6897 3.05239 7.28493 3.05239H4.41059C4.05393 3.05374 3.71233 3.19637 3.4606 3.44905C3.20887 3.70173 3.06753 4.04386 3.06753 4.40053V7.27487C3.06754 7.47658 3.02756 7.67629 2.94991 7.86246C2.87226 8.04863 2.75848 8.21756 2.61514 8.35948C2.4718 8.5014 2.30176 8.6135 2.11482 8.6893C1.92789 8.76509 1.72778 8.80308 1.52607 8.80106Z" fill="#6D75F4"/>
<path d="M25.6298 8.8011C25.2251 8.8011 24.8369 8.64031 24.5507 8.35409C24.2644 8.06787 24.1036 7.67968 24.1036 7.27491V4.40056C24.1036 4.04302 23.9616 3.70011 23.7088 3.44728C23.456 3.19446 23.1131 3.05243 22.7555 3.05243H19.8812C19.4764 3.05243 19.0882 2.89163 18.802 2.60541C18.5158 2.31919 18.355 1.931 18.355 1.52623C18.355 1.12146 18.5158 0.733271 18.802 0.447054C19.0882 0.160837 19.4764 3.49446e-05 19.8812 3.49446e-05H22.7555C23.9222 0.00138137 25.0407 0.465434 25.8657 1.2904C26.6906 2.11537 27.1547 3.23388 27.156 4.40056V7.27491C27.156 7.67968 26.9952 8.06787 26.709 8.35409C26.4228 8.64031 26.0346 8.8011 25.6298 8.8011Z" fill="#6D75F4"/>
</g>
</g>
<defs>
<clipPath id="clip0_6241_74841">
<rect width="28" height="28" fill="white"/>
</clipPath>
<clipPath id="clip1_6241_74841">
<rect width="27.1561" height="27.1561" fill="white"/>
</clipPath>
</defs>
</svg>
