<svg width="25" height="24" viewBox="0 0 25 24" fill="none" xmlns="http://www.w3.org/2000/svg">
<g clip-path="url(#clip0_5144_22506)">
<g clip-path="url(#clip1_5144_22506)">
<path d="M18.147 7.8621H6.1249C5.8936 7.8621 5.67177 7.77022 5.50822 7.60667C5.34467 7.44312 5.25279 7.22129 5.25279 6.98999C5.25279 6.75869 5.34467 6.53687 5.50822 6.37331C5.67177 6.20976 5.8936 6.11788 6.1249 6.11788H18.147C18.3783 6.11788 18.6001 6.20976 18.7636 6.37331C18.9272 6.53687 19.0191 6.75869 19.0191 6.98999C19.0191 7.22129 18.9272 7.44312 18.7636 7.60667C18.6001 7.77022 18.3783 7.8621 18.147 7.8621Z" fill="#6D75F4"/>
<path d="M18.147 12.5104H6.1249C5.8936 12.5104 5.67177 12.4185 5.50822 12.2549C5.34467 12.0914 5.25279 11.8695 5.25279 11.6382C5.25279 11.4069 5.34467 11.1851 5.50822 11.0216C5.67177 10.858 5.8936 10.7661 6.1249 10.7661H18.147C18.3783 10.7661 18.6001 10.858 18.7636 11.0216C18.9272 11.1851 19.0191 11.4069 19.0191 11.6382C19.0191 11.8695 18.9272 12.0914 18.7636 12.2549C18.6001 12.4185 18.3783 12.5104 18.147 12.5104Z" fill="#6D75F4"/>
<path d="M13.7864 17.1588H6.1249C5.8936 17.1588 5.67177 17.0669 5.50822 16.9034C5.34467 16.7398 5.25279 16.518 5.25279 16.2867C5.25279 16.0554 5.34467 15.8336 5.50822 15.67C5.67177 15.5065 5.8936 15.4146 6.1249 15.4146H13.7864C14.0177 15.4146 14.2395 15.5065 14.4031 15.67C14.5666 15.8336 14.6585 16.0554 14.6585 16.2867C14.6585 16.518 14.5666 16.7398 14.4031 16.9034C14.2395 17.0669 14.0177 17.1588 13.7864 17.1588Z" fill="#6D75F4"/>
<path d="M6.74432 23.2767H4.2806C3.2821 23.2744 2.32515 22.8767 1.6191 22.1707C0.913051 21.4646 0.515375 20.5077 0.513071 19.5092V17.0455C0.513071 16.6985 0.650901 16.3658 0.896231 16.1204C1.14156 15.8751 1.47429 15.7373 1.82124 15.7373C2.16819 15.7373 2.50093 15.8751 2.74626 16.1204C2.99159 16.3658 3.12941 16.6985 3.12941 17.0455V19.5092C3.13056 19.8141 3.25221 20.1063 3.46785 20.3219C3.6835 20.5376 3.97564 20.6592 4.2806 20.6604H6.74432C7.09126 20.6604 7.424 20.7982 7.66932 21.0435C7.91465 21.2888 8.05248 21.6216 8.05248 21.9685C8.05248 22.3155 7.91465 22.6482 7.66932 22.8935C7.424 23.1389 7.09126 23.2767 6.74432 23.2767Z" fill="#6D75F4"/>
<path d="M20.0047 23.2767H17.541C17.194 23.2767 16.8613 23.1389 16.616 22.8935C16.3706 22.6482 16.2328 22.3155 16.2328 21.9685C16.2328 21.6216 16.3706 21.2888 16.616 21.0435C16.8613 20.7982 17.194 20.6604 17.541 20.6604H20.0047C20.3104 20.6604 20.6037 20.5392 20.8203 20.3235C21.0368 20.1077 21.1591 19.8149 21.1602 19.5092V17.0455C21.1602 16.6985 21.2981 16.3658 21.5434 16.1204C21.7887 15.8751 22.1215 15.7373 22.4684 15.7373C22.8154 15.7373 23.1481 15.8751 23.3934 16.1204C23.6388 16.3658 23.7766 16.6985 23.7766 17.0455V19.5092C23.7743 20.5084 23.376 21.466 22.669 22.1722C21.962 22.8784 21.004 23.2756 20.0047 23.2767Z" fill="#6D75F4"/>
<path d="M1.80805 7.54377C1.4611 7.54377 1.12837 7.40595 0.883037 7.16062C0.637708 6.91529 0.499878 6.58255 0.499878 6.2356V3.77188C0.501029 2.77262 0.898203 1.81456 1.60438 1.10757C2.31055 0.400582 3.26815 0.00230709 4.26741 0H6.7442C7.09115 0 7.42388 0.13783 7.66921 0.383159C7.91454 0.628488 8.05237 0.96122 8.05237 1.30817C8.05237 1.65512 7.91454 1.98785 7.66921 2.23318C7.42388 2.47851 7.09115 2.61634 6.7442 2.61634H4.28049C3.97478 2.61749 3.68198 2.73974 3.46621 2.95633C3.25045 3.17291 3.12929 3.46616 3.1293 3.77188V6.2356C3.1293 6.4085 3.09504 6.57968 3.02848 6.73925C2.96192 6.89883 2.8644 7.04362 2.74153 7.16527C2.61867 7.28691 2.47292 7.383 2.31269 7.44797C2.15246 7.51294 1.98093 7.5455 1.80805 7.54377Z" fill="#6D75F4"/>
<path d="M22.4684 7.5438C22.1215 7.5438 21.7887 7.40598 21.5434 7.16065C21.2981 6.91532 21.1602 6.58258 21.1602 6.23563V3.77191C21.1602 3.46544 21.0385 3.17152 20.8218 2.95481C20.6051 2.73811 20.3112 2.61637 20.0047 2.61637H17.541C17.194 2.61637 16.8613 2.47854 16.616 2.23321C16.3706 1.98788 16.2328 1.65515 16.2328 1.3082C16.2328 0.96125 16.3706 0.628518 16.616 0.383189C16.8613 0.13786 17.194 2.99525e-05 17.541 2.99525e-05H20.0047C21.0047 0.00118404 21.9634 0.398943 22.6706 1.10606C23.3777 1.81317 23.7754 2.7719 23.7766 3.77191V6.23563C23.7766 6.58258 23.6388 6.91532 23.3934 7.16065C23.1481 7.40598 22.8154 7.5438 22.4684 7.5438Z" fill="#6D75F4"/>
</g>
</g>
<defs>
<clipPath id="clip0_5144_22506">
<rect width="24" height="24" fill="white" transform="translate(0.5)"/>
</clipPath>
<clipPath id="clip1_5144_22506">
<rect width="23.2767" height="23.2767" fill="white" transform="translate(0.5)"/>
</clipPath>
</defs>
</svg>
