<svg width="20" height="20" viewBox="0 0 20 20" fill="none" xmlns="http://www.w3.org/2000/svg">
<path fill-rule="evenodd" clip-rule="evenodd" d="M6.53553 1.94242C6.89753 2.31015 6.89753 2.90636 6.53553 3.27409L3.99811 5.85165H13.4331C14.9537 5.85165 16.4121 6.46526 17.4873 7.5575C18.5625 8.64974 19.1666 10.1311 19.1666 11.6758C19.1666 13.2205 18.5625 14.7019 17.4873 15.7941C16.4121 16.8863 14.9537 17.5 13.4331 17.5H5.88007C5.36812 17.5 4.9531 17.0784 4.9531 16.5583C4.9531 16.0383 5.36812 15.6167 5.88007 15.6167H13.4331C14.462 15.6167 15.4488 15.2015 16.1764 14.4624C16.9039 13.7234 17.3127 12.721 17.3127 11.6758C17.3127 10.6306 16.9039 9.62823 16.1764 8.88917C15.4488 8.15011 14.462 7.73491 13.4331 7.73491H3.99811L6.53553 10.3125C6.89753 10.6802 6.89753 11.2764 6.53553 11.6441C6.17353 12.0119 5.58661 12.0119 5.2246 11.6441L1.10475 7.45911C0.930914 7.28252 0.833252 7.04301 0.833252 6.79328C0.833252 6.54354 0.930914 6.30403 1.10475 6.12744L5.2246 1.94242C5.58661 1.57469 6.17353 1.57469 6.53553 1.94242Z" fill="#D34C74"/>
</svg>
