<svg width="23" height="24" viewBox="0 0 23 24" fill="none" xmlns="http://www.w3.org/2000/svg">
<path fill-rule="evenodd" clip-rule="evenodd" d="M11.4257 23.2966C12.5302 23.2966 13.4257 22.4012 13.4257 21.2966V2.15662C13.4257 1.05205 12.5302 0.156616 11.4257 0.156616C10.3211 0.156616 9.42568 1.05205 9.42568 2.15662V21.2966C9.42568 22.4012 10.3211 23.2966 11.4257 23.2966Z" fill="#6D75F4"/>
<path fill-rule="evenodd" clip-rule="evenodd" d="M10.0115 22.7108C10.7925 23.4919 12.0589 23.4919 12.8399 22.7108L21.9062 13.6445C22.6873 12.8635 22.6873 11.5971 21.9062 10.8161C21.1252 10.035 19.8588 10.035 19.0778 10.8161L11.4257 18.4682L3.77359 10.8161C2.99254 10.035 1.72621 10.035 0.945161 10.8161C0.164113 11.5971 0.164113 12.8635 0.945161 13.6445L10.0115 22.7108Z" fill="#6D75F4"/>
</svg>
