<svg width="26" height="20" viewBox="0 0 26 20" fill="none" xmlns="http://www.w3.org/2000/svg">
<g clip-path="url(#clip0_7795_142808)">
<path d="M25.9884 2.21277V17.7872C25.9884 17.7872 25.9884 17.8967 25.9884 17.9574L18.2 10.0061L26 2.09119C26 2.09119 26 2.16413 26 2.20061L25.9884 2.21277ZM2.1125 0H23.8759C24.2937 0 24.6536 0.0851065 24.9554 0.231003L14.6714 10.7112C14.3696 11.0152 14.0911 11.234 13.8125 11.3799C13.5455 11.5258 13.2786 11.5866 13.0116 11.5866C12.7446 11.5866 12.4661 11.5137 12.1991 11.3678C11.9321 11.2219 11.6536 11.003 11.3634 10.7112L1.05625 0.206687C1.34643 0.0729484 1.69464 0 2.10089 0H2.1125ZM0.0116073 18.0182C0.0116073 17.9453 0 17.8723 0 17.7872V2.20061C0 2.20061 0 2.1155 0 2.06687L7.84643 10.0182L0.0116073 18.0182ZM23.8759 20H2.1125C1.72946 20 1.40446 19.9392 1.11429 19.8176L9.28571 11.4772L10.1795 12.3769C10.6554 12.8632 11.1196 13.2158 11.5955 13.4347C12.0598 13.6535 12.5357 13.7629 13.0232 13.7629C13.5107 13.7629 13.975 13.6535 14.4393 13.4347C14.9036 13.2158 15.3795 12.8632 15.8554 12.3769L16.7491 11.4772L24.8973 19.7933C24.6071 19.9271 24.2705 20 23.8643 20H23.8759Z" fill="#EFEFEF"/>
</g>
<defs>
<clipPath id="clip0_7795_142808">
<rect width="26" height="20" fill="white"/>
</clipPath>
</defs>
</svg>
