<svg width="30" height="30" viewBox="0 0 30 30" fill="none" xmlns="http://www.w3.org/2000/svg">
<path d="M27.9884 7.21277V22.7872C27.9884 22.7872 27.9884 22.8967 27.9884 22.9574L20.2 15.0061L28 7.09119C28 7.09119 28 7.16413 28 7.20061L27.9884 7.21277ZM4.1125 5H25.8759C26.2937 5 26.6536 5.08511 26.9554 5.231L16.6714 15.7112C16.3696 16.0152 16.0911 16.234 15.8125 16.3799C15.5455 16.5258 15.2786 16.5866 15.0116 16.5866C14.7446 16.5866 14.4661 16.5137 14.1991 16.3678C13.9321 16.2219 13.6536 16.003 13.3634 15.7112L3.05625 5.20669C3.34643 5.07295 3.69464 5 4.10089 5H4.1125ZM2.01161 23.0182C2.01161 22.9453 2 22.8723 2 22.7872V7.20061C2 7.20061 2 7.1155 2 7.06687L9.84643 15.0182L2.01161 23.0182ZM25.8759 25H4.1125C3.72946 25 3.40446 24.9392 3.11429 24.8176L11.2857 16.4772L12.1795 17.3769C12.6554 17.8632 13.1196 18.2158 13.5955 18.4347C14.0598 18.6535 14.5357 18.7629 15.0232 18.7629C15.5107 18.7629 15.975 18.6535 16.4393 18.4347C16.9036 18.2158 17.3795 17.8632 17.8554 17.3769L18.7491 16.4772L26.8973 24.7933C26.6071 24.9271 26.2705 25 25.8643 25H25.8759Z" fill="#EFEFEF"/>
</svg>
