<svg width="20" height="20" viewBox="0 0 20 20" fill="none" xmlns="http://www.w3.org/2000/svg">
<mask id="path-1-inside-1_7702_137824" fill="white">
<path d="M19.8505 8.17639C19.8437 8.0703 19.7972 7.97066 19.7203 7.8972C19.6435 7.82374 19.5418 7.78183 19.4355 7.77976C19.1072 7.73873 18.7743 7.68403 18.4459 7.63844C17.5339 7.52447 17.5339 7.51991 17.2055 6.68563C17.1618 6.59617 17.1462 6.49556 17.1609 6.39708C17.1755 6.2986 17.2197 6.20687 17.2876 6.13401C17.6251 5.71003 17.9397 5.26326 18.2726 4.83016C18.3342 4.7657 18.3686 4.67998 18.3686 4.59082C18.3686 4.50167 18.3342 4.41595 18.2726 4.35148C17.5522 3.31813 16.6534 2.42123 15.6185 1.70277C15.5558 1.6467 15.4746 1.6157 15.3905 1.6157C15.3064 1.6157 15.2252 1.6467 15.1625 1.70277C14.898 1.9216 14.5879 2.09028 14.3462 2.3319C14.1693 2.56361 13.9098 2.71809 13.6218 2.76311C13.3337 2.80813 13.0394 2.74021 12.8002 2.57352C12.7064 2.53497 12.6243 2.47265 12.5619 2.39271C12.4996 2.31277 12.4591 2.21796 12.4445 2.11763C12.3898 1.61159 12.3032 1.10556 12.2393 0.599521C12.24 0.486819 12.1989 0.377858 12.124 0.293668C12.049 0.209479 11.9455 0.156028 11.8335 0.143633C10.6341 -0.0478775 9.41193 -0.0478775 8.21257 0.143633C8.11202 0.152421 8.01813 0.197541 7.94846 0.270547C7.87879 0.343552 7.83812 0.439437 7.83406 0.540255C7.79302 0.882172 7.74742 1.22409 7.69269 1.56145C7.51484 2.66014 7.75654 2.31366 6.75327 2.77867C6.65999 2.82738 6.55366 2.84524 6.44958 2.82967C6.3455 2.8141 6.24904 2.76592 6.17411 2.69205C5.74544 2.35013 5.30309 2.03557 4.86986 1.70277C4.80762 1.64575 4.72627 1.61411 4.64184 1.61411C4.55742 1.61411 4.47606 1.64575 4.41383 1.70277C3.36331 2.42369 2.45051 3.32694 1.71868 4.36972C1.66164 4.43193 1.63 4.51327 1.63 4.59766C1.63 4.68206 1.66164 4.76339 1.71868 4.82561C1.93302 5.09458 2.11087 5.40003 2.34801 5.64621C2.80404 6.13401 2.97733 6.62181 2.57602 7.23726C2.53437 7.32676 2.47069 7.40424 2.39093 7.46244C2.31118 7.52065 2.21796 7.55767 2.11999 7.57005C1.60467 7.63388 1.0848 7.71594 0.569483 7.78432C0.462744 7.78285 0.359459 7.82211 0.280663 7.89411C0.201867 7.9661 0.153486 8.06542 0.145374 8.17183C-0.048458 9.37063 -0.048458 10.5928 0.145374 11.7916C0.15121 11.8976 0.197495 11.9974 0.274697 12.0703C0.351899 12.1432 0.45414 12.1838 0.560363 12.1836C0.876204 12.2485 1.19621 12.2912 1.51803 12.3113C1.66273 12.29 1.81021 12.2976 1.95197 12.3337C2.09372 12.3697 2.22694 12.4334 2.34394 12.5211C2.46095 12.6088 2.55943 12.7188 2.6337 12.8448C2.70797 12.9708 2.75656 13.1102 2.77668 13.255C2.81642 13.3494 2.8306 13.4526 2.81779 13.5542C2.80498 13.6559 2.76564 13.7523 2.70371 13.834C2.36169 14.2579 2.04703 14.7047 1.71412 15.1378C1.65255 15.1959 1.61509 15.2751 1.60918 15.3595C1.60327 15.444 1.62933 15.5276 1.6822 15.5937C2.40658 16.6537 3.32582 17.5665 4.39103 18.2834C4.45525 18.3135 4.52531 18.3291 4.59624 18.3291C4.66717 18.3291 4.73723 18.3135 4.80146 18.2834C5.1082 18.1007 5.39415 17.8852 5.65423 17.6406C5.83476 17.4087 6.09854 17.2561 6.38968 17.2152C6.68083 17.1744 6.97644 17.2485 7.21386 17.4218C7.30766 17.4604 7.38979 17.5227 7.45216 17.6026C7.51454 17.6826 7.555 17.7774 7.56957 17.8777C7.62885 18.3883 7.71094 18.8943 7.77478 19.4004C7.7741 19.5131 7.8152 19.622 7.89015 19.7062C7.9651 19.7904 8.06859 19.8439 8.18065 19.8562C9.38001 20.0478 10.6022 20.0478 11.8015 19.8562C11.9029 19.8506 11.9984 19.8072 12.0693 19.7346C12.1402 19.6621 12.1813 19.5656 12.1846 19.4642C12.2484 18.949 12.3214 18.4293 12.3944 17.9142C12.3944 17.7956 12.4309 17.6224 12.5084 17.5814C12.8276 17.4036 13.1696 17.2714 13.5162 17.1255C13.6211 17.1939 13.7214 17.2394 13.8081 17.3033C14.2641 17.6315 14.6837 17.9506 15.1123 18.288C15.1779 18.3556 15.2668 18.3956 15.3609 18.3998C15.455 18.4041 15.5471 18.3722 15.6185 18.3108C16.655 17.5777 17.5536 16.6671 18.2726 15.621C18.3392 15.5536 18.3765 15.4627 18.3765 15.368C18.3765 15.2733 18.3392 15.1824 18.2726 15.115C18.0794 14.8292 17.8692 14.5552 17.6433 14.2944C17.4127 14.1126 17.2618 13.8483 17.2227 13.5573C17.1835 13.2663 17.2591 12.9715 17.4335 12.7353C17.4712 12.6422 17.5336 12.5611 17.614 12.5009C17.6943 12.4406 17.7896 12.4034 17.8896 12.3934C18.4003 12.3341 18.9065 12.2475 19.4127 12.1882C19.5283 12.1885 19.6397 12.1449 19.7244 12.0661C19.809 11.9874 19.8606 11.8795 19.8687 11.7642C20.0497 10.5746 20.0435 9.36408 19.8505 8.17639ZM9.95005 13.5148C9.47694 13.5148 9.00847 13.4217 8.57138 13.2407C8.13428 13.0597 7.73713 12.7944 7.40259 12.46C7.06806 12.1255 6.80269 11.7285 6.62164 11.2916C6.44059 10.8546 6.3474 10.3863 6.3474 9.91332C6.3474 9.44036 6.44059 8.97204 6.62164 8.53508C6.80269 8.09812 7.06806 7.70109 7.40259 7.36666C7.73713 7.03223 8.13428 6.76694 8.57138 6.58595C9.00847 6.40496 9.47694 6.3118 9.95005 6.3118C10.4232 6.3118 10.8916 6.40496 11.3287 6.58595C11.7658 6.76694 12.163 7.03223 12.4975 7.36666C12.832 7.70109 13.0974 8.09812 13.2785 8.53508C13.4595 8.97204 13.5527 9.44036 13.5527 9.91332C13.5527 10.3863 13.4595 10.8546 13.2785 11.2916C13.0974 11.7285 12.832 12.1255 12.4975 12.46C12.163 12.7944 11.7658 13.0597 11.3287 13.2407C10.8916 13.4217 10.4232 13.5148 9.95005 13.5148Z"/>
</mask>
<path d="M19.8505 8.17639C19.8437 8.0703 19.7972 7.97066 19.7203 7.8972C19.6435 7.82374 19.5418 7.78183 19.4355 7.77976C19.1072 7.73873 18.7743 7.68403 18.4459 7.63844C17.5339 7.52447 17.5339 7.51991 17.2055 6.68563C17.1618 6.59617 17.1462 6.49556 17.1609 6.39708C17.1755 6.2986 17.2197 6.20687 17.2876 6.13401C17.6251 5.71003 17.9397 5.26326 18.2726 4.83016C18.3342 4.7657 18.3686 4.67998 18.3686 4.59082C18.3686 4.50167 18.3342 4.41595 18.2726 4.35148C17.5522 3.31813 16.6534 2.42123 15.6185 1.70277C15.5558 1.6467 15.4746 1.6157 15.3905 1.6157C15.3064 1.6157 15.2252 1.6467 15.1625 1.70277C14.898 1.9216 14.5879 2.09028 14.3462 2.3319C14.1693 2.56361 13.9098 2.71809 13.6218 2.76311C13.3337 2.80813 13.0394 2.74021 12.8002 2.57352C12.7064 2.53497 12.6243 2.47265 12.5619 2.39271C12.4996 2.31277 12.4591 2.21796 12.4445 2.11763C12.3898 1.61159 12.3032 1.10556 12.2393 0.599521C12.24 0.486819 12.1989 0.377858 12.124 0.293668C12.049 0.209479 11.9455 0.156028 11.8335 0.143633C10.6341 -0.0478775 9.41193 -0.0478775 8.21257 0.143633C8.11202 0.152421 8.01813 0.197541 7.94846 0.270547C7.87879 0.343552 7.83812 0.439437 7.83406 0.540255C7.79302 0.882172 7.74742 1.22409 7.69269 1.56145C7.51484 2.66014 7.75654 2.31366 6.75327 2.77867C6.65999 2.82738 6.55366 2.84524 6.44958 2.82967C6.3455 2.8141 6.24904 2.76592 6.17411 2.69205C5.74544 2.35013 5.30309 2.03557 4.86986 1.70277C4.80762 1.64575 4.72627 1.61411 4.64184 1.61411C4.55742 1.61411 4.47606 1.64575 4.41383 1.70277C3.36331 2.42369 2.45051 3.32694 1.71868 4.36972C1.66164 4.43193 1.63 4.51327 1.63 4.59766C1.63 4.68206 1.66164 4.76339 1.71868 4.82561C1.93302 5.09458 2.11087 5.40003 2.34801 5.64621C2.80404 6.13401 2.97733 6.62181 2.57602 7.23726C2.53437 7.32676 2.47069 7.40424 2.39093 7.46244C2.31118 7.52065 2.21796 7.55767 2.11999 7.57005C1.60467 7.63388 1.0848 7.71594 0.569483 7.78432C0.462744 7.78285 0.359459 7.82211 0.280663 7.89411C0.201867 7.9661 0.153486 8.06542 0.145374 8.17183C-0.048458 9.37063 -0.048458 10.5928 0.145374 11.7916C0.15121 11.8976 0.197495 11.9974 0.274697 12.0703C0.351899 12.1432 0.45414 12.1838 0.560363 12.1836C0.876204 12.2485 1.19621 12.2912 1.51803 12.3113C1.66273 12.29 1.81021 12.2976 1.95197 12.3337C2.09372 12.3697 2.22694 12.4334 2.34394 12.5211C2.46095 12.6088 2.55943 12.7188 2.6337 12.8448C2.70797 12.9708 2.75656 13.1102 2.77668 13.255C2.81642 13.3494 2.8306 13.4526 2.81779 13.5542C2.80498 13.6559 2.76564 13.7523 2.70371 13.834C2.36169 14.2579 2.04703 14.7047 1.71412 15.1378C1.65255 15.1959 1.61509 15.2751 1.60918 15.3595C1.60327 15.444 1.62933 15.5276 1.6822 15.5937C2.40658 16.6537 3.32582 17.5665 4.39103 18.2834C4.45525 18.3135 4.52531 18.3291 4.59624 18.3291C4.66717 18.3291 4.73723 18.3135 4.80146 18.2834C5.1082 18.1007 5.39415 17.8852 5.65423 17.6406C5.83476 17.4087 6.09854 17.2561 6.38968 17.2152C6.68083 17.1744 6.97644 17.2485 7.21386 17.4218C7.30766 17.4604 7.38979 17.5227 7.45216 17.6026C7.51454 17.6826 7.555 17.7774 7.56957 17.8777C7.62885 18.3883 7.71094 18.8943 7.77478 19.4004C7.7741 19.5131 7.8152 19.622 7.89015 19.7062C7.9651 19.7904 8.06859 19.8439 8.18065 19.8562C9.38001 20.0478 10.6022 20.0478 11.8015 19.8562C11.9029 19.8506 11.9984 19.8072 12.0693 19.7346C12.1402 19.6621 12.1813 19.5656 12.1846 19.4642C12.2484 18.949 12.3214 18.4293 12.3944 17.9142C12.3944 17.7956 12.4309 17.6224 12.5084 17.5814C12.8276 17.4036 13.1696 17.2714 13.5162 17.1255C13.6211 17.1939 13.7214 17.2394 13.8081 17.3033C14.2641 17.6315 14.6837 17.9506 15.1123 18.288C15.1779 18.3556 15.2668 18.3956 15.3609 18.3998C15.455 18.4041 15.5471 18.3722 15.6185 18.3108C16.655 17.5777 17.5536 16.6671 18.2726 15.621C18.3392 15.5536 18.3765 15.4627 18.3765 15.368C18.3765 15.2733 18.3392 15.1824 18.2726 15.115C18.0794 14.8292 17.8692 14.5552 17.6433 14.2944C17.4127 14.1126 17.2618 13.8483 17.2227 13.5573C17.1835 13.2663 17.2591 12.9715 17.4335 12.7353C17.4712 12.6422 17.5336 12.5611 17.614 12.5009C17.6943 12.4406 17.7896 12.4034 17.8896 12.3934C18.4003 12.3341 18.9065 12.2475 19.4127 12.1882C19.5283 12.1885 19.6397 12.1449 19.7244 12.0661C19.809 11.9874 19.8606 11.8795 19.8687 11.7642C20.0497 10.5746 20.0435 9.36408 19.8505 8.17639ZM9.95005 13.5148C9.47694 13.5148 9.00847 13.4217 8.57138 13.2407C8.13428 13.0597 7.73713 12.7944 7.40259 12.46C7.06806 12.1255 6.80269 11.7285 6.62164 11.2916C6.44059 10.8546 6.3474 10.3863 6.3474 9.91332C6.3474 9.44036 6.44059 8.97204 6.62164 8.53508C6.80269 8.09812 7.06806 7.70109 7.40259 7.36666C7.73713 7.03223 8.13428 6.76694 8.57138 6.58595C9.00847 6.40496 9.47694 6.3118 9.95005 6.3118C10.4232 6.3118 10.8916 6.40496 11.3287 6.58595C11.7658 6.76694 12.163 7.03223 12.4975 7.36666C12.832 7.70109 13.0974 8.09812 13.2785 8.53508C13.4595 8.97204 13.5527 9.44036 13.5527 9.91332C13.5527 10.3863 13.4595 10.8546 13.2785 11.2916C13.0974 11.7285 12.832 12.1255 12.4975 12.46C12.163 12.7944 11.7658 13.0597 11.3287 13.2407C10.8916 13.4217 10.4232 13.5148 9.95005 13.5148Z" stroke="#6D75F4" stroke-width="2" mask="url(#path-1-inside-1_7702_137824)"/>
</svg>
