<svg width="26" height="26" viewBox="0 0 26 26" fill="none" xmlns="http://www.w3.org/2000/svg">
<g clip-path="url(#clip0_8518_210418)">
<path d="M9.62625 16.0136C10.1074 16.0136 10.5465 15.8997 10.9437 15.6721C11.3408 15.4444 11.6578 15.1409 11.8945 14.7615C12.1313 14.3821 12.2496 13.9684 12.2496 13.5203C12.2496 13.0723 12.1313 12.6603 11.8945 12.2846C11.6578 11.9088 11.3408 11.6089 10.9437 11.3848C10.5465 11.1608 10.1074 11.0488 9.62625 11.0488C9.14511 11.0488 8.70597 11.1608 8.30883 11.3848C7.91169 11.6089 7.59666 11.9088 7.36372 12.2846C7.13079 12.6603 7.01432 13.0723 7.01432 13.5203C7.01432 13.9684 7.13079 14.3821 7.36372 14.7615C7.59666 15.1409 7.91169 15.4444 8.30883 15.6721C8.70597 15.8997 9.14511 16.0136 9.62625 16.0136ZM4.59714 25H21.4029C22.5943 25 23.4916 24.7182 24.095 24.1545C24.6983 23.5908 25 22.7525 25 21.6396V10.5068C25 9.39385 24.6983 8.55556 24.095 7.99187C23.4916 7.42818 22.5943 7.14634 21.4029 7.14634H4.59714C3.39808 7.14634 2.49881 7.42637 1.89928 7.98645C1.29976 8.54652 1 9.38663 1 10.5068V21.6396C1 22.7597 1.29976 23.5998 1.89928 24.1599C2.49881 24.72 3.39808 25 4.59714 25ZM4.62005 23.2547C4.04725 23.2547 3.60812 23.1102 3.30263 22.8211C2.99713 22.5321 2.84439 21.542 2.84439 21.542V10.6043C2.84439 10.0406 2.99713 9.61427 3.30263 9.3252C3.60812 9.03613 4.04725 8.8916 4.62005 8.8916H21.3685C21.9337 8.8916 22.3728 9.03613 22.6859 9.3252C22.999 9.61427 23.1556 10.0406 23.1556 10.6043V21.542C23.1556 22.1057 22.999 22.5321 22.6859 22.8211C22.3728 23.1102 21.9337 23.2547 21.3685 23.2547H4.62005ZM3.41718 5.40108H22.5943C22.5026 4.90966 22.3212 4.53207 22.0501 4.26829C21.779 4.00452 21.357 3.87263 20.7842 3.87263H5.22721C4.65441 3.87263 4.23055 4.00452 3.95561 4.26829C3.68067 4.53207 3.50119 4.90966 3.41718 5.40108ZM5.77709 2.39837H20.2344C20.1962 1.93586 20.0377 1.58717 19.7589 1.3523C19.4802 1.11743 19.0773 1 18.5504 1H7.44964C6.92267 1 6.51981 1.11743 6.24105 1.3523C5.96229 1.58717 5.80764 1.93586 5.77709 2.39837Z" fill="#86889D"/>
<path d="M4.75744 24.0715H4.73191L4.70646 24.0736C4.55697 24.0858 4.4166 24.1006 4.27638 24.1153C4.06326 24.1378 3.8505 24.1602 3.60663 24.1736C3.22504 24.1945 2.89074 24.1817 2.62754 24.1108C2.37736 24.0435 2.23649 23.9376 2.15327 23.7922C2.07284 23.6516 1.9997 23.3927 2.0477 22.9255L6.02623 19.2813C6.22235 19.1212 6.40389 19.01 6.57016 18.9378C6.72767 18.8693 6.88179 18.8377 7.03716 18.8377C7.22334 18.8377 7.40099 18.8725 7.57451 18.9433L7.81043 18.3645L7.57451 18.9433C7.74924 19.0145 7.92893 19.126 8.11269 19.2882L8.11809 19.293L8.1236 19.2977L10.1169 20.9779L10.4675 21.2734L10.8546 21.0277L15.8379 17.8651L15.8723 17.8433L15.9036 17.8172C16.1167 17.6393 16.3194 17.5228 16.5108 17.4539C16.7101 17.3822 16.9264 17.3445 17.1641 17.3445C17.387 17.3445 17.6093 17.3834 17.834 17.4645L18.0457 16.8782L17.834 17.4645C18.048 17.5418 18.2433 17.6577 18.4224 17.8162L18.4354 17.8277L18.4489 17.8384L23.8964 22.1473C23.8185 22.7572 23.6015 23.1762 23.292 23.463C22.8905 23.8351 22.2502 24.0715 21.2653 24.0715H4.75744Z" fill="#86889D" stroke="#86889D" stroke-width="1.25"/>
</g>
<defs>
<clipPath id="clip0_8518_210418">
<rect width="26" height="26" fill="white"/>
</clipPath>
</defs>
</svg>
