<svg width="36" height="36" viewBox="0 0 36 36" fill="none" xmlns="http://www.w3.org/2000/svg">
<path d="M35.25 18C35.25 27.5269 27.5269 35.25 18 35.25C8.47309 35.25 0.75 27.5269 0.75 18C0.75 8.47309 8.47309 0.75 18 0.75C27.5269 0.75 35.25 8.47309 35.25 18Z" stroke="#6D75F4" stroke-width="1.5"/>
<path fill-rule="evenodd" clip-rule="evenodd" d="M18 7C18.5695 7 19.0312 7.46171 19.0312 8.03125V9.40625C19.0312 9.97579 18.5695 10.4375 18 10.4375C17.4305 10.4375 16.9688 9.97579 16.9688 9.40625V8.03125C16.9688 7.46171 17.4305 7 18 7ZM10.2239 10.2239C10.6266 9.82119 11.2796 9.82119 11.6823 10.2239L12.6534 11.195C13.0562 11.5977 13.0562 12.2507 12.6534 12.6534C12.2507 13.0562 11.5977 13.0562 11.195 12.6534L10.2239 11.6823C9.82119 11.2796 9.82119 10.6266 10.2239 10.2239ZM25.7763 10.2239C26.1791 10.6266 26.1791 11.2796 25.7763 11.6823L24.8053 12.6534C24.4025 13.0562 23.7496 13.0562 23.3468 12.6534C22.9441 12.2507 22.9441 11.5977 23.3468 11.195L24.3179 10.2239C24.7207 9.82119 25.3736 9.82119 25.7763 10.2239ZM18 13.875C15.7218 13.875 13.875 15.7218 13.875 18C13.875 20.2782 15.7218 22.125 18 22.125C20.2782 22.125 22.125 20.2782 22.125 18C22.125 15.7218 20.2782 13.875 18 13.875ZM11.8125 18C11.8125 14.5827 14.5827 11.8125 18 11.8125C21.4173 11.8125 24.1875 14.5827 24.1875 18C24.1875 21.4173 21.4173 24.1875 18 24.1875C14.5827 24.1875 11.8125 21.4173 11.8125 18ZM7 18C7 17.4305 7.46171 16.9688 8.03125 16.9688H9.40625C9.97579 16.9688 10.4375 17.4305 10.4375 18C10.4375 18.5695 9.97579 19.0312 9.40625 19.0312H8.03125C7.46171 19.0312 7 18.5695 7 18ZM25.5625 18C25.5625 17.4305 26.0242 16.9688 26.5938 16.9688H27.9688C28.5383 16.9688 29 17.4305 29 18C29 18.5695 28.5383 19.0312 27.9688 19.0312H26.5938C26.0242 19.0312 25.5625 18.5695 25.5625 18ZM23.3468 23.3465C23.7496 22.9438 24.4025 22.9438 24.8053 23.3465L25.7763 24.3176C26.1791 24.7203 26.1791 25.3733 25.7763 25.776C25.3736 26.1787 24.7207 26.1787 24.3179 25.776L23.3468 24.8049C22.9441 24.4022 22.9441 23.7492 23.3468 23.3465ZM12.6534 23.3466C13.0562 23.7493 13.0562 24.4023 12.6534 24.805L11.6823 25.7761C11.2796 26.1788 10.6266 26.1788 10.2239 25.7761C9.82119 25.3734 9.82119 24.7204 10.2239 24.3177L11.195 23.3466C11.5977 22.9439 12.2507 22.9439 12.6534 23.3466ZM18 25.5625C18.5695 25.5625 19.0312 26.0242 19.0312 26.5938V27.9688C19.0312 28.5383 18.5695 29 18 29C17.4305 29 16.9688 28.5383 16.9688 27.9688V26.5938C16.9688 26.0242 17.4305 25.5625 18 25.5625Z" fill="#6D75F4"/>
</svg>
