<svg width="22" height="22" viewBox="0 0 22 22" fill="none" xmlns="http://www.w3.org/2000/svg">
<g clip-path="url(#clip0_7702_149146)">
<path d="M0.478935 21.5104C0.798228 21.8436 1.19734 22.0067 1.67627 21.9998C2.15521 21.9928 2.55432 21.8297 2.87361 21.5104L10.9947 13.3685L19.1366 21.5104C19.4559 21.8297 19.8515 21.9928 20.3235 21.9998C20.7955 22.0067 21.1911 21.8436 21.5104 21.5104C21.8436 21.1911 22.0067 20.7955 21.9998 20.3235C21.9928 19.8515 21.8297 19.4559 21.5104 19.1366L13.3685 10.9947L21.5104 2.87361C21.8297 2.54044 21.9928 2.13786 21.9998 1.66586C22.0067 1.19387 21.8436 0.798228 21.5104 0.478935C21.1911 0.159643 20.7955 0 20.3235 0C19.8515 0 19.4559 0.159643 19.1366 0.478935L10.9947 8.62083L2.87361 0.478935C2.55432 0.159643 2.15521 0 1.67627 0C1.19734 0 0.798228 0.159643 0.478935 0.478935C0.159643 0.798228 0 1.19387 0 1.66586C0 2.13786 0.159643 2.54044 0.478935 2.87361L8.62083 10.9947L0.478935 19.1366C0.159643 19.4559 0 19.8515 0 20.3235C0 20.7955 0.159643 21.1911 0.478935 21.5104Z" fill="#6D75F4"/>
</g>
<defs>
<clipPath id="clip0_7702_149146">
<rect width="22" height="22" fill="white"/>
</clipPath>
</defs>
</svg>
