<svg width="33" height="32" viewBox="0 0 33 32" fill="none" xmlns="http://www.w3.org/2000/svg">
<path fill-rule="evenodd" clip-rule="evenodd" d="M16.5999 4.11117C10.0339 4.11117 4.71114 9.43393 4.71114 15.9999C4.71114 22.5658 10.0339 27.8886 16.5999 27.8886C23.1658 27.8886 28.4886 22.5658 28.4886 15.9999C28.4886 9.43393 23.1658 4.11117 16.5999 4.11117ZM1.37781 15.9999C1.37781 7.59298 8.19295 0.777832 16.5999 0.777832C25.0068 0.777832 31.8219 7.59298 31.8219 15.9999C31.8219 24.4068 25.0068 31.2219 16.5999 31.2219C8.19295 31.2219 1.37781 24.4068 1.37781 15.9999Z" fill="#6D75F4"/>
<path fill-rule="evenodd" clip-rule="evenodd" d="M16.6 6.42589C17.5204 6.42589 18.2666 7.17208 18.2666 8.09255V14.3332H24.5073C25.4277 14.3332 26.1739 15.0794 26.1739 15.9999C26.1739 16.9203 25.4277 17.6665 24.5073 17.6665H16.6C15.6795 17.6665 14.9333 16.9203 14.9333 15.9999V8.09255C14.9333 7.17208 15.6795 6.42589 16.6 6.42589Z" fill="#6D75F4"/>
</svg>
