<svg width="25" height="25" viewBox="0 0 25 25" fill="none" xmlns="http://www.w3.org/2000/svg">
<path fill-rule="evenodd" clip-rule="evenodd" d="M10.5892 1.54694C10.9629 1.39216 11.393 1.47772 11.679 1.76372L21.679 11.7637C22.0696 12.1542 22.0696 12.7874 21.679 13.1779L11.679 23.1779C11.393 23.4639 10.9629 23.5495 10.5892 23.3947C10.2156 23.2399 9.97192 22.8753 9.97192 22.4708V18.4708H5.80526C5.31903 18.4708 4.85271 18.2777 4.50889 17.9339C4.16508 17.59 3.97192 17.1237 3.97192 16.6375V8.30416C3.97192 7.81793 4.16508 7.35161 4.50889 7.00779C4.85271 6.66398 5.31903 6.47082 5.80526 6.47082H9.97192V2.47082C9.97192 2.06636 10.2156 1.70173 10.5892 1.54694ZM11.9719 4.88504V7.47082C11.9719 8.02311 11.5242 8.47082 10.9719 8.47082H5.97192V16.4708H10.9719C11.5242 16.4708 11.9719 16.9185 11.9719 17.4708V20.0566L19.5577 12.4708L11.9719 4.88504Z" fill="#6D75F4"/>
</svg>
