<svg width="22" height="22" viewBox="0 0 22 22" fill="none" xmlns="http://www.w3.org/2000/svg">
<path fill-rule="evenodd" clip-rule="evenodd" d="M2.4478 4.0502H8.56731C9.24325 4.0502 9.79121 3.49384 9.79121 2.80753C9.79121 2.12121 9.24325 1.56485 8.56731 1.56485H2.03984C1.49884 1.56485 0.979997 1.78306 0.597454 2.17147C0.214911 2.55988 0 3.08668 0 3.63598V19.9289C0 20.4782 0.214912 21.005 0.597454 21.3934C0.979999 21.7818 1.49884 22 2.03984 22H18.0865C18.6275 22 19.1464 21.7818 19.5289 21.3934C19.9115 21.005 20.1264 20.4782 20.1264 19.9289V13.3013C20.1264 12.6149 19.5784 12.0586 18.9025 12.0586C18.2265 12.0586 17.6786 12.6149 17.6786 13.3013V19.5146H2.4478V4.0502Z" fill="#6D75F4"/>
<path fill-rule="evenodd" clip-rule="evenodd" d="M16.1222 0.444855C16.7064 -0.148285 17.6535 -0.148285 18.2377 0.444855L21.5619 3.82003C22.146 4.41317 22.146 5.37484 21.5619 5.96798L18.2377 9.34315C17.6535 9.93629 16.7064 9.93629 16.1222 9.34315C15.538 8.75001 15.538 7.78835 16.1222 7.19521L18.3886 4.894L16.1222 2.5928C15.538 1.99966 15.538 1.03799 16.1222 0.444855Z" fill="#6D75F4"/>
<path fill-rule="evenodd" clip-rule="evenodd" d="M14.853 6.03312C13.3873 6.03312 11.9816 6.6243 10.9452 7.67661C9.90883 8.72892 9.32658 10.1562 9.32658 11.6444C9.32658 12.2735 8.82428 12.7835 8.20467 12.7835C7.58506 12.7835 7.08276 12.2735 7.08276 11.6444C7.08276 9.55193 7.90141 7.54521 9.35862 6.06565C10.8158 4.58609 12.7922 3.75488 14.853 3.75488H19.5069C20.1265 3.75488 20.6288 4.26488 20.6288 4.894C20.6288 5.52312 20.1265 6.03312 19.5069 6.03312H14.853Z" fill="#6D75F4"/>
</svg>
