<svg width="25" height="25" viewBox="0 0 25 25" fill="none" xmlns="http://www.w3.org/2000/svg">
<g clip-path="url(#clip0_6801_85682)">
<path d="M20.2505 17.1468C20.156 15.4731 19.2482 13.979 17.5461 12.7119C17.0071 12.3147 16.1371 11.7473 14.9456 11.2556L19.7115 6.47077V5.79938C19.7115 5.5346 19.4846 5.30765 19.2198 5.30765H10.3499V1.29823L6.29318 2.14928V3.25566H6.81327C6.96457 3.25566 7.31445 3.3124 7.31445 3.75684V5.28874H5.01659C4.78964 5.28874 4.59106 5.48732 4.59106 5.71427V7.22726H7.3239V13.3171C7.3239 14.4329 7.70215 15.3974 8.39246 16.031C9.09221 16.674 10.0851 16.9671 11.2388 16.8726C11.7305 16.8348 12.2222 16.6551 12.7045 16.343C12.9693 16.1634 13.13 15.8797 13.13 15.5676V14.3194L12.6194 14.6598C11.9953 15.0759 11.4563 15.0664 11.4563 15.0664H11.4374C11.1631 15.0664 10.9456 14.9813 10.7754 14.8111C10.3593 14.3856 10.3593 13.5818 10.3593 13.5724V7.22726H15.8534L11.5508 11.5582V11.6906C11.5414 12.1823 11.5319 12.5889 11.5319 12.7497C11.5319 12.797 11.5319 12.8253 11.5319 12.8348C11.5319 13.0239 11.6643 13.1752 11.8534 13.1941C16.2033 13.9317 17.1111 16.7307 17.1111 17.2508V17.2887C17.1111 17.3076 17.2907 18.9529 16.3451 20.0971C15.7967 20.7496 14.974 21.1279 13.9054 21.1941C13.896 21.1941 13.2624 21.2224 12.591 21.1184C11.9669 21.0239 11.513 20.8631 11.2766 20.6456C11.6927 20.3525 11.9291 19.908 11.9291 19.3879C11.9291 18.3288 11.2199 17.648 10.1324 17.648C9.14895 17.648 8.34517 18.4234 8.33572 19.369C8.32626 19.5392 8.27898 20.5794 9.12058 21.5061C10.0095 22.4896 11.5414 22.9813 13.669 22.9813C13.7447 22.9813 13.8298 22.9813 13.9054 22.9813C16.0803 22.9435 17.7446 22.3099 18.851 21.0995C20.3829 19.4352 20.26 17.2792 20.2505 17.1468Z" fill="#3E3E3E"/>
</g>
<defs>
<clipPath id="clip0_6801_85682">
<rect width="24" height="24" fill="white" transform="translate(0.590332 0.249023)"/>
</clipPath>
</defs>
</svg>
