<svg width="16" height="16" viewBox="0 0 16 16" fill="none" xmlns="http://www.w3.org/2000/svg">
<path d="M0.681378 0H15.3186C15.4508 4.45575e-05 15.5802 0.0408797 15.6909 0.117531C15.8016 0.194182 15.8889 0.30334 15.9422 0.431706C15.9955 0.560072 16.0124 0.702106 15.991 0.840502C15.9695 0.978899 15.9105 1.10768 15.8213 1.21117L10.2237 7.74606C10.1072 7.87835 10.0431 8.05312 10.0448 8.23415V13.35C10.0458 13.4701 10.0183 13.5887 9.96464 13.6945C9.91103 13.8004 9.83309 13.8902 9.73806 13.9556L7.01169 15.8808C6.90942 15.9522 6.79089 15.9932 6.66856 15.9992C6.54624 16.0053 6.42463 15.9763 6.31653 15.9152C6.20843 15.8542 6.11782 15.7634 6.05424 15.6523C5.99066 15.5413 5.95646 15.4141 5.95522 15.2842V8.23415C5.95686 8.05312 5.8928 7.87835 5.7763 7.74606L0.178702 1.21117C0.0894607 1.10768 0.030515 0.978899 0.00904651 0.840502C-0.012422 0.702106 0.0045135 0.560072 0.0577898 0.431706C0.111066 0.30334 0.198383 0.194182 0.309104 0.117531C0.419824 0.0408797 0.549168 4.45575e-05 0.681378 0Z" fill="#A2A4BA"/>
</svg>
