<svg width="80" height="80" viewBox="0 0 80 80" fill="none" xmlns="http://www.w3.org/2000/svg">
<path fill-rule="evenodd" clip-rule="evenodd" d="M39.9992 20.7581C29.3732 20.7581 20.7573 29.374 20.7573 40C20.7573 50.626 29.3732 59.2419 39.9992 59.2419C50.6252 59.2419 59.2411 50.626 59.2411 40C59.2443 29.374 50.6284 20.7581 39.9992 20.7581ZM39.9992 48.7597C35.163 48.7597 31.2427 44.8394 31.2427 40.0031C31.2427 35.1669 35.163 31.2466 39.9992 31.2466C44.8355 31.2466 48.7558 35.1669 48.7558 40.0031C48.7589 44.8394 44.8386 48.7597 39.9992 48.7597Z" fill="#5963FF"/>
<path fill-rule="evenodd" clip-rule="evenodd" d="M64.0031 0H16C7.16216 0 0 7.16217 0 16V64C0 72.8378 7.16216 80 16 80H64C72.8378 80 80 72.8378 80 64V16C80.0031 7.1653 72.8378 0 64.0031 0V0ZM65.8038 54.1305C66.0164 54.2868 66.2196 54.4619 66.4103 54.6526C68.2079 56.4533 68.4455 59.3419 66.9668 61.4146C65.188 63.9093 61.7085 64.3564 59.3638 62.4556C59.3075 62.4119 59.2544 62.365 59.2013 62.3181C58.5823 61.7741 57.6757 61.7304 57.0223 62.2337C52.3048 65.8507 46.4025 68.0016 40 68.0016C33.5975 68.0016 27.6952 65.8507 22.9777 62.2337C22.3243 61.7335 21.4177 61.7741 20.7987 62.3181C20.7456 62.365 20.6925 62.4087 20.6362 62.4556C18.2915 64.3533 14.812 63.9062 13.0332 61.4146C11.5545 59.3419 11.7921 56.4564 13.5897 54.6526C13.7835 54.4588 13.9867 54.2837 14.1962 54.1305C14.8433 53.6522 15.0684 52.78 14.7183 52.0516C12.9738 48.4002 11.9984 44.3142 11.9984 40C11.9984 35.6858 12.9769 31.5967 14.7183 27.9453C15.0684 27.2106 14.8277 26.3415 14.1743 25.857C14.118 25.8163 14.0617 25.7726 14.0055 25.7257C11.6608 23.8281 11.3732 20.3298 13.4427 18.0727C15.1622 16.1938 18.0383 15.8281 20.1735 17.213C20.4017 17.363 20.6143 17.5256 20.8113 17.6975C21.4209 18.2384 22.3243 18.2603 22.9715 17.7663C27.6889 14.1493 33.5913 11.9984 39.9937 11.9984C46.3962 11.9984 52.2985 14.1493 57.016 17.7663C57.6694 18.2696 58.576 18.2259 59.195 17.6819C59.2482 17.635 59.3013 17.5912 59.3576 17.5444C61.7022 15.6467 65.1817 16.0938 66.9605 18.5854C68.4392 20.6581 68.2016 23.5436 66.4041 25.3474C66.2102 25.5412 66.007 25.7163 65.7976 25.8726C65.1504 26.3509 64.9254 27.2231 65.2755 27.9484C67.0199 31.5998 67.9953 35.6858 67.9953 40C67.9953 44.3142 67.0199 48.4002 65.2755 52.0516C64.9347 52.78 65.1567 53.6522 65.8038 54.1305Z" fill="#5963FF"/>
</svg>
