<svg width="24" height="24" viewBox="0 0 24 24" fill="none" xmlns="http://www.w3.org/2000/svg">
<g clip-path="url(#clip0_10555_515637)">
<path d="M12.1244 16.3706C14.5403 16.3706 16.4988 14.4121 16.4988 11.9962C16.4988 9.58025 14.5403 7.62177 12.1244 7.62177C9.70849 7.62177 7.75 9.58025 7.75 11.9962C7.75 14.4121 9.70849 16.3706 12.1244 16.3706Z" stroke="#D0853E" stroke-width="2.25" stroke-linecap="round" stroke-linejoin="round"/>
<path d="M18.0556 20.7449C16.1069 22.0388 13.782 22.6447 11.4497 22.4667C9.11736 22.2887 6.91129 21.3369 5.18151 19.7624C3.45173 18.1878 2.29732 16.0807 1.90146 13.7754C1.50559 11.47 1.89094 9.09849 2.99637 7.03708C4.1018 4.97568 5.86398 3.34248 8.0033 2.39662C10.1426 1.45077 12.5366 1.24644 14.8052 1.81606C17.0739 2.38568 19.0874 3.69662 20.5262 5.54087C21.9649 7.38511 22.7466 9.65703 22.7472 11.9961C22.7472 14.413 21.8723 16.3705 19.6851 16.3705C17.4979 16.3705 16.623 14.413 16.623 11.9961V7.62171" stroke="#D0853E" stroke-width="2" stroke-linecap="round" stroke-linejoin="round"/>
</g>
<defs>
<clipPath id="clip0_10555_515637">
<rect width="24" height="24" fill="white"/>
</clipPath>
</defs>
</svg>
