<svg width="30" height="30" viewBox="0 0 30 30" fill="none" xmlns="http://www.w3.org/2000/svg">
<g clip-path="url(#clip0_7795_142855)">
<g clip-path="url(#clip1_7795_142855)">
<path fill-rule="evenodd" clip-rule="evenodd" d="M15 0C6.71634 0 0 6.88683 0 15.3808C0 22.1759 4.29707 27.9421 10.2583 29.9745C11.0084 30.1172 11.2842 29.6409 11.2842 29.2334C11.2842 28.8666 11.2692 27.6543 11.2643 26.3707C7.09141 27.3003 6.21212 24.5573 6.21212 24.5573C5.52906 22.7795 4.54794 22.3058 4.54794 22.3058C3.18679 21.3507 4.64978 21.3711 4.64978 21.3711C6.15499 21.4806 6.94983 22.9553 6.94983 22.9553C8.28862 25.3061 10.4595 24.626 11.314 24.2338C11.4481 23.2405 11.8381 22.5605 12.2653 22.1759C8.93443 21.7862 5.43219 20.4669 5.43219 14.5759C5.43219 12.8975 6.01838 11.5247 6.97715 10.4474C6.82067 10.0603 6.30899 8.49648 7.12121 6.37745C7.12121 6.37745 8.38053 5.96485 11.2469 7.95399C12.4441 7.6127 13.7258 7.44206 15.0025 7.43696C16.2767 7.44206 17.5609 7.6127 18.7606 7.95399C21.6244 5.96485 22.8813 6.37745 22.8813 6.37745C23.6985 8.49648 23.1843 10.0603 23.0278 10.4474C23.9891 11.5247 24.5703 12.8975 24.5703 14.5759C24.5703 20.4822 21.0606 21.7837 17.7223 22.1657C18.2613 22.642 18.7407 23.5793 18.7407 25.0132C18.7407 27.0711 18.7233 28.7265 18.7233 29.2334C18.7233 29.6434 18.994 30.1223 19.7541 29.972C25.7104 27.937 30.0025 22.1734 30.0025 15.3808C30 6.88683 23.2837 0 15 0Z" fill="white"/>
<path d="M5.68058 22.0817C5.64829 22.1581 5.52906 22.181 5.42226 22.1275C5.31297 22.0766 5.25335 21.9722 5.28813 21.8957C5.32042 21.8168 5.43716 21.7964 5.54645 21.8474C5.65574 21.8983 5.71783 22.0027 5.68058 22.0791V22.0817Z" fill="white"/>
<path d="M6.28912 22.777C6.21709 22.8457 6.07799 22.8126 5.98361 22.7057C5.88425 22.5987 5.86687 22.4561 5.9389 22.3873C6.01341 22.3185 6.14754 22.3516 6.2469 22.4586C6.34625 22.5681 6.36364 22.7082 6.28912 22.777Z" fill="white"/>
<path d="M6.88028 23.6633C6.78838 23.7295 6.63686 23.6684 6.54496 23.5309C6.45305 23.3933 6.45305 23.2303 6.54496 23.1641C6.63686 23.0979 6.78589 23.1565 6.88028 23.294C6.97218 23.4341 6.97218 23.5971 6.88028 23.6633Z" fill="white"/>
<path d="M7.69001 24.5191C7.60805 24.6133 7.43169 24.5878 7.30502 24.4605C7.17337 24.3357 7.1386 24.1599 7.22057 24.0683C7.30502 23.974 7.47889 24.002 7.60805 24.1268C7.73721 24.2516 7.77695 24.4274 7.69001 24.5191Z" fill="white"/>
<path d="M8.80775 25.0157C8.77049 25.1354 8.60159 25.1914 8.43269 25.1405C8.26379 25.087 8.15201 24.9469 8.18679 24.8247C8.22156 24.7024 8.39046 24.6464 8.56185 24.6999C8.73075 24.7534 8.84252 24.8935 8.80775 25.0157Z" fill="white"/>
<path d="M10.0348 25.1074C10.0397 25.2347 9.89568 25.3392 9.71684 25.3417C9.538 25.3468 9.39146 25.2424 9.39146 25.1176C9.39146 24.9902 9.53303 24.8858 9.71187 24.8833C9.89071 24.8807 10.0373 24.9826 10.0373 25.1074H10.0348Z" fill="white"/>
<path d="M11.1773 24.9087C11.1997 25.0335 11.0755 25.1583 10.8967 25.194C10.7228 25.2271 10.5614 25.1507 10.539 25.0284C10.5166 24.9011 10.6433 24.7738 10.8172 24.7406C10.9935 24.7101 11.1525 24.7839 11.1749 24.9087H11.1773Z" fill="white"/>
</g>
</g>
<defs>
<clipPath id="clip0_7795_142855">
<rect width="30" height="30" fill="white"/>
</clipPath>
<clipPath id="clip1_7795_142855">
<rect width="30" height="30" fill="white"/>
</clipPath>
</defs>
</svg>
