<svg width="20" height="20" viewBox="0 0 20 20" fill="none" xmlns="http://www.w3.org/2000/svg">
<g clip-path="url(#clip0_7702_138659)">
<path d="M19.8699 17.7911C19.7799 17.5912 19.6498 17.4113 19.4898 17.2614L15.2376 13.0335C15.3677 12.8436 15.5078 12.6637 15.6278 12.4638C16.3782 11.2144 16.7584 9.82509 16.7584 8.29585C16.7584 6.76662 16.3782 5.36732 15.6278 4.11794C14.8774 2.86857 13.8669 1.85907 12.6063 1.11944C11.3357 0.369815 9.93498 0 8.40421 0C6.87345 0 5.46274 0.369815 4.20211 1.11944C2.93147 1.86907 1.92097 2.86857 1.16059 4.12794C0.40021 5.38731 0.0200195 6.77661 0.0200195 8.30585C0.0200195 9.83508 0.40021 11.2144 1.16059 12.4738C1.92097 13.7231 2.94148 14.7226 4.20211 15.4723C5.47275 16.2119 6.87345 16.5917 8.40421 16.5917C9.93498 16.5917 11.3457 16.2219 12.6063 15.4723C12.7364 15.4023 12.8464 15.3123 12.9665 15.2324L17.1486 19.3903C17.5588 19.8001 18.009 20 18.5093 20C18.9395 20 19.2997 19.8501 19.5898 19.5502C19.8799 19.2504 20.02 18.8606 20.02 18.4008C20.02 18.2009 19.97 18.001 19.8799 17.8011L19.8699 17.7911ZM8.39421 13.953C7.34368 13.953 6.3832 13.6932 5.52277 13.1834C4.66234 12.6737 3.972 11.994 3.45174 11.1344C2.93148 10.2849 2.67135 9.33533 2.67135 8.30585C2.67135 7.27636 2.93148 6.32684 3.45174 5.47726C3.972 4.62769 4.66234 3.93803 5.52277 3.41829C6.3832 2.89855 7.34368 2.64868 8.39421 2.64868C9.44473 2.64868 10.3752 2.90855 11.2356 3.41829C12.0961 3.93803 12.7864 4.61769 13.3067 5.47726C13.8169 6.32684 14.077 7.27636 14.077 8.30585C14.077 9.33533 13.8169 10.2849 13.3067 11.1344C12.7964 11.984 12.1061 12.6737 11.2456 13.1834C10.3852 13.6932 9.44473 13.953 8.39421 13.953Z" fill="#6D75F4"/>
</g>
<defs>
<clipPath id="clip0_7702_138659">
<rect width="20" height="20" fill="white"/>
</clipPath>
</defs>
</svg>
