<svg width="33" height="33" viewBox="0 0 33 33" fill="none" xmlns="http://www.w3.org/2000/svg">
<path fill-rule="evenodd" clip-rule="evenodd" d="M16 3.5C16.8284 3.5 17.5 4.17157 17.5 5V16.8787L19.9393 14.4393C20.5251 13.8536 21.4749 13.8536 22.0607 14.4393C22.6464 15.0251 22.6464 15.9749 22.0607 16.5607L17.0607 21.5607C16.4749 22.1464 15.5251 22.1464 14.9393 21.5607L9.93934 16.5607C9.35355 15.9749 9.35355 15.0251 9.93934 14.4393C10.5251 13.8536 11.4749 13.8536 12.0607 14.4393L14.5 16.8787V5C14.5 4.17157 15.1716 3.5 16 3.5ZM5 17C5.82843 17 6.5 17.6716 6.5 18.5V26H25.5V18.5C25.5 17.6716 26.1716 17 27 17C27.8284 17 28.5 17.6716 28.5 18.5V26.5C28.5 27.8807 27.3807 29 26 29H6C4.61929 29 3.5 27.8807 3.5 26.5V18.5C3.5 17.6716 4.17157 17 5 17Z" fill="#6D75F4"/>
</svg>
