<svg width="24" height="24" viewBox="0 0 24 24" fill="none" xmlns="http://www.w3.org/2000/svg">
<path d="M11.9999 15.0332C13.4357 15.0332 14.5997 13.8692 14.5997 12.4333C14.5997 10.9975 13.4357 9.8335 11.9999 9.8335C10.564 9.8335 9.40002 10.9975 9.40002 12.4333C9.40002 13.8692 10.564 15.0332 11.9999 15.0332Z" stroke="#BCBED5" stroke-width="2.16653" stroke-linecap="round" stroke-linejoin="round"/>
<path d="M8.53355 7.23361C9.96941 7.23361 11.1334 6.06962 11.1334 4.63377C11.1334 3.19792 9.96941 2.03394 8.53355 2.03394C7.0977 2.03394 5.93372 3.19792 5.93372 4.63377C5.93372 6.06962 7.0977 7.23361 8.53355 7.23361Z" stroke="#BCBED5" stroke-width="2.16653" stroke-linecap="round" stroke-linejoin="round"/>
<path d="M19.7997 12C21.2355 12 22.3995 10.836 22.3995 9.40013C22.3995 7.96428 21.2355 6.80029 19.7997 6.80029C18.3638 6.80029 17.1998 7.96428 17.1998 9.40013C17.1998 10.836 18.3638 12 19.7997 12Z" stroke="#BCBED5" stroke-width="2.16653" stroke-linecap="round" stroke-linejoin="round"/>
<path d="M19.7997 21.5327C21.2355 21.5327 22.3995 20.3687 22.3995 18.9328C22.3995 17.497 21.2355 16.333 19.7997 16.333C18.3638 16.333 17.1998 17.497 17.1998 18.9328C17.1998 20.3687 18.3638 21.5327 19.7997 21.5327Z" stroke="#BCBED5" stroke-width="2.16653" stroke-linecap="round" stroke-linejoin="round"/>
<path d="M4.20055 21.966C5.6364 21.966 6.80038 20.802 6.80038 19.3662C6.80038 17.9303 5.6364 16.7664 4.20055 16.7664C2.7647 16.7664 1.60071 17.9303 1.60071 19.3662C1.60071 20.802 2.7647 21.966 4.20055 21.966Z" stroke="#BCBED5" stroke-width="2.16653" stroke-linecap="round" stroke-linejoin="round"/>
<path d="M10.9498 10.061L9.58484 7.00623" stroke="#BCBED5" stroke-width="2.16653" stroke-linecap="round" stroke-linejoin="round"/>
<path d="M10.0607 14.1558L6.13928 17.6439" stroke="#BCBED5" stroke-width="2.16653" stroke-linecap="round" stroke-linejoin="round"/>
<path d="M17.3729 10.3425L14.4264 11.4908" stroke="#BCBED5" stroke-width="2.16653" stroke-linecap="round" stroke-linejoin="round"/>
<path d="M17.8064 17.2647L13.9933 14.1016" stroke="#BCBED5" stroke-width="2.16653" stroke-linecap="round" stroke-linejoin="round"/>
</svg>
