<svg width="24" height="24" viewBox="0 0 24 24" fill="none" xmlns="http://www.w3.org/2000/svg">
<g clip-path="url(#clip0_9091_273643)">
<path fill-rule="evenodd" clip-rule="evenodd" d="M4.36364 0C1.95367 0 0 1.95367 0 4.36364V19.6364C0 22.0463 1.95367 24 4.36364 24H19.6364C22.0463 24 24 22.0463 24 19.6364V4.36364C24 1.95367 22.0463 0 19.6364 0H4.36364ZM6.85898 6.72857C7.14311 6.43674 7.14269 5.96403 6.85803 5.67273C6.57337 5.38144 6.11227 5.38187 5.82814 5.6737C5.0336 6.48976 4.39918 7.45452 3.95928 8.51568L3.95829 8.51809C3.50581 9.62033 3.27273 10.8041 3.27273 12C3.27273 13.1959 3.50581 14.3797 3.95828 15.4819L3.95928 15.4843C4.39918 16.5455 5.0336 17.5102 5.82814 18.3263C6.11227 18.6181 6.57337 18.6186 6.85803 18.3273C7.14269 18.036 7.14311 17.5633 6.85898 17.2714C6.19637 16.5909 5.66723 15.7864 5.30023 14.9015C4.92335 13.9829 4.72921 12.9965 4.72921 12C4.72921 11.0035 4.92335 10.0171 5.30023 9.09853C5.66723 8.21364 6.19637 7.40912 6.85898 6.72857ZM8.77652 8.6958C9.00416 8.46267 9.00436 8.0845 8.77697 7.85112C8.54958 7.61775 8.1807 7.61754 7.95306 7.85066C7.43065 8.38563 7.01469 9.01963 6.72832 9.71736C6.42926 10.4393 6.27512 11.2157 6.27512 12C6.27512 12.7844 6.42926 13.5607 6.72833 14.2827C7.0147 14.9804 7.43066 15.6144 7.95306 16.1494C8.1807 16.3825 8.54958 16.3823 8.77697 16.1489C9.00436 15.9155 9.00416 15.5374 8.77652 15.3042C8.36077 14.8785 8.02978 14.3739 7.80198 13.8186L7.80114 13.8166C7.56303 13.242 7.44031 12.6242 7.44031 12C7.44031 11.3758 7.56304 10.758 7.80114 10.1835L7.80198 10.1815C8.02978 9.62614 8.36077 9.12154 8.77652 8.6958ZM14.2853 12C14.2853 13.294 13.262 14.343 11.9999 14.343C10.7377 14.343 9.71446 13.294 9.71446 12C9.71446 10.706 10.7377 9.65704 11.9999 9.65704C13.262 9.65704 14.2853 10.706 14.2853 12ZM15.2228 7.85112C15.4502 7.61775 15.819 7.61754 16.0467 7.85066C16.5691 8.38564 16.9851 9.01964 17.2714 9.71737C17.5705 10.4393 17.7246 11.2157 17.7246 12C17.7246 12.7844 17.5705 13.5607 17.2714 14.2827C16.9851 14.9804 16.5691 15.6144 16.0467 16.1494C15.819 16.3825 15.4502 16.3823 15.2228 16.1489C14.9954 15.9155 14.9956 15.5374 15.2232 15.3042C15.639 14.8785 15.97 14.3739 16.1978 13.8186L16.1986 13.8166C16.4367 13.242 16.5594 12.6242 16.5594 12C16.5594 11.3758 16.4367 10.758 16.1986 10.1835L16.1978 10.1815C15.97 9.62614 15.639 9.12154 15.2232 8.6958C14.9956 8.46267 14.9954 8.0845 15.2228 7.85112ZM17.142 5.67273C17.4266 5.38144 17.8877 5.38187 18.1719 5.6737C18.9664 6.48976 19.6008 7.45452 20.0407 8.51568L20.0417 8.51809C20.4942 9.62032 20.7273 10.8041 20.7273 12C20.7273 13.1959 20.4942 14.3797 20.0417 15.4819L20.0407 15.4843C19.6008 16.5455 18.9664 17.5102 18.1719 18.3263C17.8877 18.6181 17.4266 18.6186 17.142 18.3273C16.8573 18.036 16.8569 17.5633 17.141 17.2714C17.8036 16.5909 18.3328 15.7864 18.6998 14.9015C19.0766 13.983 19.2708 12.9965 19.2708 12C19.2708 11.0035 19.0766 10.017 18.6998 9.0985C18.3328 8.21362 17.8036 7.40911 17.141 6.72857C16.8569 6.43674 16.8573 5.96403 17.142 5.67273Z" fill="url(#paint0_linear_9091_273643)"/>
</g>
<defs>
<linearGradient id="paint0_linear_9091_273643" x1="12" y1="0" x2="12" y2="24" gradientUnits="userSpaceOnUse">
<stop offset="0.015625" stop-color="#767CE0" stop-opacity="0.45"/>
<stop offset="1" stop-color="#8280EC" stop-opacity="0.75"/>
</linearGradient>
<clipPath id="clip0_9091_273643">
<rect width="24" height="24" fill="white"/>
</clipPath>
</defs>
</svg>
