<svg width="22" height="22" viewBox="0 0 22 22" fill="none" xmlns="http://www.w3.org/2000/svg">
<g clip-path="url(#clip0_8524_247366)">
<path fill-rule="evenodd" clip-rule="evenodd" d="M4 0C1.79086 0 0 1.79086 0 4V18C0 20.2091 1.79086 22 4 22H18C20.2091 22 22 20.2091 22 18V4C22 1.79086 20.2091 0 18 0H4ZM6.2874 6.16786C6.54785 5.90035 6.54746 5.46702 6.28653 5.2C6.02559 4.93298 5.60292 4.93338 5.34246 5.20089C4.61414 5.94894 4.03258 6.83331 3.62934 7.80604L3.62843 7.80825C3.21366 8.81863 3 9.90379 3 11C3 12.0962 3.21366 13.1814 3.62843 14.1917L3.62934 14.194C4.03258 15.1667 4.61414 16.0511 5.34246 16.7991C5.60292 17.0666 6.02559 17.067 6.28653 16.8C6.54746 16.533 6.54785 16.0997 6.2874 15.8321C5.68001 15.2083 5.19496 14.4708 4.85854 13.6597C4.51307 12.8177 4.33511 11.9135 4.33511 11C4.33511 10.0865 4.51307 9.1823 4.85854 8.34032C5.19496 7.52917 5.68001 6.7917 6.2874 6.16786ZM8.04514 7.97115C8.25381 7.75745 8.254 7.41079 8.04556 7.19686C7.83711 6.98293 7.49897 6.98274 7.2903 7.19644C6.81143 7.68683 6.43013 8.268 6.16763 8.90758C5.89348 9.56938 5.7522 10.281 5.7522 11C5.7522 11.719 5.89349 12.4307 6.16764 13.0925C6.43014 13.7321 6.81144 14.3132 7.2903 14.8036C7.49897 15.0173 7.83711 15.0171 8.04556 14.8032C8.254 14.5892 8.25381 14.2426 8.04514 14.0289C7.66404 13.6386 7.36063 13.1761 7.15181 12.667L7.15104 12.6652C6.93278 12.1385 6.82029 11.5722 6.82029 11C6.82029 10.4278 6.93278 9.8615 7.15105 9.33487L7.15181 9.333C7.36063 8.82396 7.66404 8.36141 8.04514 7.97115ZM13.0948 11C13.0948 12.1862 12.1569 13.1477 10.9999 13.1477C9.84286 13.1477 8.90492 12.1862 8.90492 11C8.90492 9.81386 9.84286 8.85229 10.9999 8.85229C12.1569 8.85229 13.0948 9.81386 13.0948 11ZM13.9542 7.19686C14.1627 6.98293 14.5008 6.98274 14.7095 7.19644C15.1883 7.68683 15.5696 8.268 15.8321 8.90759C16.1063 9.56938 16.2476 10.281 16.2476 11C16.2476 11.719 16.1063 12.4307 15.8321 13.0925C15.5696 13.732 15.1883 14.3132 14.7095 14.8036C14.5008 15.0173 14.1627 15.0171 13.9542 14.8032C13.7458 14.5892 13.746 14.2426 13.9546 14.0289C14.3357 13.6386 14.6391 13.1761 14.848 12.667L14.8487 12.6652C15.067 12.1385 15.1795 11.5722 15.1795 11C15.1795 10.4278 15.067 9.8615 14.8487 9.33486L14.848 9.33301C14.6391 8.82396 14.3357 8.36141 13.9546 7.97115C13.746 7.75745 13.7458 7.41079 13.9542 7.19686ZM15.7135 5.2C15.9744 4.93298 16.3971 4.93338 16.6575 5.20089C17.3859 5.94894 17.9674 6.83331 18.3707 7.80604L18.3716 7.80825C18.7863 8.81863 19 9.90379 19 11C19 12.0962 18.7863 13.1814 18.3716 14.1917L18.3707 14.194C17.9674 15.1667 17.3859 16.0511 16.6575 16.7991C16.3971 17.0666 15.9744 17.067 15.7135 16.8C15.4525 16.533 15.4521 16.0997 15.7126 15.8321C16.32 15.2083 16.805 14.4708 17.1414 13.6597C17.4869 12.8177 17.6649 11.9135 17.6649 11C17.6649 10.0865 17.4869 9.18228 17.1414 8.34029C16.805 7.52915 16.32 6.79169 15.7126 6.16786C15.4521 5.90035 15.4525 5.46702 15.7135 5.2Z" fill="url(#paint0_linear_8524_247366)"/>
</g>
<defs>
<linearGradient id="paint0_linear_8524_247366" x1="11" y1="0" x2="11" y2="22" gradientUnits="userSpaceOnUse">
<stop offset="0.015625" stop-color="#767CE0" stop-opacity="0.45"/>
<stop offset="1" stop-color="#8280EC" stop-opacity="0.75"/>
</linearGradient>
<clipPath id="clip0_8524_247366">
<rect width="22" height="22" fill="white"/>
</clipPath>
</defs>
</svg>
