<svg width="36" height="36" viewBox="0 0 36 36" fill="none" xmlns="http://www.w3.org/2000/svg">
<path d="M35.25 18C35.25 27.5269 27.5269 35.25 18 35.25C8.47309 35.25 0.75 27.5269 0.75 18C0.75 8.47309 8.47309 0.75 18 0.75C27.5269 0.75 35.25 8.47309 35.25 18Z" stroke="#6D75F4" stroke-width="1.5"/>
<path fill-rule="evenodd" clip-rule="evenodd" d="M16.5655 8.3388C16.8598 8.63371 16.9723 9.06438 16.8598 9.46556C16.4838 10.8067 16.4714 12.2239 16.8241 13.5714C17.1768 14.9189 17.8819 16.1483 18.8668 17.1332C19.8517 18.1181 21.0811 18.8232 22.4286 19.1759C23.7761 19.5286 25.1933 19.5162 26.5344 19.1402C26.9356 19.0277 27.3663 19.1402 27.6612 19.4345C27.9561 19.7288 28.0694 20.1593 27.9577 20.5607C27.4815 22.2716 26.5653 23.828 25.3004 25.0747C24.0355 26.3213 22.4661 27.2149 20.7484 27.6662C19.0307 28.1176 17.2247 28.1111 15.5104 27.6473C13.796 27.1834 12.2331 26.2786 10.9773 25.0227C9.72143 23.7669 8.81656 22.204 8.35275 20.4896C7.88894 18.7753 7.8824 16.9693 8.33376 15.2516C8.78513 13.5339 9.67866 11.9645 10.9253 10.6996C12.172 9.43469 13.7284 8.51851 15.4393 8.04229C15.8407 7.93056 16.2712 8.0439 16.5655 8.3388ZM14.2769 11.0074C13.6527 11.3629 13.0776 11.8037 12.5691 12.3197C11.6054 13.2974 10.9148 14.5105 10.5659 15.8382C10.217 17.1658 10.2221 18.5618 10.5806 19.8869C10.9391 21.212 11.6385 22.4201 12.6092 23.3908C13.5799 24.3615 14.788 25.0609 16.1131 25.4194C17.4382 25.7779 18.8341 25.783 20.1618 25.4341C21.4895 25.0852 22.7026 24.3946 23.6803 23.4309C24.1963 22.9224 24.6371 22.3473 24.9926 21.7231C23.9376 21.7832 22.8752 21.6784 21.8442 21.4086C20.1004 20.9521 18.5095 20.0398 17.2349 18.7651C15.9602 17.4905 15.0479 15.8996 14.5914 14.1558C14.3216 13.1248 14.2168 12.0624 14.2769 11.0074Z" fill="#6D75F4"/>
</svg>
