<svg width="24" height="24" viewBox="0 0 24 24" fill="none" xmlns="http://www.w3.org/2000/svg">
<g clip-path="url(#clip0_16115_54890)">
<path d="M0.646628 9.88962C-0.200513 9.88962 -0.414979 10.533 0.046123 11.1657L2.66261 14.7902C3.0272 15.2942 3.58481 15.2834 3.93868 14.7902L6.55517 11.155C7.00554 10.5437 6.8018 9.88962 5.96538 9.88962H4.41051C5.38633 6.03995 8.84995 3.21972 13.0213 3.21972C17.9433 3.21972 21.8895 7.1659 21.8895 12.0879C21.8895 17.0099 17.9433 20.9775 13.0213 20.9668C10.1582 20.9561 7.64894 19.6156 6.04045 17.5032C5.60079 16.9992 4.95739 16.8383 4.43195 17.2244C3.93868 17.5782 3.84217 18.2752 4.32472 18.865C6.29781 21.4386 9.55769 23.1758 13.0213 23.1758C19.0907 23.1758 24.1092 18.1573 24.1092 12.0879C24.1092 6.0185 19.0907 1 13.0213 1C7.69183 1 3.17733 4.84966 2.14789 9.88962H0.646628ZM12.6246 5.8791C12.0991 5.8791 11.6809 6.29731 11.6809 6.81203V12.6241C11.6809 12.8814 11.7667 13.1173 11.949 13.364L14.5011 16.7311C14.8872 17.2351 15.4448 17.3209 15.9059 16.9884C16.3455 16.6775 16.3884 16.1091 16.0453 15.648L13.5575 12.3024V6.81203C13.5575 6.29731 13.1393 5.8791 12.6246 5.8791Z" fill="#6D75F4"/>
</g>
<defs>
<clipPath id="clip0_16115_54890">
<rect width="24" height="24" fill="white"/>
</clipPath>
</defs>
</svg>
