<svg width="24" height="24" viewBox="0 0 24 24" fill="none" xmlns="http://www.w3.org/2000/svg">
<g clip-path="url(#clip0_7943_169168)">
<path fill-rule="evenodd" clip-rule="evenodd" d="M5.75778 4.66697C5.75778 3.87996 6.40257 3.24197 7.19796 3.24197H22.5598C23.3552 3.24197 24 3.87996 24 4.66697C24 5.45397 23.3552 6.09197 22.5598 6.09197H7.19796C6.40257 6.09197 5.75778 5.45397 5.75778 4.66697Z" fill="#6D75F4"/>
<path fill-rule="evenodd" clip-rule="evenodd" d="M5.75778 12.267C5.75778 11.48 6.40257 10.842 7.19796 10.842H22.5598C23.3552 10.842 24 11.48 24 12.267C24 13.054 23.3552 13.692 22.5598 13.692H7.19796C6.40257 13.692 5.75778 13.054 5.75778 12.267Z" fill="#6D75F4"/>
<path fill-rule="evenodd" clip-rule="evenodd" d="M5.75778 19.867C5.75778 19.08 6.40257 18.442 7.19796 18.442H22.5598C23.3552 18.442 24 19.08 24 19.867C24 20.654 23.3552 21.292 22.5598 21.292H7.19796C6.40257 21.292 5.75778 20.654 5.75778 19.867Z" fill="#6D75F4"/>
<path d="M1.91731 14.167C2.97782 14.167 3.83754 13.3163 3.83754 12.267C3.83754 11.2176 2.97782 10.367 1.91731 10.367C0.856789 10.367 -0.00292969 11.2176 -0.00292969 12.267C-0.00292969 13.3163 0.856789 14.167 1.91731 14.167Z" fill="#6D75F4"/>
<path d="M1.91731 6.56697C2.97782 6.56697 3.83754 5.71631 3.83754 4.66697C3.83754 3.61763 2.97782 2.76697 1.91731 2.76697C0.856789 2.76697 -0.00292969 3.61763 -0.00292969 4.66697C-0.00292969 5.71631 0.856789 6.56697 1.91731 6.56697Z" fill="#6D75F4"/>
<path d="M1.91731 21.767C2.97782 21.767 3.83754 20.9163 3.83754 19.867C3.83754 18.8176 2.97782 17.967 1.91731 17.967C0.856789 17.967 -0.00292969 18.8176 -0.00292969 19.867C-0.00292969 20.9163 0.856789 21.767 1.91731 21.767Z" fill="#6D75F4"/>
</g>
<defs>
<clipPath id="clip0_7943_169168">
<rect width="24" height="24" fill="white"/>
</clipPath>
</defs>
</svg>
