<svg width="24" height="20" viewBox="0 0 24 20" fill="none" xmlns="http://www.w3.org/2000/svg">
<g clip-path="url(#clip0_8601_222523)">
<path fill-rule="evenodd" clip-rule="evenodd" d="M2 9.25721V2.92714C2.00329 2.1518 2.32042 1.40914 2.88232 0.860887C3.44421 0.312636 4.20536 0.00321055 5 0H19C19.2652 0 19.5196 0.102798 19.7071 0.28578C19.8946 0.468762 20 0.716938 20 0.975713C20 1.23449 19.8946 1.48267 19.7071 1.66565C19.5196 1.84863 19.2652 1.95143 19 1.95143H5C4.73478 1.95143 4.48043 2.05423 4.29289 2.23721C4.10536 2.42019 4 2.66837 4 2.92714C4 3.18592 4.10536 3.43409 4.29289 3.61707C4.48043 3.80006 4.73478 3.90285 5 3.90285H22C22.5304 3.90285 23.0391 4.10845 23.4142 4.47441C23.7893 4.84038 24 5.33673 24 5.85428V17.5628C24 18.0804 23.7893 18.5767 23.4142 18.9427C23.0391 19.3087 22.5304 19.5143 22 19.5143H9.5463C10.0054 19.075 10.4012 18.5695 10.7171 18.0143H22C22.1443 18.0143 22.2756 17.958 22.3667 17.8691C22.4565 17.7814 22.5 17.6705 22.5 17.5628V5.85428C22.5 5.74662 22.4565 5.63569 22.3667 5.54803C22.2756 5.45915 22.1443 5.40285 22 5.40285H5C4.45982 5.40285 3.93304 5.22944 3.5 4.9078V8.64938C2.9711 8.78864 2.46789 8.99451 2 9.25721Z" fill="#6D75F4"/>
<path d="M18.5 13.6665C18.1031 13.6665 17.7151 13.5517 17.3851 13.3366C17.0551 13.1214 16.7979 12.8156 16.646 12.4578C16.4942 12.1001 16.4544 11.7064 16.5318 11.3266C16.6093 10.9468 16.8004 10.5979 17.081 10.3241C17.3617 10.0502 17.7192 9.86375 18.1085 9.7882C18.4978 9.71265 18.9013 9.75143 19.2679 9.89962C19.6346 10.0478 19.948 10.2988 20.1685 10.6208C20.389 10.9428 20.5067 11.3213 20.5067 11.7086C20.5067 12.2278 20.2953 12.7259 19.919 13.0931C19.5426 13.4602 19.0322 13.6665 18.5 13.6665Z" fill="#6D75F4"/>
<path d="M5.11362 20C7.89925 20 10.2372 17.6807 10.2372 14.8736C10.2372 12.0665 7.92909 9.75714 5.11362 9.75714C2.30809 9.75714 0 12.0765 0 14.8736C0 17.6906 2.30809 20 5.11362 20ZM5.11362 18.1286C4.70572 18.1286 4.43711 17.8499 4.43711 17.4517V15.5604H2.55681C2.14891 15.5604 1.8803 15.2917 1.8803 14.8836C1.87035 14.4655 2.14891 14.2067 2.55681 14.2067H4.43711V12.3154C4.43711 11.9172 4.70572 11.6385 5.11362 11.6385C5.53146 11.6385 5.80008 11.9072 5.80008 12.3154V14.2067H7.68038C8.08827 14.2067 8.35689 14.4655 8.35689 14.8836C8.35689 15.2917 8.08827 15.5604 7.68038 15.5604H5.80008V17.4517C5.80008 17.8499 5.53146 18.1286 5.11362 18.1286Z" fill="#6D75F4"/>
</g>
<defs>
<clipPath id="clip0_8601_222523">
<rect width="24" height="20" fill="white"/>
</clipPath>
</defs>
</svg>
