<svg width="24" height="24" viewBox="0 0 24 24" fill="none" xmlns="http://www.w3.org/2000/svg">
<path d="M12.0001 12C17.2649 12 21.5329 9.67203 21.5329 6.80032C21.5329 3.92862 17.2649 1.60065 12.0001 1.60065C6.73536 1.60065 2.46741 3.92862 2.46741 6.80032C2.46741 9.67203 6.73536 12 12.0001 12Z" stroke="#BCBED5" stroke-width="2.16653" stroke-linecap="round" stroke-linejoin="round"/>
<path d="M2.46741 6.80029V12C2.46741 14.8706 6.73548 17.1996 12.0001 17.1996C17.2648 17.1996 21.5329 14.8706 21.5329 12V6.80029" stroke="#BCBED5" stroke-width="2.16653" stroke-linecap="round" stroke-linejoin="round"/>
<path d="M2.46741 12V17.1997C2.46741 20.0703 6.73548 22.3994 12.0001 22.3994C17.2648 22.3994 21.5329 20.0703 21.5329 17.1997V12" stroke="#BCBED5" stroke-width="2.16653" stroke-linecap="round" stroke-linejoin="round"/>
</svg>
