<svg width="24" height="24" viewBox="0 0 24 24" fill="none" xmlns="http://www.w3.org/2000/svg">
<g clip-path="url(#clip0_14107_40828)">
<path d="M5.11383 8.83851C5.47574 11.0421 7.04868 12.2849 9.83268 12.5668L14.4872 12.8877C16.3069 13.0816 17.3167 13.7872 17.5167 15.0045L17.6305 15.6976L19.6026 15.3737L19.4888 14.6806C19.1269 12.477 17.5547 11.2387 14.7721 10.9657L10.1154 10.6314C8.28956 10.4568 7.27521 9.75194 7.07236 8.51685L6.95853 7.82378L5 8.14545L5.11383 8.83851Z" fill="#6D75F4"/>
<path d="M18.9813 14.7871C18.1092 14.7508 17.3122 14.9257 16.59 15.3119C15.8679 15.6981 15.2805 16.2277 14.8276 16.9007C14.3748 17.5737 14.1305 18.3374 14.0949 19.192C14.0603 20.0231 14.2405 20.7958 14.6356 21.51C15.0306 22.2242 15.572 22.8008 16.2597 23.2399C16.9474 23.679 17.7273 23.9167 18.5993 23.953C19.4475 23.9883 20.2355 23.816 20.9633 23.4359C21.6911 23.0558 22.2786 22.5262 22.7257 21.8471C23.1729 21.168 23.4137 20.4129 23.4484 19.5817C23.484 18.7272 23.3071 17.9459 22.9178 17.2378C22.5285 16.5297 21.9871 15.9531 21.2936 15.5079C20.6002 15.0627 19.8294 14.8224 18.9813 14.7871Z" fill="#6D75F4"/>
<path d="M4.65884 9.36001C5.53087 9.39635 6.32782 9.22435 7.04968 8.844C7.77155 8.46365 8.35902 7.93406 8.81212 7.25521C9.26521 6.57636 9.50931 5.81553 9.54443 4.97268C9.57955 4.12983 9.39947 3.35426 9.00417 2.64592C8.60888 1.93759 8.0675 1.36096 7.38002 0.916024C6.69254 0.471087 5.91279 0.230454 5.04076 0.194119C4.19261 0.158779 3.40451 0.334084 2.67643 0.720038C1.94834 1.10599 1.36087 1.63558 0.91399 2.30883C0.467113 2.98207 0.226118 3.7401 0.190999 4.58295C0.15588 5.42579 0.332857 6.20417 0.721934 6.91811C1.11101 7.63205 1.65239 8.20868 2.34609 8.64801C3.03979 9.08734 3.81069 9.32468 4.65884 9.36001ZM4.76127 6.90173C4.16398 6.87684 3.66496 6.64791 3.26417 6.21491C2.86339 5.78192 2.67519 5.27278 2.69958 4.68747C2.72446 4.09046 2.95436 3.59874 3.38928 3.21229C3.82421 2.82585 4.34031 2.64508 4.93759 2.66996C5.55877 2.69585 6.067 2.9193 6.4623 3.34034C6.8576 3.76137 7.04281 4.27039 7.01793 4.86741C6.99354 5.45272 6.76663 5.94456 6.33719 6.34296C5.90775 6.74136 5.38244 6.92761 4.76127 6.90173Z" fill="#6D75F4"/>
</g>
<defs>
<clipPath id="clip0_14107_40828">
<rect width="24" height="24" fill="white"/>
</clipPath>
</defs>
</svg>
