<svg width="24" height="16" viewBox="0 0 24 16" fill="none" xmlns="http://www.w3.org/2000/svg">
<path fill-rule="evenodd" clip-rule="evenodd" d="M2.76444 3.7806C4.62201 1.88495 7.59521 0 12 0C16.4048 0 19.378 1.88495 21.2356 3.7806C22.1579 4.72186 22.8031 5.66229 23.2195 6.37049C23.4281 6.72534 23.5807 7.02418 23.6829 7.23894C23.734 7.3464 23.7727 7.43305 23.7996 7.49541C23.813 7.52661 23.8235 7.55175 23.8312 7.57041L23.8406 7.5935L23.8437 7.60131L23.8449 7.60426L23.8454 7.6055C23.8456 7.60605 23.8458 7.60657 22.882 8C23.8458 8.39343 23.8456 8.39395 23.8454 8.39451L23.8449 8.39574L23.8437 8.39869L23.8406 8.4065L23.8312 8.42959C23.8235 8.44825 23.813 8.47339 23.7996 8.50459C23.7727 8.56695 23.734 8.6536 23.6829 8.76106C23.5807 8.97582 23.4281 9.27466 23.2195 9.62951C22.8031 10.3377 22.1579 11.2781 21.2356 12.2194C19.378 14.1151 16.4048 16 12 16C7.59521 16 4.62201 14.1151 2.76444 12.2194C1.84209 11.2781 1.19688 10.3377 0.780497 9.62951C0.571868 9.27466 0.419336 8.97582 0.317119 8.76106C0.265973 8.6536 0.227309 8.56695 0.200418 8.50459C0.18697 8.47339 0.176455 8.44825 0.168786 8.42959L0.159401 8.4065L0.156286 8.39869L0.155119 8.39574L0.154633 8.39451C0.154416 8.39395 0.154211 8.39343 1.11803 8C0.154211 7.60657 0.154416 7.60605 0.154633 7.6055L0.155119 7.60426L0.156286 7.60131L0.159401 7.5935L0.168786 7.57041C0.176455 7.55175 0.18697 7.52661 0.200418 7.49541C0.227309 7.43305 0.265973 7.3464 0.317119 7.23894C0.419336 7.02418 0.571868 6.72534 0.780497 6.37049C1.19688 5.66229 1.84209 4.72186 2.76444 3.7806ZM1.11803 8L0.154211 7.60657L0 8L0.154211 8.39343L1.11803 8ZM2.26543 8C2.33996 7.85253 2.43783 7.66964 2.56076 7.46055C2.90951 6.86738 3.45452 6.07265 4.23248 5.27874C5.77552 3.70407 8.24331 2.11869 12 2.11869C15.7567 2.11869 18.2245 3.70407 19.7675 5.27874C20.5455 6.07265 21.0905 6.86738 21.4392 7.46055C21.5622 7.66964 21.66 7.85253 21.7346 8C21.66 8.14746 21.5622 8.33036 21.4392 8.53945C21.0905 9.13262 20.5455 9.92735 19.7675 10.7213C18.2245 12.2959 15.7567 13.8813 12 13.8813C8.24331 13.8813 5.77552 12.2959 4.23248 10.7213C3.45452 9.92735 2.90951 9.13262 2.56076 8.53945C2.43783 8.33036 2.33996 8.14746 2.26543 8ZM22.882 8L23.8458 8.39343L24 8L23.8458 7.60657L22.882 8Z" fill="#6D75F4"/>
<path d="M12 7.99997V3.83558C9.74202 3.83558 7.91929 5.69567 7.91929 7.99997C7.91929 10.3043 9.74202 12.1644 12 12.1644C14.258 12.1644 16.0808 10.3043 16.0808 7.99997C16.0808 6.84782 15.6183 5.80673 14.8838 5.05713L12 7.99997Z" fill="#6D75F4"/>
</svg>
