<svg width="18" height="20" viewBox="0 0 18 20" fill="none" xmlns="http://www.w3.org/2000/svg">
<g clip-path="url(#clip0_7702_151615)">
<path fill-rule="evenodd" clip-rule="evenodd" d="M6.61732 0.0692268C6.99099 -0.0714828 7.42111 0.00629494 7.70711 0.266292L17.7071 9.35718C18.0976 9.7122 18.0976 10.2878 17.7071 10.6428L7.70711 19.7337C7.42111 19.9937 6.99099 20.0715 6.61732 19.9308C6.24364 19.7901 6 19.4586 6 19.0909V15.4545H1.83333C1.3471 15.4545 0.880787 15.2789 0.536971 14.9664C0.193154 14.6538 0 14.2299 0 13.7879V6.21213C0 5.7701 0.193155 5.34618 0.536971 5.03362C0.880787 4.72106 1.3471 4.54547 1.83333 4.54547H6V0.909115C6 0.541423 6.24364 0.209936 6.61732 0.0692268ZM8 3.10385V5.45456C8 5.95663 7.55228 6.36365 7 6.36365H2V13.6364H7C7.55228 13.6364 8 14.0434 8 14.5454V16.8962L15.5858 10L8 3.10385Z" fill="#6D75F4"/>
</g>
<defs>
<clipPath id="clip0_7702_151615">
<rect width="18" height="20" fill="white" transform="matrix(1 0 0 -1 0 20)"/>
</clipPath>
</defs>
</svg>
