<svg width="24" height="24" viewBox="0 0 24 24" fill="none" xmlns="http://www.w3.org/2000/svg">
<path d="M14.3683 24C14.7485 24 15.0733 23.8548 15.3426 23.5644C15.6119 23.2739 15.8416 22.8805 16.0317 22.3842L23.7307 2.26535C23.8152 2.04356 23.8812 1.83234 23.9287 1.63168C23.9762 1.43102 24 1.24092 24 1.06139C24 0.733992 23.905 0.475249 23.7149 0.285149C23.5248 0.0950485 23.2607 0 22.9228 0C22.7432 0 22.5558 0.0237619 22.3604 0.0712866C22.165 0.118812 21.9512 0.184818 21.7188 0.269307L1.53663 7.98416C1.09307 8.15314 0.726074 8.37228 0.435644 8.64159C0.145213 8.91089 0 9.23564 0 9.61584C0 10.0805 0.158414 10.4238 0.475248 10.6455C0.792081 10.8673 1.20924 11.0574 1.72673 11.2158L8.41188 13.2277C8.73928 13.3333 9.0165 13.3729 9.24357 13.3465C9.47063 13.3201 9.68977 13.2066 9.90099 13.0059L22.4792 1.12475C22.5954 1.00858 22.7274 1.0033 22.8752 1.10891C22.9492 1.16172 22.9809 1.22772 22.9703 1.30693C22.9597 1.38614 22.9228 1.45743 22.8594 1.52079L11.0257 14.1465C10.6878 14.5056 10.598 14.9967 10.7564 15.6198L12.7525 22.1624C12.932 22.701 13.1274 23.1419 13.3386 23.4851C13.5498 23.8284 13.8931 24 14.3683 24Z" fill="#6D75F4"/>
</svg>
