<svg width="36" height="28" viewBox="0 0 36 28" fill="none" xmlns="http://www.w3.org/2000/svg">
<path d="M32.2349 10.7986L23.5898 2.15324C23.0922 1.68956 22.434 1.43714 21.7539 1.44914C21.0739 1.46114 20.425 1.73681 19.9441 2.21776C19.4631 2.6987 19.1877 3.34752 19.1757 4.02757C19.1637 4.70762 19.4161 5.36583 19.8798 5.86345L25.8999 11.8833H2.1499C1.5435 12.0052 0.997962 12.3332 0.606049 12.8117C0.214135 13.2903 0 13.8898 0 14.5083C0 15.1269 0.214135 15.7264 0.606049 16.2049C0.997962 16.6835 1.5435 17.0115 2.1499 17.1333H8.0249H25.8999L20.0898 22.9435C19.6755 23.4516 19.4649 24.0956 19.4989 24.7503C19.5329 25.405 19.809 26.0237 20.2737 26.4862C20.7384 26.9487 21.3584 27.2218 22.0132 27.2527C22.6681 27.2836 23.3111 27.0699 23.8173 26.6532L32.2349 18.2185L33.0573 17.3961L35.9449 14.5083L32.2349 10.7986Z" fill="#5F69F1"/>
</svg>
