<svg width="30" height="30" viewBox="0 0 30 30" fill="none" xmlns="http://www.w3.org/2000/svg">
<path d="M30 5.84083C28.8958 6.32358 27.7097 6.64844 26.4648 6.79497C27.7362 6.04529 28.7112 4.8583 29.1704 3.44299C27.982 4.13702 26.6644 4.64135 25.2613 4.91396C24.1387 3.73605 22.5395 3 20.7696 3C17.3705 3 14.6152 5.71362 14.6152 9.05878C14.6152 9.53358 14.6706 9.99702 14.7744 10.4389C9.65963 10.1867 5.12519 7.7741 2.08838 4.10748C1.55994 5.00256 1.25649 6.04302 1.25649 7.15505C1.25649 9.25642 2.34222 11.1113 3.99331 12.1972C2.98489 12.1654 2.03531 11.8928 1.20572 11.4396C1.20572 11.4657 1.20572 11.4896 1.20572 11.5157C1.20572 14.4519 3.32641 16.9009 6.14284 17.4563C5.62709 17.5949 5.0825 17.6687 4.5206 17.6687C4.12484 17.6687 3.73832 17.6301 3.36333 17.5608C4.14676 19.9678 6.41975 21.7204 9.11273 21.7693C7.00704 23.3947 4.35329 24.3636 1.46879 24.3636C0.972655 24.3636 0.482289 24.3352 0 24.2784C2.72413 25.997 5.95823 27 9.43464 27C20.7557 27 26.9447 17.7676 26.9447 9.76075C26.9447 9.49837 26.939 9.23711 26.9274 8.977C28.1308 8.12168 29.175 7.05509 30 5.84083Z" fill="#1B9DF0"/>
</svg>
