<svg width="30" height="24" viewBox="0 0 30 24" fill="none" xmlns="http://www.w3.org/2000/svg">
<g clip-path="url(#clip0_7795_142886)">
<path d="M30 2.84083C28.8958 3.32358 27.7097 3.64844 26.4648 3.79497C27.7362 3.04529 28.7112 1.8583 29.1704 0.442993C27.982 1.13702 26.6644 1.64135 25.2613 1.91396C24.1387 0.73605 22.5395 0 20.7696 0C17.3705 0 14.6152 2.71362 14.6152 6.05878C14.6152 6.53358 14.6706 6.99702 14.7744 7.43887C9.65963 7.18671 5.12519 4.7741 2.08838 1.10748C1.55994 2.00256 1.25649 3.04302 1.25649 4.15505C1.25649 6.25642 2.34222 8.11132 3.99331 9.19722C2.98489 9.16541 2.03531 8.8928 1.20572 8.43958C1.20572 8.46571 1.20572 8.48956 1.20572 8.51569C1.20572 11.4519 3.32641 13.9009 6.14284 14.4563C5.62709 14.5949 5.0825 14.6687 4.5206 14.6687C4.12484 14.6687 3.73832 14.6301 3.36333 14.5608C4.14676 16.9678 6.41975 18.7204 9.11273 18.7693C7.00704 20.3947 4.35329 21.3636 1.46879 21.3636C0.972655 21.3636 0.482289 21.3352 0 21.2784C2.72413 22.997 5.95823 24 9.43464 24C20.7557 24 26.9447 14.7676 26.9447 6.76075C26.9447 6.49837 26.939 6.23711 26.9274 5.977C28.1308 5.12168 29.175 4.05509 30 2.84083Z" fill="#1B9DF0"/>
</g>
<defs>
<clipPath id="clip0_7795_142886">
<rect width="30" height="24" fill="white"/>
</clipPath>
</defs>
</svg>
