<svg width="36" height="36" viewBox="0 0 36 36" fill="none" xmlns="http://www.w3.org/2000/svg">
<path fill-rule="evenodd" clip-rule="evenodd" d="M17.5 33C26.0604 33 33 26.0604 33 17.5C33 8.93959 26.0604 2 17.5 2C8.93959 2 2 8.93959 2 17.5C2 26.0604 8.93959 33 17.5 33ZM17.5 35C27.165 35 35 27.165 35 17.5C35 7.83502 27.165 0 17.5 0C7.83502 0 0 7.83502 0 17.5C0 27.165 7.83502 35 17.5 35Z" fill="#656DE6"/>
<path fill-rule="evenodd" clip-rule="evenodd" d="M13.5021 9.43934C14.1716 8.85355 15.257 8.85355 15.9265 9.43934L24.4979 16.9393C25.1674 17.5251 25.1674 18.4749 24.4979 19.0607L15.9265 26.5607C15.257 27.1464 14.1716 27.1464 13.5021 26.5607C12.8326 25.9749 12.8326 25.0251 13.5021 24.4393L20.8613 18L13.5021 11.5607C12.8326 10.9749 12.8326 10.0251 13.5021 9.43934Z" fill="#6D75F4"/>
</svg>
