<svg width="33" height="33" viewBox="0 0 33 33" fill="none" xmlns="http://www.w3.org/2000/svg">
<g clip-path="url(#clip0_6919_85989)">
<path d="M6.25875 5.12443H20.2363C22.0395 5.12443 23.5013 6.58621 23.5013 8.3894V19.294C23.5013 19.3392 23.5004 19.3842 23.4986 19.4289V17.2764H20.9379V8.79376C20.9379 8.1927 20.4506 7.70544 19.8495 7.70544H6.64554C6.04448 7.70544 5.55722 8.1927 5.55722 8.79376V19.0447C5.55722 19.6457 6.04447 20.133 6.64554 20.133H17.4512V22.559H6.25875C4.45555 22.559 2.99377 21.0972 2.99377 19.294V8.3894C2.99377 6.58621 4.45555 5.12443 6.25875 5.12443Z" fill="#6D75F4"/>
<path d="M20.0511 22.559H20.2363C21.9115 22.559 23.292 21.2974 23.4796 19.6725H20.7386C20.5785 19.8989 20.3341 20.0614 20.0511 20.1144V22.559Z" fill="#6D75F4"/>
<path fill-rule="evenodd" clip-rule="evenodd" d="M11.7575 10.4027H24.8345L25.7446 10.4053C27.544 10.4106 29.0001 11.8708 29.0001 13.6703V23.4626C29.0001 25.2658 27.5383 26.7276 25.7351 26.7276H11.7575C9.95431 26.7276 8.49253 25.2658 8.49253 23.4626V13.6677C8.49253 11.8645 9.95431 10.4027 11.7575 10.4027ZM23.4985 19.6725L23.4986 17.2764L20.0511 17.2764V13.5057H17.4512V17.2764H13.9942V19.6725H17.4512V23.6247H20.0511V19.6725H23.4985Z" fill="#6D75F4"/>
</g>
<defs>
<clipPath id="clip0_6919_85989">
<rect width="26.0574" height="21.5772" fill="white" transform="translate(2.94263 5.12442)"/>
</clipPath>
</defs>
</svg>
