<svg width="24" height="24" viewBox="0 0 24 24" fill="none" xmlns="http://www.w3.org/2000/svg">
<path d="M1.47894 22.5104C1.79823 22.8436 2.19734 23.0067 2.67627 22.9998C3.15521 22.9928 3.55432 22.8297 3.87361 22.5104L11.9947 14.3685L20.1366 22.5104C20.4559 22.8297 20.8515 22.9928 21.3235 22.9998C21.7955 23.0067 22.1911 22.8436 22.5104 22.5104C22.8436 22.1911 23.0067 21.7955 22.9998 21.3235C22.9928 20.8515 22.8297 20.4559 22.5104 20.1366L14.3685 11.9947L22.5104 3.87361C22.8297 3.54044 22.9928 3.13786 22.9998 2.66586C23.0067 2.19387 22.8436 1.79823 22.5104 1.47894C22.1911 1.15964 21.7955 1 21.3235 1C20.8515 1 20.4559 1.15964 20.1366 1.47894L11.9947 9.62083L3.87361 1.47894C3.55432 1.15964 3.15521 1 2.67627 1C2.19734 1 1.79823 1.15964 1.47894 1.47894C1.15964 1.79823 1 2.19387 1 2.66586C1 3.13786 1.15964 3.54044 1.47894 3.87361L9.62083 11.9947L1.47894 20.1366C1.15964 20.4559 1 20.8515 1 21.3235C1 21.7955 1.15964 22.1911 1.47894 22.5104Z" fill="#6D75F4"/>
</svg>
