<svg width="28" height="28" viewBox="0 0 28 28" fill="none" xmlns="http://www.w3.org/2000/svg">
<path fill-rule="evenodd" clip-rule="evenodd" d="M0.505127 2.66739C0.505127 1.81072 1.19959 1.11625 2.05626 1.11625H8.22672C9.08339 1.11625 9.77785 1.81072 9.77785 2.66739C9.77785 3.52406 9.08339 4.21853 8.22672 4.21853H3.6074V8.83784C3.6074 9.69451 2.91293 10.389 2.05626 10.389C1.19959 10.389 0.505127 9.69451 0.505127 8.83784V2.66739ZM19.1188 2.66739C19.1188 1.81072 19.8132 1.11625 20.6699 1.11625H25.8404C26.697 1.11625 27.3915 1.81072 27.3915 2.66739V8.83784C27.3915 9.69451 26.697 10.389 25.8404 10.389C24.9837 10.389 24.2892 9.69451 24.2892 8.83784V4.21853H20.6699C19.8132 4.21853 19.1188 3.52406 19.1188 2.66739ZM2.05626 17.6958C2.91293 17.6958 3.6074 18.3903 3.6074 19.2469V23.8663H8.22672C9.08339 23.8663 9.77785 24.5607 9.77785 25.4174C9.77785 26.2741 9.08339 26.9685 8.22672 26.9685H2.05626C1.19959 26.9685 0.505127 26.2741 0.505127 25.4174V19.2469C0.505127 18.3903 1.19959 17.6958 2.05626 17.6958ZM25.8404 17.6958C26.697 17.6958 27.3915 18.3903 27.3915 19.2469V25.4174C27.3915 26.2741 26.697 26.9685 25.8404 26.9685H19.6699C18.8132 26.9685 18.1188 26.2741 18.1188 25.4174C18.1188 24.5607 18.8132 23.8663 19.6699 23.8663H24.2892V19.2469C24.2892 18.3903 24.9837 17.6958 25.8404 17.6958Z" fill="#6D75F4"/>
</svg>
