<svg width="20" height="20" viewBox="0 0 20 20" fill="none" xmlns="http://www.w3.org/2000/svg">
<path fill-rule="evenodd" clip-rule="evenodd" d="M16.0563 13.2677V2.81692C16.0563 1.72791 16.9391 0.845087 18.0281 0.845087C19.1171 0.845087 19.9999 1.72791 19.9999 2.81692V18.0135C20.0003 18.0653 19.9987 18.117 19.995 18.1687C19.9811 18.3661 19.9381 18.5556 19.8703 18.7327C19.7744 18.9841 19.6251 19.2198 19.4225 19.4224C19.2327 19.6122 19.0139 19.7552 18.7804 19.8514C18.5486 19.9472 18.2945 20 18.0281 20H2.81685C1.72784 20 0.845017 19.1172 0.845016 18.0282C0.845015 16.9392 1.72783 16.0563 2.81685 16.0563L13.2678 16.0563L0.577536 3.36612C-0.192512 2.59608 -0.192512 1.34758 0.577536 0.577536C1.34758 -0.192513 2.59608 -0.192513 3.36613 0.577536L16.0563 13.2677Z" fill="#6D75F4"/>
</svg>
