<svg width="24" height="24" viewBox="0 0 24 24" fill="none" xmlns="http://www.w3.org/2000/svg">
<path opacity="0.5" d="M9.67976 2.03626C9.87758 1.96256 10.1053 2.0033 10.2567 2.13949L20.8449 11.6633C21.0517 11.8492 21.0517 12.1508 20.8449 12.3367L10.2567 21.8605C10.1053 21.9967 9.87758 22.0374 9.67976 21.9637C9.48193 21.89 9.35294 21.7164 9.35294 21.5238V17.2381H4.41176C4.03734 17.2381 3.67825 17.1043 3.4135 16.8662C3.14874 16.628 3 16.305 3 15.9682V8.03175C3 7.69497 3.14874 7.37198 3.4135 7.13384C3.67825 6.8957 4.03734 6.76191 4.41176 6.76191H9.35294V2.4762C9.35294 2.2836 9.48193 2.10997 9.67976 2.03626Z" fill="#6D75F4"/>
</svg>
