<svg width="25" height="25" viewBox="0 0 25 25" fill="none" xmlns="http://www.w3.org/2000/svg">
<path fill-rule="evenodd" clip-rule="evenodd" d="M2.51982 18.4231L10.7698 4.17309C10.9003 3.94515 11.0886 3.75572 11.3158 3.62398C11.543 3.49224 11.8009 3.42285 12.0636 3.42285C12.3262 3.42285 12.5841 3.49224 12.8113 3.62398C13.0385 3.75572 13.2269 3.94515 13.3573 4.17309L21.6073 18.4231C21.7387 18.6507 21.808 18.9089 21.8083 19.1718C21.8085 19.4346 21.7397 19.6929 21.6086 19.9208C21.4776 20.1487 21.289 20.3381 21.0617 20.4701C20.8344 20.6022 20.5764 20.6722 20.3136 20.6731H3.81357C3.55071 20.6722 3.29271 20.6022 3.06542 20.4701C2.83812 20.3381 2.64952 20.1487 2.51849 19.9208C2.38746 19.6929 2.31862 19.4346 2.31885 19.1718C2.31908 18.9089 2.38838 18.6507 2.51982 18.4231ZM13.1887 10.1731C13.1887 9.55176 12.685 9.04808 12.0637 9.04808C11.4424 9.04808 10.9387 9.55176 10.9387 10.1731V13.1731C10.9387 13.7944 11.4424 14.2981 12.0637 14.2981C12.685 14.2981 13.1887 13.7944 13.1887 13.1731V10.1731ZM13.5637 16.9231C13.5637 17.7515 12.8921 18.4231 12.0637 18.4231C11.2353 18.4231 10.5637 17.7515 10.5637 16.9231C10.5637 16.0947 11.2353 15.4231 12.0637 15.4231C12.8921 15.4231 13.5637 16.0947 13.5637 16.9231Z" fill="#959595"/>
</svg>
