<svg width="20" height="20" viewBox="0 0 20 20" fill="none" xmlns="http://www.w3.org/2000/svg">
<g clip-path="url(#clip0_7702_137824)">
<path fill-rule="evenodd" clip-rule="evenodd" d="M7.48382 1.37298C7.67034 0.536847 8.34892 0 9.20441 0H10.8043C11.6542 0 12.3297 0.539729 12.5159 1.37167L12.8743 2.87581C12.9373 2.90071 12.9996 2.92611 13.0611 2.95204L14.4048 2.12296L14.4203 2.11443C15.1302 1.7247 15.9158 1.82813 16.5006 2.35728L16.5125 2.36807L17.6566 3.50335C17.6573 3.50404 17.658 3.50473 17.6587 3.50542C18.2885 4.12239 18.3275 4.9845 17.8946 5.6792L17.0962 7.00042C17.1194 7.05552 17.1429 7.11289 17.1662 7.17229L18.6383 7.5281C19.4815 7.71738 20 8.41115 20 9.23938V10.8131C20 11.2135 19.8816 11.6004 19.6319 11.916C19.3825 12.2311 19.0325 12.4364 18.6358 12.5249L17.1476 12.8743C17.126 12.9299 17.1038 12.9853 17.081 13.0403L17.8714 14.3203C18.3304 15.0251 18.2499 15.9209 17.6537 16.5171L16.5259 17.6449C15.9255 18.2453 15.0493 18.3081 14.3608 17.8748L13.0586 17.0724C12.9951 17.0989 12.931 17.1249 12.8661 17.1504L12.516 18.6279C12.33 19.4601 11.6544 20 10.8043 20H9.20441C8.34919 20 7.67077 19.4635 7.484 18.6278L7.13391 17.1504C7.06936 17.125 7.00554 17.0991 6.94245 17.0728L5.64653 17.8757C5.64647 17.8757 5.64659 17.8757 5.64653 17.8757C4.95432 18.3048 4.07801 18.2488 3.47415 17.6449L3.47223 17.643L2.35658 16.5186C1.7494 15.9219 1.66991 15.0247 2.12854 14.3204L2.91898 13.0403C2.89624 12.9853 2.874 12.9299 2.85241 12.8743L1.36419 12.5249C0.96751 12.4364 0.61748 12.2311 0.368075 11.916C0.118365 11.6004 0 11.2135 0 10.8131V9.23938C0 8.41115 0.518505 7.71738 1.36171 7.5281L2.83799 7.17128C2.8605 7.11365 2.88302 7.05759 2.90539 7.00312L2.10537 5.6792C1.67254 4.98453 1.71153 4.12246 2.34122 3.5055L3.48717 2.36837L3.49877 2.35785C3.77944 2.10329 4.1189 1.93179 4.49897 1.88764C4.87879 1.84352 5.24827 1.93248 5.57969 2.11443L5.59475 2.12271L6.92748 2.9423C6.99603 2.91355 7.06525 2.88589 7.13492 2.8593L7.48382 1.37298ZM9.20441 1.39535C8.99502 1.39535 8.88778 1.48578 8.84535 1.67836L8.84329 1.68769L8.31614 3.93309L7.94163 4.05425C7.6705 4.14197 7.4156 4.24306 7.19083 4.35544L6.84383 4.52894L4.89544 3.33074C4.78768 3.2742 4.71093 3.26775 4.65997 3.27367C4.60909 3.27958 4.53666 3.30328 4.44598 3.38268L3.31842 4.50156C3.24004 4.57812 3.2187 4.64349 3.21421 4.69242C3.20933 4.74553 3.22032 4.83081 3.29075 4.94306L3.29698 4.95299L4.47309 6.89948L4.32525 7.23212C4.22488 7.45795 4.12002 7.7086 4.02419 7.98812L3.90008 8.35009L1.67653 8.88754L1.66962 8.88906C1.4857 8.92959 1.39535 9.03846 1.39535 9.23938V10.8131C1.39535 10.9373 1.42998 11.0093 1.46223 11.05C1.49369 11.0898 1.55261 11.1376 1.66962 11.1634L1.67895 11.1655L3.92473 11.6927L4.04569 12.0677C4.12254 12.3059 4.22472 12.5584 4.33741 12.7999L4.49665 13.1411L3.30535 15.0704L3.29954 15.0792C3.18944 15.246 3.21545 15.4071 3.33575 15.5245L3.34371 15.5323L4.46081 16.6583C4.46105 16.6585 4.46129 16.6588 4.46154 16.659C4.57446 16.7714 4.72961 16.8024 4.91126 16.6898L6.84078 15.4943L7.1826 15.6538C7.42266 15.7659 7.68131 15.8711 7.95907 15.9691L8.31799 16.0958L8.84543 18.3216C8.88786 18.5142 8.99502 18.6047 9.20441 18.6047H10.8043C11.0014 18.6047 11.1115 18.5177 11.1547 18.3216L11.157 18.3109L11.682 16.0958L12.0409 15.9691C12.3187 15.8711 12.5773 15.7659 12.8174 15.6538L13.1582 15.4948L15.1029 16.6931C15.2706 16.7992 15.4238 16.7736 15.5392 16.6583L16.667 15.5304C16.7849 15.4125 16.8114 15.2472 16.7005 15.0792L16.6947 15.0704L15.5034 13.1411L15.6626 12.7999C15.7753 12.5584 15.8775 12.3059 15.9543 12.0677L16.0753 11.6927L18.3304 11.1633C18.4474 11.1376 18.5063 11.0898 18.5378 11.05C18.57 11.0093 18.6047 10.9373 18.6047 10.8131V9.23938C18.6047 9.03846 18.5143 8.92959 18.3304 8.88906L18.3235 8.88754L16.0885 8.34732L15.9702 7.97103C15.8905 7.71733 15.789 7.48901 15.6845 7.25416L15.5269 6.89948L16.7092 4.94301C16.7796 4.83076 16.7907 4.74553 16.7858 4.69242C16.7813 4.64349 16.76 4.57811 16.6816 4.50155L16.6776 4.49769L15.5544 3.38305C15.4121 3.25901 15.2765 3.2408 15.1049 3.33057L13.1534 4.53467L12.8091 4.36846C12.5834 4.25949 12.3282 4.15538 12.0497 4.0571L11.6913 3.93061L11.1546 1.67839C11.1114 1.48233 11.0014 1.39535 10.8043 1.39535H9.20441ZM10 7.64644C8.7054 7.64644 7.64644 8.708 7.64644 9.99126C7.64644 11.2972 8.71058 12.3623 10 12.3623C11.2995 12.3623 12.3623 11.2959 12.3623 9.99126C12.3623 8.7093 11.3046 7.64644 10 7.64644ZM6.25109 9.99126C6.25109 7.93477 7.93737 6.25109 10 6.25109C12.0701 6.25109 13.7577 7.93347 13.7577 9.99126C13.7577 12.0613 12.0753 13.7577 10 13.7577C7.93219 13.7577 6.25109 12.06 6.25109 9.99126Z" fill="#6D75F4"/>
</g>
<defs>
<clipPath id="clip0_7702_137824">
<rect width="20" height="19.9999" fill="white"/>
</clipPath>
</defs>
</svg>
