<svg width="60" height="60" viewBox="0 0 60 60" fill="none" xmlns="http://www.w3.org/2000/svg">
<g clip-path="url(#clip0_12386_103451)">
<path d="M61 6.2841C61.0016 3.36689 58.6385 1.00158 55.7203 1H6.28289C3.3646 1 1 3.36373 1 6.28095V55.7159C1 58.6331 3.3646 60.9984 6.28289 61H38.7674L61 38.7661V6.2841Z" fill="url(#paint0_linear_12386_103451)"/>
<path d="M38.7673 60.9999H55.7171C58.6354 60.9999 61 58.6362 61 55.719V38.7676L38.7673 60.9999Z" fill="#2970D8"/>
<path d="M52.2595 28.9501L42.7491 19.44L42.7317 19.4226L42.6954 19.3911C42.6323 19.3312 42.5677 19.276 42.5014 19.224C42.4351 19.1719 42.4067 19.1514 42.3578 19.1183L42.29 19.0757C41.1685 18.3441 39.6714 18.5916 38.8464 19.6466L24.0562 34.436V21.2629C24.0909 19.8216 22.952 18.6232 21.5087 18.5885C20.0669 18.5538 18.868 19.6923 18.8333 21.1351C18.8333 21.1777 18.8333 21.2203 18.8333 21.2629V34.4329L13.4353 29.0337C12.4131 28.015 10.7567 28.0166 9.7377 29.0384C8.71867 30.0602 8.72025 31.7159 9.74244 32.7346L19.5984 42.5916C19.6615 42.6531 19.7261 42.7131 19.7955 42.7682C19.8618 42.8219 19.9296 42.8723 20.0006 42.9259C20.354 43.1593 20.7578 43.3044 21.179 43.347H21.19C21.2752 43.347 21.3588 43.3596 21.444 43.3596H21.4834C21.5544 43.3596 21.6254 43.3596 21.6964 43.3485L21.7469 43.3406C21.8147 43.3406 21.8809 43.3249 21.9472 43.3123H21.9787C22.0513 43.2965 22.1254 43.2792 22.198 43.2571H22.209C22.2879 43.2318 22.3668 43.205 22.4425 43.1735C22.5514 43.1278 22.657 43.0757 22.758 43.0158L22.8179 42.9811C22.9173 42.9196 23.012 42.8518 23.1019 42.7793C23.1098 42.7714 23.1177 42.7635 23.1271 42.7572C23.1823 42.7099 23.2375 42.661 23.2849 42.609L38.2707 27.6287V40.764C38.236 42.2053 39.3749 43.4037 40.8183 43.4384C42.26 43.4731 43.4589 42.3346 43.4936 40.8918C43.4936 40.8492 43.4936 40.8066 43.4936 40.764V27.5672L48.5588 32.6368C49.5779 33.6587 51.231 33.6618 52.2532 32.6431C53.2754 31.6245 53.2786 29.9719 52.2595 28.9501Z" fill="white"/>
</g>
<defs>
<linearGradient id="paint0_linear_12386_103451" x1="-2.82059" y1="11.4799" x2="65.521" y2="50.9519" gradientUnits="userSpaceOnUse">
<stop offset="0.13" stop-color="#348BED"/>
<stop offset="0.31" stop-color="#2B80E8"/>
<stop offset="0.64" stop-color="#1461DB"/>
<stop offset="0.72" stop-color="#0E57D7"/>
</linearGradient>
<clipPath id="clip0_12386_103451">
<rect width="60" height="60" fill="white"/>
</clipPath>
</defs>
</svg>
