<svg width="25" height="24" viewBox="0 0 25 24" fill="none" xmlns="http://www.w3.org/2000/svg">
<g clip-path="url(#clip0_9136_268657)">
<path d="M12.6598 7.27198C12.7998 6.8033 12.8901 6.31923 12.9306 5.81977H20.0464C20.2707 5.81977 20.4577 5.88817 20.6072 6.02497C20.7568 6.16178 20.8316 6.33541 20.8316 6.54587C20.8316 6.74932 20.7568 6.9212 20.6072 7.06151C20.4577 7.20182 20.2707 7.27198 20.0464 7.27198H12.6598Z" fill="#83839E"/>
<path d="M10.6844 10.4767C10.7534 10.4112 10.8213 10.3442 10.8882 10.2757C11.0146 10.1461 11.1357 10.0126 11.2515 9.87503C11.3143 9.86113 11.3811 9.85417 11.4517 9.85417H20.0464C20.2707 9.85417 20.4577 9.92432 20.6072 10.0646C20.7568 10.2049 20.8315 10.3803 20.8315 10.5908C20.8315 10.7942 20.7568 10.9661 20.6072 11.1064C20.4577 11.2467 20.2707 11.3169 20.0464 11.3169H11.4517C11.2274 11.3169 11.0421 11.2467 10.896 11.1064C10.7498 10.9661 10.6767 10.7942 10.6767 10.5908C10.6767 10.5516 10.6793 10.5135 10.6844 10.4767Z" fill="#83839E"/>
<path d="M12.561 2.79684C12.5155 2.66605 12.4661 2.5366 12.4128 2.40848C12.203 1.90398 11.9461 1.43449 11.6421 1L22.0475 1C23.6781 1 25 2.36161 25 4.04123V20.9588C25 22.6384 23.6781 24 22.0475 24H5.95251C4.32188 24 3 22.6384 3 20.9588L3 11.7081C3.09385 11.7546 3.18902 11.7993 3.28552 11.842C3.75477 12.05 4.24107 12.2 4.74442 12.2921V20.9588C4.74442 21.646 5.2853 22.2032 5.95251 22.2032H22.0475C22.7147 22.2032 23.2556 21.646 23.2556 20.9588V4.04123C23.2556 3.35397 22.7147 2.79684 22.0475 2.79684H12.561Z" fill="#83839E"/>
<path d="M9.448 13.9833C9.62135 14.1657 9.70802 14.3867 9.70802 14.6462C9.70802 14.8988 9.62135 15.1145 9.448 15.2934C9.27465 15.4723 9.05882 15.5618 8.8005 15.5618C8.55577 15.5618 8.34673 15.4723 8.17338 15.2934C8.00003 15.1145 7.91336 14.8988 7.91336 14.6462C7.91336 14.3867 8.00003 14.1657 8.17338 13.9833C8.34673 13.8009 8.55577 13.7097 8.8005 13.7097C9.05882 13.7097 9.27465 13.8009 9.448 13.9833Z" fill="#83839E"/>
<path d="M19.0744 14.1201C19.2239 14.2604 19.2987 14.4358 19.2987 14.6462C19.2987 14.8497 19.2239 15.0216 19.0744 15.1619C18.9248 15.3022 18.7379 15.3724 18.5135 15.3724H11.4517C11.2274 15.3724 11.0421 15.3022 10.896 15.1619C10.7498 15.0216 10.6767 14.8497 10.6767 14.6462C10.6767 14.4358 10.7498 14.2604 10.896 14.1201C11.0421 13.9798 11.2274 13.9096 11.4517 13.9096H18.5135C18.7379 13.9096 18.9248 13.9798 19.0744 14.1201Z" fill="#83839E"/>
<path d="M9.70802 18.7017C9.70802 18.4421 9.62135 18.2212 9.448 18.0387C9.27465 17.8563 9.05882 17.7651 8.8005 17.7651C8.55577 17.7651 8.34673 17.8563 8.17338 18.0387C8.00003 18.2212 7.91336 18.4421 7.91336 18.7017C7.91336 18.9543 8.00003 19.17 8.17338 19.3489C8.34673 19.5278 8.55577 19.6172 8.8005 19.6172C9.05882 19.6172 9.27465 19.5278 9.448 19.3489C9.62135 19.17 9.70802 18.9543 9.70802 18.7017Z" fill="#83839E"/>
<path d="M20.8315 18.7017C20.8315 18.4912 20.7568 18.3159 20.6072 18.1756C20.4577 18.0352 20.2707 17.9651 20.0464 17.9651H11.4517C11.2274 17.9651 11.0421 18.0352 10.896 18.1756C10.7498 18.3159 10.6767 18.4912 10.6767 18.7017C10.6767 18.9052 10.7498 19.077 10.896 19.2173C11.0421 19.3577 11.2274 19.4278 11.4517 19.4278H20.0464C20.2707 19.4278 20.4577 19.3577 20.6072 19.2173C20.7568 19.077 20.8315 18.9052 20.8315 18.7017Z" fill="#83839E"/>
<path d="M5.47184 10.9644C6.21147 10.9644 6.9116 10.8205 7.57225 10.5327C8.23289 10.245 8.81633 9.84926 9.32259 9.34564C9.82884 8.84202 10.2256 8.25928 10.5128 7.59738C10.8001 6.93548 10.9437 6.23043 10.9437 5.4822C10.9437 4.72678 10.8019 4.01813 10.5182 3.35623C10.2346 2.69433 9.84141 2.11158 9.33874 1.60797C8.83608 1.10435 8.25443 0.710457 7.59379 0.426274C6.93314 0.14209 6.22583 0 5.47184 0C4.72502 0 4.0213 0.14209 3.36066 0.426274C2.70001 0.710457 2.11836 1.10615 1.6157 1.61336C1.11304 2.12058 0.71809 2.70333 0.430853 3.36162C0.143616 4.01992 0 4.72678 0 5.4822C0 6.23763 0.143616 6.94628 0.430853 7.60817C0.71809 8.27007 1.11304 8.85282 1.6157 9.35643C2.11836 9.86005 2.70001 10.2539 3.36066 10.5381C4.0213 10.8223 4.72502 10.9644 5.47184 10.9644ZM4.81479 8.43914C4.72143 8.43914 4.62449 8.41935 4.52396 8.37978C4.42343 8.34021 4.34085 8.28086 4.27622 8.20172L2.44509 6.20525C2.38764 6.1333 2.34456 6.05236 2.31584 5.96243C2.28711 5.8725 2.27275 5.79156 2.27275 5.71962C2.27275 5.52537 2.33738 5.36349 2.46663 5.23399C2.59589 5.10449 2.75387 5.03974 2.94057 5.03974C3.05547 5.03974 3.156 5.06132 3.24217 5.10449C3.32834 5.14766 3.40015 5.20162 3.4576 5.26637L4.78247 6.70167L7.41068 3.05406C7.55429 2.85261 7.74459 2.75189 7.98156 2.75189C8.16108 2.75189 8.31906 2.81484 8.45549 2.94075C8.59193 3.06665 8.66015 3.22673 8.66015 3.42098C8.66015 3.47854 8.64758 3.54329 8.62245 3.61523C8.59732 3.68718 8.55962 3.75912 8.50935 3.83107L5.37489 8.18013C5.25282 8.3528 5.06612 8.43914 4.81479 8.43914Z" fill="#09AE4B"/>
</g>
<defs>
<clipPath id="clip0_9136_268657">
<rect width="25" height="24" fill="white"/>
</clipPath>
</defs>
</svg>
