<svg width="25" height="25" viewBox="0 0 25 25" fill="none" xmlns="http://www.w3.org/2000/svg">
<g clip-path="url(#clip0_6331_46204)">
<path d="M17.7527 15.5953C18.7344 15.5953 19.5301 14.7995 19.5301 13.8179C19.5301 12.8363 18.7344 12.0405 17.7527 12.0405C16.7711 12.0405 15.9753 12.8363 15.9753 13.8179C15.9753 14.7995 16.7711 15.5953 17.7527 15.5953Z" fill="#6D75F4"/>
<path fill-rule="evenodd" clip-rule="evenodd" d="M4.4212 4.4035C4.29067 4.40342 4.16147 4.42964 4.0413 4.48059C3.92113 4.53154 3.81245 4.60617 3.72176 4.70004C3.63106 4.79391 3.56021 4.90509 3.51342 5.02694C3.47535 5.12611 3.45385 5.23069 3.44963 5.33651C3.45002 5.34938 3.45021 5.36229 3.45021 5.37525V5.41611C3.46871 5.66653 3.58034 5.90132 3.7636 6.07385C3.95285 6.25202 4.20377 6.34995 4.46368 6.34707L4.4775 6.34692L21.7516 6.347C22.3188 6.347 22.8628 6.57232 23.2639 6.97341C23.665 7.37449 23.8903 7.91848 23.8903 8.4857V20.0388C23.8903 20.606 23.665 21.15 23.2639 21.5511C22.8628 21.9522 22.3188 22.1775 21.7516 22.1775H3.97761C3.1747 22.1775 2.40466 21.8585 1.83692 21.2908C1.26917 20.723 0.950214 19.953 0.950214 19.1501V5.47246C0.937387 5.01459 1.0153 4.55861 1.17954 4.13084C1.34669 3.6955 1.59983 3.2983 1.92385 2.96293C2.24787 2.62757 2.63614 2.36092 3.06547 2.1789C3.49457 1.99698 3.9559 1.90332 4.42196 1.9035C4.42207 1.9035 4.42185 1.9035 4.42196 1.9035H19.0855C19.7759 1.9035 20.3355 2.46315 20.3355 3.1535C20.3355 3.84386 19.7759 4.4035 19.0855 4.4035H4.4212ZM3.45021 8.70076V19.1501C3.45021 19.29 3.50578 19.4241 3.60469 19.523C3.70359 19.6219 3.83774 19.6775 3.97761 19.6775H21.3903V8.847H4.48363C4.13071 8.85013 3.78262 8.79997 3.45021 8.70076Z" fill="#6D75F4"/>
</g>
<defs>
<clipPath id="clip0_6331_46204">
<rect width="23.9949" height="21.3288" fill="white" transform="translate(0.425171 1.55891)"/>
</clipPath>
</defs>
</svg>
