<svg width="24" height="24" viewBox="0 0 24 24" fill="none" xmlns="http://www.w3.org/2000/svg">
<path fill-rule="evenodd" clip-rule="evenodd" d="M5.07268 1.50104C5.36973 1.18669 5.78367 1 6.22664 1H17.7815C18.2245 1 18.6385 1.18668 18.9355 1.50104C19.2309 1.8137 19.3888 2.22757 19.3888 2.64933V4.4045H21.3928C21.8476 4.4045 22.2647 4.60391 22.5582 4.92663C22.8492 5.24656 23 5.66395 23 6.08361V7.67171C23 8.72315 22.6209 9.74645 21.9236 10.5131C21.2238 11.2826 20.2556 11.733 19.2262 11.733H18.479C18.1436 12.3759 17.7221 12.968 17.2253 13.4901C16.5366 14.214 15.7165 14.7893 14.8111 15.1804C14.1951 15.4465 13.5485 15.6233 12.8892 15.707V21.2299H15.9433C16.4321 21.2299 16.8283 21.6261 16.8283 22.1149C16.8283 22.6037 16.4321 23 15.9433 23H8.0649C7.5761 23 7.17985 22.6037 7.17985 22.1149C7.17985 21.6261 7.5761 21.2299 8.0649 21.2299H11.1191V15.707C8.69922 15.3998 6.67666 13.8563 5.55886 11.733H4.77379C3.74436 11.733 2.77621 11.2826 2.07639 10.5131C1.37911 9.74645 1 8.72315 1 7.67171V6.08361C1 5.66395 1.15085 5.24656 1.44182 4.92663C1.73534 4.60391 2.15242 4.4045 2.60724 4.4045H4.6194V2.64933C4.6194 2.22757 4.77725 1.8137 5.07268 1.50104ZM4.6194 6.17462H2.77012V7.67171C2.77012 8.30503 2.9997 8.89749 3.38591 9.32213C3.76957 9.74397 4.27094 9.96286 4.77379 9.96286H4.87736C4.70893 9.30612 4.6194 8.61834 4.6194 7.91327V6.17462ZM11.966 13.9927C12.6992 13.998 13.4274 13.8499 14.1092 13.5554C14.7913 13.2608 15.415 12.8248 15.9429 12.2699C16.471 11.715 16.8925 11.0522 17.1811 10.3187C17.4696 9.58503 17.6187 8.79662 17.6187 7.99925V2.77012H6.38951V7.91327C6.38951 11.2813 8.92736 13.9684 11.966 13.9927ZM19.1488 9.96286H19.2262C19.7291 9.96286 20.2304 9.74397 20.6141 9.32213C21.0003 8.89749 21.2299 8.30503 21.2299 7.67171V6.17462H19.3888V7.99925C19.3888 8.66293 19.3079 9.32281 19.1488 9.96286Z" fill="#6D75F4"/>
</svg>
