<svg width="24" height="24" viewBox="0 0 24 24" fill="none" xmlns="http://www.w3.org/2000/svg">
<path d="M23.0002 7.46848V9.71305C22.9864 9.75167 22.9679 9.78944 22.9602 9.82891C22.7622 10.8279 22.1842 11.5239 21.2296 11.9029C21.0591 11.9704 21.0105 12.045 21.0109 12.2174C21.0165 14.5952 21.0178 16.9734 21.0135 19.3513C21.0105 20.8744 19.8669 21.9986 18.3257 21.999C14.11 22.0007 9.89437 22.0007 5.6787 21.9965C5.45189 21.9965 5.21861 21.9774 4.99912 21.9243C3.80177 21.6366 2.99737 20.6091 2.99522 19.3682C2.99135 16.9904 2.99178 14.6122 2.99823 12.2343C2.99866 12.0552 2.95562 11.9738 2.77529 11.9012C1.79917 11.5082 1.18113 10.7986 1.05244 9.76058C0.97626 9.1482 1.00337 8.52138 1.01456 7.90135C1.02059 7.55124 1.0477 7.19221 1.13421 6.85439C1.49187 5.45477 1.87707 4.06152 2.25194 2.66571C2.39224 2.14245 2.57946 2.00028 3.13337 2.00028C7.18421 2.00028 11.2355 2.00028 15.2863 2.00028C17.183 2.00028 19.0798 1.99943 20.9765 2.0007C21.3927 2.0007 21.6096 2.16451 21.7245 2.55919C21.7951 2.80279 21.8622 3.04766 21.9259 3.29338C22.2849 4.68451 22.6425 6.0765 23.0006 7.46806L23.0002 7.46848ZM9.11364 20.6448C9.11364 20.5306 9.11364 20.4475 9.11364 20.3638C9.1158 18.8607 9.10159 17.3571 9.1257 15.8539C9.14119 14.8753 9.93612 14.0044 10.9191 13.9123C11.5931 13.8491 12.2766 13.886 12.9557 13.8835C13.0543 13.8835 13.1541 13.9085 13.2514 13.9319C14.2499 14.1725 14.8882 14.9831 14.8929 16.0372C14.8994 17.484 14.8946 18.9311 14.8946 20.3779C14.8946 20.4602 14.8946 20.5429 14.8946 20.6329C14.9777 20.638 15.0337 20.6444 15.0896 20.6444C16.1776 20.6448 17.2661 20.6478 18.3541 20.6435C19.0892 20.641 19.6324 20.1385 19.6354 19.4153C19.6461 17.0014 19.6388 14.588 19.6431 12.1741C19.6431 12.0467 19.5906 12.0064 19.4796 11.9755C19.0156 11.8452 18.6175 11.6037 18.2801 11.2642C18.2517 11.2357 18.2173 11.2137 18.1815 11.1857C17.6121 11.7734 16.9325 12.0888 16.1135 12.0862C15.2971 12.0837 14.6231 11.7548 14.0636 11.1793C13.4855 11.7747 12.8055 12.0892 11.9865 12.0862C11.1709 12.0832 10.4982 11.7522 9.94172 11.1823C8.95354 12.2513 7.11663 12.5148 5.80524 11.1869C5.45447 11.5608 5.03613 11.8367 4.53516 11.9716C4.3927 12.0098 4.36558 12.0786 4.36558 12.2097C4.36902 14.5884 4.36644 16.9666 4.36946 19.3453C4.37032 20.1304 4.89539 20.6422 5.69032 20.6448C6.37766 20.6469 7.06499 20.6452 7.75189 20.6452C8.19519 20.6452 8.63849 20.6452 9.11407 20.6452L9.11364 20.6448ZM21.4052 6.65875C21.397 6.61504 21.3922 6.58067 21.3836 6.54756C21.1177 5.56044 20.8465 4.5746 20.5896 3.58493C20.5414 3.3999 20.4622 3.34982 20.2702 3.35025C16.1333 3.35661 11.9964 3.35534 7.85949 3.35534C6.47105 3.35534 5.08261 3.35746 3.69417 3.35194C3.54052 3.35152 3.46865 3.38802 3.43164 3.54589C3.34168 3.92996 3.22763 4.30851 3.12434 4.68961C2.94831 5.34189 2.77314 5.99417 2.59453 6.65833H21.4056L21.4052 6.65875ZM13.5071 20.6342C13.5127 20.5875 13.5191 20.5603 13.5191 20.5328C13.5191 19.016 13.523 17.4988 13.517 15.9821C13.5152 15.5352 13.1963 15.233 12.7375 15.2258C12.2869 15.2186 11.8359 15.2237 11.3848 15.2241C10.7741 15.225 10.4883 15.5034 10.4883 16.1017C10.4874 17.534 10.4883 18.9663 10.4883 20.3986V20.6342H13.5075H13.5071ZM5.12737 8.03758H2.38708C2.38708 8.53835 2.36125 9.02513 2.3931 9.5085C2.43873 10.2058 3.05461 10.7341 3.76691 10.7312C4.47447 10.7282 5.08433 10.185 5.12264 9.48855C5.14889 9.01154 5.1278 8.53199 5.1278 8.03758H5.12737ZM6.50591 8.03206C6.50591 8.49337 6.50161 8.936 6.50677 9.37906C6.51495 10.0823 7.04906 10.6641 7.73683 10.7273C8.46117 10.7935 9.12613 10.3335 9.2178 9.61629C9.28408 9.09939 9.23071 8.56721 9.23071 8.03249H6.50591V8.03206ZM13.3749 8.03758H10.6346C10.6346 8.53793 10.6093 9.02513 10.6407 9.5085C10.6863 10.2058 11.3022 10.7341 12.014 10.7312C12.7216 10.7282 13.3319 10.1854 13.3698 9.48898C13.396 9.01197 13.3749 8.53241 13.3749 8.03758ZM14.7535 8.03291C14.7535 8.4921 14.7479 8.9411 14.7548 9.3901C14.766 10.14 15.3724 10.7299 16.1243 10.7312C16.8779 10.7324 17.4869 10.1455 17.5007 9.39646C17.508 8.98778 17.5028 8.5791 17.5015 8.17041C17.5015 8.12416 17.4895 8.0779 17.483 8.03291H14.7535ZM21.6221 8.03801H18.8805C18.8805 8.53199 18.8598 9.01154 18.8852 9.48855C18.9222 10.1833 19.5334 10.7278 20.2409 10.7312C20.9619 10.7345 21.5786 10.1926 21.6173 9.4877C21.6432 9.0107 21.6225 8.53114 21.6225 8.03801H21.6221Z" fill="#6D75F4"/>
<path d="M13.5071 20.6342C13.5126 20.5875 13.5191 20.5603 13.5191 20.5328C13.5191 19.016 13.523 17.4988 13.517 15.9821C13.5152 15.5352 13.1963 15.233 12.7375 15.2258C12.2869 15.2186 11.8358 15.2237 11.3848 15.2241C10.7741 15.225 10.4883 15.5034 10.4883 16.1018C10.4874 17.5341 10.4883 18.9664 10.4883 20.3987V20.6342H13.5071Z" fill="#6D75F4"/>
</svg>
