<svg width="36" height="36" viewBox="0 0 36 36" fill="none" xmlns="http://www.w3.org/2000/svg">
<path fill-rule="evenodd" clip-rule="evenodd" d="M36 18C36 27.9411 27.9411 36 18 36C8.05887 36 0 27.9411 0 18C0 8.05887 8.05887 0 18 0C27.9411 0 36 8.05887 36 18ZM22.4251 29H14.5996C14.1566 29 13.7793 28.8616 13.4676 28.5847C13.1559 28.3078 13 27.9479 13 27.5049C13 27.0935 13.1559 26.7454 13.4676 26.4606C13.7793 26.1758 14.1566 26.0334 14.5996 26.0334H16.7651V18.2017H14.9687C14.5257 18.2017 14.1484 18.0633 13.8367 17.7864C13.525 17.5095 13.3691 17.1496 13.3691 16.7066C13.3691 16.2952 13.525 15.9511 13.8367 15.6742C14.1484 15.3973 14.5257 15.2589 14.9687 15.2589H18.5615C19.1029 15.2589 19.5213 15.4329 19.8166 15.781C20.1119 16.1291 20.2595 16.5879 20.2595 17.1575V26.0334H22.4251C22.868 26.0334 23.2412 26.1758 23.5447 26.4606C23.8482 26.7454 24 27.0935 24 27.5049C24 27.9479 23.8482 28.3078 23.5447 28.5847C23.2412 28.8616 22.868 29 22.4251 29ZM19.6689 11.5566C19.1439 12.0788 18.4959 12.3398 17.7248 12.3398C16.9538 12.3398 16.3016 12.0788 15.7685 11.5566C15.2353 11.0345 14.9687 10.4096 14.9687 9.68177C14.9687 8.92233 15.2353 8.28551 15.7685 7.77131C16.3016 7.2571 16.9538 7 17.7248 7C18.4959 7 19.1439 7.2571 19.6689 7.77131C20.1939 8.28551 20.4564 8.92233 20.4564 9.68177C20.4564 10.4096 20.1939 11.0345 19.6689 11.5566Z" fill="#6D75F4"/>
</svg>
