<svg width="22" height="22" viewBox="0 0 22 22" fill="none" xmlns="http://www.w3.org/2000/svg">
<g clip-path="url(#clip0_7702_142744)">
<path d="M11.0112 16.3664C11.981 16.3664 12.8725 16.1215 13.6857 15.6316C14.4988 15.1417 15.1516 14.4922 15.6439 13.6832C16.1363 12.8742 16.3825 11.9798 16.3825 11C16.3825 10.0202 16.1363 9.12585 15.6439 8.3168C15.1516 7.50776 14.4988 6.8583 13.6857 6.36842C12.8725 5.87854 11.981 5.6336 11.0112 5.6336C10.0264 5.6336 9.12751 5.87854 8.31434 6.36842C7.50118 6.8583 6.85216 7.50776 6.36724 8.3168C5.88233 9.12585 5.63988 10.0202 5.63988 11C5.63988 11.9798 5.88233 12.8742 6.36724 13.6832C6.85216 14.4922 7.50118 15.1417 8.31434 15.6316C9.12751 16.1215 10.0264 16.3664 11.0112 16.3664ZM11.0112 0C10.6829 0 10.3995 0.122469 10.1607 0.367408C9.92201 0.612349 9.80264 0.890687 9.80264 1.20243V3.22874C9.80264 3.54049 9.92201 3.81883 10.1607 4.06376C10.3995 4.3087 10.6829 4.43117 11.0112 4.43117C11.3245 4.43117 11.6043 4.3087 11.8505 4.06376C12.0966 3.81883 12.2197 3.54049 12.2197 3.22874V1.20243C12.2197 0.890687 12.0966 0.612349 11.8505 0.367408C11.6043 0.122469 11.3245 0 11.0112 0ZM18.822 3.22874C18.5683 2.99123 18.2737 2.87247 17.9379 2.87247C17.6022 2.87247 17.3299 2.99123 17.1211 3.22874L15.6663 4.67611C15.4276 4.92848 15.312 5.21795 15.3194 5.54453C15.3269 5.87112 15.4425 6.14575 15.6663 6.36842C15.8901 6.60594 16.1699 6.7247 16.5056 6.7247C16.8413 6.7247 17.1285 6.60594 17.3672 6.36842L18.822 4.92105C19.0458 4.69838 19.1577 4.42004 19.1577 4.08603C19.1577 3.75202 19.0458 3.46626 18.822 3.22874ZM22 11C22 10.6734 21.8844 10.3914 21.6531 10.1538C21.4218 9.91633 21.1421 9.79757 20.8138 9.79757H18.7996C18.4713 9.79757 18.1879 9.91633 17.9491 10.1538C17.7104 10.3914 17.591 10.6734 17.591 11C17.591 11.3266 17.7104 11.6086 17.9491 11.8462C18.1879 12.0837 18.4713 12.2024 18.7996 12.2024H20.8138C21.1421 12.2024 21.4218 12.0837 21.6531 11.8462C21.8844 11.6086 22 11.3266 22 11ZM18.822 18.7713C19.0607 18.5337 19.1763 18.248 19.1689 17.914C19.1614 17.58 19.0458 17.3016 18.822 17.0789L17.3449 15.6316C17.1211 15.4089 16.8413 15.2976 16.5056 15.2976C16.1699 15.2976 15.8901 15.4089 15.6663 15.6316C15.4276 15.8691 15.3082 16.1549 15.3082 16.4889C15.3082 16.8229 15.4276 17.1086 15.6663 17.3462L17.1211 18.7713C17.3449 19.0088 17.6209 19.1275 17.9491 19.1275C18.2774 19.1275 18.5683 19.0088 18.822 18.7713ZM11.0112 22C11.3245 22 11.6043 21.8775 11.8505 21.6326C12.0966 21.3876 12.2197 21.1093 12.2197 20.7976V18.7713C12.2197 18.4595 12.0966 18.1812 11.8505 17.9362C11.6043 17.6913 11.3245 17.5688 11.0112 17.5688C10.6829 17.5688 10.3995 17.6913 10.1607 17.9362C9.92201 18.1812 9.80264 18.4595 9.80264 18.7713V20.7976C9.80264 21.1093 9.92201 21.3876 10.1607 21.6326C10.3995 21.8775 10.6829 22 11.0112 22ZM3.17803 18.749C3.41675 18.9865 3.70397 19.109 4.03967 19.1164C4.37538 19.1238 4.6626 19.0088 4.90132 18.7713L6.33367 17.3462C6.5724 17.1086 6.69176 16.8266 6.69176 16.5C6.69176 16.1734 6.5724 15.8839 6.33367 15.6316C6.10987 15.4089 5.82638 15.2976 5.48321 15.2976C5.14005 15.2976 4.85656 15.4089 4.63276 15.6316L3.17803 17.0789C2.95422 17.3016 2.84232 17.58 2.84232 17.914C2.84232 18.248 2.95422 18.5263 3.17803 18.749ZM0 11C0 11.3266 0.115631 11.6086 0.346898 11.8462C0.578164 12.0837 0.857916 12.2024 1.18616 12.2024H3.20041C3.52866 12.2024 3.81214 12.0837 4.05086 11.8462C4.28959 11.6086 4.40895 11.3266 4.40895 11C4.40895 10.6734 4.28959 10.3914 4.05086 10.1538C3.81214 9.91633 3.52866 9.79757 3.20041 9.79757H1.18616C0.857916 9.79757 0.578164 9.91633 0.346898 10.1538C0.115631 10.3914 0 10.6734 0 11ZM3.20041 3.22874C2.9766 3.46626 2.86097 3.75202 2.85351 4.08603C2.84605 4.42004 2.95422 4.69838 3.17803 4.92105L4.63276 6.36842C4.87148 6.60594 5.15497 6.7247 5.48321 6.7247C5.81146 6.7247 6.09495 6.60594 6.33367 6.36842C6.5724 6.1309 6.69176 5.84885 6.69176 5.52227C6.69176 5.19568 6.5724 4.91363 6.33367 4.67611L4.90132 3.22874C4.67752 3.00607 4.39776 2.89103 4.06206 2.8836C3.72635 2.87618 3.43913 2.99123 3.20041 3.22874Z" fill="#6D75F4"/>
</g>
<defs>
<clipPath id="clip0_7702_142744">
<rect width="22" height="22" fill="white"/>
</clipPath>
</defs>
</svg>
