<svg width="33" height="33" viewBox="0 0 33 33" fill="none" xmlns="http://www.w3.org/2000/svg">
<path fill-rule="evenodd" clip-rule="evenodd" d="M4.11355 9.49581C6.5911 7.01827 10.5566 4.5542 16.4341 4.5542C22.3116 4.5542 26.2771 7.01827 28.7546 9.49581C29.9851 10.7263 30.8459 11.9558 31.4013 12.8815C31.6796 13.3453 31.883 13.7357 32.0191 14.0161C32.0873 14.1563 32.1387 14.2693 32.1744 14.3505C32.1923 14.3911 32.2062 14.4238 32.2164 14.448L32.2288 14.4778L32.2328 14.4878L32.235 14.4932C32.2353 14.4939 32.2355 14.4945 30.9976 14.9897C32.2355 15.4849 32.2353 15.4856 32.235 15.4863L32.2328 15.4916L32.2288 15.5016L32.2164 15.5315C32.2062 15.5556 32.1923 15.5883 32.1744 15.6289C32.1387 15.7101 32.0873 15.8231 32.0191 15.9634C31.883 16.2437 31.6796 16.6341 31.4013 17.0979C30.8459 18.0236 29.9851 19.2531 28.7546 20.4836C26.2771 22.9611 22.3116 25.4252 16.4341 25.4252C10.5566 25.4252 6.5911 22.9611 4.11355 20.4836C2.88305 19.2531 2.02226 18.0236 1.46683 17.0979C1.18855 16.6341 0.98519 16.2437 0.849032 15.9634C0.780905 15.8231 0.729454 15.7101 0.693734 15.6289C0.67587 15.5883 0.661925 15.5556 0.651784 15.5315L0.639404 15.5016L0.635322 15.4916L0.633803 15.4878L0.633173 15.4863C0.632895 15.4856 0.63263 15.4849 1.8706 14.9897C0.63263 14.4945 0.632895 14.4939 0.633173 14.4932L0.633803 14.4916L0.635322 14.4878L0.639404 14.4778L0.651784 14.448C0.661925 14.4238 0.67587 14.3911 0.693734 14.3505C0.729454 14.2693 0.780905 14.1563 0.849032 14.0161C0.98519 13.7357 1.18855 13.3453 1.46683 12.8815C2.02226 11.9558 2.88305 10.7263 4.11355 9.49581ZM1.8706 14.9897L0.63263 14.4945L0.434555 14.9897L0.63263 15.4849L1.8706 14.9897ZM3.34331 14.9897C3.4451 14.791 3.58095 14.541 3.75347 14.2535C4.22204 13.4726 4.95412 12.4265 5.99917 11.3814C8.07271 9.30789 11.389 7.22087 16.4341 7.22087C21.4792 7.22087 24.7954 9.30789 26.869 11.3814C27.914 12.4265 28.6461 13.4726 29.1147 14.2535C29.2872 14.541 29.4231 14.791 29.5248 14.9897C29.4231 15.1884 29.2872 15.4384 29.1147 15.7259C28.6461 16.5069 27.914 17.5529 26.869 18.598C24.7954 20.6715 21.4792 22.7585 16.4341 22.7585C11.389 22.7585 8.07271 20.6715 5.99917 18.598C4.95412 17.5529 4.22204 16.5069 3.75347 15.7259C3.58095 15.4384 3.4451 15.1884 3.34331 14.9897ZM30.9976 14.9897L32.2355 15.4849L32.4336 14.9897L32.2355 14.4945L30.9976 14.9897Z" fill="#6D75F4"/>
<path d="M30.2148 23.6003C29.9964 23.6003 29.7961 23.5275 29.6141 23.3818C28.631 22.508 27.0837 20.4327 27.029 20.3599C26.7378 19.9594 26.8106 19.3769 27.2111 19.0856C27.6116 18.7761 28.1941 18.8672 28.4854 19.2677C28.9041 19.832 30.1056 21.3976 30.8156 22.0165C31.1978 22.3442 31.2343 22.9267 30.9066 23.309C30.7245 23.5093 30.4697 23.6185 30.2148 23.6185V23.6003Z" fill="#6D75F4"/>
<path d="M23.7341 27.3505C23.461 27.3505 23.188 27.223 23.0059 26.9864C22.2049 25.9487 21.1127 23.6004 21.0763 23.5094C20.8578 23.0542 21.0763 22.5081 21.5132 22.3079C21.9683 22.0894 22.5144 22.3079 22.7146 22.7448C23.0059 23.3637 23.8797 25.1477 24.4441 25.8941C24.7535 26.2946 24.6625 26.859 24.2802 27.1684C24.1164 27.2959 23.9161 27.3505 23.7341 27.3505Z" fill="#6D75F4"/>
<path d="M3.64559 23.8322C3.39073 23.8322 3.13587 23.723 2.95383 23.5228C2.62615 23.1405 2.66256 22.5761 3.04485 22.2303C3.73661 21.6113 4.95631 20.0457 5.37501 19.4814C5.66628 19.0809 6.24881 18.9899 6.64931 19.2994C7.04981 19.5906 7.14083 20.1732 6.83135 20.5737C6.75854 20.6647 5.22937 22.74 4.24634 23.5956C4.06429 23.7412 3.86404 23.814 3.64559 23.814V23.8322Z" fill="#6D75F4"/>
<path d="M10.281 27.3505C10.0808 27.3505 9.89876 27.2959 9.73492 27.1684C9.33442 26.859 9.2616 26.2946 9.57108 25.8941C10.1354 25.1478 11.0092 23.3637 11.3005 22.7448C11.5189 22.2897 12.0469 22.0894 12.502 22.3079C12.9571 22.5263 13.1573 23.0543 12.9389 23.5094C12.8843 23.6004 11.792 25.9487 11.0092 26.9864C10.8272 27.2231 10.5541 27.3505 10.281 27.3505Z" fill="#6D75F4"/>
</svg>
