<svg width="25" height="24" viewBox="0 0 25 24" fill="none" xmlns="http://www.w3.org/2000/svg">
<g clip-path="url(#clip0_7323_143009)">
<g clip-path="url(#clip1_7323_143009)">
<path fill-rule="evenodd" clip-rule="evenodd" d="M1.18298 2.28633C1.18298 1.55204 1.77824 0.956787 2.51253 0.956787H7.80149C8.53578 0.956787 9.13103 1.55204 9.13103 2.28633C9.13103 3.02062 8.53578 3.61588 7.80149 3.61588H3.84207V7.57529C3.84207 8.30958 3.24682 8.90484 2.51253 8.90484C1.77824 8.90484 1.18298 8.30958 1.18298 7.57529V2.28633ZM17.1375 2.28633C17.1375 1.55204 17.7328 0.956787 18.4671 0.956787H22.8989C23.6332 0.956787 24.2284 1.55204 24.2284 2.28633V7.57529C24.2284 8.30958 23.6332 8.90484 22.8989 8.90484C22.1646 8.90484 21.5693 8.30958 21.5693 7.57529V3.61588H18.4671C17.7328 3.61588 17.1375 3.02062 17.1375 2.28633ZM2.51253 15.1678C3.24682 15.1678 3.84207 15.7631 3.84207 16.4974V20.4568H7.80149C8.53578 20.4568 9.13103 21.052 9.13103 21.7863C9.13103 22.5206 8.53578 23.1159 7.80149 23.1159H2.51253C1.77824 23.1159 1.18298 22.5206 1.18298 21.7863V16.4974C1.18298 15.7631 1.77824 15.1678 2.51253 15.1678ZM22.8989 15.1678C23.6332 15.1678 24.2284 15.7631 24.2284 16.4974V21.7863C24.2284 22.5206 23.6332 23.1159 22.8989 23.1159H17.6099C16.8756 23.1159 16.2804 22.5206 16.2804 21.7863C16.2804 21.052 16.8756 20.4568 17.6099 20.4568H21.5693V16.4974C21.5693 15.7631 22.1646 15.1678 22.8989 15.1678Z" fill="#6D75F4"/>
</g>
</g>
<defs>
<clipPath id="clip0_7323_143009">
<rect width="24" height="24" fill="white" transform="translate(0.75)"/>
</clipPath>
<clipPath id="clip1_7323_143009">
<rect width="24" height="24" fill="white" transform="translate(0.75)"/>
</clipPath>
</defs>
</svg>
