<svg width="24" height="24" viewBox="0 0 24 24" fill="none" xmlns="http://www.w3.org/2000/svg">
<g clip-path="url(#clip0_7702_145656)">
<path d="M15.5527 19.2388H8.44729C8.12571 19.2388 7.81731 19.111 7.58992 18.8836C7.36252 18.6563 7.23476 18.3478 7.23476 18.0263C7.23476 17.7047 7.36252 17.3963 7.58992 17.1689C7.81731 16.9415 8.12571 16.8137 8.44729 16.8137H15.5527C15.8743 16.8137 16.1827 16.9415 16.4101 17.1689C16.6375 17.3963 16.7652 17.7047 16.7652 18.0263C16.7652 18.1855 16.7339 18.3432 16.673 18.4903C16.612 18.6374 16.5227 18.7711 16.4101 18.8836C16.2975 18.9962 16.1639 19.0856 16.0167 19.1465C15.8696 19.2074 15.712 19.2388 15.5527 19.2388Z" fill="#6D75F4"/>
<path d="M19.1499 2.42506C19.7931 2.42506 20.4099 2.68055 20.8647 3.13534C21.3194 3.59013 21.5749 4.20695 21.5749 4.85012V19.1499C21.5749 19.7931 21.3194 20.4099 20.8647 20.8647C20.4099 21.3195 19.7931 21.5749 19.1499 21.5749H4.85012C4.20695 21.5749 3.59012 21.3195 3.13533 20.8647C2.68054 20.4099 2.42506 19.7931 2.42506 19.1499V4.85012C2.42506 4.20695 2.68054 3.59013 3.13533 3.13534C3.59012 2.68055 4.20695 2.42506 4.85012 2.42506H19.1499ZM19.1499 0H4.85012C3.56379 0 2.33014 0.510989 1.42056 1.42056C0.510989 2.33014 0 3.56379 0 4.85012V19.1499C0 20.4362 0.510989 21.6699 1.42056 22.5794C2.33014 23.489 3.56379 24 4.85012 24H19.1499C20.4362 24 21.6699 23.489 22.5794 22.5794C23.489 21.6699 24 20.4362 24 19.1499V4.85012C24 3.56379 23.489 2.33014 22.5794 1.42056C21.6699 0.510989 20.4362 0 19.1499 0Z" fill="#6D75F4"/>
<path d="M7.51772 4.49854H5.50088C5.05443 4.49854 4.69252 4.86045 4.69252 5.30689V7.32373C4.69252 7.77017 5.05443 8.13209 5.50088 8.13209H7.51772C7.96416 8.13209 8.32607 7.77017 8.32607 7.32373V5.30689C8.32607 4.86045 7.96416 4.49854 7.51772 4.49854Z" fill="#6D75F4"/>
<path d="M13.0266 4.49854H11.0098C10.5633 4.49854 10.2014 4.86045 10.2014 5.30689V7.32373C10.2014 7.77017 10.5633 8.13209 11.0098 8.13209H13.0266C13.4731 8.13209 13.835 7.77017 13.835 7.32373V5.30689C13.835 4.86045 13.4731 4.49854 13.0266 4.49854Z" fill="#6D75F4"/>
<path d="M18.5315 4.49854H16.5147C16.0682 4.49854 15.7063 4.86045 15.7063 5.30689V7.32373C15.7063 7.77017 16.0682 8.13209 16.5147 8.13209H18.5315C18.978 8.13209 19.3399 7.77017 19.3399 7.32373V5.30689C19.3399 4.86045 18.978 4.49854 18.5315 4.49854Z" fill="#6D75F4"/>
<path d="M7.51772 9.7527H5.50088C5.05443 9.7527 4.69252 10.1146 4.69252 10.5611V12.5779C4.69252 13.0243 5.05443 13.3863 5.50088 13.3863H7.51772C7.96416 13.3863 8.32607 13.0243 8.32607 12.5779V10.5611C8.32607 10.1146 7.96416 9.7527 7.51772 9.7527Z" fill="#6D75F4"/>
<path d="M13.0266 9.7527H11.0098C10.5633 9.7527 10.2014 10.1146 10.2014 10.5611V12.5779C10.2014 13.0243 10.5633 13.3863 11.0098 13.3863H13.0266C13.4731 13.3863 13.835 13.0243 13.835 12.5779V10.5611C13.835 10.1146 13.4731 9.7527 13.0266 9.7527Z" fill="#6D75F4"/>
<path d="M18.5315 9.7527H16.5147C16.0682 9.7527 15.7063 10.1146 15.7063 10.5611V12.5779C15.7063 13.0243 16.0682 13.3863 16.5147 13.3863H18.5315C18.978 13.3863 19.3399 13.0243 19.3399 12.5779V10.5611C19.3399 10.1146 18.978 9.7527 18.5315 9.7527Z" fill="#6D75F4"/>
</g>
<defs>
<clipPath id="clip0_7702_145656">
<rect width="24" height="24" fill="white"/>
</clipPath>
</defs>
</svg>
