<svg width="22" height="22" viewBox="0 0 22 22" fill="none" xmlns="http://www.w3.org/2000/svg">
<g clip-path="url(#clip0_7702_141736)">
<path d="M10.9947 22C17.0237 22 22 17.0213 22 11C22 4.97872 17.0131 0 10.9841 0C4.96568 0 0 4.97872 0 11C0 17.0213 4.97632 22 10.9947 22ZM10.9947 19.8085C6.11407 19.8085 2.2117 15.883 2.2117 11C2.2117 6.11702 6.11407 2.20213 10.9841 2.20213C15.8647 2.20213 19.7883 6.11702 19.7989 11C19.8096 15.883 15.8753 19.8085 10.9947 19.8085ZM10.9841 6.07447C11.5795 6.07447 12.0793 5.57447 12.0793 4.97872C12.0793 4.37234 11.5795 3.88298 10.9841 3.88298C10.378 3.88298 9.89947 4.37234 9.89947 4.97872C9.89947 5.57447 10.3886 6.07447 10.9841 6.07447ZM6.78395 7.92553C7.39004 7.92553 7.87917 7.42553 7.87917 6.82979C7.87917 6.23404 7.39004 5.73404 6.78395 5.73404C6.1885 5.73404 5.68874 6.23404 5.68874 6.82979C5.68874 7.42553 6.1885 7.92553 6.78395 7.92553ZM9.31464 12.6702C10.2185 13.5532 11.4625 13.3511 12.1856 12.3085L16.088 6.76596C16.5239 6.12766 15.8859 5.5 15.2586 5.92553L9.66554 9.78723C8.62349 10.5 8.43209 11.7553 9.31464 12.6702ZM5.01885 12.0957C5.62494 12.0957 6.11407 11.5957 6.11407 11C6.11407 10.3936 5.62494 9.90425 5.01885 9.90425C4.42339 9.90425 3.92363 10.3936 3.92363 11C3.92363 11.5957 4.42339 12.0957 5.01885 12.0957ZM16.9599 12.0957C17.5553 12.0957 18.0551 11.5957 18.0551 11C18.0551 10.3936 17.5553 9.90425 16.9599 9.90425C16.3538 9.90425 15.8647 10.3936 15.8647 11C15.8647 11.5957 16.3538 12.0957 16.9599 12.0957ZM6.80522 16.266C7.41131 16.266 7.90044 15.766 7.90044 15.1702C7.90044 14.5638 7.41131 14.0745 6.80522 14.0745C6.20976 14.0745 5.71001 14.5638 5.71001 15.1702C5.71001 15.766 6.20976 16.266 6.80522 16.266ZM15.1735 16.266C15.769 16.266 16.2687 15.766 16.2687 15.1702C16.2687 14.5638 15.769 14.0745 15.1735 14.0745C14.5674 14.0745 14.0783 14.5638 14.0783 15.1702C14.0783 15.766 14.5674 16.266 15.1735 16.266Z" fill="#6D75F4"/>
</g>
<defs>
<clipPath id="clip0_7702_141736">
<rect width="22" height="22" fill="white"/>
</clipPath>
</defs>
</svg>
