<svg width="26" height="26" viewBox="0 0 26 26" fill="none" xmlns="http://www.w3.org/2000/svg">
<path d="M4.01915 9.96147C6.24806 9.96147 8.05016 8.17923 8.05016 5.97487C8.05016 3.78224 6.24806 2 4.01915 2C1.8021 2 0 3.78224 0 5.97487C0 8.17923 1.8021 9.96147 4.01915 9.96147ZM21.969 9.96147C24.1979 9.96147 26 8.17923 26 5.97487C26 3.78224 24.1979 2 21.969 2C19.7519 2 17.9498 3.78224 17.9498 5.97487C17.9498 8.17923 19.7519 9.96147 21.969 9.96147ZM10.0064 7.08878C10.5636 7.08878 11.026 6.61977 11.026 6.05695C11.026 5.51759 10.5636 5.0603 10.0064 5.0603C9.4373 5.0603 8.97492 5.51759 8.97492 6.05695C8.97492 6.63149 9.4373 7.08878 10.0064 7.08878ZM12.9822 7.08878C13.5394 7.08878 14.0137 6.61977 14.0137 6.05695C14.0137 5.51759 13.5394 5.0603 12.9822 5.0603C12.425 5.0603 11.9508 5.51759 11.9508 6.05695C11.9508 6.61977 12.425 7.08878 12.9822 7.08878ZM15.9818 7.08878C16.5508 7.08878 17.0132 6.63149 17.0132 6.05695C17.0132 5.51759 16.5508 5.0603 15.9818 5.0603C15.4245 5.0603 14.9622 5.51759 14.9622 6.05695C14.9622 6.61977 15.4245 7.08878 15.9818 7.08878ZM18.8865 12.4003C19.4555 12.4003 19.9179 11.9313 19.9179 11.3685C19.9179 10.8291 19.4555 10.3601 18.8865 10.3601C18.3292 10.3601 17.8668 10.8291 17.8668 11.3685C17.8668 11.9313 18.3292 12.4003 18.8865 12.4003ZM7.10169 12.4003C7.65892 12.4003 8.12129 11.9313 8.12129 11.3685C8.12129 10.8291 7.65892 10.3601 7.10169 10.3601C6.5326 10.3601 6.07022 10.8291 6.07022 11.3685C6.07022 11.9313 6.5326 12.4003 7.10169 12.4003ZM16.6457 14.8392C17.2148 14.8392 17.6772 14.3702 17.6772 13.8074C17.6772 13.268 17.2148 12.8107 16.6457 12.8107C16.0885 12.8107 15.6261 13.268 15.6261 13.8074C15.6261 14.3819 16.0885 14.8392 16.6457 14.8392ZM9.34245 14.8392C9.89968 14.8392 10.3621 14.3702 10.3621 13.8074C10.3621 13.268 9.89968 12.8107 9.34245 12.8107C8.77337 12.8107 8.31099 13.268 8.31099 13.8074C8.31099 14.3819 8.77337 14.8392 9.34245 14.8392ZM12.9941 23C15.223 23 17.0251 21.2178 17.0251 19.0134C17.0251 16.8208 15.223 15.0385 12.9941 15.0385C10.777 15.0385 8.97492 16.8208 8.97492 19.0134C8.97492 21.2178 10.777 23 12.9941 23Z" fill="#6D75F4"/>
</svg>
