<svg width="21" height="21" viewBox="0 0 21 21" fill="none" xmlns="http://www.w3.org/2000/svg">
<path fill-rule="evenodd" clip-rule="evenodd" d="M8.91522 2.62321C5.44025 2.62321 2.62322 5.44023 2.62322 8.91519C2.62322 12.3902 5.44025 15.2072 8.91522 15.2072C12.3902 15.2072 15.2072 12.3902 15.2072 8.91519C15.2072 5.44023 12.3902 2.62321 8.91522 2.62321ZM0 8.91519C0 3.99147 3.99148 0 8.91522 0C13.839 0 17.8304 3.99147 17.8304 8.91519C17.8304 13.8389 13.839 17.8304 8.91522 17.8304C3.99148 17.8304 0 13.8389 0 8.91519Z" fill="#6D75F4"/>
<path fill-rule="evenodd" clip-rule="evenodd" d="M13.3646 13.3646C13.8768 12.8524 14.7072 12.8524 15.2195 13.3646L19.6187 17.7638C20.1309 18.276 20.1309 19.1065 19.6187 19.6187C19.1065 20.1309 18.276 20.1309 17.7638 19.6187L13.3646 15.2195C12.8523 14.7073 12.8523 13.8768 13.3646 13.3646Z" fill="#6D75F4"/>
</svg>
