<svg width="30" height="30" viewBox="0 0 30 30" fill="none" xmlns="http://www.w3.org/2000/svg">
<g clip-path="url(#clip0_6248_35713)">
<g clip-path="url(#clip1_6248_35713)">
<path d="M25.5714 13.7355L21.2857 18.0212H17L13.25 21.7712V18.0212H8.42857V1.94974H25.5714V13.7355Z" fill="#F5F5F5"/>
<path d="M7.35714 -0.193115L2 5.16403V24.4497H8.42857V29.8069L13.7857 24.4497H18.0714L27.7143 14.8069V-0.193115H7.35714ZM25.5714 13.7355L21.2857 18.0212H17L13.25 21.7712V18.0212H8.42857V1.94974H25.5714V13.7355Z" fill="#9146FF"/>
<path d="M22.3571 5.69974H20.2143V12.1283H22.3571V5.69974Z" fill="#9146FF"/>
<path d="M16.4643 5.69974H14.3214V12.1283H16.4643V5.69974Z" fill="#9146FF"/>
</g>
</g>
<defs>
<clipPath id="clip0_6248_35713">
<rect width="30" height="28.651" fill="white" transform="translate(0 0.481323)"/>
</clipPath>
<clipPath id="clip1_6248_35713">
<rect width="25.7143" height="30" fill="white" transform="translate(2 -0.193115)"/>
</clipPath>
</defs>
</svg>
