<svg width="24" height="24" viewBox="0 0 24 24" fill="none" xmlns="http://www.w3.org/2000/svg">
<g clip-path="url(#clip0_7707_137934)">
<path d="M9.56201 12C9.56201 13.3466 10.6534 14.438 12 14.438C13.3465 14.438 14.438 13.3466 14.438 12C14.438 10.6534 13.3465 9.56203 12 9.56203C10.6534 9.56203 9.56201 10.6534 9.56201 12Z" fill="#BCBED5"/>
<path fill-rule="evenodd" clip-rule="evenodd" d="M18.6911 15.6662C18.7455 15.7086 18.8 15.7509 18.8484 15.7993C19.3142 16.2652 19.3747 17.0153 18.9935 17.5538C18.5338 18.2011 17.6323 18.3161 17.0213 17.826C17.0092 17.8139 16.991 17.8018 16.9789 17.7897C16.8156 17.6506 16.5857 17.6385 16.4163 17.7655C15.1942 18.7033 13.6636 19.2598 11.9999 19.2598C10.3362 19.2598 8.81162 18.7033 7.5835 17.7655C7.4141 17.6385 7.17816 17.6445 7.02086 17.7897C7.00876 17.8018 6.99666 17.8079 6.98456 17.82H6.97851C6.37352 18.3161 5.46604 18.2011 5.00625 17.5538C4.62511 17.0153 4.68561 16.2712 5.15145 15.7993C5.19985 15.7509 5.2543 15.7025 5.30875 15.6662C5.47814 15.5452 5.53259 15.3153 5.44184 15.1278C4.9881 14.184 4.73401 13.1192 4.73401 12.0061C4.73401 10.8929 4.9881 9.8281 5.44184 8.87827C5.53259 8.69072 5.47209 8.46083 5.3027 8.33983C5.2906 8.32773 5.27245 8.31563 5.26035 8.30353C4.65536 7.81349 4.57671 6.90601 5.11515 6.31917C5.56284 5.82913 6.30697 5.73839 6.85751 6.09533C6.91801 6.13163 6.97246 6.17398 7.02086 6.22238C7.17816 6.36152 7.4141 6.36757 7.5835 6.24053C8.80557 5.29675 10.3362 4.74016 11.9999 4.74016C13.6636 4.74016 15.1882 5.29675 16.4163 6.23448C16.5857 6.36757 16.8216 6.35547 16.9789 6.21028C16.991 6.19818 17.0031 6.19213 17.0152 6.18003H17.0213C17.6263 5.68394 18.5338 5.79888 18.9935 6.44622C19.3747 6.98466 19.3142 7.72879 18.8484 8.20068C18.8 8.24908 18.7455 8.29748 18.6911 8.33983C18.5217 8.46083 18.4672 8.69072 18.558 8.87827C19.0117 9.82205 19.2658 10.8868 19.2658 12C19.2658 13.1132 19.0117 14.178 18.558 15.1217C18.4672 15.3093 18.5277 15.5392 18.6971 15.6602L18.6911 15.6662ZM6.51267 12C6.51267 8.96902 8.96892 6.51277 11.9999 6.51277C15.0309 6.51277 17.4871 8.96902 17.4871 12C17.4871 15.031 15.0309 17.4872 11.9999 17.4872C8.96892 17.4872 6.51267 15.031 6.51267 12Z" fill="#BCBED5"/>
<rect x="0.75" y="0.75" width="22.5" height="22.5" rx="4" stroke="#BCBED5" stroke-width="1.5"/>
</g>
<defs>
<clipPath id="clip0_7707_137934">
<rect width="24" height="24" fill="white"/>
</clipPath>
</defs>
</svg>
