<svg width="22" height="20" viewBox="0 0 22 20" fill="none" xmlns="http://www.w3.org/2000/svg">
<g clip-path="url(#clip0_7702_134418)">
<path fill-rule="evenodd" clip-rule="evenodd" d="M1.15676 17.3347L1.16211 17.3256L1.16728 17.3164L10.0534 1.5348C10.4823 0.821734 11.5177 0.821731 11.9466 1.5348L20.8327 17.3164L20.8379 17.3256L20.8432 17.3347C21.2779 18.07 20.7481 19 19.8921 19H2.10789C1.25195 19 0.722093 18.07 1.15676 17.3347ZM12.812 1.03358C11.9973 -0.344524 10.0027 -0.344529 9.18802 1.03358L0.295913 16.8258C-0.533142 18.2283 0.478234 20 2.10789 20H19.8921C21.5218 20 22.5331 18.2283 21.7041 16.8258L12.812 1.03358ZM11.9804 11.6649C11.9686 12.3946 11.592 12.7846 10.9448 12.7846C10.2858 12.7846 9.90919 12.382 9.88566 11.6649L9.7209 7.05299C9.69737 6.31076 10.2034 5.78239 10.933 5.78239C11.6626 5.78239 12.1804 6.32334 12.1569 7.06557L11.9804 11.6649ZM12.3334 15.5648C12.3334 16.3699 11.7097 16.9612 10.9448 16.9612C10.1916 16.9612 9.55615 16.3573 9.55615 15.5648C9.55615 14.7722 10.1799 14.181 10.9448 14.181C11.7215 14.181 12.3334 14.7722 12.3334 15.5648Z" fill="#6D75F4"/>
</g>
<defs>
<clipPath id="clip0_7702_134418">
<rect width="22" height="20" fill="white"/>
</clipPath>
</defs>
</svg>
