<svg width="20" height="20" viewBox="0 0 20 20" fill="none" xmlns="http://www.w3.org/2000/svg">
<g clip-path="url(#clip0_7702_148139)">
<path d="M0 10.0101C0 10.4011 0.144926 10.7415 0.434783 11.0313C0.724639 11.3212 1.06505 11.4661 1.45602 11.4661H8.5541V18.544C8.5541 18.9484 8.69565 19.2922 8.97877 19.5753C9.26188 19.8584 9.60566 20 10.0101 20C10.4011 20 10.7415 19.8584 11.0313 19.5753C11.3212 19.2922 11.4661 18.9484 11.4661 18.544V11.4661H18.544C18.9484 11.4661 19.2922 11.3212 19.5753 11.0313C19.8584 10.7415 20 10.4011 20 10.0101C20 9.60566 19.8584 9.26188 19.5753 8.97877C19.2922 8.69565 18.9484 8.5541 18.544 8.5541H11.4661V1.45602C11.4661 1.06505 11.3212 0.724639 11.0313 0.434782C10.7415 0.144926 10.4011 0 10.0101 0C9.60566 0 9.26188 0.144926 8.97877 0.434782C8.69565 0.724639 8.5541 1.06505 8.5541 1.45602V8.5541H1.45602C1.06505 8.5541 0.724639 8.69565 0.434783 8.97877C0.144926 9.26188 0 9.60566 0 10.0101Z" fill="#6D75F4"/>
</g>
<defs>
<clipPath id="clip0_7702_148139">
<rect width="20" height="20" fill="white"/>
</clipPath>
</defs>
</svg>
