<svg width="25" height="25" viewBox="0 0 25 25" fill="none" xmlns="http://www.w3.org/2000/svg">
<path d="M7.38109 12.8504C7.38109 14.251 6.24568 15.3864 4.84509 15.3864C3.44449 15.3864 2.30908 14.251 2.30908 12.8504C2.30908 11.4498 3.44449 10.3144 4.84509 10.3144C6.24568 10.3144 7.38109 11.4498 7.38109 12.8504Z" fill="#6D75F4"/>
<path d="M14.989 12.8504C14.989 14.251 13.8536 15.3864 12.453 15.3864C11.0524 15.3864 9.91702 14.251 9.91702 12.8504C9.91702 11.4498 11.0524 10.3144 12.453 10.3144C13.8536 10.3144 14.989 11.4498 14.989 12.8504Z" fill="#6D75F4"/>
<path d="M22.5971 12.8504C22.5971 14.251 21.4617 15.3864 20.0611 15.3864C18.6605 15.3864 17.5251 14.251 17.5251 12.8504C17.5251 11.4498 18.6605 10.3144 20.0611 10.3144C21.4617 10.3144 22.5971 11.4498 22.5971 12.8504Z" fill="#6D75F4"/>
</svg>
