<svg width="24" height="24" viewBox="0 0 24 24" fill="none" xmlns="http://www.w3.org/2000/svg">
<g clip-path="url(#clip0_8710_210342)">
<path d="M0.980592 7.79969C1.6425 7.79969 1.97344 7.46449 1.97344 6.79407V3.89985C1.97344 3.26213 2.13687 2.78181 2.46374 2.45886C2.7906 2.13592 3.26047 1.97445 3.87334 1.97445H6.83963C7.50971 1.97445 7.84474 1.64333 7.84474 0.981093C7.84474 0.327028 7.50971 0 6.83963 0H3.84883C2.56588 0 1.60368 0.316808 0.962206 0.950435C0.320732 1.58406 0 2.5304 0 3.78947V6.79407C0 7.46449 0.326861 7.79969 0.980592 7.79969ZM23.0071 7.79969C23.6691 7.79969 24 7.46449 24 6.79407V3.78947C24 2.5304 23.6793 1.58406 23.0378 0.950435C22.3963 0.316808 21.4341 0 20.1512 0H17.1481C16.4862 0 16.1553 0.327028 16.1553 0.981093C16.1553 1.64333 16.4862 1.97445 17.1481 1.97445H20.1144C20.7191 1.97445 21.189 2.13592 21.524 2.45886C21.859 2.78181 22.0266 3.26213 22.0266 3.89985V6.79407C22.0266 7.46449 22.3534 7.79969 23.0071 7.79969ZM3.84883 24H6.83963C7.50971 24 7.84474 23.673 7.84474 23.0189C7.84474 22.3567 7.50971 22.0255 6.83963 22.0255H3.87334C3.26047 22.0255 2.7906 21.8641 2.46374 21.5411C2.13687 21.2182 1.97344 20.7379 1.97344 20.1002V17.2059C1.97344 16.5355 1.6425 16.2003 0.980592 16.2003C0.326861 16.2003 0 16.5355 0 17.2059V20.1983C0 21.4655 0.320732 22.4159 0.962206 23.0496C1.60368 23.6832 2.56588 24 3.84883 24ZM17.1481 24H20.1512C21.4341 24 22.3963 23.6832 23.0378 23.0496C23.6793 22.4159 24 21.4655 24 20.1983V17.2059C24 16.5355 23.6691 16.2003 23.0071 16.2003C22.3534 16.2003 22.0266 16.5355 22.0266 17.2059V20.1002C22.0266 20.7379 21.859 21.2182 21.524 21.5411C21.189 21.8641 20.7191 22.0255 20.1144 22.0255H17.1481C16.4862 22.0255 16.1553 22.3567 16.1553 23.0189C16.1553 23.673 16.4862 24 17.1481 24Z" fill="#6D75F4"/>
</g>
<defs>
<clipPath id="clip0_8710_210342">
<rect width="24" height="24" fill="white"/>
</clipPath>
</defs>
</svg>
