<svg width="24" height="24" viewBox="0 0 24 24" fill="none" xmlns="http://www.w3.org/2000/svg">
<g clip-path="url(#clip0_10541_514922)">
<circle cx="12" cy="12" r="11.25" stroke="#8E36B7" stroke-width="1.5"/>
<path d="M12.0076 18C13.1872 18 14.265 17.7615 15.2412 17.2844C16.2174 16.8073 17.0613 16.2263 17.7731 15.5413C18.4849 14.8563 19.034 14.1835 19.4204 13.5229C19.8068 12.8624 20 12.3547 20 12C20 11.6453 19.8068 11.1376 19.4204 10.4771C19.034 9.81651 18.4849 9.14373 17.7731 8.45872C17.0613 7.7737 16.2174 7.19266 15.2412 6.7156C14.265 6.23853 13.1872 6 12.0076 6C10.8383 6 9.76295 6.23853 8.7817 6.7156C7.80044 7.19266 6.95393 7.7737 6.24214 8.45872C5.53034 9.14373 4.97871 9.81651 4.58723 10.4771C4.19574 11.1376 4 11.6453 4 12C4 12.3547 4.19574 12.8624 4.58723 13.5229C4.97871 14.1835 5.53289 14.8563 6.24976 15.5413C6.96664 16.2263 7.81315 16.8073 8.78932 17.2844C9.7655 17.7615 10.8383 18 12.0076 18ZM12.0076 15.9266C11.3975 15.9266 10.8459 15.7462 10.3527 15.3853C9.85955 15.0245 9.46552 14.5474 9.17064 13.9541C8.87575 13.3609 8.72831 12.7095 8.72831 12C8.72831 11.2661 8.87575 10.6024 9.17064 10.0092C9.46552 9.4159 9.85955 8.94496 10.3527 8.59633C10.8459 8.24771 11.3975 8.07339 12.0076 8.07339C12.6076 8.07339 13.1541 8.24771 13.6473 8.59633C14.1405 8.94496 14.5345 9.4159 14.8294 10.0092C15.1242 10.6024 15.2717 11.2661 15.2717 12C15.2717 12.7095 15.1242 13.3609 14.8294 13.9541C14.5345 14.5474 14.1405 15.0245 13.6473 15.3853C13.1541 15.7462 12.6076 15.9266 12.0076 15.9266ZM12.0229 13.7982C12.4194 13.7982 12.7652 13.6177 13.0601 13.2569C13.3549 12.896 13.5024 12.4771 13.5024 12C13.5024 11.5229 13.3549 11.104 13.0601 10.7431C12.7652 10.3823 12.4194 10.2018 12.0229 10.2018C11.6161 10.2018 11.2628 10.3823 10.9628 10.7431C10.6629 11.104 10.5129 11.5229 10.5129 12C10.5129 12.4771 10.6629 12.896 10.9628 13.2569C11.2628 13.6177 11.6161 13.7982 12.0229 13.7982Z" fill="#8E36B7"/>
</g>
<defs>
<clipPath id="clip0_10541_514922">
<rect width="24" height="24" fill="white"/>
</clipPath>
</defs>
</svg>
