<svg width="25" height="24" viewBox="0 0 25 24" fill="none" xmlns="http://www.w3.org/2000/svg">
<path d="M12.1726 0C5.54862 0 0.178619 5.37 0.178619 11.994C0.178619 18.624 5.54862 23.994 12.1726 23.994C18.7966 23.994 24.1666 18.624 24.1666 11.994C24.1666 5.37 18.7966 0 12.1726 0ZM16.9426 9.552C16.9486 9.654 16.9486 9.762 16.9486 9.87C16.9486 13.122 14.4766 16.872 9.94662 16.872C8.55462 16.872 7.26462 16.464 6.17262 15.768C6.36462 15.786 6.56262 15.798 6.76062 15.798C7.91262 15.798 8.97462 15.408 9.82062 14.748C8.74062 14.724 7.83462 14.016 7.51662 13.038C7.66662 13.068 7.82262 13.08 7.98462 13.08C8.20662 13.08 8.42262 13.05 8.63262 12.996C7.50462 12.768 6.65862 11.772 6.65862 10.584C6.65862 10.572 6.65862 10.56 6.65862 10.548C6.98862 10.734 7.36662 10.848 7.76862 10.86C7.10862 10.416 6.67662 9.666 6.67662 8.808C6.67662 8.358 6.79662 7.938 7.01262 7.572C8.22462 9.06 10.0366 10.044 12.0826 10.146C12.0406 9.966 12.0166 9.774 12.0166 9.582C12.0166 8.226 13.1206 7.122 14.4766 7.122C15.1906 7.122 15.8266 7.422 16.2766 7.902C16.8346 7.788 17.3626 7.584 17.8366 7.302C17.6566 7.878 17.2666 8.358 16.7566 8.664C17.2546 8.604 17.7286 8.472 18.1726 8.274C17.8426 8.772 17.4226 9.204 16.9426 9.552Z" fill="#21A3F2"/>
</svg>
