<svg width="25" height="25" viewBox="0 0 25 25" fill="none" xmlns="http://www.w3.org/2000/svg">
<path d="M7.37572 8.85043C7.37572 10.251 6.24031 11.3864 4.83971 11.3864C3.43912 11.3864 2.30371 10.251 2.30371 8.85043C2.30371 7.44983 3.43912 6.31442 4.83971 6.31442C6.24031 6.31442 7.37572 7.44983 7.37572 8.85043Z" fill="#6D75F4"/>
<path d="M14.9837 8.85043C14.9837 10.251 13.8483 11.3864 12.4477 11.3864C11.0471 11.3864 9.91165 10.251 9.91165 8.85043C9.91165 7.44983 11.0471 6.31442 12.4477 6.31442C13.8483 6.31442 14.9837 7.44983 14.9837 8.85043Z" fill="#6D75F4"/>
<path d="M22.5917 8.85043C22.5917 10.251 21.4563 11.3864 20.0557 11.3864C18.6551 11.3864 17.5197 10.251 17.5197 8.85043C17.5197 7.44983 18.6551 6.31442 20.0557 6.31442C21.4563 6.31442 22.5917 7.44983 22.5917 8.85043Z" fill="#6D75F4"/>
</svg>
