<svg width="20" height="18" viewBox="0 0 20 18" fill="none" xmlns="http://www.w3.org/2000/svg">
<path fill-rule="evenodd" clip-rule="evenodd" d="M0 11.4629V14.4686C0 15.6458 0.303243 16.5286 0.909737 17.1172C1.51623 17.7057 2.42122 18 3.62473 18H16.3753C17.5883 18 18.4956 17.7057 19.0974 17.1172C19.6991 16.5286 20 15.6458 20 14.4686V11.4629H17.9531V14.3705C17.9531 14.903 17.8133 15.3024 17.5338 15.5687C17.2542 15.8349 16.8586 15.9681 16.3468 15.9681H3.65316C3.14143 15.9681 2.7458 15.8349 2.46624 15.5687C2.18668 15.3024 2.04691 14.903 2.04691 14.3705V11.4629H0Z" fill="#6D75F4"/>
<path d="M9.99289 -1.33514e-05C10.2677 -1.33514e-05 10.507 0.0957441 10.7107 0.287262C10.9145 0.478781 11.0163 0.71 11.0163 0.980928V8.91142L10.9311 10.593L11.5281 9.94842L13.0917 8.28082C13.2623 8.08463 13.4897 7.98653 13.774 7.98653C14.0393 7.98653 14.262 8.06828 14.4421 8.23177C14.6221 8.39526 14.7121 8.60312 14.7121 8.85537C14.7121 9.09827 14.6079 9.31781 14.3994 9.514L10.732 12.9753C10.6089 13.1061 10.488 13.1949 10.3696 13.2416C10.2511 13.2883 10.1256 13.3116 9.99289 13.3116C9.86969 13.3116 9.74887 13.2883 9.63042 13.2416C9.51196 13.1949 9.3864 13.1061 9.25373 12.9753L5.58635 9.514C5.38734 9.31781 5.28784 9.09827 5.28784 8.85537C5.28784 8.60312 5.37313 8.39526 5.54371 8.23177C5.71428 8.06828 5.93698 7.98653 6.21179 7.98653C6.49609 7.98653 6.72826 8.08463 6.90831 8.28082L8.47192 9.94842L9.06894 10.593L8.98365 8.91142V0.980928C8.98365 0.71 9.08552 0.478781 9.28926 0.287262C9.49301 0.0957441 9.72755 -1.33514e-05 9.99289 -1.33514e-05Z" fill="#6D75F4"/>
</svg>
