<svg width="21" height="27" viewBox="0 0 21 27" fill="none" xmlns="http://www.w3.org/2000/svg">
<g clip-path="url(#clip0_7798_142909)">
<path d="M20.4931 19.7348C20.3724 17.6507 19.2134 15.7902 17.0403 14.2124C16.3522 13.7178 15.2415 13.0113 13.7204 12.399L19.805 6.44091V5.60488C19.805 5.27519 19.5152 4.99259 19.1772 4.99259H7.85304V0L2.67387 1.05975V2.43742H3.33787C3.53103 2.43742 3.97772 2.50807 3.97772 3.06149V4.96904H1.04406C0.754319 4.96904 0.500793 5.21631 0.500793 5.49891V7.38291H3.98979V14.966C3.98979 16.3554 4.4727 17.5565 5.354 18.3454C6.24738 19.1461 7.51501 19.5111 8.98787 19.3934C9.61565 19.3463 10.2434 19.1225 10.8591 18.734C11.1972 18.5103 11.4024 18.157 11.4024 17.7684V16.2141L10.7505 16.638C9.95368 17.1561 9.26554 17.1444 9.26554 17.1444H9.2414C8.89129 17.1444 8.61362 17.0384 8.39631 16.8264C7.86512 16.2966 7.86512 15.2957 7.86512 15.2839V7.38291H14.8793L9.38627 12.7758V12.9407C9.3742 13.553 9.36213 14.0593 9.36213 14.2595C9.36213 14.3184 9.36213 14.3537 9.36213 14.3655C9.36213 14.601 9.53114 14.7894 9.7726 14.8129C15.326 15.7314 16.485 19.2167 16.485 19.8644V19.9115C16.485 19.935 16.7144 21.9839 15.5071 23.4086C14.8069 24.2211 13.7566 24.6921 12.3924 24.7745C12.3803 24.7745 11.5714 24.8099 10.7143 24.6803C9.91747 24.5626 9.33798 24.3624 9.03616 24.0916C9.56736 23.7266 9.86918 23.1731 9.86918 22.5255C9.86918 21.2067 8.96373 20.3589 7.57537 20.3589C6.31982 20.3589 5.29364 21.3245 5.28157 22.502C5.26949 22.7139 5.20913 24.0092 6.2836 25.1631C7.41843 26.3877 9.3742 27 12.0905 27C12.1871 27 12.2958 27 12.3924 27C15.1691 26.9529 17.2939 26.164 18.7064 24.6568C20.6621 22.5844 20.5052 19.8997 20.4931 19.7348Z" fill="#0D61FF"/>
</g>
<defs>
<clipPath id="clip0_7798_142909">
<rect width="20.0008" height="27" fill="white" transform="translate(0.5)"/>
</clipPath>
</defs>
</svg>
