<svg width="31" height="30" viewBox="0 0 31 30" fill="none" xmlns="http://www.w3.org/2000/svg">
<path d="M25.4931 20.7348C25.3724 18.6507 24.2134 16.7902 22.0403 15.2124C21.3522 14.7178 20.2415 14.0113 18.7204 13.399L24.805 7.44091V6.60488C24.805 6.27519 24.5152 5.99259 24.1772 5.99259H12.853V1L7.67387 2.05975V3.43742H8.33787C8.53103 3.43742 8.97772 3.50807 8.97772 4.06149V5.96904H6.04406C5.75432 5.96904 5.50079 6.21631 5.50079 6.49891V8.38291H8.98979V15.966C8.98979 17.3554 9.4727 18.5565 10.354 19.3454C11.2474 20.1461 12.515 20.5111 13.9879 20.3934C14.6157 20.3463 15.2434 20.1225 15.8591 19.734C16.1972 19.5103 16.4024 19.157 16.4024 18.7684V17.2141L15.7505 17.638C14.9537 18.1561 14.2655 18.1444 14.2655 18.1444H14.2414C13.8913 18.1444 13.6136 18.0384 13.3963 17.8264C12.8651 17.2966 12.8651 16.2957 12.8651 16.2839V8.38291H19.8793L14.3863 13.7758V13.9407C14.3742 14.553 14.3621 15.0593 14.3621 15.2595C14.3621 15.3184 14.3621 15.3537 14.3621 15.3655C14.3621 15.601 14.5311 15.7894 14.7726 15.8129C20.326 16.7314 21.485 20.2167 21.485 20.8644V20.9115C21.485 20.935 21.7144 22.9839 20.5071 24.4086C19.8069 25.2211 18.7566 25.6921 17.3924 25.7745C17.3803 25.7745 16.5714 25.8099 15.7143 25.6803C14.9175 25.5626 14.338 25.3624 14.0362 25.0916C14.5674 24.7266 14.8692 24.1731 14.8692 23.5255C14.8692 22.2067 13.9637 21.3589 12.5754 21.3589C11.3198 21.3589 10.2936 22.3245 10.2816 23.502C10.2695 23.7139 10.2091 25.0092 11.2836 26.1631C12.4184 27.3877 14.3742 28 17.0905 28C17.1871 28 17.2958 28 17.3924 28C20.1691 27.9529 22.2939 27.164 23.7064 25.6568C25.6621 23.5844 25.5052 20.8997 25.4931 20.7348Z" fill="#0D61FF"/>
</svg>
