<svg width="24" height="23" viewBox="0 0 24 23" fill="none" xmlns="http://www.w3.org/2000/svg">
<path d="M14.5994 20.9476V15.7479C14.5994 15.5181 14.5081 15.2977 14.3456 15.1352C14.183 14.9726 13.9626 14.8813 13.7328 14.8813H10.2663C10.0365 14.8813 9.81605 14.9726 9.65352 15.1352C9.491 15.2977 9.3997 15.5181 9.3997 15.7479V20.9476C9.3997 21.1775 9.3084 21.3979 9.14587 21.5604C8.98335 21.7229 8.76293 21.8142 8.53309 21.8142H3.33341C3.10357 21.8142 2.88314 21.7229 2.72062 21.5604C2.5581 21.3979 2.4668 21.1775 2.4668 20.9476V10.9274C2.46874 10.8075 2.49466 10.6891 2.54303 10.5794C2.5914 10.4696 2.66124 10.3706 2.74845 10.2883L11.4146 2.41294C11.5743 2.26679 11.783 2.18573 11.9995 2.18573C12.2161 2.18573 12.4247 2.26679 12.5845 2.41294L21.2506 10.2883C21.3378 10.3706 21.4077 10.4696 21.456 10.5794C21.5044 10.6891 21.5303 10.8075 21.5323 10.9274V20.9476C21.5323 21.1775 21.441 21.3979 21.2785 21.5604C21.1159 21.7229 20.8955 21.8142 20.6657 21.8142H15.466C15.2361 21.8142 15.0157 21.7229 14.8532 21.5604C14.6907 21.3979 14.5994 21.1775 14.5994 20.9476Z" stroke="#BCBED5" stroke-width="2.16653" stroke-linecap="round" stroke-linejoin="round"/>
</svg>
