<svg width="22" height="22" viewBox="0 0 22 22" fill="none" xmlns="http://www.w3.org/2000/svg">
<g clip-path="url(#clip0_7702_143722)">
<path fill-rule="evenodd" clip-rule="evenodd" d="M4.07268 0.501043C4.36973 0.186686 4.78367 0 5.22664 0H16.7815C17.2245 0 17.6385 0.186685 17.9355 0.501043C18.2309 0.813701 18.3888 1.22757 18.3888 1.64933V3.4045H20.3928C20.8476 3.4045 21.2647 3.60391 21.5582 3.92663C21.8492 4.24656 22 4.66395 22 5.08361V6.67171C22 7.72315 21.6209 8.74645 20.9236 9.51312C20.2238 10.2826 19.2556 10.733 18.2262 10.733H17.479C17.1436 11.3759 16.7221 11.968 16.2253 12.4901C15.5366 13.214 14.7165 13.7893 13.8111 14.1804C13.1951 14.4465 12.5485 14.6233 11.8892 14.707V20.2299H14.9433C15.4321 20.2299 15.8283 20.6261 15.8283 21.1149C15.8283 21.6037 15.4321 22 14.9433 22H7.0649C6.5761 22 6.17985 21.6037 6.17985 21.1149C6.17985 20.6261 6.5761 20.2299 7.0649 20.2299H10.1191V14.707C7.69922 14.3998 5.67666 12.8563 4.55886 10.733H3.77379C2.74436 10.733 1.77621 10.2826 1.07639 9.51312C0.379108 8.74645 0 7.72315 0 6.67171V5.08361C0 4.66395 0.150848 4.24656 0.441821 3.92663C0.735336 3.60391 1.15242 3.4045 1.60724 3.4045H3.6194V1.64933C3.6194 1.22757 3.77725 0.813699 4.07268 0.501043ZM3.6194 5.17462H1.77012V6.67171C1.77012 7.30503 1.9997 7.89749 2.38591 8.32213C2.76957 8.74397 3.27094 8.96286 3.77379 8.96286H3.87736C3.70893 8.30612 3.6194 7.61834 3.6194 6.91327V5.17462ZM10.966 12.9927C11.6992 12.998 12.4274 12.8499 13.1092 12.5554C13.7913 12.2608 14.415 11.8248 14.9429 11.2699C15.471 10.715 15.8925 10.0522 16.1811 9.31866C16.4696 8.58503 16.6187 7.79662 16.6187 6.99925V1.77012H5.38951V6.91327C5.38951 10.2813 7.92736 12.9684 10.966 12.9927ZM18.1488 8.96286H18.2262C18.7291 8.96286 19.2304 8.74397 19.6141 8.32213C20.0003 7.89749 20.2299 7.30503 20.2299 6.67171V5.17462H18.3888V6.99925C18.3888 7.66293 18.3079 8.32281 18.1488 8.96286Z" fill="#6D75F4"/>
</g>
<defs>
<clipPath id="clip0_7702_143722">
<rect width="22" height="22" fill="white"/>
</clipPath>
</defs>
</svg>
