<svg width="16" height="16" viewBox="0 0 16 16" fill="none" xmlns="http://www.w3.org/2000/svg">
<path fill-rule="evenodd" clip-rule="evenodd" d="M7.04004 15.04C7.04004 15.5702 6.61023 16 6.08003 16H1.60001C1.17566 16 0.76869 15.8314 0.468631 15.5314C0.168568 15.2313 0 14.8243 0 14.4V1.6C0 1.17566 0.168568 0.76869 0.468631 0.46863C0.768691 0.16857 1.17566 0 1.60001 0H6.08003C6.61023 0 7.04004 0.429807 7.04004 0.96C7.04004 1.49019 6.61023 1.92 6.08003 1.92H1.92001L1.92001 14.08H6.08003C6.61023 14.08 7.04004 14.5098 7.04004 15.04ZM10.1189 12.0388C9.74395 12.4137 9.13611 12.4137 8.7612 12.0388L5.40119 8.67881C5.02628 8.30391 5.02628 7.69607 5.40119 7.32117L8.7612 3.96117C9.13611 3.58627 9.74395 3.58627 10.1189 3.96117C10.4938 4.33607 10.4938 4.94391 10.1189 5.31881L8.39767 7.03999L15.04 7.03999C15.5702 7.03999 16 7.4698 16 7.99999C16 8.53019 15.5702 8.95999 15.04 8.95999L8.39767 8.95999L10.1189 10.6812C10.4938 11.0561 10.4938 11.6639 10.1189 12.0388Z" fill="#6D75F4"/>
</svg>
