<svg width="31" height="30" viewBox="0 0 31 30" fill="none" xmlns="http://www.w3.org/2000/svg">
<g clip-path="url(#clip0_9426_357089)">
<path d="M30.5 5.84083C29.3958 6.32358 28.2097 6.64844 26.9648 6.79497C28.2362 6.04529 29.2112 4.8583 29.6704 3.44299C28.482 4.13702 27.1644 4.64135 25.7613 4.91396C24.6387 3.73605 23.0395 3 21.2696 3C17.8705 3 15.1152 5.71362 15.1152 9.05878C15.1152 9.53358 15.1706 9.99702 15.2744 10.4389C10.1596 10.1867 5.62519 7.7741 2.58838 4.10748C2.05994 5.00256 1.75649 6.04302 1.75649 7.15505C1.75649 9.25642 2.84222 11.1113 4.49331 12.1972C3.48488 12.1654 2.53531 11.8928 1.70572 11.4396C1.70572 11.4657 1.70572 11.4896 1.70572 11.5157C1.70572 14.4519 3.82641 16.9009 6.64284 17.4563C6.12709 17.5949 5.5825 17.6687 5.0206 17.6687C4.62484 17.6687 4.23832 17.6301 3.86333 17.5608C4.64676 19.9678 6.91975 21.7204 9.61273 21.7693C7.50704 23.3947 4.85329 24.3636 1.96879 24.3636C1.47266 24.3636 0.982289 24.3352 0.5 24.2784C3.22413 25.997 6.45823 27 9.93464 27C21.2557 27 27.4447 17.7676 27.4447 9.76075C27.4447 9.49837 27.439 9.23711 27.4274 8.977C28.6308 8.12168 29.675 7.05509 30.5 5.84083Z" fill="white"/>
</g>
<defs>
<clipPath id="clip0_9426_357089">
<rect width="30" height="30" fill="white" transform="translate(0.5)"/>
</clipPath>
</defs>
</svg>
