<svg width="31" height="24" viewBox="0 0 31 24" fill="none" xmlns="http://www.w3.org/2000/svg">
<g clip-path="url(#clip0_7798_142920)">
<path d="M30.5 2.84083C29.3958 3.32358 28.2097 3.64844 26.9648 3.79497C28.2362 3.04529 29.2112 1.8583 29.6704 0.442993C28.482 1.13702 27.1644 1.64135 25.7613 1.91396C24.6387 0.73605 23.0395 0 21.2696 0C17.8705 0 15.1152 2.71362 15.1152 6.05878C15.1152 6.53358 15.1706 6.99702 15.2744 7.43887C10.1596 7.18671 5.62519 4.7741 2.58838 1.10748C2.05994 2.00256 1.75649 3.04302 1.75649 4.15505C1.75649 6.25642 2.84222 8.11132 4.49331 9.19722C3.48488 9.16541 2.53531 8.8928 1.70572 8.43958C1.70572 8.46571 1.70572 8.48956 1.70572 8.51569C1.70572 11.4519 3.82641 13.9009 6.64284 14.4563C6.12709 14.5949 5.5825 14.6687 5.0206 14.6687C4.62484 14.6687 4.23832 14.6301 3.86333 14.5608C4.64676 16.9678 6.91975 18.7204 9.61273 18.7693C7.50704 20.3947 4.85329 21.3636 1.96879 21.3636C1.47266 21.3636 0.982289 21.3352 0.5 21.2784C3.22413 22.997 6.45823 24 9.93464 24C21.2557 24 27.4447 14.7676 27.4447 6.76075C27.4447 6.49837 27.439 6.23711 27.4274 5.977C28.6308 5.12168 29.675 4.05509 30.5 2.84083Z" fill="white"/>
</g>
<defs>
<clipPath id="clip0_7798_142920">
<rect width="30" height="24" fill="white" transform="translate(0.5)"/>
</clipPath>
</defs>
</svg>
