<svg width="24" height="24" viewBox="0 0 24 24" fill="none" xmlns="http://www.w3.org/2000/svg">
<path d="M11.9895 1C18.0505 1 23 6.02312 23 12.1272C23 15.0732 21.8465 17.8497 19.8332 19.9056L18.6378 18.5279C20.2526 16.8112 21.1964 14.501 21.1964 12.1272C21.1964 7.04046 17.0229 2.84393 11.9895 2.84393C6.95615 2.84393 2.8246 7.04046 2.8246 12.1272C2.8246 14.501 3.74738 16.8112 5.34128 18.5279L4.14585 19.9056C2.13251 17.8497 1 15.0732 1 12.1272C1 6.02312 5.94948 1 11.9895 1ZM11.9895 4.09441C16.3518 4.09441 19.959 7.71869 19.959 12.1272C19.959 14.1618 19.183 16.0906 17.8198 17.5954L16.5825 16.1965C17.5682 15.0944 18.1134 13.632 18.1134 12.1272C18.1134 8.73603 15.3451 5.91715 11.9895 5.91715C8.63394 5.91715 5.88656 8.73603 5.88656 12.1272C5.88656 13.632 6.41087 15.0732 7.3756 16.1965L6.1592 17.5954C4.77502 16.0906 4.04099 14.1618 4.04099 12.1272C4.04099 7.71869 7.62726 4.09441 11.9895 4.09441ZM11.9895 7.16763C14.674 7.16763 16.918 9.41426 16.918 12.1272C16.918 13.3141 16.4986 14.3738 15.7645 15.264L14.5272 13.8227C14.8837 13.3353 15.0724 12.7206 15.0724 12.1272C15.0724 10.4316 13.6883 9.01156 11.9895 9.01156C10.3117 9.01156 8.92755 10.4316 8.92755 12.1272C8.92755 12.7206 9.09533 13.3353 9.45186 13.8439L8.21449 15.264C7.50143 14.3738 7.08198 13.3353 7.08198 12.1272C7.08198 9.41426 9.30505 7.16763 11.9895 7.16763ZM5.7817 23C5.04767 23 4.69113 22.1734 5.1735 21.6224L11.3394 14.6069C11.6959 14.2042 12.3251 14.2042 12.6606 14.6069L18.8055 21.6224C19.2879 22.1734 18.9523 23 18.2183 23H5.7817Z" fill="#F6F6FA"/>
</svg>
