<svg width="24" height="24" viewBox="0 0 24 24" fill="none" xmlns="http://www.w3.org/2000/svg">
<g clip-path="url(#clip0_8518_210418)">
<path d="M8.62625 15.0136C9.1074 15.0136 9.54654 14.8997 9.94368 14.6721C10.3408 14.4444 10.6578 14.1409 10.8945 13.7615C11.1313 13.3821 11.2496 12.9684 11.2496 12.5203C11.2496 12.0723 11.1313 11.6603 10.8945 11.2846C10.6578 10.9088 10.3408 10.6089 9.94368 10.3848C9.54654 10.1608 9.1074 10.0488 8.62625 10.0488C8.14511 10.0488 7.70597 10.1608 7.30883 10.3848C6.91169 10.6089 6.59666 10.9088 6.36372 11.2846C6.13079 11.6603 6.01432 12.0723 6.01432 12.5203C6.01432 12.9684 6.13079 13.3821 6.36372 13.7615C6.59666 14.1409 6.91169 14.4444 7.30883 14.6721C7.70597 14.8997 8.14511 15.0136 8.62625 15.0136ZM3.59714 24H20.4029C21.5943 24 22.4916 23.7182 23.095 23.1545C23.6983 22.5908 24 21.7525 24 20.6396V9.50677C24 8.39385 23.6983 7.55556 23.095 6.99187C22.4916 6.42818 21.5943 6.14634 20.4029 6.14634H3.59714C2.39808 6.14634 1.49881 6.42637 0.899284 6.98645C0.299758 7.54652 0 8.38663 0 9.50677V20.6396C0 21.7597 0.299758 22.5998 0.899284 23.1599C1.49881 23.72 2.39808 24 3.59714 24ZM3.62005 22.2547C3.04725 22.2547 2.60812 22.1102 2.30263 21.8211C1.99713 21.5321 1.84439 20.542 1.84439 20.542V9.60434C1.84439 9.04065 1.99713 8.61427 2.30263 8.3252C2.60812 8.03613 3.04725 7.8916 3.62005 7.8916H20.3685C20.9337 7.8916 21.3728 8.03613 21.6859 8.3252C21.999 8.61427 22.1556 9.04065 22.1556 9.60434V20.542C22.1556 21.1057 21.999 21.5321 21.6859 21.8211C21.3728 22.1102 20.9337 22.2547 20.3685 22.2547H3.62005ZM2.41718 4.40108H21.5943C21.5026 3.90966 21.3212 3.53207 21.0501 3.26829C20.779 3.00452 20.357 2.87263 19.7842 2.87263H4.22721C3.65441 2.87263 3.23055 3.00452 2.95561 3.26829C2.68067 3.53207 2.50119 3.90966 2.41718 4.40108ZM4.77709 1.39837H19.2344C19.1962 0.93586 19.0377 0.587174 18.7589 0.352303C18.4802 0.117433 18.0773 0 17.5504 0H6.44964C5.92267 0 5.51981 0.117433 5.24105 0.352303C4.96229 0.587174 4.80764 0.93586 4.77709 1.39837Z" fill="#BCBED5"/>
<path d="M3.75744 23.0715H3.73191L3.70646 23.0736C3.55697 23.0858 3.4166 23.1006 3.27638 23.1153C3.06326 23.1378 2.8505 23.1602 2.60663 23.1736C2.22504 23.1945 1.89074 23.1817 1.62754 23.1108C1.37736 23.0435 1.23649 22.9376 1.15327 22.7922C1.07284 22.6516 0.9997 22.3927 1.0477 21.9255L5.02623 18.2813C5.22235 18.1212 5.40389 18.01 5.57016 17.9378C5.72767 17.8693 5.88179 17.8377 6.03716 17.8377C6.22334 17.8377 6.40099 17.8725 6.57451 17.9433L6.81043 17.3645L6.57451 17.9433C6.74924 18.0145 6.92893 18.126 7.11269 18.2882L7.11809 18.293L7.1236 18.2977L9.11692 19.9779L9.4675 20.2734L9.85463 20.0277L14.8379 16.8651L14.8723 16.8433L14.9036 16.8172C15.1167 16.6393 15.3194 16.5228 15.5108 16.4539C15.7101 16.3822 15.9264 16.3445 16.1641 16.3445C16.387 16.3445 16.6093 16.3834 16.834 16.4645L17.0457 15.8782L16.834 16.4645C17.048 16.5418 17.2433 16.6577 17.4224 16.8162L17.4354 16.8277L17.4489 16.8384L22.8964 21.1473C22.8185 21.7572 22.6015 22.1762 22.292 22.463C21.8905 22.8351 21.2502 23.0715 20.2653 23.0715H3.75744Z" fill="#BCBED5" stroke="#BCBED5" stroke-width="1.25"/>
</g>
<defs>
<clipPath id="clip0_8518_210418">
<rect width="24" height="24" fill="white"/>
</clipPath>
</defs>
</svg>
