<svg width="18" height="22" viewBox="0 0 18 22" fill="none" xmlns="http://www.w3.org/2000/svg">
<g clip-path="url(#clip0_8562_213618)">
<path d="M2.43267 13.8925H15.5673C16.3782 13.8925 16.9864 13.6953 17.3918 13.301C17.7973 12.9067 18 12.3182 18 11.5353V2.37441C18 1.58582 17.7973 0.992938 17.3918 0.595761C16.9864 0.198585 16.3782 0 15.5673 0H2.43267C1.62761 0 1.02091 0.200024 0.612543 0.600079C0.204179 1.00013 0 1.59157 0 2.37441V11.5353C0 12.3182 0.202721 12.9067 0.608167 13.301C1.01361 13.6953 1.62178 13.8925 2.43267 13.8925ZM2.45017 12.5801C2.08264 12.5801 1.80263 12.4865 1.61011 12.2994C1.4176 12.1124 1.32134 11.8318 1.32134 11.4576V2.44349C1.32134 2.07509 1.4176 1.79304 1.61011 1.59733C1.80263 1.40162 2.08264 1.30377 2.45017 1.30377H15.5586C15.9203 1.30377 16.1974 1.40162 16.3899 1.59733C16.5824 1.79304 16.6787 2.07509 16.6787 2.44349V11.4576C16.6787 11.8203 16.5824 12.098 16.3899 12.2908C16.1974 12.4836 15.9203 12.5801 15.5586 12.5801H2.45017ZM17.1687 11.1209L12.6621 6.93328C12.4929 6.78362 12.3092 6.66994 12.1108 6.59223C11.9125 6.51452 11.7112 6.47567 11.507 6.47567C11.3029 6.47567 11.1074 6.51308 10.9208 6.58791C10.7341 6.66274 10.5503 6.77499 10.3695 6.92465L6.93923 9.95526L5.53913 8.69466C5.38162 8.55076 5.21536 8.44283 5.04035 8.37088C4.86534 8.29893 4.68449 8.26295 4.49781 8.26295C4.33447 8.26295 4.17258 8.29893 4.01215 8.37088C3.85173 8.44283 3.68984 8.55076 3.52649 8.69466L0.647545 11.2677C0.67088 11.9411 0.824014 12.4491 1.10695 12.7916C1.38989 13.1341 1.81721 13.3053 2.38892 13.3053H15.1123C15.7948 13.3053 16.3082 13.1197 16.6524 12.7484C16.9966 12.3772 17.1687 11.8346 17.1687 11.1209ZM5.69665 7.01962C6.18668 7.01962 6.60817 6.8455 6.96111 6.49725C7.31405 6.149 7.49052 5.73025 7.49052 5.24097C7.49052 4.91863 7.40885 4.62363 7.2455 4.35597C7.08216 4.0883 6.86485 3.87533 6.59358 3.71703C6.32231 3.55874 6.02334 3.47959 5.69665 3.47959C5.36995 3.47959 5.07098 3.55874 4.79971 3.71703C4.52844 3.87533 4.31259 4.0883 4.15216 4.35597C3.99173 4.62363 3.91152 4.91863 3.91152 5.24097C3.91152 5.56908 3.99173 5.86695 4.15216 6.13461C4.31259 6.40228 4.52844 6.61669 4.79971 6.77786C5.07098 6.93904 5.36995 7.01962 5.69665 7.01962ZM0.656296 17.9505H17.335C17.5158 17.9505 17.6719 17.8872 17.8031 17.7606C17.9344 17.634 18 17.4785 18 17.2943C18 17.1159 17.9344 16.9634 17.8031 16.8367C17.6719 16.7101 17.5158 16.6468 17.335 16.6468H0.656296C0.475449 16.6468 0.320856 16.7101 0.192513 16.8367C0.0641704 16.9634 0 17.1159 0 17.2943C0 17.4785 0.0641704 17.634 0.192513 17.7606C0.320856 17.8872 0.475449 17.9505 0.656296 17.9505ZM0.656296 22H11.4458C11.6325 22 11.79 21.9381 11.9183 21.8144C12.0467 21.6906 12.1108 21.5366 12.1108 21.3524C12.1108 21.1682 12.0467 21.0128 11.9183 20.8862C11.79 20.7595 11.6325 20.6962 11.4458 20.6962H0.656296C0.475449 20.6962 0.320856 20.7595 0.192513 20.8862C0.0641704 21.0128 0 21.1682 0 21.3524C0 21.5366 0.0641704 21.6906 0.192513 21.8144C0.320856 21.9381 0.475449 22 0.656296 22Z" fill="#6D75F4"/>
</g>
<defs>
<clipPath id="clip0_8562_213618">
<rect width="18" height="22" fill="white"/>
</clipPath>
</defs>
</svg>
