<svg width="24" height="24" viewBox="0 0 24 24" fill="none" xmlns="http://www.w3.org/2000/svg">
<path d="M0.976933 11.4745C2.67029 12.0674 4.43961 12.5053 6.28494 12.7882C8.13027 13.0711 10.0353 13.2126 12 13.2126C13.9647 13.2126 15.8697 13.0711 17.7151 12.7882C19.5604 12.5053 21.3297 12.0674 23.0231 11.4745L22.9986 9.97898C21.3704 10.6042 19.6377 11.069 17.8005 11.3735C15.9634 11.678 14.0299 11.8302 12 11.8302C9.97014 11.8302 8.03664 11.678 6.19946 11.3735C4.36227 11.069 2.62959 10.5961 1.00136 9.95473L0.976933 11.4745ZM10.3881 15.0558H13.6119C13.9647 15.0558 14.2388 14.9601 14.4342 14.7688C14.6296 14.5775 14.7273 14.3067 14.7273 13.9563V12.4689H9.27273V13.9563C9.27273 14.3067 9.37042 14.5775 9.56581 14.7688C9.7612 14.9601 10.0353 15.0558 10.3881 15.0558ZM3.08548 22H20.9145C21.9457 22 22.7178 21.7494 23.2307 21.2482C23.7436 20.747 24 19.9898 24 18.9766V8.73403C24 7.71544 23.7436 6.95554 23.2307 6.45433C22.7178 5.95311 21.9457 5.70251 20.9145 5.70251H3.08548C2.0597 5.70251 1.28901 5.95311 0.773406 6.45433C0.257799 6.95554 0 7.71544 0 8.73403V18.9766C0 19.9898 0.257799 20.747 0.773406 21.2482C1.28901 21.7494 2.0597 22 3.08548 22ZM3.10176 20.5772C2.55359 20.5772 2.13976 20.4411 1.86024 20.169C1.58073 19.8968 1.44098 19.4778 1.44098 18.9119V8.79871C1.44098 8.23282 1.58073 7.81245 1.86024 7.53759C2.13976 7.26273 2.55359 7.1253 3.10176 7.1253H20.8982C21.4518 7.1253 21.867 7.26273 22.1438 7.53759C22.4206 7.81245 22.559 8.23282 22.559 8.79871V18.9119C22.559 19.4778 22.4206 19.8968 22.1438 20.169C21.867 20.4411 21.4518 20.5772 20.8982 20.5772H3.10176ZM6.77341 6.49475H8.16554V4.57074C8.16554 4.16653 8.28222 3.8553 8.5156 3.63702C8.74898 3.41875 9.07734 3.30962 9.50068 3.30962H14.4912C14.9199 3.30962 15.251 3.41875 15.4844 3.63702C15.7178 3.8553 15.8345 4.16653 15.8345 4.57074V6.47858H17.2266V4.66774C17.2266 3.76771 16.9878 3.09809 16.5102 2.65885C16.0326 2.21962 15.3514 2 14.4668 2H9.53324C8.68656 2 8.01493 2.21962 7.51832 2.65885C7.02171 3.09809 6.77341 3.76771 6.77341 4.66774V6.49475Z" fill="#6D75F4"/>
</svg>
