<svg width="24" height="16" viewBox="0 0 24 16" fill="none" xmlns="http://www.w3.org/2000/svg">
<path fill-rule="evenodd" clip-rule="evenodd" d="M7.97622 2.53867C5.9802 2.53867 4.3621 4.18673 4.3621 6.21972C4.3621 8.25271 5.9802 9.90078 7.97622 9.90078C9.97225 9.90078 11.5903 8.25271 11.5903 6.21972C11.5903 4.18673 9.97225 2.53867 7.97622 2.53867ZM1.8696 6.21972C1.8696 2.78467 4.60363 5.93158e-06 7.97622 5.93158e-06C11.3488 5.93158e-06 14.0828 2.78467 14.0828 6.21972C14.0828 9.65477 11.3488 12.4394 7.97622 12.4394C4.60363 12.4394 1.8696 9.65477 1.8696 6.21972Z" fill="#6D75F4"/>
<path fill-rule="evenodd" clip-rule="evenodd" d="M16.02 1.18632e-05L16.0238 0C17.6433 5.93158e-06 19.1966 0.655295 20.3418 1.82172C21.487 2.98814 22.1304 4.57015 22.1304 6.21972C22.1304 7.86929 21.487 9.4513 20.3418 10.6177C19.1966 11.7841 17.6433 12.4394 16.0238 12.4394C15.3355 12.4394 14.7775 11.8711 14.7775 11.1701C14.7775 10.4691 15.3355 9.90078 16.0238 9.90078C16.9823 9.90078 17.9015 9.51295 18.5793 8.82262C19.2571 8.13229 19.6379 7.196 19.6379 6.21972C19.6379 5.24344 19.2571 4.30715 18.5793 3.61682C17.902 2.92694 16.9835 2.53917 16.0256 2.53867C15.69 2.53988 15.356 2.58581 15.0321 2.67529C14.3678 2.85879 13.6832 2.45906 13.503 1.78247C13.3229 1.10589 13.7153 0.408645 14.3796 0.225143C14.9144 0.0774187 15.4659 0.00172996 16.02 1.18632e-05Z" fill="#6D75F4"/>
<path fill-rule="evenodd" clip-rule="evenodd" d="M7.97622 12.4394C6.85627 12.4394 5.75264 12.7136 4.75879 13.2394C3.76494 13.7653 2.90994 14.5271 2.26601 15.4604C1.87028 16.0339 1.09295 16.1721 0.529811 15.7691C-0.0333306 15.366 -0.16904 14.5743 0.226696 14.0007C1.1006 12.7341 2.26095 11.7003 3.60975 10.9866C4.95854 10.273 6.45628 9.90078 7.97622 9.90078C9.49616 9.90078 10.9937 10.273 12.3425 10.9866C13.6912 11.7003 14.8516 12.7341 15.7255 14.0007C16.1212 14.5743 15.9855 15.366 15.4224 15.7691C14.8592 16.1721 14.0819 16.0339 13.6862 15.4604C13.0423 14.5271 12.1873 13.7653 11.1934 13.2394C10.1996 12.7136 9.09618 12.4394 7.97622 12.4394Z" fill="#6D75F4"/>
<path fill-rule="evenodd" clip-rule="evenodd" d="M19.2418 13.2386C18.248 12.7128 17.1436 12.4387 16.0238 12.4394C15.3355 12.4394 14.7775 11.8711 14.7775 11.1701C14.7775 10.4691 15.3355 9.90078 16.0238 9.90078C17.5441 9.89982 19.0416 10.272 20.3907 10.9858C21.7398 11.6995 22.9003 12.7339 23.7737 14.0013C24.1691 14.5751 24.033 15.3667 23.4696 15.7695C22.9063 16.1723 22.129 16.0336 21.7336 15.4598C21.0902 14.5263 20.2355 13.7644 19.2418 13.2386Z" fill="#6D75F4"/>
</svg>
