<svg width="11" height="10" viewBox="0 0 11 10" fill="none" xmlns="http://www.w3.org/2000/svg">
<path fill-rule="evenodd" clip-rule="evenodd" d="M5.46157 9.93506C5.92181 9.93506 6.2949 9.56196 6.2949 9.10173V1.12673C6.2949 0.666489 5.92181 0.293392 5.46157 0.293392C5.00133 0.293392 4.62823 0.666489 4.62823 1.12673V9.10173C4.62823 9.56196 5.00133 9.93506 5.46157 9.93506Z" fill="#CC6483"/>
<path fill-rule="evenodd" clip-rule="evenodd" d="M4.87236 9.69098C5.19779 10.0164 5.72543 10.0164 6.05087 9.69098L9.8285 5.91335C10.1539 5.58791 10.1539 5.06028 9.8285 4.73484C9.50306 4.4094 8.97543 4.4094 8.64999 4.73484L5.46161 7.92321L2.27324 4.73484C1.9478 4.4094 1.42016 4.4094 1.09472 4.73484C0.769288 5.06028 0.769288 5.58791 1.09472 5.91335L4.87236 9.69098Z" fill="#CC6483"/>
</svg>
