<svg width="234" height="234" viewBox="0 0 234 234" fill="none" xmlns="http://www.w3.org/2000/svg">
<rect width="234" height="234" fill="#414040" fill-opacity="0.5"/>
<path d="M137 102.045C137 103.745 136.368 105.375 135.243 106.577C134.117 107.779 132.591 108.455 131 108.455C129.409 108.455 127.883 107.779 126.757 106.577C125.632 105.375 125 103.745 125 102.045C125 100.346 125.632 98.7155 126.757 97.5135C127.883 96.3116 129.409 95.6364 131 95.6364C132.591 95.6364 134.117 96.3116 135.243 97.5135C136.368 98.7155 137 100.346 137 102.045ZM169 78.5455V146.909V155.455C169 157.721 168.157 159.895 166.657 161.497C165.157 163.1 163.122 164 161 164H73C70.8783 164 68.8434 163.1 67.3431 161.497C65.8429 159.895 65 157.721 65 155.455V138.364V78.5455C65 76.2791 65.8429 74.1055 67.3431 72.5029C68.8434 70.9003 70.8783 70 73 70H161C163.122 70 165.157 70.9003 166.657 72.5029C168.157 74.1055 169 76.2791 169 78.5455ZM161 136.601V78.5455H73V128.056L91.35 108.455C92.8561 106.869 94.8856 105.981 97 105.981C99.1144 105.981 101.144 106.869 102.65 108.455L125 132.328L135.35 121.273C136.856 119.688 138.886 118.799 141 118.799C143.114 118.799 145.144 119.688 146.65 121.273L161 136.601Z" fill="#4E5066"/>
</svg>
