<svg width="26" height="22" viewBox="0 0 26 22" fill="none" xmlns="http://www.w3.org/2000/svg">
<g clip-path="url(#clip0_7795_142800)">
<path fill-rule="evenodd" clip-rule="evenodd" d="M1.78659 9.47121C8.76598 6.36618 13.4202 4.31963 15.7487 3.33058C22.3977 0.507154 23.7791 0.0162945 24.6793 0.000160636C24.8775 -0.00326169 25.32 0.0466064 25.6073 0.284214C25.8496 0.484664 25.9161 0.756007 25.9482 0.94619C25.9803 1.13637 26.02 1.57003 25.9884 1.90835C25.6284 5.77363 24.0693 15.1537 23.2759 19.483C22.9402 21.3149 22.2794 21.929 21.6397 21.9891C20.2492 22.1196 19.1939 21.0509 17.8469 20.1499C15.7396 18.7394 14.5492 17.8618 12.5042 16.4855C10.1402 14.8951 11.6729 14.021 13.0199 12.5924C13.3723 12.2184 19.4984 6.52947 19.6167 6.01319C19.6315 5.94866 19.6454 5.70812 19.5051 5.581C19.3648 5.45389 19.1584 5.4974 19.0095 5.53211C18.7984 5.581 15.4322 7.85294 8.91106 12.3474C7.9558 13.0172 7.09008 13.3438 6.31486 13.3267C5.46016 13.3076 3.81586 12.8334 2.59342 12.4276C1.09421 11.9299 -0.097591 11.6669 0.00631452 10.8216C0.060422 10.3816 0.654168 9.93127 1.78755 9.47121H1.78659Z" fill="white"/>
</g>
<defs>
<clipPath id="clip0_7795_142800">
<rect width="26" height="22" fill="white"/>
</clipPath>
</defs>
</svg>
