<svg width="30" height="30" viewBox="0 0 30 30" fill="none" xmlns="http://www.w3.org/2000/svg">
<path fill-rule="evenodd" clip-rule="evenodd" d="M3.78659 13.4712C10.766 10.3662 15.4202 8.31963 17.7487 7.33058C24.3977 4.50715 25.7791 4.01629 26.6793 4.00016C26.8775 3.99674 27.32 4.04661 27.6073 4.28421C27.8496 4.48466 27.9161 4.75601 27.9482 4.94619C27.9803 5.13637 28.02 5.57003 27.9884 5.90835C27.6284 9.77363 26.0693 19.1537 25.2759 23.483C24.9402 25.3149 24.2794 25.929 23.6397 25.9891C22.2492 26.1196 21.1939 25.0509 19.8469 24.1499C17.7396 22.7394 16.5492 21.8618 14.5042 20.4855C12.1402 18.8951 13.6729 18.021 15.0199 16.5924C15.3723 16.2184 21.4984 10.5295 21.6167 10.0132C21.6315 9.94866 21.6454 9.70812 21.5051 9.581C21.3648 9.45389 21.1584 9.4974 21.0095 9.53211C20.7984 9.581 17.4322 11.8529 10.9111 16.3474C9.9558 17.0172 9.09008 17.3438 8.31486 17.3267C7.46016 17.3076 5.81586 16.8334 4.59342 16.4276C3.09421 15.9299 1.90241 15.6669 2.00631 14.8216C2.06042 14.3816 2.65417 13.9313 3.78755 13.4712H3.78659Z" fill="white"/>
</svg>
