<svg width="24" height="24" viewBox="0 0 24 24" fill="none" xmlns="http://www.w3.org/2000/svg">
<path d="M2 12.0101C2 12.4011 2.14493 12.7415 2.43478 13.0313C2.72464 13.3212 3.06505 13.4661 3.45602 13.4661H10.5541V20.544C10.5541 20.9484 10.6957 21.2922 10.9788 21.5753C11.2619 21.8584 11.6057 22 12.0101 22C12.4011 22 12.7415 21.8584 13.0313 21.5753C13.3212 21.2922 13.4661 20.9484 13.4661 20.544V13.4661H20.544C20.9484 13.4661 21.2922 13.3212 21.5753 13.0313C21.8584 12.7415 22 12.4011 22 12.0101C22 11.6057 21.8584 11.2619 21.5753 10.9788C21.2922 10.6957 20.9484 10.5541 20.544 10.5541H13.4661V3.45602C13.4661 3.06505 13.3212 2.72464 13.0313 2.43478C12.7415 2.14493 12.4011 2 12.0101 2C11.6057 2 11.2619 2.14493 10.9788 2.43478C10.6957 2.72464 10.5541 3.06505 10.5541 3.45602V10.5541H3.45602C3.06505 10.5541 2.72464 10.6957 2.43478 10.9788C2.14493 11.2619 2 11.6057 2 12.0101Z" fill="#6D75F4"/>
</svg>
