<svg width="24" height="24" viewBox="0 0 24 24" fill="none" xmlns="http://www.w3.org/2000/svg">
<path fill-rule="evenodd" clip-rule="evenodd" d="M10.832 3.56201C6.85787 3.56201 3.63623 6.78365 3.63623 10.7577C3.63623 14.7318 6.85787 17.9535 10.832 17.9535C14.8061 17.9535 18.0277 14.7318 18.0277 10.7577C18.0277 6.78365 14.8061 3.56201 10.832 3.56201ZM0.63623 10.7577C0.63623 5.1268 5.20102 0.562012 10.832 0.562012C16.4629 0.562012 21.0277 5.1268 21.0277 10.7577C21.0277 16.3887 16.4629 20.9535 10.832 20.9535C5.20102 20.9535 0.63623 16.3887 0.63623 10.7577Z" fill="#6D75F4"/>
<path fill-rule="evenodd" clip-rule="evenodd" d="M15.9204 15.8462C16.5062 15.2604 17.4559 15.2604 18.0417 15.8462L23.0728 20.8773C23.6586 21.4631 23.6586 22.4129 23.0728 22.9987C22.487 23.5844 21.5373 23.5844 20.9515 22.9987L15.9204 17.9676C15.3346 17.3818 15.3346 16.432 15.9204 15.8462Z" fill="#6D75F4"/>
</svg>
