<svg width="25" height="26" viewBox="0 0 25 26" fill="none" xmlns="http://www.w3.org/2000/svg">
<g clip-path="url(#clip0_6329_60280)">
<path fill-rule="evenodd" clip-rule="evenodd" d="M11.1198 4.56201C7.14571 4.56201 3.92407 7.78365 3.92407 11.7577C3.92407 15.7318 7.14571 18.9535 11.1198 18.9535C15.0939 18.9535 18.3155 15.7318 18.3155 11.7577C18.3155 7.78365 15.0939 4.56201 11.1198 4.56201ZM0.924072 11.7577C0.924072 6.1268 5.48886 1.56201 11.1198 1.56201C16.7508 1.56201 21.3155 6.1268 21.3155 11.7577C21.3155 17.3887 16.7508 21.9535 11.1198 21.9535C5.48886 21.9535 0.924072 17.3887 0.924072 11.7577Z" fill="#6D75F4"/>
<path fill-rule="evenodd" clip-rule="evenodd" d="M16.2082 16.8462C16.794 16.2604 17.7437 16.2604 18.3295 16.8462L23.3606 21.8773C23.9464 22.4631 23.9464 23.4129 23.3606 23.9987C22.7748 24.5844 21.8251 24.5844 21.2393 23.9987L16.2082 18.9676C15.6224 18.3818 15.6224 17.432 16.2082 16.8462Z" fill="#6D75F4"/>
</g>
<defs>
<clipPath id="clip0_6329_60280">
<rect width="24.0034" height="24.0034" fill="white" transform="translate(0.360352 0.998291)"/>
</clipPath>
</defs>
</svg>
