<svg width="26" height="26" viewBox="0 0 26 26" fill="none" xmlns="http://www.w3.org/2000/svg">
<path d="M9.52337 16.0174C8.81557 16.0174 8.21246 15.781 7.71402 15.3082C7.21557 14.8355 6.96636 14.27 6.96636 13.6118C6.96636 12.9722 7.21557 12.4206 7.71402 11.9571C8.21246 11.4936 8.81557 11.2619 9.52337 11.2619C10.2312 11.2619 10.8318 11.4936 11.3252 11.9571C11.8187 12.4206 12.0654 12.9722 12.0654 13.6118C12.0654 14.27 11.8187 14.8355 11.3252 15.3082C10.8318 15.781 10.2312 16.0174 9.52337 16.0174ZM4.75327 22.9977C4.24486 22.9977 3.85109 22.8702 3.57196 22.6153C3.29283 22.3604 3.15327 21.9826 3.15327 21.482V20.2167L5.66542 18.2144C5.90467 18.0382 6.13645 17.9015 6.36075 17.8042C6.58505 17.7068 6.81682 17.6582 7.05608 17.6582C7.3053 17.6582 7.55202 17.7068 7.79626 17.8042C8.0405 17.9015 8.27726 18.0429 8.50654 18.2283L10.4654 19.8413L15.3402 15.8366C15.5794 15.6327 15.8336 15.4867 16.1028 15.3986C16.372 15.3105 16.6511 15.2665 16.9402 15.2665C17.2193 15.2665 17.4984 15.3129 17.7776 15.4056C18.0567 15.4983 18.3109 15.6466 18.5402 15.8505L22.8467 19.6605V21.482C22.8467 21.9826 22.7072 22.3604 22.428 22.6153C22.1489 22.8702 21.7551 22.9977 21.2467 22.9977H4.75327ZM4.6785 25H21.3364C22.5527 25 23.4673 24.7173 24.0804 24.1518C24.6935 23.5863 25 22.7474 25 21.635V10.7891C25 9.66743 24.6935 8.82619 24.0804 8.26535C23.4673 7.70452 22.5527 7.4241 21.3364 7.4241H4.6785C3.44236 7.4241 2.52025 7.70452 1.91215 8.26535C1.30405 8.82619 1 9.66743 1 10.7891V21.635C1 22.7567 1.30405 23.5979 1.91215 24.1587C2.52025 24.7196 3.44236 25 4.6785 25ZM3.16822 5.72769H22.8617C22.752 5.16222 22.5377 4.73117 22.2187 4.43453C21.8997 4.13789 21.4062 3.98957 20.7383 3.98957H5.29159C4.6137 3.98957 4.11527 4.13789 3.79626 4.43453C3.47726 4.73117 3.26791 5.16222 3.16822 5.72769ZM5.62056 2.58517H20.3944C20.3545 2.05678 20.1726 1.66049 19.8486 1.39629C19.5246 1.1321 19.0536 1 18.4355 1H7.57944C6.96137 1 6.49284 1.1321 6.17383 1.39629C5.85483 1.66049 5.67041 2.05678 5.62056 2.58517Z" fill="#8A90FF"/>
</svg>
