<svg width="32" height="33" viewBox="0 0 32 33" fill="none" xmlns="http://www.w3.org/2000/svg">
<g clip-path="url(#clip0_6919_86146)">
<path fill-rule="evenodd" clip-rule="evenodd" d="M10.4902 2.07176C11.1466 1.41538 12.0368 1.04663 12.9651 1.04663H18.9651C19.8933 1.04663 20.7836 1.41538 21.44 2.07176C22.0963 2.72813 22.4651 3.61837 22.4651 4.54663V6.04663H26.9651C27.7935 6.04663 28.4651 6.7182 28.4651 7.54663C28.4651 8.37506 27.7935 9.04663 26.9651 9.04663H26.4651V26.0466C26.4651 26.7097 26.2017 27.3456 25.7329 27.8144C25.264 28.2832 24.6281 28.5466 23.9651 28.5466H7.96509C7.30205 28.5466 6.66616 28.2832 6.19732 27.8144C5.72848 27.3456 5.46509 26.7097 5.46509 26.0466V9.04663H4.96509C4.13666 9.04663 3.46509 8.37506 3.46509 7.54663C3.46509 6.7182 4.13666 6.04663 4.96509 6.04663H9.46509V4.54663C9.46509 3.61837 9.83384 2.72813 10.4902 2.07176ZM8.46509 9.04663V25.5466H23.4651V9.04663H8.46509ZM19.4651 6.04663H12.4651V4.54663C12.4651 4.41402 12.5178 4.28685 12.6115 4.19308C12.7053 4.09931 12.8325 4.04663 12.9651 4.04663H18.9651C19.0977 4.04663 19.2249 4.09931 19.3186 4.19308C19.4124 4.28685 19.4651 4.41402 19.4651 4.54663V6.04663ZM12.9651 11.5466C13.7935 11.5466 14.4651 12.2182 14.4651 13.0466V21.0466C14.4651 21.8751 13.7935 22.5466 12.9651 22.5466C12.1367 22.5466 11.4651 21.8751 11.4651 21.0466V13.0466C11.4651 12.2182 12.1367 11.5466 12.9651 11.5466ZM18.9651 11.5466C19.7935 11.5466 20.4651 12.2182 20.4651 13.0466V21.0466C20.4651 21.8751 19.7935 22.5466 18.9651 22.5466C18.1367 22.5466 17.4651 21.8751 17.4651 21.0466V13.0466C17.4651 12.2182 18.1367 11.5466 18.9651 11.5466Z" fill="#6D75F4"/>
</g>
<defs>
<clipPath id="clip0_6919_86146">
<rect width="32" height="32" fill="white" transform="translate(0 0.0018158)"/>
</clipPath>
</defs>
</svg>
