<svg width="33" height="33" viewBox="0 0 33 33" fill="none" xmlns="http://www.w3.org/2000/svg">
<path fill-rule="evenodd" clip-rule="evenodd" d="M14.9173 2.12421C15.5106 1.53088 16.4726 1.53088 17.0659 2.12421L22.819 7.87727C23.4123 8.47059 23.4123 9.43256 22.819 10.0259C22.2256 10.6192 21.2637 10.6192 20.6703 10.0259L15.9916 5.34714L11.3128 10.0259C10.7195 10.6192 9.75755 10.6192 9.16422 10.0259C8.5709 9.43256 8.5709 8.47059 9.16422 7.87727L14.9173 2.12421Z" fill="#6D75F4"/>
<path fill-rule="evenodd" clip-rule="evenodd" d="M15.9916 1.67921C16.8307 1.67921 17.5109 2.35943 17.5109 3.19852V20.9773C17.5109 21.8164 16.8307 22.4966 15.9916 22.4966C15.1525 22.4966 14.4723 21.8164 14.4723 20.9773V3.19852C14.4723 2.35943 15.1525 1.67921 15.9916 1.67921Z" fill="#6D75F4"/>
<path fill-rule="evenodd" clip-rule="evenodd" d="M6.55277 14.3977H9.41675C10.2558 14.3977 10.9361 13.7174 10.9361 12.8784C10.9361 12.0393 10.2558 11.359 9.41675 11.359H6.12929C5.43571 11.359 4.77054 11.6346 4.28011 12.125C3.78968 12.6154 3.51416 13.2806 3.51416 13.9742V27.6719C3.51416 28.3655 3.78968 29.0307 4.28011 29.5211C4.77054 30.0115 5.43571 30.2871 6.12929 30.2871H25.8541C26.5476 30.2871 27.2128 30.0115 27.7032 29.5211C28.1937 29.0307 28.4692 28.3655 28.4692 27.6719V13.9742C28.4692 13.2806 28.1937 12.6154 27.7032 12.125C27.2128 11.6346 26.5476 11.359 25.8541 11.359H22.5666C21.7275 11.359 21.0473 12.0393 21.0473 12.8784C21.0473 13.7174 21.7275 14.3977 22.5666 14.3977H25.4306V27.2484H6.55277V14.3977Z" fill="#6D75F4"/>
</svg>
