<svg width="25" height="25" viewBox="0 0 25 25" fill="none" xmlns="http://www.w3.org/2000/svg">
<g clip-path="url(#clip0_6801_85690)">
<circle cx="12.9789" cy="12.2797" r="12.0297" fill="#0D61FF"/>
<path d="M18.1438 15.7618C18.0794 14.6217 17.461 13.6041 16.3017 12.741C15.9345 12.4704 15.342 12.084 14.5304 11.7491L17.7767 8.48993V8.03262C17.7767 7.85227 17.6221 7.69769 17.4417 7.69769H11.4001V4.96671L8.63691 5.5464V6.29999H8.99117C9.09422 6.29999 9.33254 6.33864 9.33254 6.64137V7.6848H7.76738C7.6128 7.6848 7.47754 7.82006 7.47754 7.97465V9.0052H9.33898V13.1532C9.33898 13.9132 9.59662 14.5702 10.0668 15.0017C10.5434 15.4397 11.2197 15.6394 12.0055 15.575C12.3405 15.5492 12.6754 15.4269 13.0039 15.2143C13.1842 15.0919 13.2937 14.8987 13.2937 14.6861V13.8359L12.9459 14.0678C12.5208 14.3512 12.1537 14.3448 12.1537 14.3448H12.1408C11.954 14.3448 11.8059 14.2868 11.6899 14.1709C11.4065 13.881 11.4065 13.3335 11.4065 13.3271V9.0052H15.1487L12.2181 11.9552V12.0453C12.2117 12.3803 12.2052 12.6572 12.2052 12.7667C12.2052 12.7989 12.2052 12.8183 12.2052 12.8247C12.2052 12.9535 12.2954 13.0566 12.4242 13.0695C15.3871 13.5719 16.0054 15.4784 16.0054 15.8326V15.8584C16.0054 15.8713 16.1278 16.992 15.4837 17.7714C15.1101 18.2158 14.5497 18.4734 13.8219 18.5185C13.8155 18.5185 13.3839 18.5378 12.9266 18.467C12.5015 18.4026 12.1923 18.2931 12.0313 18.1449C12.3147 17.9453 12.4757 17.6425 12.4757 17.2883C12.4757 16.5669 11.9927 16.1032 11.2519 16.1032C10.5821 16.1032 10.0346 16.6313 10.0282 17.2754C10.0217 17.3914 9.98952 18.0999 10.5628 18.7311C11.1682 19.4009 12.2117 19.7359 13.6609 19.7359C13.7124 19.7359 13.7704 19.7359 13.8219 19.7359C15.3033 19.7101 16.4369 19.2786 17.1905 18.4541C18.234 17.3205 18.1502 15.852 18.1438 15.7618Z" fill="#F5F5F5"/>
</g>
<defs>
<clipPath id="clip0_6801_85690">
<rect width="24" height="24" fill="white" transform="translate(0.948242 0.249023)"/>
</clipPath>
</defs>
</svg>
