<svg width="30" height="30" viewBox="0 0 30 30" fill="none" xmlns="http://www.w3.org/2000/svg">
<g clip-path="url(#clip0_7795_142838)">
<path d="M8.74756 0C3.92381 0 0 3.92744 0 8.75243V21.2524C0 26.0762 3.92744 30 8.75244 30H21.2524C26.0762 30 30 26.0725 30 21.2475V8.74755C30 3.9238 26.0726 0 21.2476 0H8.74756ZM23.75 4.99999C24.44 4.99999 25 5.55999 25 6.24999C25 6.93999 24.44 7.49999 23.75 7.49999C23.06 7.49999 22.5 6.93999 22.5 6.24999C22.5 5.55999 23.06 4.99999 23.75 4.99999ZM15 7.49999C19.1362 7.49999 22.5 10.8637 22.5 15C22.5 19.1362 19.1362 22.5 15 22.5C10.8638 22.5 7.5 19.1362 7.5 15C7.5 10.8637 10.8638 7.49999 15 7.49999ZM15 9.99999C13.6739 9.99999 12.4021 10.5268 11.4645 11.4645C10.5268 12.4021 10 13.6739 10 15C10 16.3261 10.5268 17.5978 11.4645 18.5355C12.4021 19.4732 13.6739 20 15 20C16.3261 20 17.5979 19.4732 18.5355 18.5355C19.4732 17.5978 20 16.3261 20 15C20 13.6739 19.4732 12.4021 18.5355 11.4645C17.5979 10.5268 16.3261 9.99999 15 9.99999Z" fill="white"/>
</g>
<defs>
<clipPath id="clip0_7795_142838">
<rect width="30" height="30" fill="white"/>
</clipPath>
</defs>
</svg>
