<svg width="22" height="22" viewBox="0 0 22 22" fill="none" xmlns="http://www.w3.org/2000/svg">
<path d="M5.60368 20.6708C5.12872 20.9291 4.59092 20.4776 4.68654 19.9009L5.70633 13.7504L1.37715 9.38523C0.972567 8.97729 1.182 8.23139 1.72401 8.14993L7.74456 7.24497L10.429 1.61848C10.6708 1.11163 11.3259 1.11163 11.5677 1.61848L14.2521 7.24497L20.2727 8.14993C20.8147 8.23139 21.0241 8.97729 20.6195 9.38523L16.2903 13.7504L17.3101 19.9009C17.4057 20.4776 16.8679 20.9291 16.393 20.6708L10.9983 17.737L5.60368 20.6708Z" fill="#656DE6" fill-opacity="0.75"/>
<path fill-rule="evenodd" clip-rule="evenodd" d="M10.9983 3.17304L8.51402 8.38009L2.9119 9.22215L6.96737 13.3113L6.01509 19.0547L10.9983 16.3446L15.9816 19.0547L15.0293 13.3113L19.0848 9.22215L13.4826 8.38009L10.9983 3.17304ZM9.38421 1.06041C10.0588 -0.353471 11.9379 -0.353471 12.6125 1.06041L15.0216 6.10985L20.4373 6.92389C22.0226 7.16218 22.4839 9.21591 21.4269 10.2817L17.5514 14.1895L18.4629 19.687C18.7037 21.1396 17.3037 22.5583 15.858 21.7721L10.9983 19.1293L6.13869 21.7721C4.693 22.5583 3.29293 21.1396 3.53379 19.687L4.4453 14.1895L0.56975 10.2817C-0.487259 9.21591 -0.0258923 7.16218 1.5594 6.92389L6.9751 6.10985L9.38421 1.06041Z" fill="#6D75F4"/>
</svg>
