<svg width="25" height="25" viewBox="0 0 25 25" fill="none" xmlns="http://www.w3.org/2000/svg">
<path d="M12.6559 7.73921C11.2553 7.73921 10.1199 6.60381 10.1199 5.20321C10.1199 3.80261 11.2553 2.66721 12.6559 2.66721C14.0565 2.66721 15.1919 3.80261 15.1919 5.20321C15.1919 6.60381 14.0565 7.73921 12.6559 7.73921Z" fill="#6D75F4"/>
<path d="M12.6559 15.3472C11.2553 15.3472 10.1199 14.2117 10.1199 12.8111C10.1199 11.4106 11.2553 10.2751 12.6559 10.2751C14.0565 10.2751 15.1919 11.4106 15.1919 12.8111C15.1919 14.2117 14.0565 15.3472 12.6559 15.3472Z" fill="#6D75F4"/>
<path d="M12.6559 22.9552C11.2553 22.9552 10.1199 21.8198 10.1199 20.4192C10.1199 19.0186 11.2553 17.8832 12.6559 17.8832C14.0565 17.8832 15.1919 19.0186 15.1919 20.4192C15.1919 21.8198 14.0565 22.9552 12.6559 22.9552Z" fill="#6D75F4"/>
</svg>
