<svg width="24" height="24" viewBox="0 0 24 24" fill="none" xmlns="http://www.w3.org/2000/svg">
<g clip-path="url(#clip0_15280_86018)">
<path d="M11.5864 19.875C12.2456 19.875 12.729 19.3828 12.729 18.7324V5.31152C12.729 4.65234 12.2456 4.125 11.5688 4.125C11.1206 4.125 10.8042 4.31836 10.3208 4.77539L6.64697 8.21191C6.59424 8.26465 6.52393 8.29102 6.44482 8.29102H3.95752C2.65674 8.29102 1.95361 9.01172 1.95361 10.374V13.6436C1.95361 15.0059 2.65674 15.7266 3.95752 15.7266H6.44482C6.52393 15.7266 6.58545 15.7529 6.64697 15.8057L10.3208 19.2686C10.7603 19.6904 11.1294 19.875 11.5864 19.875ZM19.3999 18.2666C19.8042 18.5127 20.2964 18.4248 20.5776 18.0117C21.7202 16.3945 22.3882 14.2236 22.3882 11.9912C22.3882 9.75879 21.729 7.5791 20.5776 5.9707C20.2964 5.55762 19.8042 5.46094 19.3999 5.71582C18.978 5.97949 18.9165 6.50684 19.2329 6.97266C20.1646 8.34375 20.7007 10.1279 20.7007 11.9912C20.7007 13.8457 20.1558 15.6299 19.2329 17.0098C18.9253 17.4756 18.978 17.9941 19.3999 18.2666ZM15.8667 15.9111C16.2446 16.1572 16.7368 16.0693 17.0093 15.6826C17.7212 14.7334 18.1431 13.3887 18.1431 11.9912C18.1431 10.5938 17.7212 9.25781 17.0093 8.2998C16.7368 7.91309 16.2446 7.8252 15.8667 8.08008C15.436 8.36133 15.3481 8.87988 15.6997 9.38965C16.1831 10.084 16.4556 11.0156 16.4556 11.9912C16.4556 12.9668 16.1743 13.8896 15.6997 14.5928C15.3569 15.1025 15.436 15.6211 15.8667 15.9111Z" fill="#BCBED5"/>
</g>
<defs>
<clipPath id="clip0_15280_86018">
<rect width="24" height="24" fill="white"/>
</clipPath>
</defs>
</svg>
