<svg width="26" height="26" viewBox="0 0 26 26" fill="none" xmlns="http://www.w3.org/2000/svg">
<path fill-rule="evenodd" clip-rule="evenodd" d="M9.47013 6.93947C9.62645 7.03435 9.81006 7.08877 10.0064 7.08877C10.2245 7.08877 10.4281 7.01691 10.5951 6.89569C10.8547 6.70722 11.026 6.39946 11.026 6.05695C11.026 5.72619 10.8521 5.4263 10.5891 5.2438C10.4232 5.1287 10.2219 5.0603 10.0064 5.0603C9.82017 5.0603 9.64539 5.10926 9.49449 5.19403C9.20317 5.35769 9.00087 5.65482 8.97723 5.99087C8.97569 6.01274 8.97491 6.03477 8.97491 6.05695C8.97491 6.43329 9.17331 6.75932 9.47013 6.93947ZM12.3896 5.24791C12.1264 5.43078 11.9507 5.72866 11.9507 6.05695C11.9507 6.39695 12.1238 6.70271 12.3837 6.89152C12.554 7.01526 12.7616 7.08877 12.9822 7.08877C13.211 7.08877 13.4258 7.0097 13.5996 6.87752C13.8489 6.6878 14.0137 6.38866 14.0137 6.05695C14.0137 5.73664 13.8464 5.44528 13.5939 5.26145C13.4211 5.13572 13.2085 5.0603 12.9822 5.0603C12.7641 5.0603 12.5588 5.13033 12.3896 5.24791ZM15.38 5.2573C15.1277 5.44087 14.9621 5.73422 14.9621 6.05695C14.9621 6.39112 15.1252 6.69223 15.3743 6.88172C15.5447 7.01137 15.7554 7.08877 15.9818 7.08877C16.1826 7.08877 16.3701 7.03183 16.5287 6.93289C16.8196 6.75144 17.0132 6.42875 17.0132 6.05695C17.0132 6.03477 17.0124 6.01274 17.0109 5.99087C16.9876 5.65905 16.79 5.36517 16.5046 5.20027C16.3512 5.11166 16.1725 5.0603 15.9818 5.0603C15.7579 5.0603 15.5494 5.13407 15.38 5.2573ZM18.1432 4.75931C18.0164 5.14719 17.9479 5.5611 17.9479 5.99087C17.9479 6.01294 17.948 6.03496 17.9484 6.05695C17.9556 6.49954 18.0356 6.92462 18.1769 7.32097C18.3899 7.91842 18.7423 8.45059 19.1954 8.87904C19.6645 9.32253 20.2414 9.65489 20.8831 9.83353C21.23 9.93009 21.5959 9.98173 21.9739 9.98173C24.1975 9.98173 26 8.19496 26 5.99087C26 3.78677 24.1975 2 21.9739 2C20.1839 2 18.6668 3.15791 18.1432 4.75931ZM19.8695 11.0691C19.7369 10.6667 19.3465 10.3601 18.8864 10.3601C18.8093 10.3601 18.734 10.3691 18.6615 10.386C18.2101 10.4913 17.8668 10.9038 17.8668 11.3685C17.8668 11.464 17.8802 11.5568 17.905 11.645C18.0121 12.026 18.3338 12.3225 18.7258 12.3872C18.7782 12.3958 18.8319 12.4003 18.8864 12.4003C19.4555 12.4003 19.9179 11.9313 19.9179 11.3685C19.9179 11.2652 19.9009 11.1645 19.8695 11.0691ZM17.647 13.5711C17.5503 13.1972 17.2306 12.8989 16.8311 12.8272C16.7709 12.8164 16.709 12.8107 16.6457 12.8107C16.0885 12.8107 15.6261 13.268 15.6261 13.8074C15.6261 13.9564 15.6572 14.0976 15.713 14.2249C15.8656 14.573 16.2028 14.8177 16.5935 14.8378C16.6108 14.8387 16.6282 14.8392 16.6457 14.8392C17.2148 14.8392 17.6771 14.3702 17.6771 13.8074C17.6771 13.7263 17.6667 13.6471 17.647 13.5711ZM15.8795 16.2199C15.5339 15.8694 15.1238 15.5818 14.6681 15.3759C14.1599 15.1462 13.595 15.0183 13 15.0183C12.3952 15.0183 11.8215 15.1505 11.3068 15.3873C10.8641 15.591 10.4649 15.8722 10.1271 16.2132C9.41384 16.9332 8.97392 17.9203 8.97392 19.0091C8.97392 21.2132 10.7764 23 13 23C15.2235 23 17.026 21.2132 17.026 19.0091C17.026 17.9237 16.5889 16.9394 15.8795 16.2199ZM9.40736 14.8371C9.78675 14.8121 10.114 14.5704 10.2681 14.2356C10.3283 14.1046 10.3621 13.9594 10.3621 13.8074C10.3621 13.268 9.89967 12.8107 9.34245 12.8107C9.27916 12.8107 9.21718 12.8164 9.15702 12.8272C8.75751 12.8989 8.43778 13.1972 8.3411 13.5711C8.32143 13.6471 8.31098 13.7263 8.31098 13.8074C8.31098 14.3819 8.77336 14.8392 9.34245 14.8392C9.36424 14.8392 9.38589 14.8385 9.40736 14.8371ZM7.26238 12.3872C7.65429 12.3225 7.976 12.026 8.08315 11.645C8.10798 11.5568 8.12129 11.464 8.12129 11.3685C8.12129 10.9069 7.78259 10.4968 7.33562 10.3882C7.26034 10.3699 7.182 10.3601 7.10168 10.3601C6.63948 10.3601 6.24767 10.6695 6.11679 11.0747C6.08653 11.1684 6.07022 11.2672 6.07022 11.3685C6.07022 11.9313 6.5326 12.4003 7.10168 12.4003C7.15627 12.4003 7.20995 12.3958 7.26238 12.3872ZM5.1017 9.83771C5.75033 9.65989 6.33324 9.32519 6.80626 8.87741C7.25536 8.45226 7.60539 7.92517 7.81857 7.3336C7.96269 6.93366 8.04425 6.50425 8.05158 6.05695C8.05194 6.03496 8.05212 6.01294 8.05212 5.99087C8.05212 5.55651 7.98211 5.13836 7.85268 4.74691C7.32533 3.15193 5.81141 2 4.02606 2C1.80253 2 0 3.78677 0 5.99087C0 8.19496 1.80253 9.98173 4.02606 9.98173C4.39859 9.98173 4.7593 9.93158 5.1017 9.83771ZM4.02606 8.48173C5.43361 8.48173 6.55212 7.35415 6.55212 5.99087C6.55212 4.62759 5.43361 3.5 4.02606 3.5C2.61851 3.5 1.5 4.62759 1.5 5.99087C1.5 7.35415 2.61851 8.48173 4.02606 8.48173ZM21.9739 8.48173C23.3815 8.48173 24.5 7.35415 24.5 5.99087C24.5 4.62759 23.3815 3.5 21.9739 3.5C20.5664 3.5 19.4479 4.62759 19.4479 5.99087C19.4479 7.35415 20.5664 8.48173 21.9739 8.48173ZM13 21.5C14.4075 21.5 15.526 20.3724 15.526 19.0091C15.526 17.6459 14.4075 16.5183 13 16.5183C11.5924 16.5183 10.4739 17.6459 10.4739 19.0091C10.4739 20.3724 11.5924 21.5 13 21.5Z" fill="#86889D"/>
</svg>
