<svg width="36" height="36" viewBox="0 0 36 36" fill="none" xmlns="http://www.w3.org/2000/svg">
<circle opacity="0.75" cx="18" cy="18" r="18" fill="black"/>
<g opacity="0.85">
<path d="M26.7851 17.4157L14.2624 9.23264C14.1559 9.12163 14.0233 9.04639 13.8799 9.01562C13.7365 8.98484 13.5882 8.9998 13.4522 9.05875C13.3181 9.12136 13.2037 9.22664 13.1234 9.36134C13.0431 9.49604 13.0005 9.65413 13.001 9.81568V26.1817C13.0005 26.3433 13.0431 26.5014 13.1234 26.6361C13.2037 26.7708 13.3181 26.876 13.4522 26.9386C13.543 26.9787 13.6398 26.9995 13.7376 27C13.9332 26.9991 14.121 26.9149 14.2624 26.7648L26.7851 18.5817C26.9234 18.4266 27.001 18.2171 27.001 17.9987C27.001 17.7803 26.9234 17.5708 26.7851 17.4157Z" fill="#83839E"/>
</g>
</svg>
