<svg width="24" height="24" viewBox="0 0 24 24" fill="none" xmlns="http://www.w3.org/2000/svg">
<path d="M12 23C11.0644 23 10.4124 22.3506 10.4124 21.419L10.5399 5.72902L3.6366 13.0131C3.35309 13.2955 2.95619 13.479 2.50258 13.479C1.63789 13.479 1 12.8296 1 11.9403C1 11.5309 1.15593 11.1498 1.49613 10.811L10.8235 1.49408C11.1353 1.1694 11.5606 0.999998 12 0.999998C12.4253 0.999998 12.8505 1.1694 13.1624 1.49408L22.5039 10.811C22.8441 11.1498 23 11.5309 23 11.9403C23 12.8296 22.3479 13.479 21.4832 13.479C21.0438 13.479 20.6469 13.2955 20.3634 13.0131L13.4601 5.74314L13.5735 21.419C13.5735 22.3506 12.9214 23 12 23Z" fill="#6D75F4"/>
</svg>
