<svg width="22" height="22" viewBox="0 0 22 22" fill="none" xmlns="http://www.w3.org/2000/svg">
<path fill-rule="evenodd" clip-rule="evenodd" d="M0.603133 21.3855C-0.201044 20.5661 -0.201044 19.2376 0.603133 18.4182L18.0762 0.614543C18.8804 -0.204848 20.1842 -0.204847 20.9884 0.614543C21.7926 1.43393 21.7926 2.76243 20.9884 3.58182L3.51532 21.3855C2.71114 22.2048 1.40731 22.2048 0.603133 21.3855Z" fill="#6D75F4"/>
<path fill-rule="evenodd" clip-rule="evenodd" d="M21.3969 21.3855C22.201 20.5661 22.201 19.2376 21.3969 18.4182L3.92376 0.614543C3.11958 -0.204848 1.81575 -0.204847 1.01157 0.614543C0.207397 1.43393 0.207397 2.76243 1.01157 3.58182L18.4847 21.3855C19.2889 22.2048 20.5927 22.2048 21.3969 21.3855Z" fill="#6D75F4"/>
</svg>
