<svg width="36" height="36" viewBox="0 0 36 36" fill="none" xmlns="http://www.w3.org/2000/svg">
<circle cx="18" cy="18" r="17" stroke="#6D75F4" stroke-width="2"/>
<g clip-path="url(#clip0_7706_156720)">
<path d="M10.3483 25.644C10.5805 25.8863 10.8708 26.0049 11.2191 25.9998C11.5674 25.9948 11.8577 25.8762 12.0899 25.644L17.9961 19.7226L23.9175 25.644C24.1497 25.8762 24.4375 25.9948 24.7807 25.9998C25.124 26.0049 25.4117 25.8863 25.644 25.644C25.8863 25.4117 26.0049 25.124 25.9998 24.7807C25.9948 24.4375 25.8762 24.1497 25.644 23.9175L19.7226 17.9961L25.644 12.0899C25.8762 11.8476 25.9948 11.5548 25.9998 11.2115C26.0049 10.8683 25.8863 10.5805 25.644 10.3483C25.4117 10.1161 25.124 10 24.7807 10C24.4375 10 24.1497 10.1161 23.9175 10.3483L17.9961 16.2697L12.0899 10.3483C11.8577 10.1161 11.5674 10 11.2191 10C10.8708 10 10.5805 10.1161 10.3483 10.3483C10.1161 10.5805 10 10.8683 10 11.2115C10 11.5548 10.1161 11.8476 10.3483 12.0899L16.2697 17.9961L10.3483 23.9175C10.1161 24.1497 10 24.4375 10 24.7807C10 25.124 10.1161 25.4117 10.3483 25.644Z" fill="#6D75F4"/>
</g>
<defs>
<clipPath id="clip0_7706_156720">
<rect width="16" height="16" fill="white" transform="translate(10 10)"/>
</clipPath>
</defs>
</svg>
