<svg width="36" height="36" viewBox="0 0 36 36" fill="none" xmlns="http://www.w3.org/2000/svg">
<path fill-rule="evenodd" clip-rule="evenodd" d="M18 34C26.8366 34 34 26.8366 34 18C34 9.16344 26.8366 2 18 2C9.16344 2 2 9.16344 2 18C2 26.8366 9.16344 34 18 34ZM18 36C27.9411 36 36 27.9411 36 18C36 8.05887 27.9411 0 18 0C8.05887 0 0 8.05887 0 18C0 27.9411 8.05887 36 18 36Z" fill="#6D75F4"/>
<g clip-path="url(#clip0_7706_156720)">
<path d="M10.1092 25.8828C10.3487 26.1327 10.648 26.255 11.0072 26.2498C11.3664 26.2446 11.6657 26.1223 11.9052 25.8828L17.996 19.7764L24.1024 25.8828C24.3419 26.1223 24.6386 26.2446 24.9926 26.2498C25.3466 26.255 25.6434 26.1327 25.8828 25.8828C26.1327 25.6434 26.255 25.3466 26.2498 24.9926C26.2446 24.6386 26.1223 24.3419 25.8828 24.1024L19.7764 17.996L25.8828 11.9052C26.1223 11.6553 26.2446 11.3534 26.2498 10.9994C26.255 10.6454 26.1327 10.3487 25.8828 10.1092C25.6434 9.86973 25.3466 9.75 24.9926 9.75C24.6386 9.75 24.3419 9.86973 24.1024 10.1092L17.996 16.2156L11.9052 10.1092C11.6657 9.86973 11.3664 9.75 11.0072 9.75C10.648 9.75 10.3487 9.86973 10.1092 10.1092C9.86973 10.3487 9.75 10.6454 9.75 10.9994C9.75 11.3534 9.86973 11.6553 10.1092 11.9052L16.2156 17.996L10.1092 24.1024C9.86973 24.3419 9.75 24.6386 9.75 24.9926C9.75 25.3466 9.86973 25.6434 10.1092 25.8828Z" fill="#6D75F4"/>
</g>
<defs>
<clipPath id="clip0_7706_156720">
<rect width="18" height="18" fill="white" transform="translate(9 9)"/>
</clipPath>
</defs>
</svg>
