<svg width="36" height="35" viewBox="0 0 36 35" fill="none" xmlns="http://www.w3.org/2000/svg">
<path fill-rule="evenodd" clip-rule="evenodd" d="M18 33.5C26.8366 33.5 34 26.3366 34 17.5C34 8.66344 26.8366 1.5 18 1.5C9.16344 1.5 2 8.66344 2 17.5C2 26.3366 9.16344 33.5 18 33.5ZM18 35C27.665 35 35.5 27.165 35.5 17.5C35.5 7.83502 27.665 0 18 0C8.33502 0 0.5 7.83502 0.5 17.5C0.5 27.165 8.33502 35 18 35Z" fill="#6D75F4"/>
<g clip-path="url(#clip0_6866_82660)">
<path fill-rule="evenodd" clip-rule="evenodd" d="M22.6 7.375C23.031 7.375 23.4443 7.5462 23.7491 7.85095L27.649 11.751C28.2837 12.3856 28.2837 13.4144 27.649 14.049C27.0144 14.6837 25.9856 14.6837 25.351 14.049L24.225 12.9231V21.675C24.225 22.5725 23.4975 23.3 22.6 23.3C21.7025 23.3 20.975 22.5725 20.975 21.675V12.9231L19.849 14.049C19.2144 14.6837 18.1856 14.6837 17.551 14.049C16.9164 13.4144 16.9164 12.3856 17.551 11.751L21.451 7.85095C21.7557 7.5462 22.169 7.375 22.6 7.375ZM12.9 13.2C13.7975 13.2 14.525 13.9275 14.525 14.825V23.5769L15.651 22.451C16.2856 21.8163 17.3144 21.8163 17.949 22.451C18.5837 23.0856 18.5837 24.1144 17.949 24.7491L14.049 28.649C13.4144 29.2837 12.3856 29.2837 11.751 28.649L7.85095 24.7491C7.21635 24.1144 7.21635 23.0856 7.85095 22.451C8.48555 21.8163 9.51445 21.8163 10.149 22.451L11.275 23.5769V14.825C11.275 13.9275 12.0025 13.2 12.9 13.2Z" fill="#6D75F4"/>
</g>
<defs>
<clipPath id="clip0_6866_82660">
<rect width="24" height="24" fill="white" transform="translate(6 6)"/>
</clipPath>
</defs>
</svg>
