<svg width="24" height="24" viewBox="0 0 24 24" fill="none" xmlns="http://www.w3.org/2000/svg">
<path d="M3.53199 20.4587C4.25215 21.1785 5.25392 21.1806 5.9711 20.4638L17.9503 8.29464L17.6572 19.2097C17.6581 19.6451 17.8224 20.0916 18.1716 20.4406C18.8372 21.1058 19.828 21.097 20.5126 20.4128C20.8277 20.0979 21.0011 19.6847 21 19.1623L20.992 4.81838C21.0018 4.32866 20.8049 3.87116 20.4666 3.53308C20.1393 3.20591 19.6815 3.00907 19.1916 3.01893L4.82915 3.00001C4.30649 2.99892 3.89307 3.17219 3.57795 3.48715C2.89338 4.17136 2.89546 5.1726 3.56106 5.83785C3.89931 6.17593 4.3461 6.3401 4.78165 6.34101L15.6917 6.05893L3.53783 18.0318C2.82066 18.7486 2.82274 19.7499 3.53199 20.4587Z" fill="#6D75F4"/>
</svg>
