<svg width="30" height="30" viewBox="0 0 30 30" fill="none" xmlns="http://www.w3.org/2000/svg">
<g clip-path="url(#clip0_6248_35701)">
<path d="M30 5.92047C28.8958 6.39902 27.7097 6.72106 26.4648 6.86632C27.7362 6.12315 28.7112 4.94648 29.1704 3.54348C27.982 4.23147 26.6644 4.73141 25.2613 5.00165C24.1387 3.83399 22.5395 3.10434 20.7696 3.10434C17.3705 3.10434 14.6152 5.79436 14.6152 9.11044C14.6152 9.58111 14.6706 10.0405 14.7744 10.4785C9.65963 10.2286 5.12519 7.83693 2.08838 4.20219C1.55994 5.08948 1.25649 6.1209 1.25649 7.22326C1.25649 9.30636 2.34222 11.1451 3.99331 12.2216C2.98488 12.1901 2.03531 11.9198 1.20572 11.4705C1.20572 11.4964 1.20572 11.5201 1.20572 11.546C1.20572 14.4567 3.32641 16.8844 6.14284 17.435C5.62709 17.5724 5.0825 17.6455 4.5206 17.6455C4.12484 17.6455 3.73832 17.6073 3.36333 17.5386C4.14676 19.9246 6.41975 21.662 9.11273 21.7104C7.00704 23.3217 4.35329 24.2822 1.46879 24.2822C0.972655 24.2822 0.482289 24.2541 0 24.1978C2.72413 25.9014 5.95823 26.8957 9.43464 26.8957C20.7557 26.8957 26.9447 17.7435 26.9447 9.80631C26.9447 9.5462 26.939 9.28722 26.9274 9.02937C28.1308 8.18149 29.175 7.12417 30 5.92047Z" fill="#1B9DF0"/>
</g>
<defs>
<clipPath id="clip0_6248_35701">
<rect width="30" height="30" fill="white"/>
</clipPath>
</defs>
</svg>
