<svg width="20" height="20" viewBox="0 0 20 20" fill="none" xmlns="http://www.w3.org/2000/svg">
<g clip-path="url(#clip0_8562_213659)">
<rect x="0.789474" y="0.789474" width="7.89474" height="7.89474" rx="1.31579" stroke="#6D75F4" stroke-width="1.57895"/>
<rect x="0.789474" y="11.3158" width="7.89474" height="7.89474" rx="1.31579" stroke="#6D75F4" stroke-width="1.57895"/>
<rect x="11.3158" y="0.789474" width="7.89474" height="7.89474" rx="1.31579" stroke="#6D75F4" stroke-width="1.57895"/>
<path d="M11.3158 12.6316C11.3158 11.9049 11.9049 11.3158 12.6316 11.3158H17.8948C18.6215 11.3158 19.2106 11.9049 19.2106 12.6316V17.8947C19.2106 18.6214 18.6215 19.2105 17.8948 19.2105H12.6316C11.9049 19.2105 11.3158 18.6214 11.3158 17.8947V12.6316Z" stroke="#6D75F4" stroke-width="1.57895"/>
<path fill-rule="evenodd" clip-rule="evenodd" d="M7.36842 1.57895H2.10526C1.81459 1.57895 1.57895 1.81459 1.57895 2.10526V7.36842C1.57895 7.6591 1.81459 7.89474 2.10526 7.89474H7.36842C7.6591 7.89474 7.89474 7.6591 7.89474 7.36842V2.10526C7.89474 1.81459 7.6591 1.57895 7.36842 1.57895ZM2.10526 0C0.942558 0 0 0.942558 0 2.10526V7.36842C0 8.53113 0.942558 9.47368 2.10526 9.47368H7.36842C8.53113 9.47368 9.47368 8.53113 9.47368 7.36842V2.10526C9.47368 0.942558 8.53113 0 7.36842 0H2.10526Z" fill="#6D75F4"/>
<path fill-rule="evenodd" clip-rule="evenodd" d="M7.36842 12.1053H2.10526C1.81459 12.1053 1.57895 12.3409 1.57895 12.6316V17.8947C1.57895 18.1854 1.81459 18.421 2.10526 18.421H7.36842C7.6591 18.421 7.89474 18.1854 7.89474 17.8947V12.6316C7.89474 12.3409 7.6591 12.1053 7.36842 12.1053ZM2.10526 10.5263C0.942558 10.5263 0 11.4689 0 12.6316V17.8947C0 19.0574 0.942558 20 2.10526 20H7.36842C8.53113 20 9.47368 19.0574 9.47368 17.8947V12.6316C9.47368 11.4689 8.53113 10.5263 7.36842 10.5263H2.10526Z" fill="#6D75F4"/>
<path fill-rule="evenodd" clip-rule="evenodd" d="M17.8948 1.57895H12.6316C12.341 1.57895 12.1053 1.81459 12.1053 2.10526V7.36842C12.1053 7.6591 12.341 7.89474 12.6316 7.89474H17.8948C18.1855 7.89474 18.4211 7.6591 18.4211 7.36842V2.10526C18.4211 1.81459 18.1855 1.57895 17.8948 1.57895ZM12.6316 0C11.4689 0 10.5264 0.942558 10.5264 2.10526V7.36842C10.5264 8.53113 11.4689 9.47368 12.6316 9.47368H17.8948C19.0575 9.47368 20.0001 8.53113 20.0001 7.36842V2.10526C20.0001 0.942558 19.0575 0 17.8948 0H12.6316Z" fill="#6D75F4"/>
<path fill-rule="evenodd" clip-rule="evenodd" d="M17.8948 12.1053H12.6316C12.341 12.1053 12.1053 12.3409 12.1053 12.6316V17.8947C12.1053 18.1854 12.341 18.421 12.6316 18.421H17.8948C18.1855 18.421 18.4211 18.1854 18.4211 17.8947V12.6316C18.4211 12.3409 18.1855 12.1053 17.8948 12.1053ZM12.6316 10.5263C11.4689 10.5263 10.5264 11.4689 10.5264 12.6316V17.8947C10.5264 19.0574 11.4689 20 12.6316 20H17.8948C19.0575 20 20.0001 19.0574 20.0001 17.8947V12.6316C20.0001 11.4689 19.0575 10.5263 17.8948 10.5263H12.6316Z" fill="#6D75F4"/>
</g>
<defs>
<clipPath id="clip0_8562_213659">
<rect width="20" height="20" fill="white"/>
</clipPath>
</defs>
</svg>
