<svg width="30" height="30" viewBox="0 0 30 30" fill="none" xmlns="http://www.w3.org/2000/svg">
<g clip-path="url(#clip0_7795_142828)">
<path d="M15 1C7.26816 1 1 7.30652 1 15.0857C1 22.1162 6.11978 27.9434 12.8122 29V19.157H9.25731V15.0857H12.8122V11.9822C12.8122 8.4519 14.9026 6.50229 18.0999 6.50229C19.6319 6.50229 21.2336 6.77705 21.2336 6.77705V10.2433H19.4685C17.7294 10.2433 17.1871 11.3292 17.1871 12.443V15.0849H21.0702L20.4496 19.1562H17.1878V28.9992C23.881 27.9426 29 22.1154 29 15.0849C29 7.30652 22.7318 1 15 1Z" fill="white"/>
</g>
<defs>
<clipPath id="clip0_7795_142828">
<rect width="28" height="28" fill="white" transform="translate(1 1)"/>
</clipPath>
</defs>
</svg>
