<svg width="28" height="28" viewBox="0 0 28 28" fill="none" xmlns="http://www.w3.org/2000/svg">
<g clip-path="url(#clip0_7795_142828)">
<g clip-path="url(#clip1_7795_142828)">
<path d="M14 0C6.26816 0 0 6.30652 0 14.0857C0 21.1162 5.11978 26.9434 11.8122 28V18.157H8.25731V14.0857H11.8122V10.9822C11.8122 7.4519 13.9026 5.50229 17.0999 5.50229C18.6319 5.50229 20.2336 5.77705 20.2336 5.77705V9.24329H18.4685C16.7294 9.24329 16.1871 10.3292 16.1871 11.443V14.0849H20.0702L19.4496 18.1562H16.1878V27.9992C22.881 26.9426 28 21.1154 28 14.0849C28 6.30652 21.7318 0 14 0Z" fill="white"/>
</g>
</g>
<defs>
<clipPath id="clip0_7795_142828">
<rect width="28" height="28" fill="white"/>
</clipPath>
<clipPath id="clip1_7795_142828">
<rect width="28" height="28" fill="white"/>
</clipPath>
</defs>
</svg>
