<svg width="22" height="22" viewBox="0 0 22 22" fill="none" xmlns="http://www.w3.org/2000/svg">
<path fill-rule="evenodd" clip-rule="evenodd" d="M0 1.26932C0 0.568294 0.568289 0 1.26931 0H9.25194C9.95296 0 10.5212 0.568294 10.5212 1.26932V9.25201C10.5212 9.95304 9.95296 10.5213 9.25194 10.5213H1.26931C0.568289 10.5213 0 9.95304 0 9.25201V1.26932ZM2.53862 2.53864V7.98269H7.98263V2.53864H2.53862Z" fill="#848BFF"/>
<path fill-rule="evenodd" clip-rule="evenodd" d="M11.4788 1.26932C11.4788 0.568295 12.047 1.81578e-06 12.7481 1.81578e-06H20.7307C21.4317 1.81578e-06 22 0.568295 22 1.26932V9.25201C22 9.95304 21.4317 10.5213 20.7307 10.5213H12.7481C12.047 10.5213 11.4788 9.95304 11.4788 9.25201V1.26932ZM14.0174 2.53864V7.9827H19.4614V2.53864H14.0174Z" fill="#848BFF"/>
<path fill-rule="evenodd" clip-rule="evenodd" d="M3.26837e-05 12.748C3.26837e-05 12.047 0.568321 11.4787 1.26934 11.4787H9.25197C9.95299 11.4787 10.5213 12.047 10.5213 12.748V20.7307C10.5213 21.4317 9.95299 22 9.25197 22H1.26934C0.568321 22 3.26837e-05 21.4317 3.26837e-05 20.7307V12.748ZM2.53865 14.0173V19.4614H7.98266V14.0173H2.53865Z" fill="#848BFF"/>
<path fill-rule="evenodd" clip-rule="evenodd" d="M11.4788 12.748C11.4788 12.047 12.047 11.4787 12.7481 11.4787H20.7307C21.4317 11.4787 22 12.047 22 12.748V20.7307C22 21.4317 21.4317 22 20.7307 22H12.7481C12.047 22 11.4788 21.4317 11.4788 20.7307V12.748ZM14.0174 14.0173V19.4614H19.4614V14.0173H14.0174Z" fill="#848BFF"/>
</svg>
