<svg width="32" height="33" viewBox="0 0 32 33" fill="none" xmlns="http://www.w3.org/2000/svg">
<path fill-rule="evenodd" clip-rule="evenodd" d="M7.02596 16.3267C7.02596 17.3392 7.84677 18.16 8.85929 18.16H23.5259C24.5385 18.16 25.3593 17.3392 25.3593 16.3267C25.3593 15.3142 24.5385 14.4934 23.5259 14.4934H8.85929C7.84677 14.4934 7.02596 15.3142 7.02596 16.3267Z" fill="#6D75F4"/>
<path fill-rule="evenodd" clip-rule="evenodd" d="M16.0081 7.00748C14.9956 7.00748 14.1748 7.82829 14.1748 8.84081V23.5075C14.1748 24.52 14.9956 25.3408 16.0081 25.3408C17.0207 25.3408 17.8415 24.52 17.8415 23.5075V8.84081C17.8415 7.82829 17.0207 7.00748 16.0081 7.00748Z" fill="#6D75F4"/>
<path fill-rule="evenodd" clip-rule="evenodd" d="M16 29.2857C23.3375 29.2857 29.2857 23.3375 29.2857 16C29.2857 8.6625 23.3375 2.71429 16 2.71429C8.6625 2.71429 2.71429 8.6625 2.71429 16C2.71429 23.3375 8.6625 29.2857 16 29.2857ZM16 31C24.2843 31 31 24.2843 31 16C31 7.71573 24.2843 1 16 1C7.71573 1 1 7.71573 1 16C1 24.2843 7.71573 31 16 31Z" fill="#6D75F4"/>
</svg>
