<svg width="15" height="19" viewBox="0 0 15 19" fill="none" xmlns="http://www.w3.org/2000/svg">
<g opacity="0.85">
<path d="M14.4578 8.79205L1.93518 0.609029C1.82867 0.498018 1.69605 0.422774 1.55266 0.392002C1.40926 0.361229 1.26095 0.376185 1.12489 0.43514C0.990825 0.497741 0.876439 0.603027 0.796148 0.737727C0.715857 0.872428 0.673255 1.03052 0.67371 1.19207V17.5581C0.673255 17.7197 0.715857 17.8777 0.796148 18.0124C0.876439 18.1471 0.990825 18.2524 1.12489 18.315C1.21575 18.3551 1.31257 18.3759 1.41033 18.3764C1.60594 18.3755 1.79378 18.2913 1.93518 18.1411L14.4578 9.95813C14.5961 9.80298 14.6737 9.59345 14.6737 9.37509C14.6737 9.15672 14.5961 8.94719 14.4578 8.79205Z" fill="#EAEAEA"/>
</g>
</svg>
