<svg width="25" height="25" viewBox="0 0 25 25" fill="none" xmlns="http://www.w3.org/2000/svg">
<g clip-path="url(#clip0_6329_62035)">
<path fill-rule="evenodd" clip-rule="evenodd" d="M4.44832 4.80521H10.5847C11.2625 4.80521 11.812 4.25575 11.812 3.57794C11.812 2.90014 11.2625 2.35067 10.5847 2.35067H4.03923C3.49674 2.35067 2.97647 2.56617 2.59287 2.94977C2.20928 3.33337 1.99377 3.85363 1.99377 4.39612V20.487C1.99377 21.0295 2.20928 21.5498 2.59287 21.9334C2.97647 22.317 3.49674 22.5325 4.03923 22.5325H20.1301C20.6726 22.5325 21.1929 22.317 21.5765 21.9334C21.9601 21.5498 22.1756 21.0295 22.1756 20.487V13.9416C22.1756 13.2638 21.6261 12.7143 20.9483 12.7143C20.2705 12.7143 19.721 13.2638 19.721 13.9416V20.0779H4.44832V4.80521Z" fill="#6D75F4"/>
<path fill-rule="evenodd" clip-rule="evenodd" d="M18.1604 1.24456C18.7462 0.658775 19.6959 0.658775 20.2817 1.24456L23.615 4.57789C24.2008 5.16368 24.2008 6.11343 23.615 6.69921L20.2817 10.0325C19.6959 10.6183 18.7462 10.6183 18.1604 10.0325C17.5746 9.44676 17.5746 8.49701 18.1604 7.91123L20.4331 5.63855L18.1604 3.36588C17.5746 2.7801 17.5746 1.83035 18.1604 1.24456Z" fill="#6D75F4"/>
<path fill-rule="evenodd" clip-rule="evenodd" d="M16.8877 6.76355C15.418 6.76355 14.0084 7.3474 12.9692 8.38667C11.9299 9.42593 11.346 10.8355 11.346 12.3052C11.346 12.9265 10.8424 13.4302 10.221 13.4302C9.59973 13.4302 9.09605 12.9265 9.09605 12.3052C9.09605 10.2387 9.91695 8.2569 11.3782 6.79568C12.8394 5.33446 14.8212 4.51355 16.8877 4.51355H21.5544C22.1757 4.51355 22.6794 5.01723 22.6794 5.63855C22.6794 6.25987 22.1757 6.76355 21.5544 6.76355H16.8877Z" fill="#6D75F4"/>
</g>
<defs>
<clipPath id="clip0_6329_62035">
<rect width="24" height="24" fill="white" transform="translate(0.0108643 0.0457001)"/>
</clipPath>
</defs>
</svg>
