<svg width="24" height="24" viewBox="0 0 24 24" fill="none" xmlns="http://www.w3.org/2000/svg">
<g clip-path="url(#clip0_8492_199593)">
<path d="M6.601 13.0721V16.1677H10.1022C10.3932 16.1677 10.6155 16.2442 10.7693 16.3971C10.9231 16.5501 11 16.7715 11 17.0614C11 17.1983 10.9771 17.3271 10.9314 17.4479C10.8857 17.5687 10.8171 17.6854 10.7257 17.7981L6.17706 23.6315C5.96924 23.8811 5.72195 24.0039 5.43516 23.9999C5.14838 23.9959 4.90524 23.8731 4.70574 23.6315L0.274314 17.7981C0.182875 17.6854 0.114298 17.5687 0.0685794 17.4479C0.0228601 17.3271 0 17.1983 0 17.0614C0 16.7715 0.0789684 16.5501 0.236908 16.3971C0.394847 16.2442 0.619284 16.1677 0.910225 16.1677H4.24439V1.32952H4.24601V0.681235C4.24601 0.304999 4.56066 0 4.94881 0H5.89833C6.28648 0 6.60113 0.305 6.60113 0.681235V13.0585C6.60113 13.063 6.60109 13.0676 6.601 13.0721Z" fill="#6D75F4"/>
<path d="M22.248 22.0067H17.7077V21.8895L22.3364 15.8675C22.5231 15.6234 22.6583 15.4207 22.7418 15.2595C22.8253 15.0983 22.8671 14.9347 22.8671 14.7687C22.8671 14.4854 22.7664 14.2632 22.5649 14.102C22.3634 13.9408 22.1153 13.8602 21.8205 13.8602H15.7029C15.4278 13.8602 15.2018 13.9433 15.0249 14.1093C14.848 14.2754 14.7595 14.4952 14.7595 14.7687C14.7595 15.0422 14.848 15.2619 15.0249 15.428C15.2018 15.594 15.4278 15.6771 15.7029 15.6771H20.0073V15.765L15.3344 21.7723C15.1379 22.0165 15.0027 22.2216 14.929 22.3876C14.8553 22.5537 14.8185 22.7295 14.8185 22.9151C14.8185 23.1788 14.9143 23.3937 15.1059 23.5598C15.2976 23.7258 15.5408 23.8089 15.8356 23.8089H22.248C22.5231 23.8089 22.7492 23.7283 22.9261 23.5671C23.1029 23.4059 23.1914 23.1837 23.1914 22.9004C23.1914 22.6367 23.1029 22.4218 22.9261 22.2558C22.7492 22.0897 22.5231 22.0067 22.248 22.0067Z" fill="#6D75F4"/>
<path d="M14.9439 11.7783C14.6531 11.7783 14.4149 11.6919 14.2294 11.5193C14.0438 11.3467 13.951 11.1272 13.951 10.8609C13.951 10.7523 13.9611 10.6537 13.9811 10.5649C14.0012 10.4761 14.0263 10.3775 14.0564 10.269L17.6066 0.946995C17.8372 0.315662 18.2936 0 18.9755 0C19.6475 0 20.1038 0.315662 20.3445 0.946995L23.8796 10.269C23.9198 10.3775 23.9498 10.4761 23.9699 10.5649C23.99 10.6537 24 10.7523 24 10.8609C24 11.1272 23.9072 11.3467 23.7217 11.5193C23.5362 11.6919 23.298 11.7783 23.0071 11.7783C22.5157 11.7783 22.1797 11.5119 21.9992 10.9792L21.0966 8.40458H16.8544L15.9518 10.9792C15.7713 11.5119 15.4353 11.7783 14.9439 11.7783ZM17.4411 6.71775H20.5099L18.9755 2.45627L17.4411 6.71775Z" fill="#6D75F4"/>
</g>
<defs>
<clipPath id="clip0_8492_199593">
<rect width="24" height="24" fill="white"/>
</clipPath>
</defs>
</svg>
