<svg width="25" height="25" viewBox="0 0 25 25" fill="none" xmlns="http://www.w3.org/2000/svg">
<g clip-path="url(#clip0_6990_101923)">
<path fill-rule="evenodd" clip-rule="evenodd" d="M24.266 12.1965C24.266 18.2716 19.3411 23.1965 13.266 23.1965C7.19086 23.1965 2.26599 18.2716 2.26599 12.1965C2.26599 6.12136 7.19086 1.19649 13.266 1.19649C19.3411 1.19649 24.266 6.12136 24.266 12.1965ZM13.248 6.19649C12.0026 6.19649 10.8907 6.77288 10.1666 7.67412C10.0771 7.66626 9.98548 7.66176 9.89245 7.66176C7.88914 7.66176 6.26599 9.28346 6.26599 11.2826C6.26599 12.9806 7.4387 14.3912 9.01197 14.7811V16.3719C9.01197 17.1597 9.65309 17.8117 10.4517 17.8117H16.0499C16.8378 17.8117 17.4897 17.1705 17.4897 16.3719V14.7811C19.063 14.3912 20.2357 12.9806 20.2357 11.2826C20.2357 11.2392 20.2311 11.1968 20.2223 11.156C20.1555 9.21611 18.5597 7.66176 16.6036 7.66176C16.5087 7.66176 16.4171 7.66623 16.3283 7.67402C15.6052 6.77814 14.4946 6.19649 13.248 6.19649ZM19.0228 11.2826C19.0228 11.3181 19.0259 11.3528 19.0317 11.3866C18.9802 12.5927 18.0357 13.5671 16.8344 13.6763C16.5249 13.7044 16.288 13.9639 16.288 14.2747V16.3719C16.288 16.5017 16.1793 16.61 16.0499 16.61H10.4517C10.322 16.61 10.2137 16.5013 10.2137 16.3719V14.2747C10.2137 13.9639 9.97671 13.7044 9.66722 13.6763C8.43158 13.564 7.46769 12.5363 7.46769 11.2826C7.46769 9.94859 8.55137 8.86346 9.89245 8.86346C10.0296 8.86346 10.1756 8.88019 10.3298 8.90909C10.5687 8.95388 10.811 8.85038 10.9437 8.64685C11.4357 7.89284 12.2846 7.39819 13.248 7.39819C14.2098 7.39819 15.0601 7.8971 15.5532 8.64826C15.6863 8.8509 15.928 8.95376 16.1663 8.90909C16.3212 8.88005 16.4614 8.86346 16.6036 8.86346C17.9384 8.86346 19.0228 9.94786 19.0228 11.2826Z" fill="#696A80"/>
</g>
<defs>
<clipPath id="clip0_6990_101923">
<rect width="24" height="24" fill="white" transform="translate(0.635376 0.171265)"/>
</clipPath>
</defs>
</svg>
