<svg width="32" height="32" viewBox="0 0 32 32" fill="none" xmlns="http://www.w3.org/2000/svg">
<g clip-path="url(#clip0_10410_514161)">
<path fill-rule="evenodd" clip-rule="evenodd" d="M23.3732 4.66666C23.6605 4.66666 23.9361 4.77802 24.1392 4.97625C24.3424 5.17448 24.4565 5.44334 24.4565 5.72368C24.4565 6.00402 24.3424 6.27288 24.1392 6.47111C23.9361 6.66934 23.6605 6.7807 23.3732 6.7807H8.20654C7.91923 6.7807 7.64368 6.89207 7.44051 7.0903C7.23735 7.28853 7.12321 7.55739 7.12321 7.83773C7.12321 8.11807 7.23735 8.38692 7.44051 8.58515C7.64368 8.78338 7.91923 8.89475 8.20654 8.89475H26.6232C27.1978 8.89475 27.7489 9.11748 28.1553 9.51394C28.5616 9.9104 28.7899 10.4481 28.7899 11.0088V23.6931C28.7899 24.2537 28.5616 24.7915 28.1553 25.1879C27.7489 25.5844 27.1978 25.8071 26.6232 25.8071H13.1315C13.6289 25.3312 14.0577 24.7837 14.3999 24.1821H26.6232C26.7796 24.1821 26.9217 24.1211 27.0204 24.0248C27.1178 23.9299 27.1649 23.8097 27.1649 23.6931V11.0088C27.1649 10.8922 27.1178 10.772 27.0204 10.677C26.9217 10.5807 26.7796 10.5197 26.6232 10.5197H8.20654C7.62135 10.5197 7.05067 10.3319 6.58154 9.98344V14.0368C6.00857 14.1876 5.46343 14.4106 4.95654 14.6952V7.83773C4.96011 6.99778 5.30366 6.19322 5.91238 5.59928C6.52111 5.00535 7.34569 4.67013 8.20654 4.66666H23.3732Z" fill="#6D75F4"/>
<path d="M22.8317 19.4721C22.4017 19.4721 21.9814 19.3477 21.6239 19.1146C21.2664 18.8815 20.9877 18.5503 20.8232 18.1627C20.6587 17.7751 20.6156 17.3486 20.6995 16.9371C20.7834 16.5257 20.9904 16.1477 21.2944 15.8511C21.5985 15.5544 21.9858 15.3524 22.4075 15.2706C22.8292 15.1887 23.2663 15.2307 23.6636 15.3913C24.0608 15.5518 24.4003 15.8237 24.6392 16.1725C24.8781 16.5213 25.0056 16.9314 25.0056 17.3509C25.0056 17.9135 24.7766 18.453 24.3689 18.8508C23.9612 19.2486 23.4082 19.4721 22.8317 19.4721Z" fill="#6D75F4"/>
<path d="M8.33378 26.3334C11.3739 26.3334 13.8831 23.8241 13.8831 20.784C13.8831 17.7493 11.3685 15.24 8.32842 15.24C5.2937 15.24 2.78979 17.7493 2.78979 20.784C2.78979 23.8241 5.29906 26.3334 8.33378 26.3334ZM7.8137 23.186C7.65285 23.186 7.53489 23.1217 7.3794 22.9823L5.05243 20.8001C4.93447 20.6929 4.89158 20.5695 4.89158 20.4569C4.89158 20.339 4.93447 20.221 5.05243 20.1138L7.3794 17.9423C7.55097 17.7868 7.65285 17.7225 7.80833 17.7225C8.04425 17.7225 8.21046 17.9048 8.21046 18.13V19.1862H8.28553C10.3122 19.1862 11.2559 20.4838 11.2559 22.6231C11.2559 22.9877 11.095 23.1753 10.8913 23.1753C10.7358 23.1753 10.5964 23.1271 10.4838 22.9126C10.0227 22.0494 9.36322 21.7384 8.28553 21.7384H8.21046V22.7946C8.21046 23.0198 8.04425 23.186 7.8137 23.186Z" fill="#6D75F4"/>
</g>
<defs>
<clipPath id="clip0_10410_514161">
<rect width="26" height="26" fill="white" transform="translate(2.78979 2.5)"/>
</clipPath>
</defs>
</svg>
