<svg width="25" height="25" viewBox="0 0 25 25" fill="none" xmlns="http://www.w3.org/2000/svg">
<path fill-rule="evenodd" clip-rule="evenodd" d="M3.60301 8.09193C5.39248 6.30247 8.25665 4.52312 12.4999 4.52312C16.7432 4.52312 19.6074 6.30247 21.3968 8.09193C22.2854 8.98046 22.9069 9.86821 23.308 10.5367C23.509 10.8717 23.6559 11.1538 23.7544 11.3565C23.8037 11.458 23.8409 11.5398 23.8668 11.5986C23.8798 11.6281 23.8899 11.6518 23.8973 11.6694L23.9063 11.6912L23.9093 11.6986L23.9105 11.7014L23.9109 11.7026C23.9112 11.7031 23.9113 11.7036 22.9829 12.075C23.9113 12.4464 23.9112 12.4468 23.9109 12.4474L23.9105 12.4485L23.9093 12.4513L23.9063 12.4587L23.8973 12.4805C23.8899 12.4981 23.8798 12.5218 23.8668 12.5513C23.8409 12.6102 23.8037 12.6919 23.7544 12.7934C23.6559 12.9961 23.509 13.2782 23.308 13.6132C22.9069 14.2817 22.2854 15.1695 21.3968 16.058C19.6074 17.8475 16.7432 19.6268 12.4999 19.6268C8.25665 19.6268 5.39248 17.8475 3.60301 16.058C2.71449 15.1695 2.09294 14.2817 1.69182 13.6132C1.49084 13.2782 1.3439 12.9961 1.24543 12.7934C1.19616 12.6919 1.15892 12.6102 1.13301 12.5513C1.12006 12.5218 1.10993 12.4981 1.10254 12.4805L1.0935 12.4587L1.0905 12.4513L1.08937 12.4485L1.0889 12.4474C1.0887 12.4468 1.0885 12.4464 2.01697 12.075C1.0885 11.7036 1.0887 11.7031 1.0889 11.7026L1.08937 11.7014L1.0905 11.6986L1.0935 11.6912L1.10254 11.6694C1.10993 11.6518 1.12006 11.6281 1.13301 11.5986C1.15892 11.5398 1.19616 11.458 1.24543 11.3565C1.3439 11.1538 1.49084 10.8717 1.69182 10.5367C2.09294 9.86821 2.71449 8.98046 3.60301 8.09193ZM2.01697 12.075L1.0885 11.7036L0.939941 12.075L1.0885 12.4464L2.01697 12.075ZM3.12231 12.075C3.1941 11.9358 3.28838 11.7631 3.4068 11.5657C3.74277 11.0058 4.26779 10.2556 5.01723 9.50615C6.50369 8.01969 8.88098 6.52312 12.4999 6.52312C16.1189 6.52312 18.4962 8.01969 19.9826 9.50615C20.7321 10.2556 21.2571 11.0058 21.593 11.5657C21.7115 11.7631 21.8058 11.9358 21.8775 12.075C21.8058 12.2142 21.7115 12.3868 21.593 12.5842C21.2571 13.1441 20.7321 13.8943 19.9826 14.6438C18.4962 16.1302 16.1189 17.6268 12.4999 17.6268C8.88098 17.6268 6.50369 16.1302 5.01723 14.6438C4.26779 13.8943 3.74277 13.1441 3.4068 12.5842C3.28838 12.3868 3.1941 12.2142 3.12231 12.075ZM22.9829 12.075L23.9113 12.4464L24.0599 12.075L23.9113 11.7036L22.9829 12.075Z" fill="#6D75F4"/>
<path d="M12.5 12.0749V8.14383C10.3247 8.14383 8.56885 9.89972 8.56885 12.0749C8.56885 14.2501 10.3247 16.006 12.5 16.006C14.6752 16.006 16.4311 14.2501 16.4311 12.0749C16.4311 10.9873 15.9855 10.0046 15.2779 9.29695L12.5 12.0749Z" fill="#6D75F4"/>
</svg>
