<svg width="41" height="40" viewBox="0 0 41 40" fill="none" xmlns="http://www.w3.org/2000/svg">
<g clip-path="url(#clip0_8670_259490)">
<circle cx="20.5" cy="20" r="20" fill="#6D75F4"/>
<g clip-path="url(#clip1_8670_259490)">
<path d="M9 17.3993V18.4492C9 18.7464 9.12337 19.0005 9.37012 19.2115C9.61686 19.4224 9.91407 19.5279 10.2618 19.5279C10.6207 19.5279 10.9263 19.4224 11.1786 19.2115C11.431 19.0005 11.5572 18.7464 11.5572 18.4492V17.5C11.5572 16.5795 11.8964 15.8412 12.575 15.2851C13.2535 14.729 14.1536 14.4509 15.2752 14.4509H24.8215V16.824C24.8215 17.1021 24.9168 17.3202 25.1075 17.4784C25.2982 17.6366 25.5449 17.7157 25.8477 17.7157C26.1169 17.7157 26.3917 17.6294 26.6721 17.4568L30.5341 14.077C30.8145 13.8852 30.9547 13.6503 30.9547 13.3722C30.9547 13.0942 30.8145 12.8545 30.5341 12.6531L26.6721 9.25888C26.3917 9.08629 26.1169 9 25.8477 9C25.5449 9 25.2982 9.0791 25.1075 9.23731C24.9168 9.39551 24.8215 9.61365 24.8215 9.89171V12.3079H15.4434C13.4919 12.3079 11.9301 12.7706 10.7581 13.6958C9.58601 14.6211 9 15.8556 9 17.3993ZM31 22.5863V21.5364C31 21.2296 30.8794 20.9731 30.6383 20.767C30.3972 20.5608 30.0971 20.4577 29.7382 20.4577C29.3681 20.4577 29.0597 20.5608 28.8129 20.767C28.5662 20.9731 28.4428 21.2296 28.4428 21.5364V22.4856C28.4428 23.4061 28.1036 24.1444 27.425 24.7005C26.7465 25.2566 25.8464 25.5347 24.7248 25.5347H15.1785V23.176C15.1785 22.8979 15.0832 22.6798 14.8925 22.5216C14.7018 22.3634 14.4551 22.2843 14.1523 22.2843C13.8831 22.2843 13.6083 22.3706 13.3279 22.5432L9.46594 25.923C9.18554 26.1148 9.04255 26.3521 9.03694 26.635C9.03133 26.9178 9.17433 27.1551 9.46594 27.3469L13.3279 30.7411C13.6083 30.9137 13.8831 31 14.1523 31C14.4551 31 14.7018 30.9209 14.8925 30.7627C15.0832 30.6045 15.1785 30.3864 15.1785 30.1083V27.6777H24.5566C26.5081 27.6777 28.0699 27.2127 29.2419 26.2826C30.414 25.3525 31 24.1204 31 22.5863Z" fill="black"/>
</g>
</g>
<defs>
<clipPath id="clip0_8670_259490">
<rect width="40" height="40" fill="white" transform="translate(0.5)"/>
</clipPath>
<clipPath id="clip1_8670_259490">
<rect width="22" height="22" fill="white" transform="translate(9 9)"/>
</clipPath>
</defs>
</svg>
