<svg width="36" height="36" viewBox="0 0 36 36" fill="none" xmlns="http://www.w3.org/2000/svg">
<rect x="0.5" y="0.5" width="35" height="35" rx="17.5" fill="#14141D"/>
<g clip-path="url(#clip0_7706_156773)">
<circle cx="18" cy="18" r="17.5" fill="#14141D" stroke="#343994"/>
<path fill-rule="evenodd" clip-rule="evenodd" d="M26.2648 11.4338C27.1215 12.1048 27.2479 13.3137 26.5469 14.1339L17.8629 24.2962C17.5043 24.7158 16.9771 24.9706 16.4115 24.9976C15.8459 25.0246 15.2948 24.8213 14.8944 24.438L9.58704 19.3569C8.80432 18.6075 8.80432 17.3926 9.58704 16.6432C10.3698 15.8938 11.6388 15.8938 12.4215 16.6432L16.1628 20.225L23.4444 11.7039C24.1453 10.8837 25.408 10.7627 26.2648 11.4338Z" fill="#09AE4B"/>
</g>
<rect x="0.5" y="0.5" width="35" height="35" rx="17.5" stroke="#6D75F4"/>
<defs>
<clipPath id="clip0_7706_156773">
<rect width="36" height="36" fill="white"/>
</clipPath>
</defs>
</svg>
