<svg width="25" height="19" viewBox="0 0 25 19" fill="none" xmlns="http://www.w3.org/2000/svg">
<path fill-rule="evenodd" clip-rule="evenodd" d="M1.63538 3.44464C1.63538 2.61621 2.30695 1.94464 3.13538 1.94464H22.8015C23.6299 1.94464 24.3015 2.61621 24.3015 3.44464C24.3015 4.27307 23.6299 4.94464 22.8015 4.94464H3.13538C2.30695 4.94464 1.63538 4.27307 1.63538 3.44464Z" fill="#A2A4BA"/>
<path fill-rule="evenodd" clip-rule="evenodd" d="M3.27422 10C3.27422 9.17158 3.94579 8.5 4.77422 8.5H21.1626C21.991 8.5 22.6626 9.17158 22.6626 10C22.6626 10.8284 21.991 11.5 21.1626 11.5H4.77422C3.94579 11.5 3.27422 10.8284 3.27422 10Z" fill="#A2A4BA"/>
<path fill-rule="evenodd" clip-rule="evenodd" d="M6.5518 16.5554C6.5518 15.7269 7.22338 15.0554 8.0518 15.0554H17.8848C18.7133 15.0554 19.3848 15.7269 19.3848 16.5554C19.3848 17.3838 18.7133 18.0554 17.8848 18.0554H8.0518C7.22338 18.0554 6.5518 17.3838 6.5518 16.5554Z" fill="#A2A4BA"/>
</svg>
