<svg width="22" height="20" viewBox="0 0 22 20" fill="none" xmlns="http://www.w3.org/2000/svg">
<g clip-path="url(#clip0_8586_212053)">
<path d="M22.0002 5.46824V7.71281C21.9864 7.75143 21.9679 7.7892 21.9602 7.82867C21.7622 8.82767 21.1842 9.52366 20.2296 9.90264C20.0591 9.97011 20.0105 10.0448 20.0109 10.2171C20.0165 12.5949 20.0178 14.9732 20.0135 17.351C20.0105 18.8741 18.8669 19.9983 17.3257 19.9988C13.11 20.0005 8.89437 20.0005 4.6787 19.9962C4.45189 19.9962 4.21861 19.9771 3.99912 19.9241C2.80177 19.6363 1.99737 18.6089 1.99522 17.368C1.99135 14.9902 1.99178 12.6119 1.99823 10.2341C1.99866 10.055 1.95562 9.97351 1.77529 9.90094C0.799166 9.50796 0.181126 8.79839 0.0524389 7.76034C-0.0237401 7.14795 0.00337444 6.52114 0.0145646 5.90111C0.02059 5.55099 0.0477046 5.19196 0.134213 4.85415C0.491867 3.45453 0.877066 2.06127 1.25194 0.665469C1.39224 0.142202 1.57946 3.30089e-05 2.13337 3.30089e-05C6.18421 3.30089e-05 10.2355 3.30089e-05 14.2863 3.30089e-05C16.183 3.30089e-05 18.0798 -0.000815762 19.9765 0.000457394C20.3927 0.000457394 20.6096 0.16427 20.7245 0.558948C20.7951 0.802545 20.8622 1.04742 20.9259 1.29313C21.2849 2.68427 21.6425 4.07625 22.0006 5.46781L22.0002 5.46824ZM8.11364 18.6445C8.11364 18.5304 8.11364 18.4472 8.11364 18.3636C8.1158 16.8604 8.10159 15.3568 8.1257 13.8537C8.14119 12.875 8.93612 12.0042 9.91913 11.9121C10.5931 11.8489 11.2766 11.8858 11.9557 11.8832C12.0543 11.8832 12.1541 11.9083 12.2514 11.9316C13.2499 12.1722 13.8882 12.9828 13.8929 14.037C13.8994 15.4837 13.8946 16.9309 13.8946 18.3776C13.8946 18.4599 13.8946 18.5427 13.8946 18.6327C13.9777 18.6378 14.0337 18.6441 14.0896 18.6441C15.1776 18.6445 16.2661 18.6475 17.3541 18.6433C18.0892 18.6407 18.6324 18.1383 18.6354 17.4151C18.6461 15.0012 18.6388 12.5877 18.6431 10.1738C18.6431 10.0465 18.5906 10.0062 18.4796 9.97521C18.0156 9.84492 17.6175 9.60345 17.2801 9.26394C17.2517 9.2355 17.2173 9.21344 17.1815 9.18543C16.6121 9.7732 15.9325 10.0885 15.1135 10.086C14.2971 10.0834 13.6231 9.75453 13.0636 9.17906C12.4855 9.77447 11.8055 10.0889 10.9865 10.086C10.1709 10.083 9.49821 9.75198 8.94172 9.18203C7.95354 10.2511 6.11663 10.5146 4.80524 9.1867C4.45447 9.56058 4.03613 9.83643 3.53516 9.97139C3.3927 10.0096 3.36558 10.0783 3.36558 10.2095C3.36902 12.5881 3.36644 14.9664 3.36946 17.3451C3.37032 18.1302 3.89539 18.642 4.69032 18.6445C5.37766 18.6467 6.06499 18.645 6.75189 18.645C7.19519 18.645 7.63849 18.645 8.11407 18.645L8.11364 18.6445ZM20.4052 4.65851C20.397 4.6148 20.3922 4.58042 20.3836 4.54732C20.1177 3.5602 19.8465 2.57435 19.5896 1.58469C19.5414 1.39966 19.4622 1.34958 19.2702 1.35C15.1333 1.35637 10.9964 1.35509 6.85949 1.35509C5.47105 1.35509 4.08261 1.35722 2.69417 1.3517C2.54052 1.35128 2.46865 1.38777 2.43164 1.54564C2.34168 1.92971 2.22763 2.30826 2.12434 2.68936C1.94831 3.34164 1.77314 3.99392 1.59453 4.65808H20.4056L20.4052 4.65851ZM12.5071 18.6339C12.5127 18.5873 12.5191 18.5601 12.5191 18.5325C12.5191 17.0158 12.523 15.4986 12.517 13.9818C12.5152 13.5349 12.1963 13.2328 11.7375 13.2256C11.2869 13.2184 10.8359 13.2235 10.3848 13.2239C9.77409 13.2247 9.48831 13.5031 9.48831 14.1015C9.48745 15.5338 9.48831 16.9661 9.48831 18.3984V18.6339H12.5075H12.5071ZM4.12737 6.03734H1.38708C1.38708 6.53811 1.36125 7.02488 1.3931 7.50826C1.43873 8.20552 2.05461 8.73388 2.76691 8.73091C3.47447 8.72794 4.08433 8.18473 4.12264 7.48831C4.14889 7.0113 4.1278 6.53174 4.1278 6.03734H4.12737ZM5.50591 6.03182C5.50591 6.49313 5.50161 6.93576 5.50677 7.37882C5.51495 8.08202 6.04906 8.66386 6.73683 8.72709C7.46117 8.79329 8.12613 8.33326 8.2178 7.61605C8.28408 7.09915 8.23071 6.56697 8.23071 6.03224H5.50591V6.03182ZM12.3749 6.03734H9.63464C9.63464 6.53769 9.60925 7.02488 9.64067 7.50826C9.68629 8.20552 10.3022 8.73388 11.014 8.73091C11.7216 8.72794 12.3319 8.18515 12.3698 7.48873C12.396 7.01173 12.3749 6.53217 12.3749 6.03734ZM13.7535 6.03267C13.7535 6.49185 13.7479 6.94085 13.7548 7.38985C13.766 8.13974 14.3724 8.72964 15.1243 8.73091C15.8779 8.73218 16.4869 8.14526 16.5007 7.39622C16.508 6.98753 16.5028 6.57885 16.5015 6.17017C16.5015 6.12391 16.4895 6.07765 16.483 6.03267H13.7535ZM20.6221 6.03776H17.8805C17.8805 6.53175 17.8598 7.0113 17.8852 7.48831C17.9222 8.18303 18.5334 8.72751 19.2409 8.73091C19.9619 8.7343 20.5786 8.19236 20.6173 7.48746C20.6432 7.01045 20.6225 6.5309 20.6225 6.03776H20.6221Z" fill="#6D75F4"/>
<path d="M12.5071 18.6339C12.5126 18.5873 12.5191 18.5601 12.5191 18.5325C12.5191 17.0158 12.523 15.4986 12.517 13.9818C12.5152 13.535 12.1963 13.2328 11.7375 13.2256C11.2869 13.2184 10.8358 13.2235 10.3848 13.2239C9.77408 13.2247 9.4883 13.5031 9.4883 14.1015C9.48744 15.5338 9.4883 16.9661 9.4883 18.3984V18.6339H12.5071Z" fill="#6D75F4"/>
</g>
<defs>
<clipPath id="clip0_8586_212053">
<rect width="22.0006" height="20.0003" fill="white" transform="translate(0 -0.000244141)"/>
</clipPath>
</defs>
</svg>
