<svg width="25" height="25" viewBox="0 0 25 25" fill="none" xmlns="http://www.w3.org/2000/svg">
<g clip-path="url(#clip0_6044_20300)">
<path fill-rule="evenodd" clip-rule="evenodd" d="M12.4257 24.2966C13.5302 24.2966 14.4257 23.4012 14.4257 22.2966V3.15662C14.4257 2.05205 13.5302 1.15662 12.4257 1.15662C11.3211 1.15662 10.4257 2.05205 10.4257 3.15662V22.2966C10.4257 23.4012 11.3211 24.2966 12.4257 24.2966Z" fill="#6D75F4"/>
<path fill-rule="evenodd" clip-rule="evenodd" d="M11.0115 23.7108C11.7925 24.4919 13.0589 24.4919 13.8399 23.7108L22.9062 14.6445C23.6873 13.8635 23.6873 12.5971 22.9062 11.8161C22.1252 11.035 20.8588 11.035 20.0778 11.8161L12.4257 19.4682L4.77359 11.8161C3.99254 11.035 2.72621 11.035 1.94516 11.8161C1.16411 12.5971 1.16411 13.8635 1.94516 14.6445L11.0115 23.7108Z" fill="#6D75F4"/>
</g>
<defs>
<clipPath id="clip0_6044_20300">
<rect width="24" height="24" fill="white" transform="translate(0.425537 0.726624)"/>
</clipPath>
</defs>
</svg>
