<svg width="30" height="30" viewBox="0 0 30 30" fill="none" xmlns="http://www.w3.org/2000/svg">
<path d="M24.9931 20.7348C24.8724 18.6507 23.7134 16.7902 21.5403 15.2124C20.8522 14.7178 19.7415 14.0113 18.2204 13.399L24.305 7.44091V6.60488C24.305 6.27519 24.0152 5.99259 23.6772 5.99259H12.353V1L7.17387 2.05975V3.43742H7.83787C8.03103 3.43742 8.47772 3.50807 8.47772 4.06149V5.96904H5.54406C5.25432 5.96904 5.00079 6.21631 5.00079 6.49891V8.38291H8.48979V15.966C8.48979 17.3554 8.9727 18.5565 9.854 19.3454C10.7474 20.1461 12.015 20.5111 13.4879 20.3934C14.1157 20.3463 14.7434 20.1225 15.3591 19.734C15.6972 19.5103 15.9024 19.157 15.9024 18.7684V17.2141L15.2505 17.638C14.4537 18.1561 13.7655 18.1444 13.7655 18.1444H13.7414C13.3913 18.1444 13.1136 18.0384 12.8963 17.8264C12.3651 17.2966 12.3651 16.2957 12.3651 16.2839V8.38291H19.3793L13.8863 13.7758V13.9407C13.8742 14.553 13.8621 15.0593 13.8621 15.2595C13.8621 15.3184 13.8621 15.3537 13.8621 15.3655C13.8621 15.601 14.0311 15.7894 14.2726 15.8129C19.826 16.7314 20.985 20.2167 20.985 20.8644V20.9115C20.985 20.935 21.2144 22.9839 20.0071 24.4086C19.3069 25.2211 18.2566 25.6921 16.8924 25.7745C16.8803 25.7745 16.0714 25.8099 15.2143 25.6803C14.4175 25.5626 13.838 25.3624 13.5362 25.0916C14.0674 24.7266 14.3692 24.1731 14.3692 23.5255C14.3692 22.2067 13.4637 21.3589 12.0754 21.3589C10.8198 21.3589 9.79364 22.3245 9.78157 23.502C9.76949 23.7139 9.70913 25.0092 10.7836 26.1631C11.9184 27.3877 13.8742 28 16.5905 28C16.6871 28 16.7958 28 16.8924 28C19.6691 27.9529 21.7939 27.164 23.2064 25.6568C25.1621 23.5844 25.0052 20.8997 24.9931 20.7348Z" fill="white"/>
</svg>
