<svg width="20" height="27" viewBox="0 0 20 27" fill="none" xmlns="http://www.w3.org/2000/svg">
<g clip-path="url(#clip0_7795_142858)">
<path d="M19.9931 19.7348C19.8724 17.6507 18.7134 15.7902 16.5403 14.2124C15.8522 13.7178 14.7415 13.0113 13.2204 12.399L19.305 6.44091V5.60488C19.305 5.27519 19.0152 4.99259 18.6772 4.99259H7.35304V0L2.17387 1.05975V2.43742H2.83787C3.03103 2.43742 3.47772 2.50807 3.47772 3.06149V4.96904H0.544063C0.254319 4.96904 0.000793457 5.21631 0.000793457 5.49891V7.38291H3.48979V14.966C3.48979 16.3554 3.9727 17.5565 4.854 18.3454C5.74738 19.1461 7.01501 19.5111 8.48787 19.3934C9.11565 19.3463 9.74343 19.1225 10.3591 18.734C10.6972 18.5103 10.9024 18.157 10.9024 17.7684V16.2141L10.2505 16.638C9.45368 17.1561 8.76554 17.1444 8.76554 17.1444H8.7414C8.39129 17.1444 8.11362 17.0384 7.89631 16.8264C7.36512 16.2966 7.36512 15.2957 7.36512 15.2839V7.38291H14.3793L8.88627 12.7758V12.9407C8.8742 13.553 8.86213 14.0593 8.86213 14.2595C8.86213 14.3184 8.86213 14.3537 8.86213 14.3655C8.86213 14.601 9.03114 14.7894 9.2726 14.8129C14.826 15.7314 15.985 19.2167 15.985 19.8644V19.9115C15.985 19.935 16.2144 21.9839 15.0071 23.4086C14.3069 24.2211 13.2566 24.6921 11.8924 24.7745C11.8803 24.7745 11.0714 24.8099 10.2143 24.6803C9.41747 24.5626 8.83798 24.3624 8.53616 24.0916C9.06736 23.7266 9.36918 23.1731 9.36918 22.5255C9.36918 21.2067 8.46373 20.3589 7.07537 20.3589C5.81982 20.3589 4.79364 21.3245 4.78157 22.502C4.76949 22.7139 4.70913 24.0092 5.7836 25.1631C6.91843 26.3877 8.8742 27 11.5905 27C11.6871 27 11.7958 27 11.8924 27C14.6691 26.9529 16.7939 26.164 18.2064 24.6568C20.1621 22.5844 20.0052 19.8997 19.9931 19.7348Z" fill="white"/>
</g>
<defs>
<clipPath id="clip0_7795_142858">
<rect width="20.0008" height="27" fill="white"/>
</clipPath>
</defs>
</svg>
