<svg width="24" height="6" viewBox="0 0 24 6" fill="none" xmlns="http://www.w3.org/2000/svg">
<path d="M6 3C6 4.65685 4.65685 6 3 6C1.34315 6 0 4.65685 0 3C0 1.34315 1.34315 0 3 0C4.65685 0 6 1.34315 6 3Z" fill="#6D75F4"/>
<path d="M15 3C15 4.65685 13.6569 6 12 6C10.3431 6 9 4.65685 9 3C9 1.34315 10.3431 0 12 0C13.6569 0 15 1.34315 15 3Z" fill="#6D75F4"/>
<path d="M24 3C24 4.65685 22.6569 6 21 6C19.3431 6 18 4.65685 18 3C18 1.34315 19.3431 0 21 0C22.6569 0 24 1.34315 24 3Z" fill="#6D75F4"/>
</svg>
