<svg width="25" height="25" viewBox="0 0 25 25" fill="none" xmlns="http://www.w3.org/2000/svg">
<g clip-path="url(#clip0_6257_48595)">
<g clip-path="url(#clip1_6257_48595)">
<path fill-rule="evenodd" clip-rule="evenodd" d="M12.873 4.90965L10.2196 10.1657L4.23626 11.0157L8.5677 15.1434L7.55062 20.9408L12.873 18.2052L18.1953 20.9408L17.1782 15.1434L21.5096 11.0157L15.5263 10.1657L12.873 4.90965ZM11.149 2.77714C11.8695 1.34994 13.8764 1.34994 14.5969 2.77714L17.17 7.8741L22.9542 8.6958C24.6473 8.93633 25.1401 11.0094 24.0112 12.0852L19.8719 16.0298L20.8454 21.579C21.1027 23.0453 19.6073 24.4774 18.0633 23.6838L12.873 21.0161L7.68263 23.6838C6.13857 24.4774 4.64322 23.0453 4.90047 21.579L5.87401 16.0298L1.73474 12.0852C0.605805 11.0094 1.09857 8.93633 2.79173 8.6958L8.57595 7.8741L11.149 2.77714Z" fill="#6D75F4"/>
</g>
</g>
<defs>
<clipPath id="clip0_6257_48595">
<rect width="24.0036" height="24.0036" fill="white" transform="translate(0.871094 0.800171)"/>
</clipPath>
<clipPath id="clip1_6257_48595">
<rect width="24.0036" height="22.5034" fill="white" transform="translate(0.871094 1.55028)"/>
</clipPath>
</defs>
</svg>
