<svg width="18" height="20" viewBox="0 0 18 20" fill="none" xmlns="http://www.w3.org/2000/svg">
<g clip-path="url(#clip0_7702_151614)">
<path opacity="0.5" d="M6.67976 0.0362617C6.87758 -0.0374434 7.10529 0.00329735 7.2567 0.139487L17.8449 9.66328C18.0517 9.84925 18.0517 10.1508 17.8449 10.3367L7.2567 19.8605C7.10529 19.9967 6.87758 20.0374 6.67976 19.9637C6.48193 19.89 6.35294 19.7164 6.35294 19.5238V15.2381H1.41176C1.03734 15.2381 0.678254 15.1043 0.413496 14.8662C0.148739 14.628 0 14.305 0 13.9682V6.03175C0 5.69497 0.14874 5.37198 0.413496 5.13384C0.678254 4.8957 1.03734 4.76191 1.41176 4.76191H6.35294V0.476204C6.35294 0.283603 6.48193 0.109967 6.67976 0.0362617Z" fill="#6D75F4"/>
</g>
<defs>
<clipPath id="clip0_7702_151614">
<rect width="18" height="20" fill="white" transform="matrix(1 0 0 -1 0 20)"/>
</clipPath>
</defs>
</svg>
