<svg width="26" height="26" viewBox="0 0 26 26" fill="none" xmlns="http://www.w3.org/2000/svg">
<g clip-path="url(#clip0_17260_36571)">
<circle cx="13" cy="13" r="12.25" stroke="#6D75F4" stroke-width="1.5"/>
<path d="M11.3749 15.1666V10.8333C11.3749 9.12507 12.0919 7.58588 13.2417 6.49997H6.49992C5.3033 6.49997 4.33325 7.47002 4.33325 8.66664V13C4.33325 14.1966 5.3033 15.1666 6.49992 15.1666H11.3749Z" fill="#6D75F4"/>
<path fill-rule="evenodd" clip-rule="evenodd" d="M17.4272 7.85417H17.2934C15.6799 7.85417 14.3541 9.17996 14.3541 10.7935V15.5394C14.3541 16.4082 15.0705 17.1247 15.9393 17.1247H18.7813C19.65 17.1247 20.3665 16.4082 20.3665 15.5394V10.7935C20.3665 9.17996 19.0407 7.85417 17.4272 7.85417ZM17.2934 6.5H17.4272C19.7886 6.5 21.7206 8.43207 21.7206 10.7935V15.5394C21.7206 17.1561 20.3979 18.4788 18.7813 18.4788H15.9393C14.3226 18.4788 12.9999 17.1561 12.9999 15.5394V10.7935C12.9999 8.43207 14.932 6.5 17.2934 6.5Z" fill="#6D75F4"/>
<path d="M18.6874 11.1042C18.6874 11.8521 18.0811 12.4583 17.3333 12.4583C16.5854 12.4583 15.9791 11.8521 15.9791 11.1042C15.9791 10.3563 16.5854 9.75 17.3333 9.75C18.0811 9.75 18.6874 10.3563 18.6874 11.1042Z" fill="#6D75F4"/>
</g>
<defs>
<clipPath id="clip0_17260_36571">
<rect width="26" height="26" fill="white"/>
</clipPath>
</defs>
</svg>
