<svg width="24" height="24" viewBox="0 0 24 24" fill="none" xmlns="http://www.w3.org/2000/svg">
<path fill-rule="evenodd" clip-rule="evenodd" d="M3.25 6.25V9.75H6.75V6.25H3.25ZM3 5C2.44772 5 2 5.44772 2 6V10C2 10.5523 2.44772 11 3 11H7C7.55228 11 8 10.5523 8 10V6C8 5.44772 7.55228 5 7 5H3Z" fill="#6D75F4"/>
<path fill-rule="evenodd" clip-rule="evenodd" d="M10.25 6.25V9.75H13.75V6.25H10.25ZM10 5C9.44772 5 9 5.44772 9 6V10C9 10.5523 9.44772 11 10 11H14C14.5523 11 15 10.5523 15 10V6C15 5.44772 14.5523 5 14 5H10Z" fill="#6D75F4"/>
<path fill-rule="evenodd" clip-rule="evenodd" d="M3.25 13.25V16.75H6.75V13.25H3.25ZM3 12C2.44772 12 2 12.4477 2 13V17C2 17.5523 2.44772 18 3 18H7C7.55228 18 8 17.5523 8 17V13C8 12.4477 7.55228 12 7 12H3Z" fill="#6D75F4"/>
<path fill-rule="evenodd" clip-rule="evenodd" d="M10.25 13.25V16.75H13.75V13.25H10.25ZM10 12C9.44772 12 9 12.4477 9 13V17C9 17.5523 9.44772 18 10 18H14C14.5523 18 15 17.5523 15 17V13C15 12.4477 14.5523 12 14 12H10Z" fill="#6D75F4"/>
<path fill-rule="evenodd" clip-rule="evenodd" d="M17.25 13.25V16.75H20.75V13.25H17.25ZM17 12C16.4477 12 16 12.4477 16 13V17C16 17.5523 16.4477 18 17 18H21C21.5523 18 22 17.5523 22 17V13C22 12.4477 21.5523 12 21 12H17Z" fill="#6D75F4"/>
<path fill-rule="evenodd" clip-rule="evenodd" d="M17.25 6.25V9.75H20.75V6.25H17.25ZM17 5C16.4477 5 16 5.44772 16 6V10C16 10.5523 16.4477 11 17 11H21C21.5523 11 22 10.5523 22 10V6C22 5.44772 21.5523 5 21 5H17Z" fill="#6D75F4"/>
</svg>
