<svg width="24" height="24" viewBox="0 0 24 24" fill="none" xmlns="http://www.w3.org/2000/svg">
<path d="M15.8462 9.45455C15.8462 9.74387 15.7246 10.0213 15.5082 10.2259C15.2918 10.4305 14.9983 10.5455 14.6923 10.5455C14.3863 10.5455 14.0928 10.4305 13.8764 10.2259C13.66 10.0213 13.5385 9.74387 13.5385 9.45455C13.5385 9.16522 13.66 8.88774 13.8764 8.68316C14.0928 8.47857 14.3863 8.36364 14.6923 8.36364C14.9983 8.36364 15.2918 8.47857 15.5082 8.68316C15.7246 8.88774 15.8462 9.16522 15.8462 9.45455ZM22 5.45455V17.0909V18.5455C22 18.9312 21.8379 19.3012 21.5494 19.574C21.2609 19.8468 20.8696 20 20.4615 20H3.53846C3.13044 20 2.73912 19.8468 2.4506 19.574C2.16209 19.3012 2 18.9312 2 18.5455V15.6364V5.45455C2 5.06878 2.16209 4.69881 2.4506 4.42603C2.73912 4.15325 3.13044 4 3.53846 4H20.4615C20.8696 4 21.2609 4.15325 21.5494 4.42603C21.8379 4.69881 22 5.06878 22 5.45455ZM20.4615 15.3364V5.45455H3.53846V13.8818L7.06731 10.5455C7.35694 10.2756 7.74723 10.1244 8.15385 10.1244C8.56046 10.1244 8.95075 10.2756 9.24038 10.5455L13.5385 14.6091L15.5288 12.7273C15.8185 12.4575 16.2088 12.3062 16.6154 12.3062C17.022 12.3062 17.4123 12.4575 17.7019 12.7273L20.4615 15.3364Z" fill="#6D75F4"/>
</svg>
