<svg width="26" height="21" viewBox="0 0 26 21" fill="none" xmlns="http://www.w3.org/2000/svg">
<g clip-path="url(#clip0_8602_209484)">
<path d="M10.229 21H20.1701C20.8555 21 21.3318 20.9094 21.5991 20.7281C21.8664 20.5468 22 20.2848 22 19.9421C22 19.4411 21.8424 18.9138 21.5271 18.3602C21.2118 17.8065 20.7595 17.2874 20.1701 16.803C19.5807 16.3185 18.8662 15.9247 18.0266 15.6215C17.1871 15.3183 16.243 15.1667 15.1944 15.1667C14.1458 15.1667 13.2034 15.3183 12.3673 15.6215C11.5311 15.9247 10.8184 16.3185 10.229 16.803C9.63956 17.2874 9.18723 17.8065 8.87196 18.3602C8.5567 18.9138 8.39907 19.4411 8.39907 19.9421C8.39907 20.2848 8.531 20.5468 8.79486 20.7281C9.05873 20.9094 9.53676 21 10.229 21ZM15.1944 13.7825C15.7701 13.7825 16.3047 13.6309 16.7981 13.3277C17.2916 13.0245 17.6891 12.6125 17.9907 12.0918C18.2922 11.5711 18.443 10.9878 18.443 10.3418C18.443 9.69585 18.2922 9.12077 17.9907 8.61653C17.6891 8.11229 17.2916 7.71681 16.7981 7.43008C16.3047 7.14336 15.7701 7 15.1944 7C14.6255 7 14.0944 7.14666 13.6009 7.43997C13.1075 7.73329 12.71 8.13371 12.4084 8.64124C12.1069 9.14878 11.9561 9.72222 11.9561 10.3616C11.9561 11.0009 12.1069 11.5793 12.4084 12.0968C12.71 12.6142 13.1075 13.0245 13.6009 13.3277C14.0944 13.6309 14.6255 13.7825 15.1944 13.7825ZM1.50093 21H7.39159C7.18598 20.6704 7.09346 20.2898 7.11402 19.8581C7.13458 19.4263 7.24595 18.9798 7.44813 18.5184C7.65031 18.057 7.92103 17.6137 8.26028 17.1886C8.59953 16.7634 8.98162 16.396 9.40654 16.0862C8.96106 15.8159 8.45047 15.5918 7.87477 15.4138C7.29906 15.2359 6.64798 15.1469 5.9215 15.1469C5.00996 15.1469 4.18926 15.2919 3.45935 15.5819C2.72944 15.8719 2.10748 16.2509 1.59346 16.7189C1.07944 17.1869 0.68536 17.6977 0.411215 18.2514C0.13707 18.8051 0 19.3489 0 19.8828C0 20.2321 0.113083 20.5056 0.339252 20.7034C0.565422 20.9011 0.952645 21 1.50093 21ZM5.9215 13.9605C6.42181 13.9605 6.88614 13.8286 7.31449 13.565C7.74284 13.3013 8.08894 12.9421 8.3528 12.4873C8.61667 12.0325 8.7486 11.525 8.7486 10.9647C8.7486 10.3978 8.61667 9.89689 8.3528 9.46186C8.08894 9.02683 7.74284 8.68409 7.31449 8.43362C6.88614 8.18314 6.42181 8.05791 5.9215 8.05791C5.42803 8.05791 4.96542 8.18479 4.53365 8.43856C4.10187 8.69233 3.75405 9.04002 3.49019 9.48164C3.22632 9.92326 3.09439 10.4242 3.09439 10.9845C3.09439 11.5381 3.22632 12.0407 3.49019 12.4922C3.75405 12.9437 4.10187 13.3013 4.53365 13.565C4.96542 13.8286 5.42803 13.9605 5.9215 13.9605Z" fill="#6D75F4"/>
<path d="M21.994 8C21.4902 8 21.1584 7.65644 21.1584 7.16564V4.83436H18.8359C18.3321 4.83436 18.0003 4.50307 18.0003 4C17.988 3.48466 18.3321 3.16564 18.8359 3.16564H21.1584V0.834356C21.1584 0.343558 21.4902 0 21.994 0C22.5101 0 22.8419 0.331288 22.8419 0.834356V3.16564H25.1644C25.6682 3.16564 26 3.48466 26 4C26 4.50307 25.6682 4.83436 25.1644 4.83436H22.8419V7.16564C22.8419 7.65644 22.5101 8 21.994 8Z" fill="#6D75F4"/>
</g>
<defs>
<clipPath id="clip0_8602_209484">
<rect width="26" height="21" fill="white"/>
</clipPath>
</defs>
</svg>
