<svg width="24" height="24" viewBox="0 0 24 24" fill="none" xmlns="http://www.w3.org/2000/svg">
<g clip-path="url(#clip0_8440_192345)">
<path d="M12.0593 13.3234H6.12992C5.87234 13.3234 5.65686 13.2367 5.48348 13.0632C5.31011 12.8897 5.22342 12.6741 5.22342 12.4164C5.22342 12.1586 5.31011 11.9405 5.48348 11.7621C5.65686 11.5837 5.87234 11.4944 6.12992 11.4944H11.1528V4.75838C11.1528 4.50064 11.2395 4.28255 11.4129 4.10411C11.5863 3.92567 11.8017 3.83645 12.0593 3.83645C12.3169 3.83645 12.5349 3.92567 12.7132 4.10411C12.8915 4.28255 12.9807 4.50064 12.9807 4.75838V12.4164C12.9807 12.6741 12.8915 12.8897 12.7132 13.0632C12.5349 13.2367 12.3169 13.3234 12.0593 13.3234Z" fill="#6D75F4"/>
<path fill-rule="evenodd" clip-rule="evenodd" d="M16.6291 23.0632C15.1827 23.6877 13.6372 24 11.9926 24C10.3579 24 8.81734 23.6877 7.3709 23.0632C5.92445 22.4387 4.64892 21.5713 3.54427 20.461C2.43962 19.3507 1.57276 18.0719 0.943654 16.6245C0.314548 15.1772 0 13.6357 0 12C0 10.3643 0.314548 8.82281 0.943654 7.37546C1.57276 5.92812 2.43715 4.64932 3.53684 3.53903C4.63654 2.42874 5.90959 1.56134 7.35604 0.936803C8.80248 0.312265 10.343 0 11.9777 0C13.6223 0 15.1678 0.312265 16.6142 0.936803C18.0607 1.56134 19.3387 2.42874 20.4483 3.53903C21.5579 4.64932 22.4272 5.92812 23.0563 7.37546C23.6855 8.82281 24 10.3643 24 12C24 13.6357 23.6855 15.1772 23.0563 16.6245C22.4272 18.0719 21.5604 19.3507 20.4557 20.461C19.3511 21.5713 18.0756 22.4387 16.6291 23.0632ZM8.21053 20.9888C9.38453 21.4895 10.6452 21.7398 11.9926 21.7398C13.3499 21.7398 14.6155 21.4895 15.7895 20.9888C16.9635 20.4882 17.9963 19.7918 18.8879 18.8996C19.7796 18.0074 20.4755 16.9715 20.9759 15.7918C21.4762 14.6121 21.7263 13.3482 21.7263 12C21.7263 10.6518 21.4762 9.38786 20.9759 8.20818C20.4755 7.02849 19.7796 5.99257 18.8879 5.10037C17.9963 4.20817 16.961 3.51178 15.782 3.01115C14.6031 2.51053 13.335 2.26022 11.9777 2.26022C10.6303 2.26022 9.36967 2.51053 8.19567 3.01115C7.02167 3.51178 5.99134 4.20817 5.10464 5.10037C4.21795 5.99257 3.52694 7.02849 3.03158 8.20818C2.53622 9.38786 2.28854 10.6518 2.28854 12C2.28854 13.3482 2.5387 14.6121 3.03901 15.7918C3.53932 16.9715 4.23281 18.0074 5.1195 18.8996C6.0062 19.7918 7.03653 20.4882 8.21053 20.9888Z" fill="#6D75F4"/>
</g>
<defs>
<clipPath id="clip0_8440_192345">
<rect width="24" height="24" fill="white"/>
</clipPath>
</defs>
</svg>
