<svg width="24" height="24" viewBox="0 0 24 24" fill="none" xmlns="http://www.w3.org/2000/svg">
<path fill-rule="evenodd" clip-rule="evenodd" d="M20 16.1252C20 20.8456 16.8023 24 12.0056 24C7.19775 24 4 20.8456 4 16.1252C4 10.3419 8.82413 4.01815 12.5193 0C12.5193 2.14827 13.145 3.47676 13.8468 4.96702C13.9693 5.22699 14.094 5.49187 14.2182 5.7669C14.6348 6.68985 15.4695 7.78478 16.378 8.97661C18.0621 11.1859 20 13.7281 20 16.1252ZM12.1411 17.9117C13.0795 19.077 12.9786 20.4086 11.9211 20.9965C10.5845 21.7396 8.73222 21.0714 7.96695 19.6736C7.02933 17.9609 6.88291 16.2371 7.82828 13.7332C8.07417 15.0613 8.6085 16.1675 9.14107 16.5866C9.46096 16.8384 9.90645 16.941 10.3732 17.0485C11.0118 17.1956 11.6901 17.3518 12.1411 17.9117Z" fill="#6D75F4"/>
</svg>
