<svg width="25" height="24" viewBox="0 0 25 24" fill="none" xmlns="http://www.w3.org/2000/svg">
<path fill-rule="evenodd" clip-rule="evenodd" d="M21.1427 3.54088C21.267 3.80144 21.3366 4.09312 21.3366 4.40106V18.4019C21.3366 19.5064 20.4411 20.4019 19.3366 20.4019C18.232 20.4019 17.3366 19.5064 17.3366 18.4019V9.22941L5.97207 20.5939C5.19103 21.375 3.9247 21.375 3.14365 20.5939C2.3626 19.8129 2.3626 18.5465 3.14365 17.7655L14.5081 6.40106L5.33577 6.40106C4.2312 6.40106 3.33577 5.50563 3.33577 4.40106C3.33577 3.29649 4.2312 2.40106 5.33577 2.40106H19.3366C19.625 2.40106 19.8992 2.46212 20.1469 2.57202C20.3215 2.64936 20.4874 2.75293 20.6384 2.88274C20.8491 3.06357 21.0218 3.28751 21.1427 3.54088Z" fill="#6D75F4"/>
</svg>
