<svg width="10" height="18" viewBox="0 0 10 18" fill="none" xmlns="http://www.w3.org/2000/svg">
<g clip-path="url(#clip0_7702_133774)">
<path d="M0 9C0.0109835 8.81921 0.0494232 8.64972 0.115321 8.49153C0.181219 8.33333 0.280065 8.18644 0.411861 8.05085L7.90774 0.355932C8.13839 0.118643 8.42394 0 8.76442 0C9.11587 0 9.40966 0.121468 9.6458 0.364407C9.88193 0.607346 10 0.903953 10 1.25424C10 1.59322 9.8737 1.8983 9.62109 2.16949L2.9654 9L9.62109 15.8305C9.8737 16.0904 10 16.3898 10 16.7288C10 17.0904 9.88193 17.3927 9.6458 17.6356C9.40966 17.8785 9.11587 18 8.76442 18C8.42394 18 8.13839 17.8757 7.90774 17.6271L0.411861 9.9322C0.269082 9.79661 0.164744 9.64972 0.0988464 9.49153C0.0329485 9.33333 0 9.16949 0 9Z" fill="#6D75F4"/>
</g>
<defs>
<clipPath id="clip0_7702_133774">
<rect width="10" height="18" fill="white"/>
</clipPath>
</defs>
</svg>
