<svg width="36" height="36" viewBox="0 0 36 36" fill="none" xmlns="http://www.w3.org/2000/svg">
<rect x="0.5" y="0.5" width="35" height="35" rx="17.5" fill="#14141D"/>
<g clip-path="url(#clip0_7706_156773)">
<circle cx="18" cy="18" r="17.5" fill="#14141D" stroke="#343994"/>
<g clip-path="url(#clip1_7706_156773)">
<path fill-rule="evenodd" clip-rule="evenodd" d="M26.2648 11.4957C27.1215 12.2626 27.2479 13.6442 26.5469 14.5816L17.8629 26.1956C17.5043 26.6752 16.9771 26.9664 16.4115 26.9973C15.8459 27.0281 15.2948 26.7958 14.8944 26.3577L9.58704 20.5507C8.80432 19.6943 8.80432 18.3058 9.58704 17.4494C10.3698 16.593 11.6388 16.593 12.4215 17.4494L16.1628 21.5428L23.4444 11.8044C24.1453 10.867 25.408 10.7288 26.2648 11.4957Z" fill="#09AE4B"/>
</g>
</g>
<rect x="0.5" y="0.5" width="35" height="35" rx="17.5" stroke="#6D75F4"/>
<defs>
<clipPath id="clip0_7706_156773">
<rect width="36" height="36" fill="white"/>
</clipPath>
<clipPath id="clip1_7706_156773">
<rect width="18" height="16" fill="white" transform="translate(9 11)"/>
</clipPath>
</defs>
</svg>
