<svg width="30" height="30" viewBox="0 0 30 30" fill="none" xmlns="http://www.w3.org/2000/svg">
<g clip-path="url(#clip0_6248_35710)">
<path d="M15 30C23.2843 30 30 23.2843 30 15C30 6.71573 23.2843 0 15 0C6.71573 0 0 6.71573 0 15C0 23.2843 6.71573 30 15 30Z" fill="#FF4500"/>
<path d="M25.006 15C25.006 13.7828 24.0215 12.8163 22.8222 12.8163C22.2315 12.8163 21.6946 13.049 21.3008 13.4248C19.7972 12.3509 17.7387 11.6528 15.4475 11.5633L16.4499 6.87353L19.7077 7.57162C19.7435 8.39501 20.4237 9.0573 21.265 9.0573C22.1242 9.0573 22.8222 8.35921 22.8222 7.50003C22.8222 6.64084 22.1242 5.94275 21.265 5.94275C20.6564 5.94275 20.1194 6.30074 19.8688 6.81983L16.2351 6.05014C16.1277 6.03224 16.0203 6.05014 15.9487 6.10384C15.8592 6.15754 15.8055 6.24704 15.7876 6.35444L14.6778 11.5812C12.3509 11.6528 10.2566 12.3509 8.73512 13.4427C8.34133 13.0669 7.80433 12.8342 7.21364 12.8342C5.99646 12.8342 5.02987 13.8186 5.02987 15.0179C5.02987 15.9129 5.56686 16.6647 6.31865 17.0048C6.28285 17.2196 6.26496 17.4344 6.26496 17.6671C6.26496 21.0322 10.185 23.7709 15.0179 23.7709C19.8509 23.7709 23.7709 21.0501 23.7709 17.6671C23.7709 17.4523 23.753 17.2196 23.7172 17.0048C24.469 16.6647 25.006 15.895 25.006 15ZM10.006 16.5573C10.006 15.6981 10.7041 15 11.5633 15C12.4225 15 13.1206 15.6981 13.1206 16.5573C13.1206 17.4165 12.4225 18.1146 11.5633 18.1146C10.7041 18.1325 10.006 17.4165 10.006 16.5573ZM18.7232 20.6922C17.6492 21.7661 15.6086 21.8377 15.0179 21.8377C14.4094 21.8377 12.3688 21.7482 11.3127 20.6922C11.1516 20.5311 11.1516 20.2805 11.3127 20.1194C11.4738 19.9583 11.7244 19.9583 11.8855 20.1194C12.5657 20.7995 13.9977 21.0322 15.0179 21.0322C16.0382 21.0322 17.4881 20.7995 18.1504 20.1194C18.3115 19.9583 18.5621 19.9583 18.7232 20.1194C18.8664 20.2805 18.8664 20.5311 18.7232 20.6922ZM18.4368 18.1325C17.5776 18.1325 16.8795 17.4344 16.8795 16.5752C16.8795 15.716 17.5776 15.0179 18.4368 15.0179C19.296 15.0179 19.9941 15.716 19.9941 16.5752C19.9941 17.4165 19.296 18.1325 18.4368 18.1325Z" fill="#F5F5F5"/>
</g>
<defs>
<clipPath id="clip0_6248_35710">
<rect width="30" height="30" fill="white"/>
</clipPath>
</defs>
</svg>
