<svg width="24" height="24" viewBox="0 0 24 24" fill="none" xmlns="http://www.w3.org/2000/svg">
<path fill-rule="evenodd" clip-rule="evenodd" d="M9.36842 3.57895H4.10526C3.81459 3.57895 3.57895 3.81459 3.57895 4.10526V9.36842C3.57895 9.6591 3.81459 9.89474 4.10526 9.89474H9.36842C9.6591 9.89474 9.89474 9.6591 9.89474 9.36842V4.10526C9.89474 3.81459 9.6591 3.57895 9.36842 3.57895ZM4.10526 2C2.94256 2 2 2.94256 2 4.10526V9.36842C2 10.5311 2.94256 11.4737 4.10526 11.4737H9.36842C10.5311 11.4737 11.4737 10.5311 11.4737 9.36842V4.10526C11.4737 2.94256 10.5311 2 9.36842 2H4.10526Z" fill="#6D75F4"/>
<path fill-rule="evenodd" clip-rule="evenodd" d="M9.36842 14.1053H4.10526C3.81459 14.1053 3.57895 14.3409 3.57895 14.6316V19.8947C3.57895 20.1854 3.81459 20.421 4.10526 20.421H9.36842C9.6591 20.421 9.89474 20.1854 9.89474 19.8947V14.6316C9.89474 14.3409 9.6591 14.1053 9.36842 14.1053ZM4.10526 12.5263C2.94256 12.5263 2 13.4689 2 14.6316V19.8947C2 21.0574 2.94256 22 4.10526 22H9.36842C10.5311 22 11.4737 21.0574 11.4737 19.8947V14.6316C11.4737 13.4689 10.5311 12.5263 9.36842 12.5263H4.10526Z" fill="#6D75F4"/>
<path fill-rule="evenodd" clip-rule="evenodd" d="M19.8948 3.57895H14.6316C14.341 3.57895 14.1053 3.81459 14.1053 4.10526V9.36842C14.1053 9.6591 14.341 9.89474 14.6316 9.89474H19.8948C20.1855 9.89474 20.4211 9.6591 20.4211 9.36842V4.10526C20.4211 3.81459 20.1855 3.57895 19.8948 3.57895ZM14.6316 2C13.4689 2 12.5264 2.94256 12.5264 4.10526V9.36842C12.5264 10.5311 13.4689 11.4737 14.6316 11.4737H19.8948C21.0575 11.4737 22.0001 10.5311 22.0001 9.36842V4.10526C22.0001 2.94256 21.0575 2 19.8948 2H14.6316Z" fill="#6D75F4"/>
<path fill-rule="evenodd" clip-rule="evenodd" d="M19.8948 14.1053H14.6316C14.341 14.1053 14.1053 14.3409 14.1053 14.6316V19.8947C14.1053 20.1854 14.341 20.421 14.6316 20.421H19.8948C20.1855 20.421 20.4211 20.1854 20.4211 19.8947V14.6316C20.4211 14.3409 20.1855 14.1053 19.8948 14.1053ZM14.6316 12.5263C13.4689 12.5263 12.5264 13.4689 12.5264 14.6316V19.8947C12.5264 21.0574 13.4689 22 14.6316 22H19.8948C21.0575 22 22.0001 21.0574 22.0001 19.8947V14.6316C22.0001 13.4689 21.0575 12.5263 19.8948 12.5263H14.6316Z" fill="#6D75F4"/>
</svg>
