<svg width="25" height="25" viewBox="0 0 25 25" fill="none" xmlns="http://www.w3.org/2000/svg">
<g clip-path="url(#clip0_6612_152699)">
<path fill-rule="evenodd" clip-rule="evenodd" d="M3 13.1664C3 14.271 3.89543 15.1664 5 15.1664H21C22.1046 15.1664 23 14.271 23 13.1664C23 12.0618 22.1046 11.1664 21 11.1664H5C3.89543 11.1664 3 12.0618 3 13.1664Z" fill="#6D75F4"/>
<path fill-rule="evenodd" clip-rule="evenodd" d="M12.7987 3C11.6941 3 10.7987 3.89543 10.7987 5V21C10.7987 22.1046 11.6941 23 12.7987 23C13.9033 23 14.7987 22.1046 14.7987 21V5C14.7987 3.89543 13.9033 3 12.7987 3Z" fill="#6D75F4"/>
</g>
<defs>
<clipPath id="clip0_6612_152699">
<rect width="24" height="24" fill="white" transform="translate(0.789795 0.812012)"/>
</clipPath>
</defs>
</svg>
