<svg width="36" height="37" viewBox="0 0 36 37" fill="none" xmlns="http://www.w3.org/2000/svg">
<path fill-rule="evenodd" clip-rule="evenodd" d="M36 18.6135C36 28.5547 27.9411 36.6135 18 36.6135C8.05887 36.6135 0 28.5547 0 18.6135C0 8.6724 8.05887 0.613525 18 0.613525C27.9411 0.613525 36 8.6724 36 18.6135ZM25.6809 12.281C25.6809 12.0235 25.6225 11.7796 25.5182 11.5619C25.4173 11.3512 25.2734 11.1651 25.098 11.0148C24.9724 10.9071 24.8346 10.8211 24.6895 10.7568C24.4831 10.6653 24.2546 10.6144 24.0142 10.6144H12.3469C11.4264 10.6144 10.6802 11.3606 10.6802 12.281C10.6802 13.2015 11.4264 13.9477 12.3469 13.9477H19.9905L10.5201 23.4181C9.86926 24.0689 9.86926 25.1242 10.5201 25.7751C11.171 26.426 12.2263 26.426 12.8772 25.7751L22.3476 16.3047V23.9484C22.3476 24.8689 23.0938 25.6151 24.0142 25.6151C24.9347 25.6151 25.6809 24.8689 25.6809 23.9484V12.281Z" fill="#6D75F4"/>
</svg>
