<svg width="36" height="36" viewBox="0 0 36 36" fill="none" xmlns="http://www.w3.org/2000/svg">
<path fill-rule="evenodd" clip-rule="evenodd" d="M18 36C27.9411 36 36 27.9411 36 18C36 8.05887 27.9411 0 18 0C8.05887 0 0 8.05887 0 18C0 27.9411 8.05887 36 18 36ZM11.2191 25.9998C10.8708 26.0049 10.5805 25.8863 10.3483 25.644C10.1161 25.4117 10 25.124 10 24.7807C10 24.4375 10.1161 24.1497 10.3483 23.9175L16.2697 17.9961L10.3483 12.0899C10.1161 11.8476 10 11.5548 10 11.2115C10 10.8683 10.1161 10.5805 10.3483 10.3483C10.5805 10.1161 10.8708 10 11.2191 10C11.5674 10 11.8577 10.1161 12.0899 10.3483L17.9961 16.2697L23.9175 10.3483C24.1497 10.1161 24.4375 10 24.7807 10C25.124 10 25.4117 10.1161 25.644 10.3483C25.8863 10.5805 26.0049 10.8683 25.9998 11.2115C25.9948 11.5548 25.8762 11.8476 25.644 12.0899L19.7226 17.9961L25.644 23.9175C25.8762 24.1497 25.9948 24.4375 25.9998 24.7807C26.0049 25.124 25.8863 25.4117 25.644 25.644C25.4117 25.8863 25.124 26.0049 24.7807 25.9998C24.4375 25.9948 24.1497 25.8762 23.9175 25.644L17.9961 19.7226L12.0899 25.644C11.8577 25.8762 11.5674 25.9948 11.2191 25.9998Z" fill="#6D75F4"/>
</svg>
