<svg width="19" height="17" viewBox="0 0 19 17" fill="none" xmlns="http://www.w3.org/2000/svg">
<path d="M8.2938 1.77452C8.91095 0.741065 10.4227 0.741125 11.0399 1.77452L17.7762 13.6192C18.4041 14.6711 17.6377 16.0001 16.4032 16.0001H2.93052C1.69605 16.0001 0.929717 14.6711 1.55748 13.6192L8.2938 1.77452ZM9.66685 11.9249C9.02629 11.925 8.50376 12.4153 8.50376 13.0724C8.50388 13.7294 9.03621 14.2295 9.66685 14.2296C10.3074 14.2296 10.8298 13.7399 10.8299 13.0724C10.8299 12.4152 10.3174 11.9249 9.66685 11.9249ZM9.65708 4.96104C9.04606 4.9611 8.62273 5.39936 8.64244 6.01475L8.78013 9.83897C8.79999 10.4332 9.11517 10.7666 9.66685 10.7667C10.2088 10.7667 10.524 10.4437 10.534 9.83897L10.6825 6.02452C10.702 5.40928 10.268 4.96104 9.65708 4.96104Z" fill="#FF9A51"/>
</svg>
