<svg width="34" height="34" viewBox="0 0 34 34" fill="none" xmlns="http://www.w3.org/2000/svg">
<g clip-path="url(#clip0_6437_59482)">
<path fill-rule="evenodd" clip-rule="evenodd" d="M7.21021 17.3544C7.21021 18.459 8.10564 19.3544 9.21021 19.3544H25.2102C26.3148 19.3544 27.2102 18.459 27.2102 17.3544C27.2102 16.2498 26.3148 15.3544 25.2102 15.3544H9.21021C8.10564 15.3544 7.21021 16.2498 7.21021 17.3544Z" fill="#6D75F4"/>
<path fill-rule="evenodd" clip-rule="evenodd" d="M17.0089 7.18799C15.9043 7.18799 15.0089 8.08342 15.0089 9.18799V25.188C15.0089 26.2926 15.9043 27.188 17.0089 27.188C18.1135 27.188 19.0089 26.2926 19.0089 25.188V9.18799C19.0089 8.08342 18.1135 7.18799 17.0089 7.18799Z" fill="#6D75F4"/>
</g>
<defs>
<clipPath id="clip0_6437_59482">
<rect width="24" height="24" fill="white" transform="translate(5 5)"/>
</clipPath>
</defs>
</svg>
