<svg width="24" height="24" viewBox="0 0 24 24" fill="none" xmlns="http://www.w3.org/2000/svg">
<path d="M3.24356 21H20.7564C21.8376 21 22.6485 20.7304 23.1891 20.1911C23.7297 19.6518 24 18.8469 24 17.7763V5.24736C24 4.16884 23.7297 3.35799 23.1891 2.81479C22.6485 2.27159 21.8376 2 20.7564 2H3.24356C2.17015 2 1.36121 2.27356 0.816723 2.8207C0.272239 3.36783 0 4.17671 0 5.24736V17.7763C0 18.8469 0.270294 19.6518 0.81089 20.1911C1.35149 20.7304 2.16237 21 3.24356 21ZM3.26689 19.2051C2.77686 19.2051 2.4035 19.0772 2.14682 18.8213C1.89013 18.5655 1.76179 18.1817 1.76179 17.67V5.34183C1.76179 4.83799 1.89013 4.45225 2.14682 4.18459C2.4035 3.91692 2.77686 3.7831 3.26689 3.7831H20.7448C21.227 3.7831 21.5965 3.91692 21.8532 4.18459C22.1099 4.45225 22.2382 4.83799 22.2382 5.34183V17.67C22.2382 18.1659 22.1099 18.5458 21.8532 18.8095C21.5965 19.0732 21.227 19.2051 20.7448 19.2051H3.26689ZM22.8916 17.2094L16.8828 11.4823C16.6573 11.2776 16.4123 11.1221 16.1478 11.0158C15.8833 10.9096 15.615 10.8564 15.3427 10.8564C15.0705 10.8564 14.8099 10.9076 14.561 11.0099C14.3121 11.1123 14.0671 11.2658 13.826 11.4705L9.25231 15.6153L7.38551 13.8912C7.1755 13.6944 6.95382 13.5468 6.72047 13.4484C6.48712 13.35 6.24599 13.3008 5.99708 13.3008C5.77929 13.3008 5.56344 13.35 5.34954 13.4484C5.13563 13.5468 4.91979 13.6944 4.70199 13.8912L0.863393 17.4102C0.894507 18.3313 1.09869 19.026 1.47594 19.4944C1.85319 19.9628 2.42294 20.197 3.18522 20.197H20.1497C21.0598 20.197 21.7443 19.9431 22.2032 19.4354C22.6621 18.9276 22.8916 18.1856 22.8916 17.2094ZM7.59553 11.6004C8.24891 11.6004 8.81089 11.3622 9.28148 10.886C9.75207 10.4097 9.98736 9.83696 9.98736 9.16781C9.98736 8.72695 9.87846 8.32349 9.66067 7.95743C9.44288 7.59136 9.15314 7.30008 8.79144 7.08359C8.42975 6.8671 8.03111 6.75886 7.59553 6.75886C7.15994 6.75886 6.7613 6.8671 6.39961 7.08359C6.03792 7.30008 5.75012 7.59136 5.53622 7.95743C5.32231 8.32349 5.21536 8.72695 5.21536 9.16781C5.21536 9.61653 5.32231 10.0239 5.53622 10.39C5.75012 10.7561 6.03792 11.0493 6.39961 11.2697C6.7613 11.4902 7.15994 11.6004 7.59553 11.6004Z" fill="#6D75F4"/>
</svg>
