<svg width="22" height="24" viewBox="0 0 22 24" fill="none" xmlns="http://www.w3.org/2000/svg">
<g clip-path="url(#clip0_8444_190280)">
<path d="M0.107317 17.1859C0.0321951 17.2713 0 17.3673 0 17.4953C0 17.6233 0.0321951 17.7193 0.107317 17.8153C0.193171 17.9113 0.397073 18.114 0.901463 18.4127L9.93756 23.64C10.1629 23.768 10.3668 23.8747 10.5493 23.928C10.839 24.024 11.1288 24.024 11.44 23.928C11.6224 23.864 11.8263 23.768 12.0517 23.64L21.0878 18.402C21.5922 18.1033 21.8068 17.9007 21.882 17.8046C21.9571 17.7193 21.9893 17.6233 21.9893 17.4846C21.9893 17.3566 21.9571 17.2713 21.882 17.1752C21.7961 17.0792 21.5922 16.8765 21.0771 16.5778L19.4995 15.6604L12.8566 19.5115C12.5346 19.7035 12.2234 19.8422 11.9337 19.9382C11.6224 20.0449 11.3005 20.0982 10.9785 20.0982C10.6566 20.0982 10.3346 20.0449 10.0234 19.9382C9.73366 19.8422 9.43317 19.7035 9.11122 19.5115L2.45756 15.6604L0.88 16.5778C0.386341 16.8765 0.171707 17.0792 0.0965854 17.1752L0.107317 17.1859Z" fill="#8A90FF"/>
<path d="M0.107317 11.692C0.0321951 11.7773 0 11.8733 0 12.0013C0 12.1293 0.0321951 12.2254 0.107317 12.3214C0.193171 12.4174 0.397073 12.6201 0.901463 12.9188L9.93756 18.146C10.1629 18.274 10.3668 18.3807 10.5493 18.434C10.839 18.5301 11.1288 18.5301 11.44 18.434C11.6224 18.37 11.8263 18.274 12.0517 18.146L21.0878 12.9081C21.5922 12.6094 21.8068 12.4067 21.882 12.3107C21.9571 12.2254 21.9893 12.1293 21.9893 11.9907C21.9893 11.8627 21.9571 11.7773 21.882 11.6813C21.8068 11.5853 21.5922 11.3826 21.0771 11.0839L19.4995 10.1665L12.8566 14.0176C12.5346 14.2096 12.2234 14.3483 11.9337 14.4443C11.6224 14.551 11.3005 14.6043 10.9893 14.6043C10.678 14.6043 10.3454 14.551 10.0341 14.4443C9.75512 14.3483 9.4439 14.2096 9.12195 14.0176L2.46829 10.1665L0.890732 11.0839C0.418537 11.3613 0.203902 11.564 0.107317 11.6813V11.692Z" fill="#8A90FF"/>
<path d="M21.0878 5.60062L12.0624 0.362707C11.8371 0.234693 11.6332 0.128014 11.4507 0.074675C11.3005 0.0213357 11.1502 0 11 0C10.8498 0 10.6995 0.0213357 10.5493 0.074675C10.3776 0.138682 10.1629 0.234693 9.93756 0.362707L0.890732 5.60062C0.418537 5.87799 0.203902 6.08068 0.107317 6.19802C0.0321951 6.28336 0 6.37938 0 6.50739C0 6.6354 0.0321951 6.73141 0.107317 6.82743C0.203902 6.94477 0.418537 7.13679 0.901463 7.42483L9.93756 12.6521C10.1737 12.7908 10.3776 12.8868 10.5493 12.9401C10.8498 13.0361 11.1288 13.0468 11.4507 12.9401C11.6332 12.8761 11.8371 12.7801 12.0624 12.6521L21.0985 7.41416C21.6029 7.11546 21.8176 6.91277 21.8927 6.81676C21.9678 6.73141 22 6.6354 22 6.49672C22 6.36871 21.9678 6.28337 21.8927 6.18735C21.8176 6.09134 21.6029 5.88865 21.0878 5.58995V5.60062Z" fill="#8A90FF"/>
</g>
<defs>
<clipPath id="clip0_8444_190280">
<rect width="22" height="24" fill="white"/>
</clipPath>
</defs>
</svg>
