<svg width="30" height="30" viewBox="0 0 30 30" fill="none" xmlns="http://www.w3.org/2000/svg">
<g clip-path="url(#clip0_7795_142869)">
<circle cx="15" cy="15" r="14.9987" fill="#0D61FF"/>
<path d="M21.4395 19.3415C21.3592 17.9201 20.5883 16.6512 19.1427 15.5751C18.685 15.2378 17.9462 14.756 16.9343 14.3384L20.9818 10.2749V9.70469C20.9818 9.47983 20.789 9.28709 20.5642 9.28709H13.0314V5.88208L9.58621 6.60484V7.54443H10.0279C10.1564 7.54443 10.4535 7.59262 10.4535 7.97006V9.27103H8.50207C8.30933 9.27103 8.14069 9.43968 8.14069 9.63241V10.9173H10.4616V16.0891C10.4616 17.0367 10.7828 17.8558 11.369 18.3939C11.9633 18.94 12.8065 19.1889 13.7863 19.1086C14.2039 19.0765 14.6215 18.9239 15.031 18.6589C15.2559 18.5063 15.3924 18.2654 15.3924 18.0004V16.9403L14.9587 17.2294C14.4287 17.5828 13.971 17.5748 13.971 17.5748H13.9549C13.722 17.5748 13.5373 17.5025 13.3928 17.3579C13.0394 16.9966 13.0394 16.3139 13.0394 16.3059V10.9173H17.7052L14.0513 14.5954V14.7078C14.0432 15.1254 14.0352 15.4707 14.0352 15.6072C14.0352 15.6474 14.0352 15.6715 14.0352 15.6795C14.0352 15.8401 14.1476 15.9686 14.3083 15.9847C18.0024 16.6111 18.7733 18.9882 18.7733 19.4299V19.462C18.7733 19.478 18.9259 20.8754 18.1228 21.8471C17.6571 22.4012 16.9584 22.7224 16.0509 22.7787C16.0429 22.7787 15.5048 22.8027 14.9346 22.7144C14.4046 22.6341 14.0192 22.4976 13.8184 22.3129C14.1717 22.0639 14.3725 21.6865 14.3725 21.2448C14.3725 20.3454 13.7702 19.7671 12.8467 19.7671C12.0115 19.7671 11.3289 20.4257 11.3208 21.2287C11.3128 21.3733 11.2727 22.2567 11.9874 23.0437C12.7423 23.8789 14.0432 24.2965 15.8501 24.2965C15.9144 24.2965 15.9867 24.2965 16.0509 24.2965C17.898 24.2643 19.3114 23.7263 20.251 22.6983C21.5519 21.2849 21.4475 19.4539 21.4395 19.3415Z" fill="#F5F5F5"/>
</g>
<defs>
<clipPath id="clip0_7795_142869">
<rect width="30" height="30" fill="white"/>
</clipPath>
</defs>
</svg>
