<svg width="22" height="22" viewBox="0 0 22 22" fill="none" xmlns="http://www.w3.org/2000/svg">
<g clip-path="url(#clip0_7702_139463)">
<path d="M7.85646 13.6697H6.98047V9.33141H7.85646V13.6697Z" fill="#6D75F4"/>
<path d="M11.5332 12.2246C11.5114 12.7192 11.3723 13.0936 11.1161 13.3479C10.8599 13.6021 10.4983 13.7293 10.0315 13.7293C9.54091 13.7293 9.16449 13.5684 8.90229 13.2466C8.64207 12.9228 8.51197 12.4619 8.51197 11.864V11.134C8.51197 10.5381 8.64704 10.0793 8.91719 9.75749C9.18733 9.43371 9.56276 9.27182 10.0435 9.27182C10.5162 9.27182 10.8748 9.40391 11.1191 9.6681C11.3654 9.93229 11.5054 10.3117 11.5392 10.8063H10.6602C10.6523 10.5004 10.6046 10.2898 10.5172 10.1746C10.4318 10.0574 10.2739 9.99883 10.0435 9.99883C9.80907 9.99883 9.64321 10.0813 9.54588 10.2461C9.44854 10.409 9.3969 10.6782 9.39094 11.0536V11.873C9.39094 12.304 9.43861 12.6 9.53396 12.7609C9.63129 12.9218 9.79715 13.0022 10.0315 13.0022C10.262 13.0022 10.4209 12.9466 10.5083 12.8354C10.5957 12.7222 10.6453 12.5186 10.6573 12.2246H11.5332Z" fill="#6D75F4"/>
<path d="M15.1266 11.8909C15.1266 12.4729 14.9886 12.9248 14.7124 13.2466C14.4383 13.5684 14.0569 13.7293 13.5683 13.7293C13.0816 13.7293 12.6993 13.5703 12.4212 13.2525C12.1431 12.9327 12.002 12.4858 11.9981 11.9117V11.1698C11.9981 10.5739 12.1361 10.1091 12.4122 9.77537C12.6883 9.43967 13.0717 9.27182 13.5623 9.27182C14.045 9.27182 14.4254 9.43669 14.7035 9.76643C14.9816 10.0942 15.1226 10.555 15.1266 11.1489V11.8909ZM14.2476 11.1638C14.2476 10.7725 14.192 10.4815 14.0808 10.2908C13.9695 10.1001 13.7967 10.0048 13.5623 10.0048C13.3299 10.0048 13.1581 10.0972 13.0469 10.2819C12.9356 10.4646 12.878 10.7437 12.8741 11.1192V11.8909C12.8741 12.2703 12.9307 12.5503 13.0439 12.7311C13.1571 12.9099 13.3319 12.9993 13.5683 12.9993C13.7967 12.9993 13.9666 12.9119 14.0778 12.7371C14.189 12.5603 14.2456 12.2871 14.2476 11.9177V11.1638Z" fill="#6D75F4"/>
<circle cx="11" cy="11" r="9.84595" stroke="#6D75F4" stroke-width="2.30809"/>
</g>
<defs>
<clipPath id="clip0_7702_139463">
<rect width="22" height="22" fill="white"/>
</clipPath>
</defs>
</svg>
