<svg width="16" height="18" viewBox="0 0 16 18" fill="none" xmlns="http://www.w3.org/2000/svg">
<path fill-rule="evenodd" clip-rule="evenodd" d="M8.14986 1.95779C7.5134 1.95779 6.90301 2.20273 6.45297 2.63873C6.00292 3.07473 5.75009 3.66607 5.75009 4.28266V7.58643C5.75009 8.12706 5.2977 8.56532 4.73966 8.56532C4.18161 8.56532 3.72922 8.12706 3.72922 7.58643V4.28266C3.72922 3.14683 4.19497 2.05752 5.024 1.25436C5.85303 0.451208 6.97744 0 8.14986 0C9.32229 0 10.4467 0.451208 11.2757 1.25436C12.1048 2.05752 12.5705 3.14683 12.5705 4.28266V7.58643C12.5705 8.12706 12.1181 8.56532 11.5601 8.56532C11.002 8.56532 10.5496 8.12706 10.5496 7.58643V4.28266C10.5496 3.66607 10.2968 3.07473 9.84676 2.63873C9.39672 2.20273 8.78632 1.95779 8.14986 1.95779Z" fill="#6D75F4"/>
<path d="M14.6667 6.37455H1.33333C0.979711 6.37455 0.640573 6.51064 0.390524 6.75288C0.140476 6.99512 0 7.32368 0 7.66626V16.7083C0 17.0509 0.140476 17.3794 0.390524 17.6217C0.640573 17.8639 0.979711 18 1.33333 18H14.6667C15.0203 18 15.3594 17.8639 15.6095 17.6217C15.8595 17.3794 16 17.0509 16 16.7083V7.66626C16 7.32368 15.8595 6.99512 15.6095 6.75288C15.3594 6.51064 15.0203 6.37455 14.6667 6.37455ZM8.66667 13.3821V14.7707C8.66667 14.942 8.59643 15.1063 8.47141 15.2274C8.34638 15.3485 8.17681 15.4166 8 15.4166C7.82319 15.4166 7.65362 15.3485 7.5286 15.2274C7.40357 15.1063 7.33333 14.942 7.33333 14.7707V13.3821C6.79622 13.227 6.3347 12.8897 6.03316 12.432C5.73161 11.9743 5.6102 11.4268 5.69111 10.8895C5.77203 10.3522 6.04987 9.86107 6.47382 9.50592C6.89778 9.15077 7.43953 8.95533 8 8.95533C8.56047 8.95533 9.10222 9.15077 9.52618 9.50592C9.95013 9.86107 10.228 10.3522 10.3089 10.8895C10.3898 11.4268 10.2684 11.9743 9.96684 12.432C9.6653 12.8897 9.20378 13.227 8.66667 13.3821Z" fill="#6D75F4"/>
</svg>
