<svg width="30" height="30" viewBox="0 0 30 30" fill="none" xmlns="http://www.w3.org/2000/svg">
<g clip-path="url(#clip0_7795_142842)">
<path d="M25.3901 4.90959C23.4885 4.01845 21.4178 3.38192 19.2626 3C19.2203 3 19.178 3 19.178 3.04244C18.9245 3.50923 18.6287 4.14576 18.4174 4.61255C16.0931 4.27306 13.8111 4.27306 11.5714 4.61255C11.3601 4.10332 11.0643 3.50923 10.8108 3.04244C10.8108 3 10.7685 3 10.7262 3C8.57102 3.38192 6.54259 4.01845 4.59867 4.90959C4.59867 4.90959 4.55641 4.90959 4.55641 4.95203C0.668578 10.7657 -0.387898 16.452 0.11921 22.0959C0.11921 22.1242 0.133297 22.1525 0.161469 22.1808C2.73927 24.0904 5.23256 25.2362 7.64132 26C7.68358 26 7.72584 26 7.72584 25.9576C8.31747 25.1513 8.82458 24.345 9.24717 23.4539C9.28943 23.4114 9.24717 23.3266 9.20491 23.3266C8.40199 23.0295 7.59906 22.6476 6.88066 22.2232C6.8384 22.1808 6.79614 22.0959 6.88066 22.0535C7.0497 21.9262 7.17647 21.7989 7.34551 21.6716C7.38777 21.6292 7.43003 21.6292 7.43003 21.6716C12.3321 23.9207 17.6567 23.9207 22.5165 21.6716H22.601C22.7701 21.7989 22.8968 21.9262 23.0659 22.0535C23.1081 22.0959 23.1081 22.1808 23.0659 22.2232C22.3052 22.6476 21.5446 23.0295 20.7416 23.3266C20.6994 23.3266 20.6571 23.4114 20.6994 23.4539C21.1642 24.345 21.6713 25.1513 22.2207 25.9576C22.263 26 22.3052 26 22.3052 26C24.7562 25.2362 27.2495 24.0904 29.8273 22.1808C29.8696 22.1808 29.8696 22.1384 29.8696 22.0959C30.5035 15.6033 28.8131 9.95941 25.3901 4.90959C25.4324 4.90959 25.3901 4.90959 25.3901 4.90959ZM10.0078 18.6587C8.52876 18.6587 7.30325 17.3007 7.30325 15.6033C7.30325 13.9059 8.4865 12.548 10.0078 12.548C11.5292 12.548 12.7124 13.9059 12.7124 15.6033C12.7124 17.3007 11.5292 18.6587 10.0078 18.6587ZM19.981 18.6587C18.5019 18.6587 17.2764 17.3007 17.2764 15.6033C17.2764 13.9059 18.4596 12.548 19.981 12.548C21.5023 12.548 22.6856 13.9059 22.6856 15.6033C22.6856 17.3007 21.5023 18.6587 19.981 18.6587Z" fill="white"/>
</g>
<defs>
<clipPath id="clip0_7795_142842">
<rect width="30" height="30" fill="white" transform="translate(0.000793457)"/>
</clipPath>
</defs>
</svg>
