<svg width="30" height="23" viewBox="0 0 30 23" fill="none" xmlns="http://www.w3.org/2000/svg">
<g clip-path="url(#clip0_7795_142842)">
<path d="M25.3901 1.90959C23.4885 1.01845 21.4178 0.381919 19.2626 0C19.2203 0 19.178 0 19.178 0.0424354C18.9245 0.509225 18.6287 1.14576 18.4174 1.61255C16.0931 1.27306 13.8111 1.27306 11.5714 1.61255C11.3601 1.10332 11.0643 0.509225 10.8108 0.0424354C10.8108 0 10.7685 0 10.7262 0C8.57102 0.381919 6.54259 1.01845 4.59867 1.90959C4.59867 1.90959 4.55641 1.90959 4.55641 1.95203C0.668578 7.76568 -0.387898 13.452 0.11921 19.0959C0.11921 19.1242 0.133297 19.1525 0.161469 19.1808C2.73927 21.0904 5.23256 22.2362 7.64132 23C7.68358 23 7.72584 23 7.72584 22.9576C8.31747 22.1513 8.82458 21.345 9.24717 20.4539C9.28943 20.4114 9.24717 20.3266 9.20491 20.3266C8.40199 20.0295 7.59906 19.6476 6.88066 19.2232C6.8384 19.1808 6.79614 19.0959 6.88066 19.0535C7.0497 18.9262 7.17647 18.7989 7.34551 18.6716C7.38777 18.6292 7.43003 18.6292 7.43003 18.6716C12.3321 20.9207 17.6567 20.9207 22.5165 18.6716H22.601C22.7701 18.7989 22.8968 18.9262 23.0659 19.0535C23.1081 19.0959 23.1081 19.1808 23.0659 19.2232C22.3052 19.6476 21.5446 20.0295 20.7416 20.3266C20.6994 20.3266 20.6571 20.4114 20.6994 20.4539C21.1642 21.345 21.6713 22.1513 22.2207 22.9576C22.263 23 22.3052 23 22.3052 23C24.7562 22.2362 27.2495 21.0904 29.8273 19.1808C29.8696 19.1808 29.8696 19.1384 29.8696 19.0959C30.5035 12.6033 28.8131 6.95941 25.3901 1.90959C25.4324 1.90959 25.3901 1.90959 25.3901 1.90959ZM10.0078 15.6587C8.52876 15.6587 7.30325 14.3007 7.30325 12.6033C7.30325 10.9059 8.4865 9.54797 10.0078 9.54797C11.5292 9.54797 12.7124 10.9059 12.7124 12.6033C12.7124 14.3007 11.5292 15.6587 10.0078 15.6587ZM19.981 15.6587C18.5019 15.6587 17.2764 14.3007 17.2764 12.6033C17.2764 10.9059 18.4596 9.54797 19.981 9.54797C21.5023 9.54797 22.6856 10.9059 22.6856 12.6033C22.6856 14.3007 21.5023 15.6587 19.981 15.6587Z" fill="white"/>
</g>
<defs>
<clipPath id="clip0_7795_142842">
<rect width="30" height="23" fill="white" transform="translate(0.000793457)"/>
</clipPath>
</defs>
</svg>
