<svg width="41" height="40" viewBox="0 0 41 40" fill="none" xmlns="http://www.w3.org/2000/svg">
<g clip-path="url(#clip0_8670_259482)">
<circle cx="20.5" cy="20" r="20" fill="#6D75F4"/>
<g clip-path="url(#clip1_8670_259482)">
<path d="M12.0825 19.0494H17.2919C18.0972 19.0494 18.7012 18.8432 19.1038 18.4307C19.5065 18.0183 19.7078 17.3996 19.7078 16.5748V11.4746C19.7078 10.6497 19.5065 10.0311 19.1038 9.61866C18.7012 9.20622 18.0972 9 17.2919 9H12.0825C11.2772 9 10.6733 9.20622 10.2706 9.61866C9.86795 10.0311 9.66663 10.6497 9.66663 11.4746V16.5748C9.66663 17.3996 9.86795 18.0183 10.2706 18.4307C10.6733 18.8432 11.2772 19.0494 12.0825 19.0494ZM12.0976 17.1481C11.7353 17.1481 11.5541 16.957 11.5541 16.5748V11.4595C11.5541 11.0873 11.7353 10.9012 12.0976 10.9012H17.2617C17.6341 10.9012 17.8204 11.0873 17.8204 11.4595V16.5748C17.8204 16.957 17.6341 17.1481 17.2617 17.1481H12.0976ZM13.6378 15.3073H15.7215C15.8927 15.3073 15.9782 15.2117 15.9782 15.0206V13.0137C15.9782 12.8326 15.8927 12.7421 15.7215 12.7421H13.6378C13.4767 12.7421 13.3962 12.8326 13.3962 13.0137V15.0206C13.3962 15.2117 13.4767 15.3073 13.6378 15.3073ZM24.0414 19.0494H29.2507C30.0661 19.0494 30.6726 18.8432 31.0702 18.4307C31.4678 18.0183 31.6666 17.3996 31.6666 16.5748V11.4746C31.6666 10.6497 31.4678 10.0311 31.0702 9.61866C30.6726 9.20622 30.0661 9 29.2507 9H24.0414C23.2361 9 22.6321 9.20622 22.2294 9.61866C21.8268 10.0311 21.6254 10.6497 21.6254 11.4746V16.5748C21.6254 17.3996 21.8268 18.0183 22.2294 18.4307C22.6321 18.8432 23.2361 19.0494 24.0414 19.0494ZM24.0716 17.1481C23.6991 17.1481 23.5129 16.957 23.5129 16.5748V11.4595C23.5129 11.0873 23.6991 10.9012 24.0716 10.9012H29.2356C29.598 10.9012 29.7792 11.0873 29.7792 11.4595V16.5748C29.7792 16.957 29.598 17.1481 29.2356 17.1481H24.0716ZM25.6872 15.3073H27.771C27.9421 15.3073 28.0276 15.2117 28.0276 15.0206V13.0137C28.0276 12.8326 27.9421 12.7421 27.771 12.7421H25.6872C25.5262 12.7421 25.4456 12.8326 25.4456 13.0137V15.0206C25.4456 15.2117 25.5262 15.3073 25.6872 15.3073ZM12.0825 31H17.2919C18.0972 31 18.7012 30.7963 19.1038 30.3889C19.5065 29.9815 19.7078 29.3603 19.7078 28.5254V23.4252C19.7078 22.6004 19.5065 21.9842 19.1038 21.5768C18.7012 21.1694 18.0972 20.9657 17.2919 20.9657H12.0825C11.2772 20.9657 10.6733 21.1694 10.2706 21.5768C9.86795 21.9842 9.66663 22.6004 9.66663 23.4252V28.5254C9.66663 29.3603 9.86795 29.9815 10.2706 30.3889C10.6733 30.7963 11.2772 31 12.0825 31ZM12.0976 29.0988C11.7353 29.0988 11.5541 28.9127 11.5541 28.5405V23.4252C11.5541 23.043 11.7353 22.8519 12.0976 22.8519H17.2617C17.6341 22.8519 17.8204 23.043 17.8204 23.4252V28.5405C17.8204 28.9127 17.6341 29.0988 17.2617 29.0988H12.0976ZM13.6378 27.2579H15.7215C15.8927 27.2579 15.9782 27.1623 15.9782 26.9712V24.9643C15.9782 24.7833 15.8927 24.6927 15.7215 24.6927H13.6378C13.4767 24.6927 13.3962 24.7833 13.3962 24.9643V26.9712C13.3962 27.1623 13.4767 27.2579 13.6378 27.2579ZM22.4559 24.1193H24.5397C24.7108 24.1193 24.7963 24.0238 24.7963 23.8326V21.8258C24.7963 21.6447 24.7108 21.5542 24.5397 21.5542H22.4559C22.2949 21.5542 22.2143 21.6447 22.2143 21.8258V23.8326C22.2143 24.0238 22.2949 24.1193 22.4559 24.1193ZM28.7373 24.1193H30.8211C30.9922 24.1193 31.0777 24.0238 31.0777 23.8326V21.8258C31.0777 21.6447 30.9922 21.5542 30.8211 21.5542H28.7373C28.5763 21.5542 28.4957 21.6447 28.4957 21.8258V23.8326C28.4957 24.0238 28.5763 24.1193 28.7373 24.1193ZM25.6268 27.2579H27.7106C27.8817 27.2579 27.9672 27.1623 27.9672 26.9712V24.9643C27.9672 24.7833 27.8817 24.6927 27.7106 24.6927H25.6268C25.4658 24.6927 25.3852 24.7833 25.3852 24.9643V26.9712C25.3852 27.1623 25.4658 27.2579 25.6268 27.2579ZM22.4559 30.3964H24.5397C24.7108 30.3964 24.7963 30.3009 24.7963 30.1097V28.1029C24.7963 27.9218 24.7108 27.8313 24.5397 27.8313H22.4559C22.2949 27.8313 22.2143 27.9218 22.2143 28.1029V30.1097C22.2143 30.3009 22.2949 30.3964 22.4559 30.3964ZM28.7373 30.3964H30.8211C30.9922 30.3964 31.0777 30.3009 31.0777 30.1097V28.1029C31.0777 27.9218 30.9922 27.8313 30.8211 27.8313H28.7373C28.5763 27.8313 28.4957 27.9218 28.4957 28.1029V30.1097C28.4957 30.3009 28.5763 30.3964 28.7373 30.3964Z" fill="black"/>
</g>
</g>
<defs>
<clipPath id="clip0_8670_259482">
<rect width="40" height="40" fill="white" transform="translate(0.5)"/>
</clipPath>
<clipPath id="clip1_8670_259482">
<rect width="22" height="22" fill="white" transform="translate(9.66663 9)"/>
</clipPath>
</defs>
</svg>
