<svg width="23" height="24" viewBox="0 0 23 24" fill="none" xmlns="http://www.w3.org/2000/svg">
<path fill-rule="evenodd" clip-rule="evenodd" d="M11.4845 23.3901C12.5891 23.3901 13.4845 22.4947 13.4845 21.3901V2.25012C13.4845 1.14555 12.5891 0.250122 11.4845 0.250122C10.3799 0.250122 9.48452 1.14555 9.48452 2.25012V21.3901C9.48452 22.4947 10.3799 23.3901 11.4845 23.3901Z" fill="#6D75F4"/>
<path fill-rule="evenodd" clip-rule="evenodd" d="M10.0703 22.8043C10.8514 23.5854 12.1177 23.5854 12.8987 22.8043L21.9651 13.738C22.7461 12.957 22.7461 11.6906 21.9651 10.9096C21.184 10.1285 19.9177 10.1285 19.1366 10.9096L11.4845 18.5617L3.83243 10.9096C3.05138 10.1285 1.78505 10.1285 1.004 10.9096C0.222951 11.6906 0.222951 12.957 1.004 13.738L10.0703 22.8043Z" fill="#6D75F4"/>
</svg>
