<svg width="25" height="25" viewBox="0 0 25 25" fill="none" xmlns="http://www.w3.org/2000/svg">
<g clip-path="url(#clip0_6331_46214)">
<path d="M3.10706 2.92323H15.9502C17.6071 2.92323 18.9502 4.26638 18.9502 5.92323V15.9429C18.9502 15.9844 18.9494 16.0257 18.9477 16.0668V14.089H16.5948V6.29478C16.5948 5.74249 16.1471 5.29478 15.5948 5.29478H3.46245C2.91017 5.29478 2.46245 5.74249 2.46245 6.29477V15.7137C2.46245 16.266 2.91017 16.7137 3.46245 16.7137H13.3912V18.9429H3.10706C1.4502 18.9429 0.107056 17.5997 0.107056 15.9429V5.92323C0.107056 4.26638 1.4502 2.92323 3.10706 2.92323Z" fill="#6D75F4"/>
<path d="M15.78 18.9429H15.9502C17.4895 18.9429 18.7579 17.7837 18.9303 16.2906H16.4118C16.2646 16.4986 16.0401 16.6479 15.78 16.6966V18.9429Z" fill="#6D75F4"/>
<path fill-rule="evenodd" clip-rule="evenodd" d="M8.15955 7.77313H20.1752L21.0114 7.77556C22.6649 7.78036 24.0027 9.12209 24.0027 10.7755V19.7731C24.0027 21.43 22.6596 22.7731 21.0027 22.7731H8.15955C6.50269 22.7731 5.15955 21.43 5.15955 19.7731V10.7731C5.15955 9.11628 6.50269 7.77313 8.15955 7.77313ZM18.9477 16.2906V14.089H15.78V10.6243H13.3912V14.089H10.2147V16.2906H13.3912V19.922H15.78V16.2906H18.9477Z" fill="#6D75F4"/>
</g>
<defs>
<clipPath id="clip0_6331_46214">
<rect width="23.9426" height="19.8261" fill="white" transform="translate(0.0600586 2.92323)"/>
</clipPath>
</defs>
</svg>
