<svg width="20" height="20" viewBox="0 0 20 20" fill="none" xmlns="http://www.w3.org/2000/svg">
<path fill-rule="evenodd" clip-rule="evenodd" d="M8.56551 0.338803C8.85984 0.633707 8.97234 1.06438 8.85985 1.46556C8.48376 2.80674 8.47143 4.22386 8.82414 5.57138C9.17684 6.9189 9.88187 8.14825 10.8668 9.13319C11.8517 10.1181 13.0811 10.8232 14.4286 11.1759C15.7761 11.5286 17.1933 11.5162 18.5344 11.1402C18.9356 11.0277 19.3663 11.1402 19.6612 11.4345C19.9561 11.7288 20.0694 12.1593 19.9577 12.5607C19.4815 14.2716 18.5653 15.828 17.3004 17.0747C16.0355 18.3213 14.4661 19.2149 12.7484 19.6662C11.0307 20.1176 9.22474 20.1111 7.51037 19.6473C5.79601 19.1834 4.23307 18.2786 2.97725 17.0227C1.72143 15.7669 0.816555 14.204 0.352749 12.4896C-0.111057 10.7753 -0.117603 8.96929 0.333764 7.25161C0.785131 5.53392 1.67866 3.96447 2.92534 2.69958C4.17203 1.43469 5.72836 0.518507 7.43932 0.0422863C7.84072 -0.0694369 8.27117 0.0438981 8.56551 0.338803ZM6.27688 3.00742C5.6527 3.36287 5.07757 3.80374 4.56907 4.31965C3.60544 5.29736 2.91479 6.51047 2.5659 7.83816C2.21702 9.16585 2.22208 10.5618 2.58058 11.8869C2.93908 13.212 3.63851 14.4201 4.6092 15.3908C5.57989 16.3615 6.78797 17.0609 8.11309 17.4194C9.43822 17.7779 10.8341 17.783 12.1618 17.4341C13.4895 17.0852 14.7026 16.3946 15.6803 15.4309C16.1963 14.9224 16.6371 14.3473 16.9926 13.7231C15.9376 13.7832 14.8752 13.6784 13.8442 13.4086C12.1004 12.9521 10.5095 12.0398 9.23486 10.7651C7.96025 9.49052 7.04787 7.89961 6.59143 6.15578C6.32159 5.12483 6.21685 4.06241 6.27688 3.00742Z" fill="#6D75F4"/>
</svg>
