<svg width="22" height="22" viewBox="0 0 22 22" fill="none" xmlns="http://www.w3.org/2000/svg">
<path fill-rule="evenodd" clip-rule="evenodd" d="M0.441393 0.441394C0.724013 0.158774 1.10733 0 1.50701 0H8.34196C8.74164 0 9.12496 0.158774 9.40758 0.441394C9.6902 0.724014 9.84897 1.10733 9.84897 1.50701V8.34196C9.84897 8.74164 9.6902 9.12496 9.40758 9.40758C9.12496 9.6902 8.74164 9.84897 8.34196 9.84897H1.50701C1.10733 9.84897 0.724014 9.6902 0.441393 9.40758C0.158773 9.12496 0 8.74165 0 8.34196V1.50701C0 1.10733 0.158774 0.724013 0.441393 0.441394ZM1.50701 1.49515C1.50386 1.49515 1.50085 1.4964 1.49862 1.49862C1.4964 1.50085 1.49515 1.50386 1.49515 1.50701V8.34196C1.49515 8.34511 1.4964 8.34813 1.49862 8.35035C1.50084 8.35258 1.50386 8.35383 1.50701 8.35383H8.34196C8.34511 8.35383 8.34813 8.35258 8.35035 8.35035C8.35257 8.34813 8.35382 8.34511 8.35382 8.34196V1.50701C8.35382 1.50386 8.35257 1.50085 8.35035 1.49862C8.34812 1.4964 8.34511 1.49515 8.34196 1.49515H1.50701ZM11.833 0.441394C12.1156 0.158774 12.4989 0 12.8986 0H19.7336C20.1333 0 20.5166 0.158773 20.7992 0.441394C21.0818 0.724013 21.2406 1.10733 21.2406 1.50701V8.34196C21.2406 8.74165 21.0818 9.12496 20.7992 9.40758C20.5166 9.6902 20.1333 9.84897 19.7336 9.84897H12.8986C12.4989 9.84897 12.1156 9.6902 11.833 9.40758C11.5504 9.12496 11.3916 8.74165 11.3916 8.34196V1.50701C11.3916 1.10733 11.5504 0.724013 11.833 0.441394ZM12.8986 1.49515C12.8955 1.49515 12.8925 1.4964 12.8902 1.49862C12.888 1.50085 12.8868 1.50387 12.8868 1.50701V8.34196C12.8868 8.34511 12.888 8.34813 12.8902 8.35035C12.8925 8.35258 12.8955 8.35383 12.8986 8.35383H19.7336C19.7367 8.35383 19.7397 8.35258 19.742 8.35035C19.7442 8.34813 19.7454 8.34511 19.7454 8.34196V1.50701C19.7454 1.50387 19.7442 1.50085 19.742 1.49862C19.7397 1.4964 19.7367 1.49515 19.7336 1.49515H12.8986ZM2.60848 2.60849C2.81989 2.39709 3.10662 2.27832 3.4056 2.27832H6.44335C6.74233 2.27832 7.02906 2.39709 7.24047 2.60849C7.45188 2.8199 7.57064 3.10664 7.57064 3.40561V6.44337C7.57064 6.74234 7.45188 7.02907 7.24047 7.24048C7.02906 7.45189 6.74233 7.57066 6.44335 7.57066H3.4056C3.10662 7.57066 2.81989 7.45189 2.60848 7.24048C2.39707 7.02907 2.27831 6.74234 2.27831 6.44337V3.40561C2.27831 3.10663 2.39707 2.8199 2.60848 2.60849ZM3.77345 3.77346V6.07551H6.0755V3.77346H3.77345ZM14.0001 2.60849C14.2115 2.39709 14.4982 2.27832 14.7972 2.27832H17.835C18.1339 2.27832 18.4207 2.39709 18.6321 2.60849C18.8435 2.8199 18.9623 3.10663 18.9623 3.40561V6.44337C18.9623 6.74234 18.8435 7.02908 18.6321 7.24048C18.4207 7.45189 18.1339 7.57066 17.835 7.57066H14.7972C14.4982 7.57066 14.2115 7.45189 14.0001 7.24048C13.7887 7.02908 13.6699 6.74234 13.6699 6.44337V3.40561C13.6699 3.10663 13.7887 2.8199 14.0001 2.60849ZM15.1651 3.77346V6.07551H17.4671V3.77346H15.1651ZM10.9624 10.9623C11.1738 10.7509 11.4605 10.6321 11.7595 10.6321H14.0378C14.3368 10.6321 14.6235 10.7509 14.8349 10.9623C15.0463 11.1737 15.1651 11.4605 15.1651 11.7594V13.6699H17.835C18.0166 13.6699 18.1937 13.7137 18.3522 13.7956C18.2704 13.6371 18.2265 13.46 18.2265 13.2783V11.7594C18.2265 11.4605 18.3453 11.1737 18.5567 10.9623C18.7681 10.7509 19.0549 10.6321 19.3538 10.6321H20.8727C21.1717 10.6321 21.4584 10.7509 21.6698 10.9623C21.8812 11.1737 22 11.4605 22 11.7594V13.2783C22 13.5773 21.8812 13.864 21.6698 14.0754C21.4584 14.2868 21.1717 14.4056 20.8727 14.4056H19.3538C19.1722 14.4056 18.995 14.3618 18.8366 14.2799C18.9184 14.4384 18.9623 14.6155 18.9623 14.7972V17.4671H20.8727C21.1717 17.4671 21.4584 17.5859 21.6698 17.7973C21.8812 18.0087 22 18.2954 22 18.5944V20.8727C22 21.1717 21.8812 21.4584 21.6698 21.6698C21.4584 21.8812 21.1717 22 20.8727 22H18.5944C18.2954 22 18.0087 21.8812 17.7973 21.6698C17.5859 21.4584 17.4671 21.1717 17.4671 20.8727V18.9622H14.7972C14.6156 18.9622 14.4384 18.9184 14.28 18.8366C14.3618 18.995 14.4056 19.1722 14.4056 19.3538V20.8727C14.4056 21.1717 14.2869 21.4584 14.0755 21.6698C13.864 21.8812 13.5773 22 13.2783 22H11.7595C11.4605 22 11.1738 21.8812 10.9624 21.6698C10.7509 21.4584 10.6322 21.1717 10.6322 20.8727V19.3538C10.6322 19.0549 10.7509 18.7681 10.9624 18.5567C11.1738 18.3453 11.4605 18.2265 11.7595 18.2265H13.2783C13.46 18.2265 13.6371 18.2704 13.7956 18.3522C13.7138 18.1937 13.6699 18.0166 13.6699 17.835V15.165H11.7595C11.4605 15.165 11.1738 15.0463 10.9624 14.8349C10.7509 14.6235 10.6322 14.3367 10.6322 14.0378V11.7594C10.6322 11.4605 10.7509 11.1737 10.9624 10.9623ZM13.6699 13.6699V12.1273H12.1273V13.6699H13.6699ZM19.7217 12.1273V12.9105H20.5049V12.1273H19.7217ZM0.441393 11.833C0.724014 11.5504 1.10733 11.3916 1.50701 11.3916H8.34196C8.74164 11.3916 9.12496 11.5504 9.40758 11.833C9.6902 12.1156 9.84897 12.4989 9.84897 12.8986V19.7335C9.84897 20.1332 9.6902 20.5165 9.40758 20.7992C9.12496 21.0818 8.74164 21.2406 8.34196 21.2406H1.50701C1.10733 21.2406 0.724012 21.0818 0.441393 20.7992C0.158773 20.5165 0 20.1332 0 19.7335V12.8986C0 12.4989 0.158773 12.1156 0.441393 11.833ZM1.50701 12.8867C1.50386 12.8867 1.50084 12.888 1.49862 12.8902C1.4964 12.8924 1.49515 12.8954 1.49515 12.8986V19.7335C1.49515 19.7367 1.4964 19.7397 1.49862 19.7419C1.50085 19.7442 1.50386 19.7454 1.50701 19.7454H8.34196C8.34511 19.7454 8.34812 19.7442 8.35035 19.7419C8.35257 19.7397 8.35382 19.7367 8.35382 19.7335V12.8986C8.35382 12.8954 8.35257 12.8924 8.35035 12.8902C8.34813 12.888 8.34511 12.8867 8.34196 12.8867H1.50701ZM2.60848 14.0001C2.81989 13.7887 3.10663 13.6699 3.4056 13.6699H6.44335C6.74232 13.6699 7.02906 13.7887 7.24047 14.0001C7.45188 14.2115 7.57064 14.4982 7.57064 14.7972V17.835C7.57064 18.1339 7.45188 18.4207 7.24047 18.6321C7.02906 18.8435 6.74233 18.9622 6.44335 18.9622H3.4056C3.10662 18.9622 2.81989 18.8435 2.60848 18.6321C2.39707 18.4207 2.27831 18.1339 2.27831 17.835V14.7972C2.27831 14.4982 2.39707 14.2115 2.60848 14.0001ZM3.77345 15.165V17.4671H6.0755V15.165H3.77345ZM15.1651 15.165V17.4671H17.4671V15.165H15.1651ZM18.9622 18.9622V20.5049H20.5049V18.9622H18.9622ZM12.1273 19.7217V20.5049H12.9105V19.7217H12.1273Z" fill="#6D75F4"/>
</svg>
