<svg width="33" height="33" viewBox="0 0 33 33" fill="none" xmlns="http://www.w3.org/2000/svg">
<path d="M25.9923 22.3558C25.8698 20.1875 24.6937 18.2519 22.4886 16.6104C21.7904 16.0959 20.6633 15.3609 19.1198 14.7238L25.294 8.52512V7.65533C25.294 7.31232 25 7.01831 24.657 7.01831H13.1661V1.82413L7.91064 2.92667V4.35997H8.58442C8.78042 4.35997 9.23369 4.43347 9.23369 5.00924V6.99381H6.25684C5.96283 6.99381 5.70557 7.25107 5.70557 7.54508V9.50515H9.24594V17.3944C9.24594 18.84 9.73596 20.0895 10.6302 20.9103C11.5368 21.7433 12.8231 22.1231 14.3176 22.0006C14.9546 21.9516 15.5917 21.7188 16.2164 21.3146C16.5594 21.0818 16.7677 20.7143 16.7677 20.31V18.693L16.1062 19.134C15.2976 19.673 14.5994 19.6607 14.5994 19.6607H14.5749C14.2196 19.6607 13.9378 19.5505 13.7173 19.33C13.1783 18.7787 13.1783 17.7374 13.1783 17.7252V9.50515H20.2958L14.7219 15.1158V15.2873C14.7096 15.9244 14.6974 16.4511 14.6974 16.6594C14.6974 16.7206 14.6974 16.7574 14.6974 16.7696C14.6974 17.0147 14.8689 17.2107 15.1139 17.2352C20.7491 18.1907 21.9251 21.8168 21.9251 22.4906V22.5396C21.9251 22.5641 22.1579 24.6957 20.9328 26.178C20.2223 27.0233 19.1565 27.5133 17.7722 27.599C17.76 27.599 16.9392 27.6358 16.0694 27.501C15.2609 27.3785 14.6729 27.1703 14.3666 26.8885C14.9056 26.5087 15.2119 25.933 15.2119 25.2592C15.2119 23.8871 14.2931 23.0051 12.8843 23.0051C11.6103 23.0051 10.569 24.0096 10.5567 25.2347C10.5445 25.4552 10.4832 26.8027 11.5735 28.0033C12.7251 29.2773 14.7096 29.9143 17.466 29.9143C17.564 29.9143 17.6742 29.9143 17.7722 29.9143C20.5898 29.8653 22.7459 29.0446 24.1792 27.4765C26.1638 25.3204 26.0045 22.5273 25.9923 22.3558Z" fill="#6D75F4"/>
</svg>
