<svg width="24" height="24" viewBox="0 0 24 24" fill="none" xmlns="http://www.w3.org/2000/svg">
<g opacity="0.85">
<path d="M18.7841 11.4156L6.26147 3.23263C6.15497 3.12161 6.02234 3.04637 5.87895 3.0156C5.73556 2.98482 5.58725 2.99978 5.45119 3.05874C5.31712 3.12134 5.20273 3.22662 5.12244 3.36132C5.04215 3.49602 4.99955 3.65411 5 3.81567V20.1817C4.99955 20.3433 5.04215 20.5013 5.12244 20.636C5.20273 20.7707 5.31712 20.876 5.45119 20.9386C5.54205 20.9787 5.63886 20.9995 5.73663 21C5.93223 20.9991 6.12007 20.9149 6.26147 20.7647L18.7841 12.5817C18.9224 12.4266 19 12.217 19 11.9987C19 11.7803 18.9224 11.5708 18.7841 11.4156Z" fill="#EAEAEA"/>
</g>
</svg>
