<svg width="24" height="24" viewBox="0 0 24 24" fill="none" xmlns="http://www.w3.org/2000/svg">
<g clip-path="url(#clip0_7702_145264)">
<path d="M4.18662 24H14.8674C16.7464 24 17.9991 22.7013 17.9991 20.7764V7.35561C17.9991 5.43072 16.7464 4.1436 14.8674 4.1436H4.18662C2.27465 4.1436 1 5.43072 1 7.35561V20.7764C1 22.7013 2.27465 24 4.18662 24ZM4.56022 21.6113C3.69214 21.6113 3.19767 21.1127 3.19767 20.2314V7.90061C3.19767 7.01933 3.69214 6.52072 4.56022 6.52072H14.4389C15.3069 6.52072 15.8014 7.03093 15.8014 7.9122V20.2314C15.8014 21.1127 15.3069 21.6113 14.4389 21.6113H4.56022Z" fill="#6D75F4"/>
<path d="M5.00092 2.958H15.8674C17.0811 2.958 17.9991 2.958 18.6099 3.72755C19.2493 4.4435 19.2493 5.21527 19.2493 6.48935V18.8564V19.8564C21.1283 19.8564 22 18.5577 22 16.6328V3.21201C22 1.28712 20.7473 0 18.8683 0H8.18753C6.27556 0 5.00092 0.287124 5.00092 2.21201V2.958Z" fill="#6D75F4"/>
</g>
<defs>
<clipPath id="clip0_7702_145264">
<rect width="21" height="24" fill="white" transform="translate(1)"/>
</clipPath>
</defs>
</svg>
