<svg width="25" height="25" viewBox="0 0 25 25" fill="none" xmlns="http://www.w3.org/2000/svg">
<g clip-path="url(#clip0_6519_57387)">
<path fill-rule="evenodd" clip-rule="evenodd" d="M2.32982 2.72934C3.05199 2.72934 3.63742 3.31478 3.63742 4.03695V7.95976H7.56024C8.28241 7.95976 8.86784 8.54519 8.86784 9.26736C8.86784 9.98953 8.28241 10.575 7.56024 10.575H2.32982C1.60765 10.575 1.02222 9.98953 1.02222 9.26736V4.03695C1.02222 3.31478 1.60765 2.72934 2.32982 2.72934Z" fill="#6D75F4"/>
<path fill-rule="evenodd" clip-rule="evenodd" d="M10.6889 1.66444C12.8029 1.24327 14.9943 1.45854 16.9859 2.28302C18.9775 3.10751 20.6799 4.50416 21.8776 6.2963C23.0754 8.08845 23.7147 10.1956 23.7147 12.3511C23.7147 14.5067 23.0754 16.6138 21.8776 18.4059C20.6799 20.1981 18.9775 21.5947 16.9859 22.4192C14.9943 23.2437 12.8029 23.459 10.6889 23.0378C8.57487 22.6166 6.63328 21.5779 5.10971 20.0531C4.59926 19.5422 4.5996 18.7143 5.11046 18.2039C5.62132 17.6934 6.44925 17.6938 6.95969 18.2046C8.11761 19.3635 9.59322 20.1529 11.1999 20.473C12.8065 20.7931 14.472 20.6295 15.9856 20.0029C17.4992 19.3762 18.793 18.3148 19.7033 16.9528C20.6136 15.5907 21.0995 13.9893 21.0995 12.3511C21.0995 10.7129 20.6136 9.11149 19.7033 7.74946C18.793 6.38743 17.4992 5.32597 15.9856 4.69936C14.472 4.07276 12.8065 3.90915 11.1999 4.22924C9.59322 4.54933 8.11761 5.33874 6.95969 6.4976L3.25307 10.1933C2.74167 10.7032 1.91374 10.702 1.40384 10.1906C0.893946 9.6792 0.895165 8.85127 1.40657 8.34137L5.10971 4.64913L5.11055 4.64828C6.634 3.12392 8.57526 2.08553 10.6889 1.66444Z" fill="#6D75F4"/>
</g>
<defs>
<clipPath id="clip0_6519_57387">
<rect width="24" height="24" fill="white" transform="translate(0.812744 0.351135)"/>
</clipPath>
</defs>
</svg>
