<svg width="34" height="34" viewBox="0 0 34 34" fill="none" xmlns="http://www.w3.org/2000/svg">
<path fill-rule="evenodd" clip-rule="evenodd" d="M17 32.0571C25.3158 32.0571 32.0571 25.3158 32.0571 17C32.0571 8.68417 25.3158 1.94286 17 1.94286C8.68417 1.94286 1.94286 8.68417 1.94286 17C1.94286 25.3158 8.68417 32.0571 17 32.0571ZM17 34C26.3888 34 34 26.3888 34 17C34 7.61116 26.3888 0 17 0C7.61116 0 0 7.61116 0 17C0 26.3888 7.61116 34 17 34Z" fill="#6D75F4"/>
<path d="M7.85742 23H15.6699C16.5781 23 17.1055 22.4434 17.1055 21.623C17.1055 20.7832 16.5781 20.2461 15.6699 20.2461H10.7969V20.1777L13.5996 17.6191C15.8359 15.5977 16.7539 14.5625 16.7539 12.7559C16.7539 10.2656 14.6445 8.55664 11.4316 8.55664C8.86328 8.55664 6.98828 9.79688 6.37305 11.418C6.26562 11.6719 6.22656 11.9258 6.22656 12.1992C6.22656 13.0781 6.7832 13.6152 7.71094 13.6152C8.43359 13.6152 8.85352 13.332 9.30273 12.6387C9.82031 11.7012 10.4551 11.252 11.3828 11.252C12.5059 11.252 13.2871 11.9746 13.2871 12.9902C13.2871 13.9082 12.8379 14.5527 11.1875 16.0566L7.16406 19.709C6.46094 20.3145 6.17773 20.793 6.17773 21.4668C6.17773 22.3555 6.70508 23 7.85742 23Z" fill="#6D75F4"/>
<path fill-rule="evenodd" clip-rule="evenodd" d="M19.1663 20.1201C18.727 19.6807 18.727 18.9684 19.1663 18.5291L25.4065 12.2889C25.8458 11.8496 26.5581 11.8496 26.9975 12.2889C27.4368 12.7283 27.4368 13.4406 26.9975 13.8799L20.7573 20.1201C20.318 20.5594 19.6057 20.5594 19.1663 20.1201Z" fill="#6D75F4"/>
<path fill-rule="evenodd" clip-rule="evenodd" d="M27.6267 20.1201C28.066 19.6807 28.066 18.9684 27.6267 18.5291L21.3865 12.2889C20.9472 11.8496 20.2348 11.8496 19.7955 12.2889C19.3562 12.7283 19.3562 13.4406 19.7955 13.8799L26.0357 20.1201C26.475 20.5594 27.1873 20.5594 27.6267 20.1201Z" fill="#6D75F4"/>
</svg>
