<svg width="25" height="24" viewBox="0 0 25 24" fill="none" xmlns="http://www.w3.org/2000/svg">
<g clip-path="url(#clip0_6200_40516)">
<path fill-rule="evenodd" clip-rule="evenodd" d="M1.05701 5.44464C1.05701 4.61621 1.72858 3.94464 2.55701 3.94464H22.2231C23.0515 3.94464 23.7231 4.61621 23.7231 5.44464C23.7231 6.27307 23.0515 6.94464 22.2231 6.94464H2.55701C1.72858 6.94464 1.05701 6.27307 1.05701 5.44464Z" fill="#A2A4BA"/>
<path fill-rule="evenodd" clip-rule="evenodd" d="M2.69585 12C2.69585 11.1716 3.36742 10.5 4.19585 10.5H20.5842C21.4127 10.5 22.0842 11.1716 22.0842 12C22.0842 12.8284 21.4127 13.5 20.5842 13.5H4.19585C3.36742 13.5 2.69585 12.8284 2.69585 12Z" fill="#A2A4BA"/>
<path fill-rule="evenodd" clip-rule="evenodd" d="M5.97343 18.5554C5.97343 17.7269 6.64501 17.0554 7.47343 17.0554H17.3065C18.1349 17.0554 18.8065 17.7269 18.8065 18.5554C18.8065 19.3838 18.1349 20.0554 17.3065 20.0554H7.47343C6.64501 20.0554 5.97343 19.3838 5.97343 18.5554Z" fill="#A2A4BA"/>
</g>
<defs>
<clipPath id="clip0_6200_40516">
<rect width="24" height="24" fill="white" transform="translate(0.390015)"/>
</clipPath>
</defs>
</svg>
