<svg width="24" height="24" viewBox="0 0 24 24" fill="none" xmlns="http://www.w3.org/2000/svg">
<path d="M2 11.456C2 11.847 2.14493 12.1874 2.43478 12.4772C2.72464 12.7671 3.06505 12.912 3.45602 12.912C14.4219 12.912 10.489 12.912 20.544 12.912C20.9484 12.912 21.2922 12.7671 21.5753 12.4772C21.8584 12.1874 22 11.847 22 11.456C22 11.0516 21.8584 10.7078 21.5753 10.4247C21.2922 10.1416 20.9484 10 20.544 10C10.4389 10 14.4826 10 3.45602 10C3.06505 10 2.72464 10.1416 2.43478 10.4247C2.14493 10.7078 2 11.0516 2 11.456Z" fill="#6D75F4"/>
</svg>
