<svg width="35" height="35" viewBox="0 0 35 35" fill="none" xmlns="http://www.w3.org/2000/svg">
<path fill-rule="evenodd" clip-rule="evenodd" d="M17.5 33C26.0604 33 33 26.0604 33 17.5C33 8.93959 26.0604 2 17.5 2C8.93959 2 2 8.93959 2 17.5C2 26.0604 8.93959 33 17.5 33ZM17.5 35C27.165 35 35 27.165 35 17.5C35 7.83502 27.165 0 17.5 0C7.83502 0 0 7.83502 0 17.5C0 27.165 7.83502 35 17.5 35Z" fill="#656DE6"/>
<path fill-rule="evenodd" clip-rule="evenodd" d="M14.1893 9.43934C14.7751 8.85355 15.7249 8.85355 16.3107 9.43934L23.8107 16.9393C24.3964 17.5251 24.3964 18.4749 23.8107 19.0607L16.3107 26.5607C15.7249 27.1464 14.7751 27.1464 14.1893 26.5607C13.6036 25.9749 13.6036 25.0251 14.1893 24.4393L20.6287 18L14.1893 11.5607C13.6036 10.9749 13.6036 10.0251 14.1893 9.43934Z" fill="#6D75F4"/>
</svg>
