<svg width="36" height="27" viewBox="0 0 36 27" fill="none" xmlns="http://www.w3.org/2000/svg">
<path d="M32.2349 9.79869L23.5898 1.15336C23.0922 0.689683 22.434 0.437263 21.7539 0.449262C21.0739 0.46126 20.425 0.736932 19.9441 1.21788C19.4631 1.69882 19.1877 2.34764 19.1757 3.02769C19.1637 3.70775 19.4161 4.36596 19.8798 4.86357L25.8999 10.8835H2.1499C1.5435 11.0054 0.997962 11.3333 0.606049 11.8119C0.214135 12.2904 0 12.8899 0 13.5085C0 14.127 0.214135 14.7265 0.606049 15.2051C0.997962 15.6836 1.5435 16.0116 2.1499 16.1335H8.0249H25.8999L20.0898 21.9436C19.6755 22.4517 19.4649 23.0957 19.4989 23.7504C19.5329 24.4051 19.809 25.0238 20.2737 25.4863C20.7384 25.9488 21.3584 26.2219 22.0132 26.2528C22.6681 26.2837 23.3111 26.0701 23.8173 25.6534L32.2349 17.2187L33.0573 16.3962L35.9449 13.5085L32.2349 9.79869Z" fill="#6D75F4"/>
</svg>
