<svg width="24" height="24" viewBox="0 0 24 24" fill="none" xmlns="http://www.w3.org/2000/svg">
<g clip-path="url(#clip0_8444_190263)">
<g clip-path="url(#clip1_8444_190263)">
<path fill-rule="evenodd" clip-rule="evenodd" d="M12.0044 6.22717C10.8627 6.22624 9.74633 6.56389 8.79652 7.19742C7.84671 7.83094 7.1061 8.73189 6.66833 9.78634C6.23056 10.8408 6.1153 12.0014 6.33713 13.1213C6.55895 14.2413 7.1079 15.2703 7.91455 16.0782C8.7212 16.8862 9.74933 17.4368 10.8689 17.6605C11.9885 17.8841 13.1493 17.7707 14.2044 17.3347C15.2596 16.8986 16.1617 16.1595 16.7968 15.2107C17.4319 14.2619 17.7713 13.1461 17.7723 12.0044C17.7729 11.2464 17.6242 10.4956 17.3346 9.795C17.0451 9.09441 16.6204 8.4577 16.0848 7.92123C15.5492 7.38476 14.9132 6.95904 14.2131 6.66837C13.513 6.37771 12.7624 6.22778 12.0044 6.22717ZM12.0044 14.6305C11.485 14.6305 10.9773 14.4764 10.5454 14.1879C10.1136 13.8993 9.777 13.4892 9.57824 13.0094C9.37949 12.5295 9.32748 12.0015 9.42881 11.4921C9.53013 10.9827 9.78024 10.5148 10.1475 10.1475C10.5148 9.78029 10.9827 9.53018 11.4921 9.42886C12.0015 9.32753 12.5295 9.37954 13.0093 9.57829C13.4892 9.77705 13.8993 10.1136 14.1878 10.5455C14.4764 10.9773 14.6304 11.485 14.6304 12.0044C14.6304 12.7009 14.3537 13.3688 13.8613 13.8613C13.3688 14.3538 12.7008 14.6305 12.0044 14.6305Z" fill="#8A90FF"/>
<path fill-rule="evenodd" clip-rule="evenodd" d="M19.2009 9.16686e-08H4.8C4.16962 -0.000123114 3.54539 0.123948 2.96297 0.365127C2.38056 0.606306 1.85136 0.959867 1.40561 1.40561C0.959867 1.85136 0.606306 2.38056 0.365127 2.96297C0.123948 3.54539 -0.000123114 4.16962 9.16687e-08 4.8V19.2C-0.000123114 19.8304 0.123948 20.4546 0.365127 21.037C0.606306 21.6194 0.959867 22.1486 1.40561 22.5944C1.85136 23.0401 2.38056 23.3937 2.96297 23.6349C3.54539 23.8761 4.16962 24.0001 4.8 24H19.2C19.8304 24.0001 20.4546 23.8761 21.037 23.6349C21.6194 23.3937 22.1486 23.0401 22.5944 22.5944C23.0401 22.1486 23.3937 21.6194 23.6349 21.037C23.8761 20.4546 24.0001 19.8304 24 19.2V4.8C24.0001 4.1697 23.8761 3.54555 23.635 2.96319C23.3938 2.38083 23.0404 1.85168 22.5947 1.40594C22.1491 0.960211 21.62 0.606631 21.0377 0.365397C20.4554 0.124163 19.8312 7.96324e-08 19.2009 9.16686e-08ZM19.7411 16.2392C19.9115 16.3637 20.0551 16.5211 20.1635 16.7021C20.272 16.8831 20.3431 17.0839 20.3727 17.2929C20.4022 17.5018 20.3896 17.7145 20.3355 17.9184C20.2815 18.1224 20.1872 18.3135 20.0581 18.4803C19.929 18.6472 19.7677 18.7866 19.5839 18.8901C19.4001 18.9936 19.1973 19.0593 18.9877 19.0832C18.7781 19.1071 18.5658 19.0887 18.3634 19.0292C18.1609 18.9697 17.9725 18.8702 17.8091 18.7367C17.7923 18.7236 17.7763 18.7095 17.7604 18.6954C17.6712 18.6151 17.5567 18.5685 17.4367 18.5639C17.3167 18.5593 17.199 18.5968 17.1039 18.6701C15.638 19.7924 13.8433 20.4005 11.9972 20.4005C10.1511 20.4005 8.35635 19.7924 6.8905 18.6701C6.79533 18.597 6.67758 18.5595 6.55768 18.5642C6.43777 18.5688 6.32326 18.6152 6.234 18.6954L6.18523 18.7367C6.02188 18.8702 5.83344 18.9697 5.63101 19.0292C5.42859 19.0887 5.21629 19.1071 5.00666 19.0832C4.79703 19.0593 4.5943 18.9936 4.41047 18.8901C4.22663 18.7866 4.0654 18.6472 3.9363 18.4803C3.80721 18.3135 3.71286 18.1224 3.65882 17.9184C3.60479 17.7145 3.59218 17.5018 3.62172 17.2929C3.65126 17.0839 3.72236 16.8831 3.83082 16.7021C3.93929 16.5211 4.08292 16.3637 4.25322 16.2392C4.34779 16.1696 4.41517 16.0693 4.44376 15.9555C4.47235 15.8417 4.46035 15.7214 4.40985 15.6155C3.87264 14.4857 3.5939 13.2505 3.5939 11.9995C3.5939 10.7486 3.87264 9.51333 4.40985 8.38359C4.45969 8.27647 4.47067 8.15533 4.44089 8.041C4.4111 7.92667 4.34243 7.82628 4.24666 7.75709C4.22978 7.74521 4.2129 7.73208 4.19601 7.7177C3.87255 7.46596 3.65962 7.09832 3.60222 6.69248C3.54482 6.28663 3.64745 5.87436 3.88843 5.5428C4.1294 5.21123 4.48984 4.98633 4.89358 4.91562C5.29733 4.84492 5.71274 4.93395 6.05205 5.16389C6.11776 5.20809 6.18043 5.25666 6.23962 5.30926C6.32843 5.38745 6.44169 5.43228 6.55995 5.43604C6.67821 5.43981 6.79409 5.40228 6.88769 5.32989C8.35353 4.20763 10.1482 3.59948 11.9944 3.59948C13.8405 3.59948 15.6352 4.20763 17.1011 5.32989C17.1962 5.40315 17.3139 5.44074 17.4339 5.43611C17.5539 5.43149 17.6684 5.38494 17.7576 5.30457L17.8063 5.26331C18.1197 4.99942 18.5233 4.86759 18.9319 4.89566C19.3406 4.92373 19.7224 5.10949 19.9967 5.41374C20.271 5.71798 20.4164 6.11691 20.4021 6.52631C20.3879 6.93571 20.2151 7.32355 19.9203 7.60797C19.8635 7.6648 19.8027 7.71746 19.7383 7.76553C19.6438 7.83489 19.5765 7.93503 19.5479 8.04871C19.5193 8.16238 19.5313 8.28247 19.5817 8.38828C20.1189 9.51785 20.3976 10.7529 20.3976 12.0038C20.3976 13.2546 20.1189 14.4896 19.5817 15.6192C19.5323 15.7255 19.5211 15.8456 19.55 15.9593C19.5788 16.0729 19.646 16.1731 19.7402 16.2429L19.7411 16.2392Z" fill="#8A90FF"/>
</g>
</g>
<defs>
<clipPath id="clip0_8444_190263">
<rect width="24" height="24" fill="white"/>
</clipPath>
<clipPath id="clip1_8444_190263">
<rect width="24" height="24" fill="white"/>
</clipPath>
</defs>
</svg>
