<svg width="24" height="24" viewBox="0 0 24 24" fill="none" xmlns="http://www.w3.org/2000/svg">
<path d="M7.24957 21H16.7504C18.2501 21 19 20.2171 19 18.6512V12.4152C19 11.1815 18.5214 10.4302 17.5641 10.1613V9.16845C17.5641 7.33372 17.0496 5.84698 16.0205 4.70819C14.9914 3.56939 13.6553 3 12.012 3C10.3527 3 9.00855 3.56939 7.97949 4.70819C6.95042 5.84698 6.4359 7.33372 6.4359 9.16845V10.1851C5.47863 10.4381 5 11.1815 5 12.4152V18.6512C5 20.2171 5.74985 21 7.24957 21ZM8.97265 10.0664V8.97865C8.97265 7.8873 9.24387 7.02531 9.78632 6.39265C10.3288 5.75998 11.0707 5.44365 12.012 5.44365C12.9214 5.44365 13.6553 5.75998 14.2137 6.39265C14.7721 7.02531 15.0513 7.8873 15.0513 8.97865V10.0664H8.97265Z" fill="#6D75F4"/>
</svg>
