<svg width="25" height="25" viewBox="0 0 25 25" fill="none" xmlns="http://www.w3.org/2000/svg">
<g clip-path="url(#clip0_6200_40503)">
<path d="M4.89932 4.60014H19.944C20.0798 4.60019 20.2128 4.63975 20.3266 4.71401C20.4404 4.78828 20.5301 4.89404 20.5849 5.0184C20.6397 5.14277 20.6571 5.28038 20.635 5.41447C20.6129 5.54855 20.5524 5.67333 20.4606 5.77359L14.7072 12.1049C14.5875 12.2331 14.5216 12.4024 14.5233 12.5778V17.5343C14.5244 17.6508 14.4961 17.7656 14.441 17.8681C14.3859 17.9707 14.3058 18.0577 14.2081 18.1211L11.4058 19.9863C11.3007 20.0555 11.1789 20.0952 11.0531 20.101C10.9274 20.1069 10.8024 20.0788 10.6913 20.0197C10.5802 19.9605 10.4871 19.8725 10.4217 19.765C10.3564 19.6574 10.3212 19.5342 10.3199 19.4083V12.5778C10.3216 12.4024 10.2558 12.2331 10.136 12.1049L4.38265 5.77359C4.29093 5.67333 4.23034 5.54855 4.20827 5.41447C4.18621 5.28038 4.20361 5.14277 4.25837 5.0184C4.31313 4.89404 4.40288 4.78828 4.51668 4.71401C4.63048 4.63975 4.76343 4.60019 4.89932 4.60014Z" fill="#A2A4BA" stroke="#A2A4BA" stroke-width="0.5" stroke-linecap="round" stroke-linejoin="round"/>
</g>
<defs>
<clipPath id="clip0_6200_40503">
<rect width="18.7503" height="18.3596" fill="white" transform="translate(3.04651 3.85181)"/>
</clipPath>
</defs>
</svg>
