<svg width="33" height="33" viewBox="0 0 33 33" fill="none" xmlns="http://www.w3.org/2000/svg">
<g clip-path="url(#clip0_6910_108578)">
<path fill-rule="evenodd" clip-rule="evenodd" d="M16.002 6.18063L12.7002 12.7212L5.25452 13.779L10.6445 18.9154L9.37889 26.1297L16.002 22.7256L22.6251 26.1297L21.3594 18.9154L26.7494 13.779L19.3038 12.7212L16.002 6.18063ZM13.8567 3.52694C14.7532 1.75095 17.2507 1.75095 18.1473 3.52694L21.3491 9.86959L28.547 10.8921C30.654 11.1914 31.2672 13.7711 29.8623 15.1099L24.7114 20.0185L25.9229 26.9239C26.243 28.7486 24.3822 30.5307 22.4608 29.5431L16.002 26.2234L9.54316 29.5431C7.62174 30.5307 5.76094 28.7486 6.08106 26.9239L7.29252 20.0185L2.14164 15.1099C0.736797 13.7711 1.34999 11.1914 3.45695 10.8921L10.6548 9.86959L13.8567 3.52694Z" fill="#6D75F4"/>
</g>
<defs>
<clipPath id="clip0_6910_108578">
<rect width="29.87" height="28.0031" fill="white" transform="translate(1.06689 2.00025)"/>
</clipPath>
</defs>
</svg>
