<svg width="18" height="24" viewBox="0 0 18 24" fill="none" xmlns="http://www.w3.org/2000/svg">
<path fill-rule="evenodd" clip-rule="evenodd" d="M12.6193 0.129466C13.0667 0.3591 13.3074 0.857818 13.2088 1.35098L11.8436 8.17692L17.1591 10.1702C17.5108 10.3021 17.7734 10.6008 17.8593 10.9665C17.9451 11.3322 17.8428 11.7166 17.5865 11.9912L6.71684 23.6373C6.37368 24.0049 5.82818 24.1002 5.38073 23.8705C4.93329 23.6409 4.69262 23.1422 4.79125 22.649L6.15644 15.8231L0.840966 13.8298C0.489259 13.6979 0.22658 13.3992 0.140746 13.0335C0.0549119 12.6678 0.157248 12.2834 0.413543 12.0088L11.2832 0.362743C11.6264 -0.00492662 12.1719 -0.100168 12.6193 0.129466ZM3.20655 12.3139L7.84222 14.0522C8.35865 14.2459 8.65853 14.7854 8.55036 15.3262L7.77427 19.2067L14.7935 11.6861L10.1578 9.94776C9.64138 9.75409 9.3415 9.21459 9.44967 8.67375L10.2258 4.79328L3.20655 12.3139Z" fill="#6D75F4"/>
</svg>
