<svg width="18" height="16" viewBox="0 0 18 16" fill="none" xmlns="http://www.w3.org/2000/svg">
<g clip-path="url(#clip0_8519_262850)">
<path d="M4.49321 1C4.75566 1 4.98416 1.09393 5.17873 1.28179C5.3733 1.46965 5.47059 1.69645 5.47059 1.9622V11.6838L5.38914 13.3333L5.95928 12.701L7.45249 11.0653C7.61539 10.8729 7.83258 10.7766 8.10407 10.7766C8.35747 10.7766 8.57014 10.8568 8.74208 11.0172C8.91403 11.1775 9 11.3814 9 11.6289C9 11.8671 8.90045 12.0825 8.70136 12.2749L5.1991 15.6701C5.08145 15.7984 4.96606 15.8855 4.85294 15.9313C4.73982 15.9771 4.61991 16 4.49321 16C4.37557 16 4.26018 15.9771 4.14706 15.9313C4.03394 15.8855 3.91403 15.7984 3.78733 15.6701L0.285068 12.2749C0.095022 12.0825 0 11.8671 0 11.6289C0 11.3814 0.0814472 11.1775 0.244344 11.0172C0.407241 10.8568 0.619908 10.7766 0.882353 10.7766C1.15385 10.7766 1.37556 10.8729 1.54751 11.0653L3.04072 12.701L3.61086 13.3333L3.52941 11.6838V1.9622C3.52941 1.69645 3.6267 1.46965 3.82127 1.28179C4.01584 1.09393 4.23982 1 4.49321 1Z" fill="#6D75F4"/>
<path d="M13.4932 15C13.7557 15 13.9842 14.9061 14.1787 14.7182C14.3733 14.5304 14.4706 14.3036 14.4706 14.0378V4.31615L14.3891 2.66667L14.9593 3.29897L16.4525 4.93471C16.6154 5.12715 16.8326 5.22337 17.1041 5.22337C17.3575 5.22337 17.5701 5.14318 17.7421 4.98282C17.914 4.82245 18 4.61856 18 4.37113C18 4.13287 17.9005 3.91753 17.7014 3.72509L14.1991 0.329897C14.0814 0.201603 13.9661 0.114548 13.8529 0.0687285C13.7398 0.0229089 13.6199 0 13.4932 0C13.3756 0 13.2602 0.0229089 13.1471 0.0687285C13.0339 0.114548 12.914 0.201603 12.7873 0.329897L9.28507 3.72509C9.09502 3.91753 9 4.13287 9 4.37113C9 4.61856 9.08145 4.82245 9.24434 4.98282C9.40724 5.14318 9.61991 5.22337 9.88235 5.22337C10.1538 5.22337 10.3756 5.12715 10.5475 4.93471L12.0407 3.29897L12.6109 2.66667L12.5294 4.31615V14.0378C12.5294 14.3036 12.6267 14.5304 12.8213 14.7182C13.0158 14.9061 13.2398 15 13.4932 15Z" fill="#6D75F4"/>
</g>
<defs>
<clipPath id="clip0_8519_262850">
<rect width="18" height="16" fill="white"/>
</clipPath>
</defs>
</svg>
