<svg width="22" height="22" viewBox="0 0 22 22" fill="none" xmlns="http://www.w3.org/2000/svg">
<path fill-rule="evenodd" clip-rule="evenodd" d="M1.2677 1.28702C1.96784 1.28702 2.5354 1.87801 2.5354 2.60702V6.56702H6.33851C7.03865 6.56702 7.60621 7.158 7.60621 7.88702C7.60621 8.61603 7.03865 9.20702 6.33851 9.20702H1.2677C0.56757 9.20702 0 8.61603 0 7.88702V2.60702C0 1.87801 0.56757 1.28702 1.2677 1.28702Z" fill="#6D75F4"/>
<path fill-rule="evenodd" clip-rule="evenodd" d="M9.37167 0.212024C11.4212 -0.213141 13.5457 0.00417144 15.4766 0.836471C17.4074 1.66877 19.0578 3.07866 20.219 4.8878C21.3802 6.69693 22 8.82402 22 11C22 13.176 21.3802 15.3031 20.219 17.1122C19.0578 18.9213 17.4074 20.3312 15.4766 21.1635C13.5457 21.9958 11.4212 22.2131 9.37167 21.788C7.32219 21.3628 5.43984 20.3143 3.96276 18.775C3.46789 18.2593 3.46822 17.4235 3.96349 16.9082C4.45876 16.393 5.26143 16.3933 5.75629 16.909C6.87888 18.0788 8.30946 18.8757 9.86707 19.1989C11.4247 19.522 13.0393 19.3568 14.5068 18.7243C15.9742 18.0917 17.2285 17.0202 18.111 15.6453C18.9935 14.2703 19.4646 12.6537 19.4646 11C19.4646 9.34626 18.9935 7.72967 18.111 6.35473C17.2285 4.97978 15.9742 3.90827 14.5068 3.27572C13.0393 2.64317 11.4247 2.47801 9.86707 2.80114C8.30946 3.12426 6.87888 3.92115 5.75629 5.091L2.16278 8.82176C1.66698 9.33649 0.864321 9.33526 0.369982 8.81901C-0.124357 8.30276 -0.123174 7.46698 0.372623 6.95225L3.96276 3.225L3.96358 3.22415C5.44054 1.68534 7.32257 0.63711 9.37167 0.212024Z" fill="#6D75F4"/>
</svg>
