<svg width="26" height="26" viewBox="0 0 26 26" fill="none" xmlns="http://www.w3.org/2000/svg">
<path fill-rule="evenodd" clip-rule="evenodd" d="M6.77822 5.07464C5.19995 5.93551 4.55069 6.94676 4.55069 7.80037C4.55069 8.65397 5.19995 9.66522 6.77822 10.5261C8.31553 11.3646 10.5133 11.9168 13.0002 11.9168C15.487 11.9168 17.6848 11.3646 19.2221 10.5261C20.8004 9.66522 21.4496 8.65397 21.4496 7.80037C21.4496 6.94676 20.8004 5.93551 19.2221 5.07464C17.6848 4.2361 15.487 3.68396 13.0002 3.68396C10.5133 3.68396 8.31553 4.2361 6.77822 5.07464ZM21.4496 11.6559C21.0808 11.9409 20.6799 12.1988 20.2596 12.4281C18.3467 13.4715 15.7781 14.0833 13.0002 14.0833C10.2222 14.0833 7.65364 13.4715 5.74077 12.4281C5.32041 12.1988 4.91957 11.9409 4.55069 11.6559V13C4.55069 13.853 5.19987 14.8643 6.77832 15.7254C8.31568 16.5641 10.5134 17.1164 13.0002 17.1164C15.4869 17.1164 17.6846 16.5641 19.222 15.7254C20.8004 14.8643 21.4496 13.853 21.4496 13V11.6559ZM21.4496 16.8551C21.0807 17.1401 20.6799 17.398 20.2596 17.6273C18.3467 18.6708 15.7781 19.283 13.0002 19.283C10.2222 19.283 7.6536 18.6708 5.74076 17.6273C5.32041 17.398 4.91958 17.1401 4.55069 16.8551V18.1997C4.55069 19.0527 5.19987 20.064 6.77832 20.9251C8.31568 21.7638 10.5134 22.3161 13.0002 22.3161C15.4869 22.3161 17.6846 21.7638 19.222 20.9251C20.8004 20.064 21.4496 19.0527 21.4496 18.1997V16.8551ZM2.38416 7.80037C2.38416 5.78227 3.86887 4.19368 5.74077 3.17265C7.65364 2.12927 10.2222 1.51743 13.0002 1.51743C15.7781 1.51743 18.3467 2.12927 20.2596 3.17265C22.1314 4.19368 23.6162 5.78227 23.6162 7.80037V18.1997C23.6162 20.2174 22.1313 21.8059 20.2596 22.827C18.3467 23.8705 15.7781 24.4827 13.0002 24.4827C10.2222 24.4827 7.6536 23.8705 5.74076 22.827C3.869 21.8059 2.38416 20.2174 2.38416 18.1997V7.80037Z" fill="#BCBED5"/>
</svg>
