<svg width="36" height="36" viewBox="0 0 36 36" fill="none" xmlns="http://www.w3.org/2000/svg">
<g clip-path="url(#clip0_7326_150083)">
<path d="M18.3826 21.4429H11.4965C11.0885 21.4662 10.6802 21.403 10.2983 21.2575C9.91646 21.1119 9.56967 20.8873 9.28069 20.5983C8.99172 20.3093 8.76709 19.9626 8.62153 19.5807C8.47597 19.1988 8.41278 18.7905 8.43609 18.3825V11.4964C8.41278 11.0884 8.47597 10.6801 8.62153 10.2982C8.76709 9.91637 8.99172 9.56958 9.28069 9.2806C9.56967 8.99163 9.91646 8.76699 10.2983 8.62144C10.6802 8.47588 11.0885 8.41269 11.4965 8.436H18.3826C18.7906 8.41269 19.1989 8.47588 19.5808 8.62144C19.9626 8.76699 20.3094 8.99163 20.5984 9.2806C20.8874 9.56958 21.112 9.91637 21.2576 10.2982C21.4031 10.6801 21.4663 11.0884 21.443 11.4964V18.3825C21.4663 18.7905 21.4031 19.1988 21.2576 19.5807C21.112 19.9626 20.8874 20.3093 20.5984 20.5983C20.3094 20.8873 19.9626 21.1119 19.5808 21.2575C19.1989 21.403 18.7906 21.4662 18.3826 21.4429ZM11.4965 10.7313C11.3922 10.7141 11.2852 10.722 11.1845 10.7544C11.0838 10.7867 10.9923 10.8426 10.9175 10.9174C10.8427 10.9922 10.7868 11.0837 10.7545 11.1844C10.7221 11.2851 10.7142 11.3921 10.7314 11.4964V18.3825C10.7142 18.4868 10.7221 18.5938 10.7545 18.6945C10.7868 18.7952 10.8427 18.8867 10.9175 18.9615C10.9923 19.0363 11.0838 19.0922 11.1845 19.1245C11.2852 19.1569 11.3922 19.1648 11.4965 19.1476H18.3826C18.4869 19.1648 18.5939 19.1569 18.6946 19.1245C18.7953 19.0922 18.8868 19.0363 18.9616 18.9615C19.0364 18.8867 19.0923 18.7952 19.1246 18.6945C19.157 18.5938 19.1649 18.4868 19.1477 18.3825V11.4964C19.1649 11.3921 19.157 11.2851 19.1246 11.1844C19.0923 11.0837 19.0364 10.9922 18.9616 10.9174C18.8868 10.8426 18.7953 10.7867 18.6946 10.7544C18.5939 10.722 18.4869 10.7141 18.3826 10.7313H11.4965ZM24.5035 27.5638H17.6174C17.2094 27.5871 16.8011 27.5239 16.4192 27.3784C16.0374 27.2328 15.6906 27.0082 15.4016 26.7192C15.1126 26.4303 14.888 26.0835 14.7424 25.7016C14.5969 25.3197 14.5337 24.9114 14.557 24.5034V23.8913C14.557 22.6212 16.8523 22.4605 16.8523 23.7383V24.5034C16.8351 24.6077 16.843 24.7147 16.8754 24.8154C16.9077 24.9161 16.9636 25.0076 17.0384 25.0824C17.1132 25.1572 17.2047 25.2131 17.3054 25.2454C17.4061 25.2778 17.5131 25.2857 17.6174 25.2685H24.5035C24.6078 25.2857 24.7148 25.2778 24.8155 25.2454C24.9162 25.2131 25.0077 25.1572 25.0825 25.0824C25.1573 25.0076 25.2132 24.9161 25.2455 24.8154C25.2779 24.7147 25.2858 24.6077 25.2686 24.5034V17.6174C25.2858 17.513 25.2779 17.406 25.2455 17.3053C25.2132 17.2047 25.1573 17.1131 25.0825 17.0383C25.0077 16.9635 24.9162 16.9077 24.8155 16.8753C24.7148 16.8429 24.6078 16.835 24.5035 16.8522H23.7384C22.4606 16.8522 22.6213 14.5569 23.8914 14.5569H24.5035C24.9115 14.5336 25.3198 14.5968 25.7017 14.7423C26.0835 14.8879 26.4303 15.1125 26.7193 15.4015C27.0083 15.6905 27.2329 16.0373 27.3785 16.4191C27.524 16.801 27.5872 17.2093 27.5639 17.6174V24.5034C27.5872 24.9114 27.524 25.3197 27.3785 25.7016C27.2329 26.0835 27.0083 26.4303 26.7193 26.7192C26.4303 27.0082 26.0835 27.2328 25.7017 27.3784C25.3198 27.5239 24.9115 27.5871 24.5035 27.5638Z" fill="#6D75F4"/>
</g>
<path d="M35.5 18C35.5 27.665 27.665 35.5 18 35.5C8.33502 35.5 0.5 27.665 0.5 18C0.5 8.33502 8.33502 0.5 18 0.5C27.665 0.5 35.5 8.33502 35.5 18Z" stroke="#6D75F4"/>
<defs>
<clipPath id="clip0_7326_150083">
<rect width="19.1371" height="19.1371" fill="white" transform="translate(8.43143 8.43143)"/>
</clipPath>
</defs>
</svg>
