<svg width="30" height="32" viewBox="0 0 30 32" fill="none" xmlns="http://www.w3.org/2000/svg">
<path fill-rule="evenodd" clip-rule="evenodd" d="M25.875 3.04526C26.3007 2.92247 26.7516 2.91558 27.1809 3.02541C27.6132 3.136 28.0078 3.36085 28.3234 3.67639C28.6389 3.99193 28.8638 4.38654 28.9744 4.81886C29.0842 5.24817 29.0773 5.69898 28.9545 6.12466L22.3948 29.4147C22.2586 29.9079 21.9742 30.3474 21.5801 30.6739C21.1843 31.0019 20.6969 31.1998 20.1845 31.2408C19.6721 31.2818 19.1595 31.1639 18.7166 30.903C18.2777 30.6446 17.9283 30.2583 17.7151 29.796L12.7332 19.2665L2.20385 14.2848C1.74153 14.0715 1.35523 13.7221 1.09676 13.2832C0.83591 12.8403 0.717947 12.3277 0.75894 11.8153C0.799933 11.3028 0.99789 10.8155 1.32585 10.4197C1.65232 10.0256 2.0918 9.74128 2.58492 9.60498L25.875 3.04526ZM26.2873 4.48752L26.6939 5.93121C26.6987 5.92995 26.7035 5.92861 26.7083 5.92721L26.2873 4.48752ZM25.8232 6.17659L4.67225 12.1338L14.1746 16.6296C14.7011 16.8755 15.1243 17.2987 15.3701 17.8252L19.866 27.3275L25.8232 6.17659ZM3.45784 11.5594C3.46018 11.5605 3.4625 11.5616 3.46482 11.5627L3.45784 11.5594Z" fill="#6D75F4"/>
<path fill-rule="evenodd" clip-rule="evenodd" d="M20.573 11.4268C21.1588 12.0126 21.1588 12.9624 20.573 13.5481L14.923 19.1981C14.3372 19.7839 13.3874 19.7839 12.8016 19.1981C12.2159 18.6124 12.2159 17.6626 12.8016 17.0768L18.4516 11.4268C19.0374 10.841 19.9872 10.841 20.573 11.4268Z" fill="#6D75F4"/>
</svg>
