<svg width="25" height="25" viewBox="0 0 25 25" fill="none" xmlns="http://www.w3.org/2000/svg">
<g clip-path="url(#clip0_6373_45292)">
<path fill-rule="evenodd" clip-rule="evenodd" d="M8.62401 6.80179C6.62197 6.80179 4.99901 8.42476 4.99901 10.4268C4.99901 12.4288 6.62197 14.0518 8.62401 14.0518C10.626 14.0518 12.249 12.4288 12.249 10.4268C12.249 8.42476 10.626 6.80179 8.62401 6.80179ZM2.49901 10.4268C2.49901 7.04405 5.24126 4.30179 8.62401 4.30179C12.0068 4.30179 14.749 7.04405 14.749 10.4268C14.749 13.8095 12.0068 16.5518 8.62401 16.5518C5.24126 16.5518 2.49901 13.8095 2.49901 10.4268Z" fill="#6D75F4"/>
<path fill-rule="evenodd" clip-rule="evenodd" d="M16.692 4.3018L16.6958 4.30179C18.3202 4.30179 19.8781 4.9471 21.0268 6.09576C22.1754 7.24443 22.8208 8.80234 22.8208 10.4268C22.8208 12.0512 22.1754 13.6092 21.0268 14.7578C19.8781 15.9065 18.3202 16.5518 16.6958 16.5518C16.0054 16.5518 15.4458 15.9922 15.4458 15.3018C15.4458 14.6114 16.0054 14.0518 16.6958 14.0518C17.6572 14.0518 18.5792 13.6699 19.259 12.9901C19.9388 12.3102 20.3208 11.3882 20.3208 10.4268C20.3208 9.46538 19.9388 8.54335 19.259 7.86353C18.5796 7.18416 17.6584 6.80229 16.6976 6.80179C16.361 6.80299 16.026 6.84822 15.7011 6.93634C15.0348 7.11704 14.3482 6.7234 14.1675 6.05712C13.9868 5.39083 14.3804 4.70421 15.0467 4.5235C15.5831 4.37803 16.1362 4.30349 16.692 4.3018Z" fill="#6D75F4"/>
<path fill-rule="evenodd" clip-rule="evenodd" d="M8.62401 16.5518C7.50068 16.5518 6.39373 16.8218 5.39689 17.3396C4.40005 17.8575 3.54248 18.6076 2.89661 19.5267C2.49969 20.0915 1.72002 20.2277 1.15519 19.8307C0.590348 19.4338 0.454231 18.6541 0.851157 18.0893C1.72769 16.842 2.89154 15.8239 4.24439 15.1211C5.59725 14.4183 7.09949 14.0518 8.62401 14.0518C10.1485 14.0518 11.6505 14.4183 13.0034 15.1211C14.3562 15.8239 15.5201 16.842 16.3966 18.0893C16.7935 18.6541 16.6574 19.4338 16.0926 19.8307C15.5277 20.2277 14.7481 20.0915 14.3512 19.5267C13.7053 18.6076 12.8477 17.8575 11.8509 17.3396C10.854 16.8218 9.74733 16.5518 8.62401 16.5518Z" fill="#6D75F4"/>
<path fill-rule="evenodd" clip-rule="evenodd" d="M19.9234 17.3388C18.9267 16.821 17.819 16.5511 16.6958 16.5518C16.0054 16.5518 15.4458 15.9922 15.4458 15.3018C15.4458 14.6114 16.0054 14.0518 16.6958 14.0518C18.2206 14.0508 19.7227 14.4173 21.0759 15.1202C22.4291 15.8232 23.593 16.8418 24.469 18.0899C24.8656 18.6549 24.7291 19.4345 24.1641 19.8311C23.599 20.2278 22.8194 20.0912 22.4228 19.5262C21.7775 18.6068 20.9202 17.8565 19.9234 17.3388Z" fill="#6D75F4"/>
</g>
<defs>
<clipPath id="clip0_6373_45292">
<rect width="24" height="16.5" fill="white" transform="translate(0.6427 4.05177)"/>
</clipPath>
</defs>
</svg>
