<svg width="24" height="24" viewBox="0 0 24 24" fill="none" xmlns="http://www.w3.org/2000/svg">
<g clip-path="url(#clip0_10541_514761)">
<path d="M10.9016 5.24721C11.0379 5.19643 11.1947 5.2245 11.2991 5.31832L19.4664 11.8791C19.6088 12.0073 19.6088 12.215 19.4664 12.3431L11.2991 18.9039C11.1947 18.9977 11.0379 19.0258 10.9016 18.975C10.7653 18.9242 10.6765 18.8046 10.6765 18.6719V14.8463H6.39931C6.14137 14.8463 5.894 14.7542 5.71161 14.5901C5.52922 14.4261 5.42676 14.2036 5.42676 13.9716V10.2507C5.42676 10.0187 5.52922 9.79616 5.71161 9.63211C5.894 9.46806 6.14137 9.37589 6.39931 9.37589H10.6765V5.55028C10.6765 5.4176 10.7653 5.29798 10.9016 5.24721Z" fill="#6D75F4"/>
<circle cx="12" cy="12" r="11.25" stroke="#6D75F4" stroke-width="1.5"/>
</g>
<defs>
<clipPath id="clip0_10541_514761">
<rect width="24" height="24" fill="white"/>
</clipPath>
</defs>
</svg>
