<svg width="26" height="26" viewBox="0 0 26 26" fill="none" xmlns="http://www.w3.org/2000/svg">
<path d="M10.6515 13C10.6515 14.2984 11.703 15.3507 13.0003 15.3507C14.2975 15.3507 15.349 14.2984 15.349 13C15.349 11.7016 14.2975 10.6493 13.0003 10.6493C11.703 10.6493 10.6515 11.7016 10.6515 13Z" fill="#86889D"/>
<path fill-rule="evenodd" clip-rule="evenodd" d="M19.4464 16.535C19.4988 16.5758 19.5513 16.6167 19.5979 16.6633C20.0467 17.1125 20.105 17.8358 19.7378 18.355C19.2948 18.9792 18.4264 19.09 17.8377 18.6175C17.826 18.6058 17.8086 18.5942 17.7969 18.5825C17.6395 18.4483 17.418 18.4367 17.2548 18.5592C16.0775 19.4633 14.6029 20 13.0001 20C11.3972 20 9.92845 19.4633 8.74527 18.5592C8.58208 18.4367 8.35477 18.4425 8.20322 18.5825C8.19157 18.5942 8.17991 18.6 8.16825 18.6117H8.16243C7.57958 19.09 6.70531 18.9792 6.26234 18.355C5.89515 17.8358 5.95343 17.1183 6.40223 16.6633C6.44885 16.6167 6.50131 16.57 6.55377 16.535C6.71696 16.4183 6.76942 16.1967 6.68199 16.0158C6.24486 15.1058 6.00006 14.0792 6.00006 13.0058C6.00006 11.9325 6.24486 10.9058 6.68199 9.99C6.76942 9.80917 6.71114 9.5875 6.54794 9.47083C6.53628 9.45917 6.5188 9.4475 6.50714 9.43583C5.92429 8.96333 5.84852 8.08833 6.36726 7.5225C6.79856 7.05 7.51546 6.9625 8.04586 7.30667C8.10414 7.34167 8.1566 7.3825 8.20322 7.42917C8.35477 7.56333 8.58208 7.56917 8.74527 7.44667C9.92263 6.53667 11.3972 6 13.0001 6C14.6029 6 16.0717 6.53667 17.2548 7.44083C17.418 7.56917 17.6454 7.5575 17.7969 7.4175C17.8086 7.40583 17.8202 7.4 17.8319 7.38833H17.8377C18.4205 6.91 19.2948 7.02083 19.7378 7.645C20.105 8.16417 20.0467 8.88167 19.5979 9.33667C19.5513 9.38333 19.4988 9.43 19.4464 9.47083C19.2832 9.5875 19.2307 9.80917 19.3181 9.99C19.7553 10.9 20.0001 11.9267 20.0001 13C20.0001 14.0733 19.7553 15.1 19.3181 16.01C19.2307 16.1908 19.289 16.4125 19.4522 16.5292L19.4464 16.535ZM7.71363 13C7.71363 10.0775 10.08 7.70917 13.0001 7.70917C15.9201 7.70917 18.2865 10.0775 18.2865 13C18.2865 15.9225 15.9201 18.2908 13.0001 18.2908C10.08 18.2908 7.71363 15.9225 7.71363 13Z" fill="#86889D"/>
<path fill-rule="evenodd" clip-rule="evenodd" d="M20.25 3H5.75C4.23122 3 3 4.23122 3 5.75V20.25C3 21.7688 4.23122 23 5.75 23H20.25C21.7688 23 23 21.7688 23 20.25V5.75C23 4.23122 21.7688 3 20.25 3ZM5.75 1C3.12665 1 1 3.12665 1 5.75V20.25C1 22.8734 3.12665 25 5.75 25H20.25C22.8734 25 25 22.8734 25 20.25V5.75C25 3.12665 22.8734 1 20.25 1H5.75Z" fill="#86889D"/>
</svg>
