<svg width="30" height="31" viewBox="0 0 30 31" fill="none" xmlns="http://www.w3.org/2000/svg">
<g clip-path="url(#clip0_6248_35696)">
<path d="M30 15.339C30 7.05383 23.2852 0.338989 15 0.338989C6.71484 0.338989 0 7.05383 0 15.339C0 22.8273 5.48438 29.0323 12.6562 30.1573V19.6749H8.84766V15.339H12.6562V12.0343C12.6562 8.27551 14.8945 6.19836 18.3223 6.19836C19.9629 6.19836 21.6797 6.49133 21.6797 6.49133V10.1827H19.7871C17.9238 10.1827 17.3438 11.34 17.3438 12.5265V15.339H21.5039L20.8389 19.6749H17.3438V30.1573C24.5156 29.0323 30 22.8273 30 15.339Z" fill="#1877F2"/>
<path d="M20.8389 19.6749L21.5039 15.339H17.3438V12.5265C17.3438 11.34 17.9238 10.1827 19.7871 10.1827H21.6797V6.49133C21.6797 6.49133 19.9629 6.19836 18.3223 6.19836C14.8945 6.19836 12.6563 8.27551 12.6563 12.0343V15.339H8.84766V19.6749H12.6563V30.1573C13.4209 30.2775 14.2031 30.339 15 30.339C15.7969 30.339 16.5791 30.2775 17.3438 30.1573V19.6749H20.8389Z" fill="#F5F5F5"/>
</g>
<defs>
<clipPath id="clip0_6248_35696">
<rect width="30" height="30" fill="white" transform="translate(0 0.338989)"/>
</clipPath>
</defs>
</svg>
