<svg width="24" height="24" viewBox="0 0 24 24" fill="none" xmlns="http://www.w3.org/2000/svg">
<path d="M5.43267 14.8925H18.5673C19.3782 14.8925 19.9864 14.6953 20.3918 14.301C20.7973 13.9067 21 13.3182 21 12.5353V3.37441C21 2.58582 20.7973 1.99294 20.3918 1.59576C19.9864 1.19858 19.3782 1 18.5673 1H5.43267C4.62761 1 4.02091 1.20002 3.61254 1.60008C3.20418 2.00013 3 2.59157 3 3.37441V12.5353C3 13.3182 3.20272 13.9067 3.60817 14.301C4.01361 14.6953 4.62178 14.8925 5.43267 14.8925ZM5.45017 13.5801C5.08264 13.5801 4.80263 13.4865 4.61011 13.2994C4.4176 13.1124 4.32134 12.8318 4.32134 12.4576V3.44349C4.32134 3.07509 4.4176 2.79304 4.61011 2.59733C4.80263 2.40162 5.08264 2.30377 5.45017 2.30377H18.5586C18.9203 2.30377 19.1974 2.40162 19.3899 2.59733C19.5824 2.79304 19.6787 3.07509 19.6787 3.44349V12.4576C19.6787 12.8203 19.5824 13.098 19.3899 13.2908C19.1974 13.4836 18.9203 13.5801 18.5586 13.5801H5.45017ZM20.1687 12.1209L15.6621 7.93328C15.4929 7.78362 15.3092 7.66994 15.1108 7.59223C14.9125 7.51452 14.7112 7.47567 14.507 7.47567C14.3029 7.47567 14.1074 7.51308 13.9208 7.58791C13.7341 7.66274 13.5503 7.77499 13.3695 7.92465L9.93923 10.9553L8.53913 9.69466C8.38162 9.55076 8.21536 9.44283 8.04035 9.37088C7.86534 9.29893 7.68449 9.26295 7.49781 9.26295C7.33447 9.26295 7.17258 9.29893 7.01215 9.37088C6.85173 9.44283 6.68984 9.55076 6.52649 9.69466L3.64754 12.2677C3.67088 12.9411 3.82401 13.4491 4.10695 13.7916C4.38989 14.1341 4.81721 14.3053 5.38892 14.3053H18.1123C18.7948 14.3053 19.3082 14.1197 19.6524 13.7484C19.9966 13.3772 20.1687 12.8346 20.1687 12.1209ZM8.69665 8.01962C9.18668 8.01962 9.60817 7.8455 9.96111 7.49725C10.3141 7.149 10.4905 6.73025 10.4905 6.24097C10.4905 5.91863 10.4088 5.62363 10.2455 5.35597C10.0822 5.0883 9.86485 4.87533 9.59358 4.71703C9.32231 4.55874 9.02334 4.47959 8.69665 4.47959C8.36995 4.47959 8.07098 4.55874 7.79971 4.71703C7.52844 4.87533 7.31259 5.0883 7.15216 5.35597C6.99173 5.62363 6.91152 5.91863 6.91152 6.24097C6.91152 6.56908 6.99173 6.86695 7.15216 7.13461C7.31259 7.40228 7.52844 7.61669 7.79971 7.77786C8.07098 7.93904 8.36995 8.01962 8.69665 8.01962ZM3.6563 18.9505H20.335C20.5158 18.9505 20.6719 18.8872 20.8031 18.7606C20.9344 18.634 21 18.4785 21 18.2943C21 18.1159 20.9344 17.9634 20.8031 17.8367C20.6719 17.7101 20.5158 17.6468 20.335 17.6468H3.6563C3.47545 17.6468 3.32086 17.7101 3.19251 17.8367C3.06417 17.9634 3 18.1159 3 18.2943C3 18.4785 3.06417 18.634 3.19251 18.7606C3.32086 18.8872 3.47545 18.9505 3.6563 18.9505ZM3.6563 23H14.4458C14.6325 23 14.79 22.9381 14.9183 22.8144C15.0467 22.6906 15.1108 22.5366 15.1108 22.3524C15.1108 22.1682 15.0467 22.0128 14.9183 21.8862C14.79 21.7595 14.6325 21.6962 14.4458 21.6962H3.6563C3.47545 21.6962 3.32086 21.7595 3.19251 21.8862C3.06417 22.0128 3 22.1682 3 22.3524C3 22.5366 3.06417 22.6906 3.19251 22.8144C3.32086 22.9381 3.47545 23 3.6563 23Z" fill="#6D75F4"/>
</svg>
