<svg width="24" height="24" viewBox="0 0 24 24" fill="none" xmlns="http://www.w3.org/2000/svg">
<path d="M11.229 19H21.1701C21.8555 19 22.3318 18.9094 22.5991 18.7281C22.8664 18.5468 23 18.2848 23 17.9421C23 17.4411 22.8424 16.9138 22.5271 16.3602C22.2118 15.8065 21.7595 15.2874 21.1701 14.803C20.5807 14.3185 19.8662 13.9247 19.0266 13.6215C18.1871 13.3183 17.243 13.1667 16.1944 13.1667C15.1458 13.1667 14.2034 13.3183 13.3673 13.6215C12.5311 13.9247 11.8184 14.3185 11.229 14.803C10.6396 15.2874 10.1872 15.8065 9.87196 16.3602C9.5567 16.9138 9.39907 17.4411 9.39907 17.9421C9.39907 18.2848 9.531 18.5468 9.79486 18.7281C10.0587 18.9094 10.5368 19 11.229 19ZM16.1944 11.7825C16.7701 11.7825 17.3047 11.6309 17.7981 11.3277C18.2916 11.0245 18.6891 10.6125 18.9907 10.0918C19.2922 9.57109 19.443 8.98776 19.443 8.34181C19.443 7.69585 19.2922 7.12076 18.9907 6.61653C18.6891 6.11229 18.2916 5.71681 17.7981 5.43008C17.3047 5.14336 16.7701 5 16.1944 5C15.6255 5 15.0944 5.14666 14.6009 5.43997C14.1075 5.73329 13.71 6.13371 13.4084 6.64124C13.1069 7.14878 12.9561 7.72222 12.9561 8.36158C12.9561 9.00095 13.1069 9.57933 13.4084 10.0968C13.71 10.6142 14.1075 11.0245 14.6009 11.3277C15.0944 11.6309 15.6255 11.7825 16.1944 11.7825ZM2.50093 19H8.39159C8.18598 18.6704 8.09346 18.2898 8.11402 17.8581C8.13458 17.4263 8.24595 16.9798 8.44813 16.5184C8.65031 16.057 8.92103 15.6137 9.26028 15.1886C9.59953 14.7634 9.98162 14.396 10.4065 14.0862C9.96106 13.8159 9.45047 13.5918 8.87477 13.4138C8.29906 13.2359 7.64798 13.1469 6.9215 13.1469C6.00996 13.1469 5.18926 13.2919 4.45935 13.5819C3.72944 13.8719 3.10748 14.2509 2.59346 14.7189C2.07944 15.1869 1.68536 15.6977 1.41121 16.2514C1.13707 16.8051 1 17.3489 1 17.8828C1 18.2321 1.11308 18.5056 1.33925 18.7034C1.56542 18.9011 1.95265 19 2.50093 19ZM6.9215 11.9605C7.42181 11.9605 7.88614 11.8286 8.31449 11.565C8.74284 11.3013 9.08894 10.9421 9.3528 10.4873C9.61667 10.0325 9.7486 9.52496 9.7486 8.96469C9.7486 8.39783 9.61667 7.89689 9.3528 7.46186C9.08894 7.02683 8.74284 6.68409 8.31449 6.43362C7.88614 6.18314 7.42181 6.05791 6.9215 6.05791C6.42803 6.05791 5.96542 6.18479 5.53365 6.43856C5.10187 6.69233 4.75405 7.04002 4.49019 7.48164C4.22632 7.92326 4.09439 8.4242 4.09439 8.98446C4.09439 9.53814 4.22632 10.0407 4.49019 10.4922C4.75405 10.9437 5.10187 11.3013 5.53365 11.565C5.96542 11.8286 6.42803 11.9605 6.9215 11.9605Z" fill="#6D75F4"/>
</svg>
