<svg width="24" height="16" viewBox="0 0 24 16" fill="none" xmlns="http://www.w3.org/2000/svg">
<path fill-rule="evenodd" clip-rule="evenodd" d="M2.75925 3.46837C4.61741 1.72945 7.5915 0 11.9996 0C16.4078 0 19.3819 1.72945 21.24 3.46837C22.1629 4.33202 22.8085 5.19494 23.2251 5.84468C23.4338 6.1702 23.5863 6.44424 23.6884 6.641C23.7395 6.73944 23.7781 6.81875 23.8049 6.87573C23.8183 6.90423 23.8288 6.92716 23.8364 6.94414L23.8456 6.96508L23.8487 6.97212L23.8503 6.97586C23.8503 6.97586 23.8507 6.97681 22.9223 7.32437C23.8507 7.67193 23.8503 7.67288 23.8503 7.67288L23.8487 7.67662L23.8456 7.68366L23.8364 7.70461C23.8288 7.72158 23.8183 7.74451 23.8049 7.77301C23.7781 7.82999 23.7395 7.9093 23.6884 8.00774C23.5863 8.2045 23.4338 8.47854 23.2251 8.80406C22.8085 9.4538 22.1629 10.3167 21.24 11.1804C19.3819 12.9193 16.4078 14.6487 11.9996 14.6487C7.5915 14.6487 4.61741 12.9193 2.75925 11.1804C1.83637 10.3167 1.19078 9.4538 0.774204 8.80406C0.565497 8.47854 0.412976 8.2045 0.310857 8.00774C0.259762 7.9093 0.221174 7.82999 0.194384 7.77301C0.180986 7.74451 0.170528 7.72158 0.162922 7.70461L0.153637 7.68366L0.150575 7.67662L0.149436 7.67398L0.148964 7.67288C0.148964 7.67288 0.148556 7.67193 1.07703 7.32437C0.148556 6.97681 0.148964 6.97586 0.148964 6.97586L0.149436 6.97476L0.150575 6.97212L0.153637 6.96508L0.162922 6.94414C0.170528 6.92716 0.180986 6.90423 0.194384 6.87573C0.221174 6.81875 0.259762 6.73944 0.310857 6.641C0.412976 6.44424 0.565497 6.1702 0.774204 5.84468C1.19078 5.19494 1.83637 4.33202 2.75925 3.46837ZM1.07703 7.32437L0.148556 6.97681L0 7.32437L0.148556 7.67193L1.07703 7.32437ZM2.18157 7.32437C2.25791 7.18493 2.3598 7.00945 2.48919 6.80764C2.84061 6.25952 3.38968 5.52532 4.17346 4.79183C5.72862 3.33647 8.21583 1.87165 11.9996 1.87165C15.7835 1.87165 18.2707 3.33647 19.8258 4.79183C20.6096 5.52532 21.1587 6.25952 21.5101 6.80764C21.6395 7.00945 21.7414 7.18493 21.8177 7.32437C21.7414 7.46381 21.6395 7.63929 21.5101 7.8411C21.1587 8.38922 20.6096 9.12343 19.8258 9.85691C18.2707 11.3123 15.7835 12.7771 11.9996 12.7771C8.21583 12.7771 5.72862 11.3123 4.17346 9.85691C3.38968 9.12343 2.84061 8.38922 2.48919 7.8411C2.3598 7.63929 2.25791 7.46381 2.18157 7.32437ZM22.9223 7.32437L23.8507 7.67193L23.9993 7.32437L23.8507 6.97681L22.9223 7.32437Z" fill="#6D75F4"/>
<path d="M22.3352 13.3679C22.1713 13.3679 22.0212 13.3168 21.8846 13.2146C21.1474 12.6013 19.9868 11.1447 19.9459 11.0936C19.7274 10.8125 19.782 10.4036 20.0824 10.1992C20.3828 9.982 20.8197 10.0459 21.0381 10.327C21.3522 10.7231 22.2533 11.8219 22.7857 12.2563C23.0725 12.4863 23.0998 12.8952 22.854 13.1635C22.7175 13.304 22.5263 13.3807 22.3352 13.3807V13.3679Z" fill="#6D75F4"/>
<path d="M17.4746 16C17.2698 16 17.0651 15.9105 16.9285 15.7444C16.3278 15.0161 15.5086 13.3679 15.4813 13.304C15.3174 12.9846 15.4813 12.6013 15.809 12.4607C16.1503 12.3074 16.5599 12.4607 16.7101 12.7674C16.9285 13.2018 17.5839 14.454 18.0071 14.9778C18.2392 15.2589 18.171 15.655 17.8842 15.8722C17.7614 15.9616 17.6112 16 17.4746 16Z" fill="#6D75F4"/>
<path d="M2.40827 13.5307C2.21713 13.5307 2.02598 13.454 1.88945 13.3135C1.64369 13.0452 1.671 12.6491 1.95772 12.4063C2.47654 11.9719 3.39131 10.8731 3.70533 10.477C3.92379 10.1959 4.36069 10.132 4.66106 10.3492C4.96143 10.5536 5.0297 10.9625 4.79759 11.2436C4.74298 11.3075 3.59611 12.7641 2.85883 13.3646C2.7223 13.4668 2.57211 13.5179 2.40827 13.5179V13.5307Z" fill="#6D75F4"/>
<path d="M7.38486 16C7.23468 16 7.09815 15.9617 6.97527 15.8722C6.6749 15.655 6.62028 15.2589 6.85239 14.9778C7.27564 14.454 7.93099 13.2018 8.14945 12.7674C8.31329 12.448 8.70923 12.3074 9.05056 12.4607C9.39189 12.6141 9.54208 12.9846 9.37824 13.304C9.33728 13.3679 8.51809 15.0162 7.93099 15.7445C7.79446 15.9106 7.58966 16 7.38486 16Z" fill="#6D75F4"/>
</svg>
