<svg width="25" height="25" viewBox="0 0 25 25" fill="none" xmlns="http://www.w3.org/2000/svg">
<path fill-rule="evenodd" clip-rule="evenodd" d="M14.4872 3.87734C14.4872 3.19954 15.0367 2.65007 15.7145 2.65007H21.8508C22.5286 2.65007 23.0781 3.19954 23.0781 3.87734V10.0137C23.0781 10.6915 22.5286 11.241 21.8508 11.241C21.173 11.241 20.6235 10.6915 20.6235 10.0137V6.84024L13.355 14.1088C12.8757 14.5881 12.0986 14.5881 11.6193 14.1088C11.1401 13.6295 11.1401 12.8524 11.6193 12.3732L18.8879 5.10462H15.7145C15.0367 5.10462 14.4872 4.55515 14.4872 3.87734ZM5.07808 5.37734H11.2144C11.8922 5.37734 12.4417 4.82787 12.4417 4.15006C12.4417 3.47226 11.8922 2.92279 11.2144 2.92279H4.66899C4.1265 2.92279 3.60623 3.13829 3.22264 3.52189C2.83904 3.90549 2.62354 4.42576 2.62354 4.96825V21.0592C2.62354 21.6016 2.83904 22.1219 3.22264 22.5055C3.60623 22.8891 4.1265 23.1046 4.66899 23.1046H20.7599C21.3024 23.1046 21.8227 22.8891 22.2063 22.5055C22.5898 22.1219 22.8054 21.6016 22.8054 21.0592V14.5137C22.8054 13.8359 22.2559 13.2864 21.5781 13.2864C20.9003 13.2864 20.3508 13.8359 20.3508 14.5137V20.6501H5.07808V5.37734Z" fill="#6D75F4"/>
</svg>
