<svg width="36" height="36" viewBox="0 0 36 36" fill="none" xmlns="http://www.w3.org/2000/svg">
<path fill-rule="evenodd" clip-rule="evenodd" d="M18 36C27.9411 36 36 27.9411 36 18C36 8.05887 27.9411 0 18 0C8.05887 0 0 8.05887 0 18C0 27.9411 8.05887 36 18 36ZM9 16.5726V15.6062C9 14.1853 9.57536 13.049 10.7261 12.1973C11.8768 11.3456 13.4102 10.9198 15.3262 10.9198H20.9338V8.69578C20.9338 8.43983 21.0274 8.23905 21.2146 8.09343C21.4018 7.94781 21.6441 7.875 21.9414 7.875C22.2057 7.875 22.4755 7.95443 22.7508 8.11329L26.5425 11.2375C26.8178 11.4229 26.9555 11.6435 26.9555 11.8994C26.9555 12.1554 26.8178 12.3716 26.5425 12.5481L22.7508 15.6591C22.4755 15.818 22.2057 15.8974 21.9414 15.8974C21.6441 15.8974 21.4018 15.8246 21.2146 15.679C21.0274 15.5334 20.9338 15.3326 20.9338 15.0766V12.8923H15.1611C14.0599 12.8923 13.1762 13.1483 12.51 13.6601C11.8438 14.172 11.5107 14.8516 11.5107 15.6988V16.5726C11.5107 16.8462 11.3868 17.08 11.139 17.2742C10.8913 17.4684 10.5912 17.5654 10.2388 17.5654C9.89746 17.5654 9.60565 17.4684 9.36339 17.2742C9.12113 17.08 9 16.8462 9 16.5726ZM27 19.4142V20.3806C27 21.7927 26.4246 22.9268 25.2739 23.7828C24.1232 24.6389 22.5898 25.067 20.6738 25.067H15.0662V27.3042C15.0662 27.5602 14.9726 27.7609 14.7854 27.9066C14.5982 28.0522 14.3559 28.125 14.0586 28.125C13.7943 28.125 13.5245 28.0456 13.2492 27.8867L9.45747 24.7625C9.17116 24.586 9.03076 24.3675 9.03627 24.1072C9.04177 23.8468 9.18217 23.6284 9.45747 23.4519L13.2492 20.3409C13.5245 20.182 13.7943 20.1026 14.0586 20.1026C14.3559 20.1026 14.5982 20.1754 14.7854 20.321C14.9726 20.4666 15.0662 20.6674 15.0662 20.9234V23.0944H20.8389C21.9401 23.0944 22.8238 22.8385 23.49 22.3266C24.1562 21.8147 24.4893 21.1352 24.4893 20.2879V19.4142C24.4893 19.1318 24.6105 18.8957 24.8527 18.7059C25.095 18.5162 25.3978 18.4213 25.7612 18.4213C26.1136 18.4213 26.4081 18.5162 26.6449 18.7059C26.8816 18.8957 27 19.1318 27 19.4142Z" fill="#6D75F4"/>
</svg>
