<svg width="27" height="29" viewBox="0 0 27 29" fill="none" xmlns="http://www.w3.org/2000/svg">
<path d="M13.4799 18.318H4.84405C4.33237 18.3472 3.82028 18.268 3.34137 18.0854C2.86247 17.9029 2.42755 17.6212 2.06514 17.2588C1.70274 16.8964 1.42103 16.4614 1.23849 15.9825C1.05594 15.5036 0.976688 14.9915 1.00592 14.4799V5.84405C0.976688 5.33237 1.05594 4.82028 1.23849 4.34137C1.42103 3.86247 1.70274 3.42755 2.06514 3.06514C2.42755 2.70274 2.86247 2.42103 3.34137 2.23849C3.82028 2.05594 4.33237 1.97669 4.84405 2.00592H13.4799C13.9915 1.97669 14.5036 2.05594 14.9825 2.23849C15.4614 2.42103 15.8964 2.70274 16.2588 3.06514C16.6212 3.42755 16.9029 3.86247 17.0854 4.34137C17.268 4.82028 17.3472 5.33237 17.318 5.84405V14.4799C17.3472 14.9915 17.268 15.5036 17.0854 15.9825C16.9029 16.4614 16.6212 16.8964 16.2588 17.2588C15.8964 17.6212 15.4614 17.9029 14.9825 18.0854C14.5036 18.268 13.9915 18.3472 13.4799 18.318ZM4.84405 4.88452C4.71318 4.86293 4.57904 4.87284 4.45276 4.91342C4.32648 4.95401 4.21169 5.0241 4.11789 5.11789C4.0241 5.21169 3.95401 5.32648 3.91342 5.45276C3.87284 5.57904 3.86293 5.71318 3.88452 5.84405V14.4799C3.86293 14.6107 3.87284 14.7449 3.91342 14.8711C3.95401 14.9974 4.0241 15.1122 4.11789 15.206C4.21169 15.2998 4.32648 15.3699 4.45276 15.4105C4.57904 15.4511 4.71318 15.461 4.84405 15.4394H13.4799C13.6107 15.461 13.7449 15.4511 13.8711 15.4105C13.9974 15.3699 14.1122 15.2998 14.206 15.206C14.2998 15.1122 14.3699 14.9974 14.4105 14.8711C14.4511 14.7449 14.461 14.6107 14.4394 14.4799V5.84405C14.461 5.71318 14.4511 5.57904 14.4105 5.45276C14.3699 5.32648 14.2998 5.21169 14.206 5.11789C14.1122 5.0241 13.9974 4.95401 13.8711 4.91342C13.7449 4.87284 13.6107 4.86293 13.4799 4.88452H4.84405ZM21.1561 25.9942H12.5203C12.0086 26.0235 11.4965 25.9442 11.0176 25.7617C10.5387 25.5791 10.1038 25.2974 9.74141 24.935C9.379 24.5726 9.09729 24.1377 8.91475 23.6588C8.73221 23.1799 8.65295 22.6678 8.68219 22.1561V21.3885C8.68219 19.7957 11.5608 19.5942 11.5608 21.1966V22.1561C11.5392 22.287 11.5491 22.4211 11.5897 22.5474C11.6303 22.6737 11.7004 22.7885 11.7942 22.8823C11.888 22.9761 12.0027 23.0462 12.129 23.0867C12.2553 23.1273 12.3894 23.1372 12.5203 23.1156H21.1561C21.287 23.1372 21.4211 23.1273 21.5474 23.0867C21.6737 23.0462 21.7885 22.9761 21.8823 22.8823C21.9761 22.7885 22.0462 22.6737 22.0867 22.5474C22.1273 22.4211 22.1372 22.287 22.1156 22.1561V13.5203C22.1372 13.3894 22.1273 13.2553 22.0867 13.129C22.0462 13.0027 21.9761 12.888 21.8823 12.7942C21.7885 12.7004 21.6737 12.6303 21.5474 12.5897C21.4211 12.5491 21.287 12.5392 21.1561 12.5608H20.1966C18.5942 12.5608 18.7957 9.68219 20.3885 9.68219H21.1561C21.6678 9.65295 22.1799 9.73221 22.6588 9.91475C23.1377 10.0973 23.5726 10.379 23.935 10.7414C24.2974 11.1038 24.5791 11.5387 24.7617 12.0176C24.9442 12.4965 25.0235 13.0086 24.9942 13.5203V22.1561C25.0235 22.6678 24.9442 23.1799 24.7617 23.6588C24.5791 24.1377 24.2974 24.5726 23.935 24.935C23.5726 25.2974 23.1377 25.5791 22.6588 25.7617C22.1799 25.9442 21.6678 26.0235 21.1561 25.9942Z" fill="#6D75F4"/>
</svg>
