<svg width="26" height="26" viewBox="0 0 26 26" fill="none" xmlns="http://www.w3.org/2000/svg">
<path d="M15.5994 22.9477V17.748C15.5994 17.5182 15.5081 17.2977 15.3456 17.1352C15.183 16.9727 14.9626 16.8814 14.7328 16.8814H11.2663C11.0365 16.8814 10.816 16.9727 10.6535 17.1352C10.491 17.2977 10.3997 17.5182 10.3997 17.748V22.9477C10.3997 23.1775 10.3084 23.3979 10.1459 23.5605C9.98335 23.723 9.76293 23.8143 9.53309 23.8143H4.33341C4.10357 23.8143 3.88314 23.723 3.72062 23.5605C3.5581 23.3979 3.4668 23.1775 3.4668 22.9477V12.9275C3.46874 12.8075 3.49466 12.6892 3.54303 12.5794C3.5914 12.4697 3.66124 12.3707 3.74845 12.2883L12.4146 4.413C12.5743 4.26685 12.783 4.18579 12.9995 4.18579C13.2161 4.18579 13.4247 4.26685 13.5845 4.413L22.2506 12.2883C22.3378 12.3707 22.4077 12.4697 22.456 12.5794C22.5044 12.6892 22.5303 12.8075 22.5323 12.9275V22.9477C22.5323 23.1775 22.441 23.3979 22.2785 23.5605C22.1159 23.723 21.8955 23.8143 21.6657 23.8143H16.466C16.2361 23.8143 16.0157 23.723 15.8532 23.5605C15.6907 23.3979 15.5994 23.1775 15.5994 22.9477Z" stroke="#BCBED5" stroke-width="2.16653" stroke-linecap="round" stroke-linejoin="round"/>
</svg>
