<svg width="40" height="40" viewBox="0 0 40 40" fill="none" xmlns="http://www.w3.org/2000/svg">
<g clip-path="url(#clip0_9033_256629)">
<circle cx="20" cy="20" r="20" fill="#2D2E3F"/>
<path d="M25 16.8409C25 17.2568 24.842 17.6557 24.5607 17.9498C24.2794 18.2439 23.8978 18.4091 23.5 18.4091C23.1022 18.4091 22.7206 18.2439 22.4393 17.9498C22.158 17.6557 22 17.2568 22 16.8409C22 16.425 22.158 16.0261 22.4393 15.732C22.7206 15.4379 23.1022 15.2727 23.5 15.2727C23.8978 15.2727 24.2794 15.4379 24.5607 15.732C24.842 16.0261 25 16.425 25 16.8409ZM33 11.0909V27.8182V29.9091C33 30.4636 32.7893 30.9955 32.4142 31.3876C32.0391 31.7797 31.5304 32 31 32H9C8.46957 32 7.96086 31.7797 7.58579 31.3876C7.21071 30.9955 7 30.4636 7 29.9091V25.7273V11.0909C7 10.5364 7.21071 10.0045 7.58579 9.61241C7.96086 9.22029 8.46957 9 9 9H31C31.5304 9 32.0391 9.22029 32.4142 9.61241C32.7893 10.0045 33 10.5364 33 11.0909ZM31 25.296V11.0909H9V23.2051L13.5875 18.4091C13.964 18.0212 14.4714 17.8038 15 17.8038C15.5286 17.8038 16.036 18.0212 16.4125 18.4091L22 24.2506L24.5875 21.5455C24.964 21.1576 25.4714 20.9402 26 20.9402C26.5286 20.9402 27.036 21.1576 27.4125 21.5455L31 25.296Z" fill="#4E5066"/>
</g>
<defs>
<clipPath id="clip0_9033_256629">
<rect width="40" height="40" rx="20" fill="white"/>
</clipPath>
</defs>
</svg>
