<svg width="33" height="33" viewBox="0 0 33 33" fill="none" xmlns="http://www.w3.org/2000/svg">
<path fill-rule="evenodd" clip-rule="evenodd" d="M2.19666 4.00216C2.19666 3.13767 2.90988 2.43686 3.7897 2.43686H13.8083C14.6881 2.43686 15.4013 3.13767 15.4013 4.00216V13.8462C15.4013 14.7107 14.6881 15.4115 13.8083 15.4115H3.7897C2.90988 15.4115 2.19666 14.7107 2.19666 13.8462V4.00216ZM5.38274 5.56745V12.2809H12.2152V5.56745H5.38274Z" fill="#848BFF"/>
<path fill-rule="evenodd" clip-rule="evenodd" d="M16.603 4.00216C16.603 3.13767 17.3163 2.43686 18.1961 2.43686H28.2146C29.0944 2.43686 29.8077 3.13767 29.8077 4.00216V13.8462C29.8077 14.7107 29.0944 15.4115 28.2146 15.4115H18.1961C17.3163 15.4115 16.603 14.7107 16.603 13.8462V4.00216ZM19.7891 5.56746V12.2809H26.6216V5.56746H19.7891Z" fill="#848BFF"/>
<path fill-rule="evenodd" clip-rule="evenodd" d="M2.1967 18.1574C2.1967 17.2929 2.90992 16.5921 3.78974 16.5921H13.8083C14.6881 16.5921 15.4013 17.2929 15.4013 18.1574V28.0015C15.4013 28.866 14.6881 29.5668 13.8083 29.5668H3.78974C2.90992 29.5668 2.1967 28.866 2.1967 28.0015V18.1574ZM5.38278 19.7227V26.4362H12.2153V19.7227H5.38278Z" fill="#848BFF"/>
<path fill-rule="evenodd" clip-rule="evenodd" d="M16.603 18.1574C16.603 17.2929 17.3163 16.5921 18.1961 16.5921H28.2146C29.0944 16.5921 29.8077 17.2929 29.8077 18.1574V28.0015C29.8077 28.866 29.0944 29.5668 28.2146 29.5668H18.1961C17.3163 29.5668 16.603 28.866 16.603 28.0015V18.1574ZM19.7891 19.7227V26.4362H26.6216V19.7227H19.7891Z" fill="#848BFF"/>
</svg>
