<svg width="24" height="24" viewBox="0 0 24 24" fill="none" xmlns="http://www.w3.org/2000/svg">
<path d="M19.9939 17.0802C19.8973 15.382 18.9701 13.8661 17.2316 12.5805C16.6811 12.1775 15.7926 11.6018 14.5756 11.1029L19.4433 6.24815V5.56694C19.4433 5.2983 19.2115 5.06803 18.9411 5.06803H9.8818V1L5.73846 1.8635V2.98604H6.26966C6.42419 2.98604 6.78154 3.04361 6.78154 3.49455V5.04884H4.43462C4.20282 5.04884 4 5.25033 4 5.48059V7.0157H6.7912V13.1945C6.7912 14.3266 7.17752 15.3053 7.88257 15.9481C8.59727 16.6005 9.61137 16.898 10.7897 16.802C11.2919 16.7636 11.7941 16.5813 12.2867 16.2647C12.5571 16.0824 12.7213 15.7946 12.7213 15.478V14.2115L12.1997 14.5569C11.5623 14.9791 11.0118 14.9695 11.0118 14.9695H10.9925C10.7124 14.9695 10.4903 14.8831 10.3164 14.7104C9.89146 14.2787 9.89146 13.4632 9.89146 13.4536V7.0157H15.5028L11.1084 11.4099V11.5443C11.0987 12.0432 11.0891 12.4557 11.0891 12.6188C11.0891 12.6668 11.0891 12.6956 11.0891 12.7052C11.0891 12.8971 11.2243 13.0506 11.4174 13.0698C15.8602 13.8181 16.7874 16.6581 16.7874 17.1858V17.2242C16.7874 17.2434 16.9709 18.9128 16.0051 20.0737C15.4449 20.7357 14.6046 21.1195 13.5133 21.1867C13.5036 21.1867 12.8565 21.2154 12.1708 21.1099C11.5333 21.014 11.0697 20.8509 10.8283 20.6302C11.2533 20.3328 11.4947 19.8818 11.4947 19.3541C11.4947 18.2795 10.7703 17.5887 9.65966 17.5887C8.65522 17.5887 7.83428 18.3755 7.82462 19.3349C7.81496 19.5076 7.76667 20.563 8.62624 21.5033C9.53411 22.5011 11.0987 23 13.2718 23C13.3491 23 13.436 23 13.5133 23C15.7346 22.9616 17.4345 22.3188 18.5645 21.0907C20.1291 19.4021 20.0035 17.2146 19.9939 17.0802Z" fill="#6D75F4"/>
</svg>
