<svg width="36" height="36" viewBox="0 0 36 36" fill="none" xmlns="http://www.w3.org/2000/svg">
<circle cx="18" cy="18" r="18" fill="url(#paint0_linear_7706_156763)"/>
<g clip-path="url(#clip0_7706_156763)">
<path d="M24 18C23.989 17.8192 23.9506 17.6497 23.8847 17.4915C23.8188 17.3333 23.7199 17.1864 23.5881 17.0508L16.0923 9.35593C15.8616 9.11864 15.5761 9 15.2356 9C14.8841 9 14.5903 9.12147 14.3542 9.36441C14.1181 9.60735 14 9.90395 14 10.2542C14 10.5932 14.1263 10.8983 14.3789 11.1695L21.0346 18L14.3789 24.8305C14.1263 25.0904 14 25.3898 14 25.7288C14 26.0904 14.1181 26.3927 14.3542 26.6356C14.5903 26.8785 14.8841 27 15.2356 27C15.5761 27 15.8616 26.8757 16.0923 26.6271L23.5881 18.9322C23.7309 18.7966 23.8353 18.6497 23.9012 18.4915C23.9671 18.3333 24 18.1695 24 18Z" fill="#6D6D6D"/>
</g>
<defs>
<linearGradient id="paint0_linear_7706_156763" x1="-2.94392" y1="-3.41732e-07" x2="46.2906" y2="25.9451" gradientUnits="userSpaceOnUse">
<stop offset="0.223958" stop-color="#303139"/>
<stop offset="0.8125" stop-color="#24242D"/>
</linearGradient>
<clipPath id="clip0_7706_156763">
<rect width="10" height="18" fill="white" transform="translate(14 9)"/>
</clipPath>
</defs>
</svg>
