<svg width="36" height="36" viewBox="0 0 36 36" fill="none" xmlns="http://www.w3.org/2000/svg">
<path fill-rule="evenodd" clip-rule="evenodd" d="M18 33.9429C26.805 33.9429 33.9429 26.805 33.9429 18C33.9429 9.195 26.805 2.05714 18 2.05714C9.195 2.05714 2.05714 9.195 2.05714 18C2.05714 26.805 9.195 33.9429 18 33.9429ZM18 36C27.9411 36 36 27.9411 36 18C36 8.05887 27.9411 0 18 0C8.05887 0 0 8.05887 0 18C0 27.9411 8.05887 36 18 36Z" fill="#656DE6"/>
<path d="M14 18C14 19.1046 13.1046 20 12 20C10.8954 20 10 19.1046 10 18C10 16.8954 10.8954 16 12 16C13.1046 16 14 16.8954 14 18Z" fill="#6D75F4"/>
<path d="M20 18C20 19.1046 19.1046 20 18 20C16.8954 20 16 19.1046 16 18C16 16.8954 16.8954 16 18 16C19.1046 16 20 16.8954 20 18Z" fill="#6D75F4"/>
<path d="M26 18C26 19.1046 25.1046 20 24 20C22.8954 20 22 19.1046 22 18C22 16.8954 22.8954 16 24 16C25.1046 16 26 16.8954 26 18Z" fill="#6D75F4"/>
</svg>
