<svg width="33" height="33" viewBox="0 0 33 33" fill="none" xmlns="http://www.w3.org/2000/svg">
<path d="M16.4799 20.318H7.84405C7.33237 20.3472 6.82028 20.268 6.34137 20.0854C5.86247 19.9029 5.42755 19.6212 5.06514 19.2588C4.70274 18.8964 4.42103 18.4614 4.23849 17.9825C4.05594 17.5036 3.97669 16.9915 4.00592 16.4799V7.84405C3.97669 7.33237 4.05594 6.82028 4.23849 6.34137C4.42103 5.86247 4.70274 5.42755 5.06514 5.06514C5.42755 4.70274 5.86247 4.42103 6.34137 4.23849C6.82028 4.05594 7.33237 3.97669 7.84405 4.00592H16.4799C16.9915 3.97669 17.5036 4.05594 17.9825 4.23849C18.4614 4.42103 18.8964 4.70274 19.2588 5.06514C19.6212 5.42755 19.9029 5.86247 20.0854 6.34137C20.268 6.82028 20.3472 7.33237 20.318 7.84405V16.4799C20.3472 16.9915 20.268 17.5036 20.0854 17.9825C19.9029 18.4614 19.6212 18.8964 19.2588 19.2588C18.8964 19.6212 18.4614 19.9029 17.9825 20.0854C17.5036 20.268 16.9915 20.3472 16.4799 20.318ZM7.84405 6.88452C7.71318 6.86293 7.57904 6.87284 7.45276 6.91342C7.32648 6.95401 7.21169 7.0241 7.11789 7.11789C7.0241 7.21169 6.95401 7.32648 6.91342 7.45276C6.87284 7.57904 6.86293 7.71318 6.88452 7.84405V16.4799C6.86293 16.6107 6.87284 16.7449 6.91342 16.8711C6.95401 16.9974 7.0241 17.1122 7.11789 17.206C7.21169 17.2998 7.32648 17.3699 7.45276 17.4105C7.57904 17.4511 7.71318 17.461 7.84405 17.4394H16.4799C16.6107 17.461 16.7449 17.4511 16.8711 17.4105C16.9974 17.3699 17.1122 17.2998 17.206 17.206C17.2998 17.1122 17.3699 16.9974 17.4105 16.8711C17.4511 16.7449 17.461 16.6107 17.4394 16.4799V7.84405C17.461 7.71318 17.4511 7.57904 17.4105 7.45276C17.3699 7.32648 17.2998 7.21169 17.206 7.11789C17.1122 7.0241 16.9974 6.95401 16.8711 6.91342C16.7449 6.87284 16.6107 6.86293 16.4799 6.88452H7.84405ZM24.1561 27.9942H15.5203C15.0086 28.0235 14.4965 27.9442 14.0176 27.7617C13.5387 27.5791 13.1038 27.2974 12.7414 26.935C12.379 26.5726 12.0973 26.1377 11.9147 25.6588C11.7322 25.1799 11.653 24.6678 11.6822 24.1561V23.3885C11.6822 21.7957 14.5608 21.5942 14.5608 23.1966V24.1561C14.5392 24.287 14.5491 24.4211 14.5897 24.5474C14.6303 24.6737 14.7004 24.7885 14.7942 24.8823C14.888 24.9761 15.0027 25.0462 15.129 25.0867C15.2553 25.1273 15.3894 25.1372 15.5203 25.1156H24.1561C24.287 25.1372 24.4211 25.1273 24.5474 25.0867C24.6737 25.0462 24.7885 24.9761 24.8823 24.8823C24.9761 24.7885 25.0462 24.6737 25.0867 24.5474C25.1273 24.4211 25.1372 24.287 25.1156 24.1561V15.5203C25.1372 15.3894 25.1273 15.2553 25.0867 15.129C25.0462 15.0027 24.9761 14.888 24.8823 14.7942C24.7885 14.7004 24.6737 14.6303 24.5474 14.5897C24.4211 14.5491 24.287 14.5392 24.1561 14.5608H23.1966C21.5942 14.5608 21.7957 11.6822 23.3885 11.6822H24.1561C24.6678 11.653 25.1799 11.7322 25.6588 11.9147C26.1377 12.0973 26.5726 12.379 26.935 12.7414C27.2974 13.1038 27.5791 13.5387 27.7617 14.0176C27.9442 14.4965 28.0235 15.0086 27.9942 15.5203V24.1561C28.0235 24.6678 27.9442 25.1799 27.7617 25.6588C27.5791 26.1377 27.2974 26.5726 26.935 26.935C26.5726 27.2974 26.1377 27.5791 25.6588 27.7617C25.1799 27.9442 24.6678 28.0235 24.1561 27.9942Z" fill="#6D75F4"/>
</svg>
