<svg width="20" height="22" viewBox="0 0 20 22" fill="none" xmlns="http://www.w3.org/2000/svg">
<g clip-path="url(#clip0_8580_211242)">
<path d="M1.72662 18.1639H5.96095C6.03289 20.1553 7.63618 22 10 22C12.3535 22 13.9671 20.1763 14.0493 18.1639H18.2734C19.3422 18.1639 20 17.5665 20 16.6651C20 15.5436 19.0031 14.5898 18.0678 13.6779C17.3381 12.9547 17.1634 11.5083 17.0298 10.0305C16.8859 6.07908 15.7451 3.43783 13.073 2.4526C12.6721 1.0586 11.5313 0 10 0C8.46865 0 7.32785 1.0586 6.93731 2.4526C4.25488 3.43783 3.12436 6.07908 2.9702 10.0305C2.83659 11.5083 2.66187 12.9547 1.93217 13.6779C0.996917 14.5898 0 15.5436 0 16.6651C0 17.5665 0.65776 18.1639 1.72662 18.1639ZM2.50771 16.2144V16.0886C2.77492 15.7847 3.37102 15.2292 3.87461 14.6422C4.58376 13.8142 4.91264 12.2839 5.01542 10.2925C5.13875 6.08957 6.41316 4.67461 8.05755 4.22392C8.31449 4.15055 8.4481 4.02477 8.46865 3.74178C8.52004 2.68318 9.10586 1.97046 10 1.97046C10.9044 1.97046 11.48 2.68318 11.5313 3.74178C11.5519 4.02477 11.6958 4.15055 11.9424 4.22392C13.5971 4.67461 14.8613 6.08957 14.9846 10.2925C15.0976 12.2839 15.4265 13.8142 16.1254 14.6422C16.629 15.2292 17.2045 15.7847 17.4717 16.0886V16.2144H2.50771ZM10 20.3125C8.83864 20.3125 8.00617 19.4636 7.93422 18.1639H12.0761C12.0144 19.4531 11.1716 20.3125 10 20.3125Z" fill="#6D75F4"/>
</g>
<defs>
<clipPath id="clip0_8580_211242">
<rect width="20" height="22" fill="white"/>
</clipPath>
</defs>
</svg>
