<svg width="18" height="18" viewBox="0 0 18 18" fill="none" xmlns="http://www.w3.org/2000/svg">
<g clip-path="url(#clip0_7702_151206)">
<path d="M0.531704 0.54125C1.25148 -0.178526 2.25273 -0.180607 2.96952 0.536186L14.9424 12.7054L14.6494 1.79025C14.6504 1.35493 14.8145 0.908382 15.1635 0.559401C15.8288 -0.105848 16.8191 -0.097023 17.5033 0.587191C17.8183 0.902145 17.9915 1.31534 17.9904 1.83773L17.9824 16.1816C17.9923 16.6713 17.7954 17.1288 17.4574 17.4669C17.1302 17.7941 16.6727 17.9909 16.183 17.9811L1.82818 18C1.30579 18.0011 0.892599 17.8278 0.577644 17.5129C-0.106568 16.8286 -0.104489 15.8274 0.56076 15.1621C0.898837 14.8241 1.34538 14.6599 1.78071 14.659L12.685 14.9411L0.537547 2.96816C-0.179247 2.25137 -0.177167 1.25012 0.531704 0.54125Z" fill="#6D75F4"/>
</g>
<defs>
<clipPath id="clip0_7702_151206">
<rect width="18" height="18" fill="white" transform="matrix(1 0 0 -1 0 18)"/>
</clipPath>
</defs>
</svg>
