<svg width="25" height="25" viewBox="0 0 25 25" fill="none" xmlns="http://www.w3.org/2000/svg">
<g clip-path="url(#clip0_7107_154919)">
<path fill-rule="evenodd" clip-rule="evenodd" d="M21.6395 2.09224C21.9829 1.9932 22.3465 1.98765 22.6927 2.07622C23.0414 2.16541 23.3597 2.34676 23.6142 2.60124C23.8686 2.85573 24.05 3.17399 24.1392 3.52266C24.2277 3.86891 24.2222 4.23248 24.1232 4.5758L18.8327 23.3595C18.7228 23.7572 18.4935 24.1117 18.1756 24.3751C17.8564 24.6396 17.4633 24.7992 17.0501 24.8323C16.6368 24.8653 16.2234 24.7702 15.8661 24.5598C15.5122 24.3514 15.2304 24.0398 15.0584 23.667L11.0405 15.1749L2.54847 11.157C2.1756 10.985 1.86404 10.7032 1.65559 10.3493C1.44521 9.99201 1.35007 9.5786 1.38313 9.16533C1.41619 8.75206 1.57585 8.35903 1.84035 8.03977C2.10365 7.72196 2.4581 7.49265 2.8558 7.38272L21.6395 2.09224ZM21.972 3.25543L22.2999 4.41978C22.3038 4.41876 22.3077 4.41769 22.3116 4.41655L21.972 3.25543ZM21.5977 4.61768L4.53926 9.42224L12.203 13.0482C12.6276 13.2464 12.969 13.5878 13.1672 14.0124L16.7932 21.6761L21.5977 4.61768ZM3.55982 8.95899C3.56171 8.95985 3.56358 8.96072 3.56545 8.9616L3.55982 8.95899Z" fill="#6D75F4"/>
<path fill-rule="evenodd" clip-rule="evenodd" d="M17.3634 8.85206C17.8358 9.3245 17.8358 10.0905 17.3634 10.5629L12.8066 15.1197C12.3341 15.5922 11.5681 15.5922 11.0957 15.1197C10.6233 14.6473 10.6233 13.8813 11.0957 13.4088L15.6525 8.85206C16.1249 8.37961 16.8909 8.37961 17.3634 8.85206Z" fill="#6D75F4"/>
</g>
<defs>
<clipPath id="clip0_7107_154919">
<rect width="24" height="24" fill="white" transform="translate(0.844971 0.805222)"/>
</clipPath>
</defs>
</svg>
