<svg width="34" height="34" viewBox="0 0 34 34" fill="none" xmlns="http://www.w3.org/2000/svg">
<rect x="0.5" y="0.5" width="33" height="33" rx="16.5" fill="#14141D"/>
<g clip-path="url(#clip0_5774_346186)">
<path fill-rule="evenodd" clip-rule="evenodd" d="M25.5615 9.89511C26.449 10.6212 26.5798 11.9293 25.8538 12.8168L16.8579 23.8126C16.4865 24.2667 15.9403 24.5424 15.3544 24.5716C14.7685 24.6008 14.1976 24.3809 13.7828 23.9661L8.28488 18.4682C7.47405 17.6573 7.47405 16.3427 8.28488 15.5319C9.09571 14.7211 10.4103 14.7211 11.2211 15.5319L15.0967 19.4075L22.6398 10.1874C23.3659 9.29989 24.674 9.16903 25.5615 9.89511Z" fill="#09AE4B"/>
</g>
<rect x="0.5" y="0.5" width="33" height="33" rx="16.5" stroke="#6D75F4"/>
<defs>
<clipPath id="clip0_5774_346186">
<rect width="24" height="24" fill="white" transform="translate(5 5)"/>
</clipPath>
</defs>
</svg>
