<svg width="25" height="25" viewBox="0 0 25 25" fill="none" xmlns="http://www.w3.org/2000/svg">
<path fill-rule="evenodd" clip-rule="evenodd" d="M11.8664 0.559537C12.3546 0.0713816 13.146 0.0713816 13.6342 0.559537L18.3675 5.29284C18.8556 5.78099 18.8556 6.57245 18.3675 7.06061C17.8793 7.54876 17.0879 7.54876 16.5997 7.06061L12.7503 3.21119L8.90088 7.06061C8.41272 7.54876 7.62127 7.54876 7.13311 7.06061C6.64496 6.57245 6.64496 5.78099 7.13311 5.29284L11.8664 0.559537Z" fill="#6D75F4"/>
<path fill-rule="evenodd" clip-rule="evenodd" d="M12.7503 0.19342C13.4406 0.19342 14.0003 0.753064 14.0003 1.44342V16.0708C14.0003 16.7612 13.4406 17.3208 12.7503 17.3208C12.0599 17.3208 11.5003 16.7612 11.5003 16.0708V1.44342C11.5003 0.753064 12.0599 0.19342 12.7503 0.19342Z" fill="#6D75F4"/>
<path fill-rule="evenodd" clip-rule="evenodd" d="M4.9845 10.6575H7.34082C8.03118 10.6575 8.59082 10.0978 8.59082 9.40746C8.59082 8.7171 8.03118 8.15746 7.34082 8.15746H4.63608C4.06544 8.15746 3.51818 8.38414 3.11468 8.78764C2.71118 9.19114 2.4845 9.7384 2.4845 10.309V21.5788C2.4845 22.1494 2.71118 22.6967 3.11468 23.1002C3.51818 23.5037 4.06544 23.7304 4.63608 23.7304H20.8645C21.4352 23.7304 21.9824 23.5037 22.3859 23.1002C22.7894 22.6967 23.0161 22.1494 23.0161 21.5788V10.309C23.0161 9.7384 22.7894 9.19114 22.3859 8.78764C21.9824 8.38414 21.4352 8.15746 20.8645 8.15746H18.1598C17.4694 8.15746 16.9098 8.7171 16.9098 9.40746C16.9098 10.0978 17.4694 10.6575 18.1598 10.6575H20.5161V21.2304H4.9845V10.6575Z" fill="#6D75F4"/>
</svg>
