<svg width="24" height="24" viewBox="0 0 24 24" fill="none" xmlns="http://www.w3.org/2000/svg">
<g clip-path="url(#clip0_7702_145443)">
<path d="M5.40921 5.16513H11.6928C11.991 5.16513 12.2232 5.07701 12.3893 4.90078C12.5553 4.72454 12.6384 4.47713 12.6384 4.15854V3.09095C12.6384 2.77236 12.5553 2.52495 12.3893 2.34871C12.2232 2.17247 11.991 2.08435 11.6928 2.08435H10.7574C10.7235 1.50819 10.4947 1.01676 10.071 0.610055C9.64739 0.20335 9.14071 0 8.55099 0C7.96127 0 7.45459 0.20335 7.03094 0.610055C6.60729 1.01676 6.37852 1.50819 6.34463 2.08435H5.40921C5.11096 2.08435 4.8788 2.17247 4.71273 2.34871C4.54666 2.52495 4.46362 2.77236 4.46362 3.09095V4.15854C4.46362 4.47713 4.54666 4.72454 4.71273 4.90078C4.8788 5.07701 5.11096 5.16513 5.40921 5.16513ZM8.55099 3.05027C8.30697 3.05027 8.09854 2.96216 7.92569 2.78592C7.75284 2.60968 7.66641 2.40294 7.66641 2.1657C7.66641 1.91489 7.75284 1.70307 7.92569 1.53022C8.09854 1.35737 8.30697 1.27095 8.55099 1.27095C8.79501 1.27095 9.00345 1.35737 9.1763 1.53022C9.34915 1.70307 9.43557 1.91489 9.43557 2.1657C9.43557 2.40294 9.34915 2.60968 9.1763 2.78592C9.00345 2.96216 8.79501 3.05027 8.55099 3.05027Z" fill="#6D75F4"/>
<path d="M13.598 2.63605H14.1019C15.7588 2.63605 17.1019 3.97919 17.1019 5.63605V6H15.1019V5.63605C15.1019 5.08376 14.6542 4.63605 14.1019 4.63605H13.5937C13.6249 4.47666 13.6384 4.31595 13.6384 4.15854V3.09095C13.6384 2.94098 13.6261 2.78801 13.598 2.63605Z" fill="#6D75F4"/>
<path d="M3.50826 4.63605C3.47709 4.47666 3.46362 4.31595 3.46362 4.15854V3.09095C3.46362 2.94098 3.47584 2.78801 3.50396 2.63605H3C1.34315 2.63605 0 3.97919 0 5.63605V19.636C0 21.2929 1.34315 22.636 3 22.636H10.485C10.1782 22.1655 10 21.6036 10 21V20.636H3C2.44772 20.636 2 20.1883 2 19.636V5.63605C2 5.08376 2.44771 4.63605 3 4.63605H3.50826Z" fill="#6D75F4"/>
<path fill-rule="evenodd" clip-rule="evenodd" d="M21 8H13C12.4477 8 12 8.44771 12 9V21C12 21.5523 12.4477 22 13 22H21C21.5523 22 22 21.5523 22 21V9C22 8.44772 21.5523 8 21 8ZM13 6C11.3431 6 10 7.34315 10 9V21C10 22.6569 11.3431 24 13 24H21C22.6569 24 24 22.6569 24 21V9C24 7.34315 22.6569 6 21 6H13Z" fill="#6D75F4"/>
<path fill-rule="evenodd" clip-rule="evenodd" d="M20.8389 16.1554C20.8389 16.5696 20.5031 16.9054 20.0889 16.9054L13.7892 16.9054C13.375 16.9054 13.0392 16.5696 13.0392 16.1554C13.0392 15.7412 13.375 15.4054 13.7892 15.4054L20.0889 15.4054C20.5031 15.4054 20.8389 15.7412 20.8389 16.1554Z" fill="#6D75F4"/>
<path fill-rule="evenodd" clip-rule="evenodd" d="M20.8389 12.1554C20.8389 12.5696 20.5031 12.9054 20.0889 12.9054H13.7892C13.375 12.9054 13.0392 12.5696 13.0392 12.1554C13.0392 11.7412 13.375 11.4054 13.7892 11.4054H20.0889C20.5031 11.4054 20.8389 11.7412 20.8389 12.1554Z" fill="#6D75F4"/>
</g>
<defs>
<clipPath id="clip0_7702_145443">
<rect width="24" height="24" fill="white"/>
</clipPath>
</defs>
</svg>
