<svg width="22" height="24" viewBox="0 0 22 24" fill="none" xmlns="http://www.w3.org/2000/svg">
<g clip-path="url(#clip0_7707_139931)">
<path d="M16.5431 15.2541L19.6644 17.0486C19.7218 17.0775 19.7505 17.1099 19.7505 17.1459C19.7505 17.1892 19.7218 17.2252 19.6644 17.2541L11.4736 21.9676C11.2942 22.0685 11.1363 22.1189 11 22.1189C10.8565 22.1189 10.695 22.0685 10.5157 21.9676L2.32485 17.2541C2.27462 17.2252 2.24951 17.1892 2.24951 17.1459C2.24951 17.1099 2.27462 17.0775 2.32485 17.0486L5.7045 15.1135L3.89628 14.0865L1.20548 15.6541C0.774949 15.9135 0.466407 16.1532 0.279843 16.373C0.09328 16.5928 0 16.8505 0 17.1459C0 17.4487 0.09328 17.7099 0.279843 17.9297C0.466407 18.1496 0.774949 18.3892 1.20548 18.6486L9.63307 23.5568C9.89139 23.7081 10.1282 23.8198 10.3434 23.8919C10.5587 23.964 10.7776 24 11 24C11.2153 24 11.4323 23.964 11.6512 23.8919C11.87 23.8198 12.1086 23.7081 12.3669 23.5568L20.7838 18.6486C21.2215 18.3892 21.5336 18.1496 21.7202 17.9297C21.9067 17.7099 22 17.4487 22 17.1459C22 16.8505 21.9067 16.5928 21.7202 16.373C21.5336 16.1532 21.2215 15.9135 20.7838 15.6541L18.2221 14.1514L16.5431 15.2541ZM16.3063 10.1405L19.6644 12.0649C19.7218 12.0937 19.7505 12.1297 19.7505 12.173C19.7505 12.2162 19.7218 12.2523 19.6644 12.2811L11.4736 16.9838C11.2942 17.0847 11.1363 17.1351 11 17.1351C10.8565 17.1351 10.695 17.0847 10.5157 16.9838L2.32485 12.2811C2.27462 12.2523 2.24951 12.2162 2.24951 12.173C2.24951 12.1297 2.27462 12.0937 2.32485 12.0649L5.95205 9.97838L4.22994 8.91892L1.20548 10.6703C0.774949 10.9297 0.466407 11.1712 0.279843 11.3946C0.09328 11.618 0 11.8775 0 12.173C0 12.4685 0.09328 12.7279 0.279843 12.9514C0.466407 13.1748 0.774949 13.4126 1.20548 13.6649L9.63307 18.5838C9.89139 18.7351 10.1282 18.8468 10.3434 18.9189C10.5587 18.991 10.7776 19.027 11 19.027C11.2153 19.027 11.4323 18.991 11.6512 18.9189C11.87 18.8468 12.1086 18.7351 12.3669 18.5838L20.7838 13.6649C21.2215 13.4126 21.5336 13.1748 21.7202 12.9514C21.9067 12.7279 22 12.4685 22 12.173C22 11.8775 21.9067 11.618 21.7202 11.3946C21.5336 11.1712 21.2215 10.9297 20.7838 10.6703L17.9746 9.02703L16.3063 10.1405ZM11 13.6973C11.2153 13.6973 11.4323 13.6613 11.6512 13.5892C11.87 13.5171 12.1086 13.4054 12.3669 13.2541L20.7838 8.34595C21.2215 8.08648 21.5336 7.84685 21.7202 7.62703C21.9067 7.40721 22 7.14595 22 6.84324C22 6.54775 21.9067 6.29009 21.7202 6.07027C21.5336 5.85045 21.2215 5.61081 20.7838 5.35135L12.3669 0.443243C12.1086 0.291891 11.87 0.18018 11.6512 0.108108C11.4323 0.0360358 11.2153 0 11 0C10.7776 0 10.5587 0.0360358 10.3434 0.108108C10.1282 0.18018 9.89139 0.291891 9.63307 0.443243L1.20548 5.35135C0.774949 5.61081 0.466407 5.85045 0.279843 6.07027C0.09328 6.29009 0 6.54775 0 6.84324C0 7.14595 0.09328 7.40721 0.279843 7.62703C0.466407 7.84685 0.774949 8.08648 1.20548 8.34595L9.63307 13.2541C9.89139 13.4054 10.1282 13.5171 10.3434 13.5892C10.5587 13.6613 10.7776 13.6973 11 13.6973ZM11 11.8162C10.8565 11.8162 10.695 11.7658 10.5157 11.6649L2.32485 6.95135C2.27462 6.92252 2.24951 6.88649 2.24951 6.84324C2.24951 6.80721 2.27462 6.77478 2.32485 6.74595L10.5157 2.03243C10.695 1.93153 10.8565 1.88108 11 1.88108C11.1363 1.88108 11.2942 1.93153 11.4736 2.03243L19.6644 6.74595C19.7218 6.77478 19.7505 6.80721 19.7505 6.84324C19.7505 6.88649 19.7218 6.92252 19.6644 6.95135L11.4736 11.6649C11.2942 11.7658 11.1363 11.8162 11 11.8162Z" fill="#BCBED5"/>
</g>
<defs>
<clipPath id="clip0_7707_139931">
<rect width="22" height="24" fill="white"/>
</clipPath>
</defs>
</svg>
