<svg width="25" height="25" viewBox="0 0 25 25" fill="none" xmlns="http://www.w3.org/2000/svg">
<g clip-path="url(#clip0_6443_86028)">
<path d="M8.91566 18.6625C8.57752 18.8363 8.19465 18.5325 8.26273 18.1445L8.98874 14.0062L5.90669 11.0691C5.61866 10.7947 5.76776 10.2928 6.15363 10.238L10.4398 9.62908L12.3509 5.84335C12.5231 5.50233 12.9894 5.50233 13.1616 5.84335L15.0727 9.62908L19.3588 10.238C19.7447 10.2928 19.8938 10.7947 19.6058 11.0691L16.5237 14.0062L17.2497 18.1445C17.3178 18.5325 16.935 18.8363 16.5968 18.6625L12.7562 16.6885L8.91566 18.6625Z" fill="#656DE6" fill-opacity="0.75"/>
<path fill-rule="evenodd" clip-rule="evenodd" d="M12.7562 6.81564L10.9658 10.3624L6.9268 10.9362L9.85072 13.7226L9.1643 17.6352L12.7562 15.789L16.3482 17.6352L15.6618 13.7226L18.5857 10.9362L14.5467 10.3624L12.7562 6.81564ZM11.6368 5.48283C12.1047 4.55583 13.4078 4.55583 13.8757 5.48283L15.5986 8.89577L19.4714 9.44592C20.5704 9.60204 20.8917 10.9488 20.1577 11.6483L17.3857 14.2899L18.0377 18.0063C18.2051 18.9602 17.2328 19.8888 16.2311 19.374L12.7562 17.588L9.28137 19.374C8.27969 19.8888 7.30741 18.9602 7.47477 18.0063L8.12676 14.2899L5.3548 11.6483C4.6208 10.9488 4.94211 9.60205 6.04111 9.44592L9.91384 8.89577L11.6368 5.48283Z" fill="#6D75F4"/>
</g>
<defs>
<clipPath id="clip0_6443_86028">
<rect width="16" height="15" fill="white" transform="translate(4.75623 4.65009)"/>
</clipPath>
</defs>
</svg>
