<svg width="24" height="24" viewBox="0 0 24 24" fill="none" xmlns="http://www.w3.org/2000/svg">
<path d="M12.0112 17.3664C12.981 17.3664 13.8725 17.1215 14.6857 16.6316C15.4988 16.1417 16.1516 15.4922 16.6439 14.6832C17.1363 13.8742 17.3825 12.9798 17.3825 12C17.3825 11.0202 17.1363 10.1258 16.6439 9.3168C16.1516 8.50776 15.4988 7.8583 14.6857 7.36842C13.8725 6.87854 12.981 6.6336 12.0112 6.6336C11.0264 6.6336 10.1275 6.87854 9.31434 7.36842C8.50118 7.8583 7.85216 8.50776 7.36724 9.3168C6.88233 10.1258 6.63988 11.0202 6.63988 12C6.63988 12.9798 6.88233 13.8742 7.36724 14.6832C7.85216 15.4922 8.50118 16.1417 9.31434 16.6316C10.1275 17.1215 11.0264 17.3664 12.0112 17.3664ZM12.0112 1C11.6829 1 11.3995 1.12247 11.1607 1.36741C10.922 1.61235 10.8026 1.89069 10.8026 2.20243V4.22874C10.8026 4.54049 10.922 4.81883 11.1607 5.06376C11.3995 5.3087 11.6829 5.43117 12.0112 5.43117C12.3245 5.43117 12.6043 5.3087 12.8505 5.06376C13.0966 4.81883 13.2197 4.54049 13.2197 4.22874V2.20243C13.2197 1.89069 13.0966 1.61235 12.8505 1.36741C12.6043 1.12247 12.3245 1 12.0112 1ZM19.822 4.22874C19.5683 3.99123 19.2737 3.87247 18.9379 3.87247C18.6022 3.87247 18.3299 3.99123 18.1211 4.22874L16.6663 5.67611C16.4276 5.92848 16.312 6.21795 16.3194 6.54453C16.3269 6.87112 16.4425 7.14575 16.6663 7.36842C16.8901 7.60594 17.1699 7.7247 17.5056 7.7247C17.8413 7.7247 18.1285 7.60594 18.3672 7.36842L19.822 5.92105C20.0458 5.69838 20.1577 5.42004 20.1577 5.08603C20.1577 4.75202 20.0458 4.46626 19.822 4.22874ZM23 12C23 11.6734 22.8844 11.3914 22.6531 11.1538C22.4218 10.9163 22.1421 10.7976 21.8138 10.7976H19.7996C19.4713 10.7976 19.1879 10.9163 18.9491 11.1538C18.7104 11.3914 18.591 11.6734 18.591 12C18.591 12.3266 18.7104 12.6086 18.9491 12.8462C19.1879 13.0837 19.4713 13.2024 19.7996 13.2024H21.8138C22.1421 13.2024 22.4218 13.0837 22.6531 12.8462C22.8844 12.6086 23 12.3266 23 12ZM19.822 19.7713C20.0607 19.5337 20.1763 19.248 20.1689 18.914C20.1614 18.58 20.0458 18.3016 19.822 18.0789L18.3449 16.6316C18.1211 16.4089 17.8413 16.2976 17.5056 16.2976C17.1699 16.2976 16.8901 16.4089 16.6663 16.6316C16.4276 16.8691 16.3082 17.1549 16.3082 17.4889C16.3082 17.8229 16.4276 18.1086 16.6663 18.3462L18.1211 19.7713C18.3449 20.0088 18.6209 20.1275 18.9491 20.1275C19.2774 20.1275 19.5683 20.0088 19.822 19.7713ZM12.0112 23C12.3245 23 12.6043 22.8775 12.8505 22.6326C13.0966 22.3876 13.2197 22.1093 13.2197 21.7976V19.7713C13.2197 19.4595 13.0966 19.1812 12.8505 18.9362C12.6043 18.6913 12.3245 18.5688 12.0112 18.5688C11.6829 18.5688 11.3995 18.6913 11.1607 18.9362C10.922 19.1812 10.8026 19.4595 10.8026 19.7713V21.7976C10.8026 22.1093 10.922 22.3876 11.1607 22.6326C11.3995 22.8775 11.6829 23 12.0112 23ZM4.17803 19.749C4.41675 19.9865 4.70397 20.109 5.03967 20.1164C5.37538 20.1238 5.6626 20.0088 5.90132 19.7713L7.33367 18.3462C7.5724 18.1086 7.69176 17.8266 7.69176 17.5C7.69176 17.1734 7.5724 16.8839 7.33367 16.6316C7.10987 16.4089 6.82638 16.2976 6.48321 16.2976C6.14005 16.2976 5.85656 16.4089 5.63276 16.6316L4.17803 18.0789C3.95422 18.3016 3.84232 18.58 3.84232 18.914C3.84232 19.248 3.95422 19.5263 4.17803 19.749ZM1 12C1 12.3266 1.11563 12.6086 1.3469 12.8462C1.57816 13.0837 1.85792 13.2024 2.18616 13.2024H4.20041C4.52866 13.2024 4.81214 13.0837 5.05086 12.8462C5.28959 12.6086 5.40895 12.3266 5.40895 12C5.40895 11.6734 5.28959 11.3914 5.05086 11.1538C4.81214 10.9163 4.52866 10.7976 4.20041 10.7976H2.18616C1.85792 10.7976 1.57816 10.9163 1.3469 11.1538C1.11563 11.3914 1 11.6734 1 12ZM4.20041 4.22874C3.9766 4.46626 3.86097 4.75202 3.85351 5.08603C3.84605 5.42004 3.95422 5.69838 4.17803 5.92105L5.63276 7.36842C5.87148 7.60594 6.15497 7.7247 6.48321 7.7247C6.81146 7.7247 7.09495 7.60594 7.33367 7.36842C7.5724 7.1309 7.69176 6.84885 7.69176 6.52227C7.69176 6.19568 7.5724 5.91363 7.33367 5.67611L5.90132 4.22874C5.67752 4.00607 5.39776 3.89103 5.06206 3.8836C4.72635 3.87618 4.43913 3.99123 4.20041 4.22874Z" fill="#6D75F4"/>
</svg>
