<svg width="24" height="24" viewBox="0 0 24 24" fill="none" xmlns="http://www.w3.org/2000/svg">
<g clip-path="url(#clip0_8677_262463)">
<path fill-rule="evenodd" clip-rule="evenodd" d="M8.98059 1.64758C9.20441 0.644216 10.0187 0 11.0453 0H12.9652C13.985 0 14.7957 0.647674 15.0191 1.646L15.4492 3.45097C15.5248 3.48085 15.5995 3.51133 15.6733 3.54245L17.2858 2.54755L17.3044 2.53732C18.1562 2.06964 19.0989 2.19376 19.8007 2.82873L19.815 2.84168L21.1879 4.20402L21.1904 4.20651C21.9462 4.94687 21.993 5.9814 21.4736 6.81504L20.5155 8.40051C20.5433 8.46662 20.5714 8.53546 20.5995 8.60675L22.3659 9.03372C23.3778 9.26085 24 10.0934 24 11.0873V12.9757C24 13.4562 23.858 13.9205 23.5583 14.2991C23.259 14.6773 22.839 14.9237 22.363 15.0299L20.5771 15.4491C20.5512 15.5159 20.5245 15.5824 20.4972 15.6483L21.4457 17.1844C21.9965 18.0301 21.8999 19.105 21.1844 19.8205L19.831 21.1739C19.1105 21.8944 18.0592 21.9697 17.2329 21.4498L15.6703 20.4868C15.5942 20.5186 15.5172 20.5499 15.4393 20.5805L15.0192 22.3535C14.796 23.3521 13.9852 24 12.9652 24H11.0453C10.019 24 9.20492 23.3562 8.9808 22.3534L8.56069 20.5805C8.48324 20.55 8.40665 20.519 8.33094 20.4873L6.77583 21.4508C5.94519 21.9657 4.89361 21.8986 4.16898 21.1739L4.16668 21.1716L2.8279 19.8224C2.09928 19.1063 2.0039 18.0296 2.55425 17.1845L3.50278 15.6483C3.47548 15.5824 3.44881 15.5159 3.42289 15.4491L1.63703 15.0299C1.16101 14.9237 0.740976 14.6773 0.441689 14.2991C0.142038 13.9205 0 13.4562 0 12.9757V11.0873C0 10.0934 0.622206 9.26086 1.63405 9.03372L3.40558 8.60553C3.4326 8.53638 3.45962 8.4691 3.48647 8.40375L2.52645 6.81504C2.00705 5.98144 2.05383 4.94696 2.80947 4.2066L4.1846 2.84204L4.19852 2.82942C4.53533 2.52394 4.94268 2.31814 5.39876 2.26517C5.85455 2.21222 6.29792 2.31898 6.69562 2.53732L6.7137 2.54725L8.31297 3.53076C8.39523 3.49626 8.4783 3.46307 8.5619 3.43116L8.98059 1.64758ZM7.50131 11.9895C7.50131 9.52172 9.52485 7.50131 12 7.50131C14.4841 7.50131 16.5092 9.52017 16.5092 11.9895C16.5092 14.4736 14.4903 16.5092 12 16.5092C9.51862 16.5092 7.50131 14.472 7.50131 11.9895Z" fill="#6D75F4"/>
</g>
<defs>
<clipPath id="clip0_8677_262463">
<rect width="24" height="24" fill="white"/>
</clipPath>
</defs>
</svg>
