<svg width="31" height="29" viewBox="0 0 31 29" fill="none" xmlns="http://www.w3.org/2000/svg">
<g clip-path="url(#clip0_7020_866)">
<path fill-rule="evenodd" clip-rule="evenodd" d="M15.4982 4.18045L12.1964 10.7212L4.7506 11.7789L10.1407 16.9155L8.87505 24.1299L15.4982 20.7257L22.1214 24.1299L20.8558 16.9155L26.2459 11.7789L18.8001 10.7212L15.4982 4.18045ZM13.3529 1.52672C14.2495 -0.249303 16.747 -0.249303 17.6436 1.52672L20.8455 7.86947L28.0435 8.89201C30.1505 9.19132 30.7637 11.7711 29.3588 13.1099L24.2079 18.0185L25.4193 24.9241C25.7395 26.7488 23.8786 28.5309 21.9572 27.5433L15.4982 24.2236L9.03932 27.5433C7.11786 28.5309 5.25703 26.7488 5.57716 24.9241L6.78864 18.0185L1.63767 13.1099C0.232803 11.7711 0.846004 9.19133 2.95301 8.89201L10.151 7.86947L13.3529 1.52672Z" fill="#6D75F4"/>
</g>
<defs>
<clipPath id="clip0_7020_866">
<rect width="29.8705" height="28.0036" fill="white" transform="translate(0.562927)"/>
</clipPath>
</defs>
</svg>
