<svg width="18" height="18" viewBox="0 0 18 18" fill="none" xmlns="http://www.w3.org/2000/svg">
<g clip-path="url(#clip0_7702_150205)">
<path d="M0.531704 17.4587C1.25148 18.1785 2.25273 18.1806 2.96952 17.4638L14.9424 5.29464L14.6494 16.2097C14.6504 16.6451 14.8145 17.0916 15.1635 17.4406C15.8288 18.1058 16.8191 18.097 17.5033 17.4128C17.8183 17.0979 17.9915 16.6847 17.9904 16.1623L17.9824 1.81838C17.9923 1.32866 17.7954 0.871162 17.4574 0.533084C17.1302 0.205913 16.6727 0.00906787 16.183 0.0189339L1.82818 5.06387e-06C1.30579 -0.00107983 0.892599 0.172191 0.577644 0.487145C-0.106568 1.17136 -0.104489 2.1726 0.56076 2.83785C0.898837 3.17593 1.34538 3.3401 1.78071 3.34101L12.685 3.05893L0.537547 15.0318C-0.179247 15.7486 -0.177167 16.7499 0.531704 17.4587Z" fill="#6D75F4"/>
</g>
<defs>
<clipPath id="clip0_7702_150205">
<rect width="18" height="18" fill="white"/>
</clipPath>
</defs>
</svg>
