<svg width="25" height="25" viewBox="0 0 25 25" fill="none" xmlns="http://www.w3.org/2000/svg">
<g clip-path="url(#clip0_6443_86024)">
<path fill-rule="evenodd" clip-rule="evenodd" d="M12.5018 6.81564L10.7114 10.3624L6.6724 10.9362L9.59633 13.7226L8.90991 17.6352L12.5018 15.789L16.0938 17.6352L15.4074 13.7226L18.3313 10.9362L14.2923 10.3624L12.5018 6.81564ZM11.3824 5.48283C11.8503 4.55583 13.1534 4.55583 13.6213 5.48283L15.3443 8.89577L19.217 9.44592C20.316 9.60204 20.6373 10.9488 19.9033 11.6483L17.1313 14.2899L17.7833 18.0063C17.9507 18.9602 16.9784 19.8888 15.9767 19.374L12.5018 17.588L9.02697 19.374C8.0253 19.8888 7.05302 18.9602 7.22037 18.0063L7.87237 14.2899L5.1004 11.6483C4.36641 10.9488 4.68772 9.60205 5.78672 9.44592L9.65944 8.89577L11.3824 5.48283Z" fill="#6D75F4"/>
</g>
<defs>
<clipPath id="clip0_6443_86024">
<rect width="16" height="15" fill="white" transform="translate(4.50183 4.65009)"/>
</clipPath>
</defs>
</svg>
