<svg width="21" height="21" viewBox="0 0 21 21" fill="none" xmlns="http://www.w3.org/2000/svg">
<path fill-rule="evenodd" clip-rule="evenodd" d="M11.8636 1.22727C11.8636 0.549469 12.4131 0 13.0909 0H19.2273C19.9051 0 20.4546 0.549469 20.4546 1.22727V7.36364C20.4546 8.04144 19.9051 8.59091 19.2273 8.59091C18.5495 8.59091 18 8.04144 18 7.36364V4.19017L10.7314 11.4587C10.2522 11.938 9.47509 11.938 8.99581 11.4587C8.51653 10.9794 8.51653 10.2024 8.99581 9.72309L16.2644 2.45455H13.0909C12.4131 2.45455 11.8636 1.90508 11.8636 1.22727ZM2.45455 2.72727H8.59091C9.26871 2.72727 9.81818 2.1778 9.81818 1.49999C9.81818 0.822189 9.26871 0.27272 8.59091 0.27272H2.04545C1.50297 0.27272 0.982696 0.488224 0.5991 0.87182C0.215503 1.25542 0 1.77569 0 2.31817V18.4091C0 18.9516 0.215504 19.4718 0.5991 19.8554C0.982699 20.239 1.50297 20.4545 2.04545 20.4545H18.1364C18.6789 20.4545 19.1991 20.239 19.5827 19.8554C19.9663 19.4718 20.1818 18.9516 20.1818 18.4091V11.8636C20.1818 11.1858 19.6323 10.6364 18.9545 10.6364C18.2767 10.6364 17.7273 11.1858 17.7273 11.8636V18H2.45455V2.72727Z" fill="#6D75F4"/>
</svg>
