<svg width="34" height="34" viewBox="0 0 34 34" fill="none" xmlns="http://www.w3.org/2000/svg">
<path fill-rule="evenodd" clip-rule="evenodd" d="M17 32.0571C25.3158 32.0571 32.0571 25.3158 32.0571 17C32.0571 8.68417 25.3158 1.94286 17 1.94286C8.68417 1.94286 1.94286 8.68417 1.94286 17C1.94286 25.3158 8.68417 32.0571 17 32.0571ZM17 34C26.3888 34 34 26.3888 34 17C34 7.61116 26.3888 0 17 0C7.61116 0 0 7.61116 0 17C0 26.3888 7.61116 34 17 34Z" fill="#6D75F4"/>
<g clip-path="url(#clip0_6892_99024)">
<path fill-rule="evenodd" clip-rule="evenodd" d="M12.7955 7.37119C13.2348 7.81053 13.2348 8.52284 12.7955 8.96218L9.71599 12.0417H21.1667C23.0121 12.0417 24.782 12.7748 26.087 14.0797C27.3919 15.3847 28.125 17.1546 28.125 19C28.125 20.8455 27.3919 22.6154 26.087 23.9203C24.782 25.2252 23.0121 25.9584 21.1667 25.9584H12C11.3787 25.9584 10.875 25.4547 10.875 24.8334C10.875 24.212 11.3787 23.7084 12 23.7084H21.1667C22.4154 23.7084 23.613 23.2123 24.496 22.3293C25.3789 21.4463 25.875 20.2487 25.875 19C25.875 17.7513 25.3789 16.5537 24.496 15.6707C23.613 14.7877 22.4154 14.2917 21.1667 14.2917H9.71599L12.7955 17.3712C13.2348 17.8105 13.2348 18.5228 12.7955 18.9622C12.3562 19.4015 11.6438 19.4015 11.2045 18.9622L6.2045 13.9622C5.99353 13.7512 5.875 13.4651 5.875 13.1667C5.875 12.8683 5.99353 12.5822 6.2045 12.3712L11.2045 7.37119C11.6438 6.93185 12.3562 6.93185 12.7955 7.37119Z" fill="#6D75F4"/>
</g>
<defs>
<clipPath id="clip0_6892_99024">
<rect width="24" height="24" fill="white" transform="translate(5 5.25)"/>
</clipPath>
</defs>
</svg>
