<svg width="24" height="24" viewBox="0 0 24 24" fill="none" xmlns="http://www.w3.org/2000/svg">
<g clip-path="url(#clip0_10540_514619)">
<path d="M8.60684 18H15.3932C16.4644 18 17 17.4781 17 16.4342V12.2768C17 11.4543 16.6581 10.9535 15.9744 10.7742V10.1123C15.9744 8.88915 15.6068 7.89799 14.8718 7.13879C14.1367 6.37959 13.1823 6 12.0085 6C10.8234 6 9.86325 6.37959 9.1282 7.13879C8.39316 7.89799 8.02564 8.88915 8.02564 10.1123V10.79C7.34188 10.9587 7 11.4543 7 12.2768V16.4342C7 17.4781 7.53561 18 8.60684 18ZM9.83761 10.711V9.98577C9.83761 9.2582 10.0313 8.68354 10.4188 8.26176C10.8063 7.83999 11.3362 7.6291 12.0085 7.6291C12.6581 7.6291 13.1823 7.83999 13.5812 8.26176C13.9801 8.68354 14.1795 9.2582 14.1795 9.98577V10.711H9.83761Z" fill="#559C3D"/>
<circle cx="12" cy="12" r="11.25" stroke="#559C3D" stroke-width="1.5"/>
</g>
<defs>
<clipPath id="clip0_10540_514619">
<rect width="24" height="24" fill="white"/>
</clipPath>
</defs>
</svg>
