<svg width="90" height="90" viewBox="0 0 90 90" fill="none" xmlns="http://www.w3.org/2000/svg">
<rect width="90" height="90" rx="10" fill="#E4E8F3" fill-opacity="0.5"/>
<path d="M56.9231 36.0909C56.9231 37.1036 56.5462 38.0747 55.8754 38.7908C55.2046 39.5068 54.2948 39.9091 53.3462 39.9091C52.3975 39.9091 51.4877 39.5068 50.8169 38.7908C50.1461 38.0747 49.7692 37.1036 49.7692 36.0909C49.7692 35.0783 50.1461 34.1071 50.8169 33.391C51.4877 32.675 52.3975 32.2727 53.3462 32.2727C54.2948 32.2727 55.2046 32.675 55.8754 33.391C56.5462 34.1071 56.9231 35.0783 56.9231 36.0909ZM76 22.0909V62.8182V67.9091C76 69.2593 75.4975 70.5542 74.6031 71.5089C73.7087 72.4636 72.4957 73 71.2308 73H18.7692C17.5044 73 16.2913 72.4636 15.3969 71.5089C14.5025 70.5542 14 69.2593 14 67.9091V57.7273V22.0909C14 20.7407 14.5025 19.4458 15.3969 18.4911C16.2913 17.5364 17.5044 17 18.7692 17H71.2308C72.4957 17 73.7087 17.5364 74.6031 18.4911C75.4975 19.4458 76 20.7407 76 22.0909ZM71.2308 56.6773V22.0909H18.7692V51.5864L29.7087 39.9091C30.6065 38.9647 31.8164 38.4353 33.0769 38.4353C34.3374 38.4353 35.5473 38.9647 36.4452 39.9091L49.7692 54.1318L55.9394 47.5455C56.8373 46.6011 58.0472 46.0717 59.3077 46.0717C60.5682 46.0717 61.7781 46.6011 62.676 47.5455L71.2308 56.6773Z" fill="#BDBED9"/>
</svg>
