<svg width="24" height="24" viewBox="0 0 24 24" fill="none" xmlns="http://www.w3.org/2000/svg">
<path fill-rule="evenodd" clip-rule="evenodd" d="M5 7.40285H22C22.1443 7.40285 22.2756 7.45915 22.3667 7.54803C22.4565 7.63569 22.5 7.74662 22.5 7.85428V19.5628C22.5 19.6705 22.4565 19.7814 22.3667 19.8691C22.2756 19.958 22.1443 20.0143 22 20.0143H10.7171C10.4012 20.5695 10.0054 21.075 9.5463 21.5143H22C22.5304 21.5143 23.0391 21.3087 23.4142 20.9427C23.7893 20.5767 24 20.0804 24 19.5628V7.85428C24 7.33673 23.7893 6.84038 23.4142 6.47441C23.0391 6.10845 22.5304 5.90285 22 5.90285H5C4.73478 5.90285 4.48043 5.80006 4.29289 5.61707C4.10536 5.43409 4 5.18592 4 4.92714C4 4.66837 4.10536 4.42019 4.29289 4.23721C4.48043 4.05423 4.73478 3.95143 5 3.95143H19C19.2652 3.95143 19.5196 3.84863 19.7071 3.66565C19.8946 3.48267 20 3.23449 20 2.97571C20 2.71694 19.8946 2.46876 19.7071 2.28578C19.5196 2.1028 19.2652 2 19 2H5C4.20536 2.00321 3.44421 2.31264 2.88232 2.86089C2.32042 3.40914 2.00329 4.1518 2 4.92714V11.2572C2.46789 10.9945 2.9711 10.7886 3.5 10.6494V6.9078C3.93304 7.22944 4.45982 7.40285 5 7.40285Z" fill="#6D75F4"/>
<path d="M18.5 15.6665C18.1031 15.6665 17.7151 15.5517 17.3851 15.3366C17.0551 15.1214 16.7979 14.8156 16.646 14.4578C16.4942 14.1001 16.4544 13.7064 16.5318 13.3266C16.6093 12.9468 16.8004 12.5979 17.081 12.3241C17.3617 12.0502 17.7192 11.8638 18.1085 11.7882C18.4978 11.7127 18.9013 11.7514 19.2679 11.8996C19.6346 12.0478 19.948 12.2988 20.1685 12.6208C20.389 12.9428 20.5067 13.3213 20.5067 13.7086C20.5067 14.2278 20.2953 14.7259 19.919 15.0931C19.5426 15.4602 19.0322 15.6665 18.5 15.6665Z" fill="#6D75F4"/>
<path d="M5.11362 22C7.89925 22 10.2372 19.6807 10.2372 16.8736C10.2372 14.0665 7.92909 11.7571 5.11362 11.7571C2.30809 11.7571 0 14.0765 0 16.8736C0 19.6906 2.30809 22 5.11362 22ZM5.11362 20.1286C4.70572 20.1286 4.43711 19.8499 4.43711 19.4517V17.5604H2.55681C2.14891 17.5604 1.8803 17.2917 1.8803 16.8836C1.87035 16.4655 2.14891 16.2067 2.55681 16.2067H4.43711V14.3154C4.43711 13.9172 4.70572 13.6385 5.11362 13.6385C5.53146 13.6385 5.80008 13.9072 5.80008 14.3154V16.2067H7.68038C8.08827 16.2067 8.35689 16.4655 8.35689 16.8836C8.35689 17.2917 8.08827 17.5604 7.68038 17.5604H5.80008V19.4517C5.80008 19.8499 5.53146 20.1286 5.11362 20.1286Z" fill="#6D75F4"/>
</svg>
