<svg width="24" height="24" viewBox="0 0 24 24" fill="none" xmlns="http://www.w3.org/2000/svg">
<path d="M5.62473 23H18.3753C19.5883 23 20.4956 22.7057 21.0974 22.1172C21.6991 21.5286 22 20.6458 22 19.4686V8.69228C22 7.51514 21.6991 6.6323 21.0974 6.04374C20.4956 5.45517 19.5883 5.16089 18.3753 5.16089H15.3191V7.19284H18.3468C18.8586 7.19284 19.2542 7.32596 19.5338 7.59222C19.8133 7.85848 19.9531 8.25786 19.9531 8.79037V19.3705C19.9531 19.903 19.8133 20.3024 19.5338 20.5687C19.2542 20.8349 18.8586 20.9681 18.3468 20.9681H5.65316C5.14143 20.9681 4.7458 20.8349 4.46624 20.5687C4.18668 20.3024 4.04691 19.903 4.04691 19.3705V8.79037C4.04691 8.25786 4.18668 7.85848 4.46624 7.59222C4.7458 7.32596 5.14143 7.19284 5.65316 7.19284H8.68088V5.16089H5.62473C4.42122 5.16089 3.51623 5.45517 2.90974 6.04374C2.30324 6.6323 2 7.51514 2 8.69228V19.4686C2 20.6458 2.30324 21.5286 2.90974 22.1172C3.51623 22.7057 4.42122 23 5.62473 23Z" fill="#6D75F4"/>
<path d="M11.9929 -1.33514e-05C12.2677 -1.33514e-05 12.507 0.0957451 12.7107 0.287262C12.9145 0.478781 13.0163 0.71 13.0163 0.980928V11.9114L12.9311 13.593L13.5281 12.9484L15.0917 11.2808C15.2623 11.0846 15.4897 10.9865 15.774 10.9865C16.0393 10.9865 16.262 11.0683 16.4421 11.2318C16.6221 11.3953 16.7121 11.6031 16.7121 11.8554C16.7121 12.0983 16.6079 12.3178 16.3994 12.514L12.732 15.9753C12.6089 16.1061 12.488 16.1949 12.3696 16.2416C12.2511 16.2883 12.1256 16.3116 11.9929 16.3116C11.8697 16.3116 11.7489 16.2883 11.6304 16.2416C11.512 16.1949 11.3864 16.1061 11.2537 15.9753L7.58635 12.514C7.38734 12.3178 7.28784 12.0983 7.28784 11.8554C7.28784 11.6031 7.37313 11.3953 7.54371 11.2318C7.71428 11.0683 7.93698 10.9865 8.21179 10.9865C8.49609 10.9865 8.72826 11.0846 8.90831 11.2808L10.4719 12.9484L11.0689 13.593L10.9836 11.9114V0.980928C10.9836 0.71 11.0855 0.478781 11.2893 0.287262C11.493 0.0957451 11.7275 -1.33514e-05 11.9929 -1.33514e-05Z" fill="#6D75F4"/>
</svg>
