<svg width="20" height="24" viewBox="0 0 20 24" fill="none" xmlns="http://www.w3.org/2000/svg">
<path fill-rule="evenodd" clip-rule="evenodd" d="M9.13899 0.373319C9.61451 -0.12444 10.3855 -0.12444 10.861 0.373319L15.4717 5.19974C15.9472 5.6975 15.9472 6.50452 15.4717 7.00228C14.9962 7.50004 14.2252 7.50004 13.7497 7.00228L9.99999 3.07714L6.25024 7.00228C5.77473 7.50004 5.00376 7.50004 4.52825 7.00228C4.05273 6.50452 4.05273 5.6975 4.52825 5.19974L9.13899 0.373319Z" fill="#6D75F4"/>
<path fill-rule="evenodd" clip-rule="evenodd" d="M9.99998 0C10.6725 0 11.2176 0.570654 11.2176 1.27459V16.1898C11.2176 16.8937 10.6725 17.4643 9.99998 17.4643C9.3275 17.4643 8.78235 16.8937 8.78235 16.1898V1.27459C8.78235 0.570654 9.3275 0 9.99998 0Z" fill="#6D75F4"/>
<path fill-rule="evenodd" clip-rule="evenodd" d="M2.43527 10.6699H4.73058C5.40306 10.6699 5.94821 10.0992 5.94821 9.3953C5.94821 8.69136 5.40306 8.12071 4.73058 8.12071H2.09587C1.54001 8.12071 1.00692 8.35185 0.613867 8.76329C0.220815 9.17473 0 9.73276 0 10.3146V21.8061C0 22.3879 0.220814 22.946 0.613867 23.3574C1.00692 23.7689 1.54001 24 2.09587 24H17.9041C18.46 24 18.9931 23.7689 19.3861 23.3574C19.7792 22.946 20 22.3879 20 21.8061V10.3146C20 9.73276 19.7792 9.17473 19.3861 8.76329C18.9931 8.35185 18.46 8.12071 17.9041 8.12071H15.2694C14.5969 8.12071 14.0518 8.69136 14.0518 9.3953C14.0518 10.0992 14.5969 10.6699 15.2694 10.6699H17.5647V21.4508H2.43527V10.6699Z" fill="#6D75F4"/>
</svg>
