<svg width="28" height="28" viewBox="0 0 28 28" fill="none" xmlns="http://www.w3.org/2000/svg">
<path fill-rule="evenodd" clip-rule="evenodd" d="M15.909 3.5C15.909 2.70923 16.5501 2.06818 17.3409 2.06818H24.4999C25.2907 2.06818 25.9318 2.70923 25.9318 3.5V10.6591C25.9318 11.4499 25.2907 12.0909 24.4999 12.0909C23.7092 12.0909 23.0681 11.4499 23.0681 10.6591V6.95671L14.5881 15.4367C14.029 15.9959 13.1224 15.9959 12.5632 15.4367C12.0041 14.8775 12.0041 13.971 12.5632 13.4118L21.0432 4.93182H17.3409C16.5501 4.93182 15.909 4.29077 15.909 3.5ZM4.93175 5.24999H12.0908C12.8816 5.24999 13.5227 4.60895 13.5227 3.81817C13.5227 3.0274 12.8816 2.38636 12.0908 2.38636H4.45448C3.82157 2.38636 3.21459 2.63778 2.76707 3.08531C2.31954 3.53284 2.06812 4.13982 2.06812 4.77272V23.5454C2.06812 24.1784 2.31954 24.7853 2.76707 25.2329C3.2146 25.6804 3.82158 25.9318 4.45448 25.9318H23.2272C23.8601 25.9318 24.4671 25.6804 24.9146 25.2329C25.3621 24.7853 25.6136 24.1784 25.6136 23.5454V15.9091C25.6136 15.1183 24.9725 14.4773 24.1817 14.4773C23.391 14.4773 22.7499 15.1183 22.7499 15.9091V23.0682H4.93175V5.24999Z" fill="#6D75F4"/>
</svg>
