<svg width="24" height="24" viewBox="0 0 24 24" fill="none" xmlns="http://www.w3.org/2000/svg">
<g clip-path="url(#clip0_9091_273651)">
<path d="M18.3103 11.1869C18.3103 11.2269 18.3137 11.266 18.3201 11.3041C18.2638 12.6634 17.2312 13.7616 15.9179 13.8847C15.5795 13.9164 15.3205 14.2088 15.3205 14.5591V16.9228C15.3205 17.069 15.2016 17.1911 15.0602 17.1911H8.9398C8.79795 17.1911 8.67955 17.0686 8.67955 16.9228V14.5591C8.67955 14.2088 8.42048 13.9164 8.08212 13.8847C6.73122 13.7581 5.67743 12.5998 5.67743 11.1869C5.67743 9.68336 6.86219 8.46036 8.32837 8.46036C8.47829 8.46036 8.63796 8.47921 8.80651 8.51179C9.06764 8.56227 9.33255 8.44562 9.47772 8.21623C10.0156 7.36643 10.9437 6.80893 11.9969 6.80893C13.0484 6.80893 13.9781 7.37123 14.5172 8.21782C14.6626 8.44621 14.9269 8.56214 15.1874 8.51179C15.3567 8.47906 15.5101 8.46036 15.6655 8.46036C17.1248 8.46036 18.3103 9.68254 18.3103 11.1869Z" fill="url(#paint0_linear_9091_273651)"/>
<path fill-rule="evenodd" clip-rule="evenodd" d="M4.36364 0C1.95367 0 0 1.95367 0 4.36364V19.6364C0 22.0463 1.95367 24 4.36364 24H19.6364C22.0463 24 24 22.0463 24 19.6364V4.36364C24 1.95367 22.0463 0 19.6364 0H4.36364ZM11.9969 5.45455C10.6354 5.45455 9.41968 6.10417 8.62805 7.11992C8.53021 7.11106 8.43007 7.10598 8.32837 7.10598C6.13819 7.10598 4.36364 8.93372 4.36364 11.1869C4.36364 13.1006 5.64574 14.6905 7.36576 15.1299V16.9228C7.36576 17.8107 8.06667 18.5455 8.9398 18.5455H15.0602C15.9215 18.5455 16.6342 17.8229 16.6342 16.9228V15.1299C18.3543 14.6905 19.6364 13.1006 19.6364 11.1869C19.6364 11.1379 19.6313 11.0902 19.6218 11.0442C19.5487 8.85782 17.804 7.10598 15.6655 7.10598C15.5618 7.10598 15.4616 7.11102 15.3645 7.1198C14.574 6.1101 13.3597 5.45455 11.9969 5.45455Z" fill="url(#paint1_linear_9091_273651)"/>
</g>
<defs>
<linearGradient id="paint0_linear_9091_273651" x1="12" y1="0" x2="12" y2="24" gradientUnits="userSpaceOnUse">
<stop offset="0.015625" stop-color="#767CE0" stop-opacity="0.45"/>
<stop offset="1" stop-color="#8280EC" stop-opacity="0.75"/>
</linearGradient>
<linearGradient id="paint1_linear_9091_273651" x1="12" y1="0" x2="12" y2="24" gradientUnits="userSpaceOnUse">
<stop offset="0.015625" stop-color="#767CE0" stop-opacity="0.45"/>
<stop offset="1" stop-color="#8280EC" stop-opacity="0.75"/>
</linearGradient>
<clipPath id="clip0_9091_273651">
<rect width="24" height="24" fill="white"/>
</clipPath>
</defs>
</svg>
