<svg width="22" height="22" viewBox="0 0 22 22" fill="none" xmlns="http://www.w3.org/2000/svg">
<g clip-path="url(#clip0_8440_192345)">
<path d="M11.0544 12.2132H5.6191C5.38297 12.2132 5.18545 12.1336 5.02653 11.9746C4.8676 11.8156 4.78814 11.6179 4.78814 11.3817C4.78814 11.1454 4.8676 10.9455 5.02653 10.7819C5.18545 10.6184 5.38297 10.5366 5.6191 10.5366H10.2234V4.36185C10.2234 4.12558 10.3029 3.92567 10.4618 3.7621C10.6207 3.59853 10.8183 3.51675 11.0544 3.51675C11.2905 3.51675 11.4903 3.59853 11.6538 3.7621C11.8172 3.92567 11.899 4.12558 11.899 4.36185V11.3817C11.899 11.6179 11.8172 11.8156 11.6538 11.9746C11.4903 12.1336 11.2905 12.2132 11.0544 12.2132Z" fill="#6D75F4"/>
<path fill-rule="evenodd" clip-rule="evenodd" d="M15.2433 21.1413C13.9174 21.7138 12.5007 22 10.9932 22C9.49473 22 8.08257 21.7138 6.75666 21.1413C5.43075 20.5688 4.26151 19.7737 3.24892 18.7559C2.23632 17.7381 1.4417 16.5659 0.865016 15.2392C0.288336 13.9124 0 12.4994 0 11C0 9.50061 0.288336 8.08757 0.865016 6.76084C1.4417 5.43411 2.23405 4.26188 3.24211 3.24411C4.25016 2.22635 5.41712 1.43123 6.74303 0.858736C8.06894 0.286243 9.48111 0 10.9796 0C12.4871 0 13.9038 0.286243 15.2297 0.858736C16.5556 1.43123 17.7271 2.22635 18.7443 3.24411C19.7614 4.26188 20.5583 5.43411 21.135 6.76084C21.7117 8.08757 22 9.50061 22 11C22 12.4994 21.7117 13.9124 21.135 15.2392C20.5583 16.5659 19.7637 17.7381 18.7511 18.7559C17.7385 19.7737 16.5693 20.5688 15.2433 21.1413ZM7.52631 19.2398C8.60248 19.6987 9.75809 19.9281 10.9932 19.9281C12.2374 19.9281 13.3975 19.6987 14.4737 19.2398C15.5499 18.7809 16.4966 18.1425 17.3139 17.3247C18.1313 16.5068 18.7692 15.5572 19.2279 14.4758C19.6865 13.3945 19.9158 12.2359 19.9158 11C19.9158 9.76414 19.6865 8.60554 19.2279 7.52416C18.7692 6.44279 18.1313 5.49319 17.3139 4.67534C16.4966 3.85749 15.5476 3.21913 14.4669 2.76022C13.3862 2.30132 12.2237 2.07187 10.9796 2.07187C9.74447 2.07187 8.58886 2.30132 7.51269 2.76022C6.43653 3.21913 5.49206 3.85749 4.67926 4.67534C3.86646 5.49319 3.23303 6.44279 2.77895 7.52416C2.32487 8.60554 2.09783 9.76414 2.09783 11C2.09783 12.2359 2.32714 13.3945 2.78576 14.4758C3.24438 15.5572 3.88008 16.5068 4.69288 17.3247C5.50568 18.1425 6.45015 18.7809 7.52631 19.2398Z" fill="#6D75F4"/>
</g>
<defs>
<clipPath id="clip0_8440_192345">
<rect width="22" height="22" fill="white"/>
</clipPath>
</defs>
</svg>
