<svg width="22" height="22" viewBox="0 0 22 22" fill="none" xmlns="http://www.w3.org/2000/svg">
<path fill-rule="evenodd" clip-rule="evenodd" d="M19.5304 0.075753C19.8613 -0.0197043 20.2118 -0.0250557 20.5455 0.0603189C20.8816 0.146286 21.1884 0.321075 21.4336 0.566361C21.6789 0.811648 21.8537 1.1184 21.9397 1.45447C22.025 1.7882 22.0197 2.13864 21.9243 2.46954L16.825 20.5743C16.7191 20.9576 16.498 21.2993 16.1917 21.5531C15.884 21.8081 15.5052 21.9619 15.1068 21.9938C14.7085 22.0257 14.31 21.934 13.9657 21.7312C13.6245 21.5303 13.3529 21.23 13.1872 20.8707L9.31451 12.6855L1.1294 8.81287C0.770016 8.64709 0.46972 8.3755 0.268799 8.03431C0.0660241 7.68998 -0.0256759 7.29151 0.00619054 6.89318C0.038057 6.49485 0.19194 6.11602 0.44688 5.80831C0.700663 5.50199 1.0423 5.28096 1.42563 5.175L19.5304 0.075753ZM19.8508 1.1969L20.1669 2.31916C20.1707 2.31818 20.1744 2.31715 20.1782 2.31606L19.8508 1.1969ZM19.4901 2.50991L3.04824 7.1408L10.4349 10.6357C10.8442 10.8268 11.1732 11.1558 11.3643 11.5651L14.8592 18.9518L19.4901 2.50991ZM2.1042 6.6943C2.10602 6.69513 2.10783 6.69596 2.10963 6.69682L2.1042 6.6943Z" fill="#6D75F4"/>
<path fill-rule="evenodd" clip-rule="evenodd" d="M15.4088 6.59123C15.8642 7.0466 15.8642 7.78489 15.4088 8.24026L11.0167 12.6323C10.5613 13.0877 9.82305 13.0877 9.36769 12.6323C8.91232 12.177 8.91232 11.4387 9.36769 10.9833L13.7598 6.59123C14.2151 6.13586 14.9534 6.13586 15.4088 6.59123Z" fill="#6D75F4"/>
</svg>
