<svg width="25" height="24" viewBox="0 0 25 24" fill="none" xmlns="http://www.w3.org/2000/svg">
<g clip-path="url(#clip0_7323_143089)">
<path fill-rule="evenodd" clip-rule="evenodd" d="M17.35 1.375C17.781 1.375 18.1943 1.5462 18.4991 1.85095L22.399 5.75095C23.0337 6.38555 23.0337 7.41445 22.399 8.04905C21.7644 8.68365 20.7356 8.68365 20.101 8.04905L18.975 6.9231V15.675C18.975 16.5725 18.2475 17.3 17.35 17.3C16.4525 17.3 15.725 16.5725 15.725 15.675V6.9231L14.599 8.04905C13.9644 8.68365 12.9356 8.68365 12.301 8.04905C11.6664 7.41445 11.6664 6.38555 12.301 5.75095L16.201 1.85095C16.5057 1.5462 16.919 1.375 17.35 1.375ZM7.65 7.2C8.54746 7.2 9.275 7.92754 9.275 8.825V17.5769L10.401 16.451C11.0356 15.8163 12.0644 15.8163 12.699 16.451C13.3337 17.0856 13.3337 18.1144 12.699 18.7491L8.79905 22.649C8.16445 23.2837 7.13555 23.2837 6.50095 22.649L2.60095 18.7491C1.96635 18.1144 1.96635 17.0856 2.60095 16.451C3.23555 15.8163 4.26445 15.8163 4.89905 16.451L6.025 17.5769V8.825C6.025 7.92754 6.75254 7.2 7.65 7.2Z" fill="#6D75F4"/>
</g>
<defs>
<clipPath id="clip0_7323_143089">
<rect width="24" height="24" fill="white" transform="translate(0.75)"/>
</clipPath>
</defs>
</svg>
