<svg width="25" height="25" viewBox="0 0 25 25" fill="none" xmlns="http://www.w3.org/2000/svg">
<path d="M10.0609 2.65549C10.2477 2.5781 10.4628 2.62088 10.6058 2.76388L20.6058 12.7639C20.801 12.9591 20.801 13.2757 20.6058 13.471L10.6058 23.471C10.4628 23.614 10.2477 23.6568 10.0609 23.5794C9.87402 23.502 9.7522 23.3197 9.7522 23.1174V18.6174H5.08553C4.73191 18.6174 4.39277 18.477 4.14272 18.2269C3.89267 17.9769 3.7522 17.6377 3.7522 17.2841V8.95076C3.7522 8.59714 3.89267 8.258 4.14272 8.00796C4.39277 7.75791 4.73191 7.61743 5.08553 7.61743H9.7522V3.11743C9.7522 2.9152 9.87402 2.73288 10.0609 2.65549Z" fill="#6D75F4" fill-opacity="0.35"/>
</svg>
