<svg width="16" height="22" viewBox="0 0 16 22" fill="none" xmlns="http://www.w3.org/2000/svg">
<g clip-path="url(#clip0_7702_151765)">
<path d="M15.9939 16.0802C15.8973 14.382 14.9701 12.8661 13.2316 11.5805C12.6811 11.1775 11.7926 10.6018 10.5756 10.1029L15.4433 5.24815V4.56694C15.4433 4.2983 15.2115 4.06803 14.9411 4.06803H5.8818V0L1.73846 0.863498V1.98604H2.26966C2.42419 1.98604 2.78154 2.04361 2.78154 2.49455V4.04884H0.434616C0.202821 4.04884 0 4.25033 0 4.48059V6.0157H2.7912V12.1945C2.7912 13.3266 3.17752 14.3053 3.88257 14.9481C4.59727 15.6005 5.61137 15.898 6.78966 15.802C7.29189 15.7636 7.79411 15.5813 8.28667 15.2647C8.5571 15.0824 8.72129 14.7946 8.72129 14.478V13.2115L8.19975 13.5569C7.56231 13.9791 7.0118 13.9695 7.0118 13.9695H6.99248C6.7124 13.9695 6.49026 13.8831 6.31642 13.7104C5.89146 13.2787 5.89146 12.4632 5.89146 12.4536V6.0157H11.5028L7.10838 10.4099V10.5443C7.09872 11.0432 7.08907 11.4557 7.08907 11.6188C7.08907 11.6668 7.08907 11.6956 7.08907 11.7052C7.08907 11.8971 7.22428 12.0506 7.41744 12.0698C11.8602 12.8181 12.7874 15.6581 12.7874 16.1858V16.2242C12.7874 16.2434 12.9709 17.9128 12.0051 19.0737C11.4449 19.7357 10.6046 20.1195 9.51326 20.1867C9.5036 20.1867 8.8565 20.2154 8.17078 20.1099C7.53334 20.014 7.06975 19.8509 6.8283 19.6302C7.25325 19.3328 7.49471 18.8818 7.49471 18.3541C7.49471 17.2795 6.77035 16.5887 5.65966 16.5887C4.65522 16.5887 3.83428 17.3755 3.82462 18.3349C3.81496 18.5076 3.76667 19.563 4.62624 20.5033C5.53411 21.5011 7.09872 22 9.2718 22C9.34907 22 9.43599 22 9.51326 22C11.7346 21.9616 13.4345 21.3188 14.5645 20.0907C16.1291 18.4021 16.0035 16.2146 15.9939 16.0802Z" fill="#6D75F4"/>
</g>
<defs>
<clipPath id="clip0_7702_151765">
<rect width="16" height="22" fill="white"/>
</clipPath>
</defs>
</svg>
