<svg width="24" height="24" viewBox="0 0 24 24" fill="none" xmlns="http://www.w3.org/2000/svg">
<path fill-rule="evenodd" clip-rule="evenodd" d="M2 14.4629V17.4686C2 18.6458 2.30324 19.5286 2.90974 20.1172C3.51623 20.7057 4.42122 21 5.62473 21H18.3753C19.5883 21 20.4956 20.7057 21.0974 20.1172C21.6991 19.5286 22 18.6458 22 17.4686V14.4629H19.9531V17.3705C19.9531 17.903 19.8133 18.3024 19.5338 18.5687C19.2542 18.8349 18.8586 18.9681 18.3468 18.9681H5.65316C5.14143 18.9681 4.7458 18.8349 4.46624 18.5687C4.18668 18.3024 4.04691 17.903 4.04691 17.3705V14.4629H2Z" fill="#6D75F4"/>
<path d="M11.9929 2.99999C12.2677 2.99999 12.507 3.09574 12.7107 3.28726C12.9145 3.47878 13.0163 3.71 13.0163 3.98093V11.9114L12.9311 13.593L13.5281 12.9484L15.0917 11.2808C15.2623 11.0846 15.4897 10.9865 15.774 10.9865C16.0393 10.9865 16.262 11.0683 16.4421 11.2318C16.6221 11.3953 16.7121 11.6031 16.7121 11.8554C16.7121 12.0983 16.6079 12.3178 16.3994 12.514L12.732 15.9753C12.6089 16.1061 12.488 16.1949 12.3696 16.2416C12.2511 16.2883 12.1256 16.3116 11.9929 16.3116C11.8697 16.3116 11.7489 16.2883 11.6304 16.2416C11.512 16.1949 11.3864 16.1061 11.2537 15.9753L7.58635 12.514C7.38734 12.3178 7.28784 12.0983 7.28784 11.8554C7.28784 11.6031 7.37313 11.3953 7.54371 11.2318C7.71428 11.0683 7.93698 10.9865 8.21179 10.9865C8.49609 10.9865 8.72826 11.0846 8.90831 11.2808L10.4719 12.9484L11.0689 13.593L10.9836 11.9114V3.98093C10.9836 3.71 11.0855 3.47878 11.2893 3.28726C11.493 3.09574 11.7275 2.99999 11.9929 2.99999Z" fill="#6D75F4"/>
</svg>
