<svg width="13" height="22" viewBox="0 0 13 22" fill="none" xmlns="http://www.w3.org/2000/svg">
<g clip-path="url(#clip0_8580_211247)">
<path d="M7.1834 21.6599C7.57642 22.0875 8.27261 22.1423 8.74423 21.6489C11.4616 18.8531 13 15.0923 13 11.0027C13 6.913 11.4841 3.13034 8.74423 0.356387C8.27261 -0.137004 7.57642 -0.0931472 7.1834 0.334458C6.79039 0.762064 6.85776 1.35413 7.30692 1.81463C9.65377 4.20484 10.9339 7.43929 10.9339 11.0027C10.9339 14.5551 9.63131 17.7786 7.30692 20.1907C6.85776 20.6512 6.79039 21.2433 7.1834 21.6599ZM3.82595 18.6009C4.23019 19.0724 4.93762 19.0943 5.45415 18.5461C7.32938 16.5835 8.36244 13.8972 8.36244 11.0027C8.36244 8.10811 7.31815 5.37801 5.45415 3.45927C4.93762 2.91106 4.23019 2.93298 3.82595 3.40445C3.43294 3.84302 3.55646 4.40219 3.99438 4.88462C5.48783 6.47443 6.29632 8.64536 6.29632 11.0027C6.29632 13.36 5.4766 15.509 3.99438 17.1098C3.55646 17.5922 3.43294 18.1514 3.82595 18.6009ZM0.569555 15.4103C0.973797 15.8818 1.72614 15.8927 2.19775 15.3445C3.17467 14.1933 3.73612 12.6473 3.73612 11.0027C3.73612 9.34707 3.17467 7.80111 2.19775 6.66083C1.72614 6.10165 0.973797 6.12358 0.569555 6.59504C0.187771 7.03361 0.333748 7.55989 0.704303 8.06425C1.32189 8.84271 1.66999 9.90624 1.66999 11.0027C1.66999 12.0881 1.32189 13.1626 0.704303 13.9301C0.333748 14.4345 0.187771 14.9717 0.569555 15.4103Z" fill="#6D75F4"/>
</g>
<defs>
<clipPath id="clip0_8580_211247">
<rect width="13" height="22" fill="white"/>
</clipPath>
</defs>
</svg>
