<svg width="45" height="16" viewBox="0 0 45 16" fill="none" xmlns="http://www.w3.org/2000/svg">
<path d="M44.7071 8.70712C45.0976 8.31659 45.0976 7.68343 44.7071 7.2929L38.3432 0.928939C37.9526 0.538414 37.3195 0.538414 36.9289 0.928938C36.5384 1.31946 36.5384 1.95263 36.9289 2.34315L42.5858 8.00001L36.9289 13.6569C36.5384 14.0474 36.5384 14.6805 36.9289 15.0711C37.3195 15.4616 37.9526 15.4616 38.3431 15.0711L44.7071 8.70712ZM-2.7717e-07 9L3.42222 9L3.42222 7L2.7717e-07 7L-2.7717e-07 9ZM5.37778 9L12.2222 9L12.2222 7L5.37778 7L5.37778 9ZM14.1778 9L21.0222 9L21.0222 7L14.1778 7L14.1778 9ZM22.9778 9L29.8222 9L29.8222 7L22.9778 7L22.9778 9ZM31.7778 9L38.6222 9.00001L38.6222 7.00001L31.7778 7L31.7778 9ZM40.5778 9.00001L44 9.00001L44 7.00001L40.5778 7.00001L40.5778 9.00001Z" fill="#4E5066"/>
</svg>
