<svg width="23" height="24" viewBox="0 0 23 24" fill="none" xmlns="http://www.w3.org/2000/svg">
<path fill-rule="evenodd" clip-rule="evenodd" d="M11.7314 0.521851C12.836 0.521851 13.7314 1.41728 13.7314 2.52185V21.658C13.7314 22.7626 12.836 23.658 11.7314 23.658C10.6269 23.658 9.73145 22.7626 9.73145 21.658V2.52185C9.73145 1.41728 10.6269 0.521851 11.7314 0.521851Z" fill="#6D75F4"/>
<path fill-rule="evenodd" clip-rule="evenodd" d="M10.3173 1.10764C11.0983 0.326588 12.3647 0.326588 13.1457 1.10764L22.2102 10.1721C22.9912 10.9532 22.9912 12.2195 22.2102 13.0006C21.4291 13.7816 20.1628 13.7816 19.3818 13.0006L11.7315 5.35028L4.08121 13.0006C3.30016 13.7816 2.03383 13.7816 1.25278 13.0006C0.47173 12.2195 0.47173 10.9532 1.25278 10.1721L10.3173 1.10764Z" fill="#6D75F4"/>
</svg>
