<svg width="36" height="36" viewBox="0 0 36 36" fill="none" xmlns="http://www.w3.org/2000/svg">
<path fill-rule="evenodd" clip-rule="evenodd" d="M25.5182 10.562C25.6225 10.7797 25.6809 11.0235 25.6809 11.281V22.9484C25.6809 23.8689 24.9347 24.6151 24.0142 24.6151C23.0938 24.6151 22.3476 23.8689 22.3476 22.9484V15.3047L12.8772 24.7751C12.2263 25.426 11.171 25.426 10.5201 24.7751C9.86926 24.1242 9.86926 23.0689 10.5201 22.4181L19.9905 12.9477H12.3469C11.4264 12.9477 10.6802 12.2015 10.6802 11.281C10.6802 10.3606 11.4264 9.61438 12.3469 9.61438H24.0142C24.2546 9.61438 24.4831 9.66526 24.6895 9.75685C24.8346 9.8211 24.9724 9.90708 25.098 10.0148C25.2735 10.1651 25.4173 10.3513 25.5182 10.562Z" fill="#6D75F4"/>
<path fill-rule="evenodd" clip-rule="evenodd" d="M18 33.9429C26.805 33.9429 33.9429 26.805 33.9429 18C33.9429 9.195 26.805 2.05714 18 2.05714C9.195 2.05714 2.05714 9.195 2.05714 18C2.05714 26.805 9.195 33.9429 18 33.9429ZM18 36C27.9411 36 36 27.9411 36 18C36 8.05888 27.9411 0 18 0C8.05888 0 0 8.05888 0 18C0 27.9411 8.05888 36 18 36Z" fill="#6D75F4"/>
</svg>
