<svg width="20" height="20" viewBox="0 0 20 20" fill="none" xmlns="http://www.w3.org/2000/svg">
<g clip-path="url(#clip0_27233_70453)">
<path fill-rule="evenodd" clip-rule="evenodd" d="M9.99967 17.0833C13.9117 17.0833 17.083 13.9119 17.083 9.99992C17.083 6.0879 13.9117 2.91658 9.99967 2.91658C6.08766 2.91658 2.91634 6.0879 2.91634 9.99992C2.91634 13.9119 6.08766 17.0833 9.99967 17.0833ZM9.99967 19.1666C15.0623 19.1666 19.1663 15.0625 19.1663 9.99992C19.1663 4.93731 15.0623 0.833252 9.99967 0.833252C4.93706 0.833252 0.833008 4.93731 0.833008 9.99992C0.833008 15.0625 4.93706 19.1666 9.99967 19.1666Z" fill="#F9C848"/>
<path fill-rule="evenodd" clip-rule="evenodd" d="M3.40332 15.5401L14.6533 3.45679L16.1781 4.87641L4.9281 16.9597L3.40332 15.5401Z" fill="#F9C848"/>
</g>
<defs>
<clipPath id="clip0_27233_70453">
<rect width="20" height="20" fill="white"/>
</clipPath>
</defs>
</svg>
