<svg width="22" height="22" viewBox="0 0 22 22" fill="none" xmlns="http://www.w3.org/2000/svg">
<g clip-path="url(#clip0_7698_139886)">
<path d="M11 0C10.0644 0 9.41237 0.649359 9.41237 1.58105L9.53995 17.271L2.6366 9.98686C2.35309 9.70453 1.95619 9.52101 1.50258 9.52101C0.637887 9.52101 0 10.1704 0 11.0597C0 11.4691 0.155928 11.8502 0.496134 12.189L9.82345 21.5059C10.1353 21.8306 10.5606 22 11 22C11.4253 22 11.8505 21.8306 12.1624 21.5059L21.5039 12.189C21.8441 11.8502 22 11.4691 22 11.0597C22 10.1704 21.3479 9.52101 20.4832 9.52101C20.0438 9.52101 19.6469 9.70453 19.3634 9.98686L12.4601 17.2569L12.5735 1.58105C12.5735 0.649359 11.9214 0 11 0Z" fill="#6D75F4"/>
</g>
<defs>
<clipPath id="clip0_7698_139886">
<rect width="22" height="22" fill="white"/>
</clipPath>
</defs>
</svg>
