<svg width="22" height="16" viewBox="0 0 22 16" fill="none" xmlns="http://www.w3.org/2000/svg">
<g clip-path="url(#clip0_7698_139890)">
<path d="M1.62873 3.10078H20.347C20.8332 3.10078 21.2302 2.95607 21.5381 2.66667C21.846 2.37726 22 2.00104 22 1.53799C22 1.07493 21.846 0.702844 21.5381 0.421706C21.2302 0.140568 20.8332 0 20.347 0H1.62873C1.15874 0 0.769799 0.140568 0.461878 0.421706C0.153957 0.702844 0 1.07493 0 1.53799C0 2.00104 0.153957 2.37726 0.461878 2.66667C0.769799 2.95607 1.15874 3.10078 1.62873 3.10078ZM1.62873 9.55039H20.347C20.8332 9.55039 21.2302 9.40569 21.5381 9.11628C21.846 8.82687 22 8.45065 22 7.9876C22 7.52455 21.846 7.14832 21.5381 6.85892C21.2302 6.56951 20.8332 6.42481 20.347 6.42481H1.62873C1.15874 6.42481 0.769799 6.56951 0.461878 6.85892C0.153957 7.14832 0 7.52455 0 7.9876C0 8.45065 0.153957 8.82687 0.461878 9.11628C0.769799 9.40569 1.15874 9.55039 1.62873 9.55039ZM1.62873 16H20.347C20.8332 16 21.2302 15.8553 21.5381 15.5659C21.846 15.2765 22 14.9003 22 14.4372C22 13.9742 21.846 13.5979 21.5381 13.3085C21.2302 13.0191 20.8332 12.8744 20.347 12.8744H1.62873C1.15874 12.8744 0.769799 13.0191 0.461878 13.3085C0.153957 13.5979 0 13.9742 0 14.4372C0 14.9003 0.153957 15.2765 0.461878 15.5659C0.769799 15.8553 1.15874 16 1.62873 16Z" fill="#BCBED5"/>
</g>
<defs>
<clipPath id="clip0_7698_139890">
<rect width="22" height="16" fill="white"/>
</clipPath>
</defs>
</svg>
