<svg width="22" height="22" viewBox="0 0 22 22" fill="none" xmlns="http://www.w3.org/2000/svg">
<g clip-path="url(#clip0_8580_211269)">
<path fill-rule="evenodd" clip-rule="evenodd" d="M3.23223 20.7761C3.32487 20.6479 3.44978 20.4847 3.59367 20.2967C4.03864 19.7154 4.66514 18.8969 5.08057 18.1431C5.16588 17.9579 5.11848 17.8036 4.94787 17.6905C1.83886 15.87 0 12.9079 0 9.59607C0 4.27864 4.891 0 10.9953 0C17.0995 0 22 4.27864 22 9.59607C22 15.1501 17.109 19.1921 10.2749 19.2024C10.1787 19.2024 10.0744 19.1937 9.96203 19.1842C9.95263 19.1834 9.94317 19.1827 9.93365 19.1819C9.78199 19.1819 9.63033 19.2333 9.45024 19.3773C7.72512 20.6938 4.96682 22 3.81043 22C3.05213 22 2.80569 21.3623 3.23223 20.7761ZM10.2746 17.9524C10.2246 17.9524 10.1628 17.9473 10.0211 17.9355L9.97742 17.9319H9.93365C9.50329 17.9319 9.12333 18.0922 8.78486 18.3596C7.99989 18.9573 6.95477 19.5707 5.96545 20.0335C5.60854 20.2005 5.26788 20.3436 4.95787 20.4576C5.33539 19.9463 5.75605 19.3434 6.06262 18.7871L6.0849 18.7466L6.10433 18.7045C6.2437 18.402 6.33913 17.9725 6.20031 17.5048C6.06649 17.0538 5.77645 16.7771 5.54304 16.6224L5.51681 16.605L5.48977 16.5891C2.66936 14.9376 1.14583 12.3528 1.14583 9.59607C1.14583 5.21411 5.27288 1.25 10.9953 1.25C16.719 1.25 20.8542 5.21532 20.8542 9.59607C20.8542 14.1531 16.7999 17.9421 10.2746 17.9524Z" fill="#6D75F4"/>
<path d="M8 9.42236C8 10.2868 7.32843 10.9876 6.5 10.9876C5.67157 10.9876 5 10.2868 5 9.42236C5 8.55792 5.67157 7.85715 6.5 7.85715C7.32843 7.85715 8 8.55792 8 9.42236Z" fill="#6D75F4"/>
<path d="M12.5 9.42236C12.5 10.2868 11.8284 10.9876 11 10.9876C10.1716 10.9876 9.5 10.2868 9.5 9.42236C9.5 8.55792 10.1716 7.85715 11 7.85715C11.8284 7.85715 12.5 8.55792 12.5 9.42236Z" fill="#6D75F4"/>
<path d="M17 9.42236C17 10.2868 16.3284 10.9876 15.5 10.9876C14.6716 10.9876 14 10.2868 14 9.42236C14 8.55792 14.6716 7.85715 15.5 7.85715C16.3284 7.85715 17 8.55792 17 9.42236Z" fill="#6D75F4"/>
</g>
<defs>
<clipPath id="clip0_8580_211269">
<rect width="22" height="22" fill="white"/>
</clipPath>
</defs>
</svg>
