<svg width="33" height="33" viewBox="0 0 33 33" fill="none" xmlns="http://www.w3.org/2000/svg">
<path fill-rule="evenodd" clip-rule="evenodd" d="M4.13719 9.76623C6.52314 7.38028 10.342 5.00781 15.9997 5.00781C21.6574 5.00781 25.4763 7.38028 27.8623 9.76623C29.047 10.9509 29.8757 12.1346 30.4105 13.026C30.6785 13.4726 30.8744 13.8487 31.0057 14.119C31.0714 14.2543 31.1211 14.3633 31.1556 14.4418C31.1729 14.4811 31.1864 14.5128 31.1962 14.5362L31.2083 14.5653L31.2123 14.5751L31.2138 14.5788L31.2144 14.5804C31.2147 14.5811 31.215 14.5817 29.977 15.0769C31.215 15.5721 31.2147 15.5728 31.2144 15.5735L31.2138 15.575L31.2123 15.5787L31.2083 15.5886L31.1962 15.6176C31.1864 15.6411 31.1729 15.6728 31.1556 15.712C31.1211 15.7905 31.0714 15.8996 31.0057 16.0348C30.8744 16.3051 30.6785 16.6813 30.4105 17.1279C29.8757 18.0193 29.047 19.2029 27.8623 20.3876C25.4763 22.7736 21.6574 25.1461 15.9997 25.1461C10.342 25.1461 6.52314 22.7736 4.13719 20.3876C2.95249 19.2029 2.12375 18.0193 1.58893 17.1279C1.32096 16.6813 1.12504 16.3051 0.993746 16.0348C0.928053 15.8996 0.878391 15.7905 0.843852 15.712C0.826578 15.6728 0.813072 15.6411 0.803221 15.6176L0.791167 15.5886L0.787166 15.5787L0.785667 15.575L0.785042 15.5735C0.784765 15.5728 0.784501 15.5721 2.02247 15.0769C0.784501 14.5817 0.784765 14.5811 0.785042 14.5804L0.785667 14.5788L0.787166 14.5751L0.791167 14.5653L0.803221 14.5362C0.813072 14.5128 0.826578 14.4811 0.843852 14.4418C0.878391 14.3633 0.928053 14.2543 0.993746 14.119C1.12504 13.8487 1.32096 13.4726 1.58893 13.026C2.12375 12.1346 2.95249 10.9509 4.13719 9.76623ZM2.02247 15.0769L0.784501 14.5817L0.586426 15.0769L0.784501 15.5721L2.02247 15.0769ZM3.49625 15.0769C3.59196 14.8913 3.71768 14.6611 3.87558 14.398C4.32353 13.6514 5.02356 12.6511 6.02281 11.6519C8.00475 9.6699 11.1745 7.67448 15.9997 7.67448C20.825 7.67448 23.9947 9.6699 25.9767 11.6519C26.9759 12.6511 27.6759 13.6514 28.1239 14.398C28.2818 14.6611 28.4075 14.8913 28.5032 15.0769C28.4075 15.2625 28.2818 15.4927 28.1239 15.7559C27.6759 16.5025 26.9759 17.5028 25.9767 18.502C23.9947 20.484 20.825 22.4794 15.9997 22.4794C11.1745 22.4794 8.00475 20.484 6.02281 18.502C5.02356 17.5028 4.32353 16.5025 3.87558 15.7559C3.71768 15.4927 3.59196 15.2625 3.49625 15.0769ZM29.977 15.0769L31.215 15.5721L31.413 15.0769L31.215 14.5817L29.977 15.0769Z" fill="#6D75F4"/>
<path d="M15.9997 15.0769V9.83542C13.0995 9.83542 10.7583 12.1766 10.7583 15.0769C10.7583 17.9772 13.0995 20.3184 15.9997 20.3184C18.9 20.3184 21.2412 17.9772 21.2412 15.0769C21.2412 13.6268 20.6472 12.3164 19.7037 11.3729L15.9997 15.0769Z" fill="#6D75F4"/>
</svg>
