<svg width="22" height="22" viewBox="0 0 22 22" fill="none" xmlns="http://www.w3.org/2000/svg">
<g clip-path="url(#clip0_7722_158460)">
<path fill-rule="evenodd" clip-rule="evenodd" d="M4 0C1.79086 0 0 1.79086 0 4V18C0 20.2091 1.79086 22 4 22H18C20.2091 22 22 20.2091 22 18V4C22 1.79086 20.2091 0 18 0H4ZM10.9972 5C9.74909 5 8.63471 5.59549 7.90905 6.52659C7.81936 6.51847 7.72757 6.51381 7.63434 6.51381C5.62667 6.51381 4 8.18925 4 10.2546C4 12.0088 5.17526 13.4663 6.75194 13.8691V15.5126C6.75194 16.3265 7.39445 17 8.19481 17H13.8052C14.5947 17 15.2481 16.3376 15.2481 15.5126V13.8691C16.8247 13.4663 18 12.0088 18 10.2546C18 10.2098 17.9954 10.166 17.9866 10.1239C17.9197 8.11967 16.3204 6.51381 14.3601 6.51381C14.265 6.51381 14.1731 6.51843 14.0841 6.52648C13.3595 5.60092 12.2464 5 10.9972 5ZM16.7845 10.2546C16.7845 10.2913 16.7876 10.3272 16.7935 10.3621C16.7418 11.6081 15.7953 12.6148 14.5914 12.7276C14.2812 12.7567 14.0437 13.0248 14.0437 13.3458V15.5126C14.0437 15.6466 13.9348 15.7585 13.8052 15.7585H8.19481C8.06479 15.7585 7.95625 15.6462 7.95625 15.5126V13.3458C7.95625 13.0248 7.71877 12.7567 7.40861 12.7276C6.17029 12.6116 5.20431 11.5498 5.20431 10.2546C5.20431 8.87641 6.29034 7.75533 7.63434 7.75533C7.77177 7.75533 7.91813 7.77261 8.07263 7.80248C8.312 7.84874 8.55484 7.74182 8.68791 7.53155C9.18093 6.75256 10.0317 6.24151 10.9972 6.24151C11.9611 6.24151 12.8132 6.75696 13.3074 7.533C13.4407 7.74236 13.683 7.84863 13.9218 7.80248C14.077 7.77247 14.2176 7.75533 14.3601 7.75533C15.6977 7.75533 16.7845 8.87566 16.7845 10.2546Z" fill="url(#paint0_linear_7722_158460)"/>
</g>
<defs>
<linearGradient id="paint0_linear_7722_158460" x1="11" y1="0" x2="11" y2="22" gradientUnits="userSpaceOnUse">
<stop offset="0.015625" stop-color="#767CE0" stop-opacity="0.45"/>
<stop offset="1" stop-color="#8280EC" stop-opacity="0.75"/>
</linearGradient>
<clipPath id="clip0_7722_158460">
<rect width="22" height="22" fill="white"/>
</clipPath>
</defs>
</svg>
