<svg width="36" height="36" viewBox="0 0 36 36" fill="none" xmlns="http://www.w3.org/2000/svg">
<path d="M8.3105 24.3529H16.5503C17.5082 24.3529 18.0643 23.7636 18.0643 22.895C18.0643 22.0057 17.5082 21.437 16.5503 21.437H11.4107V21.3647L14.3667 18.6556C16.7254 16.5152 17.6936 15.4191 17.6936 13.5062C17.6936 10.8695 15.4688 9.05997 12.0802 9.05997C9.37137 9.05997 7.39382 10.3732 6.74494 12.0896C6.63164 12.3585 6.59044 12.6273 6.59044 12.9168C6.59044 13.8474 7.17752 14.4161 8.156 14.4161C8.91818 14.4161 9.36107 14.1163 9.83486 13.3821C10.3807 12.3895 11.0502 11.9138 12.0287 11.9138C13.2132 11.9138 14.0371 12.679 14.0371 13.7544C14.0371 14.7263 13.5634 15.4088 11.8227 17.0012L7.57921 20.8683C6.83763 21.5094 6.53894 22.0161 6.53894 22.7296C6.53894 23.6705 7.09513 24.3529 8.3105 24.3529Z" fill="#6D75F4"/>
<path fill-rule="evenodd" clip-rule="evenodd" d="M20.2379 21.3036C19.7746 20.8384 19.7746 20.0842 20.2379 19.619L26.8194 13.0118C27.2827 12.5466 28.034 12.5466 28.4974 13.0118C28.9608 13.477 28.9608 14.2312 28.4974 14.6964L21.9159 21.3036C21.4526 21.7688 20.7013 21.7688 20.2379 21.3036Z" fill="#6D75F4"/>
<path fill-rule="evenodd" clip-rule="evenodd" d="M29.161 21.3036C29.6244 20.8384 29.6244 20.0842 29.161 19.619L22.5795 13.0118C22.1162 12.5466 21.3649 12.5466 20.9015 13.0118C20.4382 13.477 20.4382 14.2312 20.9015 14.6964L27.483 21.3036C27.9464 21.7688 28.6976 21.7688 29.161 21.3036Z" fill="#6D75F4"/>
<path d="M35.25 18C35.25 27.5269 27.5269 35.25 18 35.25C8.47309 35.25 0.75 27.5269 0.75 18C0.75 8.47309 8.47309 0.75 18 0.75C27.5269 0.75 35.25 8.47309 35.25 18Z" stroke="#6D75F4" stroke-width="1.5"/>
</svg>
