<svg width="24" height="24" viewBox="0 0 24 24" fill="none" xmlns="http://www.w3.org/2000/svg">
<path d="M2.60461 7.44376C3.53359 8.36149 4.56954 9.14548 5.71248 9.79578C6.85541 10.4461 8.06871 10.9401 9.3524 11.2779C10.6361 11.6157 11.9592 11.7818 13.3217 11.7762C14.8813 11.7649 16.3887 11.52 17.8441 11.0415C19.2996 10.5629 20.6381 9.87883 21.8599 8.98925L21.3447 7.9167C20.2018 8.77812 18.9477 9.44107 17.5823 9.90557C16.217 10.3701 14.7968 10.6079 13.3217 10.6192C12.0098 10.6305 10.7388 10.4658 9.50864 10.1251C8.27843 9.78451 7.12285 9.28765 6.04184 8.63455C4.96084 7.98144 3.98682 7.19322 3.11977 6.26987L2.60461 7.44376ZM1.53205 13.5244C2.95087 14.7292 4.49212 15.685 6.15585 16.3916C7.81959 17.0981 9.541 17.5542 11.3202 17.7597C13.0993 17.9652 14.8742 17.9145 16.6449 17.6077C18.4156 17.3008 20.1173 16.7308 21.7501 15.8975V14.5716C20.472 15.2866 19.1405 15.8229 17.7555 16.1804C16.3704 16.5379 14.9699 16.7209 13.5539 16.7294C12.1379 16.7378 10.7374 16.5745 9.3524 16.2395C7.96736 15.9045 6.63583 15.4006 5.35777 14.7278C4.07971 14.055 2.88894 13.2147 1.78541 12.2069L1.53205 13.5244ZM6.84415 20.9985L8.22073 21.3532C7.90544 20.5931 7.66193 19.8147 7.49021 19.018C7.31849 18.2214 7.21855 17.4092 7.1904 16.5816C7.05528 15.1684 7.09328 13.7777 7.30441 12.4096C7.51555 11.0415 7.88573 9.72541 8.41497 8.46142C8.94421 7.19743 9.6142 6.01088 10.425 4.90173C11.2357 3.79257 12.1731 2.79041 13.2372 1.8952L12.0042 1.4476C10.9457 2.39911 10.0168 3.45195 9.21727 4.60614C8.41778 5.76034 7.76046 6.98912 7.2453 8.29251C6.73013 9.59591 6.36839 10.9486 6.16008 12.3505C5.95176 13.7524 5.91235 15.1768 6.04184 16.6238C6.06436 17.367 6.14319 18.1045 6.27831 18.8365C6.41344 19.5684 6.60205 20.2891 6.84415 20.9985ZM14.0395 22.1217L15.129 21.6656C14.1324 20.2299 13.3667 18.676 12.8319 17.0038C12.297 15.3317 12.0296 13.6032 12.0296 11.8184C12.0296 10.1012 12.2731 8.44031 12.7601 6.8357C13.2471 5.23109 13.9523 3.7391 14.8756 2.35969L13.7608 1.94587C12.8262 3.40973 12.1112 4.97773 11.6157 6.6499C11.1203 8.32208 10.8726 10.0449 10.8726 11.8184C10.8726 13.6877 11.1442 15.4963 11.6875 17.2445C12.2308 18.9927 13.0148 20.6184 14.0395 22.1217ZM20.5002 18.0426L21.2434 17.1474C20.0385 16.4605 18.9913 15.5977 18.1017 14.5589C17.2122 13.5201 16.5182 12.3575 16.02 11.071C15.5217 9.78451 15.2557 8.42905 15.2219 7.00461C15.1994 6.222 15.2557 5.44786 15.3908 4.68215C15.5259 3.91644 15.7314 3.17607 16.0073 2.46104L14.901 2.14012C14.6082 2.91146 14.3914 3.70531 14.2507 4.52169C14.1099 5.33807 14.048 6.17133 14.0649 7.0215C14.093 8.55292 14.3745 10.0139 14.9094 11.4046C15.4443 12.7953 16.1875 14.0592 17.139 15.1965C18.0905 16.3338 19.2109 17.2825 20.5002 18.0426ZM7.21574 11.6664C7.51414 11.6664 7.78579 11.5932 8.03071 11.4468C8.27562 11.3004 8.47127 11.1034 8.61766 10.8557C8.76404 10.6079 8.83724 10.3321 8.83724 10.028C8.83724 9.73525 8.76404 9.465 8.61766 9.21727C8.47127 8.96954 8.27562 8.77249 8.03071 8.6261C7.78579 8.47972 7.51414 8.40653 7.21574 8.40653C6.91734 8.40653 6.64427 8.47972 6.39654 8.6261C6.14881 8.77249 5.95035 8.96954 5.80115 9.21727C5.65195 9.465 5.57735 9.73525 5.57735 10.028C5.57735 10.3321 5.65195 10.6079 5.80115 10.8557C5.95035 11.1034 6.14881 11.3004 6.39654 11.4468C6.64427 11.5932 6.91734 11.6664 7.21574 11.6664ZM15.5597 12.6123C15.8468 12.6123 16.1086 12.5405 16.3451 12.3969C16.5816 12.2534 16.7716 12.0619 16.9152 11.8226C17.0587 11.5834 17.1305 11.3173 17.1305 11.0246C17.1305 10.7318 17.0587 10.4672 16.9152 10.2307C16.7716 9.99424 16.5816 9.80422 16.3451 9.66065C16.1086 9.51708 15.8468 9.4453 15.5597 9.4453C15.2669 9.4453 14.9995 9.51708 14.7574 9.66065C14.5153 9.80422 14.3225 9.99424 14.1789 10.2307C14.0353 10.4672 13.9635 10.7318 13.9635 11.0246C13.9635 11.3173 14.0353 11.5834 14.1789 11.8226C14.3225 12.0619 14.5153 12.2534 14.7574 12.3969C14.9995 12.5405 15.2669 12.6123 15.5597 12.6123ZM12.3758 18.8956C12.6742 18.8956 12.9459 18.8224 13.1908 18.676C13.4357 18.5296 13.6313 18.334 13.7777 18.0891C13.9241 17.8441 13.9973 17.5725 13.9973 17.2741C13.9973 16.9701 13.9241 16.697 13.7777 16.4549C13.6313 16.2128 13.4357 16.0186 13.1908 15.8722C12.9459 15.7258 12.6742 15.6526 12.3758 15.6526C12.0774 15.6526 11.8044 15.7258 11.5566 15.8722C11.3089 16.0186 11.1132 16.2128 10.9697 16.4549C10.8261 16.697 10.7543 16.9701 10.7543 17.2741C10.7543 17.5725 10.8261 17.8441 10.9697 18.0891C11.1132 18.334 11.3089 18.5296 11.5566 18.676C11.8044 18.8224 12.0774 18.8956 12.3758 18.8956ZM11.9958 23C13.2006 23 14.3506 22.8128 15.4457 22.4384C16.5408 22.064 17.5471 21.539 18.4649 20.8633C19.3826 20.1877 20.1807 19.391 20.8591 18.4733C21.5376 17.5556 22.064 16.5478 22.4384 15.4499C22.8128 14.352 23 13.2035 23 12.0042C23 10.7994 22.8128 9.6494 22.4384 8.55432C22.064 7.45924 21.5376 6.45285 20.8591 5.53512C20.1807 4.6174 19.3826 3.81932 18.4649 3.14088C17.5471 2.46244 16.5394 1.93602 15.4415 1.56161C14.3436 1.1872 13.1922 1 11.9873 1C10.7825 1 9.63251 1.1872 8.53743 1.56161C7.44235 1.93602 6.43737 2.46244 5.52246 3.14088C4.60755 3.81932 3.81088 4.6174 3.13244 5.53512C2.454 6.45285 1.92898 7.45924 1.55739 8.55432C1.18579 9.6494 1 10.7994 1 12.0042C1 13.2035 1.1872 14.352 1.56161 15.4499C1.93602 16.5478 2.46103 17.5556 3.13666 18.4733C3.81229 19.391 4.60895 20.1877 5.52668 20.8633C6.44441 21.539 7.45079 22.064 8.54587 22.4384C9.64095 22.8128 10.7909 23 11.9958 23ZM11.9958 21.7163C10.9317 21.7163 9.91683 21.5516 8.95125 21.2223C7.98566 20.8929 7.09751 20.4284 6.28676 19.8288C5.476 19.2292 4.77083 18.524 4.17121 17.7132C3.57159 16.9025 3.1071 16.0143 2.77773 15.0488C2.44837 14.0832 2.28369 13.0683 2.28369 12.0042C2.28369 10.9401 2.44837 9.92387 2.77773 8.95547C3.1071 7.98707 3.57018 7.09751 4.16699 6.28676C4.76379 5.476 5.46756 4.77083 6.27831 4.17121C7.08906 3.57159 7.97722 3.1071 8.9428 2.77773C9.90839 2.44837 10.9232 2.28369 11.9873 2.28369C13.0514 2.28369 14.0677 2.44837 15.0361 2.77773C16.0045 3.1071 16.8955 3.57159 17.709 4.17121C18.5226 4.77083 19.2278 5.476 19.8246 6.28676C20.4214 7.09751 20.8859 7.98707 21.218 8.95547C21.5502 9.92387 21.7163 10.9401 21.7163 12.0042C21.7163 13.0683 21.5516 14.0832 21.2223 15.0488C20.8929 16.0143 20.4284 16.9025 19.8288 17.7132C19.2292 18.524 18.524 19.2292 17.7132 19.8288C16.9025 20.4284 16.0129 20.8929 15.0445 21.2223C14.0761 21.5516 13.0599 21.7163 11.9958 21.7163Z" fill="#6D75F4"/>
</svg>
