<svg width="36" height="36" viewBox="0 0 36 36" fill="none" xmlns="http://www.w3.org/2000/svg">
<g clip-path="url(#clip0_6612_151850)">
<path fill-rule="evenodd" clip-rule="evenodd" d="M17.9999 6.70221C18.5848 6.70221 19.059 7.17642 19.059 7.76138V9.1736C19.059 9.75857 18.5848 10.2328 17.9999 10.2328C17.4149 10.2328 16.9407 9.75857 16.9407 9.1736V7.76138C16.9407 7.17642 17.4149 6.70221 17.9999 6.70221ZM10.0133 10.0134C10.4269 9.59978 11.0975 9.59978 11.5112 10.0134L12.5086 11.0108C12.9222 11.4244 12.9222 12.0951 12.5086 12.5087C12.0949 12.9223 11.4243 12.9223 11.0107 12.5087L10.0133 11.5113C9.59964 11.0977 9.59964 10.427 10.0133 10.0134ZM25.9868 10.0134C26.4004 10.427 26.4004 11.0977 25.9868 11.5113L24.9894 12.5087C24.5757 12.9223 23.9051 12.9223 23.4915 12.5087C23.0779 12.0951 23.0779 11.4244 23.4915 11.0108L24.4889 10.0134C24.9025 9.59978 25.5731 9.59978 25.9868 10.0134ZM17.9999 13.7633C15.66 13.7633 13.7632 15.6602 13.7632 18C13.7632 20.3399 15.66 22.2367 17.9999 22.2367C20.3397 22.2367 22.2366 20.3399 22.2366 18C22.2366 15.6602 20.3397 13.7633 17.9999 13.7633ZM11.6449 18C11.6449 14.4902 14.4901 11.645 17.9999 11.645C21.5097 11.645 24.3549 14.4902 24.3549 18C24.3549 21.5098 21.5097 24.355 17.9999 24.355C14.4901 24.355 11.6449 21.5098 11.6449 18ZM6.70207 18C6.70207 17.4151 7.17628 16.9408 7.76124 16.9408H9.17347C9.75843 16.9408 10.2326 17.4151 10.2326 18C10.2326 18.585 9.75843 19.0592 9.17347 19.0592H7.76124C7.17628 19.0592 6.70207 18.585 6.70207 18ZM25.7671 18C25.7671 17.4151 26.2413 16.9408 26.8263 16.9408H28.2385C28.8235 16.9408 29.2977 17.4151 29.2977 18C29.2977 18.585 28.8235 19.0592 28.2385 19.0592H26.8263C26.2413 19.0592 25.7671 18.585 25.7671 18ZM23.4915 23.4913C23.9051 23.0776 24.5757 23.0776 24.9894 23.4913L25.9868 24.4887C26.4004 24.9023 26.4004 25.5729 25.9868 25.9866C25.5731 26.4002 24.9025 26.4002 24.4889 25.9866L23.4915 24.9892C23.0779 24.5755 23.0779 23.9049 23.4915 23.4913ZM12.5086 23.4914C12.9222 23.905 12.9222 24.5756 12.5086 24.9893L11.5112 25.9866C11.0975 26.4003 10.4269 26.4003 10.0133 25.9866C9.59964 25.573 9.59964 24.9024 10.0133 24.4887L11.0107 23.4914C11.4243 23.0777 12.0949 23.0777 12.5086 23.4914ZM17.9999 25.7673C18.5848 25.7673 19.059 26.2415 19.059 26.8264V28.2387C19.059 28.8236 18.5848 29.2978 17.9999 29.2978C17.4149 29.2978 16.9407 28.8236 16.9407 28.2387V26.8264C16.9407 26.2415 17.4149 25.7673 17.9999 25.7673Z" fill="#656DE6"/>
</g>
<path d="M35.5 18C35.5 27.665 27.665 35.5 18 35.5C8.33502 35.5 0.5 27.665 0.5 18C0.5 8.33502 8.33502 0.5 18 0.5C27.665 0.5 35.5 8.33502 35.5 18Z" stroke="#6D75F4"/>
<defs>
<clipPath id="clip0_6612_151850">
<rect width="23.5" height="23.5" fill="white" transform="translate(6.25 6.25)"/>
</clipPath>
</defs>
</svg>
