<svg width="36" height="36" viewBox="0 0 36 36" fill="none" xmlns="http://www.w3.org/2000/svg">
<path fill-rule="evenodd" clip-rule="evenodd" d="M18 33.9429C26.805 33.9429 33.9429 26.805 33.9429 18C33.9429 9.195 26.805 2.05714 18 2.05714C9.195 2.05714 2.05714 9.195 2.05714 18C2.05714 26.805 9.195 33.9429 18 33.9429ZM18 36C27.9411 36 36 27.9411 36 18C36 8.05888 27.9411 0 18 0C8.05888 0 0 8.05888 0 18C0 27.9411 8.05888 36 18 36Z" fill="#6D75F4"/>
<g clip-path="url(#clip0_12416_177892)">
<path d="M10.1963 17.1358H14.9321C15.6642 17.1358 16.2132 16.9483 16.5793 16.5734C16.9453 16.1984 17.1283 15.636 17.1283 14.8861V10.2497C17.1283 9.49977 16.9453 8.93736 16.5793 8.56241C16.2132 8.18747 15.6642 8 14.9321 8H10.1963C9.46419 8 8.91512 8.18747 8.54907 8.56241C8.18302 8.93736 8 9.49977 8 10.2497V14.8861C8 15.636 8.18302 16.1984 8.54907 16.5734C8.91512 16.9483 9.46419 17.1358 10.1963 17.1358ZM10.21 15.4074C9.88057 15.4074 9.71585 15.2337 9.71585 14.8861V10.2359C9.71585 9.89757 9.88057 9.7284 10.21 9.7284H14.9046C15.2432 9.7284 15.4125 9.89757 15.4125 10.2359V14.8861C15.4125 15.2337 15.2432 15.4074 14.9046 15.4074H10.21ZM11.6102 13.7339H13.5045C13.66 13.7339 13.7378 13.647 13.7378 13.4733V11.6488C13.7378 11.4842 13.66 11.4019 13.5045 11.4019H11.6102C11.4637 11.4019 11.3905 11.4842 11.3905 11.6488V13.4733C11.3905 13.647 11.4637 13.7339 11.6102 13.7339ZM21.0679 17.1358H25.8037C26.545 17.1358 27.0963 16.9483 27.4578 16.5734C27.8193 16.1984 28 15.636 28 14.8861V10.2497C28 9.49977 27.8193 8.93736 27.4578 8.56241C27.0963 8.18747 26.545 8 25.8037 8H21.0679C20.3358 8 19.7868 8.18747 19.4207 8.56241C19.0547 8.93736 18.8717 9.49977 18.8717 10.2497V14.8861C18.8717 15.636 19.0547 16.1984 19.4207 16.5734C19.7868 16.9483 20.3358 17.1358 21.0679 17.1358ZM21.0954 15.4074C20.7568 15.4074 20.5875 15.2337 20.5875 14.8861V10.2359C20.5875 9.89757 20.7568 9.7284 21.0954 9.7284H25.79C26.1194 9.7284 26.2841 9.89757 26.2841 10.2359V14.8861C26.2841 15.2337 26.1194 15.4074 25.79 15.4074H21.0954ZM22.5642 13.7339H24.4585C24.614 13.7339 24.6918 13.647 24.6918 13.4733V11.6488C24.6918 11.4842 24.614 11.4019 24.4585 11.4019H22.5642C22.4178 11.4019 22.3445 11.4842 22.3445 11.6488V13.4733C22.3445 13.647 22.4178 13.7339 22.5642 13.7339ZM10.1963 28H14.9321C15.6642 28 16.2132 27.8148 16.5793 27.4444C16.9453 27.0741 17.1283 26.5094 17.1283 25.7503V21.1139C17.1283 20.364 16.9453 19.8038 16.5793 19.4335C16.2132 19.0631 15.6642 18.8779 14.9321 18.8779H10.1963C9.46419 18.8779 8.91512 19.0631 8.54907 19.4335C8.18302 19.8038 8 20.364 8 21.1139V25.7503C8 26.5094 8.18302 27.0741 8.54907 27.4444C8.91512 27.8148 9.46419 28 10.1963 28ZM10.21 26.2716C9.88057 26.2716 9.71585 26.1024 9.71585 25.7641V21.1139C9.71585 20.7663 9.88057 20.5926 10.21 20.5926H14.9046C15.2432 20.5926 15.4125 20.7663 15.4125 21.1139V25.7641C15.4125 26.1024 15.2432 26.2716 14.9046 26.2716H10.21ZM11.6102 24.5981H13.5045C13.66 24.5981 13.7378 24.5112 13.7378 24.3374V22.513C13.7378 22.3484 13.66 22.2661 13.5045 22.2661H11.6102C11.4637 22.2661 11.3905 22.3484 11.3905 22.513V24.3374C11.3905 24.5112 11.4637 24.5981 11.6102 24.5981ZM19.6266 21.7449H21.5209C21.6765 21.7449 21.7543 21.658 21.7543 21.4842V19.6598C21.7543 19.4952 21.6765 19.4129 21.5209 19.4129H19.6266C19.4802 19.4129 19.407 19.4952 19.407 19.6598V21.4842C19.407 21.658 19.4802 21.7449 19.6266 21.7449ZM25.337 21.7449H27.2313C27.3869 21.7449 27.4647 21.658 27.4647 21.4842V19.6598C27.4647 19.4952 27.3869 19.4129 27.2313 19.4129H25.337C25.1906 19.4129 25.1174 19.4952 25.1174 19.6598V21.4842C25.1174 21.658 25.1906 21.7449 25.337 21.7449ZM22.5093 24.5981H24.4036C24.5591 24.5981 24.6369 24.5112 24.6369 24.3374V22.513C24.6369 22.3484 24.5591 22.2661 24.4036 22.2661H22.5093C22.3628 22.2661 22.2896 22.3484 22.2896 22.513V24.3374C22.2896 24.5112 22.3628 24.5981 22.5093 24.5981ZM19.6266 27.4513H21.5209C21.6765 27.4513 21.7543 27.3644 21.7543 27.1907V25.3663C21.7543 25.2016 21.6765 25.1193 21.5209 25.1193H19.6266C19.4802 25.1193 19.407 25.2016 19.407 25.3663V27.1907C19.407 27.3644 19.4802 27.4513 19.6266 27.4513ZM25.337 27.4513H27.2313C27.3869 27.4513 27.4647 27.3644 27.4647 27.1907V25.3663C27.4647 25.2016 27.3869 25.1193 27.2313 25.1193H25.337C25.1906 25.1193 25.1174 25.2016 25.1174 25.3663V27.1907C25.1174 27.3644 25.1906 27.4513 25.337 27.4513Z" fill="#6D75F4"/>
</g>
<defs>
<clipPath id="clip0_12416_177892">
<rect width="20" height="20" fill="white" transform="translate(8 8)"/>
</clipPath>
</defs>
</svg>
