<svg width="293" height="80" viewBox="0 0 293 80" fill="none" xmlns="http://www.w3.org/2000/svg">
<path d="M126.408 39.5674L145.303 11.9432H130.732L113.599 36.5695V11.9432H100.79V68.651H113.599V42.4039L131.533 68.651H146.104L126.408 39.5674V39.5674Z" fill="#2D2E3F"/>
<path d="M172.626 50.3756C172.626 55.9125 169.726 58.7616 165.133 58.7616C161.021 58.7616 158.121 56.1562 158.121 51.3538V28.1489H146.034V53.1456C146.034 58.4387 147.486 62.5099 150.305 65.5205C153.206 68.5343 156.832 70 161.103 70C166.34 70 170.207 68.3728 172.626 65.0329V68.8603H184.713V28.1489H172.626V50.3756Z" fill="#2D2E3F"/>
<path d="M215.028 48.3998L229.696 28.1486H215.594L203.508 45.8894V11.9432H191.421V68.651H203.508V50.7488L216.401 68.651H230.102L215.028 48.3998Z" fill="#2D2E3F"/>
<path d="M260.79 31.9538C257.986 28.6329 253.985 27.0121 248.86 27.0121C243.575 27.0121 239.092 29.1173 235.328 33.2486C231.564 37.3798 229.724 42.4039 229.724 48.3966C229.724 54.3894 231.567 59.4957 235.328 63.627C239.092 67.7583 243.575 69.7843 248.86 69.7843C253.985 69.7843 257.986 68.1635 260.79 64.8426V68.651H272.798V28.1454H260.79V31.9538ZM244.376 55.6082C242.615 53.8258 241.735 51.3946 241.735 48.3998C241.735 45.405 242.615 42.9737 244.376 41.1914C246.138 39.4091 248.459 38.5195 251.263 38.5195C254.066 38.5195 256.388 39.4122 258.149 41.1914C259.911 42.9737 260.79 45.405 260.79 48.3998C260.79 51.3945 259.911 53.8258 258.149 55.6082C256.388 57.3905 254.066 58.28 251.263 58.28C248.459 58.28 246.138 57.3905 244.376 55.6082Z" fill="#2D2E3F"/>
<path d="M290.629 22.4754C293.51 19.5597 293.51 15.0232 290.629 12.1867C287.825 9.27109 283.342 9.27109 280.46 12.1867C277.657 15.0232 277.657 19.5597 280.46 22.4754C283.342 25.3119 287.825 25.3119 290.629 22.4754ZM291.589 68.6508V28.1452H279.581V68.6508H291.589Z" fill="#2D2E3F"/>
<path fill-rule="evenodd" clip-rule="evenodd" d="M40.7915 20.7581C30.1648 20.7581 21.5483 29.374 21.5483 40C21.5483 50.626 30.1648 59.2419 40.7915 59.2419C51.4182 59.2419 60.0346 50.626 60.0346 40C60.0377 29.374 51.4213 20.7581 40.7915 20.7581ZM40.7915 48.7597C35.9549 48.7597 32.0344 44.8394 32.0344 40.0031C32.0344 35.1669 35.9549 31.2466 40.7915 31.2466C45.628 31.2466 49.5486 35.1669 49.5486 40.0031C49.5517 44.8394 45.6312 48.7597 40.7915 48.7597Z" fill="#5963FF"/>
<path fill-rule="evenodd" clip-rule="evenodd" d="M64.797 0H16.7908C7.95242 0 0.789795 7.16217 0.789795 16V64C0.789795 72.8378 7.95242 80 16.7908 80H64.7939C73.6323 80 80.7949 72.8378 80.7949 64V16C80.798 7.1653 73.6323 0 64.797 0V0ZM66.5978 54.1305C66.8104 54.2868 67.0137 54.4619 67.2044 54.6526C69.0021 56.4533 69.2397 59.3419 67.7609 61.4146C65.9819 63.9093 62.5022 64.3564 60.1574 62.4556C60.1011 62.4119 60.048 62.365 59.9948 62.3181C59.3758 61.7741 58.4692 61.7304 57.8157 62.2337C53.098 65.8507 47.1953 68.0016 40.7924 68.0016C34.3894 68.0016 28.4868 65.8507 23.769 62.2337C23.1156 61.7335 22.2089 61.7741 21.5899 62.3181C21.5367 62.365 21.4836 62.4087 21.4273 62.4556C19.0825 64.3533 15.6028 63.9062 13.8238 61.4146C12.345 59.3419 12.5826 56.4564 14.3803 54.6526C14.5742 54.4588 14.7774 54.2837 14.9869 54.1305C15.634 53.6522 15.8592 52.78 15.509 52.0516C13.7644 48.4002 12.789 44.3142 12.789 40C12.789 35.6858 13.7676 31.5967 15.509 27.9453C15.8592 27.2106 15.6184 26.3415 14.965 25.857C14.9087 25.8163 14.8524 25.7726 14.7962 25.7257C12.4513 23.8281 12.1637 20.3298 14.2334 18.0727C15.9529 16.1938 18.8292 15.8281 20.9646 17.213C21.1928 17.363 21.4054 17.5256 21.6024 17.6975C22.212 18.2384 23.1156 18.2603 23.7627 17.7663C28.4805 14.1493 34.3832 11.9984 40.7861 11.9984C47.189 11.9984 53.0917 14.1493 57.8095 17.7663C58.4629 18.2696 59.3696 18.2259 59.9886 17.6819C60.0417 17.635 60.0949 17.5912 60.1512 17.5444C62.496 15.6467 65.9757 16.0938 67.7546 18.5854C69.2334 20.6581 68.9958 23.5436 67.1981 25.3474C67.0043 25.5412 66.8011 25.7163 66.5916 25.8726C65.9444 26.3509 65.7193 27.2231 66.0695 27.9484C67.814 31.5998 68.7895 35.6858 68.7895 40C68.7895 44.3142 67.814 48.4002 66.0695 52.0516C65.7287 52.78 65.9507 53.6522 66.5978 54.1305H66.5978Z" fill="#5963FF"/>
</svg>
