<svg width="293" height="80" viewBox="0 0 293 80" fill="none" xmlns="http://www.w3.org/2000/svg">
<path d="M126.408 39.5674L145.303 11.9432H130.732L113.599 36.5695V11.9432H100.79V68.651H113.599V42.4039L131.533 68.651H146.104L126.408 39.5674V39.5674Z" fill="#E9EAF5"/>
<path d="M172.626 50.3756C172.626 55.9125 169.726 58.7616 165.133 58.7616C161.021 58.7616 158.121 56.1562 158.121 51.3538V28.149H146.034V53.1456C146.034 58.4387 147.486 62.5099 150.305 65.5205C153.206 68.5343 156.832 70 161.103 70C166.34 70 170.208 68.3728 172.626 65.033V68.8603H184.713V28.149H172.626V50.3756Z" fill="#E9EAF5"/>
<path d="M215.028 48.3998L229.696 28.1486H215.594L203.508 45.8894V11.9432H191.421V68.651H203.508V50.7488L216.402 68.651H230.103L215.028 48.3998Z" fill="#E9EAF5"/>
<path d="M260.79 31.9537C257.986 28.6329 253.985 27.012 248.86 27.012C243.575 27.012 239.092 29.1172 235.328 33.2485C231.564 37.3798 229.724 42.4038 229.724 48.3966C229.724 54.3893 231.567 59.4956 235.328 63.6269C239.092 67.7582 243.575 69.7843 248.86 69.7843C253.985 69.7843 257.986 68.1634 260.79 64.8426V68.6509H272.798V28.1454H260.79V31.9537ZM244.376 55.6081C242.615 53.8258 241.735 51.3945 241.735 48.3997C241.735 45.4049 242.615 42.9737 244.376 41.1914C246.138 39.409 248.459 38.5195 251.263 38.5195C254.066 38.5195 256.388 39.4122 258.149 41.1914C259.911 42.9737 260.79 45.4049 260.79 48.3997C260.79 51.3945 259.911 53.8258 258.149 55.6081C256.388 57.3904 254.066 58.28 251.263 58.28C248.459 58.28 246.138 57.3904 244.376 55.6081Z" fill="#E9EAF5"/>
<path d="M290.629 22.4754C293.51 19.5597 293.51 15.0232 290.629 12.1867C287.825 9.27109 283.342 9.27109 280.46 12.1867C277.657 15.0232 277.657 19.5597 280.46 22.4754C283.342 25.3119 287.825 25.3119 290.629 22.4754ZM291.589 68.6508V28.1452H279.581V68.6508H291.589Z" fill="#E9EAF5"/>
<path fill-rule="evenodd" clip-rule="evenodd" d="M40.789 20.7581C30.163 20.7581 21.5471 29.374 21.5471 40C21.5471 50.626 30.163 59.2419 40.789 59.2419C51.415 59.2419 60.0309 50.626 60.0309 40C60.034 29.374 51.4182 20.7581 40.789 20.7581ZM40.789 48.7597C35.9528 48.7597 32.0325 44.8394 32.0325 40.0031C32.0325 35.1669 35.9528 31.2466 40.789 31.2466C45.6253 31.2466 49.5456 35.1669 49.5456 40.0031C49.5487 44.8394 45.6284 48.7597 40.789 48.7597Z" fill="#5963FF"/>
<path fill-rule="evenodd" clip-rule="evenodd" d="M64.7929 0H16.7898C7.95196 0 0.789795 7.16217 0.789795 16V64C0.789795 72.8378 7.95196 80 16.7898 80H64.7898C73.6276 80 80.7898 72.8378 80.7898 64V16C80.7929 7.1653 73.6276 0 64.7929 0V0ZM66.5936 54.1305C66.8062 54.2868 67.0094 54.4619 67.2001 54.6526C68.9977 56.4533 69.2353 59.3419 67.7566 61.4146C65.9778 63.9093 62.4983 64.3564 60.1536 62.4556C60.0973 62.4119 60.0442 62.365 59.9911 62.3181C59.3721 61.7741 58.4655 61.7304 57.8121 62.2337C53.0946 65.8507 47.1923 68.0016 40.7898 68.0016C34.3873 68.0016 28.485 65.8507 23.7675 62.2337C23.1141 61.7335 22.2075 61.7741 21.5885 62.3181C21.5354 62.365 21.4823 62.4087 21.426 62.4556C19.0813 64.3533 15.6018 63.9062 13.823 61.4146C12.3443 59.3419 12.5819 56.4564 14.3795 54.6526C14.5733 54.4588 14.7765 54.2837 14.986 54.1305C15.6331 53.6522 15.8582 52.78 15.508 52.0516C13.7636 48.4002 12.7882 44.3142 12.7882 40C12.7882 35.6858 13.7667 31.5967 15.508 27.9453C15.8582 27.2106 15.6175 26.3415 14.9641 25.857C14.9078 25.8163 14.8515 25.7726 14.7953 25.7257C12.4506 23.8281 12.163 20.3298 14.2325 18.0727C15.952 16.1938 18.8281 15.8281 20.9633 17.213C21.1915 17.363 21.4041 17.5256 21.6011 17.6975C22.2107 18.2384 23.1141 18.2603 23.7613 17.7663C28.4787 14.1493 34.381 11.9984 40.7835 11.9984C47.186 11.9984 53.0883 14.1493 57.8058 17.7663C58.4592 18.2696 59.3658 18.2259 59.9848 17.6819C60.0379 17.635 60.0911 17.5912 60.1474 17.5444C62.492 15.6467 65.9715 16.0938 67.7503 18.5854C69.229 20.6581 68.9914 23.5436 67.1939 25.3474C67 25.5412 66.7968 25.7163 66.5874 25.8726C65.9402 26.3509 65.7152 27.2231 66.0653 27.9484C67.8097 31.5998 68.7851 35.6858 68.7851 40C68.7851 44.3142 67.8097 48.4002 66.0653 52.0516C65.7245 52.78 65.9465 53.6522 66.5936 54.1305Z" fill="#5963FF"/>
</svg>
