<svg width="26" height="26" viewBox="0 0 26 26" fill="none" xmlns="http://www.w3.org/2000/svg">
<path fill-rule="evenodd" clip-rule="evenodd" d="M9.53342 4.33385C8.8155 4.33385 8.23351 4.91584 8.23351 5.63377C8.23351 6.35169 8.8155 6.93369 9.53342 6.93369C9.69128 6.93369 9.84257 6.90555 9.98254 6.85401C10.006 6.84178 10.03 6.83019 10.0544 6.81926C10.0811 6.80732 10.1081 6.79635 10.1351 6.78635C10.5501 6.56925 10.8333 6.13458 10.8333 5.63377C10.8333 4.91584 10.2514 4.33385 9.53342 4.33385ZM12.214 8.46616C12.9648 7.75536 13.4332 6.74926 13.4332 5.63377C13.4332 3.47999 11.6872 1.73401 9.53342 1.73401C7.37965 1.73401 5.63367 3.47999 5.63367 5.63377C5.63367 7.78754 7.37965 9.53352 9.53342 9.53352C9.63598 9.53352 9.7376 9.52957 9.83816 9.52179L10.32 10.6001C9.56868 11.311 9.09998 12.3174 9.09998 13.4333C9.09998 13.9538 9.20195 14.4505 9.38701 14.9045L7.08565 16.9516C6.52689 16.6424 5.88421 16.4664 5.20042 16.4664C3.04664 16.4664 1.30066 18.2124 1.30066 20.3662C1.30066 22.52 3.04664 24.2659 5.20042 24.2659C7.35419 24.2659 9.10017 22.52 9.10017 20.3662C9.10017 19.8455 8.99814 19.3487 8.81299 18.8946L11.1141 16.8477C11.673 17.157 12.3158 17.3331 12.9997 17.3331C13.7267 17.3331 14.4072 17.1342 14.9898 16.7878L17.1431 18.574C16.9857 18.9971 16.8998 19.4549 16.8998 19.9328C16.8998 22.0866 18.6458 23.8326 20.7995 23.8326C22.9533 23.8326 24.6993 22.0866 24.6993 19.9328C24.6993 17.7791 22.9533 16.0331 20.7995 16.0331C20.0726 16.0331 19.392 16.232 18.8095 16.5784L16.6562 14.7922C16.8135 14.369 16.8995 13.9112 16.8995 13.4333C16.8995 13.3929 16.8989 13.3526 16.8977 13.3125L17.8436 12.9439C18.5587 13.7742 19.6177 14.2999 20.7995 14.2999C22.9533 14.2999 24.6993 12.5539 24.6993 10.4001C24.6993 8.24635 22.9533 6.50037 20.7995 6.50037C18.6458 6.50037 16.8998 8.24635 16.8998 10.4001C16.8998 10.4405 16.9004 10.4807 16.9016 10.5207L15.9556 10.8894C15.2404 10.0592 14.1814 9.53357 12.9997 9.53357C12.8976 9.53357 12.7963 9.5375 12.6962 9.54521L12.214 8.46616ZM12.3958 12.2819C12.424 12.2716 12.4521 12.2602 12.4799 12.2477C12.5051 12.2365 12.5298 12.2245 12.5539 12.2119C12.693 12.1611 12.8431 12.1334 12.9997 12.1334C13.7177 12.1334 14.2997 12.7154 14.2997 13.4333C14.2997 13.7415 14.1924 14.0247 14.0132 14.2475C14.0063 14.2554 13.9994 14.2635 13.9927 14.2716C13.9885 14.2766 13.9844 14.2816 13.9803 14.2867C13.742 14.5603 13.3911 14.7332 12.9997 14.7332C12.6457 14.7332 12.3247 14.5917 12.0903 14.3621C12.0718 14.3382 12.0523 14.3147 12.0319 14.2917C12.0117 14.2691 11.991 14.2473 11.9697 14.2265C11.8005 14.007 11.6998 13.7319 11.6998 13.4333C11.6998 12.9334 11.982 12.4994 12.3958 12.2819ZM19.7837 19.1216C19.7915 19.1128 19.7992 19.1038 19.8067 19.0946C19.8117 19.0886 19.8167 19.0826 19.8215 19.0765C20.0598 18.8046 20.4096 18.6329 20.7995 18.6329C21.5175 18.6329 22.0995 19.2149 22.0995 19.9328C22.0995 20.6508 21.5175 21.2328 20.7995 21.2328C20.0816 21.2328 19.4996 20.6508 19.4996 19.9328C19.4996 19.626 19.6059 19.344 19.7837 19.1216ZM6.10857 19.4361C6.12734 19.4605 6.14711 19.4844 6.16788 19.5077C6.18839 19.5308 6.20954 19.5529 6.23128 19.5742C6.40001 19.7935 6.50034 20.0681 6.50034 20.3662C6.50034 21.0841 5.91834 21.6661 5.20042 21.6661C4.48249 21.6661 3.9005 21.0841 3.9005 20.3662C3.9005 19.6483 4.48249 19.0663 5.20042 19.0663C5.5538 19.0663 5.87425 19.2073 6.10857 19.4361ZM20.7995 9.1002C20.0816 9.1002 19.4996 9.6822 19.4996 10.4001C19.4996 11.118 20.0816 11.7 20.7995 11.7C21.5175 11.7 22.0995 11.118 22.0995 10.4001C22.0995 9.6822 21.5175 9.1002 20.7995 9.1002Z" fill="#9298FF"/>
</svg>
