<svg width="24" height="25" viewBox="0 0 24 25" fill="none" xmlns="http://www.w3.org/2000/svg">
<g clip-path="url(#clip0_6248_61871)">
<path fill-rule="evenodd" clip-rule="evenodd" d="M8.37727 2.85294C7.50195 2.85294 6.79237 3.59035 6.79237 4.5C6.79237 5.40964 7.50195 6.14706 8.37727 6.14706C8.57546 6.14706 8.76515 6.10925 8.94003 6.0402C8.96409 6.0268 8.98879 6.0142 9.0141 6.00245C9.04136 5.98979 9.06886 5.97834 9.09652 5.96808C9.61032 5.69568 9.96217 5.14054 9.96217 4.5C9.96217 3.59035 9.25258 2.85294 8.37727 2.85294ZM10.905 7.51659C11.7147 6.78329 12.2263 5.70374 12.2263 4.5C12.2263 2.29086 10.503 0.5 8.37727 0.5C6.2515 0.5 4.52823 2.29086 4.52823 4.5C4.52823 6.70914 6.2515 8.5 8.37727 8.5C8.53246 8.5 8.68551 8.49045 8.83589 8.4719L9.47281 9.95329C8.66271 10.6866 8.1507 11.7665 8.1507 12.9706C8.1507 13.5631 8.27465 14.1255 8.49705 14.6313L5.84734 17.0806C5.26485 16.7122 4.58079 16.5 3.84904 16.5C1.72327 16.5 0 18.2909 0 20.5C0 22.7091 1.72327 24.5 3.84904 24.5C5.97481 24.5 7.69808 22.7091 7.69808 20.5C7.69808 19.9075 7.57411 19.345 7.35164 18.8392L10.0013 16.3899C10.5838 16.7584 11.2679 16.9706 11.9997 16.9706C12.774 16.9706 13.4948 16.7331 14.0984 16.3243L16.6007 18.4815C16.4083 18.9576 16.3019 19.4806 16.3019 20.0294C16.3019 22.2385 18.0252 24.0294 20.151 24.0294C22.2767 24.0294 24 22.2385 24 20.0294C24 17.8202 22.2767 16.0294 20.151 16.0294C19.3767 16.0294 18.6559 16.2669 18.0523 16.6757L15.55 14.5185C15.7424 14.0424 15.8488 13.5194 15.8488 12.9706C15.8488 12.8735 15.8455 12.7772 15.8389 12.6818L17.1321 12.1581C17.8371 13.0831 18.9273 13.6765 20.151 13.6765C22.2767 13.6765 24 11.8856 24 9.67646C24 7.46732 22.2767 5.67646 20.151 5.67646C18.0252 5.67646 16.3019 7.46732 16.3019 9.67646C16.3019 9.77349 16.3052 9.86971 16.3118 9.96501L15.0185 10.4888C14.3135 9.56393 13.2233 8.97064 11.9997 8.97064C11.8449 8.97064 11.6923 8.98013 11.5422 8.9986L10.905 7.51659ZM11.2767 11.5046C11.3061 11.4938 11.3352 11.4818 11.3641 11.4684C11.3908 11.456 11.4168 11.4426 11.4421 11.4284C11.6156 11.3607 11.8035 11.3236 11.9997 11.3236C12.8751 11.3236 13.5846 12.061 13.5846 12.9706C13.5846 13.3629 13.4527 13.7232 13.2324 14.0061C13.2254 14.0143 13.2185 14.0227 13.2117 14.0313C13.2071 14.037 13.2027 14.0427 13.1982 14.0484C12.9076 14.3971 12.4785 14.6177 11.9997 14.6177C11.5617 14.6177 11.1652 14.433 10.8784 14.1346C10.8598 14.1089 10.84 14.0838 10.8191 14.0594C10.7984 14.0352 10.777 14.0122 10.7549 13.9902C10.542 13.7098 10.4148 13.3556 10.4148 12.9706C10.4148 12.3317 10.765 11.7777 11.2767 11.5046ZM18.9159 18.9971C18.9238 18.9878 18.9315 18.9784 18.9392 18.9688C18.9445 18.9621 18.9498 18.9553 18.955 18.9485C19.2456 18.6016 19.6736 18.3823 20.151 18.3823C21.0263 18.3823 21.7359 19.1197 21.7359 20.0294C21.7359 20.939 21.0263 21.6764 20.151 21.6764C19.2756 21.6764 18.5661 20.939 18.5661 20.0294C18.5661 19.6385 18.697 19.2795 18.9159 18.9971ZM4.96831 19.3339C4.9874 19.3604 5.00772 19.3862 5.02926 19.4114C5.05059 19.4363 5.07271 19.4601 5.09555 19.4827C5.30751 19.7628 5.43394 20.116 5.43394 20.5C5.43394 21.4096 4.72436 22.1471 3.84904 22.1471C2.97373 22.1471 2.26414 21.4096 2.26414 20.5C2.26414 19.5904 2.97373 18.8529 3.84904 18.8529C4.28597 18.8529 4.68161 19.0367 4.96831 19.3339ZM20.151 8.0294C19.2756 8.0294 18.5661 8.76681 18.5661 9.67646C18.5661 10.5861 19.2756 11.3235 20.151 11.3235C21.0263 11.3235 21.7359 10.5861 21.7359 9.67646C21.7359 8.76681 21.0263 8.0294 20.151 8.0294Z" fill="#9298FF"/>
</g>
<defs>
<clipPath id="clip0_6248_61871">
<rect width="24" height="24" fill="white" transform="translate(0 0.5)"/>
</clipPath>
</defs>
</svg>
