<svg width="24" height="24" viewBox="0 0 24 24" fill="none" xmlns="http://www.w3.org/2000/svg">
<g clip-path="url(#clip0_7702_137824)">
<path fill-rule="evenodd" clip-rule="evenodd" d="M8.98059 1.64758C9.20441 0.644216 10.0187 0 11.0453 0H12.9652C13.985 0 14.7957 0.647674 15.0191 1.646L15.4492 3.45097C15.5248 3.48085 15.5995 3.51133 15.6733 3.54245L17.2858 2.54755L17.3044 2.53732C18.1562 2.06964 19.0989 2.19376 19.8007 2.82873L19.815 2.84168L21.1879 4.20402C21.1887 4.20485 21.1896 4.20568 21.1904 4.20651C21.9462 4.94687 21.993 5.9814 21.4736 6.81504L20.5155 8.40051C20.5433 8.46662 20.5714 8.53546 20.5994 8.60675L22.3659 9.03372C23.3778 9.26085 24 10.0934 24 11.0873V12.9757C24 13.4562 23.858 13.9205 23.5583 14.2991C23.259 14.6773 22.839 14.9237 22.363 15.0299L20.5771 15.4491C20.5512 15.5159 20.5245 15.5824 20.4972 15.6483L21.4457 17.1844C21.9965 18.0301 21.8999 19.105 21.1844 19.8205L19.831 21.1739C19.1105 21.8944 18.0592 21.9697 17.2329 21.4498L15.6703 20.4868C15.5942 20.5186 15.5172 20.5499 15.4393 20.5805L15.0192 22.3535C14.796 23.3521 13.9852 24 12.9652 24H11.0453C10.019 24 9.20492 23.3562 8.9808 22.3534L8.56069 20.5805C8.48324 20.55 8.40665 20.519 8.33094 20.4873L6.77583 21.4508C6.77576 21.4509 6.77591 21.4508 6.77583 21.4508C5.94519 21.9657 4.89361 21.8986 4.16898 21.1739L4.16668 21.1716L2.8279 19.8224C2.09928 19.1063 2.0039 18.0296 2.55425 17.1845L3.50278 15.6483C3.47548 15.5824 3.44881 15.5159 3.42289 15.4491L1.63703 15.0299C1.16101 14.9237 0.740976 14.6773 0.441689 14.2991C0.142038 13.9205 0 13.4562 0 12.9757V11.0873C0 10.0934 0.622206 9.26086 1.63405 9.03372L3.40558 8.60553C3.4326 8.53638 3.45962 8.4691 3.48647 8.40375L2.52645 6.81504C2.00705 5.98144 2.05383 4.94696 2.80947 4.2066L4.1846 2.84204L4.19852 2.82942C4.53533 2.52394 4.94268 2.31814 5.39876 2.26517C5.85455 2.21222 6.29792 2.31898 6.69562 2.53732L6.7137 2.54725L8.31297 3.53076C8.39523 3.49626 8.4783 3.46307 8.5619 3.43116L8.98059 1.64758ZM11.0453 1.67442C10.794 1.67442 10.6653 1.78294 10.6144 2.01404L10.6119 2.02523L9.97936 4.71971L9.52996 4.8651C9.2046 4.97037 8.89872 5.09167 8.629 5.22653L8.21259 5.43473L5.87452 3.99688C5.74522 3.92904 5.65312 3.9213 5.59197 3.9284C5.53091 3.93549 5.44399 3.96394 5.33518 4.05921L3.98211 5.40188C3.88805 5.49375 3.86244 5.57219 3.85705 5.6309C3.8512 5.69464 3.86438 5.79698 3.9489 5.93167L3.95637 5.94359L5.36771 8.27938L5.1903 8.67854C5.06986 8.94954 4.94403 9.25032 4.82902 9.58574L4.6801 10.0201L2.01184 10.665L2.00354 10.6669C1.78284 10.7155 1.67442 10.8462 1.67442 11.0873V12.9757C1.67442 13.1247 1.71598 13.2111 1.75467 13.26C1.79243 13.3077 1.86313 13.3651 2.00354 13.3961L2.01474 13.3985L4.70968 14.0312L4.85483 14.4812C4.94705 14.7671 5.06966 15.0701 5.2049 15.3599L5.39598 15.7693L3.96642 18.0845L3.95945 18.095C3.82733 18.2952 3.85854 18.4885 4.0029 18.6295L4.01245 18.6388L5.35297 19.9899C5.35326 19.9902 5.35355 19.9905 5.35385 19.9908C5.48936 20.1257 5.67553 20.1629 5.89352 20.0277L8.20894 18.5932L8.61913 18.7846C8.90719 18.919 9.21757 19.0453 9.55089 19.163L9.98159 19.315L10.6145 21.9859C10.6654 22.217 10.794 22.3256 11.0453 22.3256H12.9652C13.2017 22.3256 13.3337 22.2212 13.3856 21.986L13.3884 21.973L14.0184 19.315L14.4491 19.163C14.7824 19.0453 15.0928 18.919 15.3809 18.7846L15.7899 18.5937L18.1235 20.0317C18.3247 20.159 18.5086 20.1284 18.647 19.9899L20.0004 18.6365C20.1419 18.4951 20.1736 18.2967 20.0405 18.095L20.0336 18.0845L18.604 15.7693L18.7951 15.3599C18.9303 15.0701 19.0529 14.7671 19.1452 14.4812L19.2903 14.0312L21.9964 13.396C22.1369 13.3651 22.2076 13.3077 22.2453 13.26C22.284 13.2111 22.3256 13.1247 22.3256 12.9757V11.0873C22.3256 10.8462 22.2172 10.7155 21.9965 10.6669L21.9882 10.665L19.3062 10.0168L19.1642 9.56523C19.0686 9.2608 18.9468 8.98682 18.8215 8.70499L18.6323 8.27938L20.051 5.93161C20.1355 5.79691 20.1488 5.69464 20.143 5.6309C20.1376 5.57219 20.112 5.49373 20.0179 5.40186L20.0132 5.39723L18.6653 4.05966C18.4946 3.91082 18.3318 3.88896 18.1259 3.99668L15.7841 5.4416L15.3709 5.24215C15.1001 5.11139 14.7938 4.98646 14.4596 4.86852L14.0296 4.71674L13.3855 2.01406C13.3336 1.7788 13.2017 1.67442 12.9652 1.67442H11.0453ZM12 9.17573C10.4465 9.17573 9.17573 10.4496 9.17573 11.9895C9.17573 13.5566 10.4527 14.8348 12 14.8348C13.5593 14.8348 14.8348 13.5551 14.8348 11.9895C14.8348 10.4512 13.5656 9.17573 12 9.17573ZM7.50131 11.9895C7.50131 9.52172 9.52485 7.50131 12 7.50131C14.4841 7.50131 16.5092 9.52017 16.5092 11.9895C16.5092 14.4736 14.4903 16.5092 12 16.5092C9.51863 16.5092 7.50131 14.472 7.50131 11.9895Z" fill="#6D75F4"/>
</g>
<defs>
<clipPath id="clip0_7702_137824">
<rect width="24" height="24" fill="white"/>
</clipPath>
</defs>
</svg>
