<svg width="30" height="30" viewBox="0 0 30 30" fill="none" xmlns="http://www.w3.org/2000/svg">
<g clip-path="url(#clip0_6236_47486)">
<path d="M23.0711 28.7919C21.4439 30.3711 19.6485 30.1249 17.9372 29.3803C16.1178 28.6207 14.4546 28.5727 12.5331 29.3803C10.1403 30.4131 8.87031 30.1129 7.42921 28.7919C-0.706981 20.4155 0.493933 7.6558 9.74097 7.17543C11.9837 7.29552 13.5539 8.41537 14.8749 8.50844C16.8384 8.10914 18.7178 6.96527 20.8194 7.11538C23.3443 7.31954 25.2358 8.3173 26.4937 10.1087C21.2998 13.231 22.5307 20.0762 27.3013 21.9977C26.3466 24.5046 25.1217 26.9815 23.0681 28.8129L23.0711 28.7919ZM14.6947 7.08536C14.4516 3.36253 17.4689 0.300198 20.9395 -3.05176e-05C21.4169 4.29324 17.0365 7.50568 14.6947 7.08536Z" fill="black"/>
</g>
<defs>
<clipPath id="clip0_6236_47486">
<rect width="30" height="30" fill="white"/>
</clipPath>
</defs>
</svg>
