<svg width="20" height="18" viewBox="0 0 20 18" fill="none" xmlns="http://www.w3.org/2000/svg">
<path d="M13.8462 6.13636C13.8462 6.46186 13.7246 6.77402 13.5082 7.00418C13.2918 7.23433 12.9983 7.36364 12.6923 7.36364C12.3863 7.36364 12.0928 7.23433 11.8764 7.00418C11.66 6.77402 11.5385 6.46186 11.5385 6.13636C11.5385 5.81087 11.66 5.49871 11.8764 5.26855C12.0928 5.03839 12.3863 4.90909 12.6923 4.90909C12.9983 4.90909 13.2918 5.03839 13.5082 5.26855C13.7246 5.49871 13.8462 5.81087 13.8462 6.13636ZM20 1.63636V14.7273V16.3636C20 16.7976 19.8379 17.2138 19.5494 17.5207C19.2609 17.8276 18.8696 18 18.4615 18H1.53846C1.13044 18 0.739122 17.8276 0.450605 17.5207C0.162087 17.2138 0 16.7976 0 16.3636V13.0909V1.63636C0 1.20237 0.162087 0.786157 0.450605 0.47928C0.739122 0.172402 1.13044 0 1.53846 0H18.4615C18.8696 0 19.2609 0.172402 19.5494 0.47928C19.8379 0.786157 20 1.20237 20 1.63636ZM18.4615 12.7534V1.63636H1.53846V11.117L5.06731 7.36364C5.35694 7.06009 5.74723 6.88993 6.15385 6.88993C6.56046 6.88993 6.95075 7.06009 7.24038 7.36364L11.5385 11.9352L13.5288 9.81818C13.8185 9.51463 14.2088 9.34448 14.6154 9.34448C15.022 9.34448 15.4123 9.51463 15.7019 9.81818L18.4615 12.7534Z" fill="#6D75F4"/>
</svg>
