<svg width="25" height="25" viewBox="0 0 25 25" fill="none" xmlns="http://www.w3.org/2000/svg">
<path fill-rule="evenodd" clip-rule="evenodd" d="M12.1351 6.20754C8.8521 6.20754 6.19071 8.86893 6.19071 12.1519C6.19071 15.4349 8.8521 18.0963 12.1351 18.0963C15.4181 18.0963 18.0794 15.4349 18.0794 12.1519C18.0794 8.86893 15.4181 6.20754 12.1351 6.20754ZM4.52405 12.1519C4.52405 7.94845 7.93162 4.54088 12.1351 4.54088C16.3385 4.54088 19.7461 7.94845 19.7461 12.1519C19.7461 16.3554 16.3385 19.7629 12.1351 19.7629C7.93162 19.7629 4.52405 16.3554 4.52405 12.1519Z" fill="#6D75F4"/>
<path fill-rule="evenodd" clip-rule="evenodd" d="M12.1351 7.3649C12.5954 7.3649 12.9685 7.738 12.9685 8.19824V11.3186H16.0888C16.549 11.3186 16.9221 11.6917 16.9221 12.1519C16.9221 12.6121 16.549 12.9852 16.0888 12.9852H12.1351C11.6749 12.9852 11.3018 12.6121 11.3018 12.1519V8.19824C11.3018 7.738 11.6749 7.3649 12.1351 7.3649Z" fill="#6D75F4"/>
</svg>
