<svg width="24" height="24" viewBox="0 0 24 24" fill="none" xmlns="http://www.w3.org/2000/svg">
<path d="M12.0114 20C13.7808 20 15.3975 19.682 16.8618 19.0459C18.326 18.4098 19.592 17.6351 20.6597 16.7217C21.7274 15.8084 22.551 14.9113 23.1306 14.0306C23.7102 13.1498 24 12.473 24 12C24 11.527 23.7102 10.8502 23.1306 9.96942C22.551 9.08868 21.7274 8.19165 20.6597 7.27829C19.592 6.36493 18.326 5.59022 16.8618 4.95413C15.3975 4.31804 13.7808 4 12.0114 4C10.2574 4 8.64443 4.31804 7.17255 4.95413C5.70066 5.59022 4.43089 6.36493 3.3632 7.27829C2.29551 8.19165 1.46807 9.08868 0.880838 9.96942C0.29361 10.8502 0 11.527 0 12C0 12.473 0.29361 13.1498 0.880838 14.0306C1.46807 14.9113 2.29933 15.8084 3.37464 16.7217C4.44996 17.6351 5.71973 18.4098 7.18398 19.0459C8.64824 19.682 10.2574 20 12.0114 20ZM12.0114 17.2355C11.0963 17.2355 10.2688 16.9949 9.52907 16.5138C8.78932 16.0326 8.19829 15.3965 7.75596 14.6055C7.31363 13.8145 7.09247 12.946 7.09247 12C7.09247 11.0214 7.31363 10.1366 7.75596 9.34556C8.19829 8.55453 8.78932 7.92661 9.52907 7.46178C10.2688 6.99694 11.0963 6.76453 12.0114 6.76453C12.9113 6.76453 13.7312 6.99694 14.4709 7.46178C15.2107 7.92661 15.8017 8.55453 16.244 9.34556C16.6864 10.1366 16.9075 11.0214 16.9075 12C16.9075 12.946 16.6864 13.8145 16.244 14.6055C15.8017 15.3965 15.2107 16.0326 14.4709 16.5138C13.7312 16.9949 12.9113 17.2355 12.0114 17.2355ZM12.0343 14.3976C12.6292 14.3976 13.1478 14.157 13.5901 13.6758C14.0324 13.1947 14.2536 12.6361 14.2536 12C14.2536 11.3639 14.0324 10.8053 13.5901 10.3242C13.1478 9.84301 12.6292 9.60245 12.0343 9.60245C11.4242 9.60245 10.8942 9.84301 10.4442 10.3242C9.99428 10.8053 9.7693 11.3639 9.7693 12C9.7693 12.6361 9.99428 13.1947 10.4442 13.6758C10.8942 14.157 11.4242 14.3976 12.0343 14.3976Z" fill="#6D75F4"/>
</svg>
