<svg width="24" height="24" viewBox="0 0 24 24" fill="none" xmlns="http://www.w3.org/2000/svg">
<path d="M12.0761 18.8315H16.8757C20.6338 18.8315 22.3846 16.0411 22.3846 11.6448C22.3846 8.03146 21.1168 4.49838 17.5247 4.49838H12.0761V18.8315ZM15.3966 8.17198H16.4531C18.8529 8.17198 19.0642 10.6813 19.0642 11.5846C19.0642 12.9296 18.7623 15.1579 16.6946 15.1579H15.3966V8.17198Z" fill="#BCBED5"/>
<path d="M4.92621 9.05618C4.89453 7.83427 5.59147 7.22332 6.44681 7.22332C7.09623 7.22332 7.8882 7.58146 7.8882 8.50843C7.8882 9.64607 7.04871 9.83567 6.38345 9.83567C5.95578 9.83567 5.70235 9.77247 5.46476 9.7514V12.6166C5.70235 12.5744 5.9241 12.5112 6.38345 12.5112C7.11207 12.5112 7.85652 12.743 7.85652 14.0281C7.85652 15.2289 7.2863 15.6713 6.38345 15.6713C5.82906 15.6713 5.36972 15.5028 5.06877 15.0183C4.76782 14.639 4.62526 14.0492 4.6411 13.2697H1.63159C1.55239 14.3652 1.56823 19 6.526 19C10.1374 19 11.1511 16.177 11.1511 14.3862C11.1511 11.1208 9.34544 11.1208 9.34544 10.9522V10.9101C9.34544 10.8469 10.8027 10.8469 10.8027 7.77107C10.8027 6.52809 9.74143 4 6.54184 4C5.30636 4 4.16591 4.40028 3.32642 5.22191C2.48693 6.06461 1.96422 7.32865 1.94838 9.05618H4.92621Z" fill="#BCBED5"/>
</svg>
