<svg width="33" height="33" viewBox="0 0 33 33" fill="none" xmlns="http://www.w3.org/2000/svg">
<path d="M21.5184 12.1371C21.5184 12.5762 21.344 12.9973 21.0335 13.3078C20.723 13.6182 20.3019 13.7926 19.8629 13.7926C19.4238 13.7926 19.0027 13.6182 18.6922 13.3078C18.3818 12.9973 18.2074 12.5762 18.2074 12.1371C18.2074 11.6981 18.3818 11.277 18.6922 10.9665C19.0027 10.656 19.4238 10.4816 19.8629 10.4816C20.3019 10.4816 20.723 10.656 21.0335 10.9665C21.344 11.277 21.5184 11.6981 21.5184 12.1371ZM30.3478 6.06692V23.7257V25.9331C30.3478 26.5185 30.1152 27.08 29.7013 27.4939C29.2873 27.9079 28.7259 28.1404 28.1404 28.1404H3.85957C3.27415 28.1404 2.7127 27.9079 2.29874 27.4939C1.88478 27.08 1.65222 26.5185 1.65222 25.9331V21.5184V6.06692C1.65222 5.48149 1.88478 4.92005 2.29874 4.50609C2.7127 4.09213 3.27415 3.85957 3.85957 3.85957H28.1404C28.7259 3.85957 29.2873 4.09213 29.7013 4.50609C30.1152 4.92005 30.3478 5.48149 30.3478 6.06692ZM28.1404 21.0631V6.06692H3.85957V18.8558L8.92268 13.7926C9.33825 13.3832 9.89822 13.1537 10.4816 13.1537C11.065 13.1537 11.625 13.3832 12.0406 13.7926L18.2074 19.9594L21.0631 17.1037C21.4787 16.6942 22.0387 16.4647 22.6221 16.4647C23.2055 16.4647 23.7654 16.6942 24.181 17.1037L28.1404 21.0631Z" fill="#6D75F4"/>
</svg>
