<svg width="33" height="33" viewBox="0 0 33 33" fill="none" xmlns="http://www.w3.org/2000/svg">
<path d="M25.2651 20.895H21.3816C21.2528 20.895 21.1294 20.9461 21.0383 21.0371C20.9473 21.1282 20.8961 21.2516 20.8961 21.3804V25.2639C20.8961 25.3926 20.9473 25.5161 21.0383 25.6072C21.1294 25.6982 21.2528 25.7493 21.3816 25.7493H25.2651C25.3938 25.7493 25.5173 25.6982 25.6083 25.6072C25.6994 25.5161 25.7505 25.3926 25.7505 25.2639V21.3804C25.7505 21.2516 25.6994 21.1282 25.6083 21.0371C25.5173 20.9461 25.3938 20.895 25.2651 20.895Z" fill="#6D75F4"/>
<path d="M20.4108 17.0114H17.4981C17.3694 17.0114 17.2459 17.0626 17.1549 17.1536C17.0638 17.2447 17.0127 17.3681 17.0127 17.4969V20.4095C17.0127 20.5383 17.0638 20.6617 17.1549 20.7528C17.2459 20.8438 17.3694 20.895 17.4981 20.895H20.4108C20.5395 20.895 20.663 20.8438 20.754 20.7528C20.8451 20.6617 20.8962 20.5383 20.8962 20.4095V17.4969C20.8962 17.3681 20.8451 17.2447 20.754 17.1536C20.663 17.0626 20.5395 17.0114 20.4108 17.0114Z" fill="#6D75F4"/>
<path d="M29.1486 25.7493H26.236C26.1072 25.7493 25.9838 25.8005 25.8927 25.8915C25.8017 25.9826 25.7505 26.106 25.7505 26.2348V29.1474C25.7505 29.2762 25.8017 29.3996 25.8927 29.4907C25.9838 29.5817 26.1072 29.6328 26.236 29.6328H29.1486C29.2773 29.6328 29.4008 29.5817 29.4919 29.4907C29.5829 29.3996 29.634 29.2762 29.634 29.1474V26.2348C29.634 26.106 29.5829 25.9826 29.4919 25.8915C29.4008 25.8005 29.2773 25.7493 29.1486 25.7493Z" fill="#6D75F4"/>
<path d="M29.1486 17.0114H27.2068C27.0781 17.0114 26.9546 17.0626 26.8635 17.1536C26.7725 17.2447 26.7214 17.3681 26.7214 17.4969V19.4386C26.7214 19.5674 26.7725 19.6909 26.8635 19.7819C26.9546 19.8729 27.0781 19.9241 27.2068 19.9241H29.1486C29.2773 19.9241 29.4008 19.8729 29.4918 19.7819C29.5828 19.6909 29.634 19.5674 29.634 19.4386V17.4969C29.634 17.3681 29.5828 17.2447 29.4918 17.1536C29.4008 17.0626 29.2773 17.0114 29.1486 17.0114Z" fill="#6D75F4"/>
<path d="M19.4399 26.7202H17.4981C17.3694 26.7202 17.2459 26.7714 17.1549 26.8624C17.0638 26.9534 17.0127 27.0769 17.0127 27.2056V29.1474C17.0127 29.2761 17.0638 29.3996 17.1549 29.4907C17.2459 29.5817 17.3694 29.6328 17.4981 29.6328H19.4399C19.5686 29.6328 19.6921 29.5817 19.7831 29.4907C19.8742 29.3996 19.9253 29.2761 19.9253 29.1474V27.2056C19.9253 27.0769 19.8742 26.9534 19.7831 26.8624C19.6921 26.7714 19.5686 26.7202 19.4399 26.7202Z" fill="#6D75F4"/>
<path d="M25.2651 6.33181H21.3816C21.2528 6.33181 21.1294 6.38295 21.0383 6.47399C20.9473 6.56502 20.8961 6.6885 20.8961 6.81724V10.7008C20.8961 10.8295 20.9473 10.953 21.0383 11.044C21.1294 11.135 21.2528 11.1862 21.3816 11.1862H25.2651C25.3938 11.1862 25.5173 11.135 25.6083 11.044C25.6994 10.953 25.7505 10.8295 25.7505 10.7008V6.81724C25.7505 6.6885 25.6994 6.56502 25.6083 6.47399C25.5173 6.38295 25.3938 6.33181 25.2651 6.33181Z" fill="#6D75F4"/>
<path fill-rule="evenodd" clip-rule="evenodd" d="M17.5921 3.02775C17.9534 2.66644 18.4434 2.46347 18.9544 2.46347H27.6923C28.2032 2.46347 28.6933 2.66644 29.0546 3.02775C29.4159 3.38906 29.6189 3.87909 29.6189 4.39005V13.1279C29.6189 13.6389 29.4159 14.1289 29.0546 14.4902C28.6933 14.8515 28.2032 15.0545 27.6923 15.0545H18.9544C18.4434 15.0545 17.9534 14.8515 17.5921 14.4902C17.2308 14.1289 17.0278 13.6389 17.0278 13.1279V4.39005C17.0278 3.87909 17.2308 3.38906 17.5921 3.02775ZM18.9544 4.37488C18.9504 4.37488 18.9465 4.37648 18.9437 4.37932C18.9408 4.38217 18.9392 4.38602 18.9392 4.39005V13.1279C18.9392 13.132 18.9408 13.1358 18.9437 13.1387C18.9465 13.1415 18.9504 13.1431 18.9544 13.1431H27.6923C27.6963 13.1431 27.7002 13.1415 27.703 13.1387C27.7059 13.1358 27.7075 13.132 27.7075 13.1279V4.39005C27.7075 4.38602 27.7059 4.38217 27.703 4.37932C27.7002 4.37648 27.6963 4.37488 27.6923 4.37488H18.9544Z" fill="#6D75F4"/>
<path d="M10.7019 6.33181H6.81836C6.68961 6.33181 6.56614 6.38295 6.4751 6.47399C6.38407 6.56502 6.33292 6.6885 6.33292 6.81724V10.7008C6.33292 10.8295 6.38407 10.953 6.4751 11.044C6.56614 11.135 6.68961 11.1862 6.81836 11.1862H10.7019C10.8306 11.1862 10.9541 11.135 11.0451 11.044C11.1362 10.953 11.1873 10.8295 11.1873 10.7008V6.81724C11.1873 6.6885 11.1362 6.56502 11.0451 6.47399C10.9541 6.38295 10.8306 6.33181 10.7019 6.33181Z" fill="#6D75F4"/>
<path fill-rule="evenodd" clip-rule="evenodd" d="M3.02888 3.02775C3.39019 2.66645 3.88022 2.46347 4.39118 2.46347H13.1291C13.64 2.46347 14.1301 2.66645 14.4914 3.02775C14.8527 3.38905 15.0557 3.87909 15.0557 4.39005V13.1279C15.0557 13.6389 14.8527 14.1289 14.4914 14.4902C14.1301 14.8515 13.64 15.0545 13.1291 15.0545H4.39118C3.88022 15.0545 3.39019 14.8515 3.02888 14.4902C2.66758 14.1289 2.4646 13.6389 2.4646 13.1279V4.39005C2.4646 3.87909 2.66758 3.38905 3.02888 3.02775ZM4.39118 4.37488C4.38716 4.37488 4.3833 4.37648 4.38046 4.37932C4.37761 4.38217 4.37601 4.38603 4.37601 4.39005V13.1279C4.37601 13.132 4.37761 13.1358 4.38046 13.1387C4.3833 13.1415 4.38716 13.1431 4.39118 13.1431H13.1291C13.1331 13.1431 13.137 13.1415 13.1398 13.1387C13.1426 13.1358 13.1442 13.132 13.1442 13.1279V4.39005C13.1442 4.38603 13.1426 4.38217 13.1398 4.37932C13.137 4.37648 13.1331 4.37488 13.1291 4.37488H4.39118Z" fill="#6D75F4"/>
<path d="M10.7019 20.895H6.81836C6.68961 20.895 6.56614 20.9461 6.4751 21.0371C6.38407 21.1282 6.33292 21.2516 6.33292 21.3804V25.2639C6.33292 25.3926 6.38407 25.5161 6.4751 25.6072C6.56614 25.6982 6.68961 25.7493 6.81836 25.7493H10.7019C10.8306 25.7493 10.9541 25.6982 11.0451 25.6072C11.1362 25.5161 11.1873 25.3926 11.1873 25.2639V21.3804C11.1873 21.2516 11.1362 21.1282 11.0451 21.0371C10.9541 20.9461 10.8306 20.895 10.7019 20.895Z" fill="#6D75F4"/>
<path fill-rule="evenodd" clip-rule="evenodd" d="M3.02888 17.5909C3.39019 17.2296 3.88022 17.0266 4.39118 17.0266H13.1291C13.64 17.0266 14.1301 17.2296 14.4914 17.5909C14.8527 17.9522 15.0557 18.4422 15.0557 18.9532V27.6911C15.0557 28.202 14.8527 28.6921 14.4914 29.0534C14.1301 29.4147 13.64 29.6177 13.1291 29.6177H4.39118C3.88022 29.6177 3.39019 29.4147 3.02888 29.0534C2.66758 28.6921 2.4646 28.202 2.4646 27.6911V18.9532C2.4646 18.4422 2.66758 17.9522 3.02888 17.5909ZM4.39118 18.938C4.38716 18.938 4.3833 18.9396 4.38046 18.9425C4.37761 18.9453 4.37601 18.9492 4.37601 18.9532V27.6911C4.37601 27.6951 4.37761 27.699 4.38046 27.7018C4.3833 27.7047 4.38716 27.7063 4.39118 27.7063H13.1291C13.1331 27.7063 13.137 27.7047 13.1398 27.7018C13.1426 27.699 13.1442 27.6951 13.1442 27.6911V18.9532C13.1442 18.9492 13.1426 18.9453 13.1398 18.9425C13.137 18.9396 13.1331 18.938 13.1291 18.938H4.39118Z" fill="#6D75F4"/>
</svg>
