<svg width="24" height="24" viewBox="0 0 24 24" fill="none" xmlns="http://www.w3.org/2000/svg">
<path d="M3.53199 3.54125C4.25215 2.82147 5.25392 2.81939 5.9711 3.53619L17.9503 15.7054L17.6572 4.79025C17.6581 4.35493 17.8224 3.90838 18.1716 3.5594C18.8372 2.89415 19.828 2.90298 20.5126 3.58719C20.8277 3.90215 21.0011 4.31534 21 4.83773L20.992 19.1816C21.0018 19.6713 20.8049 20.1288 20.4666 20.4669C20.1393 20.7941 19.6815 20.9909 19.1916 20.9811L4.82915 21C4.30649 21.0011 3.89307 20.8278 3.57795 20.5129C2.89338 19.8286 2.89546 18.8274 3.56106 18.1621C3.89931 17.8241 4.3461 17.6599 4.78165 17.659L15.6917 17.9411L3.53783 5.96816C2.82066 5.25137 2.82274 4.25012 3.53199 3.54125Z" fill="#6D75F4"/>
</svg>
