<svg width="24" height="24" viewBox="0 0 24 24" fill="none" xmlns="http://www.w3.org/2000/svg">
<path fill-rule="evenodd" clip-rule="evenodd" d="M16.7487 20.7643C17.8256 19.7031 18.5 18.1374 18.5 16.1252C18.5 14.8175 17.6495 13.2461 16.3381 11.427C15.9537 10.8937 15.5826 10.4073 15.2101 9.91906C14.9486 9.57622 14.6863 9.23248 14.4183 8.87094C13.8197 8.06371 13.2212 7.20394 12.851 6.38408C12.7399 6.13784 12.6231 5.89139 12.5047 5.64132C12.1744 4.94406 11.8309 4.21865 11.5574 3.39106C10.361 4.85147 9.17048 6.47275 8.16338 8.1671C6.55495 10.8731 5.5 13.6237 5.5 16.1252C5.5 18.1373 6.17436 19.7027 7.25218 20.7638C8.33201 21.8268 9.93552 22.5 12.0056 22.5C14.0692 22.5 15.6699 21.8274 16.7487 20.7643ZM11.1274 1.56822C7.71897 5.55291 4 11.0474 4 16.1252C4 20.8456 7.19775 24 12.0056 24C16.8023 24 20 20.8456 20 16.1252C20 13.7281 18.0621 11.1858 16.378 8.97661C15.4695 7.78477 14.6348 6.68985 14.2182 5.76689C14.094 5.49187 13.9693 5.22699 13.8468 4.96702C13.3926 4.00253 12.9703 3.1058 12.7288 2.01076C12.5972 1.41381 12.5193 0.757924 12.5193 0C12.0685 0.490152 11.601 1.01461 11.1274 1.56822Z" fill="#6D75F4"/>
<path d="M11.921 20.9965C12.9785 20.4086 13.0794 19.077 12.141 17.9117C11.3605 16.9425 9.89856 17.1828 9.14101 16.5866C8.60845 16.1675 8.07411 15.0613 7.82822 13.7332C6.88285 16.2371 7.02927 17.9609 7.96689 19.6736C8.73216 21.0714 10.5844 21.7397 11.921 20.9965Z" fill="#6D75F4"/>
</svg>
