<svg width="25" height="25" viewBox="0 0 25 25" fill="none" xmlns="http://www.w3.org/2000/svg">
<rect x="0.411377" y="0.249023" width="24" height="24" rx="12" fill="#858585"/>
<path d="M6.18286 16.249V7.71777H8.43872C9.43481 7.71777 10.2278 8.03418 10.8176 8.66699C11.4114 9.2998 11.7141 10.167 11.7258 11.2686V12.6514C11.7258 13.7725 11.429 14.6533 10.8352 15.2939C10.2454 15.9307 9.43091 16.249 8.39185 16.249H6.18286ZM7.90552 9.15332V14.8193H8.42114C8.99536 14.8193 9.39966 14.6689 9.63403 14.3682C9.86841 14.0635 9.99146 13.54 10.0032 12.7979V11.3154C10.0032 10.5186 9.89185 9.96387 9.66919 9.65137C9.44653 9.33496 9.06763 9.16895 8.53247 9.15332H7.90552ZM16.9114 14.5029H14.5618L14.1047 16.249H12.2825L14.9485 7.71777H16.5247L19.2083 16.249H17.3684L16.9114 14.5029ZM14.9368 13.0674H16.5305L15.7336 10.0264L14.9368 13.0674Z" fill="#F5F5F5"/>
</svg>
