<svg width="41" height="41" viewBox="0 0 41 41" fill="none" xmlns="http://www.w3.org/2000/svg">
<g clip-path="url(#clip0_6434_60143)">
<rect x="0.210205" y="0.843994" width="40" height="40" rx="20" fill="white"/>
<circle cx="20.2102" cy="20.844" r="20" fill="#C4C4C4"/>
<path d="M18.2522 21.92L18.1862 20.05L19.8142 19.94C20.5769 19.896 21.2002 19.676 21.6842 19.28C22.1829 18.884 22.4322 18.3047 22.4322 17.542C22.4322 16.8967 22.2049 16.3613 21.7502 15.936C21.2955 15.5107 20.7015 15.298 19.9682 15.298C19.4549 15.298 19.0075 15.43 18.6262 15.694C18.2595 15.9433 18.0029 16.2587 17.8562 16.64L15.2162 15.892C15.5095 14.924 16.0669 14.1467 16.8882 13.56C17.7242 12.9733 18.7509 12.68 19.9682 12.68C20.9949 12.68 21.9042 12.8927 22.6962 13.318C23.4882 13.7287 24.1042 14.3007 24.5442 15.034C24.9989 15.7527 25.2262 16.5887 25.2262 17.542C25.2262 18.422 25.0135 19.192 24.5882 19.852C24.1629 20.512 23.5689 21.0253 22.8062 21.392C22.0435 21.744 21.1562 21.92 20.1442 21.92H18.2522ZM19.6822 28.674C19.1982 28.674 18.7802 28.5053 18.4282 28.168C18.0909 27.816 17.9222 27.3907 17.9222 26.892C17.9222 26.408 18.0909 25.9973 18.4282 25.66C18.7802 25.308 19.1982 25.132 19.6822 25.132C20.1662 25.132 20.5769 25.308 20.9142 25.66C21.2662 25.9973 21.4422 26.408 21.4422 26.892C21.4422 27.3907 21.2662 27.816 20.9142 28.168C20.5769 28.5053 20.1662 28.674 19.6822 28.674ZM18.2962 23.922L18.2302 20.644H21.1342L21.0682 23.922H18.2962Z" fill="#F5F5F5"/>
</g>
<defs>
<clipPath id="clip0_6434_60143">
<rect x="0.210205" y="0.843994" width="40" height="40" rx="20" fill="white"/>
</clipPath>
</defs>
</svg>
